<?xml version="1.0" encoding="UTF-8" standalone="no"?>
<svg
   version="1.0"
   width="512.000000pt"
   height="512.000000pt"
   viewBox="0 0 512.000000 512.000000"
   preserveAspectRatio="xMidYMid meet"
   id="svg26"
   sodipodi:docname="-ndTUug18C63aPsaj.svg"
   xmlns:inkscape="http://www.inkscape.org/namespaces/inkscape"
   xmlns:sodipodi="http://sodipodi.sourceforge.net/DTD/sodipodi-0.dtd"
   xmlns="http://www.w3.org/2000/svg"
   xmlns:svg="http://www.w3.org/2000/svg">
  <defs
     id="defs30" />
  <sodipodi:namedview
     id="namedview28"
     pagecolor="#ffffff"
     bordercolor="#000000"
     borderopacity="0.25"
     inkscape:showpageshadow="2"
     inkscape:pageopacity="0.0"
     inkscape:pagecheckerboard="0"
     inkscape:deskcolor="#d1d1d1"
     inkscape:document-units="pt" />
  <g
     transform="translate(0.000000,512.000000) scale(0.100000,-0.100000)"
     fill="#000000"
     stroke="none"
     id="g24">
    <path
       d="M2360 4764 c-88 -9 -296 -46 -328 -60 -42 -17 -66 -70 -54 -117 11 -43 66 -81 107 -73 17 3 67 12 113 21 318 58 673 33 988 -70 136 -44 348 -146 462 -222 l87 -58 -255 -6 c-279 -7 -311 -12 -400 -69 -138 -88 -211 -259 -177 -410 8 -36 18 -75 22 -87 l7 -23 -1052 0 -1052 0 21 33 c120 190 330 418 501 545 117 85 125 94 125 144 0 33 -7 46 -33 69 -63 57 -108 38 -310 -129 -196 -162 -405 -413 -513 -617 l-24 -45 -102 0 c-56 0 -126 -5 -155 -11 -126 -27 -249 -122 -305 -236 l-28 -58 0 -715 0 -715 32 -65 c83 -169 234 -249 473 -250 l75 0 28 -54 c107 -204 314 -456 507 -618 689 -577 1630 -690 2425 -290 380 190 705 495 917 859 l60 103 72 0 c176 1 292 40 382 130 60 60 98 124 119 205 21 82 22 1301 1 1380 -44 166 -172 290 -334 324 -29 6 -98 11 -152 11 l-99 0 -55 94 c-215 366 -551 674 -937 861 -218 105 -406 164 -634 200 -97 15 -433 27 -525 19z m1680 -851 c63 -68 154 -187 204 -265 l37 -58 -537 0 -537 0 -35 26 c-65 50 -90 152 -57 232 21 49 52 81 100 103 37 17 72 19 406 19 l367 0 52 -57z m736 -550 c56 -30 109 -94 123 -148 14 -58 15 -1244 1 -1296 -15 -52 -49 -99 -98 -134 l-44 -30 -616 -5 c-517 -4 -621 -7 -639 -20 -66 -43 -58 -153 13 -180 15 -6 181 -10 400 -10 l374 0 -37 -57 c-121 -191 -345 -428 -521 -553 -200 -142 -408 -243 -624 -305 -311 -90 -622 -104 -937 -44 -234 45 -531 167 -728 299 l-82 55 262 5 c234 5 267 8 313 26 161 66 254 194 262 364 3 68 0 97 -17 145 -12 32 -21 61 -21 62 0 2 142 3 316 3 l316 0 34 34 c40 40 44 75 14 123 -13 21 -31 35 -57 42 -26 7 -423 11 -1226 11 -974 0 -1193 2 -1220 13 -47 20 -95 64 -120 111 -22 41 -22 44 -25 661 -2 427 0 636 8 671 17 80 84 148 170 175 14 4 1001 7 2195 6 l2170 -2 41 -22z m-2887 -1837 c42 -22 89 -81 101 -128 24 -88 -19 -187 -99 -228 -38 -19 -58 -20 -409 -20 l-369 0 -49 53 c-86 91 -244 305 -244 329 0 4 234 8 520 8 435 0 526 -2 549 -14z"
       id="path2" />
    <path
       d="M3866 3138 c-34 -30 -366 -851 -366 -903 0 -47 24 -81 65 -95 41 -13 77 -5 103 23 24 26 362 862 362 895 0 31 -26 79 -49 92 -34 18 -88 12 -115 -12z"
       id="path4" />
    <path
       d="M4312 3127 c-32 -15 -40 -31 -221 -485 -103 -257 -161 -415 -161 -438 0 -96 140 -132 184 -46 43 84 346 855 346 882 0 23 -10 42 -34 66 -36 36 -70 43 -114 21z"
       id="path6" />
    <path
       d="M596 3104 l-26 -27 0 -429 0 -430 29 -29 c33 -32 67 -37 110 -15 46 24 51 51 51 255 0 175 1 190 21 214 30 39 87 54 130 33 60 -28 63 -40 69 -264 l5 -204 28 -24 c48 -41 113 -29 142 26 21 41 22 414 0 486 -16 53 -56 99 -115 130 -51 27 -170 26 -232 -3 l-47 -21 -3 140 c-3 139 -3 140 -31 164 -39 34 -96 33 -131 -2z"
       id="path8" />
    <path
       d="M1407 3029 c-28 -16 -47 -71 -47 -134 0 -49 -2 -55 -20 -55 -29 0 -76 -26 -84 -45 -3 -9 -6 -32 -6 -50 0 -40 38 -75 81 -75 l28 0 3 -226 3 -226 34 -30 c28 -25 39 -29 69 -24 20 3 45 15 56 26 20 19 21 35 26 248 l5 227 45 3 c73 5 109 60 84 127 -9 23 -57 45 -99 45 l-35 0 0 74 c0 71 -2 75 -31 100 -32 28 -80 34 -112 15z"
       id="path10" />
    <path
       d="M1899 3011 c-26 -27 -29 -35 -29 -99 l0 -69 -39 -7 c-64 -10 -97 -67 -69 -119 17 -33 39 -46 76 -47 l32 0 0 -215 c0 -235 5 -260 55 -283 33 -15 47 -15 80 0 50 23 55 48 55 283 l0 215 45 0 c89 0 126 81 66 141 -23 23 -39 29 -70 29 l-41 0 0 71 c0 65 -2 73 -29 100 -22 21 -39 29 -66 29 -27 0 -44 -8 -66 -29z"
       id="path12" />
    <path
       d="M2335 2826 c-34 -34 -37 -81 -33 -503 l3 -373 26 -25 c14 -14 42 -28 62 -32 32 -5 41 -1 72 30 l35 35 0 144 0 145 58 -20 c119 -40 247 -5 335 93 54 60 77 121 77 206 0 126 -72 239 -186 291 -70 32 -175 34 -250 5 l-51 -19 -27 24 c-36 31 -89 31 -121 -1z m391 -181 c112 -73 63 -247 -71 -247 -82 0 -135 53 -135 134 0 109 115 173 206 113z"
       id="path14" />
    <path
       d="M3174 2696 c-48 -48 -47 -95 1 -143 33 -33 39 -35 82 -30 61 7 93 41 93 98 0 51 -13 75 -50 94 -49 25 -88 19 -126 -19z"
       id="path16" />
    <path
       d="M3178 2311 c-28 -25 -33 -36 -33 -76 0 -40 5 -51 33 -76 70 -62 172 -20 172 71 0 52 -13 76 -50 95 -45 23 -85 19 -122 -14z"
       id="path18" />
    <path
       d="M3134 1742 c-35 -5 -74 -54 -76 -93 -1 -45 15 -75 52 -94 47 -24 78 -19 117 20 32 32 35 40 30 77 -3 22 -14 49 -24 60 -21 21 -68 35 -99 30z"
       id="path20" />
    <path
       d="M1655 4581 c-89 -37 -77 -176 17 -195 43 -8 93 18 113 60 25 52 -2 114 -57 133 -36 13 -45 13 -73 2z"
       id="path22" />
  </g>
</svg>
