<svg version="1.1" id="Layer_1" xmlns="http://www.w3.org/2000/svg" xmlns:xlink="http://www.w3.org/1999/xlink" x="0px" y="0px"
	 width="100%" viewBox="0 0 225 225" enable-background="new 0 0 225 225" xml:space="preserve">
<path fill="#FFFEFE" opacity="1.000000" stroke="none" 
	d="
M134.000000,226.000000 
	C89.333336,226.000000 45.166672,226.000000 1.000006,226.000000 
	C1.000004,151.000000 1.000004,76.000015 1.000002,1.000016 
	C75.999992,1.000011 150.999985,1.000011 225.999969,1.000005 
	C225.999985,75.999985 225.999985,150.999969 226.000000,225.999969 
	C195.500000,226.000000 165.000000,226.000000 134.000000,226.000000 
M86.740417,31.858631 
	C86.814034,33.904305 86.887650,35.949974 86.869659,38.601910 
	C87.240417,38.690269 87.611176,38.778629 88.907578,39.036022 
	C95.275848,38.979679 101.644119,38.923332 108.599602,38.952713 
	C108.727859,38.635822 108.856125,38.318928 109.202484,37.086674 
	C109.129784,28.723923 109.057083,20.361174 109.069565,11.395456 
	C108.716515,11.289509 108.363464,11.183560 107.148987,10.885520 
	C105.096855,10.949552 103.044716,11.013582 100.409340,10.989803 
	C100.298759,11.323141 100.188187,11.656478 99.885223,12.909754 
	C99.885223,18.423037 99.885223,23.936321 99.885223,30.015623 
	C95.482765,30.015623 91.740547,30.015623 87.353065,29.929628 
	C87.222481,30.288406 87.091896,30.647182 86.740417,31.858631 
M140.302795,37.174942 
	C140.221176,35.787205 140.139557,34.399467 140.177505,32.457047 
	C140.045609,32.321472 139.913712,32.185902 139.584808,31.409191 
	C135.905151,27.431566 132.225510,23.453941 127.595413,18.448917 
	C132.723160,18.448917 136.289215,18.448917 139.805130,18.448917 
	C139.805130,15.695695 139.805130,13.425369 139.805130,11.040199 
	C131.149582,11.040199 122.731560,11.040199 114.189934,11.040199 
	C112.080223,21.222118 122.743164,23.857637 125.494041,30.711222 
	C121.736855,31.151922 117.972412,31.593470 114.024086,32.491879 
	C114.024086,32.491879 114.137070,32.971222 113.972427,33.802254 
	C114.027214,35.208771 114.082001,36.615284 114.068756,38.560772 
	C114.371956,38.670780 114.675156,38.780788 115.903740,39.067150 
	C123.608620,39.008327 131.313507,38.949505 139.634018,38.951096 
	C139.780304,38.628345 139.926590,38.305595 140.302795,37.174942 
M39.153408,53.792732 
	C40.713997,70.510384 42.345203,87.221817 43.820019,103.947029 
	C46.623932,135.744934 49.358612,167.549042 52.058430,199.355957 
	C52.325089,202.497498 53.310207,204.245758 56.752735,205.159576 
	C74.396301,209.843063 91.928848,214.943787 109.557983,219.683716 
	C111.963188,220.330414 114.842308,220.328064 117.248009,219.681381 
	C134.872101,214.943710 152.397598,209.837402 170.038925,205.167419 
	C173.675262,204.204803 174.717377,202.397903 174.965698,199.016342 
	C175.939926,185.749573 177.033890,172.490509 178.211594,159.239975 
	C181.360657,123.809601 184.575943,88.385124 187.444016,52.182812 
	C186.949738,52.125042 186.455490,52.016781 185.961197,52.016674 
	C138.206116,52.006252 90.451027,51.997341 42.695992,52.041332 
	C41.542038,52.042397 40.388638,52.638950 39.153408,53.792732 
z"/>
<path fill="#E5A229" opacity="1.000000" stroke="none" 
	d="
M187.764923,52.958302 
	C184.575943,88.385124 181.360657,123.809601 178.211594,159.239975 
	C177.033890,172.490509 175.939926,185.749573 174.965698,199.016342 
	C174.717377,202.397903 173.675262,204.204803 170.038925,205.167419 
	C152.397598,209.837402 134.872101,214.943710 117.248009,219.681381 
	C114.842308,220.328064 111.963188,220.330414 109.557983,219.683716 
	C91.928848,214.943787 74.396301,209.843063 56.752735,205.159576 
	C53.310207,204.245758 52.325089,202.497498 52.058430,199.355957 
	C49.358612,167.549042 46.623932,135.744934 43.820019,103.947029 
	C42.345203,87.221817 40.713997,70.510384 39.646893,53.384457 
	C89.348557,52.970219 138.556747,52.964260 187.764923,52.958302 
M111.040619,168.155396 
	C108.479454,167.466995 105.926979,166.744125 103.355606,166.096252 
	C92.756348,163.425705 92.812584,163.428375 91.741852,152.436142 
	C91.603844,151.019348 90.554298,148.556000 89.815369,148.513397 
	C84.107498,148.184250 78.372116,148.332062 72.322281,148.332062 
	C73.201195,157.509781 74.132011,165.756088 74.708282,174.027100 
	C74.916634,177.017456 76.000923,178.233475 78.915771,178.998352 
	C90.334671,181.994843 101.668159,185.316772 113.012085,189.389481 
	C113.011795,194.055084 113.136147,198.725159 112.969543,203.384811 
	C112.848648,206.765991 114.471161,207.518478 117.299713,206.736649 
	C131.358078,202.850861 145.395203,198.887909 159.463364,195.038208 
	C162.189850,194.292099 163.021454,192.764709 163.078583,189.995300 
	C163.180908,185.036133 163.710403,180.081726 164.163147,175.134628 
	C165.413879,161.468292 166.749786,147.809753 167.987885,134.142303 
	C168.779343,125.405174 169.389297,116.651443 170.201508,107.916397 
	C171.410629,94.912964 172.661423,81.912575 174.035324,68.925789 
	C174.466263,64.852264 172.827362,63.881210 168.964905,63.923702 
	C151.970856,64.110649 134.973557,63.997261 117.977478,64.017090 
	C116.521225,64.018784 115.065178,64.199608 113.006691,64.337601 
	C113.006691,66.398392 113.006691,68.184143 112.563713,70.202171 
	C112.283501,70.406097 112.094940,70.674431 111.073555,71.177208 
	C100.716393,71.120529 90.359230,71.063850 79.800728,70.670563 
	C79.544968,70.832047 79.289207,70.993538 78.764320,71.906746 
	C78.398483,75.191063 77.980049,78.470505 77.675476,81.760490 
	C75.923157,100.688942 74.197792,119.619888 72.385864,139.395035 
	C86.267403,139.395035 99.661377,139.395035 113.019905,140.276352 
	C113.016472,147.883102 113.082710,155.490997 112.955879,163.095688 
	C112.927597,164.791565 112.220779,166.476135 111.040619,168.155396 
z"/>
<path fill="#161616" opacity="1.000000" stroke="none" 
	d="
M114.207977,32.035019 
	C117.972412,31.593470 121.736855,31.151922 125.494041,30.711222 
	C122.743164,23.857637 112.080223,21.222118 114.189934,11.040199 
	C122.731560,11.040199 131.149582,11.040199 139.805130,11.040199 
	C139.805130,13.425369 139.805130,15.695695 139.805130,18.448917 
	C136.289215,18.448917 132.723160,18.448917 127.595413,18.448917 
	C132.225510,23.453941 135.905151,27.431566 139.557968,31.856060 
	C139.706726,32.539196 139.882324,32.775463 140.057922,33.011730 
	C140.139557,34.399467 140.221176,35.787205 139.964874,37.671371 
	C139.325165,38.325485 139.122314,38.566448 139.018387,38.890682 
	C131.313507,38.949505 123.608620,39.008327 115.359993,38.783615 
	C114.650215,38.254776 114.423729,38.095352 114.136787,38.021801 
	C114.082001,36.615284 114.027214,35.208771 114.208221,33.313080 
	C114.505440,32.729427 114.640953,32.591129 114.615479,32.548073 
	C114.505333,32.361858 114.348083,32.203506 114.207977,32.035019 
z"/>
<path fill="#050708" opacity="1.000000" stroke="none" 
	d="
M100.992584,11.077613 
	C103.044716,11.013582 105.096855,10.949552 107.687851,11.186190 
	C108.425491,11.737016 108.678055,11.907537 108.984375,11.998423 
	C109.057083,20.361174 109.129784,28.723923 108.888390,37.635254 
	C108.311249,38.349243 108.123947,38.576962 108.012390,38.866985 
	C101.644119,38.923332 95.275848,38.979679 88.326172,38.752777 
	C87.530220,38.234493 87.269051,38.076530 86.961258,37.995647 
	C86.887650,35.949974 86.814034,33.904305 87.074959,31.326679 
	C87.693489,30.601322 87.889763,30.341619 87.998337,30.015623 
	C91.740547,30.015623 95.482765,30.015623 99.885223,30.015623 
	C99.885223,23.936321 99.885223,18.423037 100.181107,12.350460 
	C100.725830,11.608944 100.897697,11.371093 100.992584,11.077613 
z"/>
<path fill="#E39A00" opacity="1.000000" stroke="none" 
	d="
M187.604462,52.570557 
	C138.556747,52.964260 89.348557,52.970219 39.687675,52.966972 
	C40.388638,52.638950 41.542038,52.042397 42.695992,52.041332 
	C90.451027,51.997341 138.206116,52.006252 185.961197,52.016674 
	C186.455490,52.016781 186.949738,52.125042 187.604462,52.570557 
z"/>
<path fill="#000000" opacity="1.000000" stroke="none" 
	d="
M100.700958,11.033709 
	C100.897697,11.371093 100.725830,11.608944 100.277298,11.890491 
	C100.188187,11.656478 100.298759,11.323141 100.700958,11.033709 
z"/>
<path fill="#010202" opacity="1.000000" stroke="none" 
	d="
M139.326202,38.920891 
	C139.122314,38.566448 139.325165,38.325485 139.849915,38.075317 
	C139.926590,38.305595 139.780304,38.628345 139.326202,38.920891 
z"/>
<path fill="#010202" opacity="1.000000" stroke="none" 
	d="
M114.102768,38.291286 
	C114.423729,38.095352 114.650215,38.254776 114.897301,38.695438 
	C114.675156,38.780788 114.371956,38.670780 114.102768,38.291286 
z"/>
<path fill="#000000" opacity="1.000000" stroke="none" 
	d="
M108.306000,38.909851 
	C108.123947,38.576962 108.311249,38.349243 108.779343,38.092934 
	C108.856125,38.318928 108.727859,38.635822 108.306000,38.909851 
z"/>
<path fill="#000000" opacity="1.000000" stroke="none" 
	d="
M86.915459,38.298779 
	C87.269051,38.076530 87.530220,38.234493 87.863342,38.668259 
	C87.611176,38.778629 87.240417,38.690269 86.915459,38.298779 
z"/>
<path fill="#010202" opacity="1.000000" stroke="none" 
	d="
M140.117706,32.734390 
	C139.882324,32.775463 139.706726,32.539196 139.656479,32.176632 
	C139.913712,32.185902 140.045609,32.321472 140.117706,32.734390 
z"/>
<path fill="#010202" opacity="1.000000" stroke="none" 
	d="
M114.116028,32.263451 
	C114.348083,32.203506 114.505333,32.361858 114.615479,32.548073 
	C114.640953,32.591129 114.505440,32.729427 114.290543,32.897560 
	C114.137070,32.971222 114.024086,32.491879 114.116028,32.263451 
z"/>
<path fill="#000000" opacity="1.000000" stroke="none" 
	d="
M87.675705,29.972626 
	C87.889763,30.341619 87.693489,30.601322 87.185410,30.900345 
	C87.091896,30.647182 87.222481,30.288406 87.675705,29.972626 
z"/>
<path fill="#000000" opacity="1.000000" stroke="none" 
	d="
M109.026978,11.696939 
	C108.678055,11.907537 108.425491,11.737016 108.118561,11.282236 
	C108.363464,11.183560 108.716515,11.289509 109.026978,11.696939 
z"/>
<path fill="#F1BF27" opacity="1.000000" stroke="none" 
	d="
M113.006691,69.969887 
	C113.006691,68.184143 113.006691,66.398392 113.006691,64.337601 
	C115.065178,64.199608 116.521225,64.018784 117.977478,64.017090 
	C134.973557,63.997261 151.970856,64.110649 168.964905,63.923702 
	C172.827362,63.881210 174.466263,64.852264 174.035324,68.925789 
	C172.661423,81.912575 171.410629,94.912964 170.201508,107.916397 
	C169.389297,116.651443 168.779343,125.405174 167.987885,134.142303 
	C166.749786,147.809753 165.413879,161.468292 164.163147,175.134628 
	C163.710403,180.081726 163.180908,185.036133 163.078583,189.995300 
	C163.021454,192.764709 162.189850,194.292099 159.463364,195.038208 
	C145.395203,198.887909 131.358078,202.850861 117.299713,206.736649 
	C114.471161,207.518478 112.848648,206.765991 112.969543,203.384811 
	C113.136147,198.725159 113.011795,194.055084 113.041565,188.825302 
	C113.071037,188.261124 113.014900,188.007858 113.416412,188.049973 
	C125.499146,184.934662 137.199829,181.845261 148.832779,178.519028 
	C150.053589,178.169952 151.652328,176.497101 151.764816,175.313797 
	C153.490051,157.166962 154.997360,138.999420 156.621536,120.065453 
	C142.551254,120.065453 128.788910,120.065453 114.865768,119.808105 
	C114.145950,119.354256 113.586929,119.157761 113.022133,118.495071 
	C113.007355,109.068504 112.998352,100.108124 113.245712,91.064133 
	C113.673973,90.927895 113.845863,90.875275 114.471634,90.878906 
	C121.915489,91.742630 128.905472,92.550102 136.107941,93.382118 
	C136.511551,98.220482 136.703766,102.882301 137.402557,107.466911 
	C137.612549,108.844620 139.163605,111.025162 140.219391,111.097397 
	C145.625259,111.467285 151.070007,111.268501 156.661957,111.268501 
	C155.415268,97.512878 154.237396,84.516647 153.012924,71.006165 
	C139.922699,71.006165 127.462387,71.006165 114.842178,70.759644 
	C114.136528,70.338219 113.590767,70.163330 113.033905,69.988060 
	C113.022797,69.987686 113.006691,69.969887 113.006691,69.969887 
z"/>
<path fill="#ECECE9" opacity="1.000000" stroke="none" 
	d="
M114.017761,90.822662 
	C113.845863,90.875275 113.673973,90.927895 112.878006,91.150085 
	C106.951393,91.319656 101.648842,91.319656 95.815880,91.319656 
	C94.897545,101.240189 94.040596,110.497559 93.154739,120.067230 
	C99.824966,120.067230 105.924591,120.067230 112.275894,120.174820 
	C112.693909,120.357399 112.860252,120.432404 113.020378,120.943825 
	C113.006500,127.234741 112.998848,133.089249 113.023193,139.054306 
	C113.055206,139.164856 113.055351,139.395035 113.055351,139.395035 
	C99.661377,139.395035 86.267403,139.395035 72.385864,139.395035 
	C74.197792,119.619888 75.923157,100.688942 77.675476,81.760490 
	C77.980049,78.470505 78.398483,75.191063 79.144928,71.519409 
	C79.525528,71.132072 80.002068,71.007179 80.002068,71.007179 
	C90.359230,71.063850 100.716393,71.120529 111.791206,71.134979 
	C112.676445,71.051285 112.844040,71.009804 113.265533,71.069305 
	C113.686081,71.244019 113.852753,71.317757 114.014694,71.835312 
	C114.012566,78.460297 114.015160,84.641479 114.017761,90.822662 
z"/>
<path fill="#ECECEA" opacity="1.000000" stroke="none" 
	d="
M113.052216,188.389465 
	C101.668159,185.316772 90.334671,181.994843 78.915771,178.998352 
	C76.000923,178.233475 74.916634,177.017456 74.708282,174.027100 
	C74.132011,165.756088 73.201195,157.509781 72.322281,148.332062 
	C78.372116,148.332062 84.107498,148.184250 89.815369,148.513397 
	C90.554298,148.556000 91.603844,151.019348 91.741852,152.436142 
	C92.812584,163.428375 92.756348,163.425705 103.355606,166.096252 
	C105.926979,166.744125 108.479454,167.466995 111.598366,168.355804 
	C112.447350,168.735504 112.738579,168.914795 113.017586,169.555466 
	C113.008537,176.013840 113.011719,182.010849 113.014900,188.007858 
	C113.014900,188.007858 113.071037,188.261124 113.052216,188.389465 
z"/>
<path fill="#F1C02A" opacity="1.000000" stroke="none" 
	d="
M113.029816,169.094101 
	C112.738579,168.914795 112.447350,168.735504 111.991241,168.361053 
	C112.220779,166.476135 112.927597,164.791565 112.955879,163.095688 
	C113.082710,155.490997 113.016472,147.883102 113.037628,139.835693 
	C113.055351,139.395035 113.055206,139.164856 113.487305,139.127319 
	C121.154213,139.089783 128.389008,139.089783 136.163849,139.089783 
	C135.475220,146.290665 134.689499,152.828812 134.295685,159.390503 
	C134.120331,162.312454 133.299255,163.731369 130.216995,164.399841 
	C124.421188,165.656860 118.751785,167.496643 113.029816,169.094101 
z"/>
<path fill="#E49D0F" opacity="1.000000" stroke="none" 
	d="
M113.011642,70.968315 
	C112.844040,71.009804 112.676445,71.051285 112.253448,71.049957 
	C112.094940,70.674431 112.283501,70.406097 112.785202,70.086029 
	C113.006691,69.969887 113.022797,69.987686 113.021355,70.232964 
	C113.019913,70.478241 113.011642,70.968315 113.011642,70.968315 
z"/>
<path fill="#E49D0F" opacity="1.000000" stroke="none" 
	d="
M79.901398,70.838867 
	C80.002068,71.007179 79.525528,71.132072 79.279488,71.143547 
	C79.289207,70.993538 79.544968,70.832047 79.901398,70.838867 
z"/>
<path fill="#FFFEFD" opacity="1.000000" stroke="none" 
	d="
M113.017586,169.555466 
	C118.751785,167.496643 124.421188,165.656860 130.216995,164.399841 
	C133.299255,163.731369 134.120331,162.312454 134.295685,159.390503 
	C134.689499,152.828812 135.475220,146.290665 136.163849,139.089783 
	C128.389008,139.089783 121.154213,139.089783 113.455299,139.016769 
	C112.998848,133.089249 113.006500,127.234741 113.348358,120.846985 
	C114.130562,120.230988 114.578568,120.148224 115.026573,120.065460 
	C128.788910,120.065453 142.551254,120.065453 156.621536,120.065453 
	C154.997360,138.999420 153.490051,157.166962 151.764816,175.313797 
	C151.652328,176.497101 150.053589,178.169952 148.832779,178.519028 
	C137.199829,181.845261 125.499146,184.934662 113.416412,188.049973 
	C113.011719,182.010849 113.008537,176.013840 113.017586,169.555466 
z"/>
<path fill="#FFFEFD" opacity="1.000000" stroke="none" 
	d="
M114.471634,90.878906 
	C114.015160,84.641479 114.012566,78.460297 114.258896,71.735146 
	C114.672569,71.129509 114.837318,71.067833 115.002075,71.006165 
	C127.462387,71.006165 139.922699,71.006165 153.012924,71.006165 
	C154.237396,84.516647 155.415268,97.512878 156.661957,111.268501 
	C151.070007,111.268501 145.625259,111.467285 140.219391,111.097397 
	C139.163605,111.025162 137.612549,108.844620 137.402557,107.466911 
	C136.703766,102.882301 136.511551,98.220482 136.107941,93.382118 
	C128.905472,92.550102 121.915489,91.742630 114.471634,90.878906 
z"/>
<path fill="#E5A32A" opacity="1.000000" stroke="none" 
	d="
M112.024223,120.067230 
	C105.924591,120.067230 99.824966,120.067230 93.154739,120.067230 
	C94.040596,110.497559 94.897545,101.240189 95.815880,91.319656 
	C101.648842,91.319656 106.951393,91.319656 112.621643,91.233696 
	C112.998352,100.108124 113.007355,109.068504 112.792442,118.617210 
	C112.387093,119.492767 112.205658,119.779999 112.024223,120.067230 
z"/>
<path fill="#F0BB0F" opacity="1.000000" stroke="none" 
	d="
M112.275894,120.174820 
	C112.205658,119.779999 112.387093,119.492767 112.798210,119.083389 
	C113.586929,119.157761 114.145950,119.354256 114.865768,119.808105 
	C114.578568,120.148224 114.130562,120.230988 113.354584,120.410583 
	C112.860252,120.432404 112.693909,120.357399 112.275894,120.174820 
z"/>
<path fill="#F0BC10" opacity="1.000000" stroke="none" 
	d="
M114.842178,70.759644 
	C114.837318,71.067833 114.672569,71.129509 114.263618,71.291336 
	C113.852753,71.317757 113.686081,71.244019 113.265533,71.069305 
	C113.011642,70.968315 113.019913,70.478241 113.032455,70.233337 
	C113.590767,70.163330 114.136528,70.338219 114.842178,70.759644 
z"/>
</svg>