<svg version="1.1" id="Layer_1" xmlns="http://www.w3.org/2000/svg" xmlns:xlink="http://www.w3.org/1999/xlink" x="0px" y="0px"
	 width="100%" viewBox="0 0 512 512" enable-background="new 0 0 512 512" xml:space="preserve">
<path fill="#020101" opacity="1.000000" stroke="none" 
	d="
M307.000000,513.000000 
	C204.691513,513.000000 102.883018,513.000000 1.037265,513.000000 
	C1.037265,342.399811 1.037265,171.799637 1.037265,1.099719 
	C171.558502,1.099719 342.117065,1.099719 512.837830,1.099719 
	C512.837830,171.666534 512.837830,342.333252 512.837830,513.000000 
	C444.466278,513.000000 375.983124,513.000000 307.000000,513.000000 
M260.087311,248.010284 
	C251.833084,248.010284 243.578842,248.010284 235.393509,248.010284 
	C234.564148,258.423401 236.963181,262.493958 244.100174,262.713013 
	C250.404099,262.906525 256.723358,262.600372 263.900818,262.711761 
	C276.815582,262.917542 280.866119,258.731659 277.938995,248.152222 
	C272.306183,248.152222 266.661713,248.152222 260.087311,248.010284 
M249.989487,232.937363 
	C263.384460,232.937363 276.779419,232.937363 290.117065,232.937363 
	C290.117065,228.625427 290.117065,224.896942 290.117065,221.042969 
	C276.205719,221.042969 262.630920,221.042969 248.125015,220.849030 
	C240.011902,220.849030 231.898773,220.849030 223.515381,220.849030 
	C223.515381,225.029175 223.515381,228.756088 223.515381,232.787521 
	C232.200180,232.787521 240.636124,232.787521 249.989487,232.937363 
M235.159149,156.323257 
	C235.217224,155.827438 235.242325,155.325165 235.338242,154.836777 
	C237.563278,143.508713 244.963867,136.427505 255.250366,135.773987 
	C265.521820,135.121429 274.398163,141.054184 277.514313,150.654739 
	C280.749512,160.622147 276.750183,170.208847 266.789764,176.530365 
	C265.887756,177.102859 264.551849,178.025284 264.537872,178.805267 
	C264.378326,187.714615 264.436401,196.627869 264.436401,205.518967 
	C270.327667,205.518967 275.437103,205.518967 280.770294,205.518967 
	C280.868286,204.518600 281.044891,203.721954 281.008667,202.935120 
	C280.405334,189.826279 285.813873,179.892548 295.621796,171.204086 
	C312.419312,156.323853 318.220551,137.163177 313.885071,115.215553 
	C308.955505,90.260765 285.214386,70.052177 260.454834,69.495674 
	C236.100327,68.811897 217.581161,79.028786 205.711563,100.153938 
	C192.333786,123.963310 197.655670,153.511337 218.305252,171.362946 
	C228.037415,179.776443 233.279572,189.769623 232.866028,202.663284 
	C232.836304,203.589890 233.082855,204.525360 233.203400,205.475922 
	C238.649429,205.475922 243.732864,205.475922 249.288818,205.475922 
	C249.288818,196.588654 249.340759,187.970886 249.209595,179.355927 
	C249.196274,178.480972 248.276474,177.251678 247.446625,176.814484 
	C239.475418,172.614624 235.829880,165.751633 235.159149,156.323257 
M50.439926,443.580475 
	C38.327778,438.247955 33.283279,428.702667 33.292797,415.758728 
	C33.359081,325.621826 33.327675,235.484863 33.327579,145.347916 
	C33.327579,143.447037 33.327579,141.546158 33.327579,138.636703 
	C21.745342,146.906769 16.104198,157.074844 16.065100,170.105606 
	C15.967117,202.761215 16.030195,235.417313 16.030092,268.073212 
	C16.029924,320.555908 15.993028,373.038605 16.051586,425.521240 
	C16.072594,444.349243 28.025990,459.321045 46.098072,462.468933 
	C52.243713,463.539459 58.701847,462.815918 65.938950,463.082092 
	C114.379242,463.096832 162.819778,463.192749 211.259583,463.046722 
	C219.372955,463.022247 226.323593,464.967163 232.070496,471.729309 
	C233.334564,474.236481 234.614929,476.735626 235.859970,479.252197 
	C242.211960,492.091461 258.254059,496.218658 270.707153,487.871490 
	C273.293518,484.680786 276.760956,481.863342 278.300568,478.229187 
	C282.868530,467.446838 290.679077,463.017303 302.157959,463.053772 
	C354.314392,463.219421 406.471680,463.134583 458.628662,463.122314 
	C482.768372,463.116638 497.955902,447.957977 497.968475,423.852142 
	C497.986908,388.525360 498.070679,353.198090 497.883240,317.872314 
	C497.849762,311.566467 498.810059,306.615814 505.794556,305.584991 
	C505.794556,298.829834 505.794556,292.542389 505.794556,286.326385 
	C499.171753,284.173309 497.983643,282.587280 497.981476,275.850677 
	C497.970093,240.690536 498.037384,205.530243 497.940796,170.370361 
	C497.904633,157.204758 492.377258,146.850647 480.665741,138.736374 
	C480.665741,141.649033 480.665741,143.591019 480.665741,145.533020 
	C480.665741,235.349686 480.485016,325.167023 480.811584,414.982483 
	C480.880463,433.930054 468.107330,445.608185 450.517670,445.439362 
	C394.533203,444.902100 338.540192,445.169037 282.550934,445.310486 
	C273.158051,445.334229 264.216583,444.711914 256.935974,437.216400 
	C249.809845,444.651581 241.039154,445.328796 231.806976,445.306732 
	C176.150940,445.173676 120.494415,445.269379 64.838203,445.187653 
	C60.215214,445.180878 55.593319,444.427216 50.439926,443.580475 
M82.962265,430.143646 
	C133.450592,430.157288 183.938904,430.174316 234.427231,430.181946 
	C245.758652,430.183624 249.358673,426.591888 249.361343,415.245575 
	C249.371719,371.088928 249.365723,326.932281 249.365814,282.775635 
	C249.365814,281.189789 249.365829,279.603943 249.365829,277.798004 
	C240.461212,278.170319 232.771027,276.881531 226.669632,270.636017 
	C220.460602,264.280334 219.636215,256.305664 220.070480,248.046692 
	C213.051437,246.059570 208.317093,241.856796 208.452560,234.949326 
	C208.639328,225.425812 204.632950,214.594620 215.190521,207.402771 
	C216.496078,206.513412 217.550949,204.425934 217.694977,202.802551 
	C218.391479,194.951736 215.382904,188.731064 209.323959,183.548462 
	C194.084137,170.512848 185.000565,153.958191 184.012466,133.839645 
	C183.529785,124.011726 185.125793,114.081711 185.806290,103.815437 
	C176.272354,103.815437 165.640167,103.791985 155.008118,103.820175 
	C130.687561,103.884659 106.367081,103.974388 81.120239,103.840797 
	C75.456917,103.831314 69.793594,103.812439 64.130272,103.814301 
	C51.934647,103.818306 48.419609,107.339561 48.419228,119.582069 
	C48.416164,217.859009 48.416569,316.135956 48.424824,414.412903 
	C48.424980,416.241943 48.384686,418.090485 48.620125,419.896423 
	C49.413147,425.979370 53.516239,429.969543 59.589115,430.095306 
	C67.071724,430.250275 74.562462,430.012939 82.962265,430.143646 
M293.518555,257.421936 
	C290.410553,273.279633 279.393158,278.335663 264.589203,278.000244 
	C264.522980,279.442810 264.438599,280.424652 264.438446,281.406525 
	C264.431854,326.397278 264.431152,371.388062 264.440613,416.378815 
	C264.440857,417.541809 264.486115,418.714752 264.638458,419.866089 
	C265.445953,425.969757 269.481445,429.952606 275.580048,430.092285 
	C282.731598,430.256073 289.892426,430.013519 297.961853,430.145691 
	C349.460388,430.159027 400.959198,430.239716 452.456818,430.029541 
	C455.781128,430.015961 460.267090,428.677124 462.118256,426.314056 
	C464.413330,423.384338 465.430023,418.744446 465.440521,414.839081 
	C465.626648,345.674469 465.575531,276.509155 465.575378,207.344025 
	C465.575317,177.511353 465.603210,147.678635 465.558411,117.846024 
	C465.543518,107.942459 461.436768,103.869278 451.616516,103.822830 
	C442.616913,103.780273 433.616943,103.819313 424.617157,103.811897 
	C417.312286,103.805878 415.792297,102.786339 413.139038,96.116554 
	C406.859863,96.116554 400.553772,96.116554 394.298889,96.116554 
	C391.354187,103.046776 390.193115,103.810028 382.616333,103.812057 
	C365.616699,103.816605 348.617096,103.807915 331.617462,103.823112 
	C330.050140,103.824516 328.482941,103.958504 326.868652,104.033096 
	C326.940857,105.018967 326.899628,105.533768 327.024292,106.004646 
	C335.340240,137.408417 327.409607,163.834549 302.743652,185.094330 
	C296.666992,190.331833 295.568115,197.204712 296.152435,204.598373 
	C296.230194,205.582153 297.413788,206.751434 298.384644,207.345673 
	C303.246979,210.321869 305.466064,214.678665 305.537628,220.250977 
	C305.578308,223.417068 305.397491,226.592972 305.581787,229.748947 
	C306.103912,238.691193 303.360626,245.518204 293.895050,248.062180 
	C293.895050,251.133484 293.895050,253.952560 293.518555,257.421936 
M252.877747,152.060898 
	C249.879333,154.816208 249.255951,158.009842 251.769012,161.270432 
	C253.931564,164.076233 257.324188,165.235748 259.985321,162.818802 
	C261.802429,161.168411 263.134552,157.803116 262.918121,155.360992 
	C262.559723,151.316879 258.817413,150.155548 252.877747,152.060898 
z"/>
<path fill="#DCE8F7" opacity="1.000000" stroke="none" 
	d="
M293.895050,256.771637 
	C293.895050,253.952560 293.895050,251.133484 293.895050,248.062180 
	C303.360626,245.518204 306.103912,238.691193 305.581787,229.748947 
	C305.397491,226.592972 305.578308,223.417068 305.537628,220.250977 
	C305.466064,214.678665 303.246979,210.321869 298.384644,207.345673 
	C297.413788,206.751434 296.230194,205.582153 296.152435,204.598373 
	C295.568115,197.204712 296.666992,190.331833 302.743652,185.094330 
	C327.409607,163.834549 335.340240,137.408417 327.024292,106.004646 
	C326.899628,105.533768 326.940857,105.018967 326.868652,104.033096 
	C328.482941,103.958504 330.050140,103.824516 331.617462,103.823112 
	C348.617096,103.807915 365.616699,103.816605 382.616333,103.812057 
	C390.193115,103.810028 391.354187,103.046776 394.298889,96.116554 
	C400.553772,96.116554 406.859863,96.116554 413.139038,96.116554 
	C415.792297,102.786339 417.312286,103.805878 424.617157,103.811897 
	C433.616943,103.819313 442.616913,103.780273 451.616516,103.822830 
	C461.436768,103.869278 465.543518,107.942459 465.558411,117.846024 
	C465.603210,147.678635 465.575317,177.511353 465.575378,207.344025 
	C465.575531,276.509155 465.626648,345.674469 465.440521,414.839081 
	C465.430023,418.744446 464.413330,423.384338 462.118256,426.314056 
	C460.267090,428.677124 455.781128,430.015961 452.456818,430.029541 
	C400.959198,430.239716 349.460388,430.159027 297.442871,429.678375 
	C295.947418,424.389282 294.283722,419.589478 294.128601,414.741394 
	C293.729065,402.255463 294.006531,389.748169 293.997162,377.249390 
	C293.967102,337.090149 293.929657,296.930878 293.895050,256.771637 
M332.500366,368.543854 
	C322.674927,368.556885 312.847260,368.451874 303.024994,368.634705 
	C298.385437,368.721039 295.234222,372.004242 295.241638,376.063019 
	C295.248688,379.919495 298.209991,383.011475 302.525024,383.572144 
	C303.674164,383.721436 304.851990,383.676514 306.016632,383.676666 
	C345.819092,383.681152 385.621521,383.683960 425.423981,383.665894 
	C426.912628,383.665222 428.440948,383.631073 429.882172,383.307190 
	C433.816711,382.422943 435.986755,379.760590 435.846527,375.820618 
	C435.707092,371.903259 433.434174,369.321014 429.412872,368.742188 
	C427.613129,368.483093 425.759460,368.551544 423.930237,368.550934 
	C393.786957,368.541077 363.643677,368.543915 332.500366,368.543854 
M296.803558,308.345428 
	C293.602386,315.413330 296.480621,320.209503 304.230072,320.221741 
	C345.162354,320.286285 386.094849,320.270905 427.027191,320.229523 
	C432.533081,320.223938 435.821686,317.373688 435.919312,312.925812 
	C436.020325,308.323212 432.520660,305.203979 426.851959,305.198608 
	C386.086029,305.159821 345.319824,305.133850 304.554382,305.286407 
	C302.124298,305.295532 299.700073,306.879120 296.803558,308.345428 
M311.546448,351.961670 
	C346.024780,351.961670 380.503143,351.962341 414.981476,351.960876 
	C419.478577,351.960663 423.986145,352.140350 428.470062,351.894073 
	C433.786407,351.602112 437.153992,346.826752 435.514893,342.180969 
	C433.993835,337.869751 430.594482,336.874756 426.376953,336.888000 
	C401.726013,336.965485 377.074738,336.925568 352.423553,336.925751 
	C336.267029,336.925873 320.110413,336.889404 303.954102,336.948425 
	C298.613098,336.967926 295.189941,340.045044 295.233185,344.477722 
	C295.276337,348.903870 298.720428,351.836090 304.071320,351.952942 
	C306.235596,352.000214 308.401733,351.961334 311.546448,351.961670 
M315.957001,275.086609 
	C311.990082,279.598907 311.836670,284.379974 315.932220,287.020508 
	C317.630463,288.115417 319.972443,288.683044 322.023895,288.688782 
	C356.996429,288.786682 391.969330,288.767975 426.942108,288.725677 
	C428.407318,288.723907 430.484558,288.758240 431.217102,287.885925 
	C433.093079,285.652100 435.738220,282.779022 435.501984,280.419250 
	C435.267151,278.073883 432.084717,275.804779 429.807587,273.987488 
	C428.859192,273.230621 426.908203,273.667786 425.413086,273.667267 
	C391.439484,273.655518 357.465881,273.639191 323.492401,273.701569 
	C321.222565,273.705750 318.953888,274.327484 315.957001,275.086609 
M413.497894,242.003723 
	C387.700439,242.003891 361.902954,241.981995 336.105560,242.022858 
	C330.963043,242.031006 327.825958,244.816910 327.676086,249.192444 
	C327.523163,253.657669 330.606049,256.943787 335.512024,256.955170 
	C366.302368,257.026550 397.093018,257.025940 427.883423,256.960602 
	C432.749176,256.950256 436.041168,253.583435 435.916077,249.286865 
	C435.796356,245.173431 432.613892,242.158936 427.976990,242.031815 
	C423.486603,241.908707 418.990204,242.004227 413.497894,242.003723 
M372.576630,210.239639 
	C369.751038,210.291794 366.877380,210.036209 364.111176,210.468430 
	C359.990295,211.112350 357.553253,213.728897 357.699524,218.041031 
	C357.843872,222.294815 360.219452,224.759811 364.506927,225.215744 
	C365.661224,225.338486 366.832214,225.336700 367.995544,225.337112 
	C387.132111,225.343903 406.268646,225.345078 425.405212,225.334961 
	C426.734070,225.334259 428.079346,225.348969 429.388672,225.160110 
	C433.425934,224.577789 435.650879,222.016068 435.843781,218.116669 
	C436.026917,214.415039 434.081024,211.719589 430.395660,210.756424 
	C428.662079,210.303360 426.786407,210.264023 424.974670,210.260391 
	C407.835022,210.226028 390.695312,210.239761 372.576630,210.239639 
M431.154205,193.105377 
	C434.986908,191.297241 436.725616,188.260910 435.567596,184.183197 
	C434.407623,180.098465 431.228058,178.555130 427.093658,178.734299 
	C425.264984,178.813553 423.429932,178.745438 421.597778,178.745453 
	C403.276154,178.745651 384.954437,178.715866 366.632965,178.764343 
	C360.907410,178.779480 357.842041,181.315369 357.659546,185.886032 
	C357.468811,190.662689 360.754059,193.757172 366.474701,193.794968 
	C379.632385,193.881927 392.791321,193.876312 405.949188,193.804260 
	C414.092468,193.759674 422.234711,193.524292 431.154205,193.105377 
M412.498779,147.037766 
	C396.858063,147.039322 381.217010,146.980865 365.576874,147.077728 
	C360.658752,147.108185 357.543945,150.341721 357.657532,154.775055 
	C357.766449,159.026917 360.765289,161.980713 365.507416,161.997665 
	C386.305939,162.072021 407.105042,162.070541 427.903625,162.003693 
	C432.555969,161.988739 435.746124,158.951035 435.912292,154.841919 
	C436.086365,150.536194 432.821838,147.214188 427.972870,147.070740 
	C423.151764,146.928116 418.323120,147.038391 412.498779,147.037766 
M363.297821,117.070923 
	C357.645111,117.086296 351.982880,116.905907 346.342834,117.180977 
	C342.077240,117.389008 338.941406,120.749908 339.139526,124.641212 
	C339.349945,128.773911 341.536072,131.801117 345.813171,131.976013 
	C353.281342,132.281342 360.777893,132.253845 368.248840,131.984436 
	C372.279633,131.839096 374.561493,129.041626 374.870850,125.138649 
	C375.166260,121.412025 373.236572,118.702827 369.642975,117.602745 
	C367.944824,117.082909 366.043335,117.227455 363.297821,117.070923 
M315.888428,182.113144 
	C311.838135,186.832123 311.767639,189.974457 315.856079,194.201950 
	C320.246216,198.741440 324.689728,203.234604 329.243561,207.608871 
	C332.779755,211.005600 337.347046,211.090988 340.352692,208.081421 
	C343.445343,204.984695 343.354309,200.661224 339.849030,197.003235 
	C335.479584,192.443436 330.914276,188.071976 326.480865,183.572556 
	C323.588318,180.636993 320.368774,179.771347 315.888428,182.113144 
z"/>
<path fill="#DDE9F8" opacity="1.000000" stroke="none" 
	d="
M82.046570,104.053856 
	C106.367081,103.974388 130.687561,103.884659 155.008118,103.820175 
	C165.640167,103.791985 176.272354,103.815437 185.806290,103.815437 
	C185.125793,114.081711 183.529785,124.011726 184.012466,133.839645 
	C185.000565,153.958191 194.084137,170.512848 209.323959,183.548462 
	C215.382904,188.731064 218.391479,194.951736 217.694977,202.802551 
	C217.550949,204.425934 216.496078,206.513412 215.190521,207.402771 
	C204.632950,214.594620 208.639328,225.425812 208.452560,234.949326 
	C208.317093,241.856796 213.051437,246.059570 220.070480,248.046692 
	C219.636215,256.305664 220.460602,264.280334 226.669632,270.636017 
	C232.771027,276.881531 240.461212,278.170319 249.365829,277.798004 
	C249.365829,279.603943 249.365814,281.189789 249.365814,282.775635 
	C249.365723,326.932281 249.371719,371.088928 249.361343,415.245575 
	C249.358673,426.591888 245.758652,430.183624 234.427231,430.181946 
	C183.938904,430.174316 133.450592,430.157288 82.443558,429.676392 
	C80.948349,424.394897 79.439522,419.615723 79.120087,414.758301 
	C78.640663,407.468048 78.915001,400.121765 79.027603,392.801697 
	C79.088287,388.856934 79.479401,384.917236 80.027863,381.201843 
	C82.649742,382.179169 84.963074,383.576935 87.280960,383.584534 
	C127.946312,383.717926 168.612244,383.700104 209.278000,383.660614 
	C215.098877,383.654938 218.610138,380.770691 218.752640,376.252533 
	C218.899780,371.586700 215.256851,368.562653 209.153809,368.558105 
	C168.654709,368.527985 128.155396,368.497070 87.656845,368.650421 
	C85.035728,368.660370 82.420418,370.202606 79.565125,370.691193 
	C79.257088,363.145142 79.186340,355.940002 79.437698,348.914246 
	C82.291237,350.049835 84.819145,351.828400 87.354645,351.839294 
	C127.960312,352.013702 168.566940,351.970306 209.173355,351.954254 
	C215.224960,351.951874 218.878098,348.952118 218.745270,344.239380 
	C218.616699,339.677948 215.167175,336.937805 209.313171,336.934967 
	C168.706757,336.915222 128.100220,336.886749 87.494232,337.017090 
	C85.008110,337.025055 82.526253,338.363373 79.752060,338.773926 
	C79.617882,331.630341 79.774055,324.795532 80.281136,318.146362 
	C83.130630,318.973450 85.627602,320.166595 88.128036,320.173889 
	C128.233841,320.290710 168.340088,320.257935 208.446243,320.249390 
	C209.775299,320.249084 211.123260,320.268188 212.429810,320.066772 
	C216.266495,319.475220 218.847061,316.798981 218.466217,313.336151 
	C218.177338,310.709534 215.843918,308.019653 213.790863,305.996704 
	C212.764603,304.985474 210.330353,305.205597 208.532639,305.203888 
	C168.426544,305.166107 128.320023,305.106140 88.214951,305.313629 
	C85.193886,305.329224 82.183014,307.313751 79.120590,307.892395 
	C79.113922,300.108795 79.154076,292.815857 79.511002,285.719574 
	C82.383644,286.864502 84.935249,288.624908 87.496063,288.638367 
	C122.137024,288.820923 156.779282,288.777893 191.421173,288.744720 
	C197.619110,288.738770 201.064377,285.859131 201.000015,281.020996 
	C200.937851,276.347504 197.683334,273.680542 191.676086,273.674835 
	C156.867645,273.641724 122.058952,273.610382 87.251122,273.759369 
	C84.786079,273.769958 82.327248,275.230774 79.611115,275.688751 
	C79.271011,268.165985 79.185333,260.971710 79.422241,253.956635 
	C82.106415,255.089447 84.462982,256.858459 86.830391,256.873108 
	C117.117073,257.060455 147.405319,257.007843 177.693100,256.962158 
	C179.142822,256.959991 180.720917,256.733856 182.016174,256.131989 
	C185.490891,254.517365 186.826172,251.518463 186.012115,247.888519 
	C185.017593,243.453934 181.789932,241.970230 177.451569,241.977264 
	C147.330215,242.026154 117.208176,241.922379 87.088356,242.141937 
	C84.416893,242.161407 81.759689,244.136841 79.074844,244.722870 
	C79.329254,237.153763 79.604698,230.065598 80.230446,223.171799 
	C82.738647,224.024536 84.872749,225.136581 87.059151,225.251221 
	C92.362465,225.529266 97.690109,225.343994 103.007950,225.343948 
	C117.798195,225.343781 132.588715,225.395844 147.378540,225.317245 
	C153.623718,225.284042 156.979324,221.883987 156.250244,216.686417 
	C155.660950,212.485397 152.636124,210.267487 147.060638,210.255203 
	C127.285011,210.211639 107.507462,210.110580 87.735466,210.382065 
	C84.874527,210.421341 82.039909,212.376999 79.139557,212.951843 
	C79.114113,205.167130 79.142235,197.876404 79.489967,190.774475 
	C82.354866,191.916855 84.890999,193.668167 87.446884,193.697510 
	C107.391792,193.926498 127.340607,193.859100 147.287979,193.803009 
	C153.043991,193.786819 156.387772,190.832031 156.347702,186.144562 
	C156.306839,181.362625 153.191711,178.771652 147.150131,178.759354 
	C127.202675,178.718704 107.254372,178.665359 87.308464,178.846008 
	C84.839378,178.868362 82.382790,180.271393 79.654083,180.712708 
	C79.286720,173.201218 79.185684,166.011688 79.406296,159.002960 
	C81.923271,160.134262 84.110443,161.887833 86.315216,161.910233 
	C106.969803,162.120209 127.627426,162.017548 148.284119,162.047729 
	C152.052536,162.053238 154.763672,160.480606 155.971878,156.922241 
	C157.787598,151.574585 153.981705,147.073318 147.590088,147.056473 
	C127.433250,147.003326 107.274635,146.917786 87.121048,147.178894 
	C84.438477,147.213654 81.780899,149.177383 79.084328,149.764313 
	C79.036385,142.150055 78.979088,135.019150 79.005081,127.888573 
	C79.034485,119.822487 78.010368,111.612251 82.046570,104.053856 
M171.882782,205.543579 
	C175.719727,211.297089 180.134338,211.959839 184.970474,207.315063 
	C189.533554,202.932602 194.025101,198.467865 198.385437,193.884567 
	C201.876678,190.214783 201.900040,185.890381 198.759674,182.785675 
	C195.708679,179.769318 191.252487,179.893478 187.649780,183.356781 
	C182.968246,187.857162 178.178436,192.295425 173.987259,197.229355 
	C172.411240,199.084671 172.380295,202.252457 171.882782,205.543579 
M164.227875,117.071106 
	C158.242279,117.082947 152.248108,116.902679 146.273880,117.169243 
	C141.738464,117.371597 138.799789,120.833633 138.989517,125.027496 
	C139.169220,128.999451 142.146042,131.979294 146.514923,132.069992 
	C153.494949,132.214844 160.487839,132.299835 167.461151,132.036194 
	C173.361221,131.813126 177.041321,125.491615 173.555939,121.094269 
	C171.821457,118.905952 168.014801,118.360069 164.227875,117.071106 
z"/>
<path fill="#FC646E" opacity="1.000000" stroke="none" 
	d="
M231.873917,471.045624 
	C226.323593,464.967163 219.372955,463.022247 211.259583,463.046722 
	C162.819778,463.192749 114.379242,463.096832 65.312012,462.713074 
	C62.715168,460.331329 60.462627,458.521729 58.837978,456.260925 
	C56.011440,452.327515 53.572399,448.115692 50.970913,444.020569 
	C55.593319,444.427216 60.215214,445.180878 64.838203,445.187653 
	C120.494415,445.269379 176.150940,445.173676 231.806976,445.306732 
	C241.039154,445.328796 249.809845,444.651581 256.935974,437.216400 
	C264.216583,444.711914 273.158051,445.334229 282.550934,445.310486 
	C338.540192,445.169037 394.533203,444.902100 450.517670,445.439362 
	C468.107330,445.608185 480.880463,433.930054 480.811584,414.982483 
	C480.485016,325.167023 480.665741,235.349686 480.665741,145.533020 
	C480.665741,143.591019 480.665741,141.649033 480.665741,138.736374 
	C492.377258,146.850647 497.904633,157.204758 497.940796,170.370361 
	C498.037384,205.530243 497.970093,240.690536 497.981476,275.850677 
	C497.983643,282.587280 499.171753,284.173309 505.794556,286.326385 
	C505.794556,292.542389 505.794556,298.829834 505.794556,305.584991 
	C498.810059,306.615814 497.849762,311.566467 497.883240,317.872314 
	C498.070679,353.198090 497.986908,388.525360 497.968475,423.852142 
	C497.955902,447.957977 482.768372,463.116638 458.628662,463.122314 
	C406.471680,463.134583 354.314392,463.219421 302.157959,463.053772 
	C290.679077,463.017303 282.868530,467.446838 278.300568,478.229187 
	C276.760956,481.863342 273.293518,484.680786 270.322968,487.602417 
	C268.563904,484.524323 267.198517,481.710602 265.812134,478.907288 
	C263.240295,473.707031 259.293945,470.816986 253.243423,470.958893 
	C246.123489,471.125946 238.997360,471.028442 231.873917,471.045624 
z"/>
<path fill="#B1D8FB" opacity="1.000000" stroke="none" 
	d="
M79.084656,158.822144 
	C79.185684,166.011688 79.286720,173.201218 79.542191,181.051834 
	C79.521202,184.670502 79.345779,187.628098 79.170357,190.585693 
	C79.142235,197.876404 79.114113,205.167130 79.067009,213.305069 
	C79.325401,217.094009 79.602768,220.035721 79.880142,222.977432 
	C79.604698,230.065598 79.329254,237.153763 79.028061,245.089111 
	C79.034752,248.550018 79.067207,251.163742 79.099663,253.777451 
	C79.185333,260.971710 79.271011,268.165985 79.496979,276.025757 
	C79.489586,279.635162 79.341911,282.579041 79.194237,285.522919 
	C79.154076,292.815857 79.113922,300.108795 79.057480,308.251160 
	C79.337540,312.053986 79.633881,315.007355 79.930229,317.960724 
	C79.774055,324.795532 79.617882,331.630341 79.636871,339.111511 
	C79.579887,342.750183 79.347740,345.742523 79.115585,348.734833 
	C79.186340,355.940002 79.257088,363.145142 79.447754,371.023926 
	C77.238785,374.829559 77.905930,377.911926 79.721428,380.975250 
	C79.479401,384.917236 79.088287,388.856934 79.027603,392.801697 
	C78.915001,400.121765 78.640663,407.468048 79.120087,414.758301 
	C79.439522,419.615723 80.948349,424.394897 81.987267,429.577148 
	C74.562462,430.012939 67.071724,430.250275 59.589115,430.095306 
	C53.516239,429.969543 49.413147,425.979370 48.620125,419.896423 
	C48.384686,418.090485 48.424980,416.241943 48.424824,414.412903 
	C48.416569,316.135956 48.416164,217.859009 48.419228,119.582069 
	C48.419609,107.339561 51.934647,103.818306 64.130272,103.814301 
	C69.793594,103.812439 75.456917,103.831314 81.583405,103.947327 
	C78.010368,111.612251 79.034485,119.822487 79.005081,127.888573 
	C78.979088,135.019150 79.036385,142.150055 79.034882,150.130722 
	C79.036781,153.594467 79.060722,156.208313 79.084656,158.822144 
z"/>
<path fill="#FCE359" opacity="1.000000" stroke="none" 
	d="
M261.180878,69.870789 
	C285.214386,70.052177 308.955505,90.260765 313.885071,115.215553 
	C318.220551,137.163177 312.419312,156.323853 295.621796,171.204086 
	C285.813873,179.892548 280.405334,189.826279 281.008667,202.935120 
	C281.044891,203.721954 280.868286,204.518600 280.770294,205.518967 
	C275.437103,205.518967 270.327667,205.518967 264.436401,205.518967 
	C264.436401,196.627869 264.378326,187.714615 264.537872,178.805267 
	C264.551849,178.025284 265.887756,177.102859 266.789764,176.530365 
	C276.750183,170.208847 280.749512,160.622147 277.514313,150.654739 
	C274.398163,141.054184 265.521820,135.121429 255.250366,135.773987 
	C244.963867,136.427505 237.563278,143.508713 235.338242,154.836777 
	C235.242325,155.325165 235.217224,155.827438 234.794128,156.475372 
	C224.601822,135.993622 225.384003,115.583130 236.028244,95.539131 
	C241.857269,84.562584 251.096146,76.762413 261.180878,69.870789 
z"/>
<path fill="#FE4756" opacity="1.000000" stroke="none" 
	d="
M50.705421,443.800537 
	C53.572399,448.115692 56.011440,452.327515 58.837978,456.260925 
	C60.462627,458.521729 62.715168,460.331329 64.851128,462.628082 
	C58.701847,462.815918 52.243713,463.539459 46.098072,462.468933 
	C28.025990,459.321045 16.072594,444.349243 16.051586,425.521240 
	C15.993028,373.038605 16.029924,320.555908 16.030092,268.073212 
	C16.030195,235.417313 15.967117,202.761215 16.065100,170.105606 
	C16.104198,157.074844 21.745342,146.906769 33.327579,138.636703 
	C33.327579,141.546158 33.327579,143.447037 33.327579,145.347916 
	C33.327675,235.484863 33.359081,325.621826 33.292797,415.758728 
	C33.283279,428.702667 38.327778,438.247955 50.705421,443.800537 
z"/>
<path fill="#B1D8FB" opacity="1.000000" stroke="none" 
	d="
M293.706787,257.096802 
	C293.929657,296.930878 293.967102,337.090149 293.997162,377.249390 
	C294.006531,389.748169 293.729065,402.255463 294.128601,414.741394 
	C294.283722,419.589478 295.947418,424.389282 296.986572,429.579132 
	C289.892426,430.013519 282.731598,430.256073 275.580048,430.092285 
	C269.481445,429.952606 265.445953,425.969757 264.638458,419.866089 
	C264.486115,418.714752 264.440857,417.541809 264.440613,416.378815 
	C264.431152,371.388062 264.431854,326.397278 264.438446,281.406525 
	C264.438599,280.424652 264.522980,279.442810 264.589203,278.000244 
	C279.393158,278.335663 290.410553,273.279633 293.706787,257.096802 
z"/>
<path fill="#FDD101" opacity="1.000000" stroke="none" 
	d="
M260.817871,69.683228 
	C251.096146,76.762413 241.857269,84.562584 236.028244,95.539131 
	C225.384003,115.583130 224.601822,135.993622 234.696503,156.860794 
	C235.829880,165.751633 239.475418,172.614624 247.446625,176.814484 
	C248.276474,177.251678 249.196274,178.480972 249.209595,179.355927 
	C249.340759,187.970886 249.288818,196.588654 249.288818,205.475922 
	C243.732864,205.475922 238.649429,205.475922 233.203400,205.475922 
	C233.082855,204.525360 232.836304,203.589890 232.866028,202.663284 
	C233.279572,189.769623 228.037415,179.776443 218.305252,171.362946 
	C197.655670,153.511337 192.333786,123.963310 205.711563,100.153938 
	C217.581161,79.028786 236.100327,68.811897 260.817871,69.683228 
z"/>
<path fill="#FD4655" opacity="1.000000" stroke="none" 
	d="
M231.972198,471.387451 
	C238.997360,471.028442 246.123489,471.125946 253.243423,470.958893 
	C259.293945,470.816986 263.240295,473.707031 265.812134,478.907288 
	C267.198517,481.710602 268.563904,484.524323 269.995575,487.687561 
	C258.254059,496.218658 242.211960,492.091461 235.859970,479.252197 
	C234.614929,476.735626 233.334564,474.236481 231.972198,471.387451 
z"/>
<path fill="#5FB7FD" opacity="1.000000" stroke="none" 
	d="
M249.056122,221.042969 
	C262.630920,221.042969 276.205719,221.042969 290.117065,221.042969 
	C290.117065,224.896942 290.117065,228.625427 290.117065,232.937363 
	C276.779419,232.937363 263.384460,232.937363 249.519562,232.416168 
	C249.051804,228.277634 249.053955,224.660294 249.056122,221.042969 
z"/>
<path fill="#028FF2" opacity="1.000000" stroke="none" 
	d="
M263.035858,262.514832 
	C256.723358,262.600372 250.404099,262.906525 244.100174,262.713013 
	C236.963181,262.493958 234.564148,258.423401 235.393509,248.010284 
	C243.578842,248.010284 251.833084,248.010284 260.544678,248.523804 
	C261.679962,253.529831 262.357910,258.022339 263.035858,262.514832 
z"/>
<path fill="#22A5F9" opacity="1.000000" stroke="none" 
	d="
M248.590576,220.945999 
	C249.053955,224.660294 249.051804,228.277634 249.060867,232.341248 
	C240.636124,232.787521 232.200180,232.787521 223.515381,232.787521 
	C223.515381,228.756088 223.515381,225.029175 223.515381,220.849030 
	C231.898773,220.849030 240.011902,220.849030 248.590576,220.945999 
z"/>
<path fill="#22A5F9" opacity="1.000000" stroke="none" 
	d="
M263.468323,262.613281 
	C262.357910,258.022339 261.679962,253.529831 261.009644,248.594788 
	C266.661713,248.152222 272.306183,248.152222 277.938995,248.152222 
	C280.866119,258.731659 276.815582,262.917542 263.468323,262.613281 
z"/>
<path fill="#F5DD57" opacity="1.000000" stroke="none" 
	d="
M253.212738,151.847351 
	C258.817413,150.155548 262.559723,151.316879 262.918121,155.360992 
	C263.134552,157.803116 261.802429,161.168411 259.985321,162.818802 
	C257.324188,165.235748 253.931564,164.076233 251.769012,161.270432 
	C249.255951,158.009842 249.879333,154.816208 253.212738,151.847351 
z"/>
<path fill="#060607" opacity="1.000000" stroke="none" 
	d="
M333.000366,368.543884 
	C363.643677,368.543915 393.786957,368.541077 423.930237,368.550934 
	C425.759460,368.551544 427.613129,368.483093 429.412872,368.742188 
	C433.434174,369.321014 435.707092,371.903259 435.846527,375.820618 
	C435.986755,379.760590 433.816711,382.422943 429.882172,383.307190 
	C428.440948,383.631073 426.912628,383.665222 425.423981,383.665894 
	C385.621521,383.683960 345.819092,383.681152 306.016632,383.676666 
	C304.851990,383.676514 303.674164,383.721436 302.525024,383.572144 
	C298.209991,383.011475 295.248688,379.919495 295.241638,376.063019 
	C295.234222,372.004242 298.385437,368.721039 303.024994,368.634705 
	C312.847260,368.451874 322.674927,368.556885 333.000366,368.543884 
z"/>
<path fill="#040505" opacity="1.000000" stroke="none" 
	d="
M297.038330,308.037750 
	C299.700073,306.879120 302.124298,305.295532 304.554382,305.286407 
	C345.319824,305.133850 386.086029,305.159821 426.851959,305.198608 
	C432.520660,305.203979 436.020325,308.323212 435.919312,312.925812 
	C435.821686,317.373688 432.533081,320.223938 427.027191,320.229523 
	C386.094849,320.270905 345.162354,320.286285 304.230072,320.221741 
	C296.480621,320.209503 293.602386,315.413330 297.038330,308.037750 
z"/>
<path fill="#020202" opacity="1.000000" stroke="none" 
	d="
M311.056763,351.961670 
	C308.401733,351.961334 306.235596,352.000214 304.071320,351.952942 
	C298.720428,351.836090 295.276337,348.903870 295.233185,344.477722 
	C295.189941,340.045044 298.613098,336.967926 303.954102,336.948425 
	C320.110413,336.889404 336.267029,336.925873 352.423553,336.925751 
	C377.074738,336.925568 401.726013,336.965485 426.376953,336.888000 
	C430.594482,336.874756 433.993835,337.869751 435.514893,342.180969 
	C437.153992,346.826752 433.786407,351.602112 428.470062,351.894073 
	C423.986145,352.140350 419.478577,351.960663 414.981476,351.960876 
	C380.503143,351.962341 346.024780,351.961670 311.056763,351.961670 
z"/>
<path fill="#050506" opacity="1.000000" stroke="none" 
	d="
M316.320831,274.874268 
	C318.953888,274.327484 321.222565,273.705750 323.492401,273.701569 
	C357.465881,273.639191 391.439484,273.655518 425.413086,273.667267 
	C426.908203,273.667786 428.859192,273.230621 429.807587,273.987488 
	C432.084717,275.804779 435.267151,278.073883 435.501984,280.419250 
	C435.738220,282.779022 433.093079,285.652100 431.217102,287.885925 
	C430.484558,288.758240 428.407318,288.723907 426.942108,288.725677 
	C391.969330,288.767975 356.996429,288.786682 322.023895,288.688782 
	C319.972443,288.683044 317.630463,288.115417 315.932220,287.020508 
	C311.836670,284.379974 311.990082,279.598907 316.320831,274.874268 
z"/>
<path fill="#010101" opacity="1.000000" stroke="none" 
	d="
M413.997192,242.003723 
	C418.990204,242.004227 423.486603,241.908707 427.976990,242.031815 
	C432.613892,242.158936 435.796356,245.173431 435.916077,249.286865 
	C436.041168,253.583435 432.749176,256.950256 427.883423,256.960602 
	C397.093018,257.025940 366.302368,257.026550 335.512024,256.955170 
	C330.606049,256.943787 327.523163,253.657669 327.676086,249.192444 
	C327.825958,244.816910 330.963043,242.031006 336.105560,242.022858 
	C361.902954,241.981995 387.700439,242.003891 413.997192,242.003723 
z"/>
<path fill="#050506" opacity="1.000000" stroke="none" 
	d="
M373.066101,210.239639 
	C390.695312,210.239761 407.835022,210.226028 424.974670,210.260391 
	C426.786407,210.264023 428.662079,210.303360 430.395660,210.756424 
	C434.081024,211.719589 436.026917,214.415039 435.843781,218.116669 
	C435.650879,222.016068 433.425934,224.577789 429.388672,225.160110 
	C428.079346,225.348969 426.734070,225.334259 425.405212,225.334961 
	C406.268646,225.345078 387.132111,225.343903 367.995544,225.337112 
	C366.832214,225.336700 365.661224,225.338486 364.506927,225.215744 
	C360.219452,224.759811 357.843872,222.294815 357.699524,218.041031 
	C357.553253,213.728897 359.990295,211.112350 364.111176,210.468430 
	C366.877380,210.036209 369.751038,210.291794 373.066101,210.239639 
z"/>
<path fill="#040505" opacity="1.000000" stroke="none" 
	d="
M430.765808,193.239960 
	C422.234711,193.524292 414.092468,193.759674 405.949188,193.804260 
	C392.791321,193.876312 379.632385,193.881927 366.474701,193.794968 
	C360.754059,193.757172 357.468811,190.662689 357.659546,185.886032 
	C357.842041,181.315369 360.907410,178.779480 366.632965,178.764343 
	C384.954437,178.715866 403.276154,178.745651 421.597778,178.745453 
	C423.429932,178.745438 425.264984,178.813553 427.093658,178.734299 
	C431.228058,178.555130 434.407623,180.098465 435.567596,184.183197 
	C436.725616,188.260910 434.986908,191.297241 430.765808,193.239960 
z"/>
<path fill="#020202" opacity="1.000000" stroke="none" 
	d="
M412.998291,147.037766 
	C418.323120,147.038391 423.151764,146.928116 427.972870,147.070740 
	C432.821838,147.214188 436.086365,150.536194 435.912292,154.841919 
	C435.746124,158.951035 432.555969,161.988739 427.903625,162.003693 
	C407.105042,162.070541 386.305939,162.072021 365.507416,161.997665 
	C360.765289,161.980713 357.766449,159.026917 357.657532,154.775055 
	C357.543945,150.341721 360.658752,147.108185 365.576874,147.077728 
	C381.217010,146.980865 396.858063,147.039322 412.998291,147.037766 
z"/>
<path fill="#050505" opacity="1.000000" stroke="none" 
	d="
M363.765900,117.070953 
	C366.043335,117.227455 367.944824,117.082909 369.642975,117.602745 
	C373.236572,118.702827 375.166260,121.412025 374.870850,125.138649 
	C374.561493,129.041626 372.279633,131.839096 368.248840,131.984436 
	C360.777893,132.253845 353.281342,132.281342 345.813171,131.976013 
	C341.536072,131.801117 339.349945,128.773911 339.139526,124.641212 
	C338.941406,120.749908 342.077240,117.389008 346.342834,117.180977 
	C351.982880,116.905907 357.645111,117.086296 363.765900,117.070953 
z"/>
<path fill="#040404" opacity="1.000000" stroke="none" 
	d="
M316.237366,181.903168 
	C320.368774,179.771347 323.588318,180.636993 326.480865,183.572556 
	C330.914276,188.071976 335.479584,192.443436 339.849030,197.003235 
	C343.354309,200.661224 343.445343,204.984695 340.352692,208.081421 
	C337.347046,211.090988 332.779755,211.005600 329.243561,207.608871 
	C324.689728,203.234604 320.246216,198.741440 315.856079,194.201950 
	C311.767639,189.974457 311.838135,186.832123 316.237366,181.903168 
z"/>
<path fill="#060607" opacity="1.000000" stroke="none" 
	d="
M80.027863,381.201843 
	C77.905930,377.911926 77.238785,374.829559 79.685043,371.364807 
	C82.420418,370.202606 85.035728,368.660370 87.656845,368.650421 
	C128.155396,368.497070 168.654709,368.527985 209.153809,368.558105 
	C215.256851,368.562653 218.899780,371.586700 218.752640,376.252533 
	C218.610138,380.770691 215.098877,383.654938 209.278000,383.660614 
	C168.612244,383.700104 127.946312,383.717926 87.280960,383.584534 
	C84.963074,383.576935 82.649742,382.179169 80.027863,381.201843 
z"/>
<path fill="#040505" opacity="1.000000" stroke="none" 
	d="
M80.281136,318.146362 
	C79.633881,315.007355 79.337540,312.053986 79.104301,308.741821 
	C82.183014,307.313751 85.193886,305.329224 88.214951,305.313629 
	C128.320023,305.106140 168.426544,305.166107 208.532639,305.203888 
	C210.330353,305.205597 212.764603,304.985474 213.790863,305.996704 
	C215.843918,308.019653 218.177338,310.709534 218.466217,313.336151 
	C218.847061,316.798981 216.266495,319.475220 212.429810,320.066772 
	C211.123260,320.268188 209.775299,320.249084 208.446243,320.249390 
	C168.340088,320.257935 128.233841,320.290710 88.128036,320.173889 
	C85.627602,320.166595 83.130630,318.973450 80.281136,318.146362 
z"/>
<path fill="#020202" opacity="1.000000" stroke="none" 
	d="
M79.437698,348.914246 
	C79.347740,345.742523 79.579887,342.750183 79.927223,339.420288 
	C82.526253,338.363373 85.008110,337.025055 87.494232,337.017090 
	C128.100220,336.886749 168.706757,336.915222 209.313171,336.934967 
	C215.167175,336.937805 218.616699,339.677948 218.745270,344.239380 
	C218.878098,348.952118 215.224960,351.951874 209.173355,351.954254 
	C168.566940,351.970306 127.960312,352.013702 87.354645,351.839294 
	C84.819145,351.828400 82.291237,350.049835 79.437698,348.914246 
z"/>
<path fill="#050506" opacity="1.000000" stroke="none" 
	d="
M79.511002,285.719574 
	C79.341911,282.579041 79.489586,279.635162 79.751396,276.354248 
	C82.327248,275.230774 84.786079,273.769958 87.251122,273.759369 
	C122.058952,273.610382 156.867645,273.641724 191.676086,273.674835 
	C197.683334,273.680542 200.937851,276.347504 201.000015,281.020996 
	C201.064377,285.859131 197.619110,288.738770 191.421173,288.744720 
	C156.779282,288.777893 122.137024,288.820923 87.496063,288.638367 
	C84.935249,288.624908 82.383644,286.864502 79.511002,285.719574 
z"/>
<path fill="#010101" opacity="1.000000" stroke="none" 
	d="
M79.422241,253.956635 
	C79.067207,251.163742 79.034752,248.550018 79.049088,245.570068 
	C81.759689,244.136841 84.416893,242.161407 87.088356,242.141937 
	C117.208176,241.922379 147.330215,242.026154 177.451569,241.977264 
	C181.789932,241.970230 185.017593,243.453934 186.012115,247.888519 
	C186.826172,251.518463 185.490891,254.517365 182.016174,256.131989 
	C180.720917,256.733856 179.142822,256.959991 177.693100,256.962158 
	C147.405319,257.007843 117.117073,257.060455 86.830391,256.873108 
	C84.462982,256.858459 82.106415,255.089447 79.422241,253.956635 
z"/>
<path fill="#050506" opacity="1.000000" stroke="none" 
	d="
M80.230446,223.171799 
	C79.602768,220.035721 79.325401,217.094009 79.120575,213.799072 
	C82.039909,212.376999 84.874527,210.421341 87.735466,210.382065 
	C107.507462,210.110580 127.285011,210.211639 147.060638,210.255203 
	C152.636124,210.267487 155.660950,212.485397 156.250244,216.686417 
	C156.979324,221.883987 153.623718,225.284042 147.378540,225.317245 
	C132.588715,225.395844 117.798195,225.343781 103.007950,225.343948 
	C97.690109,225.343994 92.362465,225.529266 87.059151,225.251221 
	C84.872749,225.136581 82.738647,224.024536 80.230446,223.171799 
z"/>
<path fill="#040505" opacity="1.000000" stroke="none" 
	d="
M79.489967,190.774475 
	C79.345779,187.628098 79.521202,184.670502 79.808517,181.373779 
	C82.382790,180.271393 84.839378,178.868362 87.308464,178.846008 
	C107.254372,178.665359 127.202675,178.718704 147.150131,178.759354 
	C153.191711,178.771652 156.306839,181.362625 156.347702,186.144562 
	C156.387772,190.832031 153.043991,193.786819 147.287979,193.803009 
	C127.340607,193.859100 107.391792,193.926498 87.446884,193.697510 
	C84.890999,193.668167 82.354866,191.916855 79.489967,190.774475 
z"/>
<path fill="#020202" opacity="1.000000" stroke="none" 
	d="
M79.406296,159.002960 
	C79.060722,156.208313 79.036781,153.594467 79.062302,150.614227 
	C81.780899,149.177383 84.438477,147.213654 87.121048,147.178894 
	C107.274635,146.917786 127.433250,147.003326 147.590088,147.056473 
	C153.981705,147.073318 157.787598,151.574585 155.971878,156.922241 
	C154.763672,160.480606 152.052536,162.053238 148.284119,162.047729 
	C127.627426,162.017548 106.969803,162.120209 86.315216,161.910233 
	C84.110443,161.887833 81.923271,160.134262 79.406296,159.002960 
z"/>
<path fill="#070808" opacity="1.000000" stroke="none" 
	d="
M171.763870,205.182739 
	C172.380295,202.252457 172.411240,199.084671 173.987259,197.229355 
	C178.178436,192.295425 182.968246,187.857162 187.649780,183.356781 
	C191.252487,179.893478 195.708679,179.769318 198.759674,182.785675 
	C201.900040,185.890381 201.876678,190.214783 198.385437,193.884567 
	C194.025101,198.467865 189.533554,202.932602 184.970474,207.315063 
	C180.134338,211.959839 175.719727,211.297089 171.763870,205.182739 
z"/>
<path fill="#040405" opacity="1.000000" stroke="none" 
	d="
M164.686707,117.071152 
	C168.014801,118.360069 171.821457,118.905952 173.555939,121.094269 
	C177.041321,125.491615 173.361221,131.813126 167.461151,132.036194 
	C160.487839,132.299835 153.494949,132.214844 146.514923,132.069992 
	C142.146042,131.979294 139.169220,128.999451 138.989517,125.027496 
	C138.799789,120.833633 141.738464,117.371597 146.273880,117.169243 
	C152.248108,116.902679 158.242279,117.082947 164.686707,117.071152 
z"/>
</svg>