<svg version="1.1" id="Layer_1" xmlns="http://www.w3.org/2000/svg" xmlns:xlink="http://www.w3.org/1999/xlink" x="0px" y="0px"
	 width="100%" viewBox="0 0 189 267" enable-background="new 0 0 189 267" xml:space="preserve">
<path fill="#274EE4" opacity="1.000000" stroke="none" 
	d="
M1.000000,61.000000 
	C1.000000,58.957684 1.000000,56.915363 1.244760,54.335869 
	C1.657168,53.853664 1.824816,53.908642 2.095283,54.131493 
	C2.473724,54.165306 2.749346,54.031246 3.481092,53.785477 
	C64.297081,53.658337 124.656952,53.641685 185.016815,53.638054 
	C186.006332,53.637993 186.995834,53.796619 187.984802,54.325691 
	C188.377472,57.211414 188.770721,59.652641 189.105118,62.515293 
	C188.616577,67.740204 188.193863,72.544334 187.756027,77.347069 
	C185.205170,105.327339 182.606125,133.303299 180.111145,161.288544 
	C177.955643,185.465942 175.950638,209.656754 173.795227,233.834152 
	C173.416718,238.079758 173.999710,243.503586 171.639359,246.175186 
	C169.239975,248.890991 163.753983,248.888138 159.614197,250.056549 
	C138.410416,256.041107 117.204903,262.019470 96.000000,268.000000 
	C95.555550,268.000000 95.111107,268.000000 94.104019,267.705994 
	C71.021690,261.186554 48.539562,254.819290 25.955513,248.836761 
	C20.408552,247.367386 16.700836,245.451660 17.571920,238.871078 
	C17.847277,236.790909 17.133362,234.589279 16.945465,232.436844 
	C14.849236,208.423798 12.792142,184.407318 10.674835,160.396133 
	C8.455568,135.228683 6.244348,110.060204 3.896292,84.904610 
	C3.150615,76.915894 1.977511,68.967079 1.000000,61.000000 
M94.528770,140.992584 
	C94.359795,141.028625 94.190819,141.064667 93.093399,140.942093 
	C76.059593,140.996140 59.025791,141.050171 41.439014,141.016312 
	C41.240765,141.702164 41.042515,142.388000 40.725315,143.983780 
	C41.492474,150.952927 42.259628,157.922089 43.180149,165.245972 
	C43.455601,165.155563 43.731052,165.065155 44.926270,164.779968 
	C61.281830,164.843857 77.637390,164.907745 94.211746,165.427109 
	C94.477158,165.628616 94.742577,165.830124 95.008835,166.964981 
	C95.008537,175.711090 94.929558,184.458298 95.052185,193.202682 
	C95.093071,196.118225 95.650154,199.026535 95.179939,202.122833 
	C91.800232,201.287933 88.403046,200.517258 85.044891,199.603165 
	C79.927620,198.210251 73.143776,198.198212 70.216026,194.848221 
	C67.337662,191.554749 68.521446,184.806366 67.610069,179.629074 
	C67.392624,178.393814 65.968506,176.445679 65.037018,176.408981 
	C58.091999,176.135422 51.131279,176.260406 43.584690,176.260406 
	C44.670952,188.295364 45.604527,199.713272 46.867073,211.094696 
	C47.005230,212.340134 48.844902,213.964691 50.220119,214.409607 
	C57.280624,216.693726 64.412735,218.779785 71.586014,220.685974 
	C80.020813,222.927399 88.523544,224.913239 96.529030,227.632690 
	C96.046127,228.280487 95.155930,228.920609 95.143539,229.577301 
	C95.024048,235.906830 94.898628,242.247330 95.234924,248.560181 
	C95.276459,249.339844 98.242119,250.868774 99.450172,250.545593 
	C117.709496,245.660812 135.926758,240.610611 154.066284,235.300034 
	C155.705750,234.820053 157.605682,232.427780 157.903336,230.672394 
	C158.951080,224.493149 159.429230,218.211075 159.980881,211.955444 
	C160.766251,203.049713 161.341125,194.125122 162.158539,185.222610 
	C163.368073,172.050003 164.779831,158.895874 165.974472,145.722000 
	C166.796814,136.653503 167.292587,127.555359 168.119843,118.487389 
	C169.603836,102.220543 171.227509,85.966446 172.804230,69.588234 
	C171.867645,69.349304 171.244370,69.051994 170.620697,69.051155 
	C146.623779,69.019089 122.626724,69.047874 98.630066,68.961914 
	C95.708466,68.951454 94.926086,70.156082 94.968498,72.852180 
	C95.073326,79.515762 94.968910,86.182632 94.985481,93.002670 
	C94.985481,93.002670 95.048355,93.148514 94.539848,93.049110 
	C94.370399,93.082695 94.200943,93.116280 93.100258,93.003998 
	C74.156319,93.003998 55.212376,93.003998 36.026115,93.003998 
	C36.818245,101.202034 37.549339,108.768402 38.345627,117.009483 
	C57.093590,117.009483 75.548271,117.009483 94.218155,117.450714 
	C94.422493,117.721977 94.686806,117.908073 95.009941,118.945084 
	C94.980942,126.219856 94.951942,133.494629 94.963387,140.941177 
	C94.963387,140.941177 95.035187,141.102402 94.528770,140.992584 
z"/>
<path fill="#FBFBFB" opacity="1.000000" stroke="none" 
	d="
M1.992464,53.963619 
	C1.824816,53.908642 1.657168,53.853664 1.244760,53.899345 
	C1.000000,36.412575 1.000000,18.825148 1.000000,1.000000 
	C15.686707,1.000000 30.374695,1.000000 45.374180,1.445537 
	C45.685677,13.476488 45.685677,25.061903 45.685677,36.711945 
	C55.344257,36.711945 64.566223,36.711945 73.719421,36.711945 
	C73.719421,32.689575 73.719421,28.954256 73.719421,24.726009 
	C68.055504,24.726009 62.668381,24.726009 57.428539,24.726009 
	C57.428539,20.609343 57.428539,17.002949 57.428539,12.915241 
	C63.034470,12.915241 68.428993,12.915241 74.000000,12.915241 
	C74.000000,8.616282 74.000000,4.808141 74.000000,1.000000 
	C75.714355,1.000000 77.428719,1.000000 79.545174,1.468001 
	C79.947273,9.355925 79.947273,16.775846 79.947273,24.793110 
	C85.962418,24.793110 91.298256,24.793110 96.634094,24.793110 
	C96.656059,25.337872 96.678017,25.882635 96.699982,26.427397 
	C91.158348,26.427397 85.616722,26.427397 80.250549,26.427397 
	C80.250549,30.705311 80.250549,33.958069 80.250549,37.050312 
	C89.657043,37.050312 98.754288,37.050312 107.981598,37.050312 
	C107.981598,29.235695 107.981598,21.668888 107.981598,13.156651 
	C102.459488,13.156651 97.124237,13.156651 91.788986,13.156651 
	C91.813744,12.551034 91.838509,11.945418 91.863274,11.339802 
	C97.299896,11.339802 102.736511,11.339802 108.000000,11.339802 
	C108.000000,7.312881 108.000000,4.156441 108.000000,1.000000 
	C109.714355,1.000000 111.428719,1.000000 113.639053,1.464402 
	C114.135040,9.315847 114.135040,16.702892 114.135040,24.883932 
	C120.235764,24.883932 125.599335,24.883932 130.962906,24.883932 
	C130.949890,25.407177 130.936890,25.930422 130.923889,26.453667 
	C125.470139,26.453667 120.016388,26.453667 114.377289,26.453667 
	C114.377289,30.438923 114.377289,33.670395 114.377289,36.922264 
	C123.944725,36.922264 133.278351,36.922264 142.467651,36.922264 
	C142.467651,28.993319 142.467651,21.455729 142.467651,13.099290 
	C136.749466,13.099290 131.376190,13.099290 126.002907,13.099290 
	C126.019089,12.514505 126.035271,11.929720 126.051453,11.344935 
	C131.615448,11.344935 137.179428,11.344935 143.000000,11.344935 
	C143.000000,7.283542 143.000000,4.141771 143.000000,1.000000 
	C158.597809,1.000000 174.195618,1.000000 190.000000,1.000000 
	C190.000000,18.353682 190.000000,35.708183 189.856476,53.346581 
	C189.712952,53.630474 189.276733,53.799789 188.950623,53.768478 
	C188.411453,53.785183 188.198395,53.833191 187.985352,53.881195 
	C186.995834,53.796619 186.006332,53.637993 185.016815,53.638054 
	C124.656952,53.641685 64.297081,53.658337 3.217682,53.719910 
	C2.329587,53.831909 2.161026,53.897766 1.992464,53.963619 
z"/>
<path fill="#FDFDFF" opacity="1.000000" stroke="none" 
	d="
M96.468658,268.000000 
	C117.204903,262.019470 138.410416,256.041107 159.614197,250.056549 
	C163.753983,248.888138 169.239975,248.890991 171.639359,246.175186 
	C173.999710,243.503586 173.416718,238.079758 173.795227,233.834152 
	C175.950638,209.656754 177.955643,185.465942 180.111145,161.288544 
	C182.606125,133.303299 185.205170,105.327339 187.756027,77.347069 
	C188.193863,72.544334 188.616577,67.740204 189.315964,62.508034 
	C189.585663,62.079350 190.000000,62.000000 190.000000,62.000000 
	C190.000000,130.566422 190.000000,199.132828 190.000000,268.000000 
	C158.979752,268.000000 127.958534,268.000000 96.468658,268.000000 
z"/>
<path fill="#FDFDFF" opacity="1.000000" stroke="none" 
	d="
M1.000000,61.468658 
	C1.977511,68.967079 3.150615,76.915894 3.896292,84.904610 
	C6.244348,110.060204 8.455568,135.228683 10.674835,160.396133 
	C12.792142,184.407318 14.849236,208.423798 16.945465,232.436844 
	C17.133362,234.589279 17.847277,236.790909 17.571920,238.871078 
	C16.700836,245.451660 20.408552,247.367386 25.955513,248.836761 
	C48.539562,254.819290 71.021690,261.186554 93.770691,267.705994 
	C63.045258,268.000000 32.090519,268.000000 1.000000,268.000000 
	C1.000000,199.312500 1.000000,130.624908 1.000000,61.468658 
z"/>
<path fill="#040404" opacity="1.000000" stroke="none" 
	d="
M142.531342,1.000000 
	C143.000000,4.141771 143.000000,7.283542 143.000000,11.344935 
	C137.179428,11.344935 131.615448,11.344935 126.051453,11.344935 
	C126.035271,11.929720 126.019089,12.514505 126.002907,13.099290 
	C131.376190,13.099290 136.749466,13.099290 142.467651,13.099290 
	C142.467651,21.455729 142.467651,28.993319 142.467651,36.922264 
	C133.278351,36.922264 123.944725,36.922264 114.377289,36.922264 
	C114.377289,33.670395 114.377289,30.438923 114.377289,26.453667 
	C120.016388,26.453667 125.470139,26.453667 130.923889,26.453667 
	C130.936890,25.930422 130.949890,25.407177 130.962906,24.883932 
	C125.599335,24.883932 120.235764,24.883932 114.135040,24.883932 
	C114.135040,16.702892 114.135040,9.315847 114.067520,1.464402 
	C123.354225,1.000000 132.708450,1.000000 142.531342,1.000000 
z"/>
<path fill="#000000" opacity="1.000000" stroke="none" 
	d="
M107.531342,1.000000 
	C108.000000,4.156441 108.000000,7.312881 108.000000,11.339802 
	C102.736511,11.339802 97.299896,11.339802 91.863274,11.339802 
	C91.838509,11.945418 91.813744,12.551034 91.788986,13.156651 
	C97.124237,13.156651 102.459488,13.156651 107.981598,13.156651 
	C107.981598,21.668888 107.981598,29.235695 107.981598,37.050312 
	C98.754288,37.050312 89.657043,37.050312 80.250549,37.050312 
	C80.250549,33.958069 80.250549,30.705311 80.250549,26.427397 
	C85.616722,26.427397 91.158348,26.427397 96.699982,26.427397 
	C96.678017,25.882635 96.656059,25.337872 96.634094,24.793110 
	C91.298256,24.793110 85.962418,24.793110 79.947273,24.793110 
	C79.947273,16.775846 79.947273,9.355925 79.973633,1.468001 
	C89.020897,1.000000 98.041786,1.000000 107.531342,1.000000 
z"/>
<path fill="#000000" opacity="1.000000" stroke="none" 
	d="
M73.531342,1.000000 
	C74.000000,4.808141 74.000000,8.616282 74.000000,12.915241 
	C68.428993,12.915241 63.034470,12.915241 57.428539,12.915241 
	C57.428539,17.002949 57.428539,20.609343 57.428539,24.726009 
	C62.668381,24.726009 68.055504,24.726009 73.719421,24.726009 
	C73.719421,28.954256 73.719421,32.689575 73.719421,36.711945 
	C64.566223,36.711945 55.344257,36.711945 45.685677,36.711945 
	C45.685677,25.061903 45.685677,13.476488 45.842838,1.445537 
	C55.020893,1.000000 64.041786,1.000000 73.531342,1.000000 
z"/>
<path fill="#1243E3" opacity="1.000000" stroke="none" 
	d="
M190.000000,61.571537 
	C190.000000,62.000000 189.585663,62.079350 189.374817,62.086609 
	C188.770721,59.652641 188.377472,57.211414 187.984802,54.325691 
	C188.198395,53.833191 188.411453,53.785183 188.956543,54.070755 
	C189.525696,54.936226 189.762863,55.468109 190.000000,56.000000 
	C190.000000,57.714359 190.000000,59.428715 190.000000,61.571537 
z"/>
<path fill="#A0ACF1" opacity="1.000000" stroke="none" 
	d="
M190.000000,55.666664 
	C189.762863,55.468109 189.525696,54.936226 189.282639,54.102066 
	C189.276733,53.799789 189.712952,53.630474 189.856476,53.815239 
	C190.000000,54.444447 190.000000,54.888889 190.000000,55.666664 
z"/>
<path fill="#F9F9FA" opacity="1.000000" stroke="none" 
	d="
M96.996811,227.009918 
	C88.523544,224.913239 80.020813,222.927399 71.586014,220.685974 
	C64.412735,218.779785 57.280624,216.693726 50.220119,214.409607 
	C48.844902,213.964691 47.005230,212.340134 46.867073,211.094696 
	C45.604527,199.713272 44.670952,188.295364 43.584690,176.260406 
	C51.131279,176.260406 58.091999,176.135422 65.037018,176.408981 
	C65.968506,176.445679 67.392624,178.393814 67.610069,179.629074 
	C68.521446,184.806366 67.337662,191.554749 70.216026,194.848221 
	C73.143776,198.198212 79.927620,198.210251 85.044891,199.603165 
	C88.403046,200.517258 91.800232,201.287933 95.966904,202.051682 
	C103.956192,200.011093 111.192139,198.152100 118.332001,195.977585 
	C119.733475,195.550766 121.670105,194.013901 121.816887,192.802094 
	C122.735809,185.215256 123.217239,177.575409 123.917007,169.506897 
	C123.990524,167.696640 123.990524,166.332581 123.990524,164.973038 
	C113.827919,164.973038 104.425713,164.973038 95.048965,164.864929 
	C95.074417,164.756836 95.063301,164.534988 95.043800,164.095947 
	C95.009308,156.441269 94.994316,149.225662 94.993042,141.783112 
	C95.006767,141.556183 95.035187,141.102402 95.035187,141.102402 
	C95.035187,141.102402 94.963387,140.941177 95.412277,140.923218 
	C105.895477,140.905258 115.929771,140.905258 126.435806,140.905258 
	C126.924271,135.030319 127.384735,129.492188 127.922127,123.559395 
	C128.110886,122.102188 128.222717,121.039658 128.464233,119.895523 
	C128.786316,119.512306 128.732147,119.256111 128.352432,118.589836 
	C127.334206,117.707558 126.396194,116.913742 125.455521,116.910576 
	C115.644936,116.877480 105.833908,116.971329 95.760818,116.910538 
	C95.323471,116.712242 95.148323,116.633400 94.985046,116.114021 
	C94.991966,108.452385 94.987022,101.231285 94.997498,93.794678 
	C95.012917,93.579170 95.048355,93.148514 95.048355,93.148514 
	C95.048355,93.148514 94.985481,93.002670 95.435211,92.985977 
	C115.420486,92.969292 134.956024,92.969292 154.601990,92.969292 
	C153.230286,108.869606 151.959152,123.945923 150.622391,139.016434 
	C148.771606,159.881561 146.803558,180.736526 145.030167,201.608124 
	C144.429428,208.678497 145.147476,216.418411 134.537674,216.147736 
	C134.386093,216.143875 134.235413,216.281708 134.077332,216.331055 
	C127.138084,218.497940 120.227959,220.765213 113.248451,222.793716 
	C107.876541,224.354980 102.417244,225.615616 96.996811,227.009918 
z"/>
<path fill="#2A65F1" opacity="1.000000" stroke="none" 
	d="
M96.762924,227.321304 
	C102.417244,225.615616 107.876541,224.354980 113.248451,222.793716 
	C120.227959,220.765213 127.138084,218.497940 134.077332,216.331055 
	C134.235413,216.281708 134.386093,216.143875 134.537674,216.147736 
	C145.147476,216.418411 144.429428,208.678497 145.030167,201.608124 
	C146.803558,180.736526 148.771606,159.881561 150.622391,139.016434 
	C151.959152,123.945923 153.230286,108.869606 154.601990,92.969292 
	C134.956024,92.969292 115.420486,92.969292 95.416763,92.908737 
	C94.968910,86.182632 95.073326,79.515762 94.968498,72.852180 
	C94.926086,70.156082 95.708466,68.951454 98.630066,68.961914 
	C122.626724,69.047874 146.623779,69.019089 170.620697,69.051155 
	C171.244370,69.051994 171.867645,69.349304 172.804230,69.588234 
	C171.227509,85.966446 169.603836,102.220543 168.119843,118.487389 
	C167.292587,127.555359 166.796814,136.653503 165.974472,145.722000 
	C164.779831,158.895874 163.368073,172.050003 162.158539,185.222610 
	C161.341125,194.125122 160.766251,203.049713 159.980881,211.955444 
	C159.429230,218.211075 158.951080,224.493149 157.903336,230.672394 
	C157.605682,232.427780 155.705750,234.820053 154.066284,235.300034 
	C135.926758,240.610611 117.709496,245.660812 99.450172,250.545593 
	C98.242119,250.868774 95.276459,249.339844 95.234924,248.560181 
	C94.898628,242.247330 95.024048,235.906830 95.143539,229.577301 
	C95.155930,228.920609 96.046127,228.280487 96.762924,227.321304 
z"/>
<path fill="#E7E8EB" opacity="1.000000" stroke="none" 
	d="
M94.982071,94.010178 
	C94.987022,101.231285 94.991966,108.452385 94.972107,116.238647 
	C94.947304,116.803802 95.016373,117.044701 94.765152,116.974548 
	C94.343590,116.939438 94.173264,116.974464 94.002945,117.009483 
	C75.548271,117.009483 57.093590,117.009483 38.345627,117.009483 
	C37.549339,108.768402 36.818245,101.202034 36.026115,93.003998 
	C55.212376,93.003998 74.156319,93.003998 93.675346,93.268723 
	C94.447136,93.764748 94.691017,93.923653 94.982071,94.010178 
z"/>
<path fill="#E7E8EB" opacity="1.000000" stroke="none" 
	d="
M94.979324,142.010040 
	C94.994316,149.225662 95.009308,156.441269 94.779465,164.213043 
	C94.354065,164.836670 94.173508,164.904144 93.992950,164.971634 
	C77.637390,164.907745 61.281830,164.843857 44.225464,164.809479 
	C43.358704,164.856384 43.192741,164.873810 43.026783,164.891235 
	C42.259628,157.922089 41.492474,150.952927 41.046371,143.372650 
	C41.575611,142.209076 41.783802,141.656647 41.991989,141.104202 
	C59.025791,141.050171 76.059593,140.996140 93.665268,141.221954 
	C94.433243,141.746109 94.680641,141.915512 94.979324,142.010040 
z"/>
<path fill="#2A65F1" opacity="1.000000" stroke="none" 
	d="
M123.843491,169.953110 
	C123.217239,177.575409 122.735809,185.215256 121.816887,192.802094 
	C121.670105,194.013901 119.733475,195.550766 118.332001,195.977585 
	C111.192139,198.152100 103.956192,200.011093 96.362564,201.959335 
	C95.650154,199.026535 95.093071,196.118225 95.052185,193.202682 
	C94.929558,184.458298 95.008537,175.711090 95.008492,166.486328 
	C95.008148,166.007690 95.023239,166.012894 95.489510,166.010223 
	C103.256172,166.004837 110.568810,166.249985 117.851585,165.890518 
	C121.280228,165.721283 122.991669,166.903488 123.843491,169.953110 
z"/>
<path fill="#2C65F0" opacity="1.000000" stroke="none" 
	d="
M94.960243,116.679176 
	C95.148323,116.633400 95.323471,116.712242 96.054962,117.203659 
	C106.601814,117.616226 116.592323,117.616226 126.135117,117.616226 
	C126.926323,120.548584 127.385757,122.251320 127.845200,123.954063 
	C127.384735,129.492188 126.924271,135.030319 126.435806,140.905258 
	C115.929771,140.905258 105.895477,140.905258 95.392059,140.837326 
	C94.951942,133.494629 94.980942,126.219856 95.016632,118.235931 
	C95.023331,117.526779 95.016373,117.044701 95.016373,117.044701 
	C95.016373,117.044701 94.947304,116.803802 94.960243,116.679176 
z"/>
<path fill="#F2F1EB" opacity="1.000000" stroke="none" 
	d="
M41.715500,141.060257 
	C41.783802,141.656647 41.575611,142.209076 41.105843,142.917694 
	C41.042515,142.388000 41.240765,141.702164 41.715500,141.060257 
z"/>
<path fill="#0E41E4" opacity="1.000000" stroke="none" 
	d="
M94.765152,116.974548 
	C95.016373,117.044701 95.023331,117.526779 95.017212,117.767883 
	C94.686806,117.908073 94.422493,117.721977 94.110550,117.230103 
	C94.173264,116.974464 94.343590,116.939438 94.765152,116.974548 
z"/>
<path fill="#F4F3EB" opacity="1.000000" stroke="none" 
	d="
M94.997498,93.794678 
	C94.691017,93.923653 94.447136,93.764748 94.140961,93.341660 
	C94.200943,93.116280 94.370399,93.082695 94.794098,93.098816 
	C95.048355,93.148514 95.012917,93.579170 94.997498,93.794678 
z"/>
<path fill="#F2F1EB" opacity="1.000000" stroke="none" 
	d="
M94.993042,141.783112 
	C94.680641,141.915512 94.433243,141.746109 94.129486,141.301270 
	C94.190819,141.064667 94.359795,141.028625 94.781982,141.047485 
	C95.035187,141.102402 95.006767,141.556183 94.993042,141.783112 
z"/>
<path fill="#1243E3" opacity="1.000000" stroke="none" 
	d="
M43.103466,165.068604 
	C43.192741,164.873810 43.358704,164.856384 43.765583,164.906860 
	C43.731052,165.065155 43.455601,165.155563 43.103466,165.068604 
z"/>
<path fill="#1243E3" opacity="1.000000" stroke="none" 
	d="
M94.102348,165.199371 
	C94.173508,164.904144 94.354065,164.836670 94.798965,164.652100 
	C95.063301,164.534988 95.074417,164.756836 95.044022,165.124908 
	C95.016830,165.666275 95.020035,165.839584 95.023239,166.012894 
	C95.023239,166.012894 95.008148,166.007690 95.008072,166.019653 
	C94.742577,165.830124 94.477158,165.628616 94.102348,165.199371 
z"/>
<path fill="#1243E3" opacity="1.000000" stroke="none" 
	d="
M2.095283,54.131493 
	C2.161026,53.897766 2.329587,53.831909 2.761559,53.831619 
	C2.749346,54.031246 2.473724,54.165306 2.095283,54.131493 
z"/>
<path fill="#0D5BF0" opacity="1.000000" stroke="none" 
	d="
M127.922119,123.559395 
	C127.385757,122.251320 126.926323,120.548584 126.135117,117.616226 
	C116.592323,117.616226 106.601814,117.616226 96.317154,117.323105 
	C105.833908,116.971329 115.644936,116.877480 125.455521,116.910576 
	C126.396194,116.913742 127.334206,117.707558 128.248383,118.814438 
	C128.223328,119.494530 128.334549,119.977119 128.334549,119.977119 
	C128.222717,121.039658 128.110886,122.102188 127.922119,123.559395 
z"/>
<path fill="#0C5AF0" opacity="1.000000" stroke="none" 
	d="
M95.489510,166.010223 
	C95.020035,165.839584 95.016830,165.666275 95.018570,165.233002 
	C104.425713,164.973038 113.827919,164.973038 123.990524,164.973038 
	C123.990524,166.332581 123.990524,167.696640 123.917007,169.506897 
	C122.991669,166.903488 121.280228,165.721283 117.851585,165.890518 
	C110.568810,166.249985 103.256172,166.004837 95.489510,166.010223 
z"/>
<path fill="#E7E8EB" opacity="1.000000" stroke="none" 
	d="
M128.464233,119.895523 
	C128.334549,119.977119 128.223328,119.494530 128.327362,119.269928 
	C128.732147,119.256111 128.786316,119.512306 128.464233,119.895523 
z"/>
</svg>