<?xml version="1.0" encoding="UTF-8"?>
<!DOCTYPE svg PUBLIC "-//W3C//DTD SVG 1.1//EN" "http://www.w3.org/Graphics/SVG/1.1/DTD/svg11.dtd">
<svg xmlns="http://www.w3.org/2000/svg" version="1.1" width="512px" height="512px" style="shape-rendering:geometricPrecision; text-rendering:geometricPrecision; image-rendering:optimizeQuality; fill-rule:evenodd; clip-rule:evenodd" xmlns:xlink="http://www.w3.org/1999/xlink">
<g><path style="opacity:0.993" fill="#010101" d="M 511.5,94.5 C 511.5,100.167 511.5,105.833 511.5,111.5C 508.965,116.899 506.132,122.232 503,127.5C 476.271,169.234 449.938,211.234 424,253.5C 423.667,321.833 423.333,390.167 423,458.5C 419.358,476.141 408.858,487.308 391.5,492C 271.5,492.667 151.5,492.667 31.5,492C 15.093,487.758 4.42632,477.591 -0.5,461.5C -0.5,324.167 -0.5,186.833 -0.5,49.5C 4.42632,33.409 15.093,23.2423 31.5,19C 151.5,18.3333 271.5,18.3333 391.5,19C 410.955,24.4621 421.789,37.2954 424,57.5C 432.446,49.9653 442.279,47.4653 453.5,50C 455.5,50.6667 457.5,51.3333 459.5,52C 472.667,59.7492 485.667,67.7492 498.5,76C 504.713,80.9554 509.047,87.122 511.5,94.5 Z"/></g>
<g><path style="opacity:1" fill="#d5d2d0" d="M 35.5,39.5 C 109.331,38.5008 183.331,38.1674 257.5,38.5C 257.5,61.1667 257.5,83.8333 257.5,106.5C 256.503,84.3396 256.169,62.0062 256.5,39.5C 182.833,39.5 109.167,39.5 35.5,39.5 Z"/></g>
<g><path style="opacity:1" fill="#adcfd5" d="M 387.5,39.5 C 355.996,39.1685 324.662,39.5018 293.5,40.5C 292.711,40.2172 292.044,39.7172 291.5,39C 323.669,38.1693 355.669,38.3359 387.5,39.5 Z"/></g>
<g><path style="opacity:1" fill="#f9f6f4" d="M 35.5,39.5 C 109.167,39.5 182.833,39.5 256.5,39.5C 256.169,62.0062 256.503,84.3396 257.5,106.5C 257.724,110.562 259.724,113.395 263.5,115C 287.164,115.5 310.831,115.667 334.5,115.5C 334.667,143.502 334.5,171.502 334,199.5C 306.333,243.833 278.667,288.167 251,332.5C 250.697,355.834 250.863,379.168 251.5,402.5C 198.166,402.333 144.832,402.5 91.5,403C 84.7966,407.615 83.7966,413.281 88.5,420C 89.8333,420.667 91.1667,421.333 92.5,422C 149.833,422.667 207.167,422.667 264.5,422C 287.749,411.54 311.082,401.373 334.5,391.5C 334.5,418.5 334.5,445.5 334.5,472.5C 234.833,472.667 135.166,472.5 35.5,472C 27.6667,469.5 22.5,464.333 20,456.5C 19.3333,322.167 19.3333,187.833 20,53.5C 22.8468,46.1481 28.0135,41.4814 35.5,39.5 Z"/></g>
<g><path style="opacity:1" fill="#caf2f9" d="M 387.5,39.5 C 395.852,41.6859 401.018,47.0192 403,55.5C 403.667,66.8333 403.667,78.1667 403,89.5C 387,114.833 371,140.167 355,165.5C 354.667,144.5 354.333,123.5 354,102.5C 333.993,81.6603 313.827,60.9937 293.5,40.5C 324.662,39.5018 355.996,39.1685 387.5,39.5 Z"/></g>
<g><path style="opacity:1" fill="#283031" d="M 278.5,53.5 C 277.504,67.3234 277.171,81.3234 277.5,95.5C 276.174,81.3278 276.174,66.9945 277.5,52.5C 278.107,52.6236 278.44,52.9569 278.5,53.5 Z"/></g>
<g><path style="opacity:1" fill="#cbf3fa" d="M 278.5,53.5 C 291.833,67.5 305.5,81.1667 319.5,94.5C 305.677,95.4958 291.677,95.8291 277.5,95.5C 277.171,81.3234 277.504,67.3234 278.5,53.5 Z"/></g>
<g><path style="opacity:1" fill="#fc9caf" d="M 442.5,69.5 C 446.41,69.2628 450.077,70.0961 453.5,72C 464.331,79.2497 475.331,86.2497 486.5,93C 492.631,98.9823 493.131,105.482 488,112.5C 483.647,119.885 478.814,126.885 473.5,133.5C 455.288,122.901 437.621,111.568 420.5,99.5C 425.082,91.3339 429.915,83.3339 435,75.5C 437.134,72.8474 439.634,70.8474 442.5,69.5 Z"/></g>
<g><path style="opacity:1" fill="#506063" d="M 319.5,94.5 C 320.043,94.56 320.376,94.8933 320.5,95.5C 306.006,96.8259 291.672,96.8259 277.5,95.5C 291.677,95.8291 305.677,95.4958 319.5,94.5 Z"/></g>
<g><path style="opacity:1" fill="#f6f3f1" d="M 408.5,117.5 C 427.28,128.059 445.613,139.393 463.5,151.5C 459.042,158.249 454.708,165.082 450.5,172C 432.519,161.744 414.685,150.91 397,139.5C 396.48,137.711 396.813,136.044 398,134.5C 401.725,128.948 405.225,123.282 408.5,117.5 Z"/></g>
<g><path style="opacity:1" fill="#050505" d="M 92.5,134.5 C 149.834,134.333 207.168,134.5 264.5,135C 272.701,138.373 274.535,143.873 270,151.5C 268.581,152.46 267.081,153.293 265.5,154C 207.5,154.667 149.5,154.667 91.5,154C 85.0195,149.681 83.8528,144.181 88,137.5C 89.6516,136.601 91.1516,135.601 92.5,134.5 Z"/></g>
<g><path style="opacity:1" fill="#fbd68c" d="M 384.5,156.5 C 391.225,159.367 397.559,163.034 403.5,167.5C 370,221.167 336.5,274.833 303,328.5C 299.495,319.681 293.161,317.015 284,320.5C 282.457,319.423 282.457,318.089 284,316.5C 317.761,263.307 351.261,209.974 384.5,156.5 Z"/></g>
<g><path style="opacity:1" fill="#010101" d="M 91.5,176.5 C 149.168,176.333 206.834,176.5 264.5,177C 271.709,179.583 273.875,184.417 271,191.5C 269.363,193.81 267.196,195.31 264.5,196C 206.833,196.667 149.167,196.667 91.5,196C 85.4578,192.252 83.9578,187.085 87,180.5C 88.3968,178.93 89.8968,177.596 91.5,176.5 Z"/></g>
<g><path style="opacity:1" fill="#fbe2b1" d="M 420.5,178.5 C 427.11,181.808 433.444,185.642 439.5,190C 404.875,244.749 370.375,299.582 336,354.5C 335.448,349.436 333.615,344.936 330.5,341C 326.954,339.826 323.287,339.16 319.5,339C 353.052,285.388 386.719,231.888 420.5,178.5 Z"/></g>
<g><path style="opacity:1" fill="#010101" d="M 90.5,218.5 C 106.837,218.333 123.17,218.5 139.5,219C 145.169,221.815 147.002,226.315 145,232.5C 143.833,234.333 142.333,235.833 140.5,237C 123.833,237.667 107.167,237.667 90.5,237C 83.8599,230.76 83.8599,224.593 90.5,218.5 Z"/></g>
<g><path style="opacity:1" fill="#070707" d="M 177.5,218.5 C 186.998,217.173 191.498,221.173 191,230.5C 188.27,237.053 183.437,239.22 176.5,237C 169.621,230.35 169.955,224.183 177.5,218.5 Z"/></g>
<g><path style="opacity:1" fill="#010101" d="M 222.5,218.5 C 238.837,218.333 255.17,218.5 271.5,219C 276.223,222.254 277.723,226.754 276,232.5C 275.167,234.667 273.667,236.167 271.5,237C 254.833,237.667 238.167,237.667 221.5,237C 214.539,230.313 214.872,224.147 222.5,218.5 Z"/></g>
<g><path style="opacity:1" fill="#040404" d="M 92.5,259.5 C 149.834,259.333 207.168,259.5 264.5,260C 271.72,262.604 273.886,267.437 271,274.5C 269.457,276.378 267.624,277.878 265.5,279C 207.5,279.667 149.5,279.667 91.5,279C 85.4578,275.252 83.9578,270.085 87,263.5C 88.8121,262.023 90.6455,260.69 92.5,259.5 Z"/></g>
<g><path style="opacity:1" fill="#7d9599" d="M 402.5,454.5 C 402.832,398.664 402.499,342.998 401.5,287.5C 401.783,286.711 402.283,286.044 403,285.5C 403.832,342.001 403.665,398.335 402.5,454.5 Z"/></g>
<g><path style="opacity:1" fill="#cbf4fb" d="M 401.5,287.5 C 402.499,342.998 402.832,398.664 402.5,454.5C 401.379,463.619 396.379,469.286 387.5,471.5C 376.833,471.5 366.167,471.5 355.5,471.5C 355.5,435.167 355.5,398.833 355.5,362.5C 370.571,337.361 385.905,312.361 401.5,287.5 Z"/></g>
<g><path style="opacity:1" fill="#f3f0ef" d="M 278.5,341.5 C 280.833,341.5 283.167,341.5 285.5,341.5C 286.472,347.192 287.639,352.859 289,358.5C 290.8,362.651 293.967,364.651 298.5,364.5C 304.787,363.174 311.12,362.174 317.5,361.5C 318.658,366.119 319.158,370.785 319,375.5C 312.575,378.629 306.075,381.629 299.5,384.5C 290.167,378.833 280.833,373.167 271.5,367.5C 270.502,359.528 270.169,351.528 270.5,343.5C 273.428,343.435 276.095,342.768 278.5,341.5 Z"/></g>
<g><path style="opacity:1" fill="#b6dbe1" d="M 355.5,362.5 C 355.5,398.833 355.5,435.167 355.5,471.5C 366.167,471.5 376.833,471.5 387.5,471.5C 376.679,472.495 365.679,472.828 354.5,472.5C 354.168,435.663 354.502,398.996 355.5,362.5 Z"/></g>
<g><path style="opacity:1" fill="#b596c6" d="M 271.5,391.5 C 277.955,393.573 277.955,395.24 271.5,396.5C 271.5,394.833 271.5,393.167 271.5,391.5 Z"/></g>
</svg>
