<?xml version="1.0" encoding="UTF-8"?>
<!DOCTYPE svg PUBLIC "-//W3C//DTD SVG 1.1//EN" "http://www.w3.org/Graphics/SVG/1.1/DTD/svg11.dtd">
<svg xmlns="http://www.w3.org/2000/svg" version="1.1" width="512px" height="512px" style="shape-rendering:geometricPrecision; text-rendering:geometricPrecision; image-rendering:optimizeQuality; fill-rule:evenodd; clip-rule:evenodd" xmlns:xlink="http://www.w3.org/1999/xlink">
<g><path style="opacity:0.973" fill="#916b77" d="M 168.5,-0.5 C 173.167,-0.5 177.833,-0.5 182.5,-0.5C 190.113,2.44595 195.446,7.77928 198.5,15.5C 198.359,20.7491 198.359,25.7491 198.5,30.5C 192.854,43.8245 182.854,48.9911 168.5,46C 155.663,40.8349 150.163,31.3349 152,17.5C 154.619,8.71947 160.119,2.71947 168.5,-0.5 Z M 171.5,15.5 C 178.253,13.7717 182.253,16.2717 183.5,23C 182.008,29.418 178.008,31.7514 171.5,30C 166.232,25.1706 166.232,20.3373 171.5,15.5 Z"/></g>
<g><path style="opacity:0.971" fill="#916b77" d="M 472.5,-0.5 C 477.167,-0.5 481.833,-0.5 486.5,-0.5C 503.337,7.84635 507.504,20.513 499,37.5C 496.095,41.5821 492.262,44.2487 487.5,45.5C 482.153,46.7752 476.82,46.7752 471.5,45.5C 459.335,40.1797 454.169,30.8464 456,17.5C 458.619,8.71947 464.119,2.71947 472.5,-0.5 Z M 475.5,15.5 C 482.253,13.7717 486.253,16.2717 487.5,23C 486.008,29.418 482.008,31.7514 475.5,30C 470.232,25.1706 470.232,20.3373 475.5,15.5 Z"/></g>
<g><path style="opacity:0.978" fill="#b9a2aa" d="M 198.5,15.5 C 218.836,15.3334 239.169,15.5 259.5,16C 260.667,17.1667 261.833,18.3333 263,19.5C 263.5,31.1619 263.667,42.8286 263.5,54.5C 258.167,54.5 252.833,54.5 247.5,54.5C 247.5,46.5 247.5,38.5 247.5,30.5C 231.167,30.5 214.833,30.5 198.5,30.5C 198.359,25.7491 198.359,20.7491 198.5,15.5 Z"/></g>
<g><path style="opacity:0.973" fill="#916b77" d="M 54.5,55.5 C 54.359,60.7491 54.359,65.7491 54.5,70.5C 48.8541,83.8245 38.8541,88.9911 24.5,86C 11.6634,80.8349 6.16341,71.3349 8,57.5C 12.9552,42.7681 23.1219,36.9347 38.5,40C 46.2965,42.6299 51.6298,47.7966 54.5,55.5 Z M 27.5,55.5 C 34.253,53.7717 38.253,56.2717 39.5,63C 38.008,69.418 34.008,71.7514 27.5,70C 22.232,65.1706 22.232,60.3373 27.5,55.5 Z"/></g>
<g><path style="opacity:0.982" fill="#b9a2ab" d="M 471.5,45.5 C 476.82,46.7752 482.153,46.7752 487.5,45.5C 487.667,62.8365 487.5,80.1699 487,97.5C 486.215,99.286 485.049,100.786 483.5,102C 439.835,102.5 396.168,102.667 352.5,102.5C 351.504,102.586 350.671,102.252 350,101.5C 346.71,96.3778 342.877,91.7112 338.5,87.5C 382.833,87.5 427.167,87.5 471.5,87.5C 471.5,73.5 471.5,59.5 471.5,45.5 Z"/></g>
<g><path style="opacity:0.999" fill="#2ba6ec" d="M 247.5,54.5 C 252.833,54.5 258.167,54.5 263.5,54.5C 292.361,57.105 317.361,68.105 338.5,87.5C 342.877,91.7112 346.71,96.3778 350,101.5C 350.671,102.252 351.504,102.586 352.5,102.5C 371.448,129.063 378.781,158.563 374.5,191C 394.007,188.98 413.007,191.147 431.5,197.5C 436.829,199.831 442.162,202.164 447.5,204.5C 483.602,224.295 504.935,254.629 511.5,295.5C 511.5,305.833 511.5,316.167 511.5,326.5C 507.278,353.611 495.611,376.944 476.5,396.5C 476.44,395.957 476.107,395.624 475.5,395.5C 462.084,401.472 448.084,405.305 433.5,407C 341.833,407.667 250.167,407.667 158.5,407C 103.53,400.349 64.6971,371.849 42,321.5C 22.3357,266.113 32.5024,217.113 72.5,174.5C 77.0697,171.384 82.0697,169.05 87.5,167.5C 92.7234,165.527 98.0567,163.86 103.5,162.5C 114.298,159.855 125.298,158.522 136.5,158.5C 143.256,115.257 166.256,84.0908 205.5,65C 218.96,59.3017 232.96,55.8017 247.5,54.5 Z"/></g>
<g><path style="opacity:0.955" fill="#b9a2aa" d="M 54.5,55.5 C 69.5037,55.3334 84.5037,55.5001 99.5,56C 100.667,57.1667 101.833,58.3333 103,59.5C 103.5,93.8317 103.667,128.165 103.5,162.5C 98.0567,163.86 92.7234,165.527 87.5,167.5C 87.5,135.167 87.5,102.833 87.5,70.5C 76.5,70.5 65.5,70.5 54.5,70.5C 54.359,65.7491 54.359,60.7491 54.5,55.5 Z"/></g>
<g><path style="opacity:0.971" fill="#916b77" d="M 447.5,165.5 C 442.153,166.775 436.82,166.775 431.5,165.5C 419.335,160.18 414.169,150.846 416,137.5C 420.955,122.768 431.122,116.935 446.5,120C 459.337,125.165 464.837,134.665 463,148.5C 460.751,156.912 455.584,162.579 447.5,165.5 Z M 435.5,135.5 C 442.253,133.772 446.253,136.272 447.5,143C 446.008,149.418 442.008,151.751 435.5,150C 430.232,145.171 430.232,140.337 435.5,135.5 Z"/></g>
<g><path style="opacity:1" fill="#f6973f" d="M 227.5,159.5 C 226.542,160.962 225.376,162.295 224,163.5C 223.5,174.495 223.333,185.495 223.5,196.5C 223.5,200.833 223.5,205.167 223.5,209.5C 223.5,218.5 223.5,227.5 223.5,236.5C 223.5,240.833 223.5,245.167 223.5,249.5C 223.5,258.5 223.5,267.5 223.5,276.5C 223.5,280.833 223.5,285.167 223.5,289.5C 223.5,298.5 223.5,307.5 223.5,316.5C 223.5,320.833 223.5,325.167 223.5,329.5C 223.5,336.5 223.5,343.5 223.5,350.5C 252.833,350.5 282.167,350.5 311.5,350.5C 311.5,350.833 311.5,351.167 311.5,351.5C 274.167,351.5 236.833,351.5 199.5,351.5C 199.333,288.832 199.5,226.166 200,163.5C 201.167,162.333 202.333,161.167 203.5,160C 211.493,159.5 219.493,159.334 227.5,159.5 Z"/></g>
<g><path style="opacity:1" fill="#f9b624" d="M 227.5,159.5 C 254.169,159.333 280.835,159.5 307.5,160C 308.667,161.167 309.833,162.333 311,163.5C 311.5,225.832 311.667,288.166 311.5,350.5C 282.167,350.5 252.833,350.5 223.5,350.5C 223.5,343.5 223.5,336.5 223.5,329.5C 226.131,334.191 230.131,335.691 235.5,334C 238.886,331.131 240.219,327.464 239.5,323C 240.205,314.034 236.205,310.368 227.5,312C 225.93,313.397 224.596,314.897 223.5,316.5C 223.5,307.5 223.5,298.5 223.5,289.5C 226.131,294.191 230.131,295.691 235.5,294C 238.886,291.131 240.219,287.464 239.5,283C 240.205,274.034 236.205,270.368 227.5,272C 225.93,273.397 224.596,274.897 223.5,276.5C 223.5,267.5 223.5,258.5 223.5,249.5C 226.131,254.191 230.131,255.691 235.5,254C 238.886,251.131 240.219,247.464 239.5,243C 240.205,234.034 236.205,230.368 227.5,232C 225.93,233.397 224.596,234.897 223.5,236.5C 223.5,227.5 223.5,218.5 223.5,209.5C 226.131,214.191 230.131,215.691 235.5,214C 238.886,211.131 240.219,207.464 239.5,203C 240.205,194.034 236.205,190.368 227.5,192C 225.93,193.397 224.596,194.897 223.5,196.5C 223.333,185.495 223.5,174.495 224,163.5C 225.376,162.295 226.542,160.962 227.5,159.5 Z"/></g>
<g><path style="opacity:0.936" fill="#b9a2ab" d="M 431.5,165.5 C 436.82,166.775 442.153,166.775 447.5,165.5C 447.5,178.5 447.5,191.5 447.5,204.5C 442.162,202.164 436.829,199.831 431.5,197.5C 431.5,186.833 431.5,176.167 431.5,165.5 Z"/></g>
<g><path style="opacity:1" fill="#2880b2" d="M 72.5,174.5 C 32.5024,217.113 22.3357,266.113 42,321.5C 64.6971,371.849 103.53,400.349 158.5,407C 250.167,407.667 341.833,407.667 433.5,407C 448.084,405.305 462.084,401.472 475.5,395.5C 476.107,395.624 476.44,395.957 476.5,396.5C 453.008,419.398 424.675,431.064 391.5,431.5C 386.167,431.5 380.833,431.5 375.5,431.5C 319.5,431.5 263.5,431.5 207.5,431.5C 202.167,431.5 196.833,431.5 191.5,431.5C 166.485,431.753 141.485,431.42 116.5,430.5C 100.603,427.535 85.2699,422.535 70.5,415.5C 30.2576,392.24 6.5909,357.573 -0.5,311.5C -0.5,300.5 -0.5,289.5 -0.5,278.5C 6.05678,236.778 26.7234,203.945 61.5,180C 64.9099,177.628 68.5766,175.795 72.5,174.5 Z"/></g>
<g><path style="opacity:1" fill="#fce1a5" d="M 223.5,209.5 C 223.5,205.167 223.5,200.833 223.5,196.5C 224.596,194.897 225.93,193.397 227.5,192C 236.205,190.368 240.205,194.034 239.5,203C 240.219,207.464 238.886,211.131 235.5,214C 230.131,215.691 226.131,214.191 223.5,209.5 Z"/></g>
<g><path style="opacity:1" fill="#fce1a5" d="M 251.5,191.5 C 256.742,190.271 260.575,191.937 263,196.5C 263.667,200.833 263.667,205.167 263,209.5C 260.565,214.224 256.731,215.724 251.5,214C 249.951,212.786 248.785,211.286 248,209.5C 247.333,205.167 247.333,200.833 248,196.5C 248.997,194.677 250.164,193.01 251.5,191.5 Z"/></g>
<g><path style="opacity:1" fill="#fce1a5" d="M 275.5,191.5 C 280.742,190.271 284.575,191.937 287,196.5C 287.667,200.833 287.667,205.167 287,209.5C 284.565,214.224 280.731,215.724 275.5,214C 273.951,212.786 272.785,211.286 272,209.5C 271.333,205.167 271.333,200.833 272,196.5C 272.997,194.677 274.164,193.01 275.5,191.5 Z"/></g>
<g><path style="opacity:1" fill="#fce1a5" d="M 223.5,249.5 C 223.5,245.167 223.5,240.833 223.5,236.5C 224.596,234.897 225.93,233.397 227.5,232C 236.205,230.368 240.205,234.034 239.5,243C 240.219,247.464 238.886,251.131 235.5,254C 230.131,255.691 226.131,254.191 223.5,249.5 Z"/></g>
<g><path style="opacity:1" fill="#fce1a5" d="M 251.5,231.5 C 256.742,230.271 260.575,231.937 263,236.5C 263.667,240.833 263.667,245.167 263,249.5C 260.565,254.224 256.731,255.724 251.5,254C 249.951,252.786 248.785,251.286 248,249.5C 247.333,245.167 247.333,240.833 248,236.5C 248.997,234.677 250.164,233.01 251.5,231.5 Z"/></g>
<g><path style="opacity:1" fill="#fce1a5" d="M 275.5,231.5 C 280.742,230.271 284.575,231.937 287,236.5C 287.667,240.833 287.667,245.167 287,249.5C 284.565,254.224 280.731,255.724 275.5,254C 273.951,252.786 272.785,251.286 272,249.5C 271.333,245.167 271.333,240.833 272,236.5C 272.997,234.677 274.164,233.01 275.5,231.5 Z"/></g>
<g><path style="opacity:1" fill="#fce1a5" d="M 223.5,289.5 C 223.5,285.167 223.5,280.833 223.5,276.5C 224.596,274.897 225.93,273.397 227.5,272C 236.205,270.368 240.205,274.034 239.5,283C 240.219,287.464 238.886,291.131 235.5,294C 230.131,295.691 226.131,294.191 223.5,289.5 Z"/></g>
<g><path style="opacity:1" fill="#fce1a5" d="M 251.5,271.5 C 256.742,270.271 260.575,271.937 263,276.5C 263.667,280.833 263.667,285.167 263,289.5C 260.565,294.224 256.731,295.724 251.5,294C 249.951,292.786 248.785,291.286 248,289.5C 247.333,285.167 247.333,280.833 248,276.5C 248.997,274.677 250.164,273.01 251.5,271.5 Z"/></g>
<g><path style="opacity:1" fill="#fce1a5" d="M 275.5,271.5 C 280.742,270.271 284.575,271.937 287,276.5C 287.667,280.833 287.667,285.167 287,289.5C 284.565,294.224 280.731,295.724 275.5,294C 273.951,292.786 272.785,291.286 272,289.5C 271.333,285.167 271.333,280.833 272,276.5C 272.997,274.677 274.164,273.01 275.5,271.5 Z"/></g>
<g><path style="opacity:1" fill="#97d34b" d="M 186.5,333.5 C 186.44,332.957 186.107,332.624 185.5,332.5C 171.881,337.429 161.381,333.762 154,321.5C 149.886,312.245 151.052,303.745 157.5,296C 157.272,295.601 156.938,295.435 156.5,295.5C 159.299,288.767 164.299,286.267 171.5,288C 180.086,295.357 186.586,304.19 191,314.5C 192.451,321.624 190.951,327.958 186.5,333.5 Z"/></g>
<g><path style="opacity:1" fill="#97d34b" d="M 362.5,333.5 C 362.44,332.957 362.107,332.624 361.5,332.5C 347.881,337.429 337.381,333.762 330,321.5C 325.886,312.245 327.052,303.745 333.5,296C 333.272,295.601 332.938,295.435 332.5,295.5C 335.299,288.767 340.299,286.267 347.5,288C 356.086,295.357 362.586,304.19 367,314.5C 368.451,321.624 366.951,327.958 362.5,333.5 Z"/></g>
<g><path style="opacity:1" fill="#7ec824" d="M 156.5,295.5 C 156.938,295.435 157.272,295.601 157.5,296C 151.052,303.745 149.886,312.245 154,321.5C 161.381,333.762 171.881,337.429 185.5,332.5C 186.107,332.624 186.44,332.957 186.5,333.5C 183.959,337.707 180.292,340.373 175.5,341.5C 170.332,343.81 164.998,344.144 159.5,342.5C 143.713,333.968 139.879,321.635 148,305.5C 150.14,301.538 152.973,298.204 156.5,295.5 Z"/></g>
<g><path style="opacity:1" fill="#7ec824" d="M 332.5,295.5 C 332.938,295.435 333.272,295.601 333.5,296C 327.052,303.745 325.886,312.245 330,321.5C 337.381,333.762 347.881,337.429 361.5,332.5C 362.107,332.624 362.44,332.957 362.5,333.5C 359.959,337.707 356.292,340.373 351.5,341.5C 346.332,343.81 340.998,344.144 335.5,342.5C 319.713,333.968 315.879,321.635 324,305.5C 326.14,301.538 328.973,298.204 332.5,295.5 Z"/></g>
<g><path style="opacity:1" fill="#fce1a5" d="M 223.5,329.5 C 223.5,325.167 223.5,320.833 223.5,316.5C 224.596,314.897 225.93,313.397 227.5,312C 236.205,310.368 240.205,314.034 239.5,323C 240.219,327.464 238.886,331.131 235.5,334C 230.131,335.691 226.131,334.191 223.5,329.5 Z"/></g>
<g><path style="opacity:1" fill="#fce1a5" d="M 251.5,311.5 C 256.742,310.271 260.575,311.937 263,316.5C 263.667,320.833 263.667,325.167 263,329.5C 260.565,334.224 256.731,335.724 251.5,334C 249.951,332.786 248.785,331.286 248,329.5C 247.333,325.167 247.333,320.833 248,316.5C 248.997,314.677 250.164,313.01 251.5,311.5 Z"/></g>
<g><path style="opacity:1" fill="#fce1a5" d="M 275.5,311.5 C 280.742,310.271 284.575,311.937 287,316.5C 287.667,320.833 287.667,325.167 287,329.5C 284.565,334.224 280.731,335.724 275.5,334C 273.951,332.786 272.785,331.286 272,329.5C 271.333,325.167 271.333,320.833 272,316.5C 272.997,314.677 274.164,313.01 275.5,311.5 Z"/></g>
<g><path style="opacity:1" fill="#b9a3aa" d="M 175.5,341.5 C 175.5,344.5 175.5,347.5 175.5,350.5C 170.167,350.5 164.833,350.5 159.5,350.5C 159.5,347.833 159.5,345.167 159.5,342.5C 164.998,344.144 170.332,343.81 175.5,341.5 Z"/></g>
<g><path style="opacity:1" fill="#b9a3aa" d="M 351.5,341.5 C 351.5,344.5 351.5,347.5 351.5,350.5C 346.167,350.5 340.833,350.5 335.5,350.5C 335.5,347.833 335.5,345.167 335.5,342.5C 340.998,344.144 346.332,343.81 351.5,341.5 Z"/></g>
<g><path style="opacity:1" fill="#a8daf6" d="M 159.5,350.5 C 164.833,350.5 170.167,350.5 175.5,350.5C 183.316,351.492 191.316,351.826 199.5,351.5C 236.833,351.5 274.167,351.5 311.5,351.5C 319.684,351.826 327.684,351.492 335.5,350.5C 340.833,350.5 346.167,350.5 351.5,350.5C 360.658,351.33 369.991,351.83 379.5,352C 385.157,357.736 384.491,362.736 377.5,367C 296.167,367.667 214.833,367.667 133.5,367C 126.509,362.736 125.843,357.736 131.5,352C 141.009,351.83 150.342,351.33 159.5,350.5 Z"/></g>
<g><path style="opacity:0.983" fill="#b9a3ab" d="M 70.5,415.5 C 85.2699,422.535 100.603,427.535 116.5,430.5C 88.1667,430.5 59.8333,430.5 31.5,430.5C 31.5,436.5 31.5,442.5 31.5,448.5C 26.1529,447.225 20.8195,447.225 15.5,448.5C 15.3335,438.828 15.5002,429.161 16,419.5C 16.8333,418.5 17.6667,417.5 18.5,416.5C 35.7861,415.514 53.1195,415.181 70.5,415.5 Z"/></g>
<g><path style="opacity:0.963" fill="#b9a2aa" d="M 191.5,431.5 C 196.833,431.5 202.167,431.5 207.5,431.5C 207.976,451.592 207.476,471.592 206,491.5C 205.167,492.333 204.333,493.167 203.5,494C 188.504,494.5 173.504,494.667 158.5,494.5C 158.359,489.749 158.359,484.749 158.5,479.5C 169.5,479.5 180.5,479.5 191.5,479.5C 191.5,463.5 191.5,447.5 191.5,431.5 Z"/></g>
<g><path style="opacity:0.973" fill="#b9a2aa" d="M 375.5,431.5 C 380.833,431.5 386.167,431.5 391.5,431.5C 391.5,447.5 391.5,463.5 391.5,479.5C 415.833,479.5 440.167,479.5 464.5,479.5C 464.5,484.5 464.5,489.5 464.5,494.5C 436.165,494.667 407.831,494.5 379.5,494C 378.333,492.833 377.167,491.667 376,490.5C 375.5,470.836 375.333,451.169 375.5,431.5 Z"/></g>
<g><path style="opacity:0.972" fill="#916b77" d="M 31.5,448.5 C 39.584,451.421 44.7507,457.088 47,465.5C 47.2944,488.534 36.1278,497.701 13.5,493C 6.43097,489.439 1.76431,483.939 -0.5,476.5C -0.5,472.833 -0.5,469.167 -0.5,465.5C 2.06709,457.265 7.40043,451.599 15.5,448.5C 20.8195,447.225 26.1529,447.225 31.5,448.5 Z M 19.5,463.5 C 26.253,461.772 30.253,464.272 31.5,471C 30.008,477.418 26.008,479.751 19.5,478C 14.232,473.171 14.232,468.337 19.5,463.5 Z"/></g>
<g><path style="opacity:0.973" fill="#916b77" d="M 158.5,479.5 C 158.359,484.749 158.359,489.749 158.5,494.5C 152.854,507.824 142.854,512.991 128.5,510C 115.663,504.835 110.163,495.335 112,481.5C 116.955,466.768 127.122,460.935 142.5,464C 150.296,466.63 155.63,471.797 158.5,479.5 Z M 131.5,479.5 C 138.253,477.772 142.253,480.272 143.5,487C 142.008,493.418 138.008,495.751 131.5,494C 126.232,489.171 126.232,484.337 131.5,479.5 Z"/></g>
<g><path style="opacity:0.974" fill="#916b77" d="M 511.5,481.5 C 511.5,485.167 511.5,488.833 511.5,492.5C 503.444,510.798 490.444,515.298 472.5,506C 468.714,502.923 466.048,499.089 464.5,494.5C 464.5,489.5 464.5,484.5 464.5,479.5C 472.572,463.308 484.905,459.142 501.5,467C 506.226,470.977 509.559,475.811 511.5,481.5 Z M 483.5,479.5 C 490.253,477.772 494.253,480.272 495.5,487C 494.008,493.418 490.008,495.751 483.5,494C 478.232,489.171 478.232,484.337 483.5,479.5 Z"/></g>
</svg>
