<svg version="1.1" id="Layer_1" xmlns="http://www.w3.org/2000/svg" xmlns:xlink="http://www.w3.org/1999/xlink" x="0px" y="0px"
	 width="100%" viewBox="0 0 512 512" enable-background="new 0 0 512 512" xml:space="preserve">
<path fill="#010101" opacity="1.000000" stroke="none" 
	d="
M352.000000,513.000000 
	C234.695175,513.000000 117.890343,513.000000 1.042754,513.000000 
	C1.042754,342.403473 1.042754,171.806946 1.042754,1.105209 
	C171.554840,1.105209 342.109741,1.105209 512.832336,1.105209 
	C512.832336,171.666534 512.832336,342.333252 512.832336,513.000000 
	C459.473541,513.000000 405.986786,513.000000 352.000000,513.000000 
M370.022430,221.038254 
	C357.689484,221.026215 345.355682,220.925369 333.023895,221.037872 
	C326.392181,221.098343 321.839355,225.702423 321.820038,231.921677 
	C321.800720,238.141922 326.305145,242.848846 332.944519,242.906067 
	C345.604584,243.015137 358.267242,242.825485 371.843048,242.934402 
	C374.837219,242.922913 377.853027,243.136734 380.821014,242.852158 
	C386.670959,242.291306 391.012543,237.353012 390.885468,231.750351 
	C390.756500,226.065674 386.313782,221.404785 380.407806,221.062836 
	C377.265381,220.880905 374.097900,221.132416 370.022430,221.038254 
M438.829712,456.813843 
	C442.817200,456.834351 446.806427,456.936768 450.791779,456.854401 
	C455.693970,456.753082 458.766235,454.381287 459.961121,448.584351 
	C452.500763,446.362976 445.243713,444.202118 437.324646,441.664154 
	C436.694855,441.459442 436.075195,441.213318 435.433746,441.055969 
	C401.610535,432.758759 367.292786,431.502747 332.764160,434.269775 
	C311.676300,435.959686 290.802063,439.132416 270.714783,446.172974 
	C263.948883,448.544373 263.785004,448.991211 265.295258,456.825012 
	C266.984375,456.825012 268.777771,456.825043 270.571136,456.825043 
	C324.522705,456.825043 378.474274,456.827179 432.425842,456.815613 
	C434.252136,456.815216 436.078400,456.676605 438.829712,456.813843 
M363.879242,186.944748 
	C363.879242,193.190323 363.879242,199.435913 363.879242,205.606842 
	C367.889862,205.606842 371.139832,205.606842 374.582275,205.606842 
	C376.135040,192.549683 382.019043,181.715027 389.882874,171.810623 
	C393.192078,167.642685 396.538818,163.502167 399.958862,159.424988 
	C410.932587,146.342865 415.166718,131.478729 413.076324,114.437408 
	C410.250610,91.401810 390.662140,71.813110 367.149689,69.856102 
	C361.845123,69.585205 356.527405,68.926666 351.238159,69.106377 
	C317.164459,70.264145 293.951294,99.126961 299.642670,132.694992 
	C301.681549,144.720245 308.100586,154.214325 315.672241,163.174957 
	C326.272064,175.719254 336.119476,188.629715 337.995728,205.525391 
	C341.777496,205.525391 345.162933,205.525391 348.433044,205.525391 
	C348.433044,188.064392 348.433044,171.003571 348.433044,153.567917 
	C346.266815,153.567917 344.454987,153.573593 342.643219,153.566422 
	C340.645172,153.558502 338.638733,153.651764 336.650848,153.502258 
	C331.475189,153.112991 328.575348,150.262436 328.653168,145.792435 
	C328.730072,141.374237 331.754639,138.437576 336.940155,138.383759 
	C349.594879,138.252441 362.252930,138.242981 374.907379,138.386261 
	C380.085510,138.444885 383.058197,141.419418 383.097748,145.874756 
	C383.137604,150.363586 380.269165,153.201477 375.030487,153.491058 
	C371.442719,153.689377 367.835114,153.529053 364.055298,153.529053 
	C364.055298,164.780090 364.055298,175.404846 363.879242,186.944748 
M437.008514,471.971649 
	C379.602020,471.971649 322.195557,471.971649 264.852783,471.971649 
	C264.852783,479.896088 264.852783,487.172241 264.852783,494.922821 
	C266.905029,494.922821 268.698242,494.923889 270.491455,494.922668 
	C292.982025,494.907410 315.473694,494.786346 337.961761,495.016876 
	C340.612701,495.044037 344.965424,496.414642 345.563904,498.172272 
	C347.415710,503.610291 351.141388,503.156403 355.267365,503.024963 
	C359.082703,502.903412 362.904968,502.999115 366.628601,502.999115 
	C369.224640,495.605988 370.303925,494.859039 377.938080,494.815063 
	C397.918854,494.699951 417.899536,494.570831 438.800568,494.698822 
	C447.131439,494.681091 455.486298,495.064453 463.788574,494.568268 
	C486.163177,493.231018 497.933319,480.489441 497.935150,458.093475 
	C497.942047,372.604248 497.938385,287.115021 497.934845,201.625809 
	C497.934784,199.959854 497.992462,198.284637 497.845978,196.629425 
	C496.770325,184.474579 485.902435,174.813751 475.003723,176.587158 
	C475.003723,178.514023 475.003754,180.497452 475.003723,182.480881 
	C475.003540,270.303162 475.008026,358.125427 474.999054,445.947693 
	C474.997375,462.440552 465.486511,471.868164 448.899017,471.930115 
	C445.238647,471.943787 441.578674,472.066193 437.008514,471.971649 
M437.532410,145.305511 
	C433.848297,144.440521 430.164215,143.575516 426.158875,142.635086 
	C422.324585,155.366379 414.729431,165.397156 406.662842,175.181290 
	C402.859680,179.794235 398.908661,184.437790 396.042969,189.629562 
	C392.992950,195.155273 391.147156,201.345688 388.846527,207.069290 
	C391.513763,208.633408 392.990631,209.402603 394.366974,210.322250 
	C403.667847,216.537003 407.925262,227.928665 405.031616,238.754486 
	C402.161011,249.494202 392.533691,257.707916 381.521881,257.902985 
	C364.700897,258.200989 347.865204,258.248718 331.046387,257.896088 
	C318.318726,257.629181 307.727753,247.015244 306.792877,234.351486 
	C305.860077,221.715302 311.991821,213.184525 322.868622,207.550186 
	C321.841431,197.633331 317.326904,189.426620 311.364319,181.899582 
	C302.306091,170.464630 292.128906,159.794373 287.163696,144.969452 
	C280.923370,146.922714 275.140625,148.884109 269.266266,150.515564 
	C265.657532,151.517776 264.481262,153.400024 264.486176,157.227341 
	C264.601807,247.191467 264.574646,337.155762 264.584778,427.120056 
	C264.584961,428.689026 264.720795,430.257965 264.808624,432.158386 
	C268.515289,430.980103 271.638184,429.898010 274.811462,428.992554 
	C306.817108,419.860321 339.573395,417.391724 372.679443,417.954498 
	C394.718719,418.329163 416.439117,421.256042 438.669403,426.148987 
	C445.625793,428.240417 452.582214,430.331848 459.950195,432.547028 
	C459.950195,430.586090 459.950195,429.113556 459.950195,427.641022 
	C459.949921,339.222931 459.950165,250.804825 459.945221,162.386734 
	C459.945129,160.888901 459.917786,159.389297 459.841980,157.893600 
	C459.654755,154.199554 457.980164,151.522430 454.330688,150.437271 
	C448.937073,148.833450 443.509552,147.343552 437.532410,145.305511 
M54.049561,424.444336 
	C54.049561,427.029602 54.049561,429.614899 54.049561,432.220520 
	C119.344894,412.393494 184.179642,413.418304 249.379410,431.539978 
	C249.379410,429.617706 249.379410,427.803375 249.379410,425.989014 
	C249.379410,337.002045 249.320160,248.014923 249.528244,159.028442 
	C249.540573,153.753601 247.931564,151.498306 243.133652,149.887054 
	C219.691193,142.014603 195.373062,139.702560 170.942154,138.044281 
	C162.873474,137.496628 161.674667,136.802231 159.014877,129.209320 
	C152.142975,129.209320 145.195404,129.209320 138.261856,129.209320 
	C135.807968,136.830780 134.619339,137.611832 126.531441,138.044449 
	C105.015778,139.195374 83.828545,142.301331 63.285324,149.060822 
	C55.045097,151.772171 54.163677,152.972839 54.055367,161.499329 
	C54.034203,163.165512 54.049686,164.832138 54.049683,166.498566 
	C54.049545,252.152695 54.049564,337.806824 54.049561,424.444336 
M16.062275,434.500000 
	C16.068060,443.663483 15.919287,452.830261 16.113810,461.989716 
	C16.453583,477.988373 26.651068,490.465668 42.145557,493.639435 
	C46.511520,494.533752 51.085205,494.702393 55.564579,494.711121 
	C117.874840,494.832642 180.185257,494.868469 242.495636,494.924866 
	C244.620468,494.926788 246.745316,494.925079 249.073212,494.925079 
	C249.073212,487.054718 249.073212,479.677063 249.073212,471.922211 
	C246.985016,471.922211 245.178894,471.922211 243.372757,471.922211 
	C184.060516,471.922211 124.748291,471.928162 65.436058,471.918488 
	C48.254337,471.915680 38.999626,462.592743 38.998737,445.311279 
	C38.994205,357.509186 38.996548,269.707092 38.996490,181.904984 
	C38.996490,179.955429 38.996490,178.005890 38.996490,176.123459 
	C38.127296,176.018356 37.795135,175.932449 37.466766,175.945099 
	C24.966629,176.426376 16.077709,186.381195 16.073742,200.083038 
	C16.051216,277.888702 16.062498,355.694336 16.062275,434.500000 
M152.499985,456.833984 
	C184.596558,456.833984 216.693130,456.833984 248.687958,456.833984 
	C250.174149,448.986664 249.993820,448.562561 243.274475,446.177582 
	C239.832840,444.955994 236.351669,443.792023 232.811752,442.909241 
	C184.094376,430.759827 135.058655,429.580322 85.861565,439.416687 
	C75.050461,441.578217 64.572624,445.406616 53.888306,448.482666 
	C55.548328,455.150208 59.291157,456.883392 64.582794,456.869659 
	C93.555023,456.794434 122.527550,456.833862 152.499985,456.833984 
z"/>
<path fill="#EBEEF0" opacity="1.000000" stroke="none" 
	d="
M54.049561,423.952637 
	C54.049564,337.806824 54.049545,252.152695 54.049683,166.498566 
	C54.049686,164.832138 54.034203,163.165512 54.055367,161.499329 
	C54.163677,152.972839 55.045097,151.772171 63.285324,149.060822 
	C83.828545,142.301331 105.015778,139.195374 126.531441,138.044449 
	C134.619339,137.611832 135.807968,136.830780 138.261856,129.209320 
	C145.195404,129.209320 152.142975,129.209320 159.014877,129.209320 
	C161.674667,136.802231 162.873474,137.496628 170.942154,138.044281 
	C195.373062,139.702560 219.691193,142.014603 243.133652,149.887054 
	C247.931564,151.498306 249.540573,153.753601 249.528244,159.028442 
	C249.320160,248.014923 249.379410,337.002045 249.379410,425.989014 
	C249.379410,427.803375 249.379410,429.617706 249.379410,431.539978 
	C184.179642,413.418304 119.344894,412.393494 54.049561,432.220520 
	C54.049561,429.614899 54.049561,427.029602 54.049561,423.952637 
M129.553986,296.052887 
	C126.740524,296.369049 123.843216,296.359009 121.127899,297.057007 
	C108.295799,300.355469 95.435471,303.588440 82.754158,307.406006 
	C78.087669,308.810822 76.598991,313.620850 78.429825,317.613098 
	C80.113983,321.285522 84.316330,322.947174 88.561218,321.131073 
	C104.704597,314.224426 121.688828,311.225494 139.071121,310.572327 
	C164.311325,309.623993 189.334091,310.729126 213.010895,321.090118 
	C217.337097,322.983276 221.209473,321.592438 223.140640,317.705566 
	C224.962616,314.038452 223.974899,309.972076 219.984390,307.926758 
	C215.432343,305.593658 210.649277,303.487610 205.733063,302.126434 
	C181.061798,295.295563 155.902069,293.875244 129.553986,296.052887 
M102.747597,205.097031 
	C115.066475,203.242859 127.334282,200.368713 139.714951,199.748856 
	C164.759445,198.494980 189.665009,199.788101 213.171555,210.185593 
	C217.237076,211.983856 221.060608,210.628937 223.016968,207.048767 
	C225.066254,203.298477 224.029373,199.019409 219.828781,196.887482 
	C215.264389,194.570953 210.471603,192.481537 205.548447,191.131989 
	C179.360382,183.953293 152.704315,182.743073 125.790596,185.515625 
	C110.979263,187.041428 96.572891,190.235397 82.901291,196.257050 
	C78.324028,198.273117 76.630394,202.456558 78.350410,206.481323 
	C80.001213,210.344147 84.292351,211.817993 88.882156,210.118500 
	C93.241821,208.504211 97.608833,206.909790 102.747597,205.097031 
M145.504303,239.810226 
	C124.227600,240.164276 103.405891,242.975723 83.660431,251.434479 
	C78.389229,253.692612 76.497902,257.743347 78.434921,262.096191 
	C80.234924,266.141113 84.434715,267.480927 89.489029,265.341431 
	C106.286240,258.231110 123.952019,255.386047 142.018158,255.008194 
	C166.390961,254.498459 190.597153,255.444244 213.381302,265.807373 
	C217.331711,267.604187 221.310516,265.873718 223.139709,262.262909 
	C224.970993,258.647949 223.857849,254.693375 220.043579,252.394653 
	C217.784897,251.033401 215.317154,249.946304 212.830994,249.046616 
	C191.380676,241.284332 169.076614,239.556931 145.504303,239.810226 
M220.156082,363.321533 
	C213.463562,360.883972 206.927338,357.808899 200.050552,356.122955 
	C174.867020,349.948975 149.279831,349.383057 123.618500,352.151855 
	C109.519974,353.673035 95.734703,356.814301 82.768013,362.819458 
	C78.226204,364.922882 76.616257,368.993866 78.439621,373.046509 
	C80.115677,376.771759 84.308395,378.521240 88.623718,376.655731 
	C107.629944,368.439453 127.651443,365.810760 148.098907,365.835663 
	C170.305344,365.862701 192.359161,367.101624 213.049591,376.590851 
	C216.763977,378.294342 220.406464,377.553131 222.703934,373.917755 
	C225.115341,370.102142 224.224670,366.615997 220.156082,363.321533 
z"/>
<path fill="#EBEEF0" opacity="1.000000" stroke="none" 
	d="
M437.966095,425.831024 
	C416.439117,421.256042 394.718719,418.329163 372.679443,417.954498 
	C339.573395,417.391724 306.817108,419.860321 274.811462,428.992554 
	C271.638184,429.898010 268.515289,430.980103 264.808624,432.158386 
	C264.720795,430.257965 264.584961,428.689026 264.584778,427.120056 
	C264.574646,337.155762 264.601807,247.191467 264.486176,157.227341 
	C264.481262,153.400024 265.657532,151.517776 269.266266,150.515564 
	C275.140625,148.884109 280.923370,146.922714 287.163696,144.969452 
	C292.128906,159.794373 302.306091,170.464630 311.364319,181.899582 
	C317.326904,189.426620 321.841431,197.633331 322.868622,207.550186 
	C311.991821,213.184525 305.860077,221.715302 306.792877,234.351486 
	C307.727753,247.015244 318.318726,257.629181 331.046387,257.896088 
	C347.865204,258.248718 364.700897,258.200989 381.521881,257.902985 
	C392.533691,257.707916 402.161011,249.494202 405.031616,238.754486 
	C407.925262,227.928665 403.667847,216.537003 394.366974,210.322250 
	C392.990631,209.402603 391.513763,208.633408 388.846527,207.069290 
	C391.147156,201.345688 392.992950,195.155273 396.042969,189.629562 
	C398.908661,184.437790 402.859680,179.794235 406.662842,175.181290 
	C414.729431,165.397156 422.324585,155.366379 426.158875,142.635086 
	C430.164215,143.575516 433.848297,144.440521 437.772278,146.035095 
	C437.996796,239.786804 437.981445,332.808929 437.966095,425.831024 
M331.202332,312.616364 
	C363.115662,308.413055 394.620850,308.683563 425.052490,321.050934 
	C429.601349,322.899567 433.900574,321.341797 435.592804,317.479614 
	C437.342407,313.486572 435.669952,309.210907 431.107178,307.261810 
	C426.384888,305.244598 421.548645,303.389709 416.612061,301.995789 
	C388.083221,293.940186 359.049347,293.126801 329.990662,297.717804 
	C318.137299,299.590576 306.556366,303.585297 295.094238,307.353027 
	C290.047729,309.011871 288.786469,313.879883 290.945648,317.924744 
	C293.026337,321.822571 296.859344,322.470001 301.705444,320.931519 
	C311.159637,317.930115 320.783173,315.462280 331.202332,312.616364 
M374.458862,350.920959 
	C359.188751,351.639832 343.771973,351.309021 328.695831,353.415924 
	C317.028870,355.046417 305.678284,359.402893 294.413330,363.216064 
	C290.011139,364.706238 288.945740,369.435730 290.852600,373.195709 
	C292.764923,376.966492 296.840027,378.522339 301.061920,376.526794 
	C317.684845,368.669769 335.514374,366.785034 353.491089,366.028259 
	C378.092651,364.992615 402.352814,366.728210 425.390625,376.675964 
	C429.688782,378.531891 433.871765,376.751190 435.545319,373.010803 
	C437.348907,368.979767 435.687134,365.025696 431.180634,362.796783 
	C429.697479,362.063171 428.145477,361.462036 426.603302,360.855438 
	C410.163116,354.388947 392.969940,351.804413 374.458862,350.920959 
z"/>
<path fill="#8DBDE6" opacity="1.000000" stroke="none" 
	d="
M16.062275,434.000000 
	C16.062498,355.694336 16.051216,277.888702 16.073742,200.083038 
	C16.077709,186.381195 24.966629,176.426376 37.466766,175.945099 
	C37.795135,175.932449 38.127296,176.018356 38.996490,176.123459 
	C38.996490,178.005890 38.996490,179.955429 38.996490,181.904984 
	C38.996548,269.707092 38.994205,357.509186 38.998737,445.311279 
	C38.999626,462.592743 48.254337,471.915680 65.436058,471.918488 
	C124.748291,471.928162 184.060516,471.922211 243.372757,471.922211 
	C245.178894,471.922211 246.985016,471.922211 249.073212,471.922211 
	C249.073212,479.677063 249.073212,487.054718 249.073212,494.925079 
	C246.745316,494.925079 244.620468,494.926788 242.495636,494.924866 
	C180.185257,494.868469 117.874840,494.832642 55.564579,494.711121 
	C51.085205,494.702393 46.511520,494.533752 42.145557,493.639435 
	C26.651068,490.465668 16.453583,477.988373 16.113810,461.989716 
	C15.919287,452.830261 16.068060,443.663483 16.062275,434.000000 
z"/>
<path fill="#5199D4" opacity="1.000000" stroke="none" 
	d="
M437.918518,472.138519 
	C441.578674,472.066193 445.238647,471.943787 448.899017,471.930115 
	C465.486511,471.868164 474.997375,462.440552 474.999054,445.947693 
	C475.008026,358.125427 475.003540,270.303162 475.003723,182.480881 
	C475.003754,180.497452 475.003723,178.514023 475.003723,176.587158 
	C485.902435,174.813751 496.770325,184.474579 497.845978,196.629425 
	C497.992462,198.284637 497.934784,199.959854 497.934845,201.625809 
	C497.938385,287.115021 497.942047,372.604248 497.935150,458.093475 
	C497.933319,480.489441 486.163177,493.231018 463.788574,494.568268 
	C455.486298,495.064453 447.131439,494.681091 438.347412,494.141266 
	C437.902344,486.435303 437.910431,479.286926 437.918518,472.138519 
z"/>
<path fill="#FAD867" opacity="1.000000" stroke="none" 
	d="
M364.055298,186.029587 
	C364.055298,175.404846 364.055298,164.780090 364.055298,153.529053 
	C367.835114,153.529053 371.442719,153.689377 375.030487,153.491058 
	C380.269165,153.201477 383.137604,150.363586 383.097748,145.874756 
	C383.058197,141.419418 380.085510,138.444885 374.907379,138.386261 
	C362.252930,138.242981 349.594879,138.252441 336.940155,138.383759 
	C331.754639,138.437576 328.730072,141.374237 328.653168,145.792435 
	C328.575348,150.262436 331.475189,153.112991 336.650848,153.502258 
	C338.638733,153.651764 340.645172,153.558502 342.643219,153.566422 
	C344.454987,153.573593 346.266815,153.567917 348.433044,153.567917 
	C348.433044,171.003571 348.433044,188.064392 348.433044,205.525391 
	C345.162933,205.525391 341.777496,205.525391 337.995728,205.525391 
	C336.119476,188.629715 326.272064,175.719254 315.672241,163.174957 
	C308.100586,154.214325 301.681549,144.720245 299.642670,132.694992 
	C293.951294,99.126961 317.164459,70.264145 351.238159,69.106377 
	C356.527405,68.926666 361.845123,69.585205 367.767273,70.229172 
	C372.189453,73.532005 376.376282,76.081345 379.734711,79.455269 
	C397.259125,97.060555 402.488129,127.449524 390.833466,148.581436 
	C383.472839,161.927521 373.085205,173.604141 364.055298,186.029587 
z"/>
<path fill="#C3CBCE" opacity="1.000000" stroke="none" 
	d="
M438.317749,425.989990 
	C437.981445,332.808929 437.996796,239.786804 438.054321,146.284912 
	C443.509552,147.343552 448.937073,148.833450 454.330688,150.437271 
	C457.980164,151.522430 459.654755,154.199554 459.841980,157.893600 
	C459.917786,159.389297 459.945129,160.888901 459.945221,162.386734 
	C459.950165,250.804825 459.949921,339.222931 459.950195,427.641022 
	C459.950195,429.113556 459.950195,430.586090 459.950195,432.547028 
	C452.582214,430.331848 445.625793,428.240417 438.317749,425.989990 
z"/>
<path fill="#8DBEE7" opacity="1.000000" stroke="none" 
	d="
M437.463501,472.055084 
	C437.910431,479.286926 437.902344,486.435303 437.887268,494.015503 
	C417.899536,494.570831 397.918854,494.699951 377.938080,494.815063 
	C370.303925,494.859039 369.224640,495.605988 366.628601,502.999115 
	C362.904968,502.999115 359.082703,502.903412 355.267365,503.024963 
	C351.141388,503.156403 347.415710,503.610291 345.563904,498.172272 
	C344.965424,496.414642 340.612701,495.044037 337.961761,495.016876 
	C315.473694,494.786346 292.982025,494.907410 270.491455,494.922668 
	C268.698242,494.923889 266.905029,494.922821 264.852783,494.922821 
	C264.852783,487.172241 264.852783,479.896088 264.852783,471.971649 
	C322.195557,471.971649 379.602020,471.971649 437.463501,472.055084 
z"/>
<path fill="#8DA1AA" opacity="1.000000" stroke="none" 
	d="
M151.999969,456.833954 
	C122.527550,456.833862 93.555023,456.794434 64.582794,456.869659 
	C59.291157,456.883392 55.548328,455.150208 53.888306,448.482666 
	C64.572624,445.406616 75.050461,441.578217 85.861565,439.416687 
	C135.058655,429.580322 184.094376,430.759827 232.811752,442.909241 
	C236.351669,443.792023 239.832840,444.955994 243.274475,446.177582 
	C249.993820,448.562561 250.174149,448.986664 248.687958,456.833984 
	C216.693130,456.833984 184.596558,456.833984 151.999969,456.833954 
z"/>
<path fill="#8FA3AD" opacity="1.000000" stroke="none" 
	d="
M437.904724,456.602417 
	C436.078400,456.676605 434.252136,456.815216 432.425842,456.815613 
	C378.474274,456.827179 324.522705,456.825043 270.571136,456.825043 
	C268.777771,456.825043 266.984375,456.825012 265.295258,456.825012 
	C263.785004,448.991211 263.948883,448.544373 270.714783,446.172974 
	C290.802063,439.132416 311.676300,435.959686 332.764160,434.269775 
	C367.292786,431.502747 401.610535,432.758759 435.433746,441.055969 
	C436.075195,441.213318 436.694855,441.459442 437.661255,442.314484 
	C437.966827,447.510681 437.935760,452.056549 437.904724,456.602417 
z"/>
<path fill="#E4A135" opacity="1.000000" stroke="none" 
	d="
M363.967285,186.487167 
	C373.085205,173.604141 383.472839,161.927521 390.833466,148.581436 
	C402.488129,127.449524 397.259125,97.060555 379.734711,79.455269 
	C376.376282,76.081345 372.189453,73.532005 368.169312,70.348007 
	C390.662140,71.813110 410.250610,91.401810 413.076324,114.437408 
	C415.166718,131.478729 410.932587,146.342865 399.958862,159.424988 
	C396.538818,163.502167 393.192078,167.642685 389.882874,171.810623 
	C382.019043,181.715027 376.135040,192.549683 374.582275,205.606842 
	C371.139832,205.606842 367.889862,205.606842 363.879242,205.606842 
	C363.879242,199.435913 363.879242,193.190323 363.967285,186.487167 
z"/>
<path fill="#C3CBCE" opacity="1.000000" stroke="none" 
	d="
M370.928802,242.759842 
	C358.267242,242.825485 345.604584,243.015137 332.944519,242.906067 
	C326.305145,242.848846 321.800720,238.141922 321.820038,231.921677 
	C321.839355,225.702423 326.392181,221.098343 333.023895,221.037872 
	C345.355682,220.925369 357.689484,221.026215 370.552551,221.470581 
	C375.309021,228.886765 374.477478,235.833328 370.928802,242.759842 
z"/>
<path fill="#8EA1AB" opacity="1.000000" stroke="none" 
	d="
M371.385925,242.847122 
	C374.477478,235.833328 375.309021,228.886765 371.012177,221.545593 
	C374.097900,221.132416 377.265381,220.880905 380.407806,221.062836 
	C386.313782,221.404785 390.756500,226.065674 390.885468,231.750351 
	C391.012543,237.353012 386.670959,242.291306 380.821014,242.852158 
	C377.853027,243.136734 374.837219,242.922913 371.385925,242.847122 
z"/>
<path fill="#728189" opacity="1.000000" stroke="none" 
	d="
M438.367218,456.708130 
	C437.935760,452.056549 437.966827,447.510681 437.992310,442.503052 
	C445.243713,444.202118 452.500763,446.362976 459.961121,448.584351 
	C458.766235,454.381287 455.693970,456.753082 450.791779,456.854401 
	C446.806427,456.936768 442.817200,456.834351 438.367218,456.708130 
z"/>
<path fill="#040404" opacity="1.000000" stroke="none" 
	d="
M130.015320,296.027740 
	C155.902069,293.875244 181.061798,295.295563 205.733063,302.126434 
	C210.649277,303.487610 215.432343,305.593658 219.984390,307.926758 
	C223.974899,309.972076 224.962616,314.038452 223.140640,317.705566 
	C221.209473,321.592438 217.337097,322.983276 213.010895,321.090118 
	C189.334091,310.729126 164.311325,309.623993 139.071121,310.572327 
	C121.688828,311.225494 104.704597,314.224426 88.561218,321.131073 
	C84.316330,322.947174 80.113983,321.285522 78.429825,317.613098 
	C76.598991,313.620850 78.087669,308.810822 82.754158,307.406006 
	C95.435471,303.588440 108.295799,300.355469 121.127899,297.057007 
	C123.843216,296.359009 126.740524,296.369049 130.015320,296.027740 
z"/>
<path fill="#040404" opacity="1.000000" stroke="none" 
	d="
M102.360107,205.201843 
	C97.608833,206.909790 93.241821,208.504211 88.882156,210.118500 
	C84.292351,211.817993 80.001213,210.344147 78.350410,206.481323 
	C76.630394,202.456558 78.324028,198.273117 82.901291,196.257050 
	C96.572891,190.235397 110.979263,187.041428 125.790596,185.515625 
	C152.704315,182.743073 179.360382,183.953293 205.548447,191.131989 
	C210.471603,192.481537 215.264389,194.570953 219.828781,196.887482 
	C224.029373,199.019409 225.066254,203.298477 223.016968,207.048767 
	C221.060608,210.628937 217.237076,211.983856 213.171555,210.185593 
	C189.665009,199.788101 164.759445,198.494980 139.714951,199.748856 
	C127.334282,200.368713 115.066475,203.242859 102.360107,205.201843 
z"/>
<path fill="#040404" opacity="1.000000" stroke="none" 
	d="
M146.003510,239.808517 
	C169.076614,239.556931 191.380676,241.284332 212.830994,249.046616 
	C215.317154,249.946304 217.784897,251.033401 220.043579,252.394653 
	C223.857849,254.693375 224.970993,258.647949 223.139709,262.262909 
	C221.310516,265.873718 217.331711,267.604187 213.381302,265.807373 
	C190.597153,255.444244 166.390961,254.498459 142.018158,255.008194 
	C123.952019,255.386047 106.286240,258.231110 89.489029,265.341431 
	C84.434715,267.480927 80.234924,266.141113 78.434921,262.096191 
	C76.497902,257.743347 78.389229,253.692612 83.660431,251.434479 
	C103.405891,242.975723 124.227600,240.164276 146.003510,239.808517 
z"/>
<path fill="#040404" opacity="1.000000" stroke="none" 
	d="
M220.453247,363.550110 
	C224.224670,366.615997 225.115341,370.102142 222.703934,373.917755 
	C220.406464,377.553131 216.763977,378.294342 213.049591,376.590851 
	C192.359161,367.101624 170.305344,365.862701 148.098907,365.835663 
	C127.651443,365.810760 107.629944,368.439453 88.623718,376.655731 
	C84.308395,378.521240 80.115677,376.771759 78.439621,373.046509 
	C76.616257,368.993866 78.226204,364.922882 82.768013,362.819458 
	C95.734703,356.814301 109.519974,353.673035 123.618500,352.151855 
	C149.279831,349.383057 174.867020,349.948975 200.050552,356.122955 
	C206.927338,357.808899 213.463562,360.883972 220.453247,363.550110 
z"/>
<path fill="#040404" opacity="1.000000" stroke="none" 
	d="
M330.769470,312.694946 
	C320.783173,315.462280 311.159637,317.930115 301.705444,320.931519 
	C296.859344,322.470001 293.026337,321.822571 290.945648,317.924744 
	C288.786469,313.879883 290.047729,309.011871 295.094238,307.353027 
	C306.556366,303.585297 318.137299,299.590576 329.990662,297.717804 
	C359.049347,293.126801 388.083221,293.940186 416.612061,301.995789 
	C421.548645,303.389709 426.384888,305.244598 431.107178,307.261810 
	C435.669952,309.210907 437.342407,313.486572 435.592804,317.479614 
	C433.900574,321.341797 429.601349,322.899567 425.052490,321.050934 
	C394.620850,308.683563 363.115662,308.413055 330.769470,312.694946 
z"/>
<path fill="#040404" opacity="1.000000" stroke="none" 
	d="
M374.950256,350.938446 
	C392.969940,351.804413 410.163116,354.388947 426.603302,360.855438 
	C428.145477,361.462036 429.697479,362.063171 431.180634,362.796783 
	C435.687134,365.025696 437.348907,368.979767 435.545319,373.010803 
	C433.871765,376.751190 429.688782,378.531891 425.390625,376.675964 
	C402.352814,366.728210 378.092651,364.992615 353.491089,366.028259 
	C335.514374,366.785034 317.684845,368.669769 301.061920,376.526794 
	C296.840027,378.522339 292.764923,376.966492 290.852600,373.195709 
	C288.945740,369.435730 290.011139,364.706238 294.413330,363.216064 
	C305.678284,359.402893 317.028870,355.046417 328.695831,353.415924 
	C343.771973,351.309021 359.188751,351.639832 374.950256,350.938446 
z"/>
</svg>