<?xml version="1.0" standalone="no"?>
<!DOCTYPE svg PUBLIC "-//W3C//DTD SVG 20010904//EN"
 "http://www.w3.org/TR/2001/REC-SVG-20010904/DTD/svg10.dtd">
<svg version="1.0" xmlns="http://www.w3.org/2000/svg"
 width="512.000000pt" height="512.000000pt" viewBox="0 0 512.000000 512.000000"
 preserveAspectRatio="xMidYMid meet">

<g transform="translate(0.000000,512.000000) scale(0.100000,-0.100000)"
fill="#000000" stroke="none">
<path d="M397 4995 c-135 -37 -274 -150 -336 -272 -64 -129 -61 -3 -61 -2058
0 -2062 -4 -1934 63 -2059 47 -89 148 -186 238 -229 41 -19 98 -40 127 -46 37
-8 453 -11 1368 -11 1448 0 1356 -4 1390 61 20 40 12 88 -22 120 l-26 24
-1337 5 -1336 5 -67 33 c-76 37 -120 82 -157 162 l-26 55 0 1580 0 1580 2345
0 2345 0 5 -1142 5 -1141 24 -26 c49 -52 133 -40 166 24 22 43 23 2842 0 2938
-23 99 -70 179 -149 258 -74 74 -143 114 -237 139 -77 21 -4247 21 -4322 0z
m4319 -223 c58 -26 123 -89 153 -147 31 -62 41 -133 41 -306 l0 -159 -2350 0
-2350 0 0 159 c0 173 10 245 41 306 25 49 83 111 124 133 81 42 12 41 2200 39
l2090 -2 51 -23z"/>
<path d="M503 4578 c-44 -11 -73 -52 -73 -100 0 -113 165 -139 200 -32 28 83
-42 155 -127 132z"/>
<path d="M934 4583 c-12 -2 -34 -17 -49 -33 -63 -66 -16 -173 75 -173 92 0
139 110 74 173 -30 29 -63 40 -100 33z"/>
<path d="M1365 4582 c-61 -13 -95 -75 -75 -136 24 -73 115 -92 171 -37 55 55
30 149 -46 169 -16 5 -39 6 -50 4z"/>
<path d="M3494 2663 c-12 -2 -34 -18 -50 -34 l-29 -30 -3 -1082 c-2 -768 0
-1093 8 -1120 18 -61 88 -94 143 -66 12 6 97 85 188 176 l166 165 45 -83 c25
-46 84 -160 131 -254 91 -180 112 -211 153 -221 42 -11 72 1 289 116 221 116
265 150 265 200 0 19 -47 123 -122 272 -68 133 -124 246 -126 250 -2 4 111 8
252 10 253 3 255 3 280 27 35 33 44 85 22 126 -24 44 -1528 1545 -1548 1545
-9 0 -22 2 -30 4 -7 2 -23 1 -34 -1z m1040 -1493 l-216 -5 -24 -28 c-43 -51
-36 -74 116 -377 l140 -279 -112 -60 c-62 -33 -116 -57 -120 -53 -3 4 -68 127
-143 274 -140 274 -170 318 -221 318 -41 0 -63 -17 -196 -148 l-128 -127 0
805 0 805 560 -560 560 -560 -216 -5z"/>
</g>
</svg>
