<svg version="1.1" id="Layer_1" xmlns="http://www.w3.org/2000/svg" xmlns:xlink="http://www.w3.org/1999/xlink" x="0px" y="0px"
	 width="100%" viewBox="0 0 176 173" enable-background="new 0 0 176 173" xml:space="preserve">
<path fill="#F6F6F7" opacity="1.000000" stroke="none" 
	d="
M108.000000,174.000000 
	C72.000000,174.000000 36.500004,174.000000 1.000005,174.000000 
	C1.000003,116.333336 1.000003,58.666679 1.000002,1.000013 
	C59.666656,1.000008 118.333313,1.000008 176.999969,1.000004 
	C176.999985,58.666656 176.999985,116.333313 177.000000,173.999985 
	C154.166672,174.000000 131.333328,174.000000 108.000000,174.000000 
M157.022705,120.061516 
	C156.964935,97.384918 156.907181,74.708313 156.941223,51.318989 
	C155.996384,49.708729 155.051544,48.098473 154.134308,45.843651 
	C152.849350,44.599419 151.739395,43.064308 150.246307,42.166016 
	C145.935486,39.572487 141.470291,37.235531 136.641693,34.282066 
	C129.852570,30.455814 123.063431,26.629562 115.840302,22.264158 
	C108.576241,18.165712 101.312172,14.067268 93.542854,9.400208 
	C88.774704,7.094566 84.309776,7.713829 79.785049,10.351206 
	C63.249554,19.989428 46.832973,29.861065 29.972498,38.900356 
	C21.076023,43.669968 16.557467,49.843925 17.948746,60.026176 
	C18.306774,62.646454 18.091141,65.345116 18.029839,68.918053 
	C18.143618,73.305611 18.257397,77.693161 18.128313,82.822685 
	C18.111444,89.216446 18.094574,95.610214 17.967253,102.934990 
	C17.956266,108.042328 17.740145,113.161232 18.027246,118.251762 
	C18.156460,120.542854 19.290201,122.777290 20.043356,125.729469 
	C24.353479,128.838577 28.663605,131.947678 33.336987,135.631516 
	C36.837700,137.579910 40.338417,139.528320 44.292072,141.959076 
	C50.194756,145.268890 56.097439,148.578690 62.512573,152.349060 
	C65.333969,153.902939 68.155365,155.456818 71.369682,157.569366 
	C74.586395,159.341705 77.803108,161.114044 81.289116,163.143127 
	C81.289116,163.143127 81.661079,163.133881 81.932167,163.626221 
	C82.281151,163.708664 82.630135,163.791107 83.668961,164.294922 
	C86.826447,164.064819 90.494705,164.794540 93.050812,163.434326 
	C102.832069,158.229309 112.215477,152.282440 121.824677,146.746658 
	C130.774780,141.590576 139.912384,136.754196 148.772507,131.451355 
	C151.349762,129.908859 153.257523,127.247780 155.908875,124.638031 
	C156.220474,123.419449 156.532074,122.200874 157.022705,120.061516 
z"/>
<path fill="#9B72D3" opacity="1.000000" stroke="none" 
	d="
M94.048103,9.968824 
	C101.312172,14.067268 108.576241,18.165712 115.756012,22.766800 
	C113.195641,26.138073 110.972755,29.287737 108.179482,31.804295 
	C104.678665,34.958279 100.709808,37.592747 96.480949,40.410255 
	C90.726021,40.417908 85.324486,39.799404 80.160446,40.639961 
	C64.277916,43.225174 52.656025,52.044857 44.931999,65.977249 
	C44.023060,65.789841 43.106728,65.618904 42.596771,65.996613 
	C39.441124,68.333954 36.523991,71.019768 33.247578,73.161362 
	C28.411579,76.322357 23.341543,79.125298 18.371176,82.080719 
	C18.257397,77.693161 18.143618,73.305611 18.473251,68.460129 
	C20.720482,67.398048 22.855745,67.222443 24.276819,66.123398 
	C38.383308,55.213539 52.457272,44.257576 66.363640,33.094421 
	C75.738609,25.568787 84.829910,17.689764 94.048103,9.968824 
z"/>
<path fill="#9E78D6" opacity="1.000000" stroke="none" 
	d="
M93.795479,9.684517 
	C84.829910,17.689764 75.738609,25.568787 66.363640,33.094421 
	C52.457272,44.257576 38.383308,55.213539 24.276819,66.123398 
	C22.855745,67.222443 20.720482,67.398048 18.527851,68.004990 
	C18.091141,65.345116 18.306774,62.646454 17.948746,60.026176 
	C16.557467,49.843925 21.076023,43.669968 29.972498,38.900356 
	C46.832973,29.861065 63.249554,19.989428 79.785049,10.351206 
	C84.309776,7.713829 88.774704,7.094566 93.795479,9.684517 
z"/>
<path fill="#3C0595" opacity="1.000000" stroke="none" 
	d="
M154.106705,46.488213 
	C155.051544,48.098473 155.996384,49.708729 156.636017,51.990429 
	C156.214706,56.773739 156.098618,60.885605 155.618164,65.003044 
	C150.743515,68.263985 146.345413,71.692764 141.681046,74.709908 
	C138.869034,76.528847 135.643005,77.707687 132.182983,79.149918 
	C130.686813,77.355743 129.610672,75.585823 127.970406,72.888100 
	C126.291595,74.931534 124.411308,77.220200 122.531013,79.508865 
	C122.094872,79.206947 121.658722,78.905029 121.222572,78.603119 
	C121.222572,76.872612 121.222572,75.142113 121.222572,73.411606 
	C120.872787,73.172478 120.523003,72.933342 120.173210,72.694206 
	C118.059067,74.959091 115.916145,77.198349 113.856171,79.511482 
	C113.466202,79.949371 113.067322,80.852905 113.264542,81.239868 
	C113.654472,82.004929 114.900650,82.497559 115.000168,83.213081 
	C115.218338,84.781792 115.372833,87.638542 114.801468,87.840317 
	C108.983055,89.895050 113.299561,91.365845 114.688278,93.240585 
	C113.606361,95.698334 112.779587,97.913078 111.628807,100.085754 
	C109.929955,99.447350 108.555099,98.851021 106.973885,97.958626 
	C105.213158,96.735985 103.620583,95.867348 102.111679,94.871880 
	C97.721657,91.975647 93.365143,89.028641 89.197617,85.824066 
	C95.247688,81.893990 101.095627,78.241394 107.328568,74.562553 
	C114.251968,70.739555 120.790367,66.942810 127.645416,63.031067 
	C131.686615,60.770485 135.489807,58.748920 139.116745,56.449387 
	C144.182343,53.237747 149.116379,49.818584 154.106705,46.488213 
z"/>
<path fill="#280263" opacity="1.000000" stroke="none" 
	d="
M155.472168,125.099457 
	C153.257523,127.247780 151.349762,129.908859 148.772507,131.451355 
	C139.912384,136.754196 130.774780,141.590576 121.824677,146.746658 
	C112.215477,152.282440 102.832069,158.229309 93.050812,163.434326 
	C90.494705,164.794540 86.826447,164.064819 83.156326,163.880661 
	C82.316154,163.355560 81.988617,163.244720 81.661079,163.133881 
	C81.661079,163.133881 81.289116,163.143127 81.369812,162.762543 
	C83.956146,160.764694 86.607239,159.332672 88.942833,157.498825 
	C100.400177,148.502716 111.680534,139.279007 123.216187,130.385757 
	C128.936066,125.976082 135.070892,122.104637 141.371765,118.031677 
	C146.307755,120.415588 150.889969,122.757523 155.472168,125.099457 
z"/>
<path fill="#2A0267" opacity="1.000000" stroke="none" 
	d="
M141.017990,117.989700 
	C135.070892,122.104637 128.936066,125.976082 123.216187,130.385757 
	C111.680534,139.279007 100.400177,148.502716 88.942833,157.498825 
	C86.607239,159.332672 83.956146,160.764694 81.235153,162.634171 
	C77.803108,161.114044 74.586395,159.341705 71.487297,157.152710 
	C79.045021,151.017715 86.614578,145.456528 93.853508,139.493958 
	C96.315361,137.466171 97.944206,134.427048 100.223129,131.618958 
	C112.056786,128.002762 120.743568,120.861092 127.534843,110.795212 
	C131.867462,112.481537 135.924652,114.257835 140.093689,116.287918 
	C140.476364,117.024368 140.747177,117.507034 141.017990,117.989700 
z"/>
<path fill="#9669CF" opacity="1.000000" stroke="none" 
	d="
M19.968151,125.037437 
	C19.290201,122.777290 18.156460,120.542854 18.027246,118.251762 
	C17.740145,113.161232 17.956266,108.042328 18.384800,102.461197 
	C20.907162,100.788513 23.070465,99.680641 25.105413,98.373024 
	C30.411839,94.963196 35.662025,91.465851 40.999779,88.419571 
	C43.101021,96.113846 45.137127,103.391968 46.785904,110.672348 
	C45.224709,111.257057 44.028538,111.798828 42.880585,112.428513 
	C35.237354,116.621002 27.604427,120.832275 19.968151,125.037437 
z"/>
<path fill="#976BD0" opacity="1.000000" stroke="none" 
	d="
M96.942970,40.451450 
	C100.709808,37.592747 104.678665,34.958279 108.179482,31.804295 
	C110.972755,29.287737 113.195641,26.138073 115.973007,23.036375 
	C123.063431,26.629562 129.852570,30.455814 136.834335,34.940163 
	C136.594666,36.977268 136.586060,39.071991 135.661438,39.619389 
	C129.554016,43.235016 125.418770,50.290859 116.982140,50.228432 
	C110.114578,46.887123 103.528770,43.669289 96.942970,40.451450 
z"/>
<path fill="#2F0373" opacity="1.000000" stroke="none" 
	d="
M62.000114,151.888504 
	C56.097439,148.578690 50.194756,145.268890 44.109451,141.325058 
	C45.599022,138.804504 47.144714,136.784103 48.969772,135.059341 
	C52.740749,131.495590 56.660545,128.089310 60.844086,124.719025 
	C67.789680,127.506561 74.410301,130.193329 80.990555,133.232849 
	C79.304985,135.387711 77.762680,137.298584 75.994583,138.970718 
	C71.382553,143.332474 66.671608,147.589630 62.000114,151.888504 
z"/>
<path fill="#9A70D3" opacity="1.000000" stroke="none" 
	d="
M40.934639,88.003403 
	C35.662025,91.465851 30.411839,94.963196 25.105413,98.373024 
	C23.070465,99.680641 20.907162,100.788513 18.440025,101.995697 
	C18.094574,95.610214 18.111444,89.216446 18.249744,82.451706 
	C23.341543,79.125298 28.411579,76.322357 33.247578,73.161362 
	C36.523991,71.019768 39.441124,68.333954 42.596771,65.996613 
	C43.106728,65.618904 44.023060,65.789841 44.879757,66.335129 
	C43.650192,73.976524 42.292416,80.989960 40.934639,88.003403 
z"/>
<path fill="#9364CC" opacity="1.000000" stroke="none" 
	d="
M117.263901,50.351906 
	C125.418770,50.290859 129.554016,43.235016 135.661438,39.619389 
	C136.586060,39.071991 136.594666,36.977268 137.046356,35.198044 
	C141.470291,37.235531 145.935486,39.572487 150.246307,42.166016 
	C151.739395,43.064308 152.849350,44.599419 154.120514,46.165932 
	C149.116379,49.818584 144.182343,53.237747 139.116745,56.449387 
	C135.489807,58.748920 131.686615,60.770485 127.556854,62.674438 
	C123.855736,58.405846 120.559822,54.378876 117.263901,50.351906 
z"/>
<path fill="#2D026D" opacity="1.000000" stroke="none" 
	d="
M62.256344,152.118774 
	C66.671608,147.589630 71.382553,143.332474 75.994583,138.970718 
	C77.762680,137.298584 79.304985,135.387711 81.450722,133.162628 
	C87.952080,132.443115 93.952881,132.146576 99.953690,131.850052 
	C97.944206,134.427048 96.315361,137.466171 93.853508,139.493958 
	C86.614578,145.456528 79.045021,151.017715 71.290833,156.873383 
	C68.155365,155.456818 65.333969,153.902939 62.256344,152.118774 
z"/>
<path fill="#340581" opacity="1.000000" stroke="none" 
	d="
M20.005753,125.383453 
	C27.604427,120.832275 35.237354,116.621002 42.880585,112.428513 
	C44.028538,111.798828 45.224709,111.257057 47.080933,110.852997 
	C49.246651,113.321381 50.730007,115.611382 51.863441,117.966980 
	C48.679466,120.223305 45.662922,122.218575 43.056011,124.652573 
	C39.530537,127.944229 36.319607,131.572769 32.973728,135.056778 
	C28.663605,131.947678 24.353479,128.838577 20.005753,125.383453 
z"/>
<path fill="#31037B" opacity="1.000000" stroke="none" 
	d="
M33.155357,135.344147 
	C36.319607,131.572769 39.530537,127.944229 43.056011,124.652573 
	C45.662922,122.218575 48.679466,120.223305 52.193718,118.004120 
	C54.959011,119.851379 57.044102,121.727104 59.232201,123.895782 
	C59.701443,124.336578 60.067677,124.484428 60.454632,124.625305 
	C60.475349,124.618332 60.519131,124.618271 60.519127,124.618271 
	C56.660545,128.089310 52.740749,131.495590 48.969772,135.059341 
	C47.144714,136.784103 45.599022,138.804504 43.882980,141.083878 
	C40.338417,139.528320 36.837700,137.579910 33.155357,135.344147 
z"/>
<path fill="#370183" opacity="1.000000" stroke="none" 
	d="
M141.371765,118.031677 
	C140.747177,117.507034 140.476364,117.024368 140.313431,116.018242 
	C142.504120,114.292824 144.615479,113.137321 146.663071,111.878075 
	C149.792374,109.953583 152.877640,107.957466 155.987061,106.457108 
	C156.276260,111.609077 156.559982,116.295685 156.843689,120.982300 
	C156.532074,122.200874 156.220474,123.419449 155.690521,124.868744 
	C150.889969,122.757523 146.307755,120.415588 141.371765,118.031677 
z"/>
<path fill="#200082" opacity="1.000000" stroke="none" 
	d="
M156.933197,120.521912 
	C156.559982,116.295685 156.276260,111.609077 155.992050,105.989365 
	C155.988556,91.703339 155.985535,78.350403 155.982513,64.997475 
	C156.098618,60.885605 156.214706,56.773739 156.590103,52.346794 
	C156.907181,74.708313 156.964935,97.384918 156.933197,120.521912 
z"/>
<path fill="#2A0267" opacity="1.000000" stroke="none" 
	d="
M81.796623,163.380051 
	C81.988617,163.244720 82.316154,163.355560 82.811409,163.669983 
	C82.630135,163.791107 82.281151,163.708664 81.796623,163.380051 
z"/>
<path fill="#F5F4F6" opacity="1.000000" stroke="none" 
	d="
M59.129196,123.602829 
	C57.044102,121.727104 54.959011,119.851379 52.543640,117.938522 
	C50.730007,115.611382 49.246651,113.321381 47.468262,110.850731 
	C45.137127,103.391968 43.101021,96.113846 40.999779,88.419571 
	C42.292416,80.989960 43.650192,73.976524 45.060211,66.605209 
	C52.656025,52.044857 64.277916,43.225174 80.160446,40.639961 
	C85.324486,39.799404 90.726021,40.417908 96.480949,40.410255 
	C103.528770,43.669289 110.114578,46.887123 116.982140,50.228432 
	C120.559822,54.378876 123.855736,58.405846 127.240204,62.789436 
	C120.790367,66.942810 114.251968,70.739555 107.285278,74.191170 
	C103.906273,71.222023 100.955566,68.598007 97.774368,65.691574 
	C88.497269,61.221878 79.963860,62.392769 72.606239,68.839973 
	C65.323013,75.221992 62.678509,83.399986 65.710663,93.306099 
	C66.394394,94.769615 67.029266,95.893929 67.720627,97.380234 
	C71.738281,105.712891 78.641289,109.353737 87.073929,109.699974 
	C95.896042,110.062210 102.708839,105.991364 107.180252,98.254684 
	C108.555099,98.851021 109.929955,99.447350 111.827644,100.356598 
	C115.302811,102.395897 118.346298,103.986832 121.177879,105.892601 
	C123.343941,107.350441 125.242096,109.206345 127.259407,110.885193 
	C120.743568,120.861092 112.056786,128.002762 100.223129,131.618958 
	C93.952881,132.146576 87.952080,132.443115 81.491104,132.809875 
	C74.410301,130.193329 67.789680,127.506561 60.844090,124.719032 
	C60.519131,124.618271 60.475349,124.618332 60.321220,124.365067 
	C59.821129,123.942154 59.475163,123.772491 59.129196,123.602829 
z"/>
<path fill="#39038C" opacity="1.000000" stroke="none" 
	d="
M127.534843,110.795212 
	C125.242096,109.206345 123.343941,107.350441 121.177879,105.892601 
	C118.346298,103.986832 115.302811,102.395897 112.151649,100.398674 
	C112.779587,97.913078 113.606361,95.698334 114.812408,93.640190 
	C115.191673,95.253136 115.191673,96.709473 115.191673,98.165817 
	C115.592262,98.464691 115.992844,98.763565 116.393433,99.062431 
	C117.337410,97.983353 118.296211,96.916794 119.221336,95.821793 
	C120.218086,94.641998 121.183296,93.435562 122.162262,92.240753 
	C122.501396,93.639771 122.861633,95.034157 123.169884,96.439941 
	C123.304390,97.053337 123.332344,97.690086 123.552048,99.492096 
	C125.245659,98.282768 126.657333,97.725060 127.310669,96.689095 
	C128.051727,95.514038 127.828804,93.738182 128.552551,92.543022 
	C129.251053,91.389542 130.621597,90.643021 131.696899,89.717728 
	C131.168549,89.166924 130.702148,88.534203 130.101074,88.079544 
	C127.531715,86.136070 128.161179,84.780502 130.545853,83.092949 
	C131.618698,82.333725 131.940445,80.513153 132.603012,79.174164 
	C135.643005,77.707687 138.869034,76.528847 141.681046,74.709908 
	C146.345413,71.692764 150.743515,68.263985 155.618164,65.003044 
	C155.985535,78.350403 155.988556,91.703339 155.986572,105.524002 
	C152.877640,107.957466 149.792374,109.953583 146.663071,111.878075 
	C144.615479,113.137321 142.504120,114.292824 140.201569,115.764458 
	C135.924652,114.257835 131.867462,112.481537 127.534843,110.795212 
z"/>
<path fill="#32067C" opacity="1.000000" stroke="none" 
	d="
M106.973885,97.958626 
	C102.708839,105.991364 95.896042,110.062210 87.073929,109.699974 
	C78.641289,109.353737 71.738281,105.712891 68.110001,97.428375 
	C75.293755,93.443535 82.144623,89.772545 88.995483,86.101547 
	C93.365143,89.028641 97.721657,91.975647 102.111679,94.871880 
	C103.620583,95.867348 105.213158,96.735985 106.973885,97.958626 
z"/>
<path fill="#DFDBE9" opacity="1.000000" stroke="none" 
	d="
M132.182983,79.149918 
	C131.940445,80.513153 131.618698,82.333725 130.545853,83.092949 
	C128.161179,84.780502 127.531715,86.136070 130.101074,88.079544 
	C130.702148,88.534203 131.168549,89.166924 131.696899,89.717728 
	C130.621597,90.643021 129.251053,91.389542 128.552551,92.543022 
	C127.828804,93.738182 128.051727,95.514038 127.310669,96.689095 
	C126.657333,97.725060 125.245659,98.282768 123.552048,99.492096 
	C123.332344,97.690086 123.304390,97.053337 123.169884,96.439941 
	C122.861633,95.034157 122.501396,93.639771 122.162262,92.240753 
	C121.183296,93.435562 120.218086,94.641998 119.221336,95.821793 
	C118.296211,96.916794 117.337410,97.983353 116.393433,99.062431 
	C115.992844,98.763565 115.592262,98.464691 115.191673,98.165817 
	C115.191673,96.709473 115.191673,95.253136 115.067543,93.397186 
	C113.299561,91.365845 108.983055,89.895050 114.801468,87.840317 
	C115.372833,87.638542 115.218338,84.781792 115.000168,83.213081 
	C114.900650,82.497559 113.654472,82.004929 113.264542,81.239868 
	C113.067322,80.852905 113.466202,79.949371 113.856171,79.511482 
	C115.916145,77.198349 118.059067,74.959091 120.173210,72.694206 
	C120.523003,72.933342 120.872787,73.172478 121.222572,73.411606 
	C121.222572,75.142113 121.222572,76.872612 121.222572,78.603119 
	C121.658722,78.905029 122.094872,79.206947 122.531013,79.508865 
	C124.411308,77.220200 126.291595,74.931534 127.970406,72.888100 
	C129.610672,75.585823 130.686813,77.355743 132.182983,79.149918 
z"/>
<path fill="#9162CA" opacity="1.000000" stroke="none" 
	d="
M89.197617,85.824066 
	C82.144623,89.772545 75.293755,93.443535 68.053513,97.066383 
	C67.029266,95.893929 66.394394,94.769615 66.127243,93.315872 
	C67.873253,92.599503 69.527130,92.574348 70.585815,91.767860 
	C78.412987,85.805359 86.160263,79.735542 93.844521,73.589279 
	C96.222878,71.686943 99.001419,69.807846 98.004860,65.973991 
	C100.955566,68.598007 103.906273,71.222023 106.900269,74.217422 
	C101.095627,78.241394 95.247688,81.893990 89.197617,85.824066 
z"/>
<path fill="#2F0373" opacity="1.000000" stroke="none" 
	d="
M59.232201,123.895782 
	C59.475163,123.772491 59.821129,123.942154 60.300507,124.372040 
	C60.067677,124.484428 59.701443,124.336578 59.232201,123.895782 
z"/>
<path fill="#986BD0" opacity="1.000000" stroke="none" 
	d="
M97.774368,65.691574 
	C99.001419,69.807846 96.222878,71.686943 93.844521,73.589279 
	C86.160263,79.735542 78.412987,85.805359 70.585815,91.767860 
	C69.527130,92.574348 67.873253,92.599503 66.078384,92.976669 
	C62.678509,83.399986 65.323013,75.221992 72.606239,68.839973 
	C79.963860,62.392769 88.497269,61.221878 97.774368,65.691574 
z"/>
</svg>