<svg version="1.1" id="Layer_1" xmlns="http://www.w3.org/2000/svg" xmlns:xlink="http://www.w3.org/1999/xlink" x="0px" y="0px"
	 width="100%" viewBox="0 0 331 152" enable-background="new 0 0 331 152" xml:space="preserve">
<path fill="#FEFEFE" opacity="1.000000" stroke="none" 
	d="
M257.000000,153.000000 
	C171.333359,153.000000 86.166710,153.000000 1.000046,153.000000 
	C1.000031,102.333366 1.000031,51.666733 1.000015,1.000073 
	C111.333275,1.000049 221.666550,1.000049 331.999878,1.000024 
	C331.999908,51.666595 331.999908,102.333191 331.999939,152.999893 
	C307.166656,153.000000 282.333344,153.000000 257.000000,153.000000 
M162.405304,42.094212 
	C162.405304,42.094212 162.820328,42.171570 162.535721,42.786335 
	C161.179871,45.773556 159.824036,48.760777 158.353104,52.001545 
	C149.203094,49.466179 140.100723,48.499573 130.866989,50.635292 
	C117.604164,53.702915 107.655571,61.463249 98.984009,72.277710 
	C92.499435,72.267242 86.014870,72.248947 79.530296,72.247757 
	C58.745983,72.243927 37.961548,72.204521 17.177410,72.264641 
	C7.197578,72.293510 0.670039,79.092873 2.125136,87.723701 
	C3.268438,94.505119 8.936021,98.803284 17.096369,98.822495 
	C42.037273,98.881180 66.978355,98.864159 91.983208,99.782173 
	C93.963806,108.419128 95.944405,117.056076 96.991219,125.733498 
	C76.000526,125.748665 55.008945,125.658775 34.019596,125.834488 
	C26.401014,125.898254 20.930754,131.664688 21.026184,138.782181 
	C21.123310,146.026474 26.612635,151.854858 34.029503,151.868362 
	C67.345634,151.929001 100.662086,151.815002 134.908188,151.905746 
	C145.954239,151.876266 157.000305,151.846786 168.971909,151.925507 
	C213.417465,151.920029 257.863373,152.017990 302.308411,151.865265 
	C324.365356,151.789474 338.158234,128.370087 327.182861,109.561203 
	C322.298157,101.190140 315.461456,95.138412 304.606598,96.655403 
	C299.729950,97.336922 299.391022,94.569260 300.285706,90.886429 
	C302.892151,80.157196 302.775940,69.357613 299.919586,58.789467 
	C292.765442,32.320412 276.508789,14.186489 249.530075,5.243407 
	C240.033569,2.426016 230.419540,1.487545 220.508957,2.578138 
	C207.447464,4.015467 195.930573,9.200587 184.082489,15.996337 
	C142.137863,15.986126 100.193230,15.975622 58.248596,15.967818 
	C57.416683,15.967664 56.581001,15.953961 55.753441,16.022947 
	C48.731018,16.608330 43.166359,22.546322 43.343540,29.244774 
	C43.524757,36.096046 49.095097,41.996387 56.167805,42.011459 
	C91.450851,42.086662 126.734291,41.973824 162.405304,42.094212 
z"/>
<path fill="#3999C6" opacity="1.000000" stroke="none" 
	d="
M250.052200,5.756668 
	C276.508789,14.186489 292.765442,32.320412 299.919586,58.789467 
	C302.775940,69.357613 302.892151,80.157196 300.285706,90.886429 
	C299.391022,94.569260 299.729950,97.336922 304.606598,96.655403 
	C315.461456,95.138412 322.298157,101.190140 327.182861,109.561203 
	C338.158234,128.370087 324.365356,151.789474 302.308411,151.865265 
	C257.863373,152.017990 213.417465,151.920029 168.452728,151.539764 
	C167.364243,150.351730 166.895477,149.449280 166.210770,148.761963 
	C152.525177,135.024460 150.137512,110.499092 157.985947,94.096031 
	C167.270645,74.691231 182.714706,64.750900 204.383102,65.042259 
	C207.763840,65.087723 209.576813,64.281319 210.035110,60.559750 
	C211.926315,45.202961 218.499603,31.877516 229.542252,21.235842 
	C235.665039,15.335366 243.170151,10.869283 250.052200,5.756668 
z"/>
<path fill="#62AED1" opacity="1.000000" stroke="none" 
	d="
M249.791138,5.500036 
	C243.170151,10.869283 235.665039,15.335366 229.542252,21.235842 
	C218.499603,31.877516 211.926315,45.202961 210.035110,60.559750 
	C209.576813,64.281319 207.763840,65.087723 204.383102,65.042259 
	C182.714706,64.750900 167.270645,74.691231 157.985947,94.096031 
	C150.137512,110.499092 152.525177,135.024460 166.210770,148.761963 
	C166.895477,149.449280 167.364243,150.351730 167.989960,151.485657 
	C157.000305,151.846786 145.954239,151.876266 134.155609,151.619476 
	C117.789177,148.027695 106.251884,139.081467 97.925003,125.693031 
	C95.944405,117.056076 93.963806,108.419128 91.973907,98.909637 
	C92.459129,88.815086 95.635788,80.422592 99.903526,72.367538 
	C107.655571,61.463249 117.604164,53.702915 130.866989,50.635292 
	C140.100723,48.499573 149.203094,49.466179 158.353104,52.001545 
	C159.824036,48.760777 161.179871,45.773556 162.759979,42.193588 
	C163.018524,41.405807 163.052780,41.210777 163.352386,40.810417 
	C168.812912,30.748583 176.744385,23.283869 185.020004,16.119967 
	C195.930573,9.200587 207.447464,4.015467 220.508957,2.578138 
	C230.419540,1.487545 240.033569,2.426016 249.791138,5.500036 
z"/>
<path fill="#7A7A7A" opacity="1.000000" stroke="none" 
	d="
M184.551239,16.058151 
	C176.744385,23.283869 168.812912,30.748583 163.122803,40.895981 
	C162.332840,41.358120 162.129410,41.604877 162.017593,41.927147 
	C126.734291,41.973824 91.450851,42.086662 56.167805,42.011459 
	C49.095097,41.996387 43.524757,36.096046 43.343540,29.244774 
	C43.166359,22.546322 48.731018,16.608330 55.753441,16.022947 
	C56.581001,15.953961 57.416683,15.967664 58.248596,15.967818 
	C100.193230,15.975622 142.137863,15.986126 184.551239,16.058151 
z"/>
<path fill="#7B7B7B" opacity="1.000000" stroke="none" 
	d="
M99.443771,72.322624 
	C95.635788,80.422592 92.459129,88.815086 91.941986,98.456848 
	C66.978355,98.864159 42.037273,98.881180 17.096369,98.822495 
	C8.936021,98.803284 3.268438,94.505119 2.125136,87.723701 
	C0.670039,79.092873 7.197578,72.293510 17.177410,72.264641 
	C37.961548,72.204521 58.745983,72.243927 79.530296,72.247757 
	C86.014870,72.248947 92.499435,72.267242 99.443771,72.322624 
z"/>
<path fill="#7B7B7B" opacity="1.000000" stroke="none" 
	d="
M97.458115,125.713264 
	C106.251884,139.081467 117.789177,148.027695 133.690735,151.548599 
	C100.662086,151.815002 67.345634,151.929001 34.029503,151.868362 
	C26.612635,151.854858 21.123310,146.026474 21.026184,138.782181 
	C20.930754,131.664688 26.401014,125.898254 34.019596,125.834488 
	C55.008945,125.658775 76.000526,125.748665 97.458115,125.713264 
z"/>
<path fill="#6F6F6F" opacity="1.000000" stroke="none" 
	d="
M162.211456,42.010681 
	C162.129410,41.604877 162.332840,41.358120 162.857452,41.101315 
	C163.052780,41.210777 163.018524,41.405807 162.902283,41.886208 
	C162.820328,42.171570 162.405304,42.094212 162.211456,42.010681 
z"/>
</svg>