<svg version="1.1" id="Layer_1" xmlns="http://www.w3.org/2000/svg" xmlns:xlink="http://www.w3.org/1999/xlink" x="0px" y="0px"
	 width="100%" viewBox="0 0 318 159" enable-background="new 0 0 318 159" xml:space="preserve">
<path fill="#FDFEFE" opacity="1.000000" stroke="none" 
	d="
M226.000000,160.000000 
	C150.666672,160.000000 75.833351,160.000000 1.000020,160.000000 
	C1.000013,107.000015 1.000013,54.000031 1.000007,1.000034 
	C106.999969,1.000023 212.999939,1.000023 318.999939,1.000011 
	C318.999939,53.999966 318.999939,106.999931 318.999969,159.999939 
	C288.166656,160.000000 257.333344,160.000000 226.000000,160.000000 
M248.518372,33.661491 
	C254.942261,35.845245 260.936493,36.547905 267.208954,32.246662 
	C273.263794,28.094656 272.908234,28.722649 271.836243,21.224787 
	C270.515320,11.985667 265.591522,8.105914 256.793640,6.768981 
	C245.901550,5.113812 235.508087,5.206546 224.474762,7.416870 
	C209.715942,10.373517 198.077057,17.377678 186.498596,27.841419 
	C191.481232,27.841419 195.240494,27.841419 199.900986,27.983971 
	C202.181274,27.983971 204.461563,27.983971 207.077820,27.983971 
	C207.077820,34.215706 207.077820,39.922256 207.077820,46.509605 
	C219.014557,35.250248 232.679352,31.654329 248.518372,33.661491 
M61.041451,123.295853 
	C60.949432,123.605591 60.857414,123.915337 60.820820,124.983055 
	C62.538708,130.145767 64.256599,135.308472 66.091141,140.821762 
	C60.263908,142.952423 54.648319,145.005707 48.778133,147.152069 
	C49.503513,147.911819 49.686329,148.238297 49.962719,148.373581 
	C76.454308,161.339478 113.444748,154.067917 132.927017,132.046097 
	C141.958939,121.836868 150.938919,111.581703 160.481674,101.852730 
	C163.156174,104.856178 165.830673,107.859627 169.165085,111.604172 
	C169.500381,107.424660 169.865494,104.316399 169.978088,101.199013 
	C170.311935,91.955978 169.150528,93.258598 178.453659,93.070763 
	C181.820770,93.002785 185.190430,93.059845 190.004639,93.059845 
	C185.456726,87.829300 182.014725,83.870682 178.856812,79.270561 
	C184.884857,72.190773 190.297226,64.440086 197.096420,58.200630 
	C205.639099,50.361210 202.302505,41.036533 203.188065,31.389528 
	C197.916306,31.389528 193.419693,31.663139 188.973938,31.305151 
	C185.247345,31.005072 182.830414,32.310921 180.469040,35.113106 
	C173.842941,42.976124 166.924362,50.592670 159.550980,57.877670 
	C153.318054,50.728283 146.895706,43.732597 140.922729,36.372272 
	C137.298950,31.906807 133.881195,28.362680 127.695526,31.789358 
	C127.108284,32.114677 126.104538,31.660679 125.291550,31.610777 
	C122.087425,31.414099 118.882271,31.234314 115.978333,31.065725 
	C115.978333,35.983734 116.145752,40.120403 115.930931,44.237129 
	C115.718872,48.301128 116.967094,51.429314 119.748116,54.534584 
	C127.178154,62.830917 134.209274,71.484512 141.062210,80.613716 
	C132.241333,90.817024 123.830154,101.419655 114.433113,111.061432 
	C109.458694,116.165405 103.173882,120.441406 96.731918,123.529053 
	C91.210907,126.175285 84.625702,127.678703 78.507950,127.688484 
	C72.801720,127.697594 67.091286,125.073616 61.041451,123.295853 
M11.398882,49.021748 
	C-4.534947,85.027557 9.685771,124.340340 39.758591,143.029434 
	C41.123425,143.877625 43.171700,144.544479 44.615860,144.175919 
	C49.107002,143.029755 53.508114,141.466766 57.835808,139.786407 
	C59.008240,139.331192 60.816811,137.440506 60.608494,136.966095 
	C57.687935,130.314758 57.762352,122.347130 51.116661,117.310478 
	C28.657728,100.289268 26.241039,67.755966 45.707504,47.398552 
	C46.563717,46.503155 47.299202,45.492313 47.769505,44.923794 
	C41.510162,44.181198 35.354687,43.450924 29.469402,42.752705 
	C28.227106,36.881660 31.845732,31.299009 28.417374,25.439754 
	C21.063295,32.365944 15.734792,39.856907 11.398882,49.021748 
M285.271698,66.376411 
	C287.841522,74.178619 287.680115,82.071541 286.178619,90.041733 
	C285.823029,91.929283 285.264130,94.117203 285.864319,95.783081 
	C287.712067,100.911728 290.075867,105.854469 292.227783,110.843208 
	C303.574738,106.798676 315.723267,104.027771 314.658966,88.252632 
	C314.541687,86.514679 314.420410,84.756470 314.547150,83.025681 
	C316.228394,60.061337 307.782410,41.054104 291.529358,25.354620 
	C286.854095,20.838591 281.206573,17.329109 276.004791,13.358144 
	C275.496887,13.736455 274.988983,14.114765 274.481079,14.493075 
	C275.507050,18.934374 276.734039,23.344423 277.432526,27.836649 
	C277.633514,29.129475 276.703949,31.268200 275.616058,31.969568 
	C271.891205,34.371059 267.865631,36.306149 263.452606,38.690403 
	C273.793976,45.476860 281.524017,53.902733 285.271698,66.376411 
M90.265846,34.008430 
	C97.387016,37.057224 104.508179,40.106018 112.082031,43.348621 
	C112.082031,37.993340 112.082031,33.234921 112.082031,28.480759 
	C118.129265,26.904724 124.776207,29.618607 131.513260,24.412415 
	C123.341606,19.560722 116.553932,14.459748 108.963623,11.266760 
	C96.534019,6.038042 83.778862,3.996063 69.762177,6.307274 
	C57.631298,8.307535 46.840771,11.968777 36.864609,18.687696 
	C35.640331,19.512243 34.349876,21.138041 34.206352,22.509354 
	C33.637409,27.945406 33.512070,33.427887 33.193665,39.433636 
	C38.151157,39.760548 42.930492,40.369709 47.697632,40.285786 
	C50.829044,40.230663 54.260170,39.815254 57.008076,38.453419 
	C67.376556,33.314892 78.060707,31.459808 90.265846,34.008430 
M305.403412,116.876694 
	C306.738342,114.160004 308.073273,111.443306 309.913849,107.697624 
	C302.714630,110.838295 296.823761,113.408203 290.631592,116.109543 
	C288.220184,110.634727 285.914459,105.399872 283.590454,100.123596 
	C283.180573,100.420570 282.811890,100.553001 282.668640,100.810730 
	C272.940002,118.314064 258.502014,127.770256 238.046539,127.029564 
	C237.276337,127.001686 236.346100,127.202072 235.735016,127.638519 
	C231.030579,130.998474 226.386658,134.443115 222.003448,137.656586 
	C222.003448,138.371353 221.938568,138.574768 222.012817,138.680145 
	C224.884460,142.756256 227.959076,146.705093 230.587524,150.931549 
	C232.474274,153.965317 234.772385,155.148102 238.331818,155.089859 
	C267.387848,154.614365 289.783112,142.419464 305.403412,116.876694 
M193.623337,97.408272 
	C188.184113,97.335304 182.741364,97.116272 177.307022,97.246658 
	C174.269241,97.319550 173.523010,99.569557 173.211685,102.325714 
	C172.251617,110.824959 172.312439,118.871574 180.141327,124.652328 
	C181.439987,125.611259 182.292191,127.169678 183.367966,128.436432 
	C194.832047,141.935745 209.679977,149.603363 227.773300,152.900177 
	C224.201935,147.761627 220.630585,142.623077 216.956787,137.337143 
	C221.831161,133.711472 226.438675,130.284271 231.284897,126.679512 
	C227.303589,125.110550 223.877426,123.901016 220.567230,122.430420 
	C208.998840,117.291000 201.746368,107.442787 193.623337,97.408272 
M253.723541,83.946083 
	C253.745438,80.352837 255.070724,75.886543 253.416077,73.416306 
	C251.818832,71.031731 247.147980,70.705963 243.167175,69.231194 
	C243.167175,75.888000 243.167175,80.946381 243.167175,87.240837 
	C246.781906,86.249947 249.961884,85.378235 253.723541,83.946083 
M236.545822,83.335785 
	C234.917206,83.145813 232.020142,83.273766 231.879059,82.710960 
	C231.261200,80.245743 230.531647,77.158005 231.502579,75.066765 
	C234.443283,68.732872 237.285797,77.582077 240.537247,75.581734 
	C239.825760,71.115105 236.811417,69.839371 232.973602,70.316368 
	C229.135971,70.793320 227.383514,74.281807 227.636429,79.602478 
	C227.839050,83.865410 229.686661,86.718140 234.122208,86.816078 
	C237.437531,86.889267 240.085144,85.488464 240.561935,80.229782 
	C238.753540,81.460991 237.849609,82.076408 236.545822,83.335785 
M75.653038,70.133041 
	C69.615700,72.060066 66.828888,79.581566 70.908691,84.203941 
	C72.322098,85.805321 75.572845,86.593712 77.844719,86.365158 
	C79.569260,86.191673 81.072586,83.819221 83.405838,81.788628 
	C79.055138,82.279182 76.299225,82.589920 73.543312,82.900658 
	C73.463150,80.152344 72.380455,76.875870 73.496368,74.757675 
	C76.488770,69.077606 78.903633,77.609558 82.231689,75.611702 
	C82.055756,71.892960 79.632141,70.617264 75.653038,70.133041 
M84.963921,84.962257 
	C85.578598,85.514587 86.193268,86.066925 86.807953,86.619263 
	C87.253242,85.885506 88.059433,85.163376 88.083496,84.416061 
	C88.211327,80.444908 88.213036,76.465065 88.078575,72.494324 
	C88.054146,71.772690 87.195061,71.079315 86.721283,70.372894 
	C86.133545,71.123520 85.074142,71.852165 85.037956,72.628502 
	C84.860756,76.429947 84.956085,80.244102 84.963921,84.962257 
z"/>
<path fill="#90BF3D" opacity="1.000000" stroke="none" 
	d="
M159.942459,101.347366 
	C150.938919,111.581703 141.958939,121.836868 132.927017,132.046097 
	C113.444748,154.067917 76.454308,161.339478 49.962719,148.373581 
	C49.686329,148.238297 49.503513,147.911819 48.778133,147.152069 
	C54.648319,145.005707 60.263908,142.952423 66.091141,140.821762 
	C64.256599,135.308472 62.538708,130.145767 60.948555,124.451080 
	C61.076286,123.919106 61.382702,123.608673 61.382702,123.608673 
	C67.091286,125.073616 72.801720,127.697594 78.507950,127.688484 
	C84.625702,127.678703 91.210907,126.175285 96.731918,123.529053 
	C103.173882,120.441406 109.458694,116.165405 114.433113,111.061432 
	C123.830154,101.419655 132.241333,90.817024 141.482208,80.118866 
	C147.975189,72.518158 154.048172,65.412300 160.121155,58.306435 
	C166.924362,50.592670 173.842941,42.976124 180.469040,35.113106 
	C182.830414,32.310921 185.247345,31.005072 188.973938,31.305151 
	C193.419693,31.663139 197.916306,31.389528 203.188065,31.389528 
	C202.302505,41.036533 205.639099,50.361210 197.096420,58.200630 
	C190.297226,64.440086 184.884857,72.190773 178.486603,79.809097 
	C172.058426,87.347549 166.000443,94.347466 159.942459,101.347366 
M188.988861,54.589790 
	C189.844177,54.260838 190.699493,53.931885 191.986115,52.972565 
	C190.478119,50.356277 188.970139,47.739990 187.462143,45.123703 
	C186.857803,45.203644 186.253448,45.283585 185.649109,45.363525 
	C184.810135,47.125267 183.971146,48.887009 183.100189,51.538654 
	C183.116623,51.835030 183.133041,52.131401 183.428009,52.907337 
	C184.969650,53.054237 186.511292,53.201138 188.249222,53.624741 
	C188.411438,53.793213 188.607117,53.900921 188.988861,54.589790 
M134.948395,102.771416 
	C134.545441,103.176437 134.142471,103.581451 132.955917,103.994423 
	C131.593445,104.941711 129.385162,105.650841 129.037933,106.883987 
	C128.219818,109.789490 128.289108,112.944855 127.476997,115.561172 
	C127.018555,114.445961 126.560120,113.330750 125.881592,111.680161 
	C124.357079,113.848381 123.564262,116.063850 122.008820,116.969482 
	C118.386353,119.078606 118.272827,120.949074 121.635811,123.123428 
	C120.816399,124.042801 120.216698,124.715660 119.617004,125.388512 
	C121.698463,125.584229 123.682625,125.225426 124.605278,124.040237 
	C125.677483,122.662926 125.711792,120.517784 126.409523,118.791985 
	C126.763382,117.916718 127.593910,117.237045 128.180511,116.447823 
	C128.230545,116.380516 128.065659,116.153458 128.780594,115.996506 
	C129.880066,115.996506 130.979553,115.996506 131.998108,115.996506 
	C132.133728,113.462975 132.246567,111.354790 132.378387,108.892166 
	C134.757065,109.545052 136.383499,109.991470 138.889435,110.679283 
	C138.577850,108.645714 138.376617,107.332268 138.289536,105.559898 
	C138.388077,105.194679 138.626877,105.013535 139.691788,104.632011 
	C145.176041,104.876732 138.925980,101.434593 140.695663,100.004929 
	C138.935364,100.823929 137.175049,101.642929 134.948395,102.771416 
M165.355255,69.991852 
	C165.160202,71.096069 164.503143,72.959549 164.851135,73.171295 
	C166.257080,74.026802 167.972778,74.373253 169.574127,74.907631 
	C169.651398,74.538078 169.728653,74.168533 169.805923,73.798988 
	C168.835007,72.928604 167.864090,72.058220 167.191467,70.528053 
	C167.371521,69.537331 167.551559,68.546600 167.731613,67.555878 
	C167.397720,67.479225 167.063828,67.402580 166.729950,67.325935 
	C166.463196,68.294884 166.196442,69.263832 165.355255,69.991852 
M153.034119,91.443321 
	C153.193115,91.398232 153.380569,91.390419 153.502777,91.297150 
	C153.615570,91.211052 153.658401,91.033264 153.732040,90.895859 
	C152.068954,90.539375 150.405884,90.182899 147.776886,89.619377 
	C149.180603,92.653236 149.850571,94.101234 151.027069,96.643951 
	C151.390137,94.378067 151.560059,93.317589 152.108841,91.882172 
	C152.226547,91.749092 152.344254,91.616005 153.034119,91.443321 
M178.384171,55.040215 
	C177.479797,55.143318 176.510849,55.090164 175.702011,55.424442 
	C175.366272,55.563190 175.372635,56.529751 175.017303,57.743946 
	C175.275055,61.686279 178.975861,59.988510 181.477585,61.040031 
	C180.660110,59.026554 179.842621,57.013081 178.384171,55.040215 
M116.775673,126.874985 
	C116.410454,126.296806 116.045235,125.718628 115.680016,125.140450 
	C115.283157,125.509811 114.886307,125.879181 114.489456,126.248543 
	C115.045242,126.486259 115.601021,126.723976 116.775673,126.874985 
M146.328934,91.571136 
	C145.612167,91.792236 144.895386,92.013336 144.178604,92.234444 
	C144.334167,92.654808 144.489731,93.075172 144.645309,93.495529 
	C145.192047,93.057007 145.738800,92.618484 146.328934,91.571136 
M157.226547,78.395813 
	C156.865433,78.822609 156.485352,79.236572 156.173813,79.696915 
	C156.144119,79.740776 156.542648,80.074440 156.742371,80.273567 
	C157.041031,79.770866 157.339691,79.268166 157.226547,78.395813 
M159.704697,75.570938 
	C159.990982,75.297958 160.277267,75.024971 160.563553,74.751984 
	C160.450165,74.633736 160.244705,74.406265 160.236710,74.413010 
	C159.934738,74.667603 159.650925,74.943733 159.704697,75.570938 
z"/>
<path fill="#5B2E84" opacity="1.000000" stroke="none" 
	d="
M11.580322,48.687500 
	C15.734792,39.856907 21.063295,32.365944 28.417374,25.439754 
	C31.845732,31.299009 28.227106,36.881660 29.469402,42.752705 
	C35.354687,43.450924 41.510162,44.181198 47.769505,44.923794 
	C47.299202,45.492313 46.563717,46.503155 45.707504,47.398552 
	C26.241039,67.755966 28.657728,100.289268 51.116661,117.310478 
	C57.762352,122.347130 57.687935,130.314758 60.608494,136.966095 
	C60.816811,137.440506 59.008240,139.331192 57.835808,139.786407 
	C53.508114,141.466766 49.107002,143.029755 44.615860,144.175919 
	C43.171700,144.544479 41.123425,143.877625 39.758591,143.029434 
	C9.685771,124.340340 -4.534947,85.027557 11.580322,48.687500 
M22.891979,80.012360 
	C22.845152,79.673828 22.798325,79.335289 22.813782,78.233833 
	C20.111769,77.513489 17.409758,76.793144 13.741067,75.815086 
	C15.489652,78.552620 16.271708,79.776978 17.079948,81.352539 
	C17.079948,81.352539 17.082994,81.704697 17.219009,82.244102 
	C17.481352,82.492287 17.743692,82.740479 18.024166,83.709381 
	C18.031330,84.430283 18.038494,85.151176 17.496073,86.413414 
	C18.265621,87.363159 19.035172,88.312904 19.272671,89.688950 
	C18.848602,90.455894 18.424534,91.222847 17.997614,92.866852 
	C17.998358,94.914513 17.999102,96.962181 17.935616,99.678177 
	C17.473068,100.808716 17.010519,101.939255 16.547972,103.069794 
	C16.786795,103.490631 17.025618,103.911469 17.264441,104.332306 
	C20.069008,103.411156 23.089312,102.869659 25.604992,101.440132 
	C27.387775,100.427078 28.229902,98.239632 24.799351,96.337906 
	C23.515404,96.149651 22.231457,95.961388 21.044493,95.124298 
	C21.358860,93.867439 21.673229,92.610580 22.603371,91.301277 
	C22.730972,90.497131 22.858574,89.692978 22.743235,88.299164 
	C22.476913,86.135353 22.210594,83.971535 22.082994,81.322098 
	C22.264029,81.038391 22.445063,80.754692 22.891979,80.012360 
z"/>
<path fill="#224A8D" opacity="1.000000" stroke="none" 
	d="
M285.159363,65.988129 
	C281.524017,53.902733 273.793976,45.476860 263.452606,38.690403 
	C267.865631,36.306149 271.891205,34.371059 275.616058,31.969568 
	C276.703949,31.268200 277.633514,29.129475 277.432526,27.836649 
	C276.734039,23.344423 275.507050,18.934374 274.481079,14.493075 
	C274.988983,14.114765 275.496887,13.736455 276.004791,13.358144 
	C281.206573,17.329109 286.854095,20.838591 291.529358,25.354620 
	C307.782410,41.054104 316.228394,60.061337 314.547150,83.025681 
	C314.420410,84.756470 314.541687,86.514679 314.658966,88.252632 
	C315.723267,104.027771 303.574738,106.798676 292.227783,110.843208 
	C290.075867,105.854469 287.712067,100.911728 285.864319,95.783081 
	C285.264130,94.117203 285.823029,91.929283 286.178619,90.041733 
	C287.680115,82.071541 287.841522,74.178619 285.159363,65.988129 
M295.885559,48.512062 
	C295.141785,48.565796 294.397980,48.619526 292.988892,48.868946 
	C292.000458,49.274078 291.012054,49.679207 289.382019,50.347313 
	C291.022491,51.478550 292.143585,52.251637 293.265656,53.486618 
	C293.265656,53.486618 293.394226,53.930298 292.824280,54.234173 
	C292.934235,55.426144 293.044220,56.618114 293.041992,58.528572 
	C290.803223,62.294785 294.933044,62.233955 296.993774,64.033325 
	C297.954712,63.439438 298.915649,62.845551 300.189880,61.701199 
	C300.924652,61.231300 301.659424,60.761406 302.377228,60.302376 
	C301.386627,58.584217 300.574158,57.175003 299.756073,55.067356 
	C298.995422,54.678616 298.234802,54.289879 297.898346,53.277748 
	C296.931091,52.875782 295.963867,52.473820 294.962433,51.477707 
	C294.941956,51.280384 294.921509,51.083057 295.110626,50.399227 
	C295.371002,49.972466 295.631348,49.545700 295.885559,48.512062 
M301.613525,69.122856 
	C302.246857,69.996414 302.880219,70.869965 303.513580,71.743515 
	C303.906403,71.283249 304.299255,70.822975 304.692078,70.362701 
	C303.160492,69.562149 301.628876,68.761604 300.097260,67.961060 
	C300.393951,68.314774 300.690643,68.668488 301.613525,69.122856 
z"/>
<path fill="#5B2E84" opacity="1.000000" stroke="none" 
	d="
M89.844833,33.948364 
	C78.060707,31.459808 67.376556,33.314892 57.008076,38.453419 
	C54.260170,39.815254 50.829044,40.230663 47.697632,40.285786 
	C42.930492,40.369709 38.151157,39.760548 33.193665,39.433636 
	C33.512070,33.427887 33.637409,27.945406 34.206352,22.509354 
	C34.349876,21.138041 35.640331,19.512243 36.864609,18.687696 
	C46.840771,11.968777 57.631298,8.307535 69.762177,6.307274 
	C83.778862,3.996063 96.534019,6.038042 108.963623,11.266760 
	C116.553932,14.459748 123.341606,19.560722 131.513260,24.412415 
	C124.776207,29.618607 118.129265,26.904724 112.082031,28.480759 
	C112.082031,33.234921 112.082031,37.993340 112.082031,43.348621 
	C104.508179,40.106018 97.387016,37.057224 89.844833,33.948364 
M67.688072,24.975164 
	C67.879272,24.957859 68.070465,24.940556 68.827782,25.023783 
	C70.128036,24.664062 71.428299,24.304342 72.999924,23.555630 
	C72.999924,23.555630 73.061310,23.085320 73.714745,22.914234 
	C75.149094,23.314171 76.583435,23.714106 78.736855,24.135592 
	C79.229462,23.754850 79.722061,23.374107 80.668793,22.976368 
	C80.668793,22.976368 81.122818,22.957256 81.658119,23.306929 
	C82.754219,23.867281 83.850319,24.427633 84.946426,24.987986 
	C85.052139,24.745224 85.157852,24.502462 85.263565,24.259701 
	C84.606903,23.643398 83.950233,23.027096 83.543312,22.645187 
	C84.767067,21.964231 85.877068,21.346571 86.987068,20.728909 
	C86.341446,20.166878 85.695824,19.604847 84.406189,18.996946 
	C83.976730,18.970999 83.547272,18.945051 82.536598,18.702156 
	C82.333443,18.740789 82.130287,18.779421 81.454285,18.298784 
	C81.009651,18.169519 80.565010,18.040255 80.016983,17.513063 
	C80.020538,17.105913 80.024094,16.698763 79.960434,15.632521 
	C79.557106,15.244697 79.153786,14.856873 78.750465,14.469047 
	C78.516579,15.026962 78.282700,15.584878 78.019791,16.818129 
	C77.365341,17.256779 76.710892,17.695429 75.567734,18.177034 
	C75.205742,18.506199 74.843758,18.835361 73.750206,19.068743 
	C73.505898,19.047657 73.261589,19.026573 72.543213,18.467295 
	C71.362564,18.312210 70.181915,18.157127 68.514206,18.324799 
	C68.323914,18.865467 68.133629,19.406137 67.201622,19.965570 
	C65.801468,19.669256 64.401306,19.372944 63.030373,19.082815 
	C62.359619,20.832983 61.597702,22.370676 61.186874,23.997057 
	C60.548618,26.523775 61.800495,27.393274 65.390488,26.576380 
	C65.599754,26.354908 65.825600,26.151873 66.017220,26.014107 
	C66.017220,26.014107 65.965981,26.060450 66.399620,25.757368 
	C66.637131,25.498339 66.874641,25.239307 67.688072,24.975164 
z"/>
<path fill="#20498C" opacity="1.000000" stroke="none" 
	d="
M305.237793,117.206284 
	C289.783112,142.419464 267.387848,154.614365 238.331818,155.089859 
	C234.772385,155.148102 232.474274,153.965317 230.587524,150.931549 
	C227.959076,146.705093 224.884460,142.756256 222.012817,138.680145 
	C221.938568,138.574768 222.003448,138.371353 222.003448,137.656586 
	C226.386658,134.443115 231.030579,130.998474 235.735016,127.638519 
	C236.346100,127.202072 237.276337,127.001686 238.046539,127.029564 
	C258.502014,127.770256 272.940002,118.314064 282.668640,100.810730 
	C282.811890,100.553001 283.180573,100.420570 283.590454,100.123596 
	C285.914459,105.399872 288.220184,110.634727 290.631592,116.109543 
	C296.823761,113.408203 302.714630,110.838295 309.913849,107.697624 
	C308.073273,111.443306 306.738342,114.160004 305.237793,117.206284 
M268.972473,137.218262 
	C268.979675,136.817703 268.986847,136.417130 269.319489,135.520660 
	C269.872253,135.348831 270.424988,135.177002 271.735107,135.120468 
	C272.494049,135.093811 273.252991,135.067169 274.326172,135.384598 
	C274.867645,134.916077 275.409119,134.447556 276.649017,133.884735 
	C279.393616,131.836975 282.138245,129.789200 284.926270,127.159561 
	C284.954315,126.772018 284.982330,126.384468 285.562622,125.656265 
	C285.138977,125.127098 284.715332,124.597931 284.631409,123.454941 
	C283.453186,120.525444 281.893219,120.033707 279.322174,122.963989 
	C279.152710,123.308266 278.983246,123.652550 278.109253,124.009842 
	C276.670135,124.438110 275.230988,124.866379 273.791870,125.294647 
	C274.211761,125.633232 274.631653,125.971809 275.051544,126.310394 
	C274.367523,127.540466 273.683502,128.770538 272.709808,129.490555 
	C272.169617,129.381363 271.629395,129.272171 271.000092,128.561813 
	C269.713867,129.090012 268.024475,129.283234 267.239532,130.227936 
	C266.165558,131.520462 265.779022,133.384201 264.662292,134.504227 
	C263.905823,134.595413 263.149384,134.686615 261.978363,134.962021 
	C261.611938,135.222382 261.245514,135.482727 260.231354,135.851532 
	C259.528259,136.803162 258.825165,137.754791 258.146545,137.886887 
	C255.050598,134.047119 252.031189,136.224991 248.385818,137.931747 
	C245.472168,135.867233 245.472168,135.867233 244.918472,138.817612 
	C245.028793,140.178314 245.139114,141.539017 245.559235,143.534760 
	C246.709930,143.345108 247.860641,143.155441 249.006912,142.233978 
	C249.041763,141.747345 249.076614,141.260696 249.829239,140.896408 
	C251.462997,142.438599 253.096756,143.980789 254.435043,145.244080 
	C255.524796,143.948044 256.763000,142.475464 258.635834,140.545822 
	C260.811951,140.004883 262.988068,139.463943 265.304413,138.218140 
	C264.902863,138.083115 264.501282,137.948105 263.965057,137.206024 
	C264.162079,137.141602 264.359100,137.077179 265.121979,137.074203 
	C265.819305,137.357224 266.516663,137.640228 267.625824,137.954987 
	C267.625824,137.954987 268.018188,138.084061 268.242371,138.394211 
	C268.478241,138.202454 268.714142,138.010696 268.972473,137.218262 
z"/>
<path fill="#44A3D0" opacity="1.000000" stroke="none" 
	d="
M193.881622,97.701523 
	C201.746368,107.442787 208.998840,117.291000 220.567230,122.430420 
	C223.877426,123.901016 227.303589,125.110550 231.284897,126.679512 
	C226.438675,130.284271 221.831161,133.711472 216.956787,137.337143 
	C220.630585,142.623077 224.201935,147.761627 227.773300,152.900177 
	C209.679977,149.603363 194.832047,141.935745 183.367966,128.436432 
	C182.292191,127.169678 181.439987,125.611259 180.141327,124.652328 
	C172.312439,118.871574 172.251617,110.824959 173.211685,102.325714 
	C173.523010,99.569557 174.269241,97.319550 177.307022,97.246658 
	C182.741364,97.116272 188.184113,97.335304 193.881622,97.701523 
M204.330078,134.083069 
	C206.089890,133.590240 208.042892,133.393753 209.503220,132.441605 
	C210.004807,132.114563 209.749496,129.295944 208.988861,128.697647 
	C208.018936,127.934692 205.195969,127.720398 204.911377,128.233841 
	C204.074493,129.743698 204.097427,131.730118 204.330078,134.083069 
z"/>
<path fill="#44A3D0" opacity="1.000000" stroke="none" 
	d="
M159.836060,58.092049 
	C154.048172,65.412300 147.975189,72.518158 141.650574,79.810081 
	C134.209274,71.484512 127.178154,62.830917 119.748116,54.534584 
	C116.967094,51.429314 115.718872,48.301128 115.930931,44.237129 
	C116.145752,40.120403 115.978333,35.983734 115.978333,31.065725 
	C118.882271,31.234314 122.087425,31.414099 125.291550,31.610777 
	C126.104538,31.660679 127.108284,32.114677 127.695526,31.789358 
	C133.881195,28.362680 137.298950,31.906807 140.922729,36.372272 
	C146.895706,43.732597 153.318054,50.728283 159.836060,58.092049 
M137.282242,52.159557 
	C136.548935,54.009621 135.815613,55.859688 135.082291,57.709751 
	C137.426392,57.709751 139.770493,57.709751 143.420624,57.709751 
	C140.795685,55.005959 139.334595,53.500988 137.282242,52.159557 
z"/>
<path fill="#224A8D" opacity="1.000000" stroke="none" 
	d="
M198.999756,27.841419 
	C195.240494,27.841419 191.481232,27.841419 186.498596,27.841419 
	C198.077057,17.377678 209.715942,10.373517 224.474762,7.416870 
	C235.508087,5.206546 245.901550,5.113812 256.793640,6.768981 
	C265.591522,8.105914 270.515320,11.985667 271.836243,21.224787 
	C272.908234,28.722649 273.263794,28.094656 267.208954,32.246662 
	C260.936493,36.547905 254.942261,35.845245 248.269623,33.078423 
	C249.257065,31.903891 250.507278,30.778835 251.727097,30.810886 
	C257.874420,30.972414 263.947144,31.190947 268.568268,26.041649 
	C267.731110,23.480400 267.124084,20.711626 265.921112,18.231968 
	C264.962799,16.256556 263.641632,13.835840 261.841766,13.014023 
	C257.549805,11.054348 252.879456,9.923356 248.361938,8.457674 
	C248.367447,8.758498 248.372955,9.059322 248.378448,9.360146 
	C243.498505,9.143947 238.618561,8.927748 232.873993,8.673244 
	C233.559769,9.879679 234.045975,11.689329 234.719131,11.761769 
	C238.607330,12.180201 242.560364,11.988533 246.451355,12.391004 
	C250.450912,12.804705 254.478790,13.416636 258.304443,14.570927 
	C258.935150,14.761223 258.424103,18.213028 258.774719,20.095316 
	C258.928375,20.920288 260.178986,21.496490 260.483856,22.346260 
	C261.317505,24.669699 261.681915,27.659092 258.450928,27.756180 
	C253.186996,27.914362 247.461594,29.669336 242.847443,25.085627 
	C242.278183,24.520115 240.446442,24.651115 239.521896,25.109360 
	C232.719299,28.481022 225.627716,28.631109 218.396698,27.222330 
	C214.460617,26.455482 213.352661,23.951271 214.388855,20.172050 
	C214.797394,18.682066 214.749008,17.066799 215.086044,13.777933 
	C209.669174,16.666773 205.601013,18.999571 201.387421,21.030693 
	C198.145081,22.593632 197.596680,24.800518 198.999756,27.841419 
M247.169479,21.750687 
	C248.404373,22.022812 249.639252,22.294937 251.719803,22.389915 
	C253.441223,23.232485 255.162628,24.075054 256.956329,24.952995 
	C255.998795,21.790579 255.283661,19.428654 253.660294,17.043669 
	C253.058289,17.042582 252.456299,17.041494 251.411453,16.945906 
	C251.175247,16.758034 250.933075,16.578161 250.042740,16.086042 
	C248.752960,16.478073 247.463196,16.870102 245.897812,16.708527 
	C245.542618,16.387575 245.187424,16.066622 244.832230,15.745666 
	C244.621124,16.089357 244.190201,16.701994 244.232056,16.736200 
	C244.811737,17.210022 245.456345,17.604443 246.234222,18.243971 
	C246.234222,18.243971 246.057800,18.449053 246.246658,19.093309 
	C246.569763,19.388302 246.892883,19.683294 247.624390,19.875370 
	C247.624390,19.875370 247.993347,20.078466 247.997360,20.563528 
	C247.981308,20.886635 247.973801,21.209938 247.169479,21.750687 
M236.825760,16.291405 
	C235.300446,16.551233 233.775116,16.811064 231.394363,17.055874 
	C231.109680,17.072937 230.825012,17.090002 230.178116,16.514240 
	C229.810287,15.659884 229.442459,14.805528 229.074615,13.951172 
	C228.742676,14.075888 228.410736,14.200604 228.078796,14.325320 
	C228.692490,17.161751 229.306183,19.998180 229.919876,22.834610 
	C230.273270,22.797243 230.626648,22.759878 230.980026,22.722511 
	C231.046494,22.140287 231.112976,21.558062 231.585999,20.977730 
	C231.585999,20.977730 231.991867,21.001423 232.552765,21.384144 
	C233.696671,20.898649 234.840591,20.413155 236.630737,20.056551 
	C236.747726,19.036270 236.864731,18.015989 236.825760,16.291405 
M227.465881,21.018282 
	C228.355240,17.892742 226.168625,17.562675 224.279068,18.177319 
	C223.259857,18.508841 222.761978,20.442984 222.028885,21.654078 
	C222.978577,22.121658 223.928284,22.589239 225.586197,22.938822 
	C226.039917,22.440130 226.493637,21.941439 227.465881,21.018282 
M221.150787,11.452134 
	C220.145370,12.208955 219.139938,12.965775 218.134521,13.722595 
	C218.393478,14.122664 218.652451,14.522734 218.911423,14.922803 
	C220.852081,14.112866 222.792755,13.302930 224.733414,12.492992 
	C224.652451,12.150927 224.571503,11.808861 224.490555,11.466795 
	C223.599884,11.371964 222.709213,11.277132 221.150787,11.452134 
M243.072464,21.024652 
	C242.518143,21.403439 241.963837,21.782223 241.409515,22.161009 
	C242.289032,22.607813 242.852661,22.602053 243.171692,22.319813 
	C243.468079,22.057598 243.503555,21.500471 243.072464,21.024652 
z"/>
<path fill="#214A8D" opacity="1.000000" stroke="none" 
	d="
M199.450378,27.912695 
	C197.596680,24.800518 198.145081,22.593632 201.387421,21.030693 
	C205.601013,18.999571 209.669174,16.666773 215.086044,13.777933 
	C214.749008,17.066799 214.797394,18.682066 214.388855,20.172050 
	C213.352661,23.951271 214.460617,26.455482 218.396698,27.222330 
	C225.627716,28.631109 232.719299,28.481022 239.521896,25.109360 
	C240.446442,24.651115 242.278183,24.520115 242.847443,25.085627 
	C247.461594,29.669336 253.186996,27.914362 258.450928,27.756180 
	C261.681915,27.659092 261.317505,24.669699 260.483856,22.346260 
	C260.178986,21.496490 258.928375,20.920288 258.774719,20.095316 
	C258.424103,18.213028 258.935150,14.761223 258.304443,14.570927 
	C254.478790,13.416636 250.450912,12.804705 246.451355,12.391004 
	C242.560364,11.988533 238.607330,12.180201 234.719131,11.761769 
	C234.045975,11.689329 233.559769,9.879679 232.873993,8.673244 
	C238.618561,8.927748 243.498505,9.143947 248.378448,9.360146 
	C248.372955,9.059322 248.367447,8.758498 248.361938,8.457674 
	C252.879456,9.923356 257.549805,11.054348 261.841766,13.014023 
	C263.641632,13.835840 264.962799,16.256556 265.921112,18.231968 
	C267.124084,20.711626 267.731110,23.480400 268.568268,26.041649 
	C263.947144,31.190947 257.874420,30.972414 251.727097,30.810886 
	C250.507278,30.778835 249.257065,31.903891 247.971680,32.853580 
	C232.679352,31.654329 219.014557,35.250248 207.077820,46.509605 
	C207.077820,39.922256 207.077820,34.215706 207.077820,27.983971 
	C204.461563,27.983971 202.181274,27.983971 199.450378,27.912695 
z"/>
<path fill="#45A3CF" opacity="1.000000" stroke="none" 
	d="
M160.212067,101.600052 
	C166.000443,94.347466 172.058426,87.347549 178.344559,80.129852 
	C182.014725,83.870682 185.456726,87.829300 190.004639,93.059845 
	C185.190430,93.059845 181.820770,93.002785 178.453659,93.070763 
	C169.150528,93.258598 170.311935,91.955978 169.978088,101.199013 
	C169.865494,104.316399 169.500381,107.424660 169.165085,111.604172 
	C165.830673,107.859627 163.156174,104.856178 160.212067,101.600052 
z"/>
<path fill="#0A0A0A" opacity="1.000000" stroke="none" 
	d="
M253.432709,84.226303 
	C249.961884,85.378235 246.781906,86.249947 243.167175,87.240837 
	C243.167175,80.946381 243.167175,75.888000 243.167175,69.231194 
	C247.147980,70.705963 251.818832,71.031731 253.416077,73.416306 
	C255.070724,75.886543 253.745438,80.352837 253.432709,84.226303 
M246.443970,83.755356 
	C251.267441,84.583664 252.140732,81.674522 251.992249,77.851952 
	C251.848663,74.155655 250.051346,72.567665 246.118088,73.280624 
	C246.118088,76.670143 246.118088,79.806061 246.443970,83.755356 
z"/>
<path fill="#131313" opacity="1.000000" stroke="none" 
	d="
M236.745743,83.013809 
	C237.849609,82.076408 238.753540,81.460991 240.561935,80.229782 
	C240.085144,85.488464 237.437531,86.889267 234.122208,86.816078 
	C229.686661,86.718140 227.839050,83.865410 227.636429,79.602478 
	C227.383514,74.281807 229.135971,70.793320 232.973602,70.316368 
	C236.811417,69.839371 239.825760,71.115105 240.537247,75.581734 
	C237.285797,77.582077 234.443283,68.732872 231.502579,75.066765 
	C230.531647,77.158005 231.261200,80.245743 231.879059,82.710960 
	C232.020142,83.273766 234.917206,83.145813 236.745743,83.013809 
z"/>
<path fill="#191919" opacity="1.000000" stroke="none" 
	d="
M76.045456,70.133484 
	C79.632141,70.617264 82.055756,71.892960 82.231689,75.611702 
	C78.903633,77.609558 76.488770,69.077606 73.496368,74.757675 
	C72.380455,76.875870 73.463150,80.152344 73.543312,82.900658 
	C76.299225,82.589920 79.055138,82.279182 83.405838,81.788628 
	C81.072586,83.819221 79.569260,86.191673 77.844719,86.365158 
	C75.572845,86.593712 72.322098,85.805321 70.908691,84.203941 
	C66.828888,79.581566 69.615700,72.060066 76.045456,70.133484 
z"/>
<path fill="#0D0D0D" opacity="1.000000" stroke="none" 
	d="
M84.959503,84.508011 
	C84.956085,80.244102 84.860756,76.429947 85.037956,72.628502 
	C85.074142,71.852165 86.133545,71.123520 86.721283,70.372894 
	C87.195061,71.079315 88.054146,71.772690 88.078575,72.494324 
	C88.213036,76.465065 88.211327,80.444908 88.083496,84.416061 
	C88.059433,85.163376 87.253242,85.885506 86.807953,86.619263 
	C86.193268,86.066925 85.578598,85.514587 84.959503,84.508011 
z"/>
<path fill="#90BF3D" opacity="1.000000" stroke="none" 
	d="
M60.920845,124.072090 
	C60.857414,123.915337 60.949432,123.605591 61.212074,123.452263 
	C61.382702,123.608673 61.076286,123.919106 60.920845,124.072090 
z"/>
<path fill="#95C246" opacity="1.000000" stroke="none" 
	d="
M138.175369,106.018822 
	C138.376617,107.332268 138.577850,108.645714 138.889435,110.679283 
	C136.383499,109.991470 134.757065,109.545052 132.378387,108.892166 
	C132.246567,111.354790 132.133728,113.462975 131.998108,115.996506 
	C130.979553,115.996506 129.880066,115.996506 128.390289,115.998253 
	C128.000000,116.000000 127.999413,115.999138 127.999405,115.999138 
	C128.289108,112.944855 128.219818,109.789490 129.037933,106.883987 
	C129.385162,105.650841 131.593445,104.941711 133.507538,104.291687 
	C135.431244,105.065575 136.803299,105.542198 138.175369,106.018822 
z"/>
<path fill="#95C246" opacity="1.000000" stroke="none" 
	d="
M128.000305,116.000305 
	C128.065659,116.153458 128.230545,116.380516 128.180511,116.447823 
	C127.593910,117.237045 126.763382,117.916718 126.409523,118.791985 
	C125.711792,120.517784 125.677483,122.662926 124.605278,124.040237 
	C123.682625,125.225426 121.698463,125.584229 119.617004,125.388512 
	C120.216698,124.715660 120.816399,124.042801 121.635811,123.123428 
	C118.272827,120.949074 118.386353,119.078606 122.008820,116.969482 
	C123.564262,116.063850 124.357079,113.848381 125.881592,111.680161 
	C126.560120,113.330750 127.018555,114.445961 127.738205,115.780151 
	C127.999413,115.999138 128.000000,116.000000 128.000305,116.000305 
z"/>
<path fill="#EAF3DD" opacity="1.000000" stroke="none" 
	d="
M188.052933,53.348038 
	C186.511292,53.201138 184.969650,53.054237 183.538727,52.501022 
	C183.477020,51.612724 183.304596,51.130737 183.132172,50.648750 
	C183.971146,48.887009 184.810135,47.125267 185.649109,45.363525 
	C186.253448,45.283585 186.857803,45.203644 187.462143,45.123703 
	C188.970139,47.739990 190.478119,50.356277 191.604172,53.091927 
	C191.098099,53.093273 190.973984,52.975266 190.846283,52.603714 
	C190.688278,52.143063 190.533859,51.935963 190.379440,51.728859 
	C190.246429,52.164989 190.113434,52.601120 189.994537,53.021130 
	C190.008636,53.005009 190.042191,52.978382 189.699387,52.894989 
	C188.922028,52.990410 188.487488,53.169228 188.052933,53.348038 
z"/>
<path fill="#E4EFD3" opacity="1.000000" stroke="none" 
	d="
M179.025146,54.999603 
	C179.842621,57.013081 180.660110,59.026554 181.477585,61.040031 
	C178.975861,59.988510 175.275055,61.686279 175.457474,57.327732 
	C176.983276,56.344776 180.135498,59.158531 179.025146,54.999603 
z"/>
<path fill="#E1EDCE" opacity="1.000000" stroke="none" 
	d="
M151.729996,92.257103 
	C151.560059,93.317589 151.390137,94.378067 151.027069,96.643951 
	C149.850571,94.101234 149.180603,92.653236 147.776886,89.619377 
	C150.405884,90.182899 152.068954,90.539375 153.732040,90.895859 
	C153.658401,91.033264 153.615570,91.211052 153.502777,91.297150 
	C153.380569,91.390419 153.193115,91.398232 152.574402,91.260628 
	C151.868744,91.118561 151.622818,91.159187 151.376892,91.199821 
	C151.494583,91.552246 151.612289,91.904671 151.729996,92.257103 
z"/>
<path fill="#E1EDCE" opacity="1.000000" stroke="none" 
	d="
M166.893173,71.187828 
	C167.864090,72.058220 168.835007,72.928604 169.805923,73.798988 
	C169.728653,74.168533 169.651398,74.538078 169.574127,74.907631 
	C167.972778,74.373253 166.257080,74.026802 164.851135,73.171295 
	C164.503143,72.959549 165.160202,71.096069 165.734772,70.332001 
	C166.296616,70.960747 166.556244,71.132645 166.893173,71.187828 
z"/>
<path fill="#E4EFD3" opacity="1.000000" stroke="none" 
	d="
M135.414734,102.461922 
	C137.175049,101.642929 138.935364,100.823929 140.695663,100.004929 
	C138.925980,101.434593 145.176041,104.876732 139.345886,104.816261 
	C138.999969,105.000511 138.985641,104.985687 139.200775,104.723564 
	C138.320236,104.003448 137.224548,103.545456 135.956436,102.924118 
	C135.783997,102.760765 135.414734,102.461922 135.414734,102.461922 
z"/>
<path fill="#E4EFD3" opacity="1.000000" stroke="none" 
	d="
M138.232452,105.789360 
	C136.803299,105.542198 135.431244,105.065575 133.899353,104.287704 
	C134.142471,103.581451 134.545441,103.176437 135.181564,102.616669 
	C135.414734,102.461922 135.783997,102.760765 136.042206,103.253372 
	C137.195496,104.159218 138.090576,104.572449 138.985641,104.985687 
	C138.985641,104.985687 138.999969,105.000511 139.002960,105.008484 
	C138.626877,105.013535 138.388077,105.194679 138.232452,105.789360 
z"/>
<path fill="#92C042" opacity="1.000000" stroke="none" 
	d="
M178.704651,55.019909 
	C180.135498,59.158531 176.983276,56.344776 175.560532,57.015690 
	C175.372635,56.529751 175.366272,55.563190 175.702011,55.424442 
	C176.510849,55.090164 177.479797,55.143318 178.704651,55.019909 
z"/>
<path fill="#92C042" opacity="1.000000" stroke="none" 
	d="
M116.466232,126.918335 
	C115.601021,126.723976 115.045242,126.486259 114.489456,126.248550 
	C114.886307,125.879181 115.283157,125.509811 115.680016,125.140450 
	C116.045235,125.718628 116.410454,126.296806 116.466232,126.918335 
z"/>
<path fill="#92C042" opacity="1.000000" stroke="none" 
	d="
M146.307236,91.875549 
	C145.738800,92.618484 145.192047,93.057007 144.645294,93.495529 
	C144.489731,93.075172 144.334167,92.654808 144.178619,92.234436 
	C144.895386,92.013336 145.612167,91.792236 146.307236,91.875549 
z"/>
<path fill="#92C042" opacity="1.000000" stroke="none" 
	d="
M167.042328,70.857941 
	C166.556244,71.132645 166.296616,70.960747 166.021988,70.452461 
	C166.196442,69.263832 166.463196,68.294884 166.729950,67.325935 
	C167.063828,67.402580 167.397720,67.479225 167.731613,67.555878 
	C167.551559,68.546600 167.371521,69.537331 167.042328,70.857941 
z"/>
<path fill="#92C042" opacity="1.000000" stroke="none" 
	d="
M157.432449,78.580643 
	C157.339691,79.268166 157.041031,79.770866 156.742371,80.273567 
	C156.542648,80.074440 156.144119,79.740776 156.173813,79.696915 
	C156.485352,79.236572 156.865433,78.822609 157.432449,78.580643 
z"/>
<path fill="#92C042" opacity="1.000000" stroke="none" 
	d="
M159.534683,75.393959 
	C159.650925,74.943733 159.934738,74.667603 160.236710,74.413010 
	C160.244705,74.406265 160.450165,74.633736 160.563553,74.751984 
	C160.277267,75.024971 159.990982,75.297958 159.534683,75.393959 
z"/>
<path fill="#EAF3DD" opacity="1.000000" stroke="none" 
	d="
M191.388519,53.407108 
	C190.699493,53.931885 189.844177,54.260838 189.185364,54.210152 
	C189.601974,53.546471 189.822083,53.262424 190.042191,52.978378 
	C190.042191,52.978382 190.008636,53.005009 190.213028,52.981964 
	C190.417419,52.958923 190.849869,52.857262 190.849869,52.857262 
	C190.973984,52.975266 191.098099,53.093273 191.388519,53.407108 
z"/>
<path fill="#92C042" opacity="1.000000" stroke="none" 
	d="
M189.699387,52.894989 
	C189.822083,53.262424 189.601974,53.546471 189.109055,53.889191 
	C188.607117,53.900921 188.411438,53.793213 188.151077,53.486389 
	C188.487488,53.169228 188.922028,52.990410 189.699387,52.894989 
z"/>
<path fill="#92C042" opacity="1.000000" stroke="none" 
	d="
M183.116180,51.093704 
	C183.304596,51.130737 183.477020,51.612724 183.399445,52.261242 
	C183.133041,52.131401 183.116623,51.835030 183.116180,51.093704 
z"/>
<path fill="#5D2986" opacity="1.000000" stroke="none" 
	d="
M25.222488,97.002411 
	C28.229902,98.239632 27.387775,100.427078 25.604992,101.440132 
	C23.089312,102.869659 20.069008,103.411156 17.264441,104.332306 
	C17.025618,103.911469 16.786795,103.490631 16.547972,103.069794 
	C17.010519,101.939255 17.473068,100.808716 18.254581,99.326843 
	C19.369007,98.488998 20.164465,98.002487 21.299026,97.581635 
	C22.832916,97.432327 24.027702,97.217369 25.222488,97.002411 
z"/>
<path fill="#4D0F7B" opacity="1.000000" stroke="none" 
	d="
M18.045658,85.872078 
	C18.038494,85.151176 18.031330,84.430283 18.013374,83.135605 
	C18.002584,82.561836 18.002516,82.134758 18.340588,82.109367 
	C19.125961,82.136551 19.573259,82.189125 20.129509,82.375259 
	C20.505503,82.384949 20.772545,82.261078 21.005589,82.067535 
	C20.971588,81.997879 20.934572,81.847328 21.188400,81.873207 
	C21.609577,81.868637 21.776924,81.838181 21.944273,81.807724 
	C22.210594,83.971535 22.476913,86.135353 22.461128,88.633766 
	C21.375921,89.079269 20.572821,89.190170 19.802296,88.909256 
	C19.238468,87.635651 18.642063,86.753868 18.045658,85.872078 
z"/>
<path fill="#572282" opacity="1.000000" stroke="none" 
	d="
M20.959927,97.515984 
	C20.164465,98.002487 19.369007,98.488998 18.286697,98.992676 
	C17.999102,96.962181 17.998358,94.914513 18.328342,92.324127 
	C19.768579,91.638840 20.878088,91.496284 21.987598,91.353722 
	C21.673229,92.610580 21.358860,93.867439 20.869568,95.885345 
	C20.783070,96.936264 20.871498,97.226120 20.959927,97.515984 
z"/>
<path fill="#E6E1EB" opacity="1.000000" stroke="none" 
	d="
M17.053761,81.001343 
	C16.271708,79.776978 15.489652,78.552620 13.741067,75.815086 
	C17.409758,76.793144 20.111769,77.513489 22.559807,78.635437 
	C22.305832,79.037048 21.863062,79.101891 21.888710,79.073578 
	C21.914356,79.045273 21.952284,79.111183 21.858339,78.859535 
	C21.469698,78.418282 21.175003,78.228676 20.499504,78.036346 
	C17.970512,77.943367 17.234451,78.725998 18.111183,80.811066 
	C17.527414,80.935181 17.290586,80.968262 17.053761,81.001343 
z"/>
<path fill="#CEC5DA" opacity="1.000000" stroke="none" 
	d="
M22.295485,91.327499 
	C20.878088,91.496284 19.768579,91.638840 18.329767,91.885597 
	C18.424534,91.222847 18.848602,90.455894 19.509924,89.464432 
	C19.747177,89.239922 19.769718,89.301071 19.769718,89.301071 
	C20.572821,89.190170 21.375921,89.079269 22.582598,88.928604 
	C22.858574,89.692978 22.730972,90.497131 22.295485,91.327499 
z"/>
<path fill="#7D5D9D" opacity="1.000000" stroke="none" 
	d="
M19.802296,88.909256 
	C19.769718,89.301071 19.747177,89.239922 19.775948,89.251282 
	C19.035172,88.312904 18.265621,87.363159 17.770866,86.142746 
	C18.642063,86.753868 19.238468,87.635651 19.802296,88.909256 
z"/>
<path fill="#E9E4ED" opacity="1.000000" stroke="none" 
	d="
M21.299028,97.581635 
	C20.871498,97.226120 20.783070,96.936264 20.821075,96.209763 
	C22.231457,95.961388 23.515404,96.149651 25.010920,96.670158 
	C24.027702,97.217369 22.832916,97.432327 21.299028,97.581635 
z"/>
<path fill="#EDEFF4" opacity="1.000000" stroke="none" 
	d="
M17.066854,81.176941 
	C17.290586,80.968262 17.527414,80.935181 18.416088,80.814674 
	C19.672319,80.677437 20.276705,80.627625 20.897917,80.895050 
	C20.921352,81.423965 20.927963,81.635651 20.934572,81.847328 
	C20.934572,81.847328 20.971588,81.997879 20.745831,82.044868 
	C20.353569,82.141808 20.187065,82.191750 20.020559,82.241699 
	C19.573259,82.189125 19.125961,82.136551 18.124739,81.971855 
	C17.408211,81.808060 17.245604,81.756378 17.082994,81.704697 
	C17.082994,81.704697 17.079948,81.352539 17.066854,81.176941 
z"/>
<path fill="#E1DBE7" opacity="1.000000" stroke="none" 
	d="
M21.188400,81.873207 
	C20.927963,81.635651 20.921352,81.423965 20.973057,80.703484 
	C21.198246,79.958405 21.422646,79.807854 21.928425,79.933289 
	C22.310217,80.239357 22.468157,80.355171 22.626099,80.470985 
	C22.445063,80.754692 22.264029,81.038391 22.013634,81.564911 
	C21.776924,81.838181 21.609577,81.868637 21.188400,81.873207 
z"/>
<path fill="#E1DBE7" opacity="1.000000" stroke="none" 
	d="
M21.863062,79.101891 
	C21.863062,79.101891 22.305832,79.037048 22.528664,79.016907 
	C22.798325,79.335289 22.845152,79.673828 22.759037,80.241669 
	C22.468157,80.355171 22.310217,80.239357 21.940338,79.766235 
	C21.728401,79.408920 21.863062,79.101891 21.863062,79.101891 
z"/>
<path fill="#50177D" opacity="1.000000" stroke="none" 
	d="
M17.151001,81.974396 
	C17.245604,81.756378 17.408211,81.808060 17.786667,81.997246 
	C18.002516,82.134758 18.002584,82.561836 18.004309,82.775253 
	C17.743692,82.740479 17.481352,82.492287 17.151001,81.974396 
z"/>
<path fill="#345896" opacity="1.000000" stroke="none" 
	d="
M296.248413,63.864388 
	C294.933044,62.233955 290.803223,62.294785 293.421387,58.161354 
	C293.883667,56.641857 293.966553,55.489574 294.429321,54.494682 
	C295.539612,54.410812 296.270081,54.169544 297.013672,54.381290 
	C297.026825,56.600773 297.026825,58.367245 297.026825,60.133717 
	C297.301208,60.113651 297.575592,60.093586 297.849976,60.073517 
	C298.487213,58.637615 299.124451,57.201710 299.761719,55.765800 
	C300.574158,57.175003 301.386627,58.584217 302.377228,60.302376 
	C301.659424,60.761406 300.924652,61.231300 299.720459,62.009956 
	C299.196289,64.671883 295.355682,59.670605 296.248413,63.864388 
z"/>
<path fill="#788CB4" opacity="1.000000" stroke="none" 
	d="
M293.264679,53.024727 
	C292.143585,52.251637 291.022491,51.478550 289.382019,50.347313 
	C291.012054,49.679207 292.000458,49.274078 293.451416,48.899208 
	C293.913940,48.929474 294.166901,49.192364 294.040894,49.437996 
	C294.243591,50.084332 294.572327,50.485035 294.901062,50.885735 
	C294.921509,51.083057 294.941956,51.280384 294.869598,52.022392 
	C294.272736,52.719624 293.768707,52.872173 293.264679,53.024727 
z"/>
<path fill="#647DAB" opacity="1.000000" stroke="none" 
	d="
M299.758911,55.416580 
	C299.124451,57.201710 298.487213,58.637615 297.849976,60.073517 
	C297.575592,60.093586 297.301208,60.113651 297.026825,60.133717 
	C297.026825,58.367245 297.026825,56.600773 297.085693,54.328545 
	C297.144562,53.822784 297.474152,53.901134 297.474152,53.901138 
	C298.234802,54.289879 298.995422,54.678616 299.758911,55.416580 
z"/>
<path fill="#E0E5ED" opacity="1.000000" stroke="none" 
	d="
M301.300415,69.072525 
	C300.690643,68.668488 300.393951,68.314774 300.097260,67.961060 
	C301.628876,68.761604 303.160492,69.562149 304.692078,70.362701 
	C304.299255,70.822975 303.906403,71.283249 303.513580,71.743515 
	C302.880219,70.869965 302.246857,69.996414 301.300415,69.072525 
z"/>
<path fill="#E0E5ED" opacity="1.000000" stroke="none" 
	d="
M297.686249,53.589439 
	C297.474152,53.901134 297.144562,53.822784 297.072571,53.875534 
	C296.270081,54.169544 295.539612,54.410812 294.372101,54.361496 
	C293.783539,53.913544 293.603271,53.866673 293.394226,53.930298 
	C293.394226,53.930298 293.265656,53.486618 293.265167,53.255672 
	C293.768707,52.872173 294.272736,52.719624 294.886688,52.319466 
	C295.963867,52.473820 296.931091,52.875782 297.686249,53.589439 
z"/>
<path fill="#647DAB" opacity="1.000000" stroke="none" 
	d="
M293.109253,54.082237 
	C293.603271,53.866673 293.783539,53.913544 293.992249,54.204102 
	C293.966553,55.489574 293.883667,56.641857 293.477478,57.802109 
	C293.044220,56.618114 292.934235,55.426144 293.109253,54.082237 
z"/>
<path fill="#D6DCE7" opacity="1.000000" stroke="none" 
	d="
M296.621094,63.948856 
	C295.355682,59.670605 299.196289,64.671883 299.563843,62.285191 
	C298.915649,62.845551 297.954712,63.439438 296.621094,63.948856 
z"/>
<path fill="#788CB4" opacity="1.000000" stroke="none" 
	d="
M293.784058,48.801365 
	C294.397980,48.619526 295.141785,48.565796 295.600464,48.797031 
	C294.932556,49.118790 294.549744,49.155575 294.166901,49.192364 
	C294.166901,49.192364 293.913940,48.929474 293.784058,48.801365 
z"/>
<path fill="#FDFEFE" opacity="1.000000" stroke="none" 
	d="
M294.040894,49.437996 
	C294.549744,49.155575 294.932556,49.118790 295.603546,49.100471 
	C295.631348,49.545700 295.371002,49.972466 295.005859,50.642483 
	C294.572327,50.485035 294.243591,50.084332 294.040894,49.437996 
z"/>
<path fill="#5D2986" opacity="1.000000" stroke="none" 
	d="
M65.001953,26.812767 
	C61.800495,27.393274 60.548618,26.523775 61.186874,23.997057 
	C61.597702,22.370676 62.359619,20.832983 63.030373,19.082815 
	C64.401306,19.372944 65.801468,19.669256 67.606697,19.990850 
	C68.011772,20.016130 68.078812,20.085943 67.975395,20.384945 
	C67.972473,21.804476 68.072968,22.925003 68.050659,24.029263 
	C67.927849,24.012995 67.688622,23.948507 67.568451,23.976490 
	C67.448273,24.004475 67.204086,23.964987 66.839737,23.989151 
	C66.305580,24.695694 66.135780,25.378073 65.965981,26.060450 
	C65.965981,26.060450 66.017220,26.014107 65.854324,26.010675 
	C65.461609,26.275751 65.231781,26.544258 65.001953,26.812767 
z"/>
<path fill="#64348B" opacity="1.000000" stroke="none" 
	d="
M69.001266,18.002045 
	C70.181915,18.157127 71.362564,18.312210 72.769379,19.015236 
	C72.979813,19.748598 72.964096,19.934015 72.591919,20.219772 
	C71.985992,21.527542 71.736526,22.734976 71.240295,23.929287 
	C70.505325,23.902056 70.017097,23.887947 69.358765,23.510487 
	C69.126808,22.092697 69.064972,21.038260 69.001129,19.653515 
	C68.999840,18.882822 69.000557,18.442432 69.001266,18.002045 
z"/>
<path fill="#DCD6E4" opacity="1.000000" stroke="none" 
	d="
M81.927132,18.818054 
	C82.130287,18.779421 82.333443,18.740789 82.885330,19.136501 
	C83.617073,19.977282 84.000084,20.383718 84.383102,20.790154 
	C84.605469,20.207708 84.827835,19.625261 85.050201,19.042816 
	C85.695824,19.604847 86.341446,20.166878 86.987068,20.728909 
	C85.877068,21.346571 84.767067,21.964231 83.543312,22.645187 
	C83.950233,23.027096 84.606903,23.643398 85.263565,24.259701 
	C85.157852,24.502462 85.052139,24.745224 84.946426,24.987986 
	C83.850319,24.427633 82.754219,23.867281 81.376686,22.773209 
	C81.372551,21.099012 81.649841,19.958534 81.927132,18.818054 
z"/>
<path fill="#E6E1EB" opacity="1.000000" stroke="none" 
	d="
M76.056442,18.134079 
	C76.710892,17.695429 77.365341,17.256779 78.367859,16.439621 
	C79.153160,16.137945 79.590408,16.214779 80.027649,16.291613 
	C80.024094,16.698763 80.020538,17.105913 80.004646,18.064548 
	C80.066429,20.075144 80.140549,21.534254 80.214668,22.993366 
	C79.722061,23.374107 79.229462,23.754850 78.360573,23.838924 
	C77.984482,23.351345 77.984665,23.160435 78.086548,22.632221 
	C77.855133,21.247040 77.522018,20.199162 76.956871,19.029758 
	C76.502037,18.650183 76.279243,18.392130 76.056442,18.134079 
z"/>
<path fill="#CCC2D8" opacity="1.000000" stroke="none" 
	d="
M77.984856,22.969524 
	C77.984665,23.160435 77.984482,23.351345 78.001038,23.828148 
	C76.583435,23.714106 75.149094,23.314171 73.342178,22.683548 
	C73.015739,22.244907 73.061882,22.036949 73.373749,21.668688 
	C73.920242,20.727098 74.201012,19.945814 74.481781,19.164528 
	C74.843758,18.835361 75.205742,18.506199 75.812088,18.155556 
	C76.279243,18.392130 76.502037,18.650183 76.721382,19.279591 
	C77.140244,20.757139 77.562546,21.863333 77.984856,22.969524 
z"/>
<path fill="#592583" opacity="1.000000" stroke="none" 
	d="
M80.441727,22.984867 
	C80.140549,21.534254 80.066429,20.075144 80.056343,18.263512 
	C80.565010,18.040255 81.009651,18.169519 81.690704,18.558418 
	C81.649841,19.958534 81.372551,21.099012 81.109039,22.598373 
	C81.122818,22.957256 80.668793,22.976368 80.441727,22.984867 
z"/>
<path fill="#E1DBE7" opacity="1.000000" stroke="none" 
	d="
M69.528877,23.873838 
	C70.017097,23.887947 70.505325,23.902056 71.551651,23.900702 
	C72.316017,23.905035 72.522285,23.924829 72.728554,23.944626 
	C71.428299,24.304342 70.128036,24.664062 68.430588,24.712597 
	C67.918472,24.250441 67.803543,24.099474 67.688622,23.948507 
	C67.688622,23.948507 67.927849,24.012995 68.388809,23.980814 
	C69.076141,23.923702 69.302505,23.898769 69.528877,23.873838 
z"/>
<path fill="#FFFFFF" opacity="1.000000" stroke="none" 
	d="
M72.864243,23.750128 
	C72.522285,23.924829 72.316017,23.905035 71.798401,23.913822 
	C71.736526,22.734976 71.985992,21.527542 72.604767,20.506142 
	C73.018723,21.071114 73.063370,21.450052 73.108017,21.828993 
	C73.061882,22.036949 73.015739,22.244907 73.015457,22.769093 
	C73.061310,23.085320 72.999924,23.555630 72.864243,23.750128 
z"/>
<path fill="#592583" opacity="1.000000" stroke="none" 
	d="
M79.994041,15.962067 
	C79.590408,16.214779 79.153160,16.137945 78.382370,16.101952 
	C78.282700,15.584878 78.516579,15.026962 78.750465,14.469048 
	C79.153786,14.856873 79.557106,15.244697 79.994041,15.962067 
z"/>
<path fill="#8C72A7" opacity="1.000000" stroke="none" 
	d="
M84.728195,19.019882 
	C84.827835,19.625261 84.605469,20.207708 84.383102,20.790154 
	C84.000084,20.383718 83.617073,19.977282 83.175934,19.244972 
	C83.547272,18.945051 83.976730,18.970999 84.728195,19.019882 
z"/>
<path fill="#5D2986" opacity="1.000000" stroke="none" 
	d="
M73.373749,21.668688 
	C73.063370,21.450052 73.018723,21.071114 72.961227,20.405804 
	C72.964096,19.934015 72.979813,19.748598 73.006409,19.284332 
	C73.261589,19.026573 73.505898,19.047657 74.115997,19.116638 
	C74.201012,19.945814 73.920242,20.727098 73.373749,21.668688 
z"/>
<path fill="#5D2986" opacity="1.000000" stroke="none" 
	d="
M68.757736,18.163422 
	C69.000557,18.442432 68.999840,18.882822 68.767883,19.659348 
	C68.536629,19.995485 68.078812,20.085943 68.078812,20.085943 
	C68.078812,20.085943 68.011772,20.016130 67.977554,19.981468 
	C68.133629,19.406137 68.323914,18.865467 68.757736,18.163422 
z"/>
<path fill="#CEC5DA" opacity="1.000000" stroke="none" 
	d="
M65.196220,26.694572 
	C65.231781,26.544258 65.461609,26.275751 65.879730,25.987259 
	C65.825600,26.151873 65.599754,26.354908 65.196220,26.694572 
z"/>
<path fill="#CEC5DA" opacity="1.000000" stroke="none" 
	d="
M66.182800,25.908909 
	C66.135780,25.378073 66.305580,24.695694 66.780426,24.239946 
	C67.094368,24.637810 67.103264,24.809044 67.112160,24.980278 
	C66.874641,25.239307 66.637131,25.498339 66.182800,25.908909 
z"/>
<path fill="#4D0F7B" opacity="1.000000" stroke="none" 
	d="
M67.400116,24.977722 
	C67.103264,24.809044 67.094368,24.637810 67.144775,24.215782 
	C67.204086,23.964987 67.448273,24.004475 67.568451,23.976490 
	C67.803543,24.099474 67.918472,24.250441 68.147537,24.662331 
	C68.070465,24.940556 67.879272,24.957859 67.400116,24.977722 
z"/>
<path fill="#224E90" opacity="1.000000" stroke="none" 
	d="
M284.882874,127.741440 
	C282.138245,129.789200 279.393616,131.836975 276.131042,133.682892 
	C274.747375,132.651245 273.881653,131.821457 273.006287,131.041077 
	C272.996643,131.090485 272.895966,131.092209 272.912872,130.818451 
	C272.953033,130.363342 272.976288,130.181976 272.999512,130.000610 
	C273.683502,128.770538 274.367523,127.540466 275.051544,126.310394 
	C274.631653,125.971809 274.211761,125.633232 273.791870,125.294647 
	C275.230988,124.866379 276.670135,124.438110 278.549622,124.370575 
	C279.864685,127.867783 281.850525,128.828964 284.882874,127.741440 
z"/>
<path fill="#D0D7E4" opacity="1.000000" stroke="none" 
	d="
M258.001221,141.002869 
	C256.763000,142.475464 255.524796,143.948044 254.435043,145.244080 
	C253.096756,143.980789 251.462997,142.438599 249.438614,140.488525 
	C249.034225,139.388123 249.020462,138.695618 249.006683,138.003113 
	C252.031189,136.224991 255.050598,134.047119 258.090027,138.678101 
	C258.022766,139.980484 258.011993,140.491684 258.001221,141.002869 
z"/>
<path fill="#14438A" opacity="1.000000" stroke="none" 
	d="
M270.977753,135.005188 
	C270.424988,135.177002 269.872253,135.348831 268.854858,135.749359 
	C267.998138,136.626465 267.606079,137.274857 267.213989,137.923248 
	C266.516663,137.640228 265.819305,137.357224 264.678711,136.858231 
	C264.235474,136.642258 264.246979,136.152969 264.476318,136.041458 
	C264.836426,135.621002 264.967133,135.312057 265.097870,135.003113 
	C265.779022,133.384201 266.165558,131.520462 267.239532,130.227936 
	C268.024475,129.283234 269.713867,129.090012 271.049561,129.039398 
	C271.099060,129.516998 271.148834,129.868866 270.827820,129.911987 
	C269.958557,130.082733 269.410339,130.210327 267.718597,130.604095 
	C269.645020,130.936676 270.408264,131.068436 271.119934,131.507385 
	C270.964630,132.215103 270.860931,132.615631 270.621338,133.099030 
	C270.267700,133.482315 270.319122,133.743469 270.723083,134.225677 
	C270.863495,134.659103 270.920624,134.832153 270.977753,135.005188 
z"/>
<path fill="#C4CCDD" opacity="1.000000" stroke="none" 
	d="
M264.246979,136.152969 
	C264.246979,136.152969 264.235474,136.642258 264.395782,136.827515 
	C264.359100,137.077179 264.162079,137.141602 264.180023,137.722015 
	C264.651398,138.466339 264.907776,138.694672 265.164185,138.923004 
	C262.988068,139.463943 260.811951,140.004883 258.318512,140.774353 
	C258.011993,140.491684 258.022766,139.980484 258.077789,139.087860 
	C258.825165,137.754791 259.528259,136.803162 260.865997,135.939453 
	C261.954956,136.012512 262.409241,135.997665 263.211090,136.011658 
	C263.788086,136.078003 264.017517,136.115479 264.246979,136.152969 
z"/>
<path fill="#0F4189" opacity="1.000000" stroke="none" 
	d="
M248.696259,137.967438 
	C249.020462,138.695618 249.034225,139.388123 249.079712,140.427338 
	C249.076614,141.260696 249.041763,141.747345 248.696930,142.513641 
	C247.616684,142.488922 246.846436,142.184540 246.045135,141.504822 
	C245.668610,140.083237 245.323120,139.036972 244.977646,137.990707 
	C245.472168,135.867233 245.472168,135.867233 248.696259,137.967438 
z"/>
<path fill="#EBEEF3" opacity="1.000000" stroke="none" 
	d="
M284.904572,127.450500 
	C281.850525,128.828964 279.864685,127.867783 278.901917,124.364067 
	C278.983246,123.652550 279.152710,123.308266 279.736908,123.087257 
	C280.605072,123.497269 281.058502,123.784012 281.720886,124.354012 
	C281.949860,127.371635 283.342285,126.996536 285.010376,125.996925 
	C284.982330,126.384468 284.954315,126.772018 284.904572,127.450500 
z"/>
<path fill="#8B9CBD" opacity="1.000000" stroke="none" 
	d="
M281.511932,124.070747 
	C281.058502,123.784012 280.605072,123.497269 279.994873,122.957436 
	C281.893219,120.033707 283.453186,120.525444 284.254761,123.867554 
	C283.089417,124.210365 282.300659,124.140556 281.511932,124.070747 
z"/>
<path fill="#2E5393" opacity="1.000000" stroke="none" 
	d="
M273.015961,130.991669 
	C273.881653,131.821457 274.747375,132.651245 275.781830,133.730042 
	C275.409119,134.447556 274.867645,134.916077 274.203674,134.864716 
	C273.726074,133.227112 273.371033,132.109390 273.015961,130.991669 
z"/>
<path fill="#5D76A5" opacity="1.000000" stroke="none" 
	d="
M281.720886,124.354012 
	C282.300659,124.140556 283.089417,124.210365 284.084930,124.174469 
	C284.715332,124.597931 285.138977,125.127098 285.286499,125.826599 
	C283.342285,126.996536 281.949860,127.371635 281.720886,124.354012 
z"/>
<path fill="#E4E8F0" opacity="1.000000" stroke="none" 
	d="
M273.006287,131.041077 
	C273.371033,132.109390 273.726074,133.227112 274.046539,134.692673 
	C273.252991,135.067169 272.494049,135.093811 271.356445,135.062836 
	C270.920624,134.832153 270.863495,134.659103 270.797821,133.994019 
	C270.789276,133.501984 270.757233,133.016159 270.757233,133.016159 
	C270.860931,132.615631 270.964630,132.215103 271.111328,131.496002 
	C271.154327,131.177444 271.140839,131.188553 271.353943,131.153687 
	C271.567017,131.118835 271.974792,130.976639 272.203308,131.019775 
	C272.431793,131.062912 272.895966,131.092209 272.895966,131.092209 
	C272.895966,131.092209 272.996643,131.090485 273.006287,131.041077 
z"/>
<path fill="#FDFEFE" opacity="1.000000" stroke="none" 
	d="
M244.948059,138.404160 
	C245.323120,139.036972 245.668610,140.083237 245.939865,141.701355 
	C245.728867,142.549561 245.523468,142.758392 245.249451,142.899719 
	C245.139114,141.539017 245.028793,140.178314 244.948059,138.404160 
z"/>
<path fill="#D6DCE7" opacity="1.000000" stroke="none" 
	d="
M245.404343,143.217239 
	C245.523468,142.758392 245.728867,142.549561 245.970917,142.076691 
	C246.846436,142.184540 247.616684,142.488922 248.699127,142.879547 
	C247.860641,143.155441 246.709930,143.345108 245.404343,143.217239 
z"/>
<path fill="#EBEEF3" opacity="1.000000" stroke="none" 
	d="
M264.476318,136.041458 
	C264.017517,136.115479 263.788086,136.078003 263.197083,135.669952 
	C262.687988,135.125519 262.540436,134.951660 262.392914,134.777802 
	C263.149384,134.686615 263.905823,134.595413 264.880066,134.753662 
	C264.967133,135.312057 264.836426,135.621002 264.476318,136.041458 
z"/>
<path fill="#BCC5D9" opacity="1.000000" stroke="none" 
	d="
M267.419922,137.939117 
	C267.606079,137.274857 267.998138,136.626465 268.692139,135.997314 
	C268.986847,136.417130 268.979675,136.817703 268.725983,137.576782 
	C268.479492,137.935318 268.018188,138.084061 268.018188,138.084061 
	C268.018188,138.084061 267.625824,137.954987 267.419922,137.939117 
z"/>
<path fill="#788CB4" opacity="1.000000" stroke="none" 
	d="
M272.912872,130.818451 
	C272.895966,131.092209 272.431793,131.062912 272.176025,130.759399 
	C271.634216,130.279099 271.348175,130.102310 271.090454,129.921600 
	C271.118835,129.917679 271.148834,129.868866 271.148834,129.868866 
	C271.148834,129.868866 271.099060,129.516998 271.094116,129.339996 
	C271.629395,129.272171 272.169617,129.381363 272.854675,129.745575 
	C272.976288,130.181976 272.953033,130.363342 272.912872,130.818451 
z"/>
<path fill="#788CB4" opacity="1.000000" stroke="none" 
	d="
M262.185638,134.869904 
	C262.540436,134.951660 262.687988,135.125519 262.849548,135.641113 
	C262.409241,135.997665 261.954956,136.012512 261.189880,135.885223 
	C261.245514,135.482727 261.611938,135.222382 262.185638,134.869904 
z"/>
<path fill="#14438A" opacity="1.000000" stroke="none" 
	d="
M268.130280,138.239136 
	C268.018188,138.084061 268.479492,137.935318 268.714752,137.877136 
	C268.714142,138.010696 268.478241,138.202454 268.130280,138.239136 
z"/>
<path fill="#8B9CBD" opacity="1.000000" stroke="none" 
	d="
M265.234314,138.570572 
	C264.907776,138.694672 264.651398,138.466339 264.247375,138.025543 
	C264.501282,137.948105 264.902863,138.083115 265.234314,138.570572 
z"/>
<path fill="#DAEBF4" opacity="1.000000" stroke="none" 
	d="
M204.056885,133.806519 
	C204.097427,131.730118 204.074493,129.743698 204.911377,128.233841 
	C205.195969,127.720398 208.018936,127.934692 208.988861,128.697647 
	C209.749496,129.295944 210.004807,132.114563 209.503220,132.441605 
	C208.042892,133.393753 206.089890,133.590240 204.056885,133.806519 
z"/>
<path fill="#A0CDE5" opacity="1.000000" stroke="none" 
	d="
M137.577881,52.077785 
	C139.334595,53.500988 140.795685,55.005959 143.420624,57.709751 
	C139.770493,57.709751 137.426392,57.709751 135.082291,57.709755 
	C135.815613,55.859688 136.548935,54.009621 137.577881,52.077785 
z"/>
<path fill="#BCC5D9" opacity="1.000000" stroke="none" 
	d="
M254.568512,17.066727 
	C255.283661,19.428654 255.998795,21.790579 256.956329,24.952995 
	C255.162628,24.075054 253.441223,23.232485 251.288391,22.177532 
	C250.885529,21.364365 250.914108,20.763580 251.306366,20.197706 
	C252.636215,19.177322 253.602371,18.122025 254.568512,17.066727 
z"/>
<path fill="#F1F3F7" opacity="1.000000" stroke="none" 
	d="
M224.877975,23.056822 
	C223.928284,22.589239 222.978577,22.121658 222.028885,21.654078 
	C222.761978,20.442984 223.259857,18.508841 224.279068,18.177319 
	C226.168625,17.562675 228.355240,17.892742 226.893402,21.306118 
	C225.839951,22.081577 225.358963,22.569201 224.877975,23.056822 
M224.431671,20.498098 
	C224.833023,20.192591 225.234390,19.887081 225.635742,19.581568 
	C225.101349,19.652718 224.566940,19.723867 224.431671,20.498098 
z"/>
<path fill="#214A8D" opacity="1.000000" stroke="none" 
	d="
M221.484665,11.317217 
	C222.709213,11.277132 223.599884,11.371964 224.490555,11.466795 
	C224.571503,11.808861 224.652451,12.150927 224.733414,12.492992 
	C222.792755,13.302930 220.852081,14.112866 218.911423,14.922803 
	C218.652451,14.522734 218.393478,14.122664 218.134521,13.722595 
	C219.139938,12.965775 220.145370,12.208955 221.484665,11.317217 
z"/>
<path fill="#F1F3F7" opacity="1.000000" stroke="none" 
	d="
M231.179443,20.975838 
	C231.112976,21.558062 231.046494,22.140287 230.980026,22.722511 
	C230.626648,22.759878 230.273270,22.797243 229.919876,22.834610 
	C229.306183,19.998180 228.692490,17.161751 228.078796,14.325320 
	C228.410736,14.200604 228.742676,14.075888 229.074615,13.951172 
	C229.442459,14.805528 229.810287,15.659884 230.397720,17.201828 
	C230.804703,18.918224 230.992065,19.947031 231.179443,20.975838 
z"/>
<path fill="#EDEFF4" opacity="1.000000" stroke="none" 
	d="
M235.984497,19.927660 
	C234.840591,20.413155 233.696671,20.898649 232.291199,20.798210 
	C232.103027,19.165152 232.176422,18.118023 232.249802,17.070894 
	C233.775116,16.811064 235.300446,16.551233 236.651093,16.655890 
	C236.307816,17.019783 236.139175,17.019192 235.618225,16.985912 
	C234.875153,17.343031 234.484436,17.732838 234.093704,18.122643 
	C234.721680,18.379835 235.349655,18.637030 235.980011,19.152576 
	C235.983093,19.583178 235.983795,19.755421 235.984497,19.927660 
z"/>
<path fill="#E4E8F0" opacity="1.000000" stroke="none" 
	d="
M246.173416,17.262131 
	C247.463196,16.870102 248.752960,16.478073 250.149689,16.426357 
	C250.123962,16.897558 249.991272,17.028448 249.566071,17.143105 
	C249.182251,17.747025 249.090958,18.367180 249.247833,19.059858 
	C249.661209,19.083330 249.826431,19.034279 249.962036,18.964928 
	C249.932419,18.944628 249.870926,18.907549 249.988892,19.027636 
	C250.106842,19.147722 250.114136,19.484314 250.093201,19.872631 
	C250.042603,20.518501 250.012970,20.776054 249.748810,20.870556 
	C249.007324,20.497826 248.500336,20.288147 247.993347,20.078466 
	C247.993347,20.078466 247.624390,19.875370 247.330139,19.606958 
	C246.709854,19.042049 246.383835,18.745552 246.057800,18.449055 
	C246.057800,18.449053 246.234222,18.243971 246.218597,17.946407 
	C246.202972,17.648844 246.173416,17.262131 246.173416,17.262131 
z"/>
<path fill="#033482" opacity="1.000000" stroke="none" 
	d="
M250.114136,19.484314 
	C250.114136,19.484314 250.106842,19.147722 250.302979,18.932411 
	C250.950836,18.158205 251.402573,17.599308 251.854294,17.040409 
	C252.456299,17.041494 253.058289,17.042582 254.114410,17.055199 
	C253.602371,18.122025 252.636215,19.177322 251.137360,19.981544 
	C250.441147,19.648417 250.277634,19.566364 250.114136,19.484314 
z"/>
<path fill="#2E5393" opacity="1.000000" stroke="none" 
	d="
M243.363190,21.048920 
	C243.503555,21.500471 243.468079,22.057598 243.171692,22.319813 
	C242.852661,22.602053 242.289032,22.607813 241.409515,22.161009 
	C241.963837,21.782223 242.518143,21.403439 243.363190,21.048920 
z"/>
<path fill="#F4F6F9" opacity="1.000000" stroke="none" 
	d="
M250.093201,19.872631 
	C250.277634,19.566364 250.441147,19.648417 250.773651,19.946632 
	C250.914108,20.763580 250.885529,21.364365 250.865555,22.266106 
	C249.639252,22.294937 248.404373,22.022812 247.827301,21.865303 
	C248.984512,21.664482 249.483917,21.349047 249.983322,21.033609 
	C250.012970,20.776054 250.042603,20.518501 250.093201,19.872631 
z"/>
<path fill="#033482" opacity="1.000000" stroke="none" 
	d="
M246.035614,16.985329 
	C246.173416,17.262131 246.202972,17.648844 246.144012,17.833567 
	C245.456345,17.604443 244.811737,17.210022 244.232056,16.736200 
	C244.190201,16.701994 244.621124,16.089357 244.832230,15.745667 
	C245.187424,16.066622 245.542618,16.387575 246.035614,16.985329 
z"/>
<path fill="#033482" opacity="1.000000" stroke="none" 
	d="
M231.822083,17.063385 
	C232.176422,18.118023 232.103027,19.165152 232.010757,20.606850 
	C231.991867,21.001423 231.585999,20.977730 231.382721,20.976784 
	C230.992065,19.947031 230.804703,18.918224 230.578827,17.498241 
	C230.825012,17.090002 231.109680,17.072937 231.822083,17.063385 
z"/>
<path fill="#E4E8F0" opacity="1.000000" stroke="none" 
	d="
M251.632874,16.993158 
	C251.402573,17.599308 250.950836,18.158205 250.185013,18.812325 
	C249.870926,18.907549 249.932419,18.944628 250.200317,18.800623 
	C250.426102,18.468290 250.384018,18.279961 250.202606,17.868137 
	C249.995056,17.482878 249.926819,17.321108 249.858597,17.159338 
	C249.991272,17.028448 250.123962,16.897558 250.470795,16.586479 
	C250.933075,16.578161 251.175247,16.758034 251.632874,16.993158 
z"/>
<path fill="#D0D7E4" opacity="1.000000" stroke="none" 
	d="
M235.970551,17.018600 
	C236.139175,17.019192 236.307816,17.019783 236.729095,17.008041 
	C236.864731,18.015989 236.747726,19.036270 236.307617,19.992107 
	C235.983795,19.755421 235.983093,19.583178 236.019135,18.839294 
	C236.027451,17.851305 235.998993,17.434954 235.970551,17.018600 
z"/>
<path fill="#002C7F" opacity="1.000000" stroke="none" 
	d="
M225.232086,22.997822 
	C225.358963,22.569201 225.839951,22.081577 226.634125,21.518349 
	C226.493637,21.941439 226.039917,22.440130 225.232086,22.997822 
z"/>
<path fill="#2E5393" opacity="1.000000" stroke="none" 
	d="
M249.748810,20.870556 
	C249.483917,21.349047 248.984512,21.664482 248.229965,21.756680 
	C247.973801,21.209938 247.981308,20.886635 247.995361,20.320997 
	C248.500336,20.288147 249.007324,20.497826 249.748810,20.870556 
z"/>
<path fill="#033482" opacity="1.000000" stroke="none" 
	d="
M246.152222,18.771183 
	C246.383835,18.745552 246.709854,19.042049 247.125946,19.658417 
	C246.892883,19.683294 246.569763,19.388302 246.152222,18.771183 
z"/>
<path fill="#EFEFEF" opacity="1.000000" stroke="none" 
	d="
M246.281036,83.348663 
	C246.118088,79.806061 246.118088,76.670143 246.118088,73.280624 
	C250.051346,72.567665 251.848663,74.155655 251.992249,77.851952 
	C252.140732,81.674522 251.267441,84.583664 246.281036,83.348663 
z"/>
<path fill="#92C042" opacity="1.000000" stroke="none" 
	d="
M190.846283,52.603714 
	C190.849869,52.857262 190.417419,52.958923 190.198929,52.998085 
	C190.113434,52.601120 190.246429,52.164989 190.379440,51.728859 
	C190.533859,51.935963 190.688278,52.143063 190.846283,52.603714 
z"/>
<path fill="#90BF3D" opacity="1.000000" stroke="none" 
	d="
M151.919418,92.069641 
	C151.612289,91.904671 151.494583,91.552246 151.376892,91.199821 
	C151.622818,91.159187 151.868744,91.118561 152.288330,91.280426 
	C152.344254,91.616005 152.226547,91.749092 151.919418,92.069641 
z"/>
<path fill="#95C246" opacity="1.000000" stroke="none" 
	d="
M139.200775,104.723564 
	C138.090576,104.572449 137.195496,104.159218 136.214661,103.416718 
	C137.224548,103.545456 138.320236,104.003448 139.200775,104.723564 
z"/>
<path fill="#50177D" opacity="1.000000" stroke="none" 
	d="
M20.129509,82.375259 
	C20.187065,82.191750 20.353569,82.141808 20.779831,82.114532 
	C20.772545,82.261078 20.505503,82.384949 20.129509,82.375259 
z"/>
<path fill="#6C4190" opacity="1.000000" stroke="none" 
	d="
M21.888710,79.073578 
	C21.863062,79.101891 21.728401,79.408920 21.716488,79.575974 
	C21.422646,79.807854 21.198246,79.958405 20.956230,80.386246 
	C20.276705,80.627625 19.672319,80.677437 18.763031,80.723633 
	C17.234451,78.725998 17.970512,77.943367 20.645966,78.253418 
	C21.432915,78.685867 21.692600,78.898521 21.952284,79.111183 
	C21.952284,79.111183 21.914356,79.045273 21.888710,79.073578 
z"/>
<path fill="#E1DBE7" opacity="1.000000" stroke="none" 
	d="
M21.858339,78.859535 
	C21.692600,78.898521 21.432915,78.685867 21.026768,78.256134 
	C21.175003,78.228676 21.469698,78.418282 21.858339,78.859535 
z"/>
<path fill="#EBE8F0" opacity="1.000000" stroke="none" 
	d="
M67.975395,20.384945 
	C68.078812,20.085943 68.536629,19.995485 68.769882,19.989655 
	C69.064972,21.038260 69.126808,22.092697 69.358765,23.510487 
	C69.302505,23.898769 69.076141,23.923702 68.511620,23.997082 
	C68.072968,22.925003 67.972473,21.804476 67.975395,20.384945 
z"/>
<path fill="#572282" opacity="1.000000" stroke="none" 
	d="
M78.086548,22.632221 
	C77.562546,21.863333 77.140244,20.757139 76.953423,19.401115 
	C77.522018,20.199162 77.855133,21.247040 78.086548,22.632221 
z"/>
<path fill="#20498C" opacity="1.000000" stroke="none" 
	d="
M271.162933,131.188812 
	C270.408264,131.068436 269.645020,130.936676 267.718597,130.604095 
	C269.410339,130.210327 269.958557,130.082733 270.827820,129.911987 
	C271.148834,129.868866 271.118835,129.917679 271.081787,130.239441 
	C271.076782,130.770325 271.108826,130.979431 271.140839,131.188553 
	C271.140839,131.188553 271.154327,131.177444 271.162933,131.188812 
z"/>
<path fill="#20498C" opacity="1.000000" stroke="none" 
	d="
M270.621338,133.099030 
	C270.757233,133.016159 270.789276,133.501984 270.714539,133.733658 
	C270.319122,133.743469 270.267700,133.482315 270.621338,133.099030 
z"/>
<path fill="#14438A" opacity="1.000000" stroke="none" 
	d="
M271.353943,131.153687 
	C271.108826,130.979431 271.076782,130.770325 271.053406,130.243378 
	C271.348175,130.102310 271.634216,130.279099 271.947540,130.716248 
	C271.974792,130.976639 271.567017,131.118835 271.353943,131.153687 
z"/>
<path fill="#20498C" opacity="1.000000" stroke="none" 
	d="
M224.232117,20.146559 
	C224.566940,19.723867 225.101349,19.652718 225.635742,19.581570 
	C225.234390,19.887081 224.833023,20.192591 224.232117,20.146559 
z"/>
<path fill="#5D76A5" opacity="1.000000" stroke="none" 
	d="
M235.618210,16.985912 
	C235.998993,17.434954 236.027451,17.851305 236.016754,18.580940 
	C235.349655,18.637030 234.721680,18.379835 234.093704,18.122643 
	C234.484436,17.732838 234.875153,17.343031 235.618210,16.985912 
z"/>
<path fill="#647DAB" opacity="1.000000" stroke="none" 
	d="
M249.566071,17.143105 
	C249.926819,17.321108 249.995056,17.482878 249.945007,17.963469 
	C249.551056,18.517303 249.275375,18.752319 248.999680,18.987335 
	C249.090958,18.367180 249.182251,17.747025 249.566071,17.143105 
z"/>
<path fill="#7F92B7" opacity="1.000000" stroke="none" 
	d="
M249.247833,19.059860 
	C249.275375,18.752319 249.551056,18.517303 250.084335,18.186958 
	C250.384018,18.279961 250.426102,18.468290 250.229919,18.820923 
	C249.826431,19.034279 249.661209,19.083330 249.247833,19.059860 
z"/>
</svg>