<svg version="1.1" id="Layer_1" xmlns="http://www.w3.org/2000/svg" xmlns:xlink="http://www.w3.org/1999/xlink" x="0px" y="0px"
	 width="100%" viewBox="0 0 512 512" enable-background="new 0 0 512 512" xml:space="preserve">
<path fill="#010100" opacity="1.000000" stroke="none" 
	d="
M513.000000,204.000000 
	C513.000000,307.308228 513.000000,410.116455 513.000000,512.962341 
	C342.400085,512.962341 171.800186,512.962341 1.100134,512.962341 
	C1.100134,342.441803 1.100134,171.883514 1.100134,1.162619 
	C171.666534,1.162619 342.333252,1.162619 513.000000,1.162619 
	C513.000000,68.533112 513.000000,136.016556 513.000000,204.000000 
M308.500183,298.749725 
	C297.170135,298.749725 285.839966,298.788391 274.510101,298.740692 
	C257.130066,298.667572 240.035110,296.627167 223.126633,292.350861 
	C214.959290,290.285278 206.416901,288.759491 198.027771,288.677185 
	C161.710617,288.320923 136.876877,308.101624 116.619255,335.713562 
	C117.323158,336.598358 117.589638,337.020752 117.938004,337.358734 
	C137.787369,356.615479 157.593567,375.917572 177.601898,395.007843 
	C179.070160,396.408691 182.115768,397.044006 184.239731,396.736084 
	C213.518265,392.491638 242.954117,391.943848 272.469025,392.184296 
	C302.956970,392.432678 333.453339,392.439331 363.938080,391.999451 
	C382.566467,391.730621 398.067963,385.018402 410.410583,369.904480 
	C435.060303,339.720184 460.723816,310.364014 485.950226,280.650177 
	C487.455078,278.877655 488.962372,277.069916 490.185913,275.102783 
	C494.345093,268.415863 493.646118,262.156219 488.264984,256.440094 
	C478.914795,246.507843 463.827728,246.190826 453.972412,255.903763 
	C433.561218,276.020111 413.176331,296.164398 392.972961,316.488373 
	C390.975281,318.497955 389.507690,321.728851 389.152283,324.563232 
	C386.940643,342.199677 373.090240,357.170746 355.816040,357.755981 
	C330.852386,358.601746 305.840424,358.214478 280.851868,358.010773 
	C273.446777,357.950409 269.268860,349.911835 272.740540,343.454407 
	C274.974945,339.298370 278.707367,338.046356 283.198975,338.055908 
	C305.525726,338.103241 327.852936,338.138489 350.179474,338.049805 
	C362.185242,338.002136 369.251251,330.642914 369.242310,318.536102 
	C369.233032,305.969177 362.326141,298.819733 349.988464,298.763977 
	C336.492645,298.702972 322.996307,298.749878 308.500183,298.749725 
M111.492447,469.007782 
	C117.043144,474.270020 122.593849,479.532257 128.349640,484.988922 
	C146.727158,466.120239 164.893692,447.468140 183.158371,428.715302 
	C148.779099,395.367157 114.864250,362.469482 80.800858,329.427734 
	C62.155815,348.792694 43.927505,367.724823 25.814930,386.536743 
	C26.081652,387.231476 26.113657,387.618530 26.323742,387.818939 
	C54.533340,414.729004 82.755959,441.625458 111.492447,469.007782 
M318.300018,154.544525 
	C318.300262,166.694260 318.338928,178.844208 318.278625,190.993637 
	C318.259125,194.917191 319.407623,197.299500 323.937469,197.288620 
	C355.726227,197.212219 387.515259,197.224503 419.304108,197.278366 
	C423.289978,197.285126 425.053833,195.634064 425.029938,191.606430 
	C424.939056,176.295105 425.202209,160.978256 424.885651,145.672714 
	C424.603271,132.018082 415.148132,119.925865 402.054352,116.119637 
	C399.770630,115.455788 396.793610,115.680611 394.564392,116.568520 
	C380.011139,122.365150 365.355713,123.079781 350.863342,117.079384 
	C345.648132,114.920067 341.381622,115.455231 336.758118,117.806221 
	C328.491150,122.009857 322.476471,128.346283 320.117950,137.303192 
	C318.743988,142.521042 318.856384,148.130280 318.300018,154.544525 
M266.463440,117.004509 
	C251.305481,122.841736 236.294174,122.543716 221.309814,116.215584 
	C219.530960,115.464355 217.088104,115.411057 215.200668,115.931793 
	C201.897430,119.602097 192.287003,131.239349 191.891632,145.027466 
	C191.443405,160.659271 191.742157,176.312012 191.669220,191.955429 
	C191.651489,195.758438 193.452637,197.278259 197.199783,197.272079 
	C228.987869,197.219711 260.776123,197.216385 292.564148,197.276581 
	C296.628326,197.284271 298.207642,195.506699 298.181152,191.531113 
	C298.080170,176.386719 298.279663,161.238998 298.054016,146.097183 
	C297.851685,132.522415 288.978485,120.426819 276.138397,116.384308 
	C273.466217,115.543022 270.203064,116.578781 266.463440,117.004509 
M144.627289,115.048820 
	C127.680695,122.699745 110.665627,123.446938 93.470497,115.773445 
	C92.152916,115.185463 90.238358,115.404015 88.752716,115.806557 
	C74.912704,119.556503 65.187798,131.819489 64.980560,146.169098 
	C64.766640,160.982040 64.895134,175.800201 64.910622,190.616043 
	C64.916794,196.521896 65.622986,197.236404 71.559601,197.240189 
	C102.523331,197.259964 133.487076,197.256973 164.450821,197.242157 
	C170.615295,197.239197 171.397964,196.484329 171.413666,190.383560 
	C171.449234,176.566498 171.508682,162.748627 171.402191,148.932297 
	C171.266403,131.311722 162.511475,120.023140 144.627289,115.048820 
M218.886475,90.628647 
	C228.859818,99.612709 240.405365,102.903397 253.557358,99.996117 
	C273.513092,95.584831 286.106750,75.639709 281.991486,55.113213 
	C278.105865,35.732071 258.604767,22.324718 239.103134,25.709232 
	C224.184494,28.298367 213.894363,36.792072 209.075882,51.050343 
	C204.100189,65.773849 207.657043,78.914894 218.886475,90.628647 
M81.803024,52.459412 
	C81.533066,58.539738 80.232208,64.786346 81.181259,70.670044 
	C84.370010,90.438927 104.943291,104.219139 124.566505,100.434578 
	C145.694565,96.359787 159.480621,76.675179 155.433640,56.360546 
	C151.948624,38.866814 138.075897,26.466921 120.554398,25.184359 
	C103.501923,23.936129 88.426682,34.289284 81.803024,52.459412 
M393.499573,94.072548 
	C410.057129,81.516281 414.462769,60.561306 404.126801,43.525639 
	C394.018005,26.864346 373.461975,20.552780 355.806183,28.689234 
	C335.986359,37.822952 327.915222,61.926186 338.261719,81.083099 
	C348.908325,100.795601 372.945160,106.700890 393.499573,94.072548 
z"/>
<path fill="#FECCAB" opacity="1.000000" stroke="none" 
	d="
M309.000183,298.749725 
	C322.996307,298.749878 336.492645,298.702972 349.988464,298.763977 
	C362.326141,298.819733 369.233032,305.969177 369.242310,318.536102 
	C369.251251,330.642914 362.185242,338.002136 350.179474,338.049805 
	C327.852936,338.138489 305.525726,338.103241 283.198975,338.055908 
	C278.707367,338.046356 274.974945,339.298370 272.740540,343.454407 
	C269.268860,349.911835 273.446777,357.950409 280.851868,358.010773 
	C305.840424,358.214478 330.852386,358.601746 355.816040,357.755981 
	C373.090240,357.170746 386.940643,342.199677 389.152283,324.563232 
	C389.507690,321.728851 390.975281,318.497955 392.972961,316.488373 
	C413.176331,296.164398 433.561218,276.020111 453.972412,255.903763 
	C463.827728,246.190826 478.914795,246.507843 488.264984,256.440094 
	C493.646118,262.156219 494.345093,268.415863 490.185913,275.102783 
	C488.962372,277.069916 487.455078,278.877655 485.950226,280.650177 
	C460.723816,310.364014 435.060303,339.720184 410.410583,369.904480 
	C398.067963,385.018402 382.566467,391.730621 363.938080,391.999451 
	C333.453339,392.439331 302.956970,392.432678 272.469025,392.184296 
	C242.954117,391.943848 213.518265,392.491638 184.239731,396.736084 
	C182.115768,397.044006 179.070160,396.408691 177.601898,395.007843 
	C157.593567,375.917572 137.787369,356.615479 117.938004,337.358734 
	C117.589638,337.020752 117.323158,336.598358 116.619255,335.713562 
	C136.876877,308.101624 161.710617,288.320923 198.027771,288.677185 
	C206.416901,288.759491 214.959290,290.285278 223.126633,292.350861 
	C240.035110,296.627167 257.130066,298.667572 274.510101,298.740692 
	C285.839966,298.788391 297.170135,298.749725 309.000183,298.749725 
M231.838776,342.477753 
	C231.450226,343.383728 230.943832,344.258301 230.693039,345.200928 
	C229.438858,349.914612 230.959747,353.772430 234.850876,356.479187 
	C238.451553,358.983917 242.397308,358.889343 246.026245,356.454315 
	C249.904678,353.851746 251.546783,349.760406 249.860031,345.626434 
	C248.682617,342.740723 246.013336,339.698395 243.231308,338.415131 
	C239.222076,336.565796 235.127686,338.149506 231.838776,342.477753 
z"/>
<path fill="#6AD4E0" opacity="1.000000" stroke="none" 
	d="
M111.235199,468.765137 
	C82.755959,441.625458 54.533340,414.729004 26.323742,387.818939 
	C26.113657,387.618530 26.081652,387.231476 25.814930,386.536743 
	C43.927505,367.724823 62.155815,348.792694 80.800858,329.427734 
	C114.864250,362.469482 148.779099,395.367157 183.158371,428.715302 
	C164.893692,447.468140 146.727158,466.120239 128.349640,484.988922 
	C122.593849,479.532257 117.043144,474.270020 111.235199,468.765137 
z"/>
<path fill="#FED88D" opacity="1.000000" stroke="none" 
	d="
M318.300018,154.053970 
	C318.856384,148.130280 318.743988,142.521042 320.117950,137.303192 
	C322.476471,128.346283 328.491150,122.009857 336.758118,117.806221 
	C341.381622,115.455231 345.648132,114.920067 350.863342,117.079384 
	C365.355713,123.079781 380.011139,122.365150 394.564392,116.568520 
	C396.793610,115.680611 399.770630,115.455788 402.054352,116.119637 
	C415.148132,119.925865 424.603271,132.018082 424.885651,145.672714 
	C425.202209,160.978256 424.939056,176.295105 425.029938,191.606430 
	C425.053833,195.634064 423.289978,197.285126 419.304108,197.278366 
	C387.515259,197.224503 355.726227,197.212219 323.937469,197.288620 
	C319.407623,197.299500 318.259125,194.917191 318.278625,190.993637 
	C318.338928,178.844208 318.300262,166.694260 318.300018,154.053970 
z"/>
<path fill="#FE8364" opacity="1.000000" stroke="none" 
	d="
M266.837860,116.877007 
	C270.203064,116.578781 273.466217,115.543022 276.138397,116.384308 
	C288.978485,120.426819 297.851685,132.522415 298.054016,146.097183 
	C298.279663,161.238998 298.080170,176.386719 298.181152,191.531113 
	C298.207642,195.506699 296.628326,197.284271 292.564148,197.276581 
	C260.776123,197.216385 228.987869,197.219711 197.199783,197.272079 
	C193.452637,197.278259 191.651489,195.758438 191.669220,191.955429 
	C191.742157,176.312012 191.443405,160.659271 191.891632,145.027466 
	C192.287003,131.239349 201.897430,119.602097 215.200668,115.931793 
	C217.088104,115.411057 219.530960,115.464355 221.309814,116.215584 
	C236.294174,122.543716 251.305481,122.841736 266.837860,116.877007 
z"/>
<path fill="#FEB677" opacity="1.000000" stroke="none" 
	d="
M145.017319,115.088928 
	C162.511475,120.023140 171.266403,131.311722 171.402191,148.932297 
	C171.508682,162.748627 171.449234,176.566498 171.413666,190.383560 
	C171.397964,196.484329 170.615295,197.239197 164.450821,197.242157 
	C133.487076,197.256973 102.523331,197.259964 71.559601,197.240189 
	C65.622986,197.236404 64.916794,196.521896 64.910622,190.616043 
	C64.895134,175.800201 64.766640,160.982040 64.980560,146.169098 
	C65.187798,131.819489 74.912704,119.556503 88.752716,115.806557 
	C90.238358,115.404015 92.152916,115.185463 93.470497,115.773445 
	C110.665627,123.446938 127.680695,122.699745 145.017319,115.088928 
z"/>
<path fill="#FDCCAB" opacity="1.000000" stroke="none" 
	d="
M218.627838,90.381012 
	C207.657043,78.914894 204.100189,65.773849 209.075882,51.050343 
	C213.894363,36.792072 224.184494,28.298367 239.103134,25.709232 
	C258.604767,22.324718 278.105865,35.732071 281.991486,55.113213 
	C286.106750,75.639709 273.513092,95.584831 253.557358,99.996117 
	C240.405365,102.903397 228.859818,99.612709 218.627838,90.381012 
z"/>
<path fill="#FDCCAB" opacity="1.000000" stroke="none" 
	d="
M81.892838,52.066757 
	C88.426682,34.289284 103.501923,23.936129 120.554398,25.184359 
	C138.075897,26.466921 151.948624,38.866814 155.433640,56.360546 
	C159.480621,76.675179 145.694565,96.359787 124.566505,100.434578 
	C104.943291,104.219139 84.370010,90.438927 81.181259,70.670044 
	C80.232208,64.786346 81.533066,58.539738 81.892838,52.066757 
z"/>
<path fill="#FDCCAB" opacity="1.000000" stroke="none" 
	d="
M393.213501,94.292862 
	C372.945160,106.700890 348.908325,100.795601 338.261719,81.083099 
	C327.915222,61.926186 335.986359,37.822952 355.806183,28.689234 
	C373.461975,20.552780 394.018005,26.864346 404.126801,43.525639 
	C414.462769,60.561306 410.057129,81.516281 393.213501,94.292862 
z"/>
<path fill="#040303" opacity="1.000000" stroke="none" 
	d="
M232.036194,342.151001 
	C235.127686,338.149506 239.222076,336.565796 243.231308,338.415131 
	C246.013336,339.698395 248.682617,342.740723 249.860031,345.626434 
	C251.546783,349.760406 249.904678,353.851746 246.026245,356.454315 
	C242.397308,358.889343 238.451553,358.983917 234.850876,356.479187 
	C230.959747,353.772430 229.438858,349.914612 230.693039,345.200928 
	C230.943832,344.258301 231.450226,343.383728 232.036194,342.151001 
z"/>
</svg>