<svg version="1.1" id="Layer_1" xmlns="http://www.w3.org/2000/svg" xmlns:xlink="http://www.w3.org/1999/xlink" x="0px" y="0px"
	 width="100%" viewBox="0 0 470 107" enable-background="new 0 0 470 107" xml:space="preserve">
<path fill="#FDFDFE" opacity="1.000000" stroke="none" 
	d="
M372.000000,108.000000 
	C290.979095,108.000000 209.958206,108.000000 128.570190,107.672356 
	C130.247772,104.981102 132.292480,102.617493 135.053513,99.425835 
	C131.307312,99.020996 129.243210,98.797928 127.149078,98.571625 
	C126.961021,96.278175 126.801758,94.335800 126.602646,91.907532 
	C124.428261,92.250961 122.556908,92.546532 120.769569,92.828827 
	C120.470901,95.081947 120.237640,96.841675 119.959290,98.941536 
	C111.436752,98.941536 103.130753,98.923126 94.824905,98.950241 
	C91.307976,98.961716 87.610481,98.085243 85.057922,101.916695 
	C84.483536,102.778862 82.302826,102.803223 80.858238,102.815376 
	C71.866226,102.891045 62.872559,102.910576 53.881279,102.799683 
	C52.304176,102.780228 49.867458,102.542366 49.321983,101.568459 
	C47.499088,98.313805 44.702328,98.964188 42.008011,98.954117 
	C33.085144,98.920799 24.162075,98.941544 15.212771,98.941544 
	C15.212771,75.308861 15.212771,52.401459 15.212771,29.351723 
	C50.336159,29.351723 85.194992,29.351723 119.999344,29.351723 
	C120.330086,31.068781 120.602753,32.484371 120.875107,33.898300 
	C122.933479,34.230492 124.703568,34.516159 126.475052,34.802052 
	C127.982445,24.612358 126.428406,22.771540 116.483597,22.771416 
	C83.510551,22.771000 50.537506,22.767370 17.564461,22.774214 
	C9.617398,22.775864 8.322596,24.071709 8.318046,32.054764 
	C8.306370,52.538010 8.320012,73.021278 8.303472,93.504517 
	C8.302059,95.253555 8.151372,97.002480 8.058471,99.000000 
	C5.307280,99.000000 3.153640,99.000000 1.000000,99.000000 
	C1.000000,66.357536 1.000000,33.715073 1.000000,1.039403 
	C157.666672,1.039403 314.333344,1.039403 471.000000,1.039403 
	C471.000000,8.406713 471.000000,15.734620 470.644470,23.394367 
	C468.244141,23.273172 466.201508,22.438616 464.154175,22.426865 
	C446.172516,22.323664 428.190002,22.366859 410.207764,22.367168 
	C394.223541,22.367443 378.238403,22.288963 362.256439,22.478554 
	C360.444519,22.500050 357.233643,23.862385 357.110718,24.893696 
	C356.723907,28.139223 357.479889,31.526060 357.921906,34.841061 
	C357.935394,34.942120 359.368713,34.853851 360.119202,34.853851 
	C360.774414,26.205490 360.774414,26.205183 369.604126,26.205143 
	C400.240540,26.205002 430.876953,26.205091 461.513367,26.205095 
	C463.283142,26.205095 465.052887,26.205095 466.809174,26.205095 
	C466.809174,36.634537 466.809174,46.372944 466.809174,56.605633 
	C437.879456,56.605633 409.325836,56.605633 380.668457,56.605633 
	C380.358276,61.013954 383.235504,60.118980 385.317230,60.121452 
	C411.791077,60.152889 438.264984,60.167854 464.738647,60.092815 
	C466.826782,60.086899 468.912933,59.380726 471.000000,58.999996 
	C471.000000,60.714359 471.000000,62.428715 470.653870,64.406616 
	C467.777618,64.194740 465.249084,63.316189 462.717102,63.306190 
	C436.937500,63.204361 411.157318,63.223244 385.377502,63.288502 
	C383.568329,63.293083 380.537903,62.065735 381.091736,66.292679 
	C381.370270,66.659256 381.663605,66.773659 382.422180,66.969421 
	C410.815979,67.050789 438.744507,67.050789 466.753845,67.050789 
	C466.753845,77.362350 466.753845,87.079735 466.753845,96.795776 
	C431.203247,96.795776 396.005188,96.795776 360.721954,96.795776 
	C360.437195,94.861916 360.204834,93.283951 359.972473,91.705986 
	C359.217712,91.087387 358.462952,90.468788 357.708191,89.850189 
	C357.296661,91.199005 356.806610,92.529549 356.487854,93.899971 
	C355.362732,98.737434 357.241425,101.113564 362.316284,101.116890 
	C396.626434,101.139374 430.936646,101.146637 465.246674,101.080269 
	C467.165161,101.076561 469.082245,100.376137 471.000000,100.000000 
	C471.000000,102.613892 471.000000,105.227776 471.000000,108.000000 
	C466.315857,108.000000 461.630585,108.000000 456.426849,107.585594 
	C456.170715,103.112411 453.035217,104.243790 451.044922,104.232483 
	C434.560425,104.138802 418.075134,104.179260 401.590088,104.179306 
	C392.931274,104.179329 384.272430,104.192032 375.613678,104.172409 
	C373.005432,104.166496 370.733063,104.388710 372.000000,108.000000 
M423.190735,7.183436 
	C423.137726,8.122980 423.084686,9.062525 423.108948,10.560458 
	C423.380707,10.805935 423.652496,11.051412 424.114685,11.949043 
	C427.775482,13.263957 428.846252,12.605355 429.047455,8.247883 
	C428.378815,7.553980 427.710175,6.860077 426.459869,5.918358 
	C425.590027,6.214092 424.720184,6.509825 423.967590,6.891616 
	C423.967590,6.891616 423.829712,6.845328 423.190735,7.183436 
M373.352295,50.262974 
	C369.797333,47.122623 366.658661,43.225342 362.603302,40.994778 
	C353.301727,35.878662 341.168030,38.290009 333.708038,45.888332 
	C326.140869,53.595818 324.514252,65.567223 329.702393,75.368645 
	C334.697052,84.804550 345.436462,89.986084 356.099915,88.104843 
	C373.427887,85.047836 381.781586,67.441116 373.352295,50.262974 
M103.316208,44.776596 
	C94.810692,53.297329 92.611053,63.877014 97.267159,73.871002 
	C101.573647,83.114594 111.902946,89.432968 121.315460,88.581207 
	C133.077744,87.516815 141.974503,80.231430 144.730957,69.406693 
	C147.242203,59.544903 142.938141,48.377422 134.444977,42.718296 
	C124.887840,36.350220 113.446533,36.952290 103.316208,44.776596 
M270.500000,68.802567 
	C233.074203,68.802567 195.648407,68.802567 158.222610,68.802567 
	C158.094879,69.472733 157.967133,70.142899 157.839401,70.813065 
	C159.585648,71.213104 161.331421,71.960220 163.078201,71.962570 
	C210.221115,72.026054 257.364105,72.013191 304.507111,72.013199 
	C306.226654,72.013199 307.946198,72.013206 310.160492,72.013206 
	C309.038971,73.683846 308.412323,74.617348 307.785645,75.550842 
	C308.081177,75.966484 308.376709,76.382133 308.672241,76.797775 
	C311.559692,74.877792 314.447144,72.957802 318.365448,70.352364 
	C314.593964,67.742378 311.877075,65.862206 309.160187,63.982033 
	C308.851471,64.396667 308.542755,64.811302 308.234039,65.225937 
	C308.743622,66.296623 309.253235,67.367310 309.936249,68.802414 
	C296.787231,68.802414 284.143616,68.802414 270.500000,68.802567 
M221.500000,58.067924 
	C250.808487,58.067894 280.117004,58.086075 309.425354,58.017899 
	C311.009796,58.014217 312.592529,57.286812 314.176025,56.896301 
	C314.043701,56.229706 313.911346,55.563110 313.778992,54.896515 
	C263.311920,54.896515 212.844849,54.896515 161.795288,54.896515 
	C162.737473,53.264011 163.268921,52.343197 163.800369,51.422386 
	C163.464920,50.996956 163.129486,50.571522 162.794037,50.146091 
	C160.109741,52.097198 157.425446,54.048306 153.895447,56.614113 
	C157.483887,59.092136 160.218140,60.980297 162.952377,62.868458 
	C163.229385,62.470345 163.506393,62.072227 163.783401,61.674110 
	C163.269974,60.576607 162.756546,59.479103 162.096390,58.067966 
	C181.874039,58.067966 201.187012,58.067966 221.500000,58.067924 
M406.866821,11.643278 
	C407.414825,9.397488 409.399658,6.713079 405.889343,5.423006 
	C404.797577,5.021760 402.764465,5.997311 401.755554,6.962612 
	C401.058105,7.629912 400.853546,10.134230 401.345642,10.468709 
	C402.685547,11.379442 404.512360,11.573908 406.866821,11.643278 
M50.987785,5.851251 
	C52.004807,5.297921 53.021832,4.744591 54.038853,4.191261 
	C53.741554,3.656595 53.444252,3.121929 53.146950,2.587263 
	C51.647366,3.560697 48.935425,4.489103 48.897255,5.516814 
	C48.814430,7.746870 49.608925,10.453692 51.040939,12.097945 
	C51.701481,12.856386 54.700859,11.577887 56.639774,11.222964 
	C56.574123,10.624483 56.508476,10.026002 56.442825,9.427521 
	C53.266376,10.683379 49.900352,12.275049 50.987785,5.851251 
M404.283752,79.040726 
	C404.283752,82.356796 404.283752,85.672859 404.283752,88.988930 
	C404.932037,88.979561 405.580292,88.970184 406.228577,88.960815 
	C406.228577,84.498062 406.228577,80.035309 406.228577,75.572556 
	C405.919952,75.507500 405.611328,75.442451 405.302673,75.377396 
	C404.965027,76.317657 404.627411,77.257919 404.283752,79.040726 
M398.608551,78.202820 
	C398.313446,77.259659 398.018372,76.316498 397.723297,75.373337 
	C397.421265,75.430916 397.119232,75.488495 396.817200,75.546066 
	C396.817200,80.024162 396.817200,84.502251 396.817200,88.980347 
	C397.415253,88.988579 398.013306,88.996819 398.611359,89.005051 
	C398.611359,85.686028 398.611359,82.366997 398.608551,78.202820 
M439.870026,82.519958 
	C439.707458,80.136719 439.544891,77.753487 439.382324,75.370247 
	C438.883850,75.419830 438.385345,75.469406 437.886841,75.518990 
	C437.886841,79.980377 437.886841,84.441757 437.886841,88.903145 
	C438.368652,88.918854 438.850464,88.934570 439.332245,88.950287 
	C439.511475,87.108421 439.690704,85.266556 439.870026,82.519958 
M447.902618,77.282051 
	C447.581848,76.621864 447.261078,75.961678 446.940338,75.301491 
	C446.649261,75.346626 446.358215,75.391762 446.067169,75.436905 
	C446.067169,79.888016 446.067169,84.339127 446.067169,88.790237 
	C446.682068,88.812744 447.296997,88.835251 447.911896,88.857765 
	C447.911896,85.277420 447.911896,81.697075 447.902618,77.282051 
M431.403076,79.896805 
	C431.253265,78.419189 431.103485,76.941566 430.953705,75.463943 
	C430.538757,75.496391 430.123840,75.528831 429.708893,75.561272 
	C429.708893,79.982185 429.708893,84.403099 429.708893,88.824013 
	C430.273376,88.837090 430.837891,88.850159 431.402374,88.863235 
	C431.402374,86.157433 431.402374,83.451630 431.403076,79.896805 
M439.869904,39.625198 
	C439.675446,37.971153 439.480988,36.317108 439.286530,34.663067 
	C438.818481,34.696945 438.350433,34.730824 437.882385,34.764702 
	C437.882385,39.155758 437.882385,43.546810 437.882385,47.937866 
	C438.425385,47.959633 438.968414,47.981400 439.511414,48.003166 
	C439.630890,45.518761 439.750336,43.034355 439.869904,39.625198 
M406.870819,37.806709 
	C406.590210,36.787811 406.309570,35.768913 406.028961,34.750015 
	C405.652527,34.835327 405.276093,34.920635 404.899658,35.005947 
	C404.899658,39.329697 404.899658,43.653442 404.899658,47.977192 
	C405.557404,47.988956 406.215149,48.000721 406.872894,48.012489 
	C406.872894,44.915443 406.872894,41.818398 406.870819,37.806709 
M397.439972,34.772255 
	C394.897827,39.181198 396.419647,43.589626 396.631622,47.998219 
	C397.145172,48.011650 397.658691,48.025085 398.172241,48.038517 
	C398.172241,43.778538 398.172241,39.518559 397.439972,34.772255 
M429.051575,40.535576 
	C429.190674,43.010929 429.329803,45.486282 429.468933,47.961639 
	C429.929718,47.936996 430.390533,47.912354 430.851318,47.887711 
	C430.851318,43.544731 430.851318,39.201756 430.851318,34.858776 
	C430.402374,34.813534 429.953400,34.768291 429.504456,34.723049 
	C429.353516,36.357185 429.202606,37.991325 429.051575,40.535576 
M445.657104,46.619999 
	C446.312164,46.804825 446.967255,46.989647 447.622314,47.174477 
	C447.622314,43.050701 447.622314,38.926926 447.622314,34.803150 
	C446.930237,34.798016 446.238129,34.792881 445.546051,34.787746 
	C445.546051,38.450119 445.546051,42.112495 445.657104,46.619999 
M72.049759,10.047381 
	C72.049759,8.801272 72.049759,7.555164 72.049759,6.254776 
	C69.829178,6.254776 68.113441,6.254776 65.392181,6.254776 
	C66.265152,8.571374 66.627113,10.612743 67.779312,11.995750 
	C68.175713,12.471558 70.544388,11.304235 72.049759,10.047381 
M422.943817,76.360107 
	C422.440186,76.220184 421.936523,76.080261 421.432892,75.940331 
	C421.432892,80.214020 421.432892,84.487709 421.432892,88.761398 
	C421.976013,88.748489 422.519104,88.735588 423.062225,88.722679 
	C423.062225,84.882751 423.062225,81.042831 422.943817,76.360107 
M413.429443,75.579834 
	C413.186829,79.943924 412.944244,84.308006 412.701630,88.672096 
	C413.486328,88.671738 414.270996,88.671379 415.055695,88.671028 
	C414.787750,84.353645 414.519836,80.036255 413.429443,75.579834 
M387.993622,84.330414 
	C388.204437,85.855804 388.415283,87.381187 388.626099,88.906578 
	C388.972076,88.842247 389.318024,88.777924 389.663971,88.713600 
	C389.663971,84.365273 389.663971,80.016945 389.663971,75.668617 
	C389.107300,75.647850 388.550598,75.627090 387.993927,75.606331 
	C387.993927,78.207169 387.993927,80.808006 387.993622,84.330414 
M379.949890,83.415741 
	C380.051758,85.211159 380.153595,87.006584 380.255463,88.802002 
	C380.589905,88.755486 380.924377,88.708977 381.258820,88.662460 
	C381.258820,84.323128 381.258820,79.983795 381.258820,75.644455 
	C380.822540,75.657669 380.386230,75.670883 379.949951,75.684105 
	C379.949951,77.959366 379.949951,80.234627 379.949890,83.415741 
M456.000793,84.305496 
	C456.000793,81.390205 456.000793,78.474915 456.000793,75.559624 
	C455.479279,75.585503 454.957794,75.611382 454.436279,75.637260 
	C454.436279,79.980377 454.436279,84.323486 454.436279,88.666595 
	C454.788177,88.687973 455.140045,88.709351 455.491943,88.730728 
	C455.661591,87.555641 455.831268,86.380547 456.000793,84.305496 
M379.958191,42.435307 
	C380.046387,44.233730 380.134613,46.032158 380.222809,47.830582 
	C380.576447,47.789452 380.930054,47.748322 381.283691,47.707191 
	C381.283691,43.398197 381.283691,39.089199 381.283691,34.780205 
	C380.841858,34.787807 380.399994,34.795410 379.958160,34.803013 
	C379.958160,37.045765 379.958160,39.288517 379.958191,42.435307 
M453.875061,44.271973 
	C454.057465,45.488846 454.239899,46.705719 454.422333,47.922596 
	C454.739075,47.850906 455.055817,47.779221 455.372559,47.707535 
	C455.372559,43.413246 455.372559,39.118954 455.372559,34.824665 
	C454.873260,34.824192 454.373962,34.823719 453.874664,34.823246 
	C453.874664,37.669411 453.874664,40.515579 453.875061,44.271973 
M423.047455,36.800346 
	C422.790253,36.161678 422.533020,35.523010 422.275787,34.884342 
	C422.035950,34.949966 421.796112,35.015591 421.556274,35.081215 
	C421.556274,39.311344 421.556274,43.541470 421.556274,47.771599 
	C422.058716,47.776035 422.561127,47.780468 423.063568,47.784901 
	C423.063568,44.434261 423.063568,41.083618 423.047455,36.800346 
M390.131653,42.402748 
	C390.131653,39.941608 390.131653,37.480469 390.131653,35.019329 
	C389.618500,35.046375 389.105377,35.073421 388.592224,35.100468 
	C388.592224,39.314407 388.592224,43.528347 388.592224,47.742287 
	C389.002197,47.773331 389.412170,47.804379 389.822174,47.835426 
	C389.925354,46.333973 390.028534,44.832523 390.131653,42.402748 
M414.307220,35.137005 
	C413.667603,39.283863 413.027985,43.430717 412.388367,47.577572 
	C413.199738,47.635761 414.011108,47.693951 414.822479,47.752136 
	C414.822479,43.803356 414.822479,39.854576 414.307220,35.137005 
z"/>
<path fill="#747474" opacity="1.000000" stroke="none" 
	d="
M1.000000,99.491051 
	C3.153640,99.000000 5.307280,99.000000 8.058471,99.000000 
	C8.151372,97.002480 8.302059,95.253555 8.303472,93.504517 
	C8.320012,73.021278 8.306370,52.538010 8.318046,32.054764 
	C8.322596,24.071709 9.617398,22.775864 17.564461,22.774214 
	C50.537506,22.767370 83.510551,22.771000 116.483597,22.771416 
	C126.428406,22.771540 127.982445,24.612358 126.475052,34.802052 
	C124.703568,34.516159 122.933479,34.230492 120.875107,33.898300 
	C120.602753,32.484371 120.330086,31.068781 119.999344,29.351723 
	C85.194992,29.351723 50.336159,29.351723 15.212771,29.351723 
	C15.212771,52.401459 15.212771,75.308861 15.212771,98.941544 
	C24.162075,98.941544 33.085144,98.920799 42.008011,98.954117 
	C44.702328,98.964188 47.499088,98.313805 49.321983,101.568459 
	C49.867458,102.542366 52.304176,102.780228 53.881279,102.799683 
	C62.872559,102.910576 71.866226,102.891045 80.858238,102.815376 
	C82.302826,102.803223 84.483536,102.778862 85.057922,101.916695 
	C87.610481,98.085243 91.307976,98.961716 94.824905,98.950241 
	C103.130753,98.923126 111.436752,98.941536 119.959290,98.941536 
	C120.237640,96.841675 120.470901,95.081947 120.769569,92.828827 
	C122.556908,92.546532 124.428261,92.250961 126.602646,91.907532 
	C126.801758,94.335800 126.961021,96.278175 127.149078,98.571625 
	C129.243210,98.797928 131.307312,99.020996 135.053513,99.425835 
	C132.292480,102.617493 130.247772,104.981102 128.101532,107.672356 
	C85.666664,108.000000 43.333324,108.000000 1.000000,108.000000 
	C1.000000,105.296455 1.000000,102.639275 1.000000,99.491051 
z"/>
<path fill="#797979" opacity="1.000000" stroke="none" 
	d="
M471.000000,58.531338 
	C468.912933,59.380726 466.826782,60.086899 464.738647,60.092815 
	C438.264984,60.167854 411.791077,60.152889 385.317230,60.121452 
	C383.235504,60.118980 380.358276,61.013954 380.668457,56.605633 
	C409.325836,56.605633 437.879456,56.605633 466.809174,56.605633 
	C466.809174,46.372944 466.809174,36.634537 466.809174,26.205095 
	C465.052887,26.205095 463.283142,26.205095 461.513367,26.205095 
	C430.876953,26.205091 400.240540,26.205002 369.604126,26.205143 
	C360.774414,26.205183 360.774414,26.205490 360.119202,34.853851 
	C359.368713,34.853851 357.935394,34.942120 357.921906,34.841061 
	C357.479889,31.526060 356.723907,28.139223 357.110718,24.893696 
	C357.233643,23.862385 360.444519,22.500050 362.256439,22.478554 
	C378.238403,22.288963 394.223541,22.367443 410.207764,22.367168 
	C428.190002,22.366859 446.172516,22.323664 464.154175,22.426865 
	C466.201508,22.438616 468.244141,23.273172 470.644470,23.863106 
	C471.000000,35.354229 471.000000,46.708454 471.000000,58.531338 
z"/>
<path fill="#808080" opacity="1.000000" stroke="none" 
	d="
M471.000000,99.531342 
	C469.082245,100.376137 467.165161,101.076561 465.246674,101.080269 
	C430.936646,101.146637 396.626434,101.139374 362.316284,101.116890 
	C357.241425,101.113564 355.362732,98.737434 356.487854,93.899971 
	C356.806610,92.529549 357.296661,91.199005 357.708191,89.850189 
	C358.462952,90.468788 359.217712,91.087387 359.972473,91.705986 
	C360.204834,93.283951 360.437195,94.861916 360.721954,96.795776 
	C396.005188,96.795776 431.203247,96.795776 466.753845,96.795776 
	C466.753845,87.079735 466.753845,77.362350 466.753845,67.050789 
	C438.744507,67.050789 410.815979,67.050789 382.347046,66.771164 
	C381.630951,66.251762 381.397583,66.101410 381.106567,66.040497 
	C380.537903,62.065735 383.568329,63.293083 385.377502,63.288502 
	C411.157318,63.223244 436.937500,63.204361 462.717102,63.306190 
	C465.249084,63.316189 467.777618,64.194740 470.653870,64.835075 
	C471.000000,76.354225 471.000000,87.708458 471.000000,99.531342 
z"/>
<path fill="#808080" opacity="1.000000" stroke="none" 
	d="
M372.333313,108.000000 
	C370.733063,104.388710 373.005432,104.166496 375.613678,104.172409 
	C384.272430,104.192032 392.931274,104.179329 401.590088,104.179306 
	C418.075134,104.179260 434.560425,104.138802 451.044922,104.232483 
	C453.035217,104.243790 456.170715,103.112411 455.954193,107.585594 
	C455.555542,108.000000 455.111115,108.000000 454.037781,107.705254 
	C452.765533,107.279549 452.122314,107.034637 451.478882,107.034073 
	C426.879547,107.012367 402.280212,106.998833 377.681000,107.052841 
	C376.453308,107.055542 375.226959,107.670250 374.000000,108.000000 
	C373.555542,108.000000 373.111115,108.000000 372.333313,108.000000 
z"/>
<path fill="#888888" opacity="1.000000" stroke="none" 
	d="
M374.468658,108.000000 
	C375.226959,107.670250 376.453308,107.055542 377.681000,107.052841 
	C402.280212,106.998833 426.879547,107.012367 451.478882,107.034073 
	C452.122314,107.034637 452.765533,107.279549 453.704437,107.705254 
	C427.645782,108.000000 401.291534,108.000000 374.468658,108.000000 
z"/>
<path fill="#2FA8CC" opacity="1.000000" stroke="none" 
	d="
M373.552765,50.580345 
	C381.781586,67.441116 373.427887,85.047836 356.099915,88.104843 
	C345.436462,89.986084 334.697052,84.804550 329.702393,75.368645 
	C324.514252,65.567223 326.140869,53.595818 333.708038,45.888332 
	C341.168030,38.290009 353.301727,35.878662 362.603302,40.994778 
	C366.658661,43.225342 369.797333,47.122623 373.552765,50.580345 
M362.624329,61.910030 
	C361.889160,65.921303 361.153992,69.932571 360.301605,74.583405 
	C359.620697,74.123352 359.985443,74.563622 360.379272,74.591431 
	C361.003967,74.635559 362.091766,74.579033 362.216675,74.262444 
	C363.785248,70.287460 365.606140,66.342751 366.504578,62.204086 
	C366.908539,60.343113 365.278717,58.094769 364.785645,55.972500 
	C364.012878,52.646320 362.306488,51.649342 359.835602,52.268948 
	C360.810791,55.862625 361.528076,58.505810 362.624329,61.910030 
M338.999786,70.303764 
	C339.264130,73.322502 340.437866,75.206688 344.412079,74.456429 
	C340.104065,67.136810 339.881531,60.036816 344.327515,52.883282 
	C340.579193,51.348385 339.640106,53.382202 339.035828,56.046593 
	C338.457703,58.595654 337.792511,61.124966 337.113495,63.873863 
	C337.627014,65.413902 338.306915,67.452812 338.999786,70.303764 
z"/>
<path fill="#30A8CC" opacity="1.000000" stroke="none" 
	d="
M103.596649,44.551720 
	C113.446533,36.952290 124.887840,36.350220 134.444977,42.718296 
	C142.938141,48.377422 147.242203,59.544903 144.730957,69.406693 
	C141.974503,80.231430 133.077744,87.516815 121.315460,88.581207 
	C111.902946,89.432968 101.573647,83.114594 97.267159,73.871002 
	C92.611053,63.877014 94.810692,53.297329 103.596649,44.551720 
M110.161064,68.299774 
	C108.670586,62.860081 109.129982,57.740196 112.886993,53.199627 
	C109.110847,51.966503 108.460907,52.277870 107.506767,55.504169 
	C106.869362,57.659470 105.410828,59.909096 105.689461,61.927422 
	C106.255966,66.030922 107.616409,70.053497 109.002281,73.985115 
	C109.216682,74.593353 111.299797,74.542877 113.193932,74.937805 
	C111.841240,72.334297 111.007256,70.729149 110.161064,68.299774 
M128.140152,72.543922 
	C128.706863,73.229607 129.273560,73.915283 129.840256,74.600960 
	C130.885757,73.300232 132.297592,72.146790 132.893280,70.665215 
	C133.852509,68.279457 134.273270,65.677193 134.930893,63.130119 
	C134.353592,61.146015 133.453888,58.862007 133.059006,56.493824 
	C132.555344,53.473232 131.533951,51.611423 127.340019,52.699192 
	C131.211685,59.104313 132.545670,65.490257 128.140152,72.543922 
z"/>
<path fill="#2CA8CC" opacity="1.000000" stroke="none" 
	d="
M271.000000,68.802490 
	C284.143616,68.802414 296.787231,68.802414 309.936249,68.802414 
	C309.253235,67.367310 308.743622,66.296623 308.234039,65.225937 
	C308.542755,64.811302 308.851471,64.396667 309.160187,63.982033 
	C311.877075,65.862206 314.593964,67.742378 318.365448,70.352364 
	C314.447144,72.957802 311.559692,74.877792 308.672241,76.797775 
	C308.376709,76.382133 308.081177,75.966484 307.785645,75.550842 
	C308.412323,74.617348 309.038971,73.683846 310.160492,72.013206 
	C307.946198,72.013206 306.226654,72.013199 304.507111,72.013199 
	C257.364105,72.013191 210.221115,72.026054 163.078201,71.962570 
	C161.331421,71.960220 159.585648,71.213104 157.839401,70.813065 
	C157.967133,70.142899 158.094879,69.472733 158.222610,68.802567 
	C195.648407,68.802567 233.074203,68.802567 271.000000,68.802490 
z"/>
<path fill="#26A6CA" opacity="1.000000" stroke="none" 
	d="
M221.000000,58.067947 
	C201.187012,58.067966 181.874039,58.067966 162.096390,58.067966 
	C162.756546,59.479103 163.269974,60.576607 163.783401,61.674110 
	C163.506393,62.072227 163.229385,62.470345 162.952377,62.868458 
	C160.218140,60.980297 157.483887,59.092136 153.895447,56.614113 
	C157.425446,54.048306 160.109741,52.097198 162.794037,50.146091 
	C163.129486,50.571522 163.464920,50.996956 163.800369,51.422386 
	C163.268921,52.343197 162.737473,53.264011 161.795288,54.896515 
	C212.844849,54.896515 263.311920,54.896515 313.778992,54.896515 
	C313.911346,55.563110 314.043701,56.229706 314.176025,56.896301 
	C312.592529,57.286812 311.009796,58.014217 309.425354,58.017899 
	C280.117004,58.086075 250.808487,58.067894 221.000000,58.067947 
z"/>
<path fill="#7C7C7C" opacity="1.000000" stroke="none" 
	d="
M406.506531,11.847742 
	C404.512360,11.573908 402.685547,11.379442 401.345642,10.468709 
	C400.853546,10.134230 401.058105,7.629912 401.755554,6.962612 
	C402.764465,5.997311 404.797577,5.021760 405.889343,5.423006 
	C409.399658,6.713079 407.414825,9.397488 406.506531,11.847742 
z"/>
<path fill="#7C7C7C" opacity="1.000000" stroke="none" 
	d="
M50.811752,6.226407 
	C49.900352,12.275049 53.266376,10.683379 56.442825,9.427521 
	C56.508476,10.026002 56.574123,10.624483 56.639774,11.222964 
	C54.700859,11.577887 51.701481,12.856386 51.040939,12.097945 
	C49.608925,10.453692 48.814430,7.746870 48.897255,5.516814 
	C48.935425,4.489103 51.647366,3.560697 53.146950,2.587263 
	C53.444252,3.121929 53.741554,3.656595 54.038853,4.191261 
	C53.021832,4.744591 52.004807,5.297921 50.811752,6.226407 
z"/>
<path fill="#868686" opacity="1.000000" stroke="none" 
	d="
M404.286743,78.619453 
	C404.627411,77.257919 404.965027,76.317657 405.302673,75.377396 
	C405.611328,75.442451 405.919952,75.507500 406.228577,75.572556 
	C406.228577,80.035309 406.228577,84.498062 406.228577,88.960815 
	C405.580292,88.970184 404.932037,88.979561 404.283752,88.988930 
	C404.283752,85.672859 404.283752,82.356796 404.286743,78.619453 
z"/>
<path fill="#868686" opacity="1.000000" stroke="none" 
	d="
M398.609955,78.625397 
	C398.611359,82.366997 398.611359,85.686028 398.611359,89.005051 
	C398.013306,88.996819 397.415253,88.988579 396.817200,88.980347 
	C396.817200,84.502251 396.817200,80.024162 396.817200,75.546066 
	C397.119232,75.488495 397.421265,75.430916 397.723297,75.373337 
	C398.018372,76.316498 398.313446,77.259659 398.609955,78.625397 
z"/>
<path fill="#949494" opacity="1.000000" stroke="none" 
	d="
M439.869995,82.972328 
	C439.690704,85.266556 439.511475,87.108421 439.332245,88.950287 
	C438.850464,88.934570 438.368652,88.918854 437.886841,88.903145 
	C437.886841,84.441757 437.886841,79.980377 437.886841,75.518990 
	C438.385345,75.469406 438.883850,75.419830 439.382324,75.370247 
	C439.544891,77.753487 439.707458,80.136719 439.869995,82.972328 
z"/>
<path fill="#7E7E7E" opacity="1.000000" stroke="none" 
	d="
M447.907257,77.699387 
	C447.911896,81.697075 447.911896,85.277420 447.911896,88.857765 
	C447.296997,88.835251 446.682068,88.812744 446.067169,88.790237 
	C446.067169,84.339127 446.067169,79.888016 446.067169,75.436905 
	C446.358215,75.391762 446.649261,75.346626 446.940338,75.301491 
	C447.261078,75.961678 447.581848,76.621864 447.907257,77.699387 
z"/>
<path fill="#7C7C7C" opacity="1.000000" stroke="none" 
	d="
M431.402710,80.321320 
	C431.402374,83.451630 431.402374,86.157433 431.402374,88.863235 
	C430.837891,88.850159 430.273376,88.837090 429.708893,88.824013 
	C429.708893,84.403099 429.708893,79.982185 429.708893,75.561272 
	C430.123840,75.528831 430.538757,75.496391 430.953705,75.463943 
	C431.103485,76.941566 431.253265,78.419189 431.402710,80.321320 
z"/>
<path fill="#949494" opacity="1.000000" stroke="none" 
	d="
M439.869873,40.087574 
	C439.750336,43.034355 439.630890,45.518761 439.511414,48.003166 
	C438.968414,47.981400 438.425385,47.959633 437.882385,47.937866 
	C437.882385,43.546810 437.882385,39.155758 437.882385,34.764702 
	C438.350433,34.730824 438.818481,34.696945 439.286530,34.663067 
	C439.480988,36.317108 439.675446,37.971153 439.869873,40.087574 
z"/>
<path fill="#868686" opacity="1.000000" stroke="none" 
	d="
M406.871857,38.264030 
	C406.872894,41.818398 406.872894,44.915443 406.872894,48.012489 
	C406.215149,48.000721 405.557404,47.988956 404.899658,47.977192 
	C404.899658,43.653442 404.899658,39.329697 404.899658,35.005947 
	C405.276093,34.920635 405.652527,34.835327 406.028961,34.750015 
	C406.309570,35.768913 406.590210,36.787811 406.871857,38.264030 
z"/>
<path fill="#888888" opacity="1.000000" stroke="none" 
	d="
M397.806091,35.015419 
	C398.172241,39.518559 398.172241,43.778538 398.172241,48.038517 
	C397.658691,48.025085 397.145172,48.011650 396.631622,47.998219 
	C396.419647,43.589626 394.897827,39.181198 397.806091,35.015419 
z"/>
<path fill="#7C7C7C" opacity="1.000000" stroke="none" 
	d="
M429.051636,40.080521 
	C429.202606,37.991325 429.353516,36.357185 429.504456,34.723049 
	C429.953400,34.768291 430.402374,34.813534 430.851318,34.858776 
	C430.851318,39.201756 430.851318,43.544731 430.851318,47.887711 
	C430.390533,47.912354 429.929718,47.936996 429.468933,47.961639 
	C429.329803,45.486282 429.190674,43.010929 429.051636,40.080521 
z"/>
<path fill="#7C7C7C" opacity="1.000000" stroke="none" 
	d="
M445.601562,46.197433 
	C445.546051,42.112495 445.546051,38.450119 445.546051,34.787746 
	C446.238129,34.792881 446.930237,34.798016 447.622314,34.803150 
	C447.622314,38.926926 447.622314,43.050701 447.622314,47.174477 
	C446.967255,46.989647 446.312164,46.804825 445.601562,46.197433 
z"/>
<path fill="#777777" opacity="1.000000" stroke="none" 
	d="
M72.030914,10.467462 
	C70.544388,11.304235 68.175713,12.471558 67.779312,11.995750 
	C66.627113,10.612743 66.265152,8.571374 65.392181,6.254776 
	C68.113441,6.254776 69.829178,6.254776 72.049759,6.254776 
	C72.049759,7.555164 72.049759,8.801272 72.030914,10.467462 
z"/>
<path fill="#747474" opacity="1.000000" stroke="none" 
	d="
M423.003021,76.781509 
	C423.062225,81.042831 423.062225,84.882751 423.062225,88.722679 
	C422.519104,88.735588 421.976013,88.748489 421.432892,88.761398 
	C421.432892,84.487709 421.432892,80.214020 421.432892,75.940331 
	C421.936523,76.080261 422.440186,76.220184 423.003021,76.781509 
z"/>
<path fill="#797979" opacity="1.000000" stroke="none" 
	d="
M413.840698,75.649353 
	C414.519836,80.036255 414.787750,84.353645 415.055695,88.671028 
	C414.270996,88.671379 413.486328,88.671738 412.701630,88.672096 
	C412.944244,84.308006 413.186829,79.943924 413.840698,75.649353 
z"/>
<path fill="#777777" opacity="1.000000" stroke="none" 
	d="
M387.993774,83.869629 
	C387.993927,80.808006 387.993927,78.207169 387.993927,75.606331 
	C388.550598,75.627090 389.107300,75.647850 389.663971,75.668617 
	C389.663971,80.016945 389.663971,84.365273 389.663971,88.713600 
	C389.318024,88.777924 388.972076,88.842247 388.626099,88.906578 
	C388.415283,87.381187 388.204437,85.855804 387.993774,83.869629 
z"/>
<path fill="#747474" opacity="1.000000" stroke="none" 
	d="
M379.949921,82.962814 
	C379.949951,80.234627 379.949951,77.959366 379.949951,75.684105 
	C380.386230,75.670883 380.822540,75.657669 381.258820,75.644455 
	C381.258820,79.983795 381.258820,84.323128 381.258820,88.662460 
	C380.924377,88.708977 380.589905,88.755486 380.255463,88.802002 
	C380.153595,87.006584 380.051758,85.211159 379.949921,82.962814 
z"/>
<path fill="#747474" opacity="1.000000" stroke="none" 
	d="
M456.000854,84.755478 
	C455.831268,86.380547 455.661591,87.555641 455.491943,88.730728 
	C455.140045,88.709351 454.788177,88.687973 454.436279,88.666595 
	C454.436279,84.323486 454.436279,79.980377 454.436279,75.637260 
	C454.957794,75.611382 455.479279,75.585503 456.000793,75.559624 
	C456.000793,78.474915 456.000793,81.390205 456.000854,84.755478 
z"/>
<path fill="#717171" opacity="1.000000" stroke="none" 
	d="
M379.958191,41.983288 
	C379.958160,39.288517 379.958160,37.045765 379.958160,34.803013 
	C380.399994,34.795410 380.841858,34.787807 381.283691,34.780205 
	C381.283691,39.089199 381.283691,43.398197 381.283691,47.707191 
	C380.930054,47.748322 380.576447,47.789452 380.222809,47.830582 
	C380.134613,46.032158 380.046387,44.233730 379.958191,41.983288 
z"/>
<path fill="#717171" opacity="1.000000" stroke="none" 
	d="
M453.874878,43.816856 
	C453.874664,40.515579 453.874664,37.669411 453.874664,34.823246 
	C454.373962,34.823719 454.873260,34.824192 455.372559,34.824665 
	C455.372559,39.118954 455.372559,43.413246 455.372559,47.707535 
	C455.055817,47.779221 454.739075,47.850906 454.422333,47.922596 
	C454.239899,46.705719 454.057465,45.488846 453.874878,43.816856 
z"/>
<path fill="#717171" opacity="1.000000" stroke="none" 
	d="
M423.055511,37.266663 
	C423.063568,41.083618 423.063568,44.434261 423.063568,47.784901 
	C422.561127,47.780468 422.058716,47.776035 421.556274,47.771599 
	C421.556274,43.541470 421.556274,39.311344 421.556274,35.081215 
	C421.796112,35.015591 422.035950,34.949966 422.275787,34.884342 
	C422.533020,35.523010 422.790253,36.161678 423.055511,37.266663 
z"/>
<path fill="#747474" opacity="1.000000" stroke="none" 
	d="
M390.131683,42.866913 
	C390.028534,44.832523 389.925354,46.333973 389.822174,47.835426 
	C389.412170,47.804379 389.002197,47.773331 388.592224,47.742287 
	C388.592224,43.528347 388.592224,39.314407 388.592224,35.100468 
	C389.105377,35.073421 389.618500,35.046375 390.131653,35.019329 
	C390.131653,37.480469 390.131653,39.941608 390.131683,42.866913 
z"/>
<path fill="#777777" opacity="1.000000" stroke="none" 
	d="
M414.564850,35.521400 
	C414.822479,39.854576 414.822479,43.803356 414.822479,47.752136 
	C414.011108,47.693951 413.199738,47.635761 412.388367,47.577572 
	C413.027985,43.430717 413.667603,39.283863 414.564850,35.521400 
z"/>
<path fill="#D4D4D4" opacity="1.000000" stroke="none" 
	d="
M428.925964,8.989757 
	C428.846252,12.605355 427.775482,13.263957 424.309235,11.394151 
	C425.977844,10.222757 427.451904,9.606256 428.925964,8.989757 
z"/>
<path fill="#777777" opacity="1.000000" stroke="none" 
	d="
M428.986694,8.618819 
	C427.451904,9.606256 425.977844,10.222757 424.214020,11.068073 
	C423.652496,11.051412 423.380707,10.805935 423.293945,10.028933 
	C423.595886,8.613381 423.712799,7.729355 423.829712,6.845328 
	C423.829712,6.845328 423.967590,6.891616 424.100067,6.941498 
	C424.232544,6.991380 424.655365,6.972064 424.804016,7.237815 
	C425.647858,7.300206 426.342987,7.096846 427.037598,6.711649 
	C427.037079,6.529812 427.041534,6.166164 427.041534,6.166169 
	C427.710175,6.860077 428.378815,7.553980 428.986694,8.618819 
z"/>
<path fill="#949494" opacity="1.000000" stroke="none" 
	d="
M424.655365,6.972065 
	C424.655365,6.972064 424.232544,6.991380 424.041443,6.898469 
	C424.720184,6.509825 425.590027,6.214092 426.750702,6.042261 
	C427.041534,6.166164 427.037079,6.529812 426.641296,6.725287 
	C425.715485,6.937863 425.185425,6.954964 424.655365,6.972065 
z"/>
<path fill="#949494" opacity="1.000000" stroke="none" 
	d="
M423.510223,7.014382 
	C423.712799,7.729355 423.595886,8.613381 423.255310,9.749739 
	C423.084686,9.062525 423.137726,8.122980 423.510223,7.014382 
z"/>
<path fill="#626262" opacity="1.000000" stroke="none" 
	d="
M381.091736,66.292679 
	C381.397583,66.101410 381.630951,66.251762 381.881805,66.689804 
	C381.663605,66.773659 381.370270,66.659256 381.091736,66.292679 
z"/>
<path fill="#E3F2F7" opacity="1.000000" stroke="none" 
	d="
M362.434814,61.529510 
	C361.528076,58.505810 360.810791,55.862625 359.835602,52.268948 
	C362.306488,51.649342 364.012878,52.646320 364.785645,55.972500 
	C365.278717,58.094769 366.908539,60.343113 366.504578,62.204086 
	C365.606140,66.342751 363.785248,70.287460 362.216675,74.262444 
	C362.091766,74.579033 361.003967,74.635559 360.379272,74.591431 
	C359.985443,74.563622 359.620697,74.123352 360.301605,74.583405 
	C361.153992,69.932571 361.889160,65.921303 362.434814,61.529510 
z"/>
<path fill="#E7F4F8" opacity="1.000000" stroke="none" 
	d="
M338.993286,69.897751 
	C338.306915,67.452812 337.627014,65.413902 337.113495,63.873863 
	C337.792511,61.124966 338.457703,58.595654 339.035828,56.046593 
	C339.640106,53.382202 340.579193,51.348385 344.327515,52.883282 
	C339.881531,60.036816 340.104065,67.136810 344.412079,74.456429 
	C340.437866,75.206688 339.264130,73.322502 338.993286,69.897751 
z"/>
<path fill="#E3F2F7" opacity="1.000000" stroke="none" 
	d="
M110.167175,68.711891 
	C111.007256,70.729149 111.841240,72.334297 113.193932,74.937805 
	C111.299797,74.542877 109.216682,74.593353 109.002281,73.985115 
	C107.616409,70.053497 106.255966,66.030922 105.689461,61.927422 
	C105.410828,59.909096 106.869362,57.659470 107.506767,55.504169 
	C108.460907,52.277870 109.110847,51.966503 112.886993,53.199627 
	C109.129982,57.740196 108.670586,62.860081 110.167175,68.711891 
z"/>
<path fill="#E4F3F8" opacity="1.000000" stroke="none" 
	d="
M128.443604,72.300095 
	C132.545670,65.490257 131.211685,59.104313 127.340019,52.699192 
	C131.533951,51.611423 132.555344,53.473232 133.059006,56.493824 
	C133.453888,58.862007 134.353592,61.146015 134.930893,63.130119 
	C134.273270,65.677193 133.852509,68.279457 132.893280,70.665215 
	C132.297592,72.146790 130.885757,73.300232 129.840271,74.600967 
	C129.273560,73.915283 128.706863,73.229607 128.443604,72.300095 
z"/>
<path fill="#E7F4F8" opacity="1.000000" stroke="none" 
	d="
M424.804016,7.237816 
	C425.185425,6.954964 425.715485,6.937863 426.641846,6.907124 
	C426.342987,7.096846 425.647858,7.300206 424.804016,7.237816 
z"/>
</svg>