<?xml version="1.0" standalone="no"?>
<!DOCTYPE svg PUBLIC "-//W3C//DTD SVG 20010904//EN"
 "http://www.w3.org/TR/2001/REC-SVG-20010904/DTD/svg10.dtd">
<svg version="1.0" xmlns="http://www.w3.org/2000/svg"
 width="225.000000pt" height="225.000000pt" viewBox="0 0 225.000000 225.000000"
 preserveAspectRatio="xMidYMid meet">

<g transform="translate(0.000000,225.000000) scale(0.100000,-0.100000)"
fill="#000000" stroke="none">
<path d="M542 2234 c-19 -13 -22 -24 -22 -75 l0 -59 75 0 75 0 0 55 c0 42 -5
60 -20 75 -24 24 -77 26 -108 4z"/>
<path d="M805 2225 c-20 -19 -25 -34 -25 -75 l0 -50 75 0 75 0 0 59 c0 51 -3
62 -22 75 -33 23 -75 20 -103 -9z"/>
<path d="M1070 2230 c-15 -15 -20 -33 -20 -75 l0 -55 75 0 75 0 0 55 c0 67
-22 95 -75 95 -22 0 -43 -8 -55 -20z"/>
<path d="M1342 2234 c-19 -13 -22 -24 -22 -75 l0 -59 75 0 75 0 0 50 c0 41 -5
56 -25 75 -28 29 -70 32 -103 9z"/>
<path d="M1600 2230 c-15 -15 -20 -33 -20 -75 l0 -55 75 0 75 0 0 59 c0 51 -3
62 -22 75 -31 22 -84 20 -108 -4z"/>
<path d="M357 1892 l-127 -127 0 -640 0 -640 128 -128 127 -127 640 0 640 0
128 128 127 127 0 640 0 640 -128 128 -127 127 -640 0 -640 0 -128 -128z
m1475 -59 l98 -98 0 -610 0 -610 -97 -97 -98 -98 -610 0 -610 0 -97 97 -98 98
0 610 0 610 97 97 98 98 610 0 610 0 97 -97z"/>
<path d="M462 1787 l-82 -82 0 -580 0 -580 83 -83 82 -82 580 0 580 0 83 83
82 82 0 580 0 580 -83 83 -82 82 -580 0 -580 0 -83 -83z m362 -527 c18 -6 27
-19 32 -45 8 -42 9 -40 -33 -48 -30 -6 -33 -4 -33 18 0 25 -1 25 -90 25 l-90
0 0 -85 0 -85 90 0 90 0 0 30 c0 28 2 30 28 24 40 -10 45 -18 38 -59 -5 -26
-14 -39 -32 -45 -37 -15 -214 -12 -244 3 -25 12 -25 15 -25 132 0 117 0 120
25 132 30 15 207 18 244 3z m440 0 c25 -9 26 -14 26 -80 0 -66 -1 -71 -26 -80
-14 -6 -65 -10 -114 -10 l-89 0 -3 -52 c-3 -52 -4 -53 -35 -56 l-33 -3 0 145
0 146 124 0 c69 0 136 -4 150 -10z m186 -105 l0 -115 95 0 95 0 0 115 0 115
30 0 30 0 0 -129 c0 -107 -3 -131 -17 -142 -22 -19 -266 -20 -285 -1 -13 13
-25 229 -14 258 3 8 18 14 36 14 l30 0 0 -115z"/>
<path d="M1060 1180 l0 -41 83 3 82 3 3 29 c5 39 -10 46 -95 46 l-73 0 0 -40z"/>
<path d="M16 1708 c-22 -31 -20 -84 4 -108 15 -15 33 -20 75 -20 l55 0 0 75 0
75 -59 0 c-51 0 -62 -3 -75 -22z"/>
<path d="M2100 1655 l0 -75 55 0 c42 0 60 5 75 20 24 24 26 77 4 108 -13 19
-24 22 -75 22 l-59 0 0 -75z"/>
<path d="M25 1445 c-29 -28 -32 -70 -9 -103 13 -19 24 -22 75 -22 l59 0 0 75
0 75 -50 0 c-41 0 -56 -5 -75 -25z"/>
<path d="M2100 1395 l0 -75 59 0 c51 0 62 3 75 22 23 33 20 75 -9 103 -19 20
-34 25 -75 25 l-50 0 0 -75z"/>
<path d="M20 1180 c-12 -12 -20 -33 -20 -55 0 -53 28 -75 95 -75 l55 0 0 75 0
75 -55 0 c-42 0 -60 -5 -75 -20z"/>
<path d="M2100 1125 l0 -75 55 0 c67 0 95 22 95 75 0 53 -28 75 -95 75 l-55 0
0 -75z"/>
<path d="M16 908 c-23 -33 -20 -75 9 -103 19 -20 34 -25 75 -25 l50 0 0 75 0
75 -59 0 c-51 0 -62 -3 -75 -22z"/>
<path d="M2100 855 l0 -75 50 0 c41 0 56 5 75 25 29 28 32 70 9 103 -13 19
-24 22 -75 22 l-59 0 0 -75z"/>
<path d="M20 650 c-24 -24 -26 -77 -4 -108 13 -19 24 -22 75 -22 l59 0 0 75 0
75 -55 0 c-42 0 -60 -5 -75 -20z"/>
<path d="M2100 595 l0 -75 59 0 c51 0 62 3 75 22 22 31 20 84 -4 108 -15 15
-33 20 -75 20 l-55 0 0 -75z"/>
<path d="M520 91 c0 -51 3 -62 22 -75 31 -22 84 -20 108 4 15 15 20 33 20 75
l0 55 -75 0 -75 0 0 -59z"/>
<path d="M780 100 c0 -41 5 -56 25 -75 28 -29 70 -32 103 -9 19 13 22 24 22
75 l0 59 -75 0 -75 0 0 -50z"/>
<path d="M1050 95 c0 -67 22 -95 75 -95 53 0 75 28 75 95 l0 55 -75 0 -75 0 0
-55z"/>
<path d="M1320 91 c0 -51 3 -62 22 -75 33 -23 75 -20 103 9 20 19 25 34 25 75
l0 50 -75 0 -75 0 0 -59z"/>
<path d="M1580 95 c0 -42 5 -60 20 -75 24 -24 77 -26 108 -4 19 13 22 24 22
75 l0 59 -75 0 -75 0 0 -55z"/>
</g>
</svg>
