<svg version="1.1" id="Layer_1" xmlns="http://www.w3.org/2000/svg" xmlns:xlink="http://www.w3.org/1999/xlink" x="0px" y="0px"
	 width="100%" viewBox="0 0 512 512" enable-background="new 0 0 512 512" xml:space="preserve">
<path fill="#000000" opacity="1.000000" stroke="none" 
	d="
M301.000000,513.000000 
	C271.645782,513.000000 242.291550,513.000000 212.301895,512.591553 
	C193.337097,510.789062 174.999405,509.494232 156.681870,507.959015 
	C147.583557,507.196472 138.438812,506.465302 129.463043,504.881409 
	C114.696426,502.275757 99.920135,499.506104 85.386063,495.857086 
	C67.351852,491.329224 49.390282,486.266327 34.011703,475.009521 
	C25.053349,468.452209 19.927870,460.125061 19.936922,448.582703 
	C20.037155,320.772949 19.977955,192.963074 20.095572,65.153351 
	C20.099518,60.867519 20.714159,56.228760 22.424593,52.365738 
	C27.139833,41.716343 36.730453,35.715706 46.704540,31.338837 
	C58.236847,26.278183 70.523102,22.929930 82.499023,18.888597 
	C87.596336,17.168484 92.898865,19.162010 93.984055,23.085909 
	C95.418770,28.273670 93.165924,32.173111 87.569916,33.982941 
	C82.237854,35.707413 76.839638,37.231457 71.529846,39.019825 
	C60.367104,42.779495 49.343334,46.791676 40.330727,54.871632 
	C36.098137,58.666210 35.523712,62.445652 39.760872,66.125870 
	C43.527607,69.397484 47.523972,72.650635 51.937469,74.890121 
	C73.711349,85.938553 97.442055,90.637421 121.173286,94.853905 
	C138.447388,97.923111 155.912964,100.121651 173.378189,101.848259 
	C189.903366,103.481941 206.536774,104.776009 223.127213,104.831245 
	C254.128342,104.934479 285.175140,106.311783 316.129242,103.048721 
	C325.431244,102.068130 334.829132,101.976852 344.121735,100.932190 
	C359.638428,99.187836 375.228943,97.669319 390.561249,94.829483 
	C408.102386,91.580536 425.582825,87.649635 442.732056,82.760773 
	C454.587463,79.381058 466.317535,74.788643 475.182678,65.320389 
	C477.764130,62.563293 477.924713,59.863586 475.577301,57.062782 
	C468.355103,48.445618 458.133392,44.870262 448.132874,41.001469 
	C426.974609,32.816216 404.745148,28.768589 382.519928,25.197786 
	C364.337738,22.276558 345.905762,20.849072 327.555084,19.061544 
	C317.251770,18.057901 306.888428,17.103870 296.552643,17.109499 
	C268.638397,17.124702 240.717316,17.388050 212.813126,18.104603 
	C196.546509,18.522310 180.294998,19.840620 164.061340,21.077272 
	C157.441254,21.581575 150.895950,23.014246 144.299072,23.892607 
	C138.322968,24.688311 132.338150,25.542402 126.328804,25.925758 
	C121.397545,26.240341 118.159073,23.002405 118.000107,18.370131 
	C117.836868,13.613219 120.743454,10.440453 125.592499,9.990024 
	C128.674515,9.703734 131.750702,9.346193 134.823730,8.973106 
	C151.154846,6.990401 167.458481,4.735596 183.824219,3.101848 
	C192.851578,2.200673 201.983322,2.360660 211.064423,1.960813 
	C212.055130,1.917191 213.022049,1.333295 214.000000,0.999997 
	C242.354233,1.000000 270.708466,1.000000 299.698334,1.408616 
	C311.664825,2.544797 323.002258,3.183749 334.324707,4.024057 
	C346.416748,4.921478 358.571655,5.462668 370.559052,7.152904 
	C385.277374,9.228203 399.890411,12.132714 414.476807,15.040744 
	C434.821320,19.096737 454.811493,24.280043 473.133453,34.555134 
	C486.654053,42.137581 494.433014,52.368046 494.200714,68.960533 
	C493.601257,111.782150 494.000000,154.617737 494.000000,197.447754 
	C494.000000,281.274567 494.021149,365.101410 493.966583,448.928192 
	C493.961212,457.140747 491.581573,464.265747 485.340576,470.390015 
	C475.292358,480.250275 462.809052,485.822113 449.993134,489.660461 
	C431.385773,495.233337 412.243195,499.217926 393.133942,502.855927 
	C376.712524,505.982239 360.065033,508.126556 343.429230,509.855896 
	C330.166565,511.234619 316.770020,511.317932 303.436249,512.037964 
	C302.609283,512.082642 301.811401,512.666809 301.000000,513.000000 
M372.270844,375.997498 
	C370.937622,375.998718 369.591614,375.879608 368.273102,376.019562 
	C352.850189,377.656555 337.461792,379.743164 322.003204,380.884369 
	C306.036713,382.063110 290.000214,382.934052 273.999512,382.857452 
	C250.659653,382.745636 227.315720,381.877899 203.990555,380.918182 
	C190.718246,380.372070 177.446045,379.320496 164.234985,377.919647 
	C148.708633,376.273254 133.121887,374.680267 117.793808,371.818787 
	C100.897064,368.664490 84.085289,364.713501 67.579735,359.926178 
	C56.692520,356.768402 46.411167,351.521759 36.000004,347.268188 
	C36.000004,380.911194 35.903938,415.076477 36.165798,449.239044 
	C36.189030,452.269867 37.903469,455.830078 39.932682,458.203949 
	C46.690205,466.109253 56.346550,469.432281 65.701042,472.971039 
	C93.857643,483.622559 123.491852,487.708069 153.042633,491.869263 
	C167.775970,493.943939 182.682220,494.932709 197.543198,495.913574 
	C209.100143,496.676331 220.709579,496.986969 232.293045,496.933136 
	C256.212067,496.821930 280.137665,496.611481 304.044159,495.894714 
	C318.148804,495.471771 332.231232,494.113770 346.306183,492.962738 
	C356.236023,492.150696 366.198975,491.384705 376.034332,489.867096 
	C388.322083,487.971069 400.512512,485.417328 412.711609,482.980682 
	C431.050385,479.317719 448.898376,474.165161 465.440948,465.144196 
	C473.784332,460.594391 478.430725,454.639069 478.220367,444.151794 
	C477.602234,413.332397 478.000000,382.492645 478.000000,351.660858 
	C478.000000,349.922455 478.000000,348.184052 478.000000,347.541992 
	C465.916565,352.242462 454.124237,357.820587 441.752380,361.390137 
	C426.469574,365.799561 410.724457,368.629974 395.140350,371.961365 
	C387.868439,373.515869 380.505341,374.643799 372.270844,375.997498 
M121.338356,111.002708 
	C114.193970,109.668877 106.943413,108.742889 99.927315,106.916275 
	C85.340591,103.118660 70.767220,99.191681 56.412086,94.616005 
	C49.399704,92.380814 42.888863,88.572174 36.000000,85.406326 
	C36.000000,118.535118 36.266617,151.368683 35.832302,184.192978 
	C35.707241,193.644669 40.024708,199.010391 47.591061,203.199081 
	C71.403580,216.381638 97.629135,221.436768 123.992081,225.933548 
	C134.246384,227.682632 144.613159,228.815430 154.955414,229.994873 
	C167.775726,231.456924 180.608109,232.862411 193.464584,233.943527 
	C204.612518,234.880981 215.799942,235.855789 226.972412,235.885574 
	C248.222153,235.942261 269.482788,235.614532 290.721649,234.918564 
	C308.489502,234.336349 326.237335,233.076035 343.984558,231.964233 
	C351.331116,231.503967 358.713928,231.035294 365.973297,229.891602 
	C381.153870,227.500000 396.314117,224.914230 411.389435,221.936127 
	C430.829468,218.095795 449.808746,212.613083 467.239441,202.902115 
	C474.307587,198.964340 478.484131,193.363251 478.187073,184.249924 
	C477.568451,165.271683 478.000000,146.259216 478.000000,127.260803 
	C478.000000,113.337196 478.000000,99.413589 478.000000,85.041122 
	C475.872589,86.142288 474.161835,86.994102 472.483521,87.905586 
	C470.650146,88.901283 468.917480,90.111481 467.019379,90.954628 
	C446.030670,100.278015 423.868164,105.821823 401.416504,109.807549 
	C381.418121,113.357750 361.196533,115.943359 340.968292,117.822365 
	C321.455231,119.634941 301.815277,120.600334 282.217316,120.847160 
	C257.974854,121.152489 233.717270,120.387878 209.468231,119.969337 
	C201.379883,119.829727 193.294998,119.386063 185.213806,118.977234 
	C180.789749,118.753418 176.361313,118.446350 171.961716,117.942383 
	C161.119370,116.700394 150.280029,115.415977 139.464508,113.962364 
	C133.693283,113.186707 127.973991,112.024750 121.338356,111.002708 
M120.662201,241.997330 
	C114.181717,240.665619 107.610535,239.667664 101.238647,237.936295 
	C85.466469,233.650711 69.697258,229.309814 54.111622,224.404114 
	C47.951965,222.465317 42.282482,218.969223 36.374561,216.175003 
	C36.233578,216.553360 36.030632,216.843872 36.030464,217.134506 
	C36.010582,251.460770 35.881584,285.788239 36.211124,320.111328 
	C36.240841,323.206604 38.452431,327.507019 40.998962,329.122437 
	C48.668549,333.987640 56.725281,338.492371 65.134041,341.894440 
	C87.989838,351.141632 112.225876,355.209076 136.427917,358.832886 
	C154.976227,361.610168 173.700485,363.412018 192.406982,364.873016 
	C208.694839,366.145111 225.062820,366.680634 241.403854,366.893677 
	C255.313553,367.075043 269.239838,366.460968 283.150421,365.964539 
	C297.324646,365.458679 311.507812,364.934875 325.651672,363.923676 
	C339.341858,362.944916 353.055725,361.818237 366.634766,359.883240 
	C384.243927,357.373871 401.862427,354.608307 419.230957,350.824280 
	C435.983917,347.174377 452.527527,342.504639 467.418304,333.293762 
	C474.167480,329.118958 478.206055,324.326019 478.122620,315.805115 
	C477.814270,284.314453 478.000000,252.818954 478.000000,221.325287 
	C478.000000,219.588669 478.000000,217.852051 478.000000,215.561478 
	C476.547791,216.279114 475.825989,216.560318 475.181915,216.965179 
	C461.523926,225.550888 446.288788,230.375397 430.814911,233.797867 
	C410.472443,238.297195 389.864044,241.699356 369.265320,244.899216 
	C354.610992,247.175644 339.809418,248.637589 325.025970,249.909531 
	C312.227631,251.010666 299.364227,251.835007 286.526031,251.885864 
	C265.279419,251.970062 244.025803,251.494400 222.783081,250.946594 
	C207.940948,250.563858 193.106201,249.773651 178.279709,248.956116 
	C170.598923,248.532608 162.912170,247.897430 155.283539,246.923691 
	C144.015656,245.485413 132.797134,243.660233 120.662201,241.997330 
z"/>
<path fill="#FFFFFF" opacity="1.000000" stroke="none" 
	d="
M213.531342,0.999997 
	C213.022049,1.333295 212.055130,1.917191 211.064423,1.960813 
	C201.983322,2.360660 192.851578,2.200673 183.824219,3.101848 
	C167.458481,4.735596 151.154846,6.990401 134.823730,8.973106 
	C131.750702,9.346193 128.674515,9.703734 125.592499,9.990024 
	C120.743454,10.440453 117.836868,13.613219 118.000107,18.370131 
	C118.159073,23.002405 121.397545,26.240341 126.328804,25.925758 
	C132.338150,25.542402 138.322968,24.688311 144.299072,23.892607 
	C150.895950,23.014246 157.441254,21.581575 164.061340,21.077272 
	C180.294998,19.840620 196.546509,18.522310 212.813126,18.104603 
	C240.717316,17.388050 268.638397,17.124702 296.552643,17.109499 
	C306.888428,17.103870 317.251770,18.057901 327.555084,19.061544 
	C345.905762,20.849072 364.337738,22.276558 382.519928,25.197786 
	C404.745148,28.768589 426.974609,32.816216 448.132874,41.001469 
	C458.133392,44.870262 468.355103,48.445618 475.577301,57.062782 
	C477.924713,59.863586 477.764130,62.563293 475.182678,65.320389 
	C466.317535,74.788643 454.587463,79.381058 442.732056,82.760773 
	C425.582825,87.649635 408.102386,91.580536 390.561249,94.829483 
	C375.228943,97.669319 359.638428,99.187836 344.121735,100.932190 
	C334.829132,101.976852 325.431244,102.068130 316.129242,103.048721 
	C285.175140,106.311783 254.128342,104.934479 223.127213,104.831245 
	C206.536774,104.776009 189.903366,103.481941 173.378189,101.848259 
	C155.912964,100.121651 138.447388,97.923111 121.173286,94.853905 
	C97.442055,90.637421 73.711349,85.938553 51.937469,74.890121 
	C47.523972,72.650635 43.527607,69.397484 39.760872,66.125870 
	C35.523712,62.445652 36.098137,58.666210 40.330727,54.871632 
	C49.343334,46.791676 60.367104,42.779495 71.529846,39.019825 
	C76.839638,37.231457 82.237854,35.707413 87.569916,33.982941 
	C93.165924,32.173111 95.418770,28.273670 93.984055,23.085909 
	C92.898865,19.162010 87.596336,17.168484 82.499023,18.888597 
	C70.523102,22.929930 58.236847,26.278183 46.704540,31.338837 
	C36.730453,35.715706 27.139833,41.716343 22.424593,52.365738 
	C20.714159,56.228760 20.099518,60.867519 20.095572,65.153351 
	C19.977955,192.963074 20.037155,320.772949 19.936922,448.582703 
	C19.927870,460.125061 25.053349,468.452209 34.011703,475.009521 
	C49.390282,486.266327 67.351852,491.329224 85.386063,495.857086 
	C99.920135,499.506104 114.696426,502.275757 129.463043,504.881409 
	C138.438812,506.465302 147.583557,507.196472 156.681870,507.959015 
	C174.999405,509.494232 193.337097,510.789062 211.833237,512.591553 
	C141.699554,513.000000 71.399101,513.000000 1.049325,513.000000 
	C1.049325,342.446014 1.049325,171.892029 1.049325,1.000000 
	C71.687202,1.000000 142.374939,1.000000 213.531342,0.999997 
z"/>
<path fill="#FFFFFF" opacity="1.000000" stroke="none" 
	d="
M301.468658,513.000000 
	C301.811401,512.666809 302.609283,512.082642 303.436249,512.037964 
	C316.770020,511.317932 330.166565,511.234619 343.429230,509.855896 
	C360.065033,508.126556 376.712524,505.982239 393.133942,502.855927 
	C412.243195,499.217926 431.385773,495.233337 449.993134,489.660461 
	C462.809052,485.822113 475.292358,480.250275 485.340576,470.390015 
	C491.581573,464.265747 493.961212,457.140747 493.966583,448.928192 
	C494.021149,365.101410 494.000000,281.274567 494.000000,197.447754 
	C494.000000,154.617737 493.601257,111.782150 494.200714,68.960533 
	C494.433014,52.368046 486.654053,42.137581 473.133453,34.555134 
	C454.811493,24.280043 434.821320,19.096737 414.476807,15.040744 
	C399.890411,12.132714 385.277374,9.228203 370.559052,7.152904 
	C358.571655,5.462668 346.416748,4.921478 334.324707,4.024057 
	C323.002258,3.183749 311.664825,2.544797 300.166992,1.408616 
	C370.966858,1.000000 441.933716,1.000000 512.950317,1.000000 
	C512.950317,171.553818 512.950317,342.107666 512.950317,513.000000 
	C442.646149,513.000000 372.291718,513.000000 301.468658,513.000000 
z"/>
<path fill="#FFFFFF" opacity="1.000000" stroke="none" 
	d="
M372.727234,375.981262 
	C380.505341,374.643799 387.868439,373.515869 395.140350,371.961365 
	C410.724457,368.629974 426.469574,365.799561 441.752380,361.390137 
	C454.124237,357.820587 465.916565,352.242462 478.000000,347.541992 
	C478.000000,348.184052 478.000000,349.922455 478.000000,351.660858 
	C478.000000,382.492645 477.602234,413.332397 478.220367,444.151794 
	C478.430725,454.639069 473.784332,460.594391 465.440948,465.144196 
	C448.898376,474.165161 431.050385,479.317719 412.711609,482.980682 
	C400.512512,485.417328 388.322083,487.971069 376.034332,489.867096 
	C366.198975,491.384705 356.236023,492.150696 346.306183,492.962738 
	C332.231232,494.113770 318.148804,495.471771 304.044159,495.894714 
	C280.137665,496.611481 256.212067,496.821930 232.293045,496.933136 
	C220.709579,496.986969 209.100143,496.676331 197.543198,495.913574 
	C182.682220,494.932709 167.775970,493.943939 153.042633,491.869263 
	C123.491852,487.708069 93.857643,483.622559 65.701042,472.971039 
	C56.346550,469.432281 46.690205,466.109253 39.932682,458.203949 
	C37.903469,455.830078 36.189030,452.269867 36.165798,449.239044 
	C35.903938,415.076477 36.000004,380.911194 36.000004,347.268188 
	C46.411167,351.521759 56.692520,356.768402 67.579735,359.926178 
	C84.085289,364.713501 100.897064,368.664490 117.793808,371.818787 
	C133.121887,374.680267 148.708633,376.273254 164.234985,377.919647 
	C177.446045,379.320496 190.718246,380.372070 203.990555,380.918182 
	C227.315720,381.877899 250.659653,382.745636 273.999512,382.857452 
	C290.000214,382.934052 306.036713,382.063110 322.003204,380.884369 
	C337.461792,379.743164 352.850189,377.656555 368.273102,376.019562 
	C369.591614,375.879608 370.937622,375.998718 372.727234,375.981262 
M100.634415,432.997589 
	C101.134033,432.999023 101.646431,432.927551 102.131416,433.012543 
	C117.258698,435.662170 132.326431,438.731537 147.525284,440.869110 
	C161.104416,442.778900 174.808792,443.922241 188.492950,444.926147 
	C202.129807,445.926605 215.804825,446.499481 229.473404,446.942261 
	C238.789948,447.244080 248.124176,447.006683 257.450500,446.997681 
	C263.858398,446.991486 266.965698,444.447327 267.000000,439.211182 
	C267.036865,433.583374 264.024811,431.095825 257.373535,430.984283 
	C240.299744,430.697937 223.225861,430.389435 206.155014,429.969177 
	C200.235703,429.823486 194.304565,429.529022 188.414902,428.941071 
	C176.572403,427.758820 164.737000,426.466675 152.931946,424.959320 
	C142.153229,423.583008 131.408356,421.928040 120.667473,420.273224 
	C112.040154,418.944061 103.454071,417.346130 94.824455,416.033325 
	C89.983170,415.296875 87.883827,418.739685 87.139084,422.531616 
	C86.363159,426.482330 88.682762,429.464508 92.376144,430.939453 
	C94.734093,431.881073 97.297585,432.308044 100.634415,432.997589 
M409.916168,450.605469 
	C426.066223,442.110077 428.718384,422.604340 421.926483,409.912323 
	C412.878052,393.003601 389.324646,390.262848 376.284210,401.996338 
	C363.401611,413.587769 362.838074,433.152039 374.479095,444.939819 
	C384.564392,455.152283 396.350372,456.411255 409.916168,450.605469 
M301.764954,430.000000 
	C299.716431,430.380249 297.504730,430.393738 295.653473,431.217407 
	C291.843201,432.912720 291.012787,436.641083 292.206024,439.958344 
	C293.057709,442.326080 295.774536,445.664703 297.731781,445.714539 
	C307.255829,445.956879 316.805969,445.272705 326.342896,444.830505 
	C328.433807,444.733551 330.500946,444.198486 332.592194,444.017548 
	C337.057007,443.631317 339.940826,440.490265 340.016510,435.992035 
	C340.102570,430.876282 336.548035,427.297913 327.582001,428.007690 
	C319.279816,428.664948 310.978668,429.335358 301.764954,430.000000 
z"/>
<path fill="#FFFFFF" opacity="1.000000" stroke="none" 
	d="
M121.784805,111.019920 
	C127.973991,112.024750 133.693283,113.186707 139.464508,113.962364 
	C150.280029,115.415977 161.119370,116.700394 171.961716,117.942383 
	C176.361313,118.446350 180.789749,118.753418 185.213806,118.977234 
	C193.294998,119.386063 201.379883,119.829727 209.468231,119.969337 
	C233.717270,120.387878 257.974854,121.152489 282.217316,120.847160 
	C301.815277,120.600334 321.455231,119.634941 340.968292,117.822365 
	C361.196533,115.943359 381.418121,113.357750 401.416504,109.807549 
	C423.868164,105.821823 446.030670,100.278015 467.019379,90.954628 
	C468.917480,90.111481 470.650146,88.901283 472.483521,87.905586 
	C474.161835,86.994102 475.872589,86.142288 478.000000,85.041122 
	C478.000000,99.413589 478.000000,113.337196 478.000000,127.260803 
	C478.000000,146.259216 477.568451,165.271683 478.187073,184.249924 
	C478.484131,193.363251 474.307587,198.964340 467.239441,202.902115 
	C449.808746,212.613083 430.829468,218.095795 411.389435,221.936127 
	C396.314117,224.914230 381.153870,227.500000 365.973297,229.891602 
	C358.713928,231.035294 351.331116,231.503967 343.984558,231.964233 
	C326.237335,233.076035 308.489502,234.336349 290.721649,234.918564 
	C269.482788,235.614532 248.222153,235.942261 226.972412,235.885574 
	C215.799942,235.855789 204.612518,234.880981 193.464584,233.943527 
	C180.608109,232.862411 167.775726,231.456924 154.955414,229.994873 
	C144.613159,228.815430 134.246384,227.682632 123.992081,225.933548 
	C97.629135,221.436768 71.403580,216.381638 47.591061,203.199081 
	C40.024708,199.010391 35.707241,193.644669 35.832302,184.192978 
	C36.266617,151.368683 36.000000,118.535118 36.000000,85.406326 
	C42.888863,88.572174 49.399704,92.380814 56.412086,94.616005 
	C70.767220,99.191681 85.340591,103.118660 99.927315,106.916275 
	C106.943413,108.742889 114.193970,109.668877 121.784805,111.019920 
M146.726578,164.997513 
	C145.478516,164.665604 144.247040,164.239914 142.979874,164.016129 
	C128.171860,161.400772 113.337341,158.928894 98.556953,156.166870 
	C92.674767,155.067688 88.597862,157.045044 87.212296,162.429382 
	C86.191353,166.396790 89.772614,170.964706 94.919060,171.978775 
	C103.783012,173.725296 112.622650,175.704300 121.561897,176.937714 
	C142.515564,179.828827 163.497818,182.553741 184.517532,184.908188 
	C195.126160,186.096497 205.842117,186.904892 216.508377,186.892319 
	C248.914505,186.854126 281.321625,186.430542 313.724548,185.917587 
	C320.380859,185.812210 327.052948,184.888824 333.656464,183.923279 
	C337.824829,183.313812 340.523010,180.542023 339.908447,176.107864 
	C339.310669,171.794815 337.509430,168.557602 332.096588,168.939865 
	C319.943542,169.798111 307.767426,170.894363 295.601074,170.890060 
	C263.528381,170.878738 231.455338,170.370041 199.383713,169.960251 
	C194.296799,169.895264 189.201797,169.460373 184.135971,168.945953 
	C171.963089,167.709793 159.805313,166.324783 146.726578,164.997513 
M372.025360,184.284729 
	C373.038483,185.378845 373.980042,186.551117 375.075989,187.554825 
	C384.780151,196.442245 398.488342,199.184265 410.826050,191.947113 
	C423.720673,184.383316 427.824280,170.801849 424.521515,158.316635 
	C420.836304,144.385620 408.899628,135.385880 392.740234,136.969254 
	C381.474396,138.073166 373.277283,143.688187 368.763397,153.865601 
	C364.204865,164.143677 364.957794,174.287827 372.025360,184.284729 
z"/>
<path fill="#FFFFFF" opacity="1.000000" stroke="none" 
	d="
M121.109901,241.998566 
	C132.797134,243.660233 144.015656,245.485413 155.283539,246.923691 
	C162.912170,247.897430 170.598923,248.532608 178.279709,248.956116 
	C193.106201,249.773651 207.940948,250.563858 222.783081,250.946594 
	C244.025803,251.494400 265.279419,251.970062 286.526031,251.885864 
	C299.364227,251.835007 312.227631,251.010666 325.025970,249.909531 
	C339.809418,248.637589 354.610992,247.175644 369.265320,244.899216 
	C389.864044,241.699356 410.472443,238.297195 430.814911,233.797867 
	C446.288788,230.375397 461.523926,225.550888 475.181915,216.965179 
	C475.825989,216.560318 476.547791,216.279114 478.000000,215.561478 
	C478.000000,217.852051 478.000000,219.588669 478.000000,221.325287 
	C478.000000,252.818954 477.814270,284.314453 478.122620,315.805115 
	C478.206055,324.326019 474.167480,329.118958 467.418304,333.293762 
	C452.527527,342.504639 435.983917,347.174377 419.230957,350.824280 
	C401.862427,354.608307 384.243927,357.373871 366.634766,359.883240 
	C353.055725,361.818237 339.341858,362.944916 325.651672,363.923676 
	C311.507812,364.934875 297.324646,365.458679 283.150421,365.964539 
	C269.239838,366.460968 255.313553,367.075043 241.403854,366.893677 
	C225.062820,366.680634 208.694839,366.145111 192.406982,364.873016 
	C173.700485,363.412018 154.976227,361.610168 136.427917,358.832886 
	C112.225876,355.209076 87.989838,351.141632 65.134041,341.894440 
	C56.725281,338.492371 48.668549,333.987640 40.998962,329.122437 
	C38.452431,327.507019 36.240841,323.206604 36.211124,320.111328 
	C35.881584,285.788239 36.010582,251.460770 36.030464,217.134506 
	C36.030632,216.843872 36.233578,216.553360 36.374561,216.175003 
	C42.282482,218.969223 47.951965,222.465317 54.111622,224.404114 
	C69.697258,229.309814 85.466469,233.650711 101.238647,237.936295 
	C107.610535,239.667664 114.181717,240.665619 121.109901,241.998566 
M199.310654,314.000000 
	C219.476547,314.666656 239.638687,315.534729 259.809998,315.912048 
	C269.383484,316.091095 278.976837,315.389801 288.556976,314.986908 
	C303.223816,314.370056 317.888275,313.692169 332.550995,312.984039 
	C337.058136,312.766357 340.005096,309.507599 339.999908,304.986633 
	C339.994720,300.465546 337.041962,297.102814 332.524658,297.069824 
	C329.277405,297.046143 326.032654,297.821381 322.774353,297.972321 
	C307.109985,298.698151 291.444397,299.782257 275.773529,299.887115 
	C255.863297,300.020355 235.946411,299.388977 216.034744,298.974030 
	C207.448303,298.795135 198.865265,298.385437 190.285553,297.977875 
	C185.529480,297.751923 180.763107,297.488342 176.037079,296.936157 
	C165.693237,295.727539 155.355911,294.438019 145.046509,292.967194 
	C135.263046,291.571411 125.516907,289.912659 115.757454,288.350220 
	C108.886429,287.250244 102.025009,286.089844 95.150940,285.009552 
	C90.340553,284.253601 88.248436,287.466431 87.096802,291.213196 
	C85.996246,294.793762 88.734322,298.906403 93.057907,299.961182 
	C100.868576,301.866638 108.732391,303.667786 116.667091,304.925049 
	C129.022156,306.882721 141.427032,308.606781 153.862106,309.957642 
	C168.664337,311.565643 183.520782,312.674744 199.310654,314.000000 
M387.111877,323.635132 
	C389.486450,324.090088 391.846191,324.830475 394.237915,324.954498 
	C412.284119,325.890167 427.138000,310.824829 425.106232,291.611969 
	C423.140656,273.025391 405.455505,262.008942 387.878387,266.689667 
	C371.723450,270.991638 363.064148,286.310730 367.065338,302.251068 
	C369.665253,312.608856 375.780823,320.091644 387.111877,323.635132 
z"/>
<path fill="#000000" opacity="1.000000" stroke="none" 
	d="
M100.201660,432.981689 
	C97.297585,432.308044 94.734093,431.881073 92.376144,430.939453 
	C88.682762,429.464508 86.363159,426.482330 87.139084,422.531616 
	C87.883827,418.739685 89.983170,415.296875 94.824455,416.033325 
	C103.454071,417.346130 112.040154,418.944061 120.667473,420.273224 
	C131.408356,421.928040 142.153229,423.583008 152.931946,424.959320 
	C164.737000,426.466675 176.572403,427.758820 188.414902,428.941071 
	C194.304565,429.529022 200.235703,429.823486 206.155014,429.969177 
	C223.225861,430.389435 240.299744,430.697937 257.373535,430.984283 
	C264.024811,431.095825 267.036865,433.583374 267.000000,439.211182 
	C266.965698,444.447327 263.858398,446.991486 257.450500,446.997681 
	C248.124176,447.006683 238.789948,447.244080 229.473404,446.942261 
	C215.804825,446.499481 202.129807,445.926605 188.492950,444.926147 
	C174.808792,443.922241 161.104416,442.778900 147.525284,440.869110 
	C132.326431,438.731537 117.258698,435.662170 102.131416,433.012543 
	C101.646431,432.927551 101.134033,432.999023 100.201660,432.981689 
z"/>
<path fill="#000000" opacity="1.000000" stroke="none" 
	d="
M409.571960,450.791992 
	C396.350372,456.411255 384.564392,455.152283 374.479095,444.939819 
	C362.838074,433.152039 363.401611,413.587769 376.284210,401.996338 
	C389.324646,390.262848 412.878052,393.003601 421.926483,409.912323 
	C428.718384,422.604340 426.066223,442.110077 409.571960,450.791992 
M392.136169,411.011169 
	C386.904724,413.285645 383.273560,417.178864 382.099762,422.689331 
	C380.873108,428.448181 385.861755,435.401825 392.150421,437.666901 
	C396.737823,439.319244 404.255981,436.677094 406.864075,432.426788 
	C410.760590,426.076843 409.663574,418.489746 405.580139,414.926605 
	C401.809631,411.636475 397.710999,410.591187 392.136169,411.011169 
z"/>
<path fill="#000000" opacity="1.000000" stroke="none" 
	d="
M302.221008,430.000000 
	C310.978668,429.335358 319.279816,428.664948 327.582001,428.007690 
	C336.548035,427.297913 340.102570,430.876282 340.016510,435.992035 
	C339.940826,440.490265 337.057007,443.631317 332.592194,444.017548 
	C330.500946,444.198486 328.433807,444.733551 326.342896,444.830505 
	C316.805969,445.272705 307.255829,445.956879 297.731781,445.714539 
	C295.774536,445.664703 293.057709,442.326080 292.206024,439.958344 
	C291.012787,436.641083 291.843201,432.912720 295.653473,431.217407 
	C297.504730,430.393738 299.716431,430.380249 302.221008,430.000000 
z"/>
<path fill="#000000" opacity="1.000000" stroke="none" 
	d="
M147.184021,164.998688 
	C159.805313,166.324783 171.963089,167.709793 184.135971,168.945953 
	C189.201797,169.460373 194.296799,169.895264 199.383713,169.960251 
	C231.455338,170.370041 263.528381,170.878738 295.601074,170.890060 
	C307.767426,170.894363 319.943542,169.798111 332.096588,168.939865 
	C337.509430,168.557602 339.310669,171.794815 339.908447,176.107864 
	C340.523010,180.542023 337.824829,183.313812 333.656464,183.923279 
	C327.052948,184.888824 320.380859,185.812210 313.724548,185.917587 
	C281.321625,186.430542 248.914505,186.854126 216.508377,186.892319 
	C205.842117,186.904892 195.126160,186.096497 184.517532,184.908188 
	C163.497818,182.553741 142.515564,179.828827 121.561897,176.937714 
	C112.622650,175.704300 103.783012,173.725296 94.919060,171.978775 
	C89.772614,170.964706 86.191353,166.396790 87.212296,162.429382 
	C88.597862,157.045044 92.674767,155.067688 98.556953,156.166870 
	C113.337341,158.928894 128.171860,161.400772 142.979874,164.016129 
	C144.247040,164.239914 145.478516,164.665604 147.184021,164.998688 
z"/>
<path fill="#000000" opacity="1.000000" stroke="none" 
	d="
M371.991455,183.912277 
	C364.957794,174.287827 364.204865,164.143677 368.763397,153.865601 
	C373.277283,143.688187 381.474396,138.073166 392.740234,136.969254 
	C408.899628,135.385880 420.836304,144.385620 424.521515,158.316635 
	C427.824280,170.801849 423.720673,184.383316 410.826050,191.947113 
	C398.488342,199.184265 384.780151,196.442245 375.075989,187.554825 
	C373.980042,186.551117 373.038483,185.378845 371.991455,183.912277 
M405.527618,157.017960 
	C400.977539,150.920059 391.778107,151.404953 385.901917,156.673523 
	C380.737854,161.303619 380.674744,169.800873 385.540222,175.042099 
	C390.797913,180.705765 398.146881,182.116318 405.332855,176.118820 
	C410.334564,171.944382 410.575592,163.039764 405.527618,157.017960 
z"/>
<path fill="#000000" opacity="1.000000" stroke="none" 
	d="
M198.832184,314.000000 
	C183.520782,312.674744 168.664337,311.565643 153.862106,309.957642 
	C141.427032,308.606781 129.022156,306.882721 116.667091,304.925049 
	C108.732391,303.667786 100.868576,301.866638 93.057907,299.961182 
	C88.734322,298.906403 85.996246,294.793762 87.096802,291.213196 
	C88.248436,287.466431 90.340553,284.253601 95.150940,285.009552 
	C102.025009,286.089844 108.886429,287.250244 115.757454,288.350220 
	C125.516907,289.912659 135.263046,291.571411 145.046509,292.967194 
	C155.355911,294.438019 165.693237,295.727539 176.037079,296.936157 
	C180.763107,297.488342 185.529480,297.751923 190.285553,297.977875 
	C198.865265,298.385437 207.448303,298.795135 216.034744,298.974030 
	C235.946411,299.388977 255.863297,300.020355 275.773529,299.887115 
	C291.444397,299.782257 307.109985,298.698151 322.774353,297.972321 
	C326.032654,297.821381 329.277405,297.046143 332.524658,297.069824 
	C337.041962,297.102814 339.994720,300.465546 339.999908,304.986633 
	C340.005096,309.507599 337.058136,312.766357 332.550995,312.984039 
	C317.888275,313.692169 303.223816,314.370056 288.556976,314.986908 
	C278.976837,315.389801 269.383484,316.091095 259.809998,315.912048 
	C239.638687,315.534729 219.476547,314.666656 198.832184,314.000000 
z"/>
<path fill="#000000" opacity="1.000000" stroke="none" 
	d="
M386.810547,323.345459 
	C375.780823,320.091644 369.665253,312.608856 367.065338,302.251068 
	C363.064148,286.310730 371.723450,270.991638 387.878387,266.689667 
	C405.455505,262.008942 423.140656,273.025391 425.106232,291.611969 
	C427.138000,310.824829 412.284119,325.890167 394.237915,324.954498 
	C391.846191,324.830475 389.486450,324.090088 386.810547,323.345459 
M408.980591,290.929047 
	C405.984314,285.199432 402.050720,281.343567 394.785065,281.890381 
	C389.065155,282.320923 385.439850,285.349457 383.131470,289.937286 
	C380.650452,294.868286 381.882477,299.840454 385.438751,303.844177 
	C389.044983,307.904175 393.495300,310.238007 399.261353,308.287476 
	C407.110504,305.632294 409.930145,300.941620 408.980591,290.929047 
z"/>
<path fill="#FFFFFF" opacity="1.000000" stroke="none" 
	d="
M392.555573,411.005981 
	C397.710999,410.591187 401.809631,411.636475 405.580139,414.926605 
	C409.663574,418.489746 410.760590,426.076843 406.864075,432.426788 
	C404.255981,436.677094 396.737823,439.319244 392.150421,437.666901 
	C385.861755,435.401825 380.873108,428.448181 382.099762,422.689331 
	C383.273560,417.178864 386.904724,413.285645 392.555573,411.005981 
z"/>
<path fill="#FFFFFF" opacity="1.000000" stroke="none" 
	d="
M405.786377,157.294403 
	C410.575592,163.039764 410.334564,171.944382 405.332855,176.118820 
	C398.146881,182.116318 390.797913,180.705765 385.540222,175.042099 
	C380.674744,169.800873 380.737854,161.303619 385.901917,156.673523 
	C391.778107,151.404953 400.977539,150.920059 405.786377,157.294403 
z"/>
<path fill="#FFFFFF" opacity="1.000000" stroke="none" 
	d="
M408.989624,291.325745 
	C409.930145,300.941620 407.110504,305.632294 399.261353,308.287476 
	C393.495300,310.238007 389.044983,307.904175 385.438751,303.844177 
	C381.882477,299.840454 380.650452,294.868286 383.131470,289.937286 
	C385.439850,285.349457 389.065155,282.320923 394.785065,281.890381 
	C402.050720,281.343567 405.984314,285.199432 408.989624,291.325745 
z"/>
</svg>