<?xml version="1.0" standalone="no"?>
<!DOCTYPE svg PUBLIC "-//W3C//DTD SVG 20010904//EN"
 "http://www.w3.org/TR/2001/REC-SVG-20010904/DTD/svg10.dtd">
<svg version="1.0" xmlns="http://www.w3.org/2000/svg"
 width="512.000000pt" height="512.000000pt" viewBox="0 0 512.000000 512.000000"
 preserveAspectRatio="xMidYMid meet">

<g transform="translate(0.000000,512.000000) scale(0.100000,-0.100000)"
fill="#000000" stroke="none">
<path d="M1154 5110 c-555 -73 -1004 -487 -1125 -1040 -31 -138 -33 -389 -6
-520 39 -181 110 -351 210 -500 60 -89 198 -234 282 -297 l60 -45 5 -857 c6
-950 0 -880 72 -951 72 -72 44 -70 721 -70 l607 0 0 -165 0 -165 -237 0 c-131
0 -267 -5 -303 -11 -164 -26 -280 -158 -280 -318 0 -64 22 -107 73 -145 l28
-21 1299 0 1299 0 28 21 c51 38 73 81 73 145 0 160 -116 292 -280 318 -36 6
-172 11 -302 11 l-238 0 0 165 0 165 188 0 187 0 90 -90 c49 -50 95 -90 102
-90 6 0 50 20 96 45 87 46 124 54 145 33 8 -8 12 -49 12 -120 l0 -108 250 0
250 0 0 108 c0 71 4 112 12 120 21 21 56 13 148 -33 49 -25 95 -45 102 -45 8
0 67 54 133 120 l120 120 -53 105 c-28 58 -52 110 -52 115 0 6 9 19 20 30 17
17 33 20 125 20 l105 0 0 245 0 245 -105 0 c-92 0 -108 3 -125 20 -11 11 -20
25 -20 30 0 6 23 56 51 112 l51 101 -126 126 -126 126 -85 -43 c-47 -23 -87
-42 -90 -42 -3 0 -5 343 -5 763 l0 762 -24 51 c-13 28 -41 65 -62 82 -78 64
-42 62 -971 62 l-843 0 0 58 c0 31 -3 67 -6 79 l-6 23 378 2 379 3 3 83 3 82
-395 0 -394 0 -20 63 c-12 34 -24 70 -27 80 -7 16 10 17 265 17 275 0 337 6
376 38 11 9 66 79 123 155 l103 137 440 0 c409 0 439 -1 444 -17 53 -162 188
-282 342 -303 161 -22 328 56 409 191 128 213 49 476 -176 587 -71 35 -80 37
-170 37 -75 -1 -108 -5 -151 -23 -110 -44 -207 -145 -243 -252 l-15 -45 -463
-5 c-433 -5 -466 -6 -495 -24 -18 -10 -80 -84 -139 -162 l-107 -144 -317 0
-316 1 -54 81 c-201 298 -536 508 -901 563 -101 16 -256 18 -356 5z m3661
-183 c39 -20 92 -73 112 -111 9 -17 18 -57 21 -91 9 -117 -62 -218 -178 -252
-98 -29 -208 12 -265 99 -83 125 -36 290 100 355 41 20 62 23 115 20 36 -2 79
-11 95 -20z m-3717 -14 c-8 -10 -34 -40 -57 -68 -101 -117 -228 -335 -281
-482 l-23 -63 -228 0 -228 0 34 59 c54 96 94 150 173 232 112 118 226 199 372
264 70 31 203 74 234 74 17 1 18 -1 4 -16z m597 -24 c261 -87 496 -284 635
-531 l32 -58 -229 0 -228 0 -23 65 c-58 161 -168 346 -293 494 l-62 74 39 -7
c21 -4 80 -21 129 -37z m-278 -90 c48 -55 112 -135 141 -177 51 -73 162 -286
162 -311 0 -8 -108 -11 -401 -11 l-400 0 7 23 c17 54 88 191 142 273 58 88
237 304 253 304 4 0 47 -45 96 -101z m-731 -701 c-15 -82 -25 -190 -26 -272 0
-81 -2 -91 -27 -120 -40 -47 -53 -88 -53 -166 l0 -70 -183 0 -184 0 -18 78
c-36 156 -28 443 15 556 l10 26 236 0 236 0 -6 -32z m1104 -30 c6 -35 14 -109
17 -165 l6 -103 -493 0 -493 0 7 100 c5 87 19 178 31 218 3 9 104 12 459 12
l454 0 12 -62z m655 -10 c10 -40 20 -115 22 -165 l6 -93 -247 0 -246 0 0 73
c0 68 -13 180 -26 233 l-6 24 240 0 240 0 17 -72z m1903 -448 c11 -11 24 -35
27 -52 3 -18 4 -305 3 -638 l-3 -605 -82 -3 -82 -3 -3 528 -3 528 -24 34 c-13
18 -42 42 -65 52 -39 18 -100 19 -1556 19 -1456 0 -1517 -1 -1556 -19 -23 -10
-52 -34 -65 -52 l-24 -34 0 -970 0 -970 23 -33 c13 -18 41 -41 62 -52 38 -20
63 -20 1169 -20 l1130 0 3 -82 3 -83 109 -3 c61 -1 116 -8 123 -14 19 -16 16
-43 -12 -98 l-25 -50 -265 0 -265 0 0 85 0 85 -80 0 -80 0 0 -85 0 -85 -85 0
-85 0 0 85 0 85 -80 0 -80 0 0 -85 0 -85 -85 0 -85 0 0 85 0 85 -80 0 -80 0 0
-85 0 -85 -680 2 -679 3 -23 23 -23 23 -3 1242 c-1 683 0 1257 3 1275 3 17 16
41 27 52 22 20 37 20 1788 20 1751 0 1766 0 1788 -20z m-3768 -500 l0 -190
-26 16 c-58 38 -204 226 -258 332 l-17 32 151 0 150 0 0 -190z m3460 -305 l0
-495 -40 0 -40 0 0 -108 c0 -154 -12 -161 -165 -85 l-95 48 -126 -126 -126
-126 51 -101 c28 -56 51 -108 51 -116 0 -33 -41 -46 -147 -46 l-103 0 0 -80 0
-80 -1110 0 -1110 0 0 905 0 905 1480 0 1480 0 0 -495z m250 -678 c0 -47 30
-124 62 -156 74 -77 159 -89 270 -40 l71 31 39 -39 39 -39 -32 -67 c-27 -59
-31 -76 -27 -130 7 -109 80 -186 184 -195 l54 -4 0 -84 0 -84 -35 0 c-46 0
-102 -24 -138 -58 -74 -70 -87 -165 -37 -271 l31 -65 -40 -40 -41 -40 -56 27
c-113 56 -199 46 -275 -32 -44 -46 -69 -104 -69 -160 0 -19 -6 -21 -79 -21
l-78 0 -5 50 c-11 114 -116 206 -223 198 -27 -3 -78 -17 -113 -33 l-63 -28
-39 38 -39 38 31 61 c80 156 0 318 -163 334 l-49 5 0 83 0 84 43 0 c62 0 125
36 164 93 54 81 53 127 -8 275 -13 31 -12 33 23 69 l37 36 72 -33 c63 -29 78
-32 132 -27 44 4 71 13 101 34 49 34 96 119 96 175 l0 38 80 0 c77 0 80 -1 80
-23z m-1320 -1467 l0 -160 -410 0 -410 0 0 160 0 160 410 0 410 0 0 -160z
m746 -356 c37 -27 62 -62 73 -101 l10 -33 -1239 0 -1239 0 9 29 c17 61 57 106
106 121 16 5 529 8 1141 7 1106 -2 1112 -2 1139 -23z"/>
<path d="M4652 4770 c-46 -43 -37 -107 19 -139 51 -29 119 14 119 76 0 70 -87
110 -138 63z"/>
<path d="M1473 2611 c-64 -47 -73 -81 -73 -294 0 -100 5 -198 10 -219 13 -46
77 -105 124 -113 19 -4 91 -5 158 -3 107 3 130 7 178 29 218 103 261 392 82
550 -73 64 -129 79 -296 79 -142 0 -143 0 -183 -29z m302 -142 c59 -16 112
-74 120 -131 9 -59 -19 -125 -66 -159 -30 -21 -47 -24 -146 -27 l-113 -4 0
166 0 166 83 0 c45 0 100 -5 122 -11z"/>
<path d="M2325 2621 c-40 -24 -71 -60 -84 -94 -7 -17 -11 -128 -11 -288 l0
-259 85 0 85 0 0 245 c0 142 4 245 9 245 5 0 37 -84 71 -187 34 -104 73 -204
85 -224 27 -42 95 -79 143 -79 38 0 98 23 125 48 11 9 28 34 38 54 17 34 19
62 19 298 l0 260 -85 0 -85 0 0 -245 c0 -142 -4 -245 -9 -245 -5 0 -39 90 -76
200 -70 211 -93 252 -152 276 -47 20 -122 18 -158 -5z"/>
<path d="M3143 2613 c-68 -44 -102 -123 -82 -196 20 -75 50 -102 190 -172 77
-39 129 -71 129 -80 0 -12 -28 -15 -162 -17 l-163 -3 -3 -82 -3 -83 177 0
c161 0 182 2 222 21 90 44 128 158 82 249 -26 50 -60 76 -197 144 -62 31 -113
60 -113 65 0 17 33 21 181 21 l149 0 0 80 0 80 -183 0 c-181 0 -183 0 -224
-27z"/>
<path d="M4132 1809 c-188 -37 -332 -211 -332 -402 0 -119 44 -221 131 -302
285 -267 738 -30 687 359 -22 165 -158 309 -326 345 -60 12 -98 13 -160 0z
m189 -186 c158 -81 185 -287 53 -403 -51 -44 -93 -60 -162 -60 -117 0 -218 81
-242 193 -42 202 167 363 351 270z"/>
<path d="M3550 4045 l0 -86 83 3 82 3 3 83 3 82 -86 0 -85 0 0 -85z"/>
<path d="M3880 4045 l0 -86 83 3 82 3 3 83 3 82 -86 0 -85 0 0 -85z"/>
<path d="M4210 4045 l0 -86 83 3 82 3 3 83 3 82 -86 0 -85 0 0 -85z"/>
</g>
</svg>
