<svg version="1.1" id="Layer_1" xmlns="http://www.w3.org/2000/svg" xmlns:xlink="http://www.w3.org/1999/xlink" x="0px" y="0px"
	 width="100%" viewBox="0 0 512 512" enable-background="new 0 0 512 512" xml:space="preserve">
<path fill="#000000" opacity="1.000000" stroke="none" 
	d="
M513.000000,267.531433 
	C509.597107,281.353394 502.687500,292.352509 491.147888,300.144165 
	C470.557922,314.046661 443.316559,311.713501 425.311157,294.353546 
	C405.525879,275.277527 405.157196,243.365540 421.264191,224.213043 
	C432.136261,211.285278 445.783997,204.807861 462.004089,204.859253 
	C484.919373,204.931854 505.294098,219.346069 511.628662,242.117523 
	C511.938202,243.230331 512.402466,244.300125 512.897339,245.694977 
	C513.000000,253.020950 513.000000,260.041901 513.000000,267.531433 
z"/>
<path fill="#000000" opacity="1.000000" stroke="none" 
	d="
M1.000000,244.468658 
	C3.306697,241.781647 3.149458,238.519989 4.448293,235.848587 
	C12.910106,218.444550 26.320501,208.121780 45.771206,205.494171 
	C72.962158,201.820938 97.060104,220.193985 102.780876,244.210861 
	C109.736420,273.411530 91.711998,302.319550 62.481243,308.143494 
	C37.220928,313.176392 11.883515,298.907257 3.536546,275.249146 
	C3.052386,273.876862 2.255837,272.614807 1.302333,271.150726 
	C1.000000,262.312439 1.000000,253.624863 1.000000,244.468658 
z"/>
<path fill="#000000" opacity="1.000000" stroke="none" 
	d="
M264.051941,205.620483 
	C280.891815,207.734467 293.182343,216.183762 301.652252,230.163910 
	C310.699341,245.096771 311.884003,261.150238 305.104004,276.919128 
	C297.501495,294.601013 283.984985,305.639160 264.249390,308.459839 
	C247.401108,310.867889 232.964905,305.821533 220.840820,294.658203 
	C212.669846,287.134766 207.537064,277.366882 205.697281,266.163757 
	C203.514709,252.873169 205.615692,240.341888 212.961914,228.989594 
	C221.193985,216.268387 232.814865,208.265350 247.853348,205.735092 
	C253.037247,204.862900 258.346344,203.711151 264.051941,205.620483 
z"/>
</svg>