<svg version="1.1" id="Layer_1" xmlns="http://www.w3.org/2000/svg" xmlns:xlink="http://www.w3.org/1999/xlink" x="0px" y="0px"
	 width="100%" viewBox="0 0 300 168" enable-background="new 0 0 300 168" xml:space="preserve">
<path fill="#FFFFFF" opacity="1.000000" stroke="none" 
	d="
M198.000000,169.000000 
	C132.000015,169.000000 66.500015,169.000000 1.000018,169.000000 
	C1.000012,113.000015 1.000012,57.000031 1.000006,1.000033 
	C100.999969,1.000022 200.999939,1.000022 300.999939,1.000011 
	C300.999939,56.999966 300.999939,112.999931 300.999969,168.999939 
	C266.833344,169.000000 232.666672,169.000000 198.000000,169.000000 
M155.496338,112.116501 
	C160.189774,108.102936 164.883194,104.089378 169.619736,100.038940 
	C172.541946,106.668259 177.585663,111.641106 184.941086,114.133690 
	C201.050018,119.592644 220.381821,109.519234 225.216202,93.126167 
	C230.075104,76.649925 219.817581,61.695404 202.786423,60.425655 
	C189.677155,59.448299 176.535217,66.758568 171.074921,78.814606 
	C169.493729,82.305794 167.617996,83.007797 164.325485,82.900078 
	C158.832886,82.720375 153.324951,82.722565 147.835159,82.941261 
	C146.433777,82.997093 144.501633,83.789787 143.813446,84.876984 
	C142.183578,87.451775 141.153854,90.406456 139.432785,94.195518 
	C145.299606,94.195518 150.109894,94.195518 155.585495,94.195518 
	C151.710480,99.751869 147.355560,102.392921 141.483429,101.526917 
	C136.116074,100.735359 132.719574,97.260201 131.764587,92.173798 
	C130.564835,85.783615 133.417313,79.641808 139.262985,76.028633 
	C144.059189,73.064133 149.651886,73.133652 153.808105,76.118546 
	C155.082733,77.033951 156.661667,78.615372 157.826431,78.400711 
	C162.275238,77.580772 166.612015,76.152893 171.169617,74.902969 
	C167.204681,65.918114 160.736191,61.063160 151.838821,60.051449 
	C135.172516,58.156342 119.661964,69.939056 116.533745,86.433395 
	C114.185677,98.814201 120.975113,110.393471 132.989517,114.255836 
	C140.475327,116.662346 147.768082,115.740982 155.496338,112.116501 
M100.507675,76.824684 
	C113.707542,76.824905 113.707542,76.824905 115.520195,73.759254 
	C106.073875,74.708649 96.670433,72.500137 87.642166,75.070877 
	C87.670280,75.655426 87.698402,76.239983 87.726524,76.824532 
	C91.657257,76.824532 95.587997,76.824532 100.507675,76.824684 
M86.544937,83.205269 
	C90.864494,83.205254 95.189491,83.340279 99.502037,83.166367 
	C103.621078,83.000267 107.943352,83.952721 111.806969,81.953270 
	C102.819008,79.664124 79.318077,80.565239 76.687874,83.205376 
	C79.979958,83.205376 82.769806,83.205376 86.544937,83.205269 
M94.723427,88.131561 
	C95.133171,88.787979 95.524796,90.000679 95.955452,90.014702 
	C100.223793,90.153656 104.500450,90.156311 108.769669,90.028206 
	C109.459244,90.007515 110.123871,89.155518 110.800026,88.687790 
	C110.729347,88.305710 110.658676,87.923630 110.587997,87.541550 
	C105.515015,87.541550 100.442032,87.541550 94.723427,88.131561 
z"/>
<path fill="#03AFD9" opacity="1.000000" stroke="none" 
	d="
M155.163681,112.295784 
	C147.768082,115.740982 140.475327,116.662346 132.989517,114.255836 
	C120.975113,110.393471 114.185677,98.814201 116.533745,86.433395 
	C119.661964,69.939056 135.172516,58.156342 151.838821,60.051449 
	C160.736191,61.063160 167.204681,65.918114 171.169617,74.902969 
	C166.612015,76.152893 162.275238,77.580772 157.826431,78.400711 
	C156.661667,78.615372 155.082733,77.033951 153.808105,76.118546 
	C149.651886,73.133652 144.059189,73.064133 139.262985,76.028633 
	C133.417313,79.641808 130.564835,85.783615 131.764587,92.173798 
	C132.719574,97.260201 136.116074,100.735359 141.483429,101.526917 
	C147.355560,102.392921 151.710480,99.751869 155.585495,94.195518 
	C150.109894,94.195518 145.299606,94.195518 139.432785,94.195518 
	C141.153854,90.406456 142.183578,87.451775 143.813446,84.876984 
	C144.501633,83.789787 146.433777,82.997093 147.835159,82.941261 
	C153.324951,82.722565 158.832886,82.720375 164.325485,82.900078 
	C167.617996,83.007797 169.493729,82.305794 171.074921,78.814606 
	C176.535217,66.758568 189.677155,59.448299 202.786423,60.425655 
	C219.817581,61.695404 230.075104,76.649925 225.216202,93.126167 
	C220.381821,109.519234 201.050018,119.592644 184.941086,114.133690 
	C177.585663,111.641106 172.541946,106.668259 169.619736,100.038940 
	C164.883194,104.089378 160.189774,108.102936 155.163681,112.295784 
M188.322861,99.319748 
	C197.109207,105.993546 210.099762,98.236145 211.642563,87.868820 
	C212.503418,82.084023 208.754944,75.940033 203.169357,74.270599 
	C197.123169,72.463501 189.401047,75.608650 185.927734,81.292953 
	C181.923508,87.846146 182.459549,93.110153 188.322861,99.319748 
z"/>
<path fill="#22B6DE" opacity="1.000000" stroke="none" 
	d="
M100.013206,76.824608 
	C95.587997,76.824532 91.657257,76.824532 87.726524,76.824532 
	C87.698402,76.239983 87.670280,75.655426 87.642166,75.070877 
	C96.670433,72.500137 106.073875,74.708649 115.520195,73.759254 
	C113.707542,76.824905 113.707542,76.824905 100.013206,76.824608 
z"/>
<path fill="#02ABD8" opacity="1.000000" stroke="none" 
	d="
M86.052299,83.205322 
	C82.769806,83.205376 79.979958,83.205376 76.687874,83.205376 
	C79.318077,80.565239 102.819008,79.664124 111.806969,81.953270 
	C107.943352,83.952721 103.621078,83.000267 99.502037,83.166367 
	C95.189491,83.340279 90.864494,83.205254 86.052299,83.205322 
z"/>
<path fill="#26B7DE" opacity="1.000000" stroke="none" 
	d="
M95.046234,87.836555 
	C100.442032,87.541550 105.515015,87.541550 110.587997,87.541550 
	C110.658676,87.923630 110.729347,88.305710 110.800026,88.687790 
	C110.123871,89.155518 109.459244,90.007515 108.769669,90.028206 
	C104.500450,90.156311 100.223793,90.153656 95.955452,90.014702 
	C95.524796,90.000679 95.133171,88.787979 95.046234,87.836555 
z"/>
<path fill="#FAFDFE" opacity="1.000000" stroke="none" 
	d="
M188.020416,99.096420 
	C182.459549,93.110153 181.923508,87.846146 185.927734,81.292953 
	C189.401047,75.608650 197.123169,72.463501 203.169357,74.270599 
	C208.754944,75.940033 212.503418,82.084023 211.642563,87.868820 
	C210.099762,98.236145 197.109207,105.993546 188.020416,99.096420 
z"/>
</svg>