<svg version="1.1" id="Layer_1" xmlns="http://www.w3.org/2000/svg" xmlns:xlink="http://www.w3.org/1999/xlink" x="0px" y="0px"
	 width="100%" viewBox="0 0 225 225" enable-background="new 0 0 225 225" xml:space="preserve">
<path fill="#FEFEFE" opacity="1.000000" stroke="none" 
	d="
M112.000000,226.000000 
	C75.042183,226.000000 38.084373,226.000000 1.063280,226.000000 
	C1.063280,151.000000 1.063280,76.000008 1.063280,1.000000 
	C16.765114,1.000000 32.413898,1.000000 48.465691,1.464650 
	C48.868694,11.636696 48.868694,21.344093 48.868694,30.800133 
	C52.614662,30.800133 55.682251,30.800133 59.106796,30.800133 
	C59.106796,27.393732 59.106796,24.324457 59.106796,21.333126 
	C62.239456,21.333126 64.979004,21.333126 68.076271,21.333126 
	C68.076271,24.653605 68.076271,27.733765 68.076271,30.942379 
	C71.512985,30.942379 74.576546,30.942379 78.000000,30.942379 
	C78.000000,20.830236 78.000000,10.915118 78.000000,1.000000 
	C79.388893,1.000000 80.777779,1.000000 82.490669,1.454970 
	C82.814667,4.845240 82.814667,7.780541 82.814667,11.101986 
	C86.030037,11.101986 88.785797,11.101986 91.854111,11.101986 
	C91.854111,17.948427 91.854111,24.391121 91.854111,30.791847 
	C95.230469,30.791847 98.281204,30.791847 101.731659,30.791847 
	C101.731659,24.047434 101.731659,17.654547 101.731659,10.799561 
	C104.863075,10.799561 107.590988,10.799561 110.185776,10.799561 
	C110.484207,7.207821 110.742104,4.103910 111.000000,1.000000 
	C112.066673,1.000000 113.133339,1.000000 114.599045,1.468656 
	C114.998077,11.559626 114.998077,21.181940 114.998077,30.920448 
	C118.510536,30.920448 121.578156,30.920448 125.096535,30.920448 
	C125.096535,26.349058 125.096535,21.980181 125.096535,16.681978 
	C127.770653,20.547310 129.855499,23.560879 132.125076,26.841476 
	C134.442184,23.350872 136.407303,20.390512 139.146484,16.264048 
	C139.146484,22.071257 139.146484,26.574621 139.146484,30.799156 
	C142.784927,30.799156 145.865845,30.799156 149.000000,30.799156 
	C149.000000,20.636967 149.000000,10.818483 149.000000,1.000000 
	C150.388885,1.000000 151.777786,1.000000 153.678528,1.460238 
	C154.190399,11.513712 154.190399,21.106949 154.190399,30.899200 
	C162.507736,30.899200 170.380005,30.899200 178.264099,30.899200 
	C178.264099,27.582420 178.264099,24.549784 178.264099,21.166264 
	C173.456955,21.166264 169.025986,21.166264 164.000000,21.166264 
	C164.000000,14.208890 164.000000,7.604445 164.000000,1.000000 
	C184.643921,1.000000 205.287857,1.000000 225.965881,1.000000 
	C225.965881,75.894730 225.965881,150.789474 225.965881,226.000000 
	C189.313049,226.000000 152.625183,226.000000 115.674271,225.687088 
	C136.605957,219.500793 157.800674,213.627396 178.678345,207.841873 
	C183.541473,153.221863 188.332214,99.414932 193.139725,45.419556 
	C139.779984,45.419556 87.035095,45.419556 33.922176,45.419556 
	C34.052071,47.508446 34.119286,49.309898 34.282341,51.102631 
	C36.483234,75.301109 38.742977,99.494324 40.896290,123.697014 
	C43.315395,150.887161 45.601635,178.089279 48.132786,205.268768 
	C48.251377,206.542160 49.983418,208.272064 51.320866,208.717163 
	C56.353458,210.391983 61.547447,211.574936 66.656425,213.028427 
	C81.777222,217.330231 96.886330,221.673141 112.000000,226.000000 
z"/>
<path fill="#E44E28" opacity="1.000000" stroke="none" 
	d="
M112.375000,226.000000 
	C96.886330,221.673141 81.777222,217.330231 66.656425,213.028427 
	C61.547447,211.574936 56.353458,210.391983 51.320866,208.717163 
	C49.983418,208.272064 48.251377,206.542160 48.132786,205.268768 
	C45.601635,178.089279 43.315395,150.887161 40.896290,123.697014 
	C38.742977,99.494324 36.483234,75.301109 34.282341,51.102631 
	C34.119286,49.309898 34.052071,47.508446 33.922176,45.419556 
	C87.035095,45.419556 139.779984,45.419556 193.139725,45.419556 
	C188.332214,99.414932 183.541473,153.221863 178.678345,207.841873 
	C157.800674,213.627396 136.605957,219.500793 115.205612,225.687088 
	C114.250000,226.000000 113.500000,226.000000 112.375000,226.000000 
M112.550995,77.228813 
	C112.363075,77.502129 112.175148,77.775444 111.068352,78.245148 
	C95.716721,78.179634 80.365089,78.114128 64.812668,77.696945 
	C64.528389,77.840416 64.244110,77.983879 63.585892,78.740166 
	C65.397324,98.787651 67.208755,118.835129 69.548676,139.538132 
	C84.033897,139.683853 98.519127,139.829575 113.503258,140.001877 
	C113.503258,140.001877 114.001961,140.031891 113.994431,140.965179 
	C113.996529,150.650116 113.998627,160.335068 113.191902,170.257523 
	C106.768036,168.641129 100.285347,167.214401 93.967827,165.255081 
	C92.636993,164.842331 91.340385,162.589157 91.021996,160.986526 
	C90.256447,157.133087 90.080383,153.162567 89.665611,149.230835 
	C82.947357,149.230835 76.563866,149.230835 69.854614,149.230835 
	C70.657677,159.026932 71.349312,168.460449 72.314095,177.865921 
	C72.424355,178.940857 73.897598,180.441223 75.019150,180.760834 
	C87.979393,184.454437 100.993706,187.958328 113.989189,192.385498 
	C113.989189,198.793030 113.989189,205.200546 113.989189,212.336487 
	C116.817276,211.351532 118.616371,210.615311 120.475845,210.094727 
	C134.968063,206.037552 149.487473,202.075775 163.943832,197.895538 
	C165.157364,197.544617 166.735123,195.888153 166.852905,194.709259 
	C168.053528,182.692566 169.008865,170.650925 169.987946,158.612625 
	C171.047882,145.580307 171.941040,132.533295 173.122910,119.512283 
	C174.632278,102.883125 176.383926,86.276077 177.970169,69.653679 
	C178.323853,65.947433 178.423630,62.216953 178.641815,58.471413 
	C174.818726,58.657207 171.380997,58.958050 167.942368,58.968643 
	C151.447495,59.019474 134.951553,59.078293 118.457977,58.922836 
	C114.941078,58.889687 113.740601,60.016010 113.932335,63.495934 
	C114.179443,67.981071 113.996109,72.489929 113.500832,76.999222 
	C113.500832,76.999222 113.003410,77.005791 112.550995,77.228813 
z"/>
<path fill="#020202" opacity="1.000000" stroke="none" 
	d="
M148.541931,1.000000 
	C149.000000,10.818483 149.000000,20.636967 149.000000,30.799156 
	C145.865845,30.799156 142.784927,30.799156 139.146484,30.799156 
	C139.146484,26.574621 139.146484,22.071257 139.146484,16.264048 
	C136.407303,20.390512 134.442184,23.350872 132.125076,26.841476 
	C129.855499,23.560879 127.770653,20.547310 125.096535,16.681978 
	C125.096535,21.980181 125.096535,26.349058 125.096535,30.920448 
	C121.578156,30.920448 118.510536,30.920448 114.998077,30.920448 
	C114.998077,21.181940 114.998077,11.559626 114.999039,1.468656 
	C118.361290,1.000000 121.722572,1.000000 125.537140,1.358172 
	C127.990135,4.943835 129.989838,8.171325 132.427673,12.105936 
	C134.578201,7.819839 136.289093,4.409919 138.000000,0.999999 
	C141.361282,1.000000 144.722580,1.000000 148.541931,1.000000 
z"/>
<path fill="#020202" opacity="1.000000" stroke="none" 
	d="
M77.545891,1.000000 
	C78.000000,10.915118 78.000000,20.830236 78.000000,30.942379 
	C74.576546,30.942379 71.512985,30.942379 68.076271,30.942379 
	C68.076271,27.733765 68.076271,24.653605 68.076271,21.333126 
	C64.979004,21.333126 62.239456,21.333126 59.106796,21.333126 
	C59.106796,24.324457 59.106796,27.393732 59.106796,30.800133 
	C55.682251,30.800133 52.614662,30.800133 48.868694,30.800133 
	C48.868694,21.344093 48.868694,11.636696 48.934349,1.464650 
	C52.030594,1.000000 55.061188,1.000000 58.396542,1.443563 
	C58.701302,4.817747 58.701302,7.748369 58.701302,10.705537 
	C62.036297,10.705537 64.928825,10.705537 68.000000,10.705537 
	C68.000000,7.277877 68.000000,4.138938 68.000000,1.000000 
	C71.030594,1.000000 74.061188,1.000000 77.545891,1.000000 
z"/>
<path fill="#050505" opacity="1.000000" stroke="none" 
	d="
M110.531342,1.000000 
	C110.742104,4.103910 110.484207,7.207821 110.185776,10.799561 
	C107.590988,10.799561 104.863075,10.799561 101.731659,10.799561 
	C101.731659,17.654547 101.731659,24.047434 101.731659,30.791847 
	C98.281204,30.791847 95.230469,30.791847 91.854111,30.791847 
	C91.854111,24.391121 91.854111,17.948427 91.854111,11.101986 
	C88.785797,11.101986 86.030037,11.101986 82.814667,11.101986 
	C82.814667,7.780541 82.814667,4.845240 82.907333,1.454970 
	C92.020897,1.000000 101.041786,1.000000 110.531342,1.000000 
z"/>
<path fill="#0B0B0B" opacity="1.000000" stroke="none" 
	d="
M163.545898,1.000000 
	C164.000000,7.604445 164.000000,14.208890 164.000000,21.166264 
	C169.025986,21.166264 173.456955,21.166264 178.264099,21.166264 
	C178.264099,24.549784 178.264099,27.582420 178.264099,30.899200 
	C170.380005,30.899200 162.507736,30.899200 154.190399,30.899200 
	C154.190399,21.106949 154.190399,11.513712 154.095200,1.460238 
	C157.030594,1.000000 160.061188,1.000000 163.545898,1.000000 
z"/>
<path fill="#FFFFFF" opacity="1.000000" stroke="none" 
	d="
M67.550018,1.000000 
	C68.000000,4.138938 68.000000,7.277877 68.000000,10.705537 
	C64.928825,10.705537 62.036297,10.705537 58.701302,10.705537 
	C58.701302,7.748369 58.701302,4.817747 58.850651,1.443563 
	C61.700016,1.000000 64.400032,1.000000 67.550018,1.000000 
z"/>
<path fill="#F5F5F5" opacity="1.000000" stroke="none" 
	d="
M137.539368,0.999999 
	C136.289093,4.409919 134.578201,7.819839 132.427673,12.105936 
	C129.989838,8.171325 127.990135,4.943835 125.995209,1.358172 
	C129.692902,1.000000 133.385818,1.000000 137.539368,0.999999 
z"/>
<path fill="#F1652A" opacity="1.000000" stroke="none" 
	d="
M113.998169,76.988571 
	C113.996109,72.489929 114.179443,67.981071 113.932335,63.495934 
	C113.740601,60.016010 114.941078,58.889687 118.457977,58.922836 
	C134.951553,59.078293 151.447495,59.019474 167.942368,58.968643 
	C171.380997,58.958050 174.818726,58.657207 178.641815,58.471413 
	C178.423630,62.216953 178.323853,65.947433 177.970169,69.653679 
	C176.383926,86.276077 174.632278,102.883125 173.122910,119.512283 
	C171.941040,132.533295 171.047882,145.580307 169.987946,158.612625 
	C169.008865,170.650925 168.053528,182.692566 166.852905,194.709259 
	C166.735123,195.888153 165.157364,197.544617 163.943832,197.895538 
	C149.487473,202.075775 134.968063,206.037552 120.475845,210.094727 
	C118.616371,210.615311 116.817276,211.351532 113.989189,212.336487 
	C113.989189,205.200546 113.989189,198.793030 114.322266,191.771851 
	C116.754120,190.603836 118.851540,190.044250 120.951927,189.496048 
	C129.593048,187.240707 138.170700,184.683640 146.899231,182.842041 
	C152.801880,181.596664 154.537277,180.132233 155.002472,174.122330 
	C155.757889,164.363358 156.752930,154.623138 157.602966,144.871201 
	C158.345001,136.358276 159.026550,127.840073 159.753067,119.104630 
	C143.821136,119.104630 128.396484,119.104630 112.999382,119.011215 
	C113.026932,118.917809 113.066315,118.727051 113.045631,118.277412 
	C113.021339,111.891953 113.017738,105.956131 113.243103,99.884827 
	C113.665306,99.454742 113.858521,99.160141 114.275047,98.765457 
	C114.498352,98.665367 114.954941,98.841599 115.054840,99.031654 
	C115.452690,99.090096 115.750626,98.958481 116.502823,98.711922 
	C131.287827,98.673592 145.618561,98.750198 160.048798,99.013756 
	C160.408142,99.044235 160.667999,98.887756 161.031235,98.346878 
	C161.738892,91.373306 162.343185,84.784149 162.882965,78.005280 
	C162.540161,77.898621 162.261871,77.981667 161.525711,78.170090 
	C145.714294,78.205673 130.360764,78.135887 114.901802,77.833755 
	C114.530312,77.397141 114.264236,77.192856 113.998169,76.988571 
z"/>
<path fill="#F8F7F7" opacity="1.000000" stroke="none" 
	d="
M112.971832,119.104630 
	C128.396484,119.104630 143.821136,119.104630 159.753067,119.104630 
	C159.026550,127.840073 158.345001,136.358276 157.602966,144.871201 
	C156.752930,154.623138 155.757889,164.363358 155.002472,174.122330 
	C154.537277,180.132233 152.801880,181.596664 146.899231,182.842041 
	C138.170700,184.683640 129.593048,187.240707 120.951927,189.496048 
	C118.851540,190.044250 116.754120,190.603836 114.324493,191.335388 
	C100.993706,187.958328 87.979393,184.454437 75.019150,180.760834 
	C73.897598,180.441223 72.424355,178.940857 72.314095,177.865921 
	C71.349312,168.460449 70.657677,159.026932 69.854614,149.230835 
	C76.563866,149.230835 82.947357,149.230835 89.665611,149.230835 
	C90.080383,153.162567 90.256447,157.133087 91.021996,160.986526 
	C91.340385,162.589157 92.636993,164.842331 93.967827,165.255081 
	C100.285347,167.214401 106.768036,168.641129 113.997108,170.178070 
	C120.856094,168.509613 126.955757,167.068207 132.926376,165.211746 
	C134.177094,164.822876 135.670288,162.990829 135.827408,161.677368 
	C136.690216,154.464218 137.172211,147.205521 137.650421,139.556335 
	C129.335892,139.131653 121.155876,139.113113 113.019897,139.013245 
	C113.063919,138.931931 113.071571,138.747131 113.050125,138.295090 
	C113.009735,131.596909 112.990784,125.350769 112.971832,119.104630 
z"/>
<path fill="#ECE6E5" opacity="1.000000" stroke="none" 
	d="
M112.999382,119.011215 
	C112.990784,125.350769 113.009735,131.596909 112.582825,138.373962 
	C97.764694,138.897446 83.392441,138.890030 69.020180,138.882614 
	C67.208755,118.835129 65.397324,98.787651 64.039902,78.461906 
	C64.667091,78.138641 64.840279,78.093628 65.013458,78.048615 
	C80.365089,78.114128 95.716721,78.179634 111.784668,78.202477 
	C112.668259,78.107697 112.835541,78.055588 113.016670,78.161545 
	C113.030518,78.319603 112.945816,78.625435 112.972870,79.050156 
	C113.007278,85.806732 113.014648,92.138588 112.750542,98.553284 
	C112.303848,98.707497 112.128616,98.778854 111.497406,98.743317 
	C103.046539,98.703323 95.051666,98.770210 86.706314,98.848030 
	C86.189529,99.256645 86.023216,99.654320 85.797455,100.422775 
	C85.841263,101.533875 85.944519,102.274208 85.993546,103.381180 
	C86.009171,104.482506 86.079048,105.217201 86.106613,106.373627 
	C86.441444,110.539764 86.818604,114.284180 87.186218,118.258713 
	C87.176682,118.488838 87.504890,118.811699 87.504890,118.811699 
	C87.504890,118.811699 87.961250,118.750587 88.428177,118.814751 
	C96.952171,118.828293 105.009247,118.777672 113.066315,118.727051 
	C113.066315,118.727051 113.026932,118.917809 112.999382,119.011215 
z"/>
<path fill="#F1652A" opacity="1.000000" stroke="none" 
	d="
M137.784958,139.962463 
	C137.172211,147.205521 136.690216,154.464218 135.827408,161.677368 
	C135.670288,162.990829 134.177094,164.822876 132.926376,165.211746 
	C126.955757,167.068207 120.856094,168.509613 114.401520,170.059326 
	C113.998627,160.335068 113.996529,150.650116 114.466553,140.487213 
	C122.554100,139.993668 130.169525,139.978073 137.784958,139.962463 
z"/>
<path fill="#E43F04" opacity="1.000000" stroke="none" 
	d="
M69.284424,139.210373 
	C83.392441,138.890030 97.764694,138.897446 112.604263,138.825989 
	C113.071571,138.747131 113.063919,138.931931 113.028809,139.233368 
	C112.993698,139.534805 113.004349,139.975296 113.004349,139.975296 
	C98.519127,139.829575 84.033897,139.683853 69.284424,139.210373 
z"/>
<path fill="#F05700" opacity="1.000000" stroke="none" 
	d="
M113.253799,139.988586 
	C113.004349,139.975296 112.993698,139.534805 112.984787,139.314697 
	C121.155876,139.113113 129.335892,139.131653 137.650421,139.556335 
	C130.169525,139.978073 122.554100,139.993668 114.470314,140.020569 
	C114.001961,140.031891 113.503258,140.001877 113.253799,139.988586 
z"/>
<path fill="#F05C14" opacity="1.000000" stroke="none" 
	d="
M113.749496,76.993896 
	C114.264236,77.192856 114.530312,77.397141 114.556992,77.928772 
	C113.860336,78.379234 113.403076,78.502335 112.945816,78.625435 
	C112.945816,78.625435 113.030518,78.319603 113.018127,77.912125 
	C113.005737,77.504639 113.003410,77.005791 113.003410,77.005791 
	C113.003410,77.005791 113.500832,76.999222 113.749496,76.993896 
z"/>
<path fill="#E44313" opacity="1.000000" stroke="none" 
	d="
M112.777206,77.117302 
	C113.003410,77.005791 113.005737,77.504639 113.004280,77.754059 
	C112.835541,78.055588 112.668259,78.107697 112.244095,78.104279 
	C112.175148,77.775444 112.363075,77.502129 112.777206,77.117302 
z"/>
<path fill="#E44313" opacity="1.000000" stroke="none" 
	d="
M64.913063,77.872780 
	C64.840279,78.093628 64.667091,78.138641 64.226868,78.155502 
	C64.244110,77.983879 64.528389,77.840416 64.913063,77.872780 
z"/>
<path fill="#FFFFFF" opacity="1.000000" stroke="none" 
	d="
M112.972870,79.050156 
	C113.403076,78.502335 113.860336,78.379234 114.662407,78.161118 
	C130.360764,78.135887 145.714294,78.205673 161.760498,78.248428 
	C162.453140,78.221397 162.947479,78.194984 162.947479,78.194984 
	C162.343185,84.784149 161.738892,91.373306 160.780991,98.313103 
	C160.268021,98.718094 160.108658,98.772446 159.949310,98.826805 
	C145.618561,98.750198 131.287827,98.673592 116.228409,98.641800 
	C115.318130,98.738274 115.136536,98.789940 114.954941,98.841599 
	C114.954941,98.841599 114.498352,98.665367 114.024261,98.649307 
	C113.374123,98.578979 113.198067,98.524704 113.022011,98.470436 
	C113.014648,92.138588 113.007278,85.806732 112.972870,79.050156 
z"/>
<path fill="#E44D26" opacity="1.000000" stroke="none" 
	d="
M86.047783,103.014542 
	C85.944519,102.274208 85.841263,101.533875 86.062195,100.291779 
	C86.609848,99.472374 86.833321,99.154732 87.056786,98.837097 
	C95.051666,98.770210 103.046539,98.703323 111.610458,98.991074 
	C112.457718,99.570580 112.735924,99.795448 113.014130,100.020309 
	C113.017738,105.956131 113.021339,111.891953 113.045631,118.277412 
	C105.009247,118.777672 96.952171,118.828293 88.340332,118.656792 
	C87.627914,118.242737 87.431313,118.107376 87.195755,118.028595 
	C86.818604,114.284180 86.441444,110.539764 86.336502,106.183701 
	C86.421738,104.719551 86.234764,103.867043 86.047783,103.014542 
z"/>
<path fill="#E44311" opacity="1.000000" stroke="none" 
	d="
M113.243111,99.884827 
	C112.735924,99.795448 112.457718,99.570580 112.066452,99.097961 
	C112.128616,98.778854 112.303848,98.707497 112.750542,98.553284 
	C113.198067,98.524704 113.374123,98.578979 113.800964,98.749390 
	C113.858521,99.160141 113.665306,99.454742 113.243111,99.884827 
z"/>
<path fill="#F05C14" opacity="1.000000" stroke="none" 
	d="
M162.882965,78.005280 
	C162.947479,78.194984 162.453140,78.221397 162.218353,78.143059 
	C162.261871,77.981667 162.540161,77.898621 162.882965,78.005280 
z"/>
<path fill="#F05C14" opacity="1.000000" stroke="none" 
	d="
M115.054840,99.031654 
	C115.136536,98.789940 115.318130,98.738274 115.774155,98.756737 
	C115.750626,98.958481 115.452690,99.090096 115.054840,99.031654 
z"/>
<path fill="#F05C14" opacity="1.000000" stroke="none" 
	d="
M160.048798,99.013756 
	C160.108658,98.772446 160.268021,98.718094 160.677628,98.697510 
	C160.667999,98.887756 160.408142,99.044235 160.048798,99.013756 
z"/>
<path fill="#E44311" opacity="1.000000" stroke="none" 
	d="
M85.993546,103.381180 
	C86.234764,103.867043 86.421738,104.719551 86.378822,105.761978 
	C86.079048,105.217201 86.009171,104.482506 85.993546,103.381180 
z"/>
<path fill="#E44311" opacity="1.000000" stroke="none" 
	d="
M86.706314,98.848030 
	C86.833321,99.154732 86.609848,99.472374 86.121643,99.921005 
	C86.023216,99.654320 86.189529,99.256645 86.706314,98.848030 
z"/>
<path fill="#F1652A" opacity="1.000000" stroke="none" 
	d="
M87.186218,118.258713 
	C87.431313,118.107376 87.627914,118.242737 87.873398,118.592628 
	C87.961250,118.750587 87.504890,118.811699 87.504890,118.811699 
	C87.504890,118.811699 87.176682,118.488838 87.186218,118.258713 
z"/>
</svg>