<svg version="1.1" id="Layer_1" xmlns="http://www.w3.org/2000/svg" xmlns:xlink="http://www.w3.org/1999/xlink" x="0px" y="0px"
	 width="100%" viewBox="0 0 512 512" enable-background="new 0 0 512 512" xml:space="preserve">
<path fill="#1C6C94" opacity="1.000000" stroke="none" 
	d="
M1.000000,272.000000 
	C1.000000,251.645767 1.000000,231.291550 1.412776,210.552704 
	C2.539723,207.221939 3.517155,204.311783 3.925819,201.323837 
	C6.821842,180.149673 13.277711,159.964462 22.210835,140.719696 
	C36.530167,109.871323 56.082127,82.774345 81.990501,60.351845 
	C95.629051,48.548313 110.147766,38.131554 125.963211,29.607788 
	C149.718903,16.804611 174.856873,7.864565 201.659134,3.855303 
	C204.517822,3.427681 207.223389,1.976402 210.000000,1.000000 
	C220.020889,1.000000 230.041794,1.000000 240.530914,1.468657 
	C240.998886,23.599552 241.000290,45.261787 240.998154,66.924026 
	C240.984558,204.895752 240.970154,342.867493 240.493698,480.898987 
	C224.584076,481.701691 209.340408,479.938660 194.231873,476.962860 
	C166.705780,471.541260 140.794922,461.727264 116.814003,447.175659 
	C95.965111,434.524506 77.299080,419.239960 61.100014,400.813690 
	C48.833805,386.861084 38.124454,371.920288 29.390020,355.638123 
	C16.713926,332.008148 7.732337,307.029785 3.854297,280.346863 
	C3.438611,277.486694 1.976621,274.778625 1.000000,272.000000 
M164.149658,435.428467 
	C164.419357,435.469147 164.689056,435.509796 164.958740,435.550446 
	C164.780655,435.201111 164.602554,434.851776 164.255463,433.840881 
	C149.823196,412.587585 139.258896,389.504181 131.859131,364.954041 
	C130.922882,361.847870 129.359070,360.897430 126.175438,360.927673 
	C110.016388,361.081238 93.855087,360.998016 77.694580,360.997772 
	C75.426125,360.997742 73.157669,360.997772 69.946205,360.997772 
	C71.356789,363.123840 72.173347,364.492340 73.121300,365.762817 
	C88.111115,385.852448 105.835014,403.182159 127.206169,416.269592 
	C138.902863,423.432495 151.655975,428.870331 164.149658,435.428467 
M163.179947,46.959888 
	C124.883217,62.061714 94.181519,86.671944 69.589577,120.987961 
	C89.911110,120.987961 108.877487,121.072189 127.839073,120.810066 
	C129.191406,120.791374 131.097534,118.464890 131.746048,116.817711 
	C135.768860,106.599968 138.784714,95.923882 143.514603,86.061668 
	C149.830032,72.893463 157.402573,60.328156 164.744141,47.282825 
	C164.829163,47.022320 164.914169,46.761814 164.999176,46.501305 
	C164.640503,46.635765 164.281830,46.770222 163.179947,46.959888 
M225.999847,288.500000 
	C225.999847,277.761993 225.999847,267.024017 225.999847,256.351227 
	C198.284729,256.351227 171.533707,256.351227 144.601700,256.351227 
	C144.465561,257.473389 144.201294,258.292328 144.296204,259.067230 
	C147.024765,281.345673 149.821198,303.615845 152.517120,325.898193 
	C152.974594,329.679291 154.523285,331.139801 158.597336,331.097992 
	C179.420517,330.884094 200.247070,331.005646 221.072433,330.984528 
	C222.522903,330.983063 223.973175,330.776123 225.999847,330.620422 
	C225.999847,316.727875 225.999847,303.113953 225.999847,288.500000 
M197.500000,225.999786 
	C206.905716,225.999786 216.311417,225.999786 225.551559,225.999786 
	C225.551559,200.480209 225.551559,175.924469 225.551559,151.015045 
	C202.300873,151.015045 179.495758,150.949051 156.693848,151.188873 
	C155.407822,151.202408 153.254395,153.588211 153.012939,155.109314 
	C150.223831,172.680511 147.520828,190.271744 145.267532,207.917999 
	C144.526688,213.719711 145.150894,219.695755 145.150894,225.999786 
	C162.228149,225.999786 179.364075,225.999786 197.500000,225.999786 
M115.508080,277.987976 
	C115.004128,270.770477 114.500175,263.553009 113.995651,256.327271 
	C86.312767,256.327271 59.415203,256.327271 32.622303,256.327271 
	C32.413445,256.962189 32.201263,257.280334 32.225826,257.579041 
	C34.232941,281.986633 40.225967,305.351715 50.371124,327.666565 
	C51.641121,330.459991 53.423244,331.056671 56.202965,331.045288 
	C77.013062,330.960144 97.823677,331.005554 118.634102,330.982147 
	C119.903679,330.980713 121.172989,330.740997 122.024734,330.654510 
	C119.873611,313.185638 117.762939,296.045258 115.508080,277.987976 
M34.974781,204.532578 
	C34.005714,211.425369 33.036652,218.318161 32.007835,225.635925 
	C59.569832,225.635925 86.614136,225.635925 113.203194,225.635925 
	C116.098091,200.654709 118.945679,176.081680 121.825722,151.228638 
	C120.834274,151.170929 119.367157,151.012360 117.899910,151.011185 
	C97.568520,150.994858 77.235954,151.112137 56.906734,150.901276 
	C53.053036,150.861313 51.383457,152.337631 49.936844,155.638748 
	C43.160477,171.102219 38.203506,187.102600 34.974781,204.532578 
M226.000763,437.445129 
	C226.000763,412.070648 226.000763,386.696136 226.000763,361.230713 
	C204.296143,361.230713 183.531158,361.230713 161.721191,361.230713 
	C165.307037,370.050171 168.420135,378.428772 172.081039,386.560760 
	C179.708664,403.504181 189.091095,419.379120 202.419128,432.556549 
	C209.035568,439.098267 216.367737,444.716553 226.000763,447.965179 
	C226.000763,444.348907 226.000763,441.383698 226.000763,437.445129 
M226.000534,63.500000 
	C226.000534,53.886463 226.000534,44.272923 226.000534,34.557522 
	C203.341431,39.317860 163.717896,93.971153 163.122955,120.670242 
	C183.879349,120.670242 204.635742,120.670242 226.000534,120.670242 
	C226.000534,101.730919 226.000534,83.115456 226.000534,63.500000 
z"/>
<path fill="#165771" opacity="1.000000" stroke="none" 
	d="
M240.956039,480.839203 
	C240.970154,342.867493 240.984558,204.895752 240.998154,66.924026 
	C241.000290,45.261787 240.998886,23.599552 240.999573,1.468657 
	C251.020889,1.000000 261.041779,1.000000 271.524017,1.407553 
	C276.096741,2.601439 280.215515,3.351061 284.318298,4.180053 
	C311.165283,9.604680 336.752472,18.386259 360.576721,32.145096 
	C385.152954,46.338207 406.921234,63.927536 425.089081,85.692093 
	C442.224091,106.219315 455.900635,128.961105 465.479279,154.002289 
	C473.878632,175.960617 479.676880,198.713730 480.753845,222.155731 
	C481.549164,239.468124 480.196594,256.937164 478.912567,274.270569 
	C477.666260,291.094666 472.961182,307.259247 466.775940,323.287231 
	C456.657898,321.009155 446.752380,318.467712 436.919312,315.556763 
	C443.826141,296.213684 448.524902,276.792084 449.578979,256.457153 
	C422.269409,256.457153 395.245697,256.457153 368.274811,256.457153 
	C367.068756,270.506287 365.902069,284.096863 364.329071,297.647369 
	C354.287415,295.046417 344.652069,292.485565 335.048187,289.506653 
	C335.977783,278.223114 336.875916,267.357635 337.788788,256.314117 
	C310.064331,256.314117 283.323517,256.314117 256.448364,256.314117 
	C256.448364,281.316284 256.448364,306.001862 256.448364,330.996521 
	C267.546814,330.996521 278.199402,330.996521 288.968658,331.369904 
	C291.548584,341.436279 294.011810,351.129242 295.976013,360.884155 
	C282.410980,360.946075 269.344971,360.946075 256.194336,360.946075 
	C256.194336,390.358276 256.194336,418.798126 256.194336,448.571960 
	C261.400787,445.509613 266.177307,443.228760 270.361847,440.144714 
	C286.023041,428.602142 296.530945,412.888885 305.574341,396.171570 
	C309.718903,411.852356 313.722900,427.218079 317.503784,442.638489 
	C319.494629,450.758209 321.095673,458.973511 322.537445,467.275940 
	C320.977844,467.861084 319.766724,468.355957 318.527283,468.765015 
	C293.338287,477.077515 267.643555,482.150269 240.956039,480.839203 
M273.501495,225.999146 
	C294.601196,225.999146 315.700897,225.999146 337.182159,225.999146 
	C337.182159,223.618515 337.224884,221.984940 337.175659,220.354172 
	C336.521271,198.676758 333.628143,177.284683 329.348724,156.035751 
	C328.562408,152.131424 327.212555,150.878799 323.246948,150.914490 
	C302.587311,151.100494 281.925110,150.994858 261.263794,151.013748 
	C259.657959,151.015213 258.052246,151.193970 256.324677,151.297638 
	C256.324677,176.303467 256.324677,200.869736 256.324677,225.999146 
	C261.926422,225.999146 267.214355,225.999146 273.501495,225.999146 
M359.674957,152.341827 
	C362.850372,176.665771 366.025787,200.989716 369.234924,225.571838 
	C395.501648,225.571838 422.478516,225.571838 449.605408,225.571838 
	C447.901611,200.696426 441.841583,177.386993 431.980011,154.995163 
	C430.633514,151.937744 428.937592,150.897339 425.602875,150.922562 
	C404.970642,151.078552 384.336670,150.991104 363.703339,151.024307 
	C362.410553,151.026382 361.118256,151.365417 359.674957,152.341827 
M261.906769,36.535831 
	C260.132843,35.776684 258.358948,35.017540 256.308472,34.140041 
	C256.308472,63.319256 256.308472,91.862106 256.308472,120.688683 
	C277.453583,120.688683 298.290161,120.688683 319.447632,120.688683 
	C319.065308,119.216560 318.857697,118.084702 318.480011,117.012756 
	C312.715942,100.653145 305.658905,84.898155 296.149445,70.341759 
	C287.325684,56.834953 277.026978,44.756851 261.906769,36.535831 
M344.643219,99.907051 
	C346.575165,105.577454 348.696899,111.192841 350.363007,116.940308 
	C351.263489,120.046616 352.758484,121.099754 355.986786,121.069298 
	C371.984161,120.918335 387.983734,121.001060 403.982513,121.001404 
	C406.411499,121.001457 408.840485,121.001404 412.537567,121.001404 
	C387.593323,86.720520 356.668671,62.352356 318.186432,47.501293 
	C328.711548,63.959438 337.499695,81.079521 344.643219,99.907051 
z"/>
<path fill="#000000" opacity="1.000000" stroke="none" 
	d="
M466.988495,323.023895 
	C472.961182,307.259247 477.666260,291.094666 478.912567,274.270569 
	C480.196594,256.937164 481.549164,239.468124 480.753845,222.155731 
	C479.676880,198.713730 473.878632,175.960617 465.479279,154.002289 
	C455.900635,128.961105 442.224091,106.219315 425.089081,85.692093 
	C406.921234,63.927536 385.152954,46.338207 360.576721,32.145096 
	C336.752472,18.386259 311.165283,9.604680 284.318298,4.180053 
	C280.215515,3.351061 276.096741,2.601439 271.992676,1.407553 
	C352.272827,1.000000 432.545654,1.000000 513.000000,1.000000 
	C513.000000,114.020828 513.000000,227.041763 512.745911,340.864258 
	C508.704315,335.344635 503.165833,332.226257 495.861298,330.769714 
	C486.109924,328.825317 476.601349,325.663086 466.988495,323.023895 
z"/>
<path fill="#000000" opacity="1.000000" stroke="none" 
	d="
M240.493698,480.898987 
	C267.643555,482.150269 293.338287,477.077515 318.527283,468.765015 
	C319.766724,468.355957 320.977844,467.861084 322.705139,467.619812 
	C325.462341,476.032654 327.903961,484.186218 329.916229,492.444427 
	C331.788788,500.129303 332.927460,508.084015 341.243073,511.985962 
	C341.306641,512.015808 341.087250,512.648682 341.000000,513.000000 
	C227.752029,513.000000 114.504066,513.000000 1.000000,513.000000 
	C1.000000,432.979279 1.000000,352.958313 1.000000,272.468658 
	C1.976621,274.778625 3.438611,277.486694 3.854297,280.346863 
	C7.732337,307.029785 16.713926,332.008148 29.390020,355.638123 
	C38.124454,371.920288 48.833805,386.861084 61.100014,400.813690 
	C77.299080,419.239960 95.965111,434.524506 116.814003,447.175659 
	C140.794922,461.727264 166.705780,471.541260 194.231873,476.962860 
	C209.340408,479.938660 224.584076,481.701691 240.493698,480.898987 
z"/>
<path fill="#FE9022" opacity="1.000000" stroke="none" 
	d="
M341.460632,513.000000 
	C341.087250,512.648682 341.306641,512.015808 341.243073,511.985962 
	C332.927460,508.084015 331.788788,500.129303 329.916229,492.444427 
	C327.903961,484.186218 325.462341,476.032654 323.040405,467.489532 
	C321.095673,458.973511 319.494629,450.758209 317.503784,442.638489 
	C313.722900,427.218079 309.718903,411.852356 305.515320,395.768524 
	C302.307098,383.656158 299.391052,372.239197 296.475037,360.822235 
	C294.011810,351.129242 291.548584,341.436279 288.995270,330.981964 
	C286.193237,319.404724 283.273773,308.634796 280.861053,297.752533 
	C279.735382,292.675140 281.156219,287.984253 285.952576,285.102478 
	C287.138184,286.512177 288.105286,287.659302 289.162323,288.716522 
	C352.869720,352.437012 416.583130,416.151428 480.309174,479.853241 
	C481.479279,481.022888 482.807281,482.034546 483.934723,483.423248 
	C475.617371,491.911713 467.414948,500.084900 459.247467,508.292847 
	C457.758514,509.789154 456.412170,511.427338 455.000000,513.000000 
	C450.310760,513.000000 445.621490,513.000000 440.792877,512.752686 
	C426.123047,498.312561 411.592590,484.119659 396.210846,469.095276 
	C395.005157,470.738586 394.116821,472.399506 392.825104,473.640656 
	C379.495483,486.448486 366.098877,499.186554 352.751282,511.975739 
	C352.623962,512.097717 352.908020,512.649109 353.000000,513.000000 
	C349.307098,513.000000 345.614166,513.000000 341.460632,513.000000 
z"/>
<path fill="#FCBE29" opacity="1.000000" stroke="none" 
	d="
M484.061646,483.119873 
	C482.807281,482.034546 481.479279,481.022888 480.309174,479.853241 
	C416.583130,416.151428 352.869720,352.437012 289.162323,288.716522 
	C288.105286,287.659302 287.138184,286.512177 286.132202,284.781860 
	C290.472687,280.451263 295.442719,280.155640 300.707642,281.455109 
	C312.144135,284.277771 323.580383,287.101471 335.016754,289.924713 
	C344.652069,292.485565 354.287415,295.046417 364.657288,297.784973 
	C368.768890,298.826813 372.142578,299.704590 375.523621,300.552856 
	C395.963745,305.681122 416.405609,310.802551 436.846863,315.926300 
	C446.752380,318.467712 456.657898,321.009155 466.775940,323.287231 
	C476.601349,325.663086 486.109924,328.825317 495.861298,330.769714 
	C503.165833,332.226257 508.704315,335.344635 512.745911,341.332947 
	C513.000000,344.692902 513.000000,348.385834 512.746155,352.206360 
	C498.358917,367.305542 484.225525,382.277130 469.914001,397.437408 
	C482.680420,410.196045 495.465942,422.989990 508.278595,435.756744 
	C509.775543,437.248291 511.422546,438.589233 513.000000,440.000000 
	C513.000000,444.689240 513.000000,449.378510 512.756104,454.202637 
	C503.028656,463.931610 493.545135,473.525726 484.061646,483.119873 
z"/>
<path fill="#000000" opacity="1.000000" stroke="none" 
	d="
M209.531342,1.000000 
	C207.223389,1.976402 204.517822,3.427681 201.659134,3.855303 
	C174.856873,7.864565 149.718903,16.804611 125.963211,29.607788 
	C110.147766,38.131554 95.629051,48.548313 81.990501,60.351845 
	C56.082127,82.774345 36.530167,109.871323 22.210835,140.719696 
	C13.277711,159.964462 6.821842,180.149673 3.925819,201.323837 
	C3.517155,204.311783 2.539723,207.221939 1.412776,210.084045 
	C1.000000,140.406296 1.000000,70.812592 1.000000,1.000000 
	C70.354073,1.000000 139.708374,1.000000 209.531342,1.000000 
z"/>
<path fill="#000000" opacity="1.000000" stroke="none" 
	d="
M353.468658,513.000000 
	C352.908020,512.649109 352.623962,512.097717 352.751282,511.975739 
	C366.098877,499.186554 379.495483,486.448486 392.825104,473.640656 
	C394.116821,472.399506 395.005157,470.738586 396.210846,469.095276 
	C411.592590,484.119659 426.123047,498.312561 440.326752,512.752686 
	C411.312439,513.000000 382.624878,513.000000 353.468658,513.000000 
z"/>
<path fill="#000000" opacity="1.000000" stroke="none" 
	d="
M513.000000,439.531342 
	C511.422546,438.589233 509.775543,437.248291 508.278595,435.756744 
	C495.465942,422.989990 482.680420,410.196045 469.914001,397.437408 
	C484.225525,382.277130 498.358917,367.305542 512.746155,352.666992 
	C513.000000,381.687561 513.000000,410.375122 513.000000,439.531342 
z"/>
<path fill="#000000" opacity="1.000000" stroke="none" 
	d="
M483.934692,483.423218 
	C493.545135,473.525726 503.028656,463.931610 512.756104,454.668762 
	C513.000000,474.260132 513.000000,493.520264 513.000000,513.000000 
	C493.979675,513.000000 474.958496,513.000000 455.468658,513.000000 
	C456.412170,511.427338 457.758514,509.789154 459.247467,508.292847 
	C467.414948,500.084900 475.617371,491.911713 483.934692,483.423218 
z"/>
<path fill="#30D9F6" opacity="1.000000" stroke="none" 
	d="
M225.999847,289.000000 
	C225.999847,303.113953 225.999847,316.727875 225.999847,330.620422 
	C223.973175,330.776123 222.522903,330.983063 221.072433,330.984528 
	C200.247070,331.005646 179.420517,330.884094 158.597336,331.097992 
	C154.523285,331.139801 152.974594,329.679291 152.517120,325.898193 
	C149.821198,303.615845 147.024765,281.345673 144.296204,259.067230 
	C144.201294,258.292328 144.465561,257.473389 144.601700,256.351227 
	C171.533707,256.351227 198.284729,256.351227 225.999847,256.351227 
	C225.999847,267.024017 225.999847,277.761993 225.999847,289.000000 
z"/>
<path fill="#30D9F6" opacity="1.000000" stroke="none" 
	d="
M197.000000,225.999786 
	C179.364075,225.999786 162.228149,225.999786 145.150894,225.999786 
	C145.150894,219.695755 144.526688,213.719711 145.267532,207.917999 
	C147.520828,190.271744 150.223831,172.680511 153.012939,155.109314 
	C153.254395,153.588211 155.407822,151.202408 156.693848,151.188873 
	C179.495758,150.949051 202.300873,151.015045 225.551559,151.015045 
	C225.551559,175.924469 225.551559,200.480209 225.551559,225.999786 
	C216.311417,225.999786 206.905716,225.999786 197.000000,225.999786 
z"/>
<path fill="#30D9F6" opacity="1.000000" stroke="none" 
	d="
M115.580170,278.446411 
	C117.762939,296.045258 119.873611,313.185638 122.024734,330.654510 
	C121.172989,330.740997 119.903679,330.980713 118.634102,330.982147 
	C97.823677,331.005554 77.013062,330.960144 56.202965,331.045288 
	C53.423244,331.056671 51.641121,330.459991 50.371124,327.666565 
	C40.225967,305.351715 34.232941,281.986633 32.225826,257.579041 
	C32.201263,257.280334 32.413445,256.962189 32.622303,256.327271 
	C59.415203,256.327271 86.312767,256.327271 113.995651,256.327271 
	C114.500175,263.553009 115.004128,270.770477 115.580170,278.446411 
z"/>
<path fill="#30D9F6" opacity="1.000000" stroke="none" 
	d="
M35.010254,204.103455 
	C38.203506,187.102600 43.160477,171.102219 49.936844,155.638748 
	C51.383457,152.337631 53.053036,150.861313 56.906734,150.901276 
	C77.235954,151.112137 97.568520,150.994858 117.899910,151.011185 
	C119.367157,151.012360 120.834274,151.170929 121.825722,151.228638 
	C118.945679,176.081680 116.098091,200.654709 113.203194,225.635925 
	C86.614136,225.635925 59.569832,225.635925 32.007835,225.635925 
	C33.036652,218.318161 34.005714,211.425369 35.010254,204.103455 
z"/>
<path fill="#30D9F6" opacity="1.000000" stroke="none" 
	d="
M226.000763,437.931824 
	C226.000763,441.383698 226.000763,444.348907 226.000763,447.965179 
	C216.367737,444.716553 209.035568,439.098267 202.419128,432.556549 
	C189.091095,419.379120 179.708664,403.504181 172.081039,386.560760 
	C168.420135,378.428772 165.307037,370.050171 161.721191,361.230713 
	C183.531158,361.230713 204.296143,361.230713 226.000763,361.230713 
	C226.000763,386.696136 226.000763,412.070648 226.000763,437.931824 
z"/>
<path fill="#30D9F6" opacity="1.000000" stroke="none" 
	d="
M226.000534,64.000000 
	C226.000534,83.115456 226.000534,101.730919 226.000534,120.670242 
	C204.635742,120.670242 183.879349,120.670242 163.122101,120.669319 
	C163.717896,93.971153 203.341431,39.317860 226.000534,34.557522 
	C226.000534,44.272923 226.000534,53.886463 226.000534,64.000000 
z"/>
<path fill="#30D8F5" opacity="1.000000" stroke="none" 
	d="
M164.435196,47.503914 
	C157.402573,60.328156 149.830032,72.893463 143.514603,86.061668 
	C138.784714,95.923882 135.768860,106.599968 131.746048,116.817711 
	C131.097534,118.464890 129.191406,120.791374 127.839073,120.810066 
	C108.877487,121.072189 89.911110,120.987961 69.589577,120.987961 
	C94.181519,86.671944 124.883217,62.061714 163.676758,47.084480 
	C164.173584,47.209072 164.435196,47.503914 164.435196,47.503914 
z"/>
<path fill="#30D8F5" opacity="1.000000" stroke="none" 
	d="
M163.932724,435.086060 
	C151.655975,428.870331 138.902863,423.432495 127.206169,416.269592 
	C105.835014,403.182159 88.111115,385.852448 73.121300,365.762817 
	C72.173347,364.492340 71.356789,363.123840 69.946205,360.997772 
	C73.157669,360.997772 75.426125,360.997742 77.694580,360.997772 
	C93.855087,360.998016 110.016388,361.081238 126.175438,360.927673 
	C129.359070,360.897430 130.922882,361.847870 131.859131,364.954041 
	C139.258896,389.504181 149.823196,412.587585 164.214691,434.315613 
	C164.173904,434.790314 163.932724,435.086060 163.932724,435.086060 
z"/>
<path fill="#30D8F5" opacity="1.000000" stroke="none" 
	d="
M164.299179,434.646362 
	C164.602554,434.851776 164.780655,435.201111 164.958740,435.550446 
	C164.689056,435.509796 164.419357,435.469147 164.041199,435.257263 
	C163.932724,435.086060 164.173904,434.790314 164.299179,434.646362 
z"/>
<path fill="#30D8F5" opacity="1.000000" stroke="none" 
	d="
M164.048370,47.056877 
	C164.281830,46.770222 164.640503,46.635765 164.999176,46.501305 
	C164.914169,46.761814 164.829163,47.022320 164.589661,47.393372 
	C164.435196,47.503914 164.173584,47.209072 164.048370,47.056877 
z"/>
<path fill="#19C0EF" opacity="1.000000" stroke="none" 
	d="
M273.001892,225.999146 
	C267.214355,225.999146 261.926422,225.999146 256.324677,225.999146 
	C256.324677,200.869736 256.324677,176.303467 256.324677,151.297638 
	C258.052246,151.193970 259.657959,151.015213 261.263794,151.013748 
	C281.925110,150.994858 302.587311,151.100494 323.246948,150.914490 
	C327.212555,150.878799 328.562408,152.131424 329.348724,156.035751 
	C333.628143,177.284683 336.521271,198.676758 337.175659,220.354172 
	C337.224884,221.984940 337.182159,223.618515 337.182159,225.999146 
	C315.700897,225.999146 294.601196,225.999146 273.001892,225.999146 
z"/>
<path fill="#19C0EF" opacity="1.000000" stroke="none" 
	d="
M359.750366,151.944763 
	C361.118256,151.365417 362.410553,151.026382 363.703339,151.024307 
	C384.336670,150.991104 404.970642,151.078552 425.602875,150.922562 
	C428.937592,150.897339 430.633514,151.937744 431.980011,154.995163 
	C441.841583,177.386993 447.901611,200.696426 449.605408,225.571838 
	C422.478516,225.571838 395.501648,225.571838 369.234924,225.571838 
	C366.025787,200.989716 362.850372,176.665771 359.750366,151.944763 
z"/>
<path fill="#1AC0EE" opacity="1.000000" stroke="none" 
	d="
M436.919312,315.556763 
	C416.405609,310.802551 395.963745,305.681122 375.523621,300.552856 
	C372.142578,299.704590 368.768890,298.826813 365.063599,297.825073 
	C365.902069,284.096863 367.068756,270.506287 368.274811,256.457153 
	C395.245697,256.457153 422.269409,256.457153 449.578979,256.457153 
	C448.524902,276.792084 443.826141,296.213684 436.919312,315.556763 
z"/>
<path fill="#1AC0EE" opacity="1.000000" stroke="none" 
	d="
M335.048187,289.506653 
	C323.580383,287.101471 312.144135,284.277771 300.707642,281.455109 
	C295.442719,280.155640 290.472687,280.451263 285.955658,284.477356 
	C281.156219,287.984253 279.735382,292.675140 280.861053,297.752533 
	C283.273773,308.634796 286.193237,319.404724 288.878571,330.608582 
	C278.199402,330.996521 267.546814,330.996521 256.448364,330.996521 
	C256.448364,306.001862 256.448364,281.316284 256.448364,256.314117 
	C283.323517,256.314117 310.064331,256.314117 337.788788,256.314117 
	C336.875916,267.357635 335.977783,278.223114 335.048187,289.506653 
z"/>
<path fill="#19C0EF" opacity="1.000000" stroke="none" 
	d="
M262.232849,36.714577 
	C277.026978,44.756851 287.325684,56.834953 296.149445,70.341759 
	C305.658905,84.898155 312.715942,100.653145 318.480011,117.012756 
	C318.857697,118.084702 319.065308,119.216560 319.447632,120.688683 
	C298.290161,120.688683 277.453583,120.688683 256.308472,120.688683 
	C256.308472,91.862106 256.308472,63.319256 256.308472,34.140041 
	C258.358948,35.017540 260.132843,35.776684 262.232849,36.714577 
z"/>
<path fill="#19C0EF" opacity="1.000000" stroke="none" 
	d="
M295.976013,360.884155 
	C299.391052,372.239197 302.307098,383.656158 305.282104,395.476135 
	C296.530945,412.888885 286.023041,428.602142 270.361847,440.144714 
	C266.177307,443.228760 261.400787,445.509613 256.194336,448.571960 
	C256.194336,418.798126 256.194336,390.358276 256.194336,360.946075 
	C269.344971,360.946075 282.410980,360.946075 295.976013,360.884155 
z"/>
<path fill="#19BFEE" opacity="1.000000" stroke="none" 
	d="
M344.475952,99.557083 
	C337.499695,81.079521 328.711548,63.959438 318.186432,47.501293 
	C356.668671,62.352356 387.593323,86.720520 412.537567,121.001404 
	C408.840485,121.001404 406.411499,121.001457 403.982513,121.001404 
	C387.983734,121.001060 371.984161,120.918335 355.986786,121.069298 
	C352.758484,121.099754 351.263489,120.046616 350.363007,116.940308 
	C348.696899,111.192841 346.575165,105.577454 344.475952,99.557083 
z"/>
</svg>