<svg version="1.1" id="Layer_1" xmlns="http://www.w3.org/2000/svg" xmlns:xlink="http://www.w3.org/1999/xlink" x="0px" y="0px"
	 width="100%" viewBox="0 0 217 148" enable-background="new 0 0 217 148" xml:space="preserve">
<path fill="#F6F6F6" opacity="1.000000" stroke="none" 
	d="
M127.000000,149.000000 
	C84.695335,149.000000 42.890675,149.000000 1.043005,149.000000 
	C1.043005,99.729179 1.043005,50.458309 1.043005,1.093719 
	C73.221176,1.093719 145.442505,1.093719 217.831924,1.093719 
	C217.831924,50.332878 217.831924,99.666382 217.831924,149.000000 
	C187.791946,149.000000 157.645981,149.000000 127.000000,149.000000 
M63.499325,50.375271 
	C62.799927,51.585682 62.100529,52.796093 61.058491,54.802982 
	C62.834114,60.808353 64.609741,66.813721 66.420395,72.937584 
	C71.564003,68.912727 71.878098,66.613876 68.903580,61.561577 
	C67.539299,59.244308 66.864899,56.520878 66.154045,53.352348 
	C68.263428,50.732746 70.372810,48.113144 72.482201,45.493542 
	C72.100853,45.086418 71.719505,44.679291 71.338158,44.272163 
	C68.927727,46.196960 66.517303,48.121754 64.029663,50.034542 
	C64.029663,50.034542 64.046776,50.110790 63.499325,50.375271 
M117.509781,75.733482 
	C117.316414,75.769211 117.151871,75.858429 116.270020,75.970070 
	C112.178078,79.206902 111.921646,81.221252 115.419449,86.625389 
	C119.037308,86.713310 122.655159,86.801231 127.085541,86.805428 
	C127.650238,86.582222 128.703094,86.369431 128.708099,86.134285 
	C128.827682,80.530334 129.456955,74.814880 128.504166,69.380867 
	C128.196136,67.624023 123.784935,65.861504 121.057732,65.479652 
	C118.810135,65.164955 115.186745,65.031509 114.038811,69.009811 
	C124.481918,69.433167 124.481918,69.433167 124.569069,73.670723 
	C123.022583,73.988045 121.457535,74.309174 119.041290,74.634209 
	C118.618721,74.973679 118.196144,75.313148 117.509781,75.733482 
M74.469696,107.826218 
	C75.087120,107.598076 75.704552,107.369926 76.321976,107.141785 
	C76.272560,106.819130 76.223152,106.496468 76.173737,106.173813 
	C74.467163,106.173813 72.760597,106.173813 70.199677,105.886131 
	C67.816177,106.009796 65.432678,106.133453 62.128571,106.069832 
	C58.031487,106.164909 53.934406,106.259987 49.149151,106.252502 
	C48.453510,106.237450 47.757870,106.222389 46.542171,105.941811 
	C46.351311,105.979996 46.160454,106.018173 45.098915,105.952660 
	C40.586174,105.326363 35.119263,107.100090 32.567478,100.354591 
	C30.677036,101.705620 28.988697,102.912209 27.300358,104.118805 
	C27.400114,104.624336 27.499870,105.129875 27.599627,105.635414 
	C29.751036,106.073807 31.902447,106.512207 34.612907,107.368973 
	C35.757545,107.483444 36.902184,107.597916 38.833187,107.853294 
	C39.896011,107.864754 40.958832,107.876205 42.742592,108.261215 
	C53.109463,108.077019 63.476337,107.892830 74.469696,107.826218 
M68.951202,113.022591 
	C76.954773,112.555336 84.986420,112.195625 93.132385,106.961754 
	C83.894958,108.499626 76.000641,109.813889 67.161842,110.979156 
	C58.347012,110.979156 49.532185,110.979156 40.717354,110.979156 
	C40.711044,111.472061 40.704735,111.964966 40.698425,112.457870 
	C49.816933,112.615700 58.935440,112.773537 68.951202,113.022591 
M44.163620,77.938446 
	C43.251804,77.108559 42.339989,76.278679 41.428173,75.448792 
	C41.572521,74.841637 41.716866,74.234482 41.861214,73.627319 
	C39.491158,74.604691 37.121101,75.582062 34.751049,76.559433 
	C34.784920,77.142265 34.818790,77.725098 34.852661,78.307930 
	C37.582294,78.819847 40.311928,79.331772 43.704124,80.306992 
	C50.795956,80.927299 57.871235,81.295372 64.830704,79.899033 
	C64.819664,79.274399 64.808624,78.649757 64.797585,78.025116 
	C58.196899,78.025116 51.596210,78.025116 44.163620,77.938446 
M109.969505,84.050018 
	C109.862373,75.726456 109.755234,67.402885 109.248840,58.531803 
	C106.464890,57.780609 105.338280,58.703678 105.408554,61.714226 
	C105.567375,68.519325 105.715446,75.345337 105.330986,82.132423 
	C105.174782,84.889885 103.570412,87.552437 102.734138,90.291496 
	C102.454552,91.207268 102.514122,92.226593 102.418655,93.198578 
	C103.432266,93.102516 105.009628,93.380150 105.363304,92.846626 
	C107.023048,90.342766 108.346382,87.615898 109.969505,84.050018 
M158.338226,75.010376 
	C153.371521,75.423080 151.055389,77.823303 151.576294,82.017807 
	C152.048813,85.822708 154.940277,87.616989 159.272278,86.844475 
	C161.886032,86.378380 164.512192,85.981972 167.039902,85.569405 
	C167.039902,81.057785 167.257843,76.412064 166.924606,71.806213 
	C166.803940,70.138374 165.774872,67.954437 164.449524,67.064507 
	C160.449203,64.378441 156.612701,66.394409 152.865173,68.325546 
	C155.048004,69.068703 157.199921,69.102821 159.350342,69.060120 
	C162.079163,69.005936 163.437347,70.098724 162.069794,72.988441 
	C161.034821,73.684746 159.999863,74.381050 158.338226,75.010376 
M140.422592,79.640007 
	C138.258636,75.013191 139.364273,68.543503 132.885376,66.204453 
	C133.912781,72.822334 135.627502,79.133827 137.925400,85.225342 
	C138.179153,85.898033 143.286667,85.923820 143.572052,85.214813 
	C146.048309,79.062683 147.936371,72.673813 149.999466,66.355392 
	C149.296890,65.945129 148.594315,65.534866 147.891754,65.124603 
	C146.875443,66.215836 145.439285,67.138733 144.921600,68.429893 
	C143.370087,72.299530 142.177475,76.313072 140.422592,79.640007 
M64.559418,43.078655 
	C65.652878,41.807213 66.746338,40.535774 67.839798,39.264332 
	C65.794228,38.743458 64.150024,38.759239 63.113251,39.560749 
	C59.441139,42.399590 55.783588,45.310535 52.478680,48.558586 
	C47.543922,53.408428 47.689274,59.335987 52.564838,64.299774 
	C54.204159,65.968750 56.015919,67.468346 57.748863,69.045357 
	C51.436424,61.344902 51.703335,54.794949 58.817341,48.172756 
	C60.517677,46.589966 62.310940,45.107010 64.559418,43.078655 
M47.670483,93.508247 
	C46.689968,94.145485 45.709454,94.782715 44.728931,95.419945 
	C45.537766,96.344376 46.173225,97.760002 47.182598,98.116280 
	C56.020267,101.235611 64.743713,100.605148 73.372643,96.626198 
	C71.164238,95.545082 68.913284,95.180908 66.648735,95.047340 
	C60.478664,94.683411 54.302845,94.416924 47.670483,93.508247 
M42.623020,84.669502 
	C41.010143,88.369179 44.227016,88.515511 46.147003,88.914604 
	C55.862362,90.934013 65.494095,90.407166 75.023285,86.887169 
	C72.859329,85.965866 70.640335,85.568077 68.435913,85.636963 
	C60.334103,85.890152 52.014442,88.894684 44.381199,83.544548 
	C44.213078,83.426720 43.558865,84.002411 42.623020,84.669502 
M87.072105,85.957634 
	C89.052361,84.107979 91.697510,82.576836 92.787819,80.300850 
	C93.562866,78.682961 92.778290,75.720627 91.683830,73.997139 
	C90.838142,72.665398 88.431808,72.324707 86.719315,71.543404 
	C91.017685,77.209846 91.080490,78.438896 86.914635,83.822441 
	C86.410408,84.474045 85.917763,85.134605 85.419746,85.791016 
	C85.805290,85.805244 86.190826,85.819473 87.072105,85.957634 
z"/>
<path fill="#DF3738" opacity="1.000000" stroke="none" 
	d="
M140.633698,79.955231 
	C142.177475,76.313072 143.370087,72.299530 144.921600,68.429893 
	C145.439285,67.138733 146.875443,66.215836 147.891754,65.124603 
	C148.594315,65.534866 149.296890,65.945129 149.999466,66.355392 
	C147.936371,72.673813 146.048309,79.062683 143.572052,85.214813 
	C143.286667,85.923820 138.179153,85.898033 137.925400,85.225342 
	C135.627502,79.133827 133.912781,72.822334 132.885376,66.204453 
	C139.364273,68.543503 138.258636,75.013191 140.633698,79.955231 
z"/>
<path fill="#E22B2C" opacity="1.000000" stroke="none" 
	d="
M162.803101,72.978355 
	C163.437347,70.098724 162.079163,69.005936 159.350342,69.060120 
	C157.199921,69.102821 155.048004,69.068703 152.865173,68.325546 
	C156.612701,66.394409 160.449203,64.378441 164.449524,67.064507 
	C165.774872,67.954437 166.803940,70.138374 166.924606,71.806213 
	C167.257843,76.412064 167.039902,81.057785 167.039902,85.569405 
	C164.512192,85.981972 161.886032,86.378380 159.272278,86.844475 
	C154.940277,87.616989 152.048813,85.822708 151.576294,82.017807 
	C151.055389,77.823303 153.371521,75.423080 158.583817,75.366028 
	C158.186920,76.451065 157.212906,77.086571 156.973984,77.930252 
	C156.535858,79.477219 156.531403,81.147011 156.346130,82.765587 
	C157.842621,82.935989 160.115234,83.782417 160.676407,83.138153 
	C161.900055,81.733284 162.483551,79.618332 162.887253,77.700623 
	C163.203369,76.198982 162.855789,74.557632 162.803101,72.978355 
z"/>
<path fill="#DF2D2E" opacity="1.000000" stroke="none" 
	d="
M64.310440,43.328400 
	C62.310940,45.107010 60.517677,46.589966 58.817341,48.172756 
	C51.703335,54.794949 51.436424,61.344902 57.748863,69.045357 
	C56.015919,67.468346 54.204159,65.968750 52.564838,64.299774 
	C47.689274,59.335987 47.543922,53.408428 52.478680,48.558586 
	C55.783588,45.310535 59.441139,42.399590 63.113251,39.560749 
	C64.150024,38.759239 65.794228,38.743458 67.839798,39.264332 
	C66.746338,40.535774 65.652878,41.807213 64.310440,43.328400 
z"/>
<path fill="#E23435" opacity="1.000000" stroke="none" 
	d="
M109.789833,84.968658 
	C108.346382,87.615898 107.023048,90.342766 105.363304,92.846626 
	C105.009628,93.380150 103.432266,93.102516 102.418655,93.198578 
	C102.514122,92.226593 102.454552,91.207268 102.734138,90.291496 
	C103.570412,87.552437 105.174782,84.889885 105.330986,82.132423 
	C105.715446,75.345337 105.567375,68.519325 105.408554,61.714226 
	C105.338280,58.703678 106.464890,57.780609 109.238968,59.151337 
	C109.416016,68.170128 109.602928,76.569397 109.789833,84.968658 
M106.450218,60.489086 
	C106.450218,60.489086 106.556549,60.419987 106.450218,60.489086 
z"/>
<path fill="#E13D3E" opacity="1.000000" stroke="none" 
	d="
M119.892479,74.630310 
	C121.457535,74.309174 123.022583,73.988045 124.569069,73.670723 
	C124.481918,69.433167 124.481918,69.433167 114.038811,69.009811 
	C115.186745,65.031509 118.810135,65.164955 121.057732,65.479652 
	C123.784935,65.861504 128.196136,67.624023 128.504166,69.380867 
	C129.456955,74.814880 128.827682,80.530334 128.708099,86.134285 
	C128.703094,86.369431 127.650238,86.582222 126.575424,86.493584 
	C124.815620,85.471832 123.565933,84.761917 123.097343,84.495728 
	C123.920296,81.863541 124.607468,79.665649 125.471214,76.902977 
	C122.906792,76.902977 121.449829,76.902977 119.982994,76.524155 
	C119.946236,75.640320 119.919357,75.135315 119.892479,74.630310 
z"/>
<path fill="#2275B8" opacity="1.000000" stroke="none" 
	d="
M47.899895,93.810043 
	C54.302845,94.416924 60.478664,94.683411 66.648735,95.047340 
	C68.913284,95.180908 71.164238,95.545082 73.372643,96.626198 
	C64.743713,100.605148 56.020267,101.235611 47.182598,98.116280 
	C46.173225,97.760002 45.537766,96.344376 44.728935,95.419945 
	C45.709454,94.782715 46.689968,94.145485 47.899895,93.810043 
z"/>
<path fill="#2E79B9" opacity="1.000000" stroke="none" 
	d="
M42.877213,84.462044 
	C43.558865,84.002411 44.213078,83.426720 44.381199,83.544548 
	C52.014442,88.894684 60.334103,85.890152 68.435913,85.636963 
	C70.640335,85.568077 72.859329,85.965866 75.023285,86.887169 
	C65.494095,90.407166 55.862362,90.934013 46.147003,88.914604 
	C44.227016,88.515511 41.010143,88.369179 42.877213,84.462044 
z"/>
<path fill="#DF3133" opacity="1.000000" stroke="none" 
	d="
M65.877640,53.981640 
	C66.864899,56.520878 67.539299,59.244308 68.903580,61.561577 
	C71.878098,66.613876 71.564003,68.912727 66.420395,72.937584 
	C64.609741,66.813721 62.834114,60.808353 61.548332,54.339493 
	C62.707706,52.620937 63.377243,51.365864 64.046776,50.110790 
	C64.046776,50.110790 64.029663,50.034542 64.363571,50.076496 
	C65.090858,51.406181 65.484245,52.693909 65.877640,53.981640 
z"/>
<path fill="#6192C5" opacity="1.000000" stroke="none" 
	d="
M44.995525,78.025116 
	C51.596210,78.025116 58.196899,78.025116 64.797585,78.025116 
	C64.808624,78.649757 64.819664,79.274399 64.830704,79.899033 
	C57.871235,81.295372 50.795956,80.927299 43.539490,79.859276 
	C43.915081,78.949409 44.455303,78.487267 44.995525,78.025116 
z"/>
<path fill="#EFE1E1" opacity="1.000000" stroke="none" 
	d="
M119.992867,76.902977 
	C121.449829,76.902977 122.906792,76.902977 125.471214,76.902977 
	C124.607468,79.665649 123.920296,81.863541 123.097343,84.495728 
	C123.565933,84.761917 124.815620,85.471832 126.169159,86.535446 
	C122.655159,86.801231 119.037308,86.713310 115.575989,86.356506 
	C116.516365,85.008888 118.204414,83.368828 117.939064,82.941391 
	C116.045410,79.890907 117.765610,78.375244 119.992867,76.902977 
z"/>
<path fill="#5283BB" opacity="1.000000" stroke="none" 
	d="
M68.106323,111.128143 
	C76.000641,109.813889 83.894958,108.499626 93.132385,106.961754 
	C84.986420,112.195625 76.954773,112.555336 68.470428,112.676544 
	C68.028542,111.929718 68.067436,111.528931 68.106323,111.128143 
z"/>
<path fill="#2372B4" opacity="1.000000" stroke="none" 
	d="
M86.824234,85.895668 
	C86.190826,85.819473 85.805290,85.805244 85.419746,85.791016 
	C85.917763,85.134605 86.410408,84.474045 86.914635,83.822441 
	C91.080490,78.438896 91.017685,77.209846 86.719315,71.543404 
	C88.431808,72.324707 90.838142,72.665398 91.683830,73.997139 
	C92.778290,75.720627 93.562866,78.682961 92.787819,80.300850 
	C91.697510,82.576836 89.052361,84.107979 86.824234,85.895668 
z"/>
<path fill="#1B70B5" opacity="1.000000" stroke="none" 
	d="
M47.062229,106.207336 
	C47.757870,106.222389 48.453510,106.237450 49.495644,106.574509 
	C49.830219,107.254593 49.818306,107.612686 49.416096,107.953903 
	C46.691086,107.920586 44.356369,107.904129 42.021656,107.887665 
	C40.958832,107.876205 39.896011,107.864754 38.182114,107.544998 
	C36.371979,107.141335 35.212917,107.045959 34.053856,106.950592 
	C31.902447,106.512207 29.751036,106.073807 27.599627,105.635414 
	C27.499870,105.129875 27.400114,104.624336 27.300358,104.118805 
	C28.988697,102.912209 30.677036,101.705620 32.567478,100.354591 
	C35.119263,107.100090 40.586174,105.326363 45.619862,106.170700 
	C46.447948,106.328262 46.755089,106.267799 47.062229,106.207336 
z"/>
<path fill="#F0E4E4" opacity="1.000000" stroke="none" 
	d="
M162.436447,72.983398 
	C162.855789,74.557632 163.203369,76.198982 162.887253,77.700623 
	C162.483551,79.618332 161.900055,81.733284 160.676407,83.138153 
	C160.115234,83.782417 157.842621,82.935989 156.346130,82.765587 
	C156.531403,81.147011 156.535858,79.477219 156.973984,77.930252 
	C157.212906,77.086571 158.186920,76.451065 158.897156,75.399521 
	C159.999863,74.381050 161.034821,73.684746 162.436447,72.983398 
z"/>
<path fill="#A6B7D5" opacity="1.000000" stroke="none" 
	d="
M67.634079,111.053650 
	C68.067436,111.528931 68.028542,111.929718 68.021797,112.630936 
	C58.935440,112.773537 49.816933,112.615700 40.698425,112.457870 
	C40.704735,111.964966 40.711044,111.472061 40.717354,110.979156 
	C49.532185,110.979156 58.347012,110.979156 67.634079,111.053650 
z"/>
<path fill="#4B87C0" opacity="1.000000" stroke="none" 
	d="
M42.382126,108.074448 
	C44.356369,107.904129 46.691086,107.920586 49.889462,107.968155 
	C54.851810,107.418549 58.950493,106.837830 63.049179,106.257111 
	C65.432678,106.133453 67.816177,106.009796 70.780716,106.257736 
	C72.188911,106.989105 73.016060,107.348869 73.843208,107.708633 
	C63.476337,107.892830 53.109463,108.077019 42.382126,108.074448 
z"/>
<path fill="#DE3536" opacity="1.000000" stroke="none" 
	d="
M119.982994,76.524155 
	C117.765610,78.375244 116.045410,79.890907 117.939064,82.941391 
	C118.204414,83.368828 116.516365,85.008888 115.359184,86.072662 
	C111.921646,81.221252 112.178078,79.206902 116.787964,75.961060 
	C117.493309,75.901314 117.649200,75.801506 117.773575,75.652618 
	C118.196144,75.313148 118.618721,74.973679 119.466888,74.632263 
	C119.919357,75.135315 119.946236,75.640320 119.982994,76.524155 
z"/>
<path fill="#2675B7" opacity="1.000000" stroke="none" 
	d="
M44.579575,77.981781 
	C44.455303,78.487267 43.915081,78.949409 43.208210,79.627625 
	C40.311928,79.331772 37.582294,78.819847 34.852661,78.307930 
	C34.818790,77.725098 34.784920,77.142265 34.751049,76.559433 
	C37.121101,75.582062 39.491158,74.604691 41.861214,73.627319 
	C41.716866,74.234482 41.572521,74.841637 41.428173,75.448792 
	C42.339989,76.278679 43.251804,77.108559 44.579575,77.981781 
z"/>
<path fill="#DE3536" opacity="1.000000" stroke="none" 
	d="
M66.015839,53.666992 
	C65.484245,52.693909 65.090858,51.406181 64.402176,50.082500 
	C66.517303,48.121754 68.927727,46.196960 71.338158,44.272163 
	C71.719505,44.679291 72.100853,45.086418 72.482201,45.493542 
	C70.372810,48.113144 68.263428,50.732746 66.015839,53.666992 
z"/>
<path fill="#CF3335" opacity="1.000000" stroke="none" 
	d="
M109.879669,84.509338 
	C109.602928,76.569397 109.416016,68.170128 109.438599,59.425095 
	C109.755234,67.402885 109.862373,75.726456 109.879669,84.509338 
z"/>
<path fill="#6897C6" opacity="1.000000" stroke="none" 
	d="
M62.588875,106.163467 
	C58.950493,106.837830 54.851810,107.418549 50.279758,107.985016 
	C49.818306,107.612686 49.830219,107.254593 49.839729,106.625786 
	C53.934406,106.259987 58.031487,106.164909 62.588875,106.163467 
z"/>
<path fill="#6897C6" opacity="1.000000" stroke="none" 
	d="
M74.156448,107.767426 
	C73.016060,107.348869 72.188911,106.989105 71.207901,106.401581 
	C72.760597,106.173813 74.467163,106.173813 76.173737,106.173813 
	C76.223152,106.496468 76.272560,106.819130 76.321976,107.141785 
	C75.704552,107.369926 75.087120,107.598076 74.156448,107.767426 
z"/>
<path fill="#DE3536" opacity="1.000000" stroke="none" 
	d="
M63.773048,50.243031 
	C63.377243,51.365864 62.707706,52.620937 61.719650,53.941254 
	C62.100529,52.796093 62.799927,51.585682 63.773048,50.243031 
z"/>
<path fill="#6897C6" opacity="1.000000" stroke="none" 
	d="
M34.333382,107.159782 
	C35.212917,107.045959 36.371979,107.141335 37.788933,107.474548 
	C36.902184,107.597916 35.757545,107.483444 34.333382,107.159782 
z"/>
<path fill="#6897C6" opacity="1.000000" stroke="none" 
	d="
M46.802200,106.074570 
	C46.755089,106.267799 46.447948,106.328262 46.055199,106.222542 
	C46.160454,106.018173 46.351311,105.979996 46.802200,106.074570 
z"/>
<path fill="#E13D3E" opacity="1.000000" stroke="none" 
	d="
M117.641678,75.693054 
	C117.649200,75.801506 117.493309,75.901314 117.161026,75.976593 
	C117.151871,75.858429 117.316414,75.769211 117.641678,75.693054 
z"/>
<path fill="#E7191C" opacity="1.000000" stroke="none" 
	d="
M106.503387,60.454536 
	C106.556549,60.419987 106.450218,60.489086 106.503387,60.454536 
z"/>
</svg>