<svg version="1.1" id="Layer_1" xmlns="http://www.w3.org/2000/svg" xmlns:xlink="http://www.w3.org/1999/xlink" x="0px" y="0px"
	 width="100%" viewBox="0 0 225 225" enable-background="new 0 0 225 225" xml:space="preserve">
<path fill="#FEFEFE" opacity="1.000000" stroke="none" 
	d="
M1.000000,85.000000 
	C1.000000,56.666672 1.000000,28.833344 1.000000,1.000011 
	C75.999977,1.000007 150.999954,1.000007 225.999954,1.000004 
	C225.999969,75.999969 225.999969,150.999939 225.999985,225.999939 
	C151.000046,225.999954 76.000092,225.999954 1.000068,225.999969 
	C1.000000,179.166672 1.000000,132.333328 1.000000,85.000000 
M210.602982,37.352276 
	C210.731369,37.217121 210.859756,37.081963 211.595703,36.744270 
	C212.750107,35.504978 213.904526,34.265686 215.608292,32.642921 
	C217.332886,28.078854 219.599792,23.630093 220.602829,18.912611 
	C221.345642,15.419032 217.477646,12.945509 214.237106,13.766895 
	C208.152527,15.309162 202.072464,17.225641 195.873322,17.885593 
	C182.768158,19.280754 172.576172,25.163893 165.188156,35.934143 
	C161.151398,41.818981 157.115753,47.733082 153.544434,53.903038 
	C144.878510,68.874657 132.827194,79.214447 115.627441,83.026550 
	C109.300049,84.428932 103.047333,86.164726 96.741554,87.668839 
	C77.336601,92.297493 60.798763,101.045502 49.941250,118.740234 
	C47.916798,122.039528 44.318848,125.071465 40.752209,126.545837 
	C36.497986,128.304428 31.465179,128.102036 26.826752,129.033463 
	C23.180742,129.765594 19.621407,130.929382 15.538515,131.983154 
	C15.538515,131.983154 15.053162,132.063095 14.744322,131.805176 
	C11.975760,132.891403 9.207198,133.977646 6.438637,135.063889 
	C6.505215,135.754959 6.571794,136.446030 6.638372,137.137100 
	C9.108748,137.821579 11.579124,138.506073 14.748221,139.340759 
	C15.113849,139.829514 15.479475,140.318283 15.845097,140.807037 
	C14.762419,141.559906 13.518854,142.162445 12.638619,143.104477 
	C11.586859,144.230072 9.987989,145.816910 10.201683,146.890289 
	C10.434708,148.060760 12.420010,149.617493 13.732857,149.710098 
	C19.284058,150.101715 24.951883,150.660095 30.425125,149.963547 
	C42.355492,148.445267 51.443676,140.778854 61.878696,134.296326 
	C70.306931,129.815613 79.481712,129.581299 88.596870,130.254089 
	C100.951805,131.166016 113.257248,132.748505 127.137901,134.206589 
	C122.121925,142.003067 117.986786,148.430435 113.851654,154.857803 
	C114.036636,155.357407 114.221619,155.857010 114.406601,156.356628 
	C120.856941,154.743622 127.375046,153.357300 133.738800,151.454727 
	C140.281067,149.498810 145.657272,145.870361 149.152313,139.634201 
	C150.753677,136.776962 153.054321,134.224075 155.397995,131.895691 
	C157.620148,129.688049 159.791290,128.688187 162.880646,131.763443 
	C169.158051,138.012207 181.207977,138.146866 187.059647,133.465485 
	C185.034164,128.891602 182.156845,124.778435 181.522095,120.344231 
	C180.765335,115.057777 181.253647,109.348618 182.400299,104.083427 
	C185.048752,91.922546 188.579453,79.956764 191.444427,67.839058 
	C193.478668,59.235107 194.936188,50.481636 202.235886,44.329060 
	C202.406967,44.184864 202.164993,43.550579 202.044113,43.052029 
	C202.044113,43.052029 202.145691,43.110577 202.951294,43.512638 
	C203.517868,42.363415 204.084457,41.214191 204.521378,40.035854 
	C204.521378,40.035854 204.505600,40.167793 205.012695,40.980602 
	C206.694916,39.692192 208.377136,38.403782 210.068192,37.067749 
	C210.068192,37.067749 210.115417,37.078552 210.602982,37.352276 
M17.273439,183.115845 
	C15.816695,180.324905 14.359952,177.533966 12.903208,174.743027 
	C12.564124,174.869858 12.225039,174.996689 11.885956,175.123520 
	C10.031581,187.368973 8.177206,199.614426 6.319660,211.880814 
	C9.877148,213.371506 10.614632,211.487488 10.960427,208.771576 
	C11.874840,201.589645 12.890026,194.420563 13.865102,187.246368 
	C14.241962,187.171127 14.618822,187.095886 14.995682,187.020660 
	C19.210329,195.433792 23.424976,203.846939 28.171711,213.322205 
	C32.987213,203.697403 37.124126,195.428909 41.261036,187.160416 
	C42.503895,188.788132 42.787674,190.323456 43.008663,191.867783 
	C43.881454,197.967133 44.645191,204.084763 45.694546,210.153214 
	C45.846046,211.029358 47.334957,211.674225 48.204971,212.426117 
	C48.627464,211.474182 49.519524,210.459167 49.401428,209.579819 
	C47.839802,197.952087 46.136131,186.343445 44.467972,174.730011 
	C44.096275,174.636414 43.724579,174.542801 43.352882,174.449188 
	C38.464436,184.301437 33.575989,194.153702 28.202585,204.983337 
	C24.413107,197.368210 21.028561,190.566803 17.273439,183.115845 
M157.112808,190.502197 
	C157.112808,197.746796 157.112808,204.991409 157.112808,212.819092 
	C163.789169,212.446838 169.631470,212.497253 175.359482,211.713013 
	C183.829086,210.553421 189.210342,203.481918 189.629868,193.848480 
	C189.993103,185.507660 184.711014,176.832611 177.280350,175.339432 
	C170.887070,174.054703 164.222046,174.122360 157.112885,173.546310 
	C157.112885,179.583420 157.112885,184.543716 157.112808,190.502197 
M217.097046,182.651825 
	C217.314163,175.652008 208.657852,172.036667 197.647247,174.891464 
	C197.647247,187.273071 197.647247,199.634338 197.647247,212.785645 
	C202.676666,212.408493 207.301605,212.382828 211.806702,211.635117 
	C216.478409,210.859741 219.408386,207.514145 220.571182,203.083267 
	C221.811356,198.357422 218.915619,195.258896 215.413818,192.655853 
	C214.811401,192.208054 214.221329,191.743637 214.182999,191.714264 
	C215.303482,188.601959 216.227295,186.035965 217.097046,182.651825 
M142.617035,186.010361 
	C135.590607,181.507812 128.836349,182.280304 123.464302,188.200912 
	C118.340126,193.848312 117.931236,201.391647 123.225212,207.595016 
	C125.456192,210.209274 129.012421,213.027969 132.126770,213.225754 
	C136.322037,213.492172 140.672409,211.316391 144.771744,210.237289 
	C145.476868,210.751419 146.625214,211.588730 147.773575,212.426025 
	C148.313843,211.198792 149.292313,209.981781 149.321259,208.742599 
	C149.476288,202.109467 149.492676,195.468292 149.323563,188.835861 
	C149.282700,187.233002 148.358231,185.652679 147.840088,184.061996 
	C146.769424,185.018860 145.738617,186.028961 144.593491,186.886383 
	C144.372040,187.052170 143.703659,186.621078 142.617035,186.010361 
M81.356125,211.894928 
	C84.845062,213.406799 84.854248,211.081467 84.853340,208.730133 
	C84.850624,201.753281 84.925179,194.775024 84.787781,187.800888 
	C84.762863,186.536255 83.878136,185.288544 83.390343,184.033020 
	C82.280365,185.039032 81.170395,186.045029 79.868088,187.225357 
	C79.875229,187.229507 79.431999,187.034164 79.060356,186.746384 
	C72.846565,181.934891 65.916527,181.888901 60.484768,186.636444 
	C54.667789,191.720688 53.509674,199.313049 57.540874,205.935974 
	C62.584431,214.222122 69.840477,215.821274 78.112106,210.306183 
	C79.807030,209.176102 80.920837,208.193100 81.356125,211.894928 
M92.366692,212.398102 
	C93.140381,211.058792 94.442940,209.775131 94.590797,208.369980 
	C95.077782,203.742111 94.883301,199.037338 95.459938,194.425781 
	C95.916130,190.777390 96.887543,187.102905 101.814110,186.809677 
	C102.475395,186.770309 103.054474,185.350052 103.671616,184.569229 
	C103.411972,184.068115 103.152336,183.566986 102.892693,183.065857 
	C100.313576,183.820694 97.734467,184.575516 95.191956,185.319641 
	C94.193497,184.895157 92.886696,184.339600 91.591629,183.789017 
	C91.591629,193.722839 91.591629,202.958252 92.366692,212.398102 
M112.814438,195.522568 
	C112.820961,192.705109 113.027382,189.866608 112.734283,187.080673 
	C112.619225,185.987106 111.385902,185.011185 110.661850,183.981689 
	C110.094803,184.973724 109.054779,185.956955 109.036171,186.959167 
	C108.897720,194.414719 108.901123,201.875076 109.032066,209.330917 
	C109.050392,210.373856 110.006882,211.400299 110.529099,212.434387 
	C111.299980,211.435547 112.676987,210.471054 112.735870,209.431854 
	C112.979225,205.137100 112.823380,200.819717 112.814438,195.522568 
M111.324509,173.131561 
	C108.688049,173.461487 107.197342,174.826370 108.574081,177.394028 
	C109.009514,178.206116 111.418098,178.873810 112.224121,178.404968 
	C114.805222,176.903595 114.135201,174.984268 111.324509,173.131561 
z"/>
<path fill="#C1996C" opacity="1.000000" stroke="none" 
	d="
M204.505600,40.167797 
	C204.505600,40.167793 204.521378,40.035854 204.159073,40.060947 
	C203.246414,41.094219 202.696060,42.102398 202.145691,43.110577 
	C202.145691,43.110577 202.044113,43.052029 201.821579,42.758415 
	C200.328049,43.163609 198.935562,43.706810 197.806931,44.587955 
	C192.710541,48.566784 191.387070,54.470448 190.036911,60.320164 
	C186.226715,76.828186 183.242126,93.602135 175.020599,108.724411 
	C171.785828,114.674286 167.845047,120.065224 161.140488,123.552338 
	C160.897537,121.503212 160.827103,120.181007 160.564941,118.897964 
	C160.290207,117.553383 159.831467,116.246407 159.453156,114.922989 
	C159.080902,114.749207 158.708664,114.575424 158.336411,114.401642 
	C151.776932,132.183502 142.297012,146.898544 120.869377,151.055786 
	C129.408463,138.684082 136.145737,126.867767 135.179428,112.223602 
	C133.618698,113.432060 132.356155,114.827560 131.570816,116.453537 
	C130.272766,119.140991 129.590988,122.164490 128.058380,124.687263 
	C126.965607,126.486038 124.884727,128.982956 123.276886,128.959595 
	C112.871490,128.808380 102.422195,128.520767 92.089882,127.362617 
	C81.185875,126.140381 70.769073,126.465530 60.653961,132.074341 
	C53.658508,135.864182 47.182903,139.964432 40.303036,143.206924 
	C32.115002,147.065979 23.361626,148.167938 13.880304,146.441147 
	C16.758961,143.592438 19.229242,141.147858 21.699526,138.703262 
	C21.411686,138.248871 21.123846,137.794479 20.836006,137.340088 
	C18.566572,137.340088 16.297138,137.340088 13.665363,137.210236 
	C13.063753,136.158524 12.394807,135.053436 12.690625,134.359772 
	C13.088033,133.427856 14.230518,132.813675 15.053164,132.063095 
	C15.053162,132.063095 15.538515,131.983154 16.232956,132.014877 
	C22.716755,131.590363 28.507521,130.746948 34.295139,130.768021 
	C43.113117,130.800125 48.679016,126.380363 53.365067,119.388397 
	C56.648476,114.489304 60.548115,109.679726 65.131401,106.036415 
	C78.486092,95.420654 94.558701,91.413094 110.924461,87.742828 
	C129.364471,83.607384 145.768539,75.555687 155.551056,57.968822 
	C158.214844,53.179924 161.085541,48.499866 164.008240,43.862484 
	C170.916824,32.900875 178.846146,23.223541 193.093536,22.030653 
	C197.725983,21.642796 202.367538,21.363642 206.992889,21.196392 
	C206.980850,21.358021 206.967102,21.682291 206.696625,21.892921 
	C205.203140,23.714832 203.980133,25.326113 202.482269,27.119108 
	C201.936813,29.713379 201.666199,32.125931 201.252701,35.812435 
	C202.762100,33.741867 203.402100,32.863918 204.068726,32.352867 
	C204.089386,33.454697 204.083435,34.189621 204.120544,35.123409 
	C204.439972,35.211758 204.716354,35.101242 205.254425,34.786137 
	C205.706146,33.725113 205.896210,32.868679 206.431000,32.001030 
	C207.517853,31.328407 208.259979,30.667004 209.070587,29.672941 
	C209.729233,27.930235 210.319397,26.520189 211.105331,24.813528 
	C211.695831,24.257631 212.090576,23.998346 212.861359,23.725460 
	C216.151382,23.818861 216.521179,25.536274 215.563156,27.741978 
	C214.778656,29.548170 213.658081,31.208384 212.420242,33.066719 
	C211.345978,34.085140 210.537964,34.970146 209.601257,36.231911 
	C209.686844,36.765301 209.901138,36.921925 210.115417,37.078552 
	C210.115417,37.078552 210.068192,37.067749 209.783096,36.781269 
	C207.833878,37.719124 206.169739,38.943462 204.505600,40.167797 
M185.276352,33.786274 
	C192.295944,34.641453 194.453079,33.051582 193.949020,27.394272 
	C187.779755,26.842808 185.264359,28.456532 185.276352,33.786274 
z"/>
<path fill="#12366A" opacity="1.000000" stroke="none" 
	d="
M60.994835,132.005005 
	C70.769073,126.465530 81.185875,126.140381 92.089882,127.362617 
	C102.422195,128.520767 112.871490,128.808380 123.276886,128.959595 
	C124.884727,128.982956 126.965607,126.486038 128.058380,124.687263 
	C129.590988,122.164490 130.272766,119.140991 131.570816,116.453537 
	C132.356155,114.827560 133.618698,113.432060 135.179428,112.223602 
	C136.145737,126.867767 129.408463,138.684082 120.869377,151.055786 
	C142.297012,146.898544 151.776932,132.183502 158.336411,114.401642 
	C158.708664,114.575424 159.080902,114.749207 159.453156,114.922989 
	C159.831467,116.246407 160.290207,117.553383 160.564941,118.897964 
	C160.827103,120.181007 160.897537,121.503212 161.140488,123.552338 
	C167.845047,120.065224 171.785828,114.674286 175.020599,108.724411 
	C183.242126,93.602135 186.226715,76.828186 190.036911,60.320164 
	C191.387070,54.470448 192.710541,48.566784 197.806931,44.587955 
	C198.935562,43.706810 200.328049,43.163609 201.857361,42.804848 
	C202.164993,43.550579 202.406967,44.184864 202.235886,44.329060 
	C194.936188,50.481636 193.478668,59.235107 191.444427,67.839058 
	C188.579453,79.956764 185.048752,91.922546 182.400299,104.083427 
	C181.253647,109.348618 180.765335,115.057777 181.522095,120.344231 
	C182.156845,124.778435 185.034164,128.891602 187.059647,133.465485 
	C181.207977,138.146866 169.158051,138.012207 162.880646,131.763443 
	C159.791290,128.688187 157.620148,129.688049 155.397995,131.895691 
	C153.054321,134.224075 150.753677,136.776962 149.152313,139.634201 
	C145.657272,145.870361 140.281067,149.498810 133.738800,151.454727 
	C127.375046,153.357300 120.856941,154.743622 114.406601,156.356628 
	C114.221619,155.857010 114.036636,155.357407 113.851654,154.857803 
	C117.986786,148.430435 122.121925,142.003067 127.137901,134.206589 
	C113.257248,132.748505 100.951805,131.166016 88.596870,130.254089 
	C79.481712,129.581299 70.306931,129.815613 61.469994,133.991455 
	C61.039143,133.126053 61.016991,132.565521 60.994835,132.005005 
M167.304398,124.762787 
	C167.645554,126.426231 167.421295,128.920731 168.428146,129.605774 
	C172.287277,132.231430 176.674438,133.498917 181.422028,132.378830 
	C179.524841,126.477142 177.742661,120.933189 175.745483,114.720482 
	C172.822739,118.141861 170.251953,121.151253 167.304398,124.762787 
z"/>
<path fill="#183A6D" opacity="1.000000" stroke="none" 
	d="
M207.004929,21.034765 
	C202.367538,21.363642 197.725983,21.642796 193.093536,22.030653 
	C178.846146,23.223541 170.916824,32.900875 164.008240,43.862484 
	C161.085541,48.499866 158.214844,53.179924 155.551056,57.968822 
	C145.768539,75.555687 129.364471,83.607384 110.924461,87.742828 
	C94.558701,91.413094 78.486092,95.420654 65.131401,106.036415 
	C60.548115,109.679726 56.648476,114.489304 53.365067,119.388397 
	C48.679016,126.380363 43.113117,130.800125 34.295139,130.768021 
	C28.507521,130.746948 22.716755,131.590363 16.475483,131.973999 
	C19.621407,130.929382 23.180742,129.765594 26.826752,129.033463 
	C31.465179,128.102036 36.497986,128.304428 40.752209,126.545837 
	C44.318848,125.071465 47.916798,122.039528 49.941250,118.740234 
	C60.798763,101.045502 77.336601,92.297493 96.741554,87.668839 
	C103.047333,86.164726 109.300049,84.428932 115.627441,83.026550 
	C132.827194,79.214447 144.878510,68.874657 153.544434,53.903038 
	C157.115753,47.733082 161.151398,41.818981 165.188156,35.934143 
	C172.576172,25.163893 182.768158,19.280754 195.873322,17.885593 
	C202.072464,17.225641 208.152527,15.309162 214.237106,13.766895 
	C217.477646,12.945509 221.345642,15.419032 220.602829,18.912611 
	C219.599792,23.630093 217.332886,28.078854 214.938538,32.822895 
	C213.741348,32.979683 213.213928,32.956497 212.686493,32.933308 
	C213.658081,31.208384 214.778656,29.548170 215.563156,27.741978 
	C216.521179,25.536274 216.151382,23.818861 212.624451,23.474771 
	C210.126099,22.995478 210.151718,18.410183 207.004929,21.034765 
z"/>
<path fill="#AF8156" opacity="1.000000" stroke="none" 
	d="
M17.458727,183.440613 
	C21.028561,190.566803 24.413107,197.368210 28.202585,204.983337 
	C33.575989,194.153702 38.464436,184.301437 43.352882,174.449188 
	C43.724579,174.542801 44.096275,174.636414 44.467972,174.730011 
	C46.136131,186.343445 47.839802,197.952087 49.401428,209.579819 
	C49.519524,210.459167 48.627464,211.474182 48.204964,212.426117 
	C47.334957,211.674225 45.846046,211.029358 45.694546,210.153214 
	C44.645191,204.084763 43.881454,197.967133 43.008663,191.867783 
	C42.787674,190.323456 42.503895,188.788132 41.261036,187.160416 
	C37.124126,195.428909 32.987213,203.697403 28.171711,213.322205 
	C23.424976,203.846939 19.210329,195.433792 14.995682,187.020660 
	C14.618822,187.095886 14.241962,187.171127 13.865102,187.246368 
	C12.890026,194.420563 11.874840,201.589645 10.960427,208.771576 
	C10.614632,211.487488 9.877148,213.371506 6.319660,211.880814 
	C8.177206,199.614426 10.031581,187.368973 11.885956,175.123520 
	C12.225039,174.996689 12.564124,174.869858 12.903208,174.743027 
	C14.359952,177.533966 15.816695,180.324905 17.458727,183.440613 
z"/>
<path fill="#B08358" opacity="1.000000" stroke="none" 
	d="
M157.112854,190.003113 
	C157.112885,184.543716 157.112885,179.583420 157.112885,173.546310 
	C164.222046,174.122360 170.887070,174.054703 177.280350,175.339432 
	C184.711014,176.832611 189.993103,185.507660 189.629868,193.848480 
	C189.210342,203.481918 183.829086,210.553421 175.359482,211.713013 
	C169.631470,212.497253 163.789169,212.446838 157.112808,212.819092 
	C157.112808,204.991409 157.112808,197.746796 157.112854,190.003113 
M164.596649,208.410446 
	C167.083603,208.270844 169.569763,208.114807 172.057663,207.994766 
	C179.560333,207.632767 184.002518,203.681061 185.204712,196.279282 
	C186.436874,188.693146 182.790558,181.269638 176.092896,179.432358 
	C171.426620,178.152359 166.411102,178.145477 160.950333,177.498672 
	C160.950333,187.529938 160.874115,196.621658 161.067322,205.707657 
	C161.086807,206.623581 162.735046,207.504868 164.596649,208.410446 
z"/>
<path fill="#AF8258" opacity="1.000000" stroke="none" 
	d="
M217.124069,183.060883 
	C216.227295,186.035965 215.303482,188.601959 214.182999,191.714264 
	C214.221329,191.743637 214.811401,192.208054 215.413818,192.655853 
	C218.915619,195.258896 221.811356,198.357422 220.571182,203.083267 
	C219.408386,207.514145 216.478409,210.859741 211.806702,211.635117 
	C207.301605,212.382828 202.676666,212.408493 197.647247,212.785645 
	C197.647247,199.634338 197.647247,187.273071 197.647247,174.891464 
	C208.657852,172.036667 217.314163,175.652008 217.124069,183.060883 
M213.091278,206.900589 
	C216.034271,204.740204 217.225876,201.663559 215.475037,198.592545 
	C212.387939,193.177689 206.906219,194.018478 201.622452,194.028946 
	C201.622452,198.907974 201.622452,203.423965 201.622452,208.577759 
	C205.530518,208.121429 208.951996,207.721924 213.091278,206.900589 
M201.185776,183.519379 
	C201.185776,185.478714 201.185776,187.438065 201.185776,189.564697 
	C205.535629,190.154022 209.489471,190.251968 211.894119,186.648514 
	C212.862061,185.198029 213.018555,181.388245 212.185989,180.880753 
	C209.193665,179.056824 205.621460,178.184250 201.531815,176.681458 
	C201.355942,179.690430 201.270996,181.143738 201.185776,183.519379 
z"/>
<path fill="#B08358" opacity="1.000000" stroke="none" 
	d="
M142.929245,186.237854 
	C143.703659,186.621078 144.372040,187.052170 144.593491,186.886383 
	C145.738617,186.028961 146.769424,185.018860 147.840088,184.061996 
	C148.358231,185.652679 149.282700,187.233002 149.323563,188.835861 
	C149.492676,195.468292 149.476288,202.109467 149.321259,208.742599 
	C149.292313,209.981781 148.313843,211.198792 147.773575,212.426025 
	C146.625214,211.588730 145.476868,210.751419 144.771744,210.237289 
	C140.672409,211.316391 136.322037,213.492172 132.126770,213.225754 
	C129.012421,213.027969 125.456192,210.209274 123.225212,207.595016 
	C117.931236,201.391647 118.340126,193.848312 123.464302,188.200912 
	C128.836349,182.280304 135.590607,181.507812 142.929245,186.237854 
M126.491547,205.940460 
	C131.711639,210.256332 137.521927,210.620789 141.740753,206.896973 
	C145.516281,203.564392 146.525314,196.676300 143.875381,192.324951 
	C140.732086,187.163467 134.274628,185.463974 129.173721,188.455673 
	C123.352905,191.869629 122.058067,198.804596 126.491547,205.940460 
z"/>
<path fill="#B1845A" opacity="1.000000" stroke="none" 
	d="
M81.203461,211.566711 
	C80.920837,208.193100 79.807030,209.176102 78.112106,210.306183 
	C69.840477,215.821274 62.584431,214.222122 57.540874,205.935974 
	C53.509674,199.313049 54.667789,191.720688 60.484768,186.636444 
	C65.916527,181.888901 72.846565,181.934891 79.060356,186.746384 
	C79.431999,187.034164 79.875229,187.229507 79.868088,187.225357 
	C81.170395,186.045029 82.280365,185.039032 83.390343,184.033020 
	C83.878136,185.288544 84.762863,186.536255 84.787781,187.800888 
	C84.925179,194.775024 84.850624,201.753281 84.853340,208.730133 
	C84.854248,211.081467 84.845062,213.406799 81.203461,211.566711 
M62.914913,206.731613 
	C66.767700,209.956635 71.092384,210.382751 75.388794,208.110001 
	C79.779465,205.787399 81.455238,201.773575 80.964500,196.831894 
	C80.504318,192.197922 77.836716,189.283478 73.706017,187.637726 
	C69.568596,185.989334 64.513390,187.555756 61.658577,191.159576 
	C58.146965,195.592529 58.368347,200.440445 62.914913,206.731613 
z"/>
<path fill="#203F70" opacity="1.000000" stroke="none" 
	d="
M60.653961,132.074341 
	C61.016991,132.565521 61.039143,133.126053 61.098328,134.105835 
	C51.443676,140.778854 42.355492,148.445267 30.425125,149.963547 
	C24.951883,150.660095 19.284058,150.101715 13.732857,149.710098 
	C12.420010,149.617493 10.434708,148.060760 10.201683,146.890289 
	C9.987989,145.816910 11.586859,144.230072 12.638619,143.104477 
	C13.518854,142.162445 14.762419,141.559906 15.845098,140.807037 
	C15.479475,140.318283 15.113849,139.829514 14.379991,138.957367 
	C14.017075,138.162689 14.022389,137.751389 14.027704,137.340088 
	C16.297138,137.340088 18.566572,137.340088 20.836006,137.340088 
	C21.123846,137.794479 21.411686,138.248871 21.699526,138.703262 
	C19.229242,141.147858 16.758961,143.592438 13.880304,146.441147 
	C23.361626,148.167938 32.115002,147.065979 40.303036,143.206924 
	C47.182903,139.964432 53.658508,135.864182 60.653961,132.074341 
z"/>
<path fill="#AD7F54" opacity="1.000000" stroke="none" 
	d="
M91.979156,212.295868 
	C91.591629,202.958252 91.591629,193.722839 91.591629,183.789017 
	C92.886696,184.339600 94.193497,184.895157 95.191956,185.319641 
	C97.734467,184.575516 100.313576,183.820694 102.892693,183.065857 
	C103.152336,183.566986 103.411972,184.068115 103.671616,184.569229 
	C103.054474,185.350052 102.475395,186.770309 101.814110,186.809677 
	C96.887543,187.102905 95.916130,190.777390 95.459938,194.425781 
	C94.883301,199.037338 95.077782,203.742111 94.590797,208.369980 
	C94.442940,209.775131 93.140381,211.058792 91.979156,212.295868 
z"/>
<path fill="#B1845A" opacity="1.000000" stroke="none" 
	d="
M112.814316,196.016602 
	C112.823380,200.819717 112.979225,205.137100 112.735870,209.431854 
	C112.676987,210.471054 111.299980,211.435547 110.529099,212.434387 
	C110.006882,211.400299 109.050392,210.373856 109.032066,209.330917 
	C108.901123,201.875076 108.897720,194.414719 109.036171,186.959167 
	C109.054779,185.956955 110.094803,184.973724 110.661850,183.981689 
	C111.385902,185.011185 112.619225,185.987106 112.734283,187.080673 
	C113.027382,189.866608 112.820961,192.705109 112.814316,196.016602 
z"/>
<path fill="#2B4670" opacity="1.000000" stroke="none" 
	d="
M13.665363,137.210236 
	C14.022389,137.751389 14.017075,138.162689 14.030630,138.882263 
	C11.579124,138.506073 9.108748,137.821579 6.638372,137.137100 
	C6.571794,136.446030 6.505215,135.754959 6.438637,135.063889 
	C9.207198,133.977646 11.975760,132.891403 14.898745,131.934143 
	C14.230518,132.813675 13.088033,133.427856 12.690625,134.359772 
	C12.394807,135.053436 13.063753,136.158524 13.665363,137.210236 
z"/>
<path fill="#B1855B" opacity="1.000000" stroke="none" 
	d="
M111.682915,173.245575 
	C114.135201,174.984268 114.805222,176.903595 112.224121,178.404968 
	C111.418098,178.873810 109.009514,178.206116 108.574081,177.394028 
	C107.197342,174.826370 108.688049,173.461487 111.682915,173.245575 
z"/>
<path fill="#294673" opacity="1.000000" stroke="none" 
	d="
M212.420242,33.066719 
	C213.213928,32.956497 213.741348,32.979683 214.663849,33.014633 
	C213.904526,34.265686 212.750107,35.504978 211.145416,36.600101 
	C210.373413,36.255676 210.051682,36.055416 209.729950,35.855156 
	C210.537964,34.970146 211.345978,34.085140 212.420242,33.066719 
z"/>
<path fill="#12366A" opacity="1.000000" stroke="none" 
	d="
M204.759155,40.574203 
	C206.169739,38.943462 207.833878,37.719124 209.778687,36.805077 
	C208.377136,38.403782 206.694916,39.692192 204.759155,40.574203 
z"/>
<path fill="#12366A" opacity="1.000000" stroke="none" 
	d="
M202.548492,43.311607 
	C202.696060,42.102398 203.246414,41.094219 204.223907,40.075500 
	C204.084457,41.214191 203.517868,42.363415 202.548492,43.311607 
z"/>
<path fill="#12366A" opacity="1.000000" stroke="none" 
	d="
M209.601257,36.231915 
	C210.051682,36.055416 210.373413,36.255676 210.841644,36.701366 
	C210.859756,37.081963 210.731369,37.217121 210.359192,37.215416 
	C209.901138,36.921925 209.686844,36.765301 209.601257,36.231915 
z"/>
<path fill="#133465" opacity="1.000000" stroke="none" 
	d="
M184.950806,33.581055 
	C185.264359,28.456532 187.779755,26.842808 193.949020,27.394272 
	C194.453079,33.051582 192.295944,34.641453 184.950806,33.581055 
z"/>
<path fill="#726B68" opacity="1.000000" stroke="none" 
	d="
M202.757141,26.937393 
	C203.980133,25.326113 205.203140,23.714832 206.971176,22.090694 
	C208.647324,23.088604 209.778442,24.099373 210.909576,25.110142 
	C210.319397,26.520189 209.729233,27.930235 208.695343,29.675749 
	C207.501129,30.014189 206.750656,30.017162 205.980087,29.717899 
	C205.639557,28.940716 205.319107,28.465769 204.805847,27.731085 
	C203.994385,27.293364 203.375763,27.115381 202.757141,26.937393 
z"/>
<path fill="#796F69" opacity="1.000000" stroke="none" 
	d="
M202.482285,27.119110 
	C203.375763,27.115381 203.994385,27.293364 204.770950,28.077105 
	C204.629532,29.787083 204.330185,30.891302 204.020569,31.995773 
	C204.010330,31.996023 204.042114,31.985970 204.042114,31.985968 
	C203.402100,32.863918 202.762100,33.741867 201.252701,35.812435 
	C201.666199,32.125931 201.936813,29.713379 202.482285,27.119110 
z"/>
<path fill="#B7936C" opacity="1.000000" stroke="none" 
	d="
M211.105316,24.813528 
	C209.778442,24.099373 208.647324,23.088604 207.241653,21.880062 
	C206.967102,21.682291 206.980850,21.358021 206.992889,21.196392 
	C210.151718,18.410183 210.126099,22.995478 212.248383,23.488373 
	C212.090576,23.998346 211.695831,24.257631 211.105316,24.813528 
z"/>
<path fill="#696668" opacity="1.000000" stroke="none" 
	d="
M204.077484,34.924545 
	C204.083435,34.189621 204.089386,33.454697 204.068726,32.352871 
	C204.042114,31.985970 204.010330,31.996023 204.276703,31.915571 
	C205.009476,31.581230 205.475861,31.327341 205.967010,31.309875 
	C205.991776,31.546303 206.086288,32.012249 206.086288,32.012249 
	C205.896210,32.868679 205.706146,33.725113 205.025391,34.773048 
	C204.534683,34.964554 204.077484,34.924545 204.077484,34.924545 
z"/>
<path fill="#B7936C" opacity="1.000000" stroke="none" 
	d="
M206.431000,32.001030 
	C206.086288,32.012249 205.991776,31.546303 205.990814,31.046700 
	C205.993286,30.371447 205.996735,30.195793 206.000183,30.020138 
	C206.750656,30.017162 207.501129,30.014189 208.626862,30.008408 
	C208.259979,30.667004 207.517853,31.328407 206.431000,32.001030 
z"/>
<path fill="#957F6A" opacity="1.000000" stroke="none" 
	d="
M204.120529,35.123409 
	C204.077484,34.924545 204.534683,34.964554 204.763718,34.977638 
	C204.716354,35.101242 204.439972,35.211758 204.120529,35.123409 
z"/>
<path fill="#B6926B" opacity="1.000000" stroke="none" 
	d="
M167.492767,124.461716 
	C170.251953,121.151253 172.822739,118.141861 175.745483,114.720482 
	C177.742661,120.933189 179.524841,126.477142 181.422028,132.378830 
	C176.674438,133.498917 172.287277,132.231430 168.428146,129.605774 
	C167.421295,128.920731 167.645554,126.426231 167.492767,124.461716 
z"/>
<path fill="#FDFCFB" opacity="1.000000" stroke="none" 
	d="
M164.112030,208.406342 
	C162.735046,207.504868 161.086807,206.623581 161.067322,205.707657 
	C160.874115,196.621658 160.950333,187.529938 160.950333,177.498672 
	C166.411102,178.145477 171.426620,178.152359 176.092896,179.432358 
	C182.790558,181.269638 186.436874,188.693146 185.204712,196.279282 
	C184.002518,203.681061 179.560333,207.632767 172.057663,207.994766 
	C169.569763,208.114807 167.083603,208.270844 164.112030,208.406342 
z"/>
<path fill="#FAF8F5" opacity="1.000000" stroke="none" 
	d="
M212.732376,207.111511 
	C208.951996,207.721924 205.530518,208.121429 201.622452,208.577759 
	C201.622452,203.423965 201.622452,198.907974 201.622452,194.028946 
	C206.906219,194.018478 212.387939,193.177689 215.475037,198.592545 
	C217.225876,201.663559 216.034271,204.740204 212.732376,207.111511 
z"/>
<path fill="#FAF7F4" opacity="1.000000" stroke="none" 
	d="
M201.185913,183.058212 
	C201.270996,181.143738 201.355942,179.690430 201.531815,176.681458 
	C205.621460,178.184250 209.193665,179.056824 212.185989,180.880753 
	C213.018555,181.388245 212.862061,185.198029 211.894119,186.648514 
	C209.489471,190.251968 205.535629,190.154022 201.185776,189.564697 
	C201.185776,187.438065 201.185776,185.478714 201.185913,183.058212 
z"/>
<path fill="#FDFBFA" opacity="1.000000" stroke="none" 
	d="
M126.260185,205.619888 
	C122.058067,198.804596 123.352905,191.869629 129.173721,188.455673 
	C134.274628,185.463974 140.732086,187.163467 143.875381,192.324951 
	C146.525314,196.676300 145.516281,203.564392 141.740753,206.896973 
	C137.521927,210.620789 131.711639,210.256332 126.260185,205.619888 
z"/>
<path fill="#FCFBF9" opacity="1.000000" stroke="none" 
	d="
M62.629967,206.461227 
	C58.368347,200.440445 58.146965,195.592529 61.658577,191.159576 
	C64.513390,187.555756 69.568596,185.989334 73.706017,187.637726 
	C77.836716,189.283478 80.504318,192.197922 80.964500,196.831894 
	C81.455238,201.773575 79.779465,205.787399 75.388794,208.110001 
	C71.092384,210.382751 66.767700,209.956635 62.629967,206.461227 
z"/>
<path fill="#957F6A" opacity="1.000000" stroke="none" 
	d="
M205.980087,29.717899 
	C205.996735,30.195793 205.993286,30.371447 205.966049,30.810274 
	C205.475861,31.327341 205.009476,31.581230 204.286957,31.915321 
	C204.330185,30.891302 204.629532,29.787083 204.963776,28.336843 
	C205.319107,28.465769 205.639557,28.940716 205.980087,29.717899 
z"/>
</svg>