<?xml version="1.0" standalone="no"?>
<!DOCTYPE svg PUBLIC "-//W3C//DTD SVG 20010904//EN"
 "http://www.w3.org/TR/2001/REC-SVG-20010904/DTD/svg10.dtd">
<svg version="1.0" xmlns="http://www.w3.org/2000/svg"
 width="225.000000pt" height="225.000000pt" viewBox="0 0 225.000000 225.000000"
 preserveAspectRatio="xMidYMid meet">

<g transform="translate(0.000000,225.000000) scale(0.100000,-0.100000)"
fill="#000000" stroke="none">
<path d="M63 1745 c-56 -24 -63 -52 -63 -259 0 -101 3 -191 6 -200 3 -9 14
-16 23 -16 45 0 55 -54 14 -73 -16 -6 -31 -16 -35 -22 -4 -5 -8 -95 -8 -198 0
-151 3 -194 16 -218 15 -31 66 -59 104 -59 18 0 20 -6 20 -79 0 -63 4 -84 19
-102 l19 -24 504 -3 c276 -1 513 0 525 3 41 10 53 32 53 101 0 72 12 104 38
104 33 0 42 -22 42 -96 0 -67 2 -74 27 -94 26 -20 34 -21 366 -18 l339 3 19
24 c15 18 19 39 19 102 0 73 2 79 20 79 38 0 89 28 104 59 13 24 16 67 16 218
0 103 -4 193 -8 198 -4 6 -19 16 -34 22 -42 19 -32 73 13 73 9 0 20 7 23 16 3
9 6 99 6 200 0 209 -7 235 -65 260 -50 21 -2074 20 -2122 -1z m2105 -67 c8 -8
12 -62 12 -176 l0 -164 -29 -27 c-53 -50 -53 -112 0 -162 l29 -27 0 -164 c0
-114 -4 -168 -12 -176 -7 -7 -29 -12 -50 -12 -63 0 -78 -24 -78 -125 l0 -85
-317 2 -318 3 -5 78 c-4 71 -8 81 -33 103 -41 35 -99 33 -138 -5 -27 -27 -29
-35 -29 -105 l0 -76 -495 0 -495 0 0 85 c0 101 -15 125 -78 125 -21 0 -43 5
-50 12 -8 8 -12 62 -12 178 l0 166 29 25 c53 47 53 110 0 160 l-29 27 0 164
c0 114 4 168 12 176 17 17 2069 17 2086 0z"/>
<path d="M228 1539 c-16 -9 -18 -31 -18 -232 0 -122 4 -228 8 -235 7 -9 48
-12 173 -10 l164 3 3 230 c2 207 1 231 -15 242 -21 16 -289 17 -315 2z m262
-239 l0 -180 -105 0 -105 0 0 180 0 180 105 0 105 0 0 -180z"/>
<path d="M716 1534 c-14 -13 -16 -48 -16 -232 0 -119 4 -223 8 -230 7 -9 48
-12 173 -10 l164 3 3 229 c2 160 -1 233 -9 242 -18 22 -302 20 -323 -2z m269
-234 l0 -175 -107 -3 -108 -3 0 181 0 181 108 -3 107 -3 0 -175z"/>
<path d="M1211 1536 c-8 -9 -11 -82 -9 -242 l3 -229 159 -3 c108 -2 163 1 172
9 11 9 14 56 14 230 0 184 -2 220 -16 233 -21 22 -305 24 -323 2z m269 -236
l0 -181 -107 3 -108 3 -3 165 c-1 90 0 170 2 177 4 9 34 13 111 13 l105 0 0
-180z"/>
<path d="M1707 1537 c-16 -11 -17 -35 -15 -242 l3 -230 164 -3 c125 -2 166 1
173 10 4 7 8 113 8 235 0 210 -1 223 -19 233 -29 15 -293 13 -314 -3z m263
-237 l0 -180 -105 0 -105 0 0 180 0 180 105 0 105 0 0 -180z"/>
<path d="M145 890 c-3 -11 -3 -24 0 -30 4 -7 290 -10 840 -10 760 0 833 1 839
16 17 45 31 44 -845 44 -818 0 -828 0 -834 -20z"/>
<path d="M1904 895 c-15 -38 2 -45 100 -45 98 0 112 6 101 40 -6 18 -15 20
-101 20 -75 0 -96 -3 -100 -15z"/>
<path d="M327 763 c-12 -11 -8 -108 5 -121 16 -16 23 -15 42 4 18 18 21 76 6
105 -10 19 -40 26 -53 12z"/>
<path d="M502 758 c-17 -17 -15 -93 4 -112 34 -34 56 -6 52 66 -2 44 -6 53
-23 56 -11 1 -26 -3 -33 -10z"/>
<path d="M677 763 c-12 -11 -8 -108 5 -121 16 -16 23 -15 42 4 19 18 22 94 4
112 -13 13 -41 16 -51 5z"/>
<path d="M857 764 c-4 -4 -7 -33 -7 -65 0 -43 4 -58 16 -63 31 -12 45 13 42
73 -3 48 -6 56 -23 59 -12 2 -24 0 -28 -4z"/>
<path d="M1027 763 c-4 -3 -7 -30 -7 -59 0 -59 19 -81 53 -63 17 10 24 79 11
113 -6 16 -45 22 -57 9z"/>
<path d="M1522 758 c-17 -17 -15 -93 4 -112 34 -34 56 -6 52 66 -2 44 -6 53
-23 56 -11 1 -26 -3 -33 -10z"/>
<path d="M1697 763 c-12 -11 -8 -108 5 -121 16 -16 23 -15 42 4 19 18 22 94 4
112 -13 13 -41 16 -51 5z"/>
<path d="M1871 751 c-16 -29 -13 -87 5 -105 34 -34 56 -6 52 66 -3 46 -6 53
-25 56 -14 2 -26 -4 -32 -17z"/>
</g>
</svg>
