<svg version="1.1" id="Layer_1" xmlns="http://www.w3.org/2000/svg" xmlns:xlink="http://www.w3.org/1999/xlink" x="0px" y="0px"
	 width="100%" viewBox="0 0 512 512" enable-background="new 0 0 512 512" xml:space="preserve">
<path fill="#000000" opacity="1.000000" stroke="none" 
	d="
M287.000000,513.000000 
	C191.356552,513.000000 96.213104,513.000000 1.034826,513.000000 
	C1.034826,342.398193 1.034826,171.796371 1.034826,1.097280 
	C171.560135,1.097280 342.120331,1.097280 512.840271,1.097280 
	C512.840271,171.666550 512.840271,342.333252 512.840271,513.000000 
	C437.796356,513.000000 362.648163,513.000000 287.000000,513.000000 
M234.132370,442.299438 
	C238.711044,436.425690 240.840714,429.533081 240.886795,422.317017 
	C241.100616,388.823608 240.807693,355.326477 241.104309,321.834320 
	C241.202469,310.749207 238.608109,300.787872 231.936829,292.047882 
	C223.634399,281.170898 212.788879,273.449432 198.946030,273.223328 
	C162.961304,272.635590 126.959480,272.874756 90.967300,273.151367 
	C83.802063,273.206421 76.884636,275.547882 70.383888,280.214233 
	C69.601799,280.814789 68.810127,281.403320 68.039047,282.017700 
	C56.604527,291.128632 49.114334,302.480225 49.047722,317.535614 
	C48.896732,351.660492 48.974442,385.786591 49.043743,419.911987 
	C49.050011,422.999359 49.354053,426.158752 50.053661,429.160278 
	C54.667900,448.956665 74.164192,465.277069 94.783493,465.083832 
	C128.073792,464.771881 161.369156,465.006653 194.662384,464.997070 
	C211.844086,464.992096 224.597351,457.105530 234.132370,442.299438 
M458.132385,218.299438 
	C462.711121,212.425720 464.840698,205.533051 464.886810,198.317032 
	C465.100708,164.823608 464.807739,131.326508 465.104309,97.834335 
	C465.202484,86.749260 462.608063,76.787964 455.936829,68.047928 
	C447.634430,57.170910 436.788879,49.449505 422.946075,49.223385 
	C386.961365,48.635590 350.959534,48.874802 314.967346,49.151390 
	C307.802124,49.206455 300.884613,51.547794 294.383911,56.214222 
	C293.601868,56.814766 292.810303,57.403339 292.039276,58.017670 
	C280.604492,67.128387 273.114319,78.480118 273.047668,93.535385 
	C272.896515,127.660301 272.974335,161.786392 273.043610,195.911835 
	C273.049896,198.999191 273.354034,202.158569 274.053619,205.160095 
	C278.667725,224.956421 298.163971,241.276962 318.783386,241.083725 
	C352.073700,240.771759 385.369110,241.006500 418.662354,240.996994 
	C435.844116,240.992096 448.597260,233.105469 458.132385,218.299438 
M234.132370,218.299469 
	C238.711105,212.425751 240.840698,205.533096 240.886780,198.317078 
	C241.100662,164.823654 240.807709,131.326538 241.104309,97.834358 
	C241.202469,86.749275 238.608124,76.787979 231.936859,68.047951 
	C223.634445,57.170925 212.788910,49.449493 198.946060,49.223381 
	C162.961319,48.635597 126.959488,48.874813 90.967300,49.151375 
	C83.802040,49.206436 76.884605,51.547905 70.383881,56.214249 
	C69.601807,56.814800 68.810143,57.403332 68.039078,58.017708 
	C56.604511,67.128593 49.114349,78.480194 49.047729,93.535568 
	C48.896725,127.660461 48.974438,161.786530 49.043739,195.911957 
	C49.050011,198.999313 49.354057,202.158722 50.053658,205.160233 
	C54.667835,224.956512 74.164093,241.276993 94.783470,241.083740 
	C128.073776,240.771729 161.369156,241.006516 194.662384,240.996994 
	C211.844116,240.992081 224.597275,233.105484 234.132370,218.299469 
M458.126984,442.321655 
	C462.848114,436.409637 464.865723,429.410797 464.909271,422.106445 
	C465.107635,388.807831 464.810974,355.505707 465.105225,322.208466 
	C465.203613,311.072845 462.737335,301.078400 456.019836,292.190979 
	C447.706970,281.192902 436.876129,273.460541 423.032928,273.218658 
	C387.080139,272.590332 351.108032,272.866119 315.146088,273.122803 
	C307.885284,273.174622 300.912506,275.509399 294.329590,280.181610 
	C293.969452,280.525269 293.641388,280.912170 293.244568,281.206390 
	C280.481323,290.669891 272.955963,302.876617 272.983337,319.204681 
	C273.039429,352.666199 272.972626,386.127899 273.043915,419.589355 
	C273.050812,422.825317 273.318726,426.142944 274.061493,429.281647 
	C278.690063,448.840637 297.998016,465.260345 318.681519,465.077637 
	C351.641113,464.786469 384.605713,464.884735 417.567139,465.046356 
	C435.190979,465.132782 448.305603,457.457458 458.126984,442.321655 
z"/>
<path fill="#DFE8F4" opacity="1.000000" stroke="none" 
	d="
M295.016846,280.184174 
	C300.912506,275.509399 307.885284,273.174622 315.146088,273.122803 
	C351.108032,272.866119 387.080139,272.590332 423.032928,273.218658 
	C436.876129,273.460541 447.706970,281.192902 456.019836,292.190979 
	C462.737335,301.078400 465.203613,311.072845 465.105225,322.208466 
	C464.810974,355.505707 465.107635,388.807831 464.909271,422.106445 
	C464.865723,429.410797 462.848114,436.409637 457.603943,442.664978 
	C444.319458,449.721893 430.506226,449.127197 416.696960,449.045227 
	C390.402222,448.889160 364.105896,449.002228 337.810211,448.999390 
	C310.185059,448.996429 289.002472,427.711090 289.000519,399.953033 
	C288.998260,367.998810 288.984436,336.044525 289.033112,304.090393 
	C289.036621,301.793915 289.214233,299.416595 289.821594,297.217926 
	C291.401550,291.498108 293.265961,285.856812 295.016846,280.184174 
z"/>
<path fill="#0795FF" opacity="1.000000" stroke="none" 
	d="
M71.069550,56.205853 
	C76.884605,51.547905 83.802040,49.206436 90.967300,49.151375 
	C126.959488,48.874813 162.961319,48.635597 198.946060,49.223381 
	C212.788910,49.449493 223.634445,57.170925 231.936859,68.047951 
	C238.608124,76.787979 241.202469,86.749275 241.104309,97.834358 
	C240.807709,131.326538 241.100662,164.823654 240.886780,198.317078 
	C240.840698,205.533096 238.711105,212.425751 233.597473,218.637573 
	C225.415100,220.983261 217.799179,224.570328 210.114716,224.723740 
	C177.633362,225.372147 145.131149,225.082626 112.637840,224.902817 
	C108.059776,224.877472 103.313728,224.120514 98.944450,222.749374 
	C78.256134,216.257095 65.010384,197.858368 65.003258,176.128510 
	C64.992821,144.300766 64.984230,112.473007 65.033226,80.645348 
	C65.037025,78.177124 65.168411,75.618805 65.814903,73.259781 
	C67.386299,67.525772 69.296074,61.884487 71.069550,56.205853 
z"/>
<path fill="#0795FF" opacity="1.000000" stroke="none" 
	d="
M295.069611,56.205856 
	C300.884613,51.547794 307.802124,49.206455 314.967346,49.151390 
	C350.959534,48.874802 386.961365,48.635590 422.946075,49.223385 
	C436.788879,49.449505 447.634430,57.170910 455.936829,68.047928 
	C462.608063,76.787964 465.202484,86.749260 465.104309,97.834335 
	C464.807739,131.326508 465.100708,164.823608 464.886810,198.317032 
	C464.840698,205.533051 462.711121,212.425720 457.597473,218.637558 
	C449.415070,220.983246 441.799133,224.570328 434.114624,224.723740 
	C401.633270,225.372147 369.131104,225.082642 336.637787,224.902817 
	C332.059753,224.877472 327.313721,224.120483 322.944427,222.749329 
	C302.255890,216.256912 289.010712,197.859665 289.003265,176.128479 
	C288.992401,144.300751 288.984161,112.473000 289.033112,80.645348 
	C289.036926,78.177116 289.168335,75.618790 289.814819,73.259766 
	C291.386292,67.525764 293.296112,61.884487 295.069611,56.205856 
z"/>
<path fill="#0795FF" opacity="1.000000" stroke="none" 
	d="
M71.069580,280.205811 
	C76.884636,275.547882 83.802063,273.206421 90.967300,273.151367 
	C126.959480,272.874756 162.961304,272.635590 198.946030,273.223328 
	C212.788879,273.449432 223.634399,281.170898 231.936829,292.047882 
	C238.608109,300.787872 241.202469,310.749207 241.104309,321.834320 
	C240.807693,355.326477 241.100616,388.823608 240.886795,422.317017 
	C240.840714,429.533081 238.711044,436.425690 233.597473,442.637573 
	C225.415100,444.983276 217.799164,448.570404 210.114700,448.723785 
	C177.633347,449.372223 145.131134,449.082703 112.637817,448.902893 
	C108.059746,448.877594 103.313705,448.120544 98.944405,446.749390 
	C78.256142,440.257050 65.010384,421.858276 65.003258,400.128510 
	C64.992821,368.300751 64.984230,336.472992 65.033226,304.645325 
	C65.037025,302.177094 65.168427,299.618774 65.814919,297.259766 
	C67.386337,291.525726 69.296112,285.884460 71.069580,280.205811 
z"/>
<path fill="#156CDD" opacity="1.000000" stroke="none" 
	d="
M70.726715,56.210052 
	C69.296074,61.884487 67.386299,67.525772 65.814903,73.259781 
	C65.168411,75.618805 65.037025,78.177124 65.033226,80.645348 
	C64.984230,112.473007 64.992821,144.300766 65.003258,176.128510 
	C65.010384,197.858368 78.256134,216.257095 98.944450,222.749374 
	C103.313728,224.120514 108.059776,224.877472 112.637840,224.902817 
	C145.131149,225.082626 177.633362,225.372147 210.114716,224.723740 
	C217.799179,224.570328 225.415100,220.983261 233.429688,218.953033 
	C224.597275,233.105484 211.844116,240.992081 194.662384,240.996994 
	C161.369156,241.006516 128.073776,240.771729 94.783470,241.083740 
	C74.164093,241.276993 54.667835,224.956512 50.053658,205.160233 
	C49.354057,202.158722 49.050011,198.999313 49.043739,195.911957 
	C48.974438,161.786530 48.896725,127.660461 49.047729,93.535568 
	C49.114349,78.480194 56.604511,67.128593 68.039078,58.017708 
	C68.810143,57.403332 69.601807,56.814800 70.726715,56.210052 
z"/>
<path fill="#156CDD" opacity="1.000000" stroke="none" 
	d="
M294.726746,56.210037 
	C293.296112,61.884487 291.386292,67.525764 289.814819,73.259766 
	C289.168335,75.618790 289.036926,78.177116 289.033112,80.645348 
	C288.984161,112.473000 288.992401,144.300751 289.003265,176.128479 
	C289.010712,197.859665 302.255890,216.256912 322.944427,222.749329 
	C327.313721,224.120483 332.059753,224.877472 336.637787,224.902817 
	C369.131104,225.082642 401.633270,225.372147 434.114624,224.723740 
	C441.799133,224.570328 449.415070,220.983246 457.429688,218.953033 
	C448.597260,233.105469 435.844116,240.992096 418.662354,240.996994 
	C385.369110,241.006500 352.073700,240.771759 318.783386,241.083725 
	C298.163971,241.276962 278.667725,224.956421 274.053619,205.160095 
	C273.354034,202.158569 273.049896,198.999191 273.043610,195.911835 
	C272.974335,161.786392 272.896515,127.660301 273.047668,93.535385 
	C273.114319,78.480118 280.604492,67.128387 292.039276,58.017670 
	C292.810303,57.403339 293.601868,56.814766 294.726746,56.210037 
z"/>
<path fill="#156CDD" opacity="1.000000" stroke="none" 
	d="
M70.726730,280.210022 
	C69.296112,285.884460 67.386337,291.525726 65.814919,297.259766 
	C65.168427,299.618774 65.037025,302.177094 65.033226,304.645325 
	C64.984230,336.472992 64.992821,368.300751 65.003258,400.128510 
	C65.010384,421.858276 78.256142,440.257050 98.944405,446.749390 
	C103.313705,448.120544 108.059746,448.877594 112.637817,448.902893 
	C145.131134,449.082703 177.633347,449.372223 210.114700,448.723785 
	C217.799164,448.570404 225.415100,444.983276 233.429688,442.953003 
	C224.597351,457.105530 211.844086,464.992096 194.662384,464.997070 
	C161.369156,465.006653 128.073792,464.771881 94.783493,465.083832 
	C74.164192,465.277069 54.667900,448.956665 50.053661,429.160278 
	C49.354053,426.158752 49.050011,422.999359 49.043743,419.911987 
	C48.974442,385.786591 48.896732,351.660492 49.047722,317.535614 
	C49.114334,302.480225 56.604527,291.128632 68.039047,282.017700 
	C68.810127,281.403320 69.601799,280.814789 70.726730,280.210022 
z"/>
<path fill="#CCD8E5" opacity="1.000000" stroke="none" 
	d="
M294.673218,280.182892 
	C293.265961,285.856812 291.401550,291.498108 289.821594,297.217926 
	C289.214233,299.416595 289.036621,301.793915 289.033112,304.090393 
	C288.984436,336.044525 288.998260,367.998810 289.000519,399.953033 
	C289.002472,427.711090 310.185059,448.996429 337.810211,448.999390 
	C364.105896,449.002228 390.402222,448.889160 416.696960,449.045227 
	C430.506226,449.127197 444.319458,449.721893 457.449768,442.994690 
	C448.305603,457.457458 435.190979,465.132782 417.567139,465.046356 
	C384.605713,464.884735 351.641113,464.786469 318.681519,465.077637 
	C297.998016,465.260345 278.690063,448.840637 274.061493,429.281647 
	C273.318726,426.142944 273.050812,422.825317 273.043915,419.589355 
	C272.972626,386.127899 273.039429,352.666199 272.983337,319.204681 
	C272.955963,302.876617 280.481323,290.669891 293.244568,281.206390 
	C293.641388,280.912170 293.969452,280.525269 294.673218,280.182892 
z"/>
</svg>