<svg version="1.1" id="Layer_1" xmlns="http://www.w3.org/2000/svg" xmlns:xlink="http://www.w3.org/1999/xlink" x="0px" y="0px"
	 width="100%" viewBox="0 0 275 183" enable-background="new 0 0 275 183" xml:space="preserve">
<path fill="#FFFEFE" opacity="1.000000" stroke="none" 
	d="
M159.000000,184.000000 
	C106.000008,184.000000 53.500011,184.000000 1.000014,184.000000 
	C1.000009,123.000015 1.000009,62.000027 1.000005,1.000031 
	C92.666649,1.000020 184.333298,1.000020 275.999939,1.000010 
	C275.999969,61.999969 275.999969,122.999939 276.000000,183.999954 
	C237.166672,184.000000 198.333328,184.000000 159.000000,184.000000 
M235.984818,132.539474 
	C236.000229,132.964554 236.015640,133.389633 235.438522,133.842438 
	C235.321152,134.513397 235.203781,135.184357 235.086426,135.855316 
	C235.756500,135.529327 236.426590,135.203339 237.527039,134.990768 
	C237.527039,134.990768 237.967773,134.928925 238.183548,135.338089 
	C238.788925,135.246674 239.394318,135.155258 240.053482,134.267609 
	C240.053482,132.016434 240.053482,129.765244 240.053482,126.314186 
	C238.482422,128.581650 237.643402,129.792587 236.333328,131.036072 
	C236.333328,131.036072 235.863068,131.078354 235.590622,131.252625 
	C235.590622,131.252625 235.554108,131.670776 235.554108,131.670776 
	C235.554108,131.670776 235.961365,131.899384 235.984818,132.539474 
M119.980331,139.039902 
	C119.980331,131.051559 119.980331,123.063210 119.980331,114.387711 
	C117.258301,115.025909 115.205635,115.507164 113.000702,116.914955 
	C113.000702,122.195114 113.000702,127.475273 113.000702,133.161896 
	C108.106400,133.444275 103.708725,133.744919 99.306320,133.937439 
	C95.650932,134.097275 93.849205,132.256424 93.862534,128.596176 
	C93.878723,124.150520 93.866379,119.704765 93.866379,115.400047 
	C88.791534,114.141998 86.258263,115.359566 86.917229,120.618355 
	C87.142799,122.418419 87.149345,124.295929 86.918251,126.094666 
	C85.831573,134.552994 90.264282,136.585358 97.934265,136.968842 
	C102.878937,137.216064 107.846001,137.015274 112.677811,137.015274 
	C113.756432,141.678741 111.031853,142.220963 107.922745,142.333359 
	C101.043053,142.582031 94.162506,142.807266 87.041786,143.487091 
	C87.073807,143.652649 87.105820,143.818207 86.990883,144.648804 
	C87.038445,145.097794 87.085999,145.546768 87.399254,146.825882 
	C94.917183,146.831757 102.435120,146.837616 110.719154,146.943726 
	C114.728638,145.882065 119.223213,145.454620 119.980331,139.039902 
M75.907188,137.090225 
	C77.497147,137.090225 79.087105,137.090225 80.842201,137.090225 
	C80.842201,127.462425 80.842201,118.252960 80.916840,108.328133 
	C76.785240,102.902428 69.894836,103.311928 67.056923,109.310822 
	C63.617634,116.580917 60.424652,123.967545 56.702408,132.243546 
	C53.154026,124.025963 50.104435,116.770554 46.893818,109.587120 
	C44.154995,103.459274 37.404671,102.747185 32.961063,108.945259 
	C32.961063,118.295616 32.961063,127.645981 32.961063,137.257095 
	C35.355415,137.067688 37.149609,136.925735 39.616920,136.328629 
	C39.616920,128.333786 39.616920,120.338943 39.616920,112.344101 
	C43.783924,118.865059 46.928902,125.514908 49.831856,132.268768 
	C51.195293,135.440887 52.998634,137.643005 56.707642,137.704651 
	C60.614620,137.769577 62.606174,135.566833 64.041168,132.189606 
	C66.976601,125.281166 70.156204,118.476471 73.235260,111.629051 
	C73.989426,118.247169 73.910797,124.654366 74.036575,131.057556 
	C74.075111,133.019592 74.674034,134.970612 75.907188,137.090225 
M195.334793,122.445114 
	C195.334198,119.785118 195.373795,117.124390 195.324722,114.465286 
	C195.220383,108.810959 193.635880,106.387573 187.872971,105.876282 
	C181.310501,105.294060 174.631058,105.473923 168.043167,105.921669 
	C163.295883,106.244331 160.665176,109.148003 160.887650,114.300087 
	C161.081116,118.780479 160.912567,123.275902 160.932419,127.764557 
	C160.959457,133.878174 163.229172,136.554688 169.430435,137.065842 
	C173.388916,137.392136 177.410233,136.924057 181.377014,137.196274 
	C183.181824,137.320129 184.942535,138.324356 186.688522,139.016785 
	C189.925278,140.300430 193.136536,141.648407 196.358414,142.969589 
	C196.634216,142.414490 196.910019,141.859406 197.185806,141.304321 
	C195.318024,139.756470 193.450226,138.208633 191.209625,136.351822 
	C196.749268,132.847168 195.034622,127.860786 195.334793,122.445114 
M213.020218,67.519974 
	C208.767761,59.360508 202.981934,52.314682 194.896057,48.059296 
	C187.249115,44.034904 178.926315,41.254807 170.777054,38.264641 
	C169.436935,37.772923 166.743942,38.502304 165.960907,39.591202 
	C165.011353,40.911617 164.686523,43.560879 165.377243,45.031025 
	C168.598251,51.886570 172.405579,58.465305 175.679520,65.298141 
	C176.626816,67.275208 176.748428,69.760574 176.812180,72.025200 
	C176.950256,76.930168 176.162491,81.961540 177.035248,86.705376 
	C177.508560,89.278091 180.613724,91.366615 182.531708,93.673546 
	C184.132706,91.566521 185.733704,89.459488 187.277695,87.427483 
	C189.247940,89.859718 191.690399,92.874916 194.132858,95.890106 
	C194.372620,95.697922 194.612366,95.505730 194.852127,95.313545 
	C192.036819,90.070251 189.221527,84.826958 185.814163,78.480995 
	C184.322525,83.039818 183.137924,86.660217 181.754318,90.888847 
	C177.244034,85.062630 177.389954,79.077721 178.914948,72.794884 
	C179.408539,70.761307 180.406891,68.198540 179.641403,66.622284 
	C176.055435,59.238064 171.908493,52.127537 168.034821,44.880299 
	C167.485260,43.852135 167.335617,42.610226 166.870590,41.022331 
	C168.392487,41.022331 169.270752,40.802109 169.978363,41.056530 
	C176.738342,43.487068 183.735229,45.457699 190.146805,48.611866 
	C199.852509,53.386585 206.779007,61.129448 210.978653,71.231155 
	C212.697311,75.365189 214.365051,79.597885 216.740387,83.352715 
	C218.191940,85.647270 220.757446,87.425224 223.154999,88.891960 
	C227.431671,91.508301 231.960037,93.713272 237.429886,96.652779 
	C232.123489,97.812019 228.363708,98.633385 224.186661,99.545906 
	C227.353775,107.161789 233.956482,108.602905 239.339142,111.670769 
	C239.630753,111.320908 239.922379,110.971046 240.213989,110.621185 
	C236.526840,107.664474 232.839691,104.707764 228.715363,101.400490 
	C232.938446,100.442429 236.492065,99.636238 241.584991,98.480843 
	C236.852768,94.755180 233.653671,90.776466 229.556290,89.313423 
	C220.921478,86.230194 217.847473,79.267548 214.817245,71.887306 
	C214.313461,70.660324 213.756470,69.455193 213.020218,67.519974 
M125.594490,136.274033 
	C132.478806,136.553635 139.361526,136.903610 146.248642,137.060501 
	C147.855545,137.097122 149.506866,136.583466 151.086914,136.141296 
	C156.339233,134.671509 156.278702,130.546097 156.222961,126.187729 
	C156.171173,122.141647 153.700485,120.429039 150.438431,119.941536 
	C146.037659,119.283882 141.543289,119.097298 137.084442,119.033501 
	C133.636642,118.984177 132.378677,117.383995 132.281296,114.148277 
	C132.179520,110.767204 133.982361,109.861320 136.945206,109.886276 
	C142.931259,109.936714 148.918304,109.889076 154.904663,109.844315 
	C155.354691,109.840942 155.802490,109.538734 156.508911,109.281738 
	C156.448288,108.028046 156.388275,106.787178 156.341980,105.829979 
	C147.903122,105.829979 139.801208,105.542526 131.734131,105.948006 
	C127.531517,106.159248 125.637566,109.213135 125.471092,113.540222 
	C125.302917,117.912010 126.463699,121.348900 131.065659,122.135483 
	C135.276199,122.855171 139.613892,122.859039 143.899994,123.098991 
	C147.006287,123.272888 149.372696,123.879929 149.384476,127.873566 
	C149.395981,131.773376 147.199112,132.756302 144.024734,132.802612 
	C139.036774,132.875397 134.037292,132.664597 129.065079,132.955994 
	C127.820892,133.028900 126.662117,134.559570 125.594490,136.274033 
M218.597977,132.840500 
	C217.432663,132.840500 216.267365,132.843109 215.102051,132.840088 
	C207.087692,132.819275 206.847519,132.586151 206.848175,124.854523 
	C206.848724,118.414368 206.848267,111.974205 206.848267,105.355362 
	C204.316574,105.355362 202.394272,105.355362 199.934189,105.355362 
	C199.934189,112.826324 199.914673,120.102715 199.940186,127.378937 
	C199.961685,133.513611 202.151093,136.443634 208.326050,136.844894 
	C215.584030,137.316498 222.896118,136.955353 230.241226,136.955353 
	C231.303024,134.037186 230.669510,132.674438 227.548386,132.817230 
	C224.890411,132.938828 222.222382,132.841110 218.597977,132.840500 
z"/>
<path fill="#08638C" opacity="1.000000" stroke="none" 
	d="
M33.187286,108.036331 
	C37.404671,102.747185 44.154995,103.459274 46.893818,109.587120 
	C50.104435,116.770554 53.154026,124.025963 56.702408,132.243546 
	C60.424652,123.967545 63.617634,116.580917 67.056923,109.310822 
	C69.894836,103.311928 76.785240,102.902428 80.613419,108.999207 
	C80.309998,118.214088 80.309998,126.757904 80.309998,135.022232 
	C78.004166,135.851776 76.510254,136.389236 75.016342,136.926682 
	C74.674034,134.970612 74.075111,133.019592 74.036575,131.057556 
	C73.910797,124.654366 73.989426,118.247169 73.235260,111.629051 
	C70.156204,118.476471 66.976601,125.281166 64.041168,132.189606 
	C62.606174,135.566833 60.614620,137.769577 56.707642,137.704651 
	C52.998634,137.643005 51.195293,135.440887 49.831856,132.268768 
	C46.928902,125.514908 43.783924,118.865059 39.616920,112.344101 
	C39.616920,120.338943 39.616920,128.333786 38.988052,136.313995 
	C34.749592,136.359238 33.868660,134.572418 33.898224,131.077499 
	C33.963169,123.399666 33.459076,115.717018 33.187286,108.036331 
z"/>
<path fill="#E48E06" opacity="1.000000" stroke="none" 
	d="
M195.334534,122.917801 
	C195.034622,127.860786 196.749268,132.847168 191.209625,136.351822 
	C193.450226,138.208633 195.318024,139.756470 197.185806,141.304321 
	C196.910019,141.859406 196.634216,142.414490 196.358414,142.969589 
	C193.136536,141.648407 189.925278,140.300430 186.688522,139.016785 
	C184.942535,138.324356 183.181824,137.320129 181.377014,137.196274 
	C177.410233,136.924057 173.388916,137.392136 169.430435,137.065842 
	C163.229172,136.554688 160.959457,133.878174 160.932419,127.764557 
	C160.912567,123.275902 161.081116,118.780479 160.887650,114.300087 
	C160.665176,109.148003 163.295883,106.244331 168.043167,105.921669 
	C174.631058,105.473923 181.310501,105.294060 187.872971,105.876282 
	C193.635880,106.387573 195.220383,108.810959 195.324722,114.465286 
	C195.373795,117.124390 195.334198,119.785118 195.334534,122.917801 
M168.137863,119.592041 
	C168.137863,120.921593 168.137711,122.251152 168.137848,123.580704 
	C168.138855,132.850327 169.064667,133.643906 178.905640,132.461151 
	C177.622467,130.951965 176.462540,129.587708 175.302612,128.223465 
	C175.554260,127.752472 175.805908,127.281479 176.057556,126.810486 
	C179.986725,128.298981 183.915894,129.787460 188.996643,131.712204 
	C188.996643,128.585602 189.018845,125.409927 188.992752,122.234650 
	C188.886948,109.352455 190.925446,109.889610 176.674194,109.934021 
	C168.159317,109.960556 168.142288,109.968468 168.137863,119.592041 
z"/>
<path fill="#11628B" opacity="1.000000" stroke="none" 
	d="
M213.122131,67.879974 
	C213.756470,69.455193 214.313461,70.660324 214.817245,71.887306 
	C217.847473,79.267548 220.921478,86.230194 229.556290,89.313423 
	C233.653671,90.776466 236.852768,94.755180 241.584991,98.480843 
	C236.492065,99.636238 232.938446,100.442429 228.715363,101.400490 
	C232.839691,104.707764 236.526840,107.664474 240.213989,110.621185 
	C239.922379,110.971046 239.630753,111.320908 239.339142,111.670769 
	C233.956482,108.602905 227.353775,107.161789 224.186661,99.545906 
	C228.363708,98.633385 232.123489,97.812019 237.429886,96.652779 
	C231.960037,93.713272 227.431671,91.508301 223.154999,88.891960 
	C220.757446,87.425224 218.191940,85.647270 216.740387,83.352715 
	C214.365051,79.597885 212.697311,75.365189 210.978653,71.231155 
	C206.779007,61.129448 199.852509,53.386585 190.146805,48.611866 
	C183.735229,45.457699 176.738342,43.487068 169.978363,41.056530 
	C169.270752,40.802109 168.392487,41.022331 166.870590,41.022331 
	C167.335617,42.610226 167.485260,43.852135 168.034821,44.880299 
	C171.908493,52.127537 176.055435,59.238064 179.641403,66.622284 
	C180.406891,68.198540 179.408539,70.761307 178.914948,72.794884 
	C177.389954,79.077721 177.244034,85.062630 181.754318,90.888847 
	C183.137924,86.660217 184.322525,83.039818 185.814163,78.480995 
	C189.221527,84.826958 192.036819,90.070251 194.852127,95.313545 
	C194.612366,95.505730 194.372620,95.697922 194.132858,95.890106 
	C191.690399,92.874916 189.247940,89.859718 187.277695,87.427483 
	C185.733704,89.459488 184.132706,91.566521 182.531708,93.673546 
	C180.613724,91.366615 177.508560,89.278091 177.035248,86.705376 
	C176.162491,81.961540 176.950256,76.930168 176.812180,72.025200 
	C176.748428,69.760574 176.626816,67.275208 175.679520,65.298141 
	C172.405579,58.465305 168.598251,51.886570 165.377243,45.031025 
	C164.686523,43.560879 165.011353,40.911617 165.960907,39.591202 
	C166.743942,38.502304 169.436935,37.772923 170.777054,38.264641 
	C178.926315,41.254807 187.249115,44.034904 194.896057,48.059296 
	C202.981934,52.314682 208.767761,59.360508 213.122131,67.879974 
z"/>
<path fill="#E4900B" opacity="1.000000" stroke="none" 
	d="
M125.529289,135.847137 
	C126.662117,134.559570 127.820892,133.028900 129.065079,132.955994 
	C134.037292,132.664597 139.036774,132.875397 144.024734,132.802612 
	C147.199112,132.756302 149.395981,131.773376 149.384476,127.873566 
	C149.372696,123.879929 147.006287,123.272888 143.899994,123.098991 
	C139.613892,122.859039 135.276199,122.855171 131.065659,122.135483 
	C126.463699,121.348900 125.302917,117.912010 125.471092,113.540222 
	C125.637566,109.213135 127.531517,106.159248 131.734131,105.948006 
	C139.801208,105.542526 147.903122,105.829979 156.341980,105.829979 
	C156.388275,106.787178 156.448288,108.028046 156.508911,109.281738 
	C155.802490,109.538734 155.354691,109.840942 154.904663,109.844315 
	C148.918304,109.889076 142.931259,109.936714 136.945206,109.886276 
	C133.982361,109.861320 132.179520,110.767204 132.281296,114.148277 
	C132.378677,117.383995 133.636642,118.984177 137.084442,119.033501 
	C141.543289,119.097298 146.037659,119.283882 150.438431,119.941536 
	C153.700485,120.429039 156.171173,122.141647 156.222961,126.187729 
	C156.278702,130.546097 156.339233,134.671509 151.086914,136.141296 
	C149.506866,136.583466 147.855545,137.097122 146.248642,137.060501 
	C139.361526,136.903610 132.478806,136.553635 125.529289,135.847137 
z"/>
<path fill="#0A658D" opacity="1.000000" stroke="none" 
	d="
M87.282310,143.042053 
	C94.162506,142.807266 101.043053,142.582031 107.922745,142.333359 
	C111.031853,142.220963 113.756432,141.678741 112.677811,137.015274 
	C107.846001,137.015274 102.878937,137.216064 97.934265,136.968842 
	C90.264282,136.585358 85.831573,134.552994 86.918251,126.094666 
	C87.149345,124.295929 87.142799,122.418419 86.917229,120.618355 
	C86.258263,115.359566 88.791534,114.141998 93.866379,115.400047 
	C93.866379,119.704765 93.878723,124.150520 93.862534,128.596176 
	C93.849205,132.256424 95.650932,134.097275 99.306320,133.937439 
	C103.708725,133.744919 108.106400,133.444275 113.000702,133.161896 
	C113.000702,127.475273 113.000702,122.195114 113.504761,116.457626 
	C115.570862,116.128845 117.132904,116.257401 118.994896,116.410645 
	C118.994896,119.425087 118.907440,121.887711 119.012993,124.342033 
	C119.237038,129.551559 119.561600,134.756775 119.844955,139.963745 
	C119.223213,145.454620 114.728638,145.882065 110.023849,146.626465 
	C101.930222,146.204727 94.531891,146.100235 87.133560,145.995758 
	C87.085999,145.546768 87.038445,145.097794 87.214165,144.244537 
	C87.679375,143.545639 87.627663,143.279556 87.282310,143.042053 
z"/>
<path fill="#E48F0A" opacity="1.000000" stroke="none" 
	d="
M219.078400,132.840454 
	C222.222382,132.841110 224.890411,132.938828 227.548386,132.817230 
	C230.669510,132.674438 231.303024,134.037186 230.241226,136.955353 
	C222.896118,136.955353 215.584030,137.316498 208.326050,136.844894 
	C202.151093,136.443634 199.961685,133.513611 199.940186,127.378937 
	C199.914673,120.102715 199.934189,112.826324 199.934189,105.355362 
	C202.394272,105.355362 204.316574,105.355362 206.848267,105.355362 
	C206.848267,111.974205 206.848724,118.414368 206.848175,124.854523 
	C206.847519,132.586151 207.087692,132.819275 215.102051,132.840088 
	C216.267365,132.843109 217.432663,132.840500 219.078400,132.840454 
z"/>
<path fill="#005482" opacity="1.000000" stroke="none" 
	d="
M33.074173,108.490799 
	C33.459076,115.717018 33.963169,123.399666 33.898224,131.077499 
	C33.868660,134.572418 34.749592,136.359238 38.651493,136.541565 
	C37.149609,136.925735 35.355415,137.067688 32.961063,137.257095 
	C32.961063,127.645981 32.961063,118.295616 33.074173,108.490799 
z"/>
<path fill="#005180" opacity="1.000000" stroke="none" 
	d="
M75.461761,137.008453 
	C76.510254,136.389236 78.004166,135.851776 80.309998,135.022232 
	C80.309998,126.757904 80.309998,118.214088 80.576096,109.356888 
	C80.842201,118.252960 80.842201,127.462425 80.842201,137.090225 
	C79.087105,137.090225 77.497147,137.090225 75.461761,137.008453 
z"/>
<path fill="#005180" opacity="1.000000" stroke="none" 
	d="
M119.912643,139.501831 
	C119.561600,134.756775 119.237038,129.551559 119.012993,124.342033 
	C118.907440,121.887711 118.994896,119.425087 118.994896,116.410645 
	C117.132904,116.257401 115.570862,116.128845 113.580894,115.994354 
	C115.205635,115.507164 117.258301,115.025909 119.980331,114.387711 
	C119.980331,123.063210 119.980331,131.051559 119.912643,139.501831 
z"/>
<path fill="#00507F" opacity="1.000000" stroke="none" 
	d="
M87.266403,146.410828 
	C94.531891,146.100235 101.930222,146.204727 109.640800,146.576355 
	C102.435120,146.837616 94.917183,146.831757 87.266403,146.410828 
z"/>
<path fill="#E59118" opacity="1.000000" stroke="none" 
	d="
M237.967773,134.928925 
	C237.967773,134.928925 237.527039,134.990768 237.279694,134.963852 
	C237.032333,134.936935 237.095123,134.998123 237.036530,134.600311 
	C236.920074,133.136169 236.862213,132.069855 236.804367,131.003540 
	C237.643402,129.792587 238.482422,128.581650 240.053482,126.314186 
	C240.053482,129.765244 240.053482,132.016434 239.964691,134.311157 
	C239.434540,134.049866 238.993179,133.745041 238.551819,133.440201 
	C238.357132,133.936432 238.162445,134.432678 237.967773,134.928925 
M238.737305,130.670593 
	C238.878647,131.058533 239.019989,131.446472 239.161316,131.834412 
	C239.272675,131.444412 239.384033,131.054428 238.737305,130.670593 
z"/>
<path fill="#FFFFFE" opacity="1.000000" stroke="none" 
	d="
M238.075653,135.133514 
	C238.162445,134.432678 238.357132,133.936432 238.551819,133.440201 
	C238.993179,133.745041 239.434540,134.049866 239.937790,134.709259 
	C239.394318,135.155258 238.788925,135.246674 238.075653,135.133514 
z"/>
<path fill="#F4D6B5" opacity="1.000000" stroke="none" 
	d="
M237.064499,134.907150 
	C236.426590,135.203339 235.756500,135.529327 235.086426,135.855316 
	C235.203781,135.184357 235.321152,134.513397 235.830658,134.096161 
	C236.513565,134.565964 236.804352,134.782043 237.095123,134.998123 
	C237.095123,134.998123 237.032333,134.936935 237.064499,134.907150 
z"/>
<path fill="#FFFFFF" opacity="1.000000" stroke="none" 
	d="
M237.036530,134.600311 
	C236.804352,134.782043 236.513565,134.565964 236.126923,134.082306 
	C236.015640,133.389633 236.000229,132.964554 235.954010,132.014053 
	C235.923187,131.488632 235.863068,131.078354 235.863068,131.078354 
	C235.863068,131.078354 236.333328,131.036072 236.568848,131.019806 
	C236.862213,132.069855 236.920074,133.136169 237.036530,134.600311 
z"/>
<path fill="#F4D6B5" opacity="1.000000" stroke="none" 
	d="
M235.726837,131.165497 
	C235.863068,131.078354 235.923187,131.488632 235.942276,131.694000 
	C235.961365,131.899384 235.554108,131.670776 235.554108,131.670776 
	C235.554108,131.670776 235.590622,131.252625 235.726837,131.165497 
z"/>
<path fill="#00507F" opacity="1.000000" stroke="none" 
	d="
M87.162048,143.264572 
	C87.627663,143.279556 87.679375,143.545639 87.287643,143.912018 
	C87.105820,143.818207 87.073807,143.652649 87.162048,143.264572 
z"/>
<path fill="#FEFCF9" opacity="1.000000" stroke="none" 
	d="
M168.137894,119.121452 
	C168.142288,109.968468 168.159317,109.960556 176.674194,109.934021 
	C190.925446,109.889610 188.886948,109.352455 188.992752,122.234650 
	C189.018845,125.409927 188.996643,128.585602 188.996643,131.712204 
	C183.915894,129.787460 179.986725,128.298981 176.057556,126.810486 
	C175.805908,127.281479 175.554260,127.752472 175.302612,128.223465 
	C176.462540,129.587708 177.622467,130.951965 178.905640,132.461151 
	C169.064667,133.643906 168.138855,132.850327 168.137848,123.580704 
	C168.137711,122.251152 168.137863,120.921593 168.137894,119.121452 
z"/>
<path fill="#FFFEFE" opacity="1.000000" stroke="none" 
	d="
M239.116348,130.667511 
	C239.384033,131.054428 239.272675,131.444412 239.161316,131.834412 
	C239.019989,131.446472 238.878647,131.058533 239.116348,130.667511 
z"/>
</svg>