<svg version="1.1" id="Layer_1" xmlns="http://www.w3.org/2000/svg" xmlns:xlink="http://www.w3.org/1999/xlink" x="0px" y="0px"
	 width="100%" viewBox="0 0 512 512" enable-background="new 0 0 512 512" xml:space="preserve">
<path fill="#000000" opacity="1.000000" stroke="none" 
	d="
M513.000000,195.000000 
	C513.000000,300.955017 513.000000,406.910034 513.000000,512.932495 
	C342.450775,512.932495 171.901505,512.932495 1.000000,512.932495 
	C1.000000,448.978424 1.000000,384.956177 1.334404,320.300110 
	C7.786519,327.782196 16.318933,328.187622 25.599478,328.128448 
	C70.567833,327.841858 115.539017,327.999176 160.509201,327.999176 
	C162.583939,327.999176 164.658691,327.999176 166.615936,327.999176 
	C166.615936,343.798401 166.615936,358.702606 166.615936,374.126312 
	C151.661377,374.126312 137.084320,374.126312 122.476456,374.126312 
	C122.476456,377.686707 122.476456,380.707733 122.476456,383.660339 
	C155.179794,383.660339 187.417618,383.660339 219.776123,383.660339 
	C219.868164,382.520691 219.972885,381.709320 219.993225,380.895844 
	C220.164597,374.040894 220.132156,374.008270 213.184158,374.002441 
	C206.355362,373.996735 199.526550,374.001129 192.697754,374.001099 
	C187.268600,374.001068 181.839447,374.001099 176.308868,374.001099 
	C176.308868,358.355194 176.308868,343.452332 176.308868,328.081360 
	C218.040634,328.081360 259.465454,328.081360 300.938324,328.543274 
	C300.979248,335.992828 300.972107,342.980469 300.666321,350.123779 
	C297.577240,353.525574 294.461731,356.548462 292.052704,360.056519 
	C281.724945,375.095825 278.686646,391.762085 281.993744,409.563995 
	C287.091156,437.002930 310.135559,458.103851 339.130646,459.845459 
	C356.439728,460.885101 371.856079,455.374329 384.573608,443.000183 
	C402.862946,425.204651 408.663971,403.851471 401.958374,379.544434 
	C399.700806,371.361145 394.780670,363.912415 391.467682,356.245667 
	C395.008911,356.319458 398.302734,356.857269 401.284912,356.125275 
	C411.296478,353.667877 415.951874,345.312042 421.177917,337.157898 
	C422.919983,334.908600 424.371735,332.877747 426.044861,330.526917 
	C430.655548,324.089966 435.044861,317.972992 439.655212,311.644958 
	C441.231567,309.373444 442.586884,307.313019 444.260742,305.079102 
	C448.882111,298.547882 453.184937,292.190186 457.711975,285.631165 
	C459.309174,283.319977 460.682159,281.210083 462.374512,278.960846 
	C467.225708,272.315521 471.694275,265.764069 476.318848,259.324646 
	C478.320892,256.536957 480.326508,253.383942 484.449921,257.013245 
	C487.154266,259.393524 489.378143,257.817810 490.922852,255.260300 
	C492.426819,252.770187 492.664124,250.386765 489.854584,248.416367 
	C483.881866,244.227600 477.972076,239.949127 472.001282,235.682297 
	C482.140930,221.347748 492.153381,207.193008 502.428406,192.667068 
	C505.348785,197.801575 509.303070,195.617096 513.000000,195.000000 
z"/>
<path fill="#0895FF" opacity="1.000000" stroke="none" 
	d="
M1.000000,275.000000 
	C1.000000,204.645767 1.000000,134.291550 1.238540,63.804417 
	C6.544987,56.152081 13.667522,53.869350 22.585608,53.884926 
	C125.411888,54.064568 228.238586,53.997417 331.065186,54.002628 
	C342.461487,54.003208 348.995178,60.567814 349.000580,71.959175 
	C349.031036,135.953781 349.062775,199.948395 348.790649,264.152100 
	C335.325745,263.163116 323.440948,266.250732 312.724670,274.824219 
	C311.579285,274.754425 310.913605,274.712280 310.247925,274.712250 
	C208.656693,274.707733 107.065460,274.704956 5.474230,274.716888 
	C3.982809,274.717072 2.491410,274.901550 1.000000,275.000000 
M233.500000,105.048347 
	C209.048080,105.048347 184.596176,105.048347 159.841156,105.048347 
	C159.841156,107.999222 159.841156,110.543816 159.841156,113.154686 
	C210.364990,113.154686 260.532318,113.154686 310.663208,113.154686 
	C310.663208,110.305199 310.663208,107.885895 310.663208,105.048355 
	C285.064362,105.048355 259.782166,105.048355 233.500000,105.048347 
M190.500000,160.035278 
	C179.743729,160.035278 168.987457,160.035278 158.304321,160.035278 
	C158.304321,163.153336 158.304321,165.576111 158.304321,167.988312 
	C199.301331,167.988312 239.985474,167.988312 280.657532,167.988312 
	C280.657532,165.188126 280.657532,162.784363 280.657532,160.035278 
	C250.723892,160.035278 221.111938,160.035278 190.500000,160.035278 
M170.499954,220.842529 
	C180.600113,220.842529 190.700287,220.842529 201.006042,220.842529 
	C201.006042,217.746719 201.006042,215.177521 201.006042,212.502396 
	C166.973465,212.502396 133.270142,212.502396 99.369537,212.502396 
	C99.369537,215.328384 99.369537,217.865524 99.369537,220.842514 
	C122.974609,220.842514 146.237274,220.842514 170.499954,220.842529 
M274.499969,220.845261 
	C285.088013,220.845261 295.676086,220.845261 306.394104,220.845261 
	C306.394104,217.668594 306.394104,215.142807 306.394104,212.616318 
	C277.816986,212.616318 249.652130,212.616318 221.457245,212.616318 
	C221.457245,215.449448 221.457245,217.869080 221.457245,220.845245 
	C239.006714,220.845245 256.253326,220.845245 274.499969,220.845261 
M86.526047,168.392990 
	C100.907112,168.392990 115.288177,168.392990 129.556061,168.392990 
	C129.556061,165.149002 129.556061,162.745926 129.556061,160.435242 
	C110.672394,160.435242 92.151245,160.435242 73.732773,160.435242 
	C73.732773,163.240967 73.732773,165.633484 73.732773,168.392838 
	C77.935104,168.392838 81.737495,168.392838 86.526047,168.392990 
M62.556931,101.990776 
	C60.595535,101.189262 58.634144,100.387749 56.244900,99.411400 
	C55.493996,101.749268 54.875317,103.675453 54.277069,105.538033 
	C57.932232,107.160088 61.016365,108.528732 64.754585,110.187645 
	C60.709160,111.909431 57.550861,113.253647 54.189308,114.684364 
	C54.932163,116.884094 55.551853,118.719109 56.285946,120.892906 
	C61.669857,118.575783 66.777153,116.613808 71.622337,114.138702 
	C72.956787,113.457008 74.169815,111.262909 74.214165,109.727417 
	C74.250687,108.463081 72.735672,106.709053 71.449203,105.945473 
	C68.896385,104.430237 66.027016,103.448311 62.556931,101.990776 
M31.671869,168.024185 
	C31.568167,170.254807 31.464462,172.485443 31.327852,175.423889 
	C37.707054,172.671906 42.758129,170.570938 47.738712,168.314392 
	C50.633904,167.002686 51.555824,162.075500 49.022629,160.822205 
	C43.606903,158.142776 37.946510,155.957855 32.039520,153.421448 
	C31.288893,156.006332 30.759132,157.830627 30.212261,159.713837 
	C33.735657,161.241333 36.884281,162.606354 40.849575,164.325409 
	C37.459732,165.710907 34.916653,166.750305 31.671869,168.024185 
M55.042961,209.542450 
	C52.186981,208.340729 49.331001,207.138992 46.088638,205.774689 
	C45.326729,208.052902 44.683903,209.975052 44.006996,211.999100 
	C47.718628,213.539703 50.897030,214.858994 54.913815,216.526260 
	C50.859756,218.192947 47.585136,219.539200 43.958939,221.029984 
	C44.754391,223.284927 45.430027,225.200211 46.169853,227.297470 
	C51.703720,224.933243 56.795708,222.958786 61.664848,220.536407 
	C62.884418,219.929688 64.042969,217.879349 64.035545,216.498901 
	C64.028137,215.119492 62.816509,213.343033 61.606472,212.470749 
	C59.906147,211.245026 57.719917,210.693359 55.042961,209.542450 
M130.433319,106.940437 
	C122.028732,106.480835 113.624138,106.021240 105.190399,105.560043 
	C105.190399,109.007317 105.190399,111.405396 105.190399,113.926498 
	C113.687775,113.926498 121.876755,113.926498 130.579834,113.926498 
	C130.579834,111.706207 130.579834,109.763680 130.433319,106.940437 
z"/>
<path fill="#000000" opacity="1.000000" stroke="none" 
	d="
M349.094086,263.942993 
	C349.062775,199.948395 349.031036,135.953781 349.000580,71.959175 
	C348.995178,60.567814 342.461487,54.003208 331.065186,54.002628 
	C228.238586,53.997417 125.411888,54.064568 22.585608,53.884926 
	C13.667522,53.869350 6.544987,56.152081 1.238540,63.335758 
	C1.000000,42.345226 1.000000,21.690456 1.000000,1.017842 
	C171.556534,1.017842 342.113068,1.017842 513.000000,1.017842 
	C513.000000,62.687168 513.000000,124.374924 512.761169,186.871841 
	C502.380280,180.322617 492.277039,172.909409 482.047424,165.674789 
	C480.760193,164.764420 478.236694,163.945663 477.293854,164.580734 
	C475.758667,165.614777 474.144470,167.928513 474.228058,169.619919 
	C474.335846,171.800934 476.083588,173.900864 477.643402,177.098206 
	C468.532043,190.016235 458.657257,204.016678 448.944031,217.788071 
	C442.573578,213.326675 436.328644,209.442627 430.692993,204.816376 
	C427.492462,202.189072 425.637817,202.995911 423.902588,205.738297 
	C422.137909,208.527115 422.323120,211.365143 425.138519,213.575485 
	C426.363922,214.537552 427.678040,215.386612 428.773132,216.160645 
	C412.078796,239.725723 395.597321,262.990356 379.194153,286.144409 
	C376.657074,282.714447 374.614746,279.575714 372.197174,276.759094 
	C366.105194,269.661469 357.688538,266.609131 349.094086,263.942993 
z"/>
<path fill="#394C98" opacity="1.000000" stroke="none" 
	d="
M1.000000,275.468658 
	C2.491410,274.901550 3.982809,274.717072 5.474230,274.716888 
	C107.065460,274.704956 208.656693,274.707733 310.247925,274.712250 
	C310.913605,274.712280 311.579285,274.754425 312.528137,275.118896 
	C304.523010,283.630859 300.907440,293.600983 301.076874,305.158051 
	C301.188873,312.796600 300.964203,320.440094 300.890289,328.081360 
	C259.465454,328.081360 218.040634,328.081360 176.308868,328.081360 
	C176.308868,343.452332 176.308868,358.355194 176.308868,374.001099 
	C181.839447,374.001099 187.268600,374.001068 192.697754,374.001099 
	C199.526550,374.001129 206.355362,373.996735 213.184158,374.002441 
	C220.132156,374.008270 220.164597,374.040894 219.993225,380.895844 
	C219.972885,381.709320 219.868164,382.520691 219.776123,383.660339 
	C187.417618,383.660339 155.179794,383.660339 122.476456,383.660339 
	C122.476456,380.707733 122.476456,377.686707 122.476456,374.126312 
	C137.084320,374.126312 151.661377,374.126312 166.615936,374.126312 
	C166.615936,358.702606 166.615936,343.798401 166.615936,327.999176 
	C164.658691,327.999176 162.583939,327.999176 160.509201,327.999176 
	C115.539017,327.999176 70.567833,327.841858 25.599478,328.128448 
	C16.318933,328.187622 7.786519,327.782196 1.334404,319.833130 
	C1.000000,305.312439 1.000000,290.624878 1.000000,275.468658 
M288.523376,293.665955 
	C287.098785,293.767334 285.674225,293.868713 284.147522,293.977356 
	C284.147522,296.721924 284.147522,299.118347 284.147522,301.593140 
	C287.896149,301.593140 291.390930,301.593140 294.711487,301.593140 
	C294.711487,298.790588 294.711487,296.381470 294.711487,293.665680 
	C292.755920,293.665680 291.124329,293.665680 288.523376,293.665955 
z"/>
<path fill="#45B0FF" opacity="1.000000" stroke="none" 
	d="
M300.938324,328.543274 
	C300.964203,320.440094 301.188873,312.796600 301.076874,305.158051 
	C300.907440,293.600983 304.523010,283.630859 313.007874,275.166199 
	C323.440948,266.250732 335.325745,263.163116 348.790649,264.152100 
	C357.688538,266.609131 366.105194,269.661469 372.197174,276.759094 
	C374.614746,279.575714 376.657074,282.714447 379.194153,286.144409 
	C395.597321,262.990356 412.078796,239.725723 428.773132,216.160645 
	C427.678040,215.386612 426.363922,214.537552 425.138519,213.575485 
	C422.323120,211.365143 422.137909,208.527115 423.902588,205.738297 
	C425.637817,202.995911 427.492462,202.189072 430.692993,204.816376 
	C436.328644,209.442627 442.573578,213.326675 448.944031,217.788071 
	C458.657257,204.016678 468.532043,190.016235 477.643402,177.098206 
	C476.083588,173.900864 474.335846,171.800934 474.228058,169.619919 
	C474.144470,167.928513 475.758667,165.614777 477.293854,164.580734 
	C478.236694,163.945663 480.760193,164.764420 482.047424,165.674789 
	C492.277039,172.909409 502.380280,180.322617 512.761169,187.340500 
	C513.000000,189.370560 513.000000,191.741104 513.000000,194.555832 
	C509.303070,195.617096 505.348785,197.801575 502.428406,192.667068 
	C492.153381,207.193008 482.140930,221.347748 472.001282,235.682297 
	C477.972076,239.949127 483.881866,244.227600 489.854584,248.416367 
	C492.664124,250.386765 492.426819,252.770187 490.922852,255.260300 
	C489.378143,257.817810 487.154266,259.393524 484.449921,257.013245 
	C480.326508,253.383942 478.320892,256.536957 476.318848,259.324646 
	C471.694275,265.764069 467.225708,272.315521 462.208618,278.662354 
	C456.582642,274.694305 451.441925,270.885437 445.963959,266.826660 
	C444.231995,269.329376 442.798370,271.400970 441.234222,273.661163 
	C446.933960,277.929352 452.210846,281.880890 457.487732,285.832458 
	C453.184937,292.190186 448.882111,298.547882 444.082642,304.784668 
	C438.332855,300.692932 433.079742,296.722168 427.499146,292.503845 
	C425.698120,295.035126 424.222260,297.109406 422.633759,299.341949 
	C428.562683,303.758179 433.998413,307.807098 439.434143,311.856018 
	C435.044861,317.972992 430.655548,324.089966 425.713501,330.347717 
	C419.823547,326.661835 414.486298,322.835175 408.965332,318.876770 
	C407.201935,321.375732 405.809845,323.348480 404.110901,325.756042 
	C410.009338,329.841553 415.448486,333.608948 420.887634,337.376343 
	C415.951874,345.312042 411.296478,353.667877 401.284912,356.125275 
	C398.302734,356.857269 395.008911,356.319458 391.152954,356.090881 
	C388.943939,354.860779 387.439819,353.903290 385.766113,352.837799 
	C384.878906,353.804993 384.000824,354.548828 383.384949,355.468292 
	C379.531860,361.220734 375.172180,366.202118 367.786774,367.443665 
	C366.791077,367.611053 366.032440,369.188385 364.927582,370.267944 
	C360.085754,376.961395 355.480316,383.499725 350.550964,390.105042 
	C348.154907,390.123810 345.599487,390.782684 344.164795,389.802002 
	C343.033264,389.028534 343.281433,386.236603 343.226227,384.167542 
	C348.207855,377.701752 352.880066,371.409607 357.824585,364.894958 
	C358.373871,364.098633 359.018616,363.401184 358.873413,362.969330 
	C356.094910,354.703705 358.884705,347.810425 363.781830,341.247894 
	C364.485443,340.305023 363.876892,338.382965 363.804871,336.577850 
	C358.214508,330.666107 356.856110,321.850037 360.958588,313.646301 
	C363.404236,308.755768 367.033661,304.467987 369.669159,299.656342 
	C370.745911,297.690430 371.559235,294.708893 370.860321,292.781128 
	C365.799164,278.821136 348.685760,269.125366 331.969849,274.460297 
	C319.453400,278.454956 310.471924,289.387665 310.112274,300.989136 
	C309.679626,314.947174 310.079346,328.930969 309.969116,343.214966 
	C306.868042,345.673584 303.916504,347.820831 300.964966,349.968079 
	C300.972107,342.980469 300.979248,335.992828 300.938324,328.543274 
z"/>
<path fill="#3A4D98" opacity="1.000000" stroke="none" 
	d="
M300.666321,350.123779 
	C303.916504,347.820831 306.868042,345.673584 310.292664,343.100342 
	C321.485016,336.279297 333.031158,332.966217 345.538422,334.075958 
	C351.686371,334.621399 357.765381,335.943451 363.875610,336.914062 
	C363.876892,338.382965 364.485443,340.305023 363.781830,341.247894 
	C358.884705,347.810425 356.094910,354.703705 358.873413,362.969330 
	C359.018616,363.401184 358.373871,364.098633 357.443481,364.729645 
	C342.746277,358.923126 328.335938,361.596985 318.147552,371.957062 
	C307.955200,382.321167 305.146484,397.927094 311.072998,411.265228 
	C316.856598,424.281738 330.052216,432.769867 344.155731,431.864441 
	C358.818970,430.923065 369.129211,423.246674 374.707916,409.744141 
	C380.400574,395.965881 376.650238,381.281342 365.164001,370.112823 
	C366.032440,369.188385 366.791077,367.611053 367.786774,367.443665 
	C375.172180,366.202118 379.531860,361.220734 383.384949,355.468292 
	C384.000824,354.548828 384.878906,353.804993 385.766113,352.837799 
	C387.439819,353.903290 388.943939,354.860779 390.762756,355.973114 
	C394.780670,363.912415 399.700806,371.361145 401.958374,379.544434 
	C408.663971,403.851471 402.862946,425.204651 384.573608,443.000183 
	C371.856079,455.374329 356.439728,460.885101 339.130646,459.845459 
	C310.135559,458.103851 287.091156,437.002930 281.993744,409.563995 
	C278.686646,391.762085 281.724945,375.095825 292.052704,360.056519 
	C294.461731,356.548462 297.577240,353.525574 300.666321,350.123779 
z"/>
<path fill="#F5FBFF" opacity="1.000000" stroke="none" 
	d="
M439.655212,311.644958 
	C433.998413,307.807098 428.562683,303.758179 422.633759,299.341949 
	C424.222260,297.109406 425.698120,295.035126 427.499146,292.503845 
	C433.079742,296.722168 438.332855,300.692932 443.764099,304.958130 
	C442.586884,307.313019 441.231567,309.373444 439.655212,311.644958 
z"/>
<path fill="#F5FBFF" opacity="1.000000" stroke="none" 
	d="
M457.711975,285.631165 
	C452.210846,281.880890 446.933960,277.929352 441.234222,273.661163 
	C442.798370,271.400970 444.231995,269.329376 445.963959,266.826660 
	C451.441925,270.885437 456.582642,274.694305 461.889221,278.801697 
	C460.682159,281.210083 459.309174,283.319977 457.711975,285.631165 
z"/>
<path fill="#F7FBFF" opacity="1.000000" stroke="none" 
	d="
M421.177917,337.157898 
	C415.448486,333.608948 410.009338,329.841553 404.110901,325.756042 
	C405.809845,323.348480 407.201935,321.375732 408.965332,318.876770 
	C414.486298,322.835175 419.823547,326.661835 425.492157,330.667725 
	C424.371735,332.877747 422.919983,334.908600 421.177917,337.157898 
z"/>
<path fill="#EDF7FF" opacity="1.000000" stroke="none" 
	d="
M234.000000,105.048355 
	C259.782166,105.048355 285.064362,105.048355 310.663208,105.048355 
	C310.663208,107.885895 310.663208,110.305199 310.663208,113.154686 
	C260.532318,113.154686 210.364990,113.154686 159.841156,113.154686 
	C159.841156,110.543816 159.841156,107.999222 159.841156,105.048347 
	C184.596176,105.048347 209.048080,105.048347 234.000000,105.048355 
z"/>
<path fill="#FDFEFF" opacity="1.000000" stroke="none" 
	d="
M191.000000,160.035278 
	C221.111938,160.035278 250.723892,160.035278 280.657532,160.035278 
	C280.657532,162.784363 280.657532,165.188126 280.657532,167.988312 
	C239.985474,167.988312 199.301331,167.988312 158.304321,167.988312 
	C158.304321,165.576111 158.304321,163.153336 158.304321,160.035278 
	C168.987457,160.035278 179.743729,160.035278 191.000000,160.035278 
z"/>
<path fill="#EDF7FF" opacity="1.000000" stroke="none" 
	d="
M169.999939,220.842529 
	C146.237274,220.842514 122.974609,220.842514 99.369537,220.842514 
	C99.369537,217.865524 99.369537,215.328384 99.369537,212.502396 
	C133.270142,212.502396 166.973465,212.502396 201.006042,212.502396 
	C201.006042,215.177521 201.006042,217.746719 201.006042,220.842529 
	C190.700287,220.842529 180.600113,220.842529 169.999939,220.842529 
z"/>
<path fill="#ECF7FF" opacity="1.000000" stroke="none" 
	d="
M273.999939,220.845245 
	C256.253326,220.845245 239.006714,220.845245 221.457245,220.845245 
	C221.457245,217.869080 221.457245,215.449448 221.457245,212.616318 
	C249.652130,212.616318 277.816986,212.616318 306.394104,212.616318 
	C306.394104,215.142807 306.394104,217.668594 306.394104,220.845261 
	C295.676086,220.845261 285.088013,220.845261 273.999939,220.845245 
z"/>
<path fill="#FAFDFF" opacity="1.000000" stroke="none" 
	d="
M86.032959,168.392914 
	C81.737495,168.392838 77.935104,168.392838 73.732773,168.392838 
	C73.732773,165.633484 73.732773,163.240967 73.732773,160.435242 
	C92.151245,160.435242 110.672394,160.435242 129.556061,160.435242 
	C129.556061,162.745926 129.556061,165.149002 129.556061,168.392990 
	C115.288177,168.392990 100.907112,168.392990 86.032959,168.392914 
z"/>
<path fill="#F3FAFF" opacity="1.000000" stroke="none" 
	d="
M62.922699,102.118378 
	C66.027016,103.448311 68.896385,104.430237 71.449203,105.945473 
	C72.735672,106.709053 74.250687,108.463081 74.214165,109.727417 
	C74.169815,111.262909 72.956787,113.457008 71.622337,114.138702 
	C66.777153,116.613808 61.669857,118.575783 56.285946,120.892906 
	C55.551853,118.719109 54.932163,116.884094 54.189308,114.684364 
	C57.550861,113.253647 60.709160,111.909431 64.754585,110.187645 
	C61.016365,108.528732 57.932232,107.160088 54.277069,105.538033 
	C54.875317,103.675453 55.493996,101.749268 56.244900,99.411400 
	C58.634144,100.387749 60.595535,101.189262 62.922699,102.118378 
z"/>
<path fill="#F5FBFF" opacity="1.000000" stroke="none" 
	d="
M32.022720,167.906952 
	C34.916653,166.750305 37.459732,165.710907 40.849575,164.325409 
	C36.884281,162.606354 33.735657,161.241333 30.212261,159.713837 
	C30.759132,157.830627 31.288893,156.006332 32.039520,153.421448 
	C37.946510,155.957855 43.606903,158.142776 49.022629,160.822205 
	C51.555824,162.075500 50.633904,167.002686 47.738712,168.314392 
	C42.758129,170.570938 37.707054,172.671906 31.327852,175.423889 
	C31.464462,172.485443 31.568167,170.254807 32.022720,167.906952 
z"/>
<path fill="#F5FBFF" opacity="1.000000" stroke="none" 
	d="
M55.392227,209.697937 
	C57.719917,210.693359 59.906147,211.245026 61.606472,212.470749 
	C62.816509,213.343033 64.028137,215.119492 64.035545,216.498901 
	C64.042969,217.879349 62.884418,219.929688 61.664848,220.536407 
	C56.795708,222.958786 51.703720,224.933243 46.169853,227.297470 
	C45.430027,225.200211 44.754391,223.284927 43.958939,221.029984 
	C47.585136,219.539200 50.859756,218.192947 54.913815,216.526260 
	C50.897030,214.858994 47.718628,213.539703 44.006996,211.999100 
	C44.683903,209.975052 45.326729,208.052902 46.088638,205.774689 
	C49.331001,207.138992 52.186981,208.340729 55.392227,209.697937 
z"/>
<path fill="#FBFDFF" opacity="1.000000" stroke="none" 
	d="
M130.506577,107.380798 
	C130.579834,109.763680 130.579834,111.706207 130.579834,113.926498 
	C121.876755,113.926498 113.687775,113.926498 105.190399,113.926498 
	C105.190399,111.405396 105.190399,109.007317 105.190399,105.560043 
	C113.624138,106.021240 122.028732,106.480835 130.506577,107.380798 
z"/>
<path fill="#FDFDFE" opacity="1.000000" stroke="none" 
	d="
M289.008057,293.665833 
	C291.124329,293.665680 292.755920,293.665680 294.711487,293.665680 
	C294.711487,296.381470 294.711487,298.790588 294.711487,301.593140 
	C291.390930,301.593140 287.896149,301.593140 284.147522,301.593140 
	C284.147522,299.118347 284.147522,296.721924 284.147522,293.977356 
	C285.674225,293.868713 287.098785,293.767334 289.008057,293.665833 
z"/>
<path fill="#FDFDFE" opacity="1.000000" stroke="none" 
	d="
M364.927582,370.267944 
	C376.650238,381.281342 380.400574,395.965881 374.707916,409.744141 
	C369.129211,423.246674 358.818970,430.923065 344.155731,431.864441 
	C330.052216,432.769867 316.856598,424.281738 311.072998,411.265228 
	C305.146484,397.927094 307.955200,382.321167 318.147552,371.957062 
	C328.335938,361.596985 342.746277,358.923126 357.171204,364.952148 
	C352.880066,371.409607 348.207855,377.701752 342.867310,384.138824 
	C333.928284,384.902832 331.783264,394.051697 335.448273,399.234131 
	C337.010132,401.442719 337.602631,404.417542 338.294495,407.131104 
	C338.725189,408.820343 338.517273,410.672333 338.599365,412.528442 
	C341.500153,412.528442 343.915161,412.528442 346.774994,412.528442 
	C346.661835,406.733521 346.509644,401.250183 350.796600,396.673706 
	C351.912384,395.482574 350.906403,392.303894 350.874878,390.038086 
	C355.480316,383.499725 360.085754,376.961395 364.927582,370.267944 
z"/>
<path fill="#000000" opacity="1.000000" stroke="none" 
	d="
M363.804871,336.577820 
	C357.765381,335.943451 351.686371,334.621399 345.538422,334.075958 
	C333.031158,332.966217 321.485016,336.279297 310.442230,342.789001 
	C310.079346,328.930969 309.679626,314.947174 310.112274,300.989136 
	C310.471924,289.387665 319.453400,278.454956 331.969849,274.460297 
	C348.685760,269.125366 365.799164,278.821136 370.860321,292.781128 
	C371.559235,294.708893 370.745911,297.690430 369.669159,299.656342 
	C367.033661,304.467987 363.404236,308.755768 360.958588,313.646301 
	C356.856110,321.850037 358.214508,330.666107 363.804871,336.577820 
z"/>
<path fill="#129AFF" opacity="1.000000" stroke="none" 
	d="
M350.550964,390.105042 
	C350.906403,392.303894 351.912384,395.482574 350.796600,396.673706 
	C346.509644,401.250183 346.661835,406.733521 346.774994,412.528442 
	C343.915161,412.528442 341.500153,412.528442 338.599365,412.528442 
	C338.517273,410.672333 338.725189,408.820343 338.294495,407.131104 
	C337.602631,404.417542 337.010132,401.442719 335.448273,399.234131 
	C331.783264,394.051697 333.928284,384.902832 342.557922,384.312439 
	C343.281433,386.236603 343.033264,389.028534 344.164795,389.802002 
	C345.599487,390.782684 348.154907,390.123810 350.550964,390.105042 
z"/>
</svg>