<?xml version="1.0" standalone="no"?>
<!DOCTYPE svg PUBLIC "-//W3C//DTD SVG 20010904//EN"
 "http://www.w3.org/TR/2001/REC-SVG-20010904/DTD/svg10.dtd">
<svg version="1.0" xmlns="http://www.w3.org/2000/svg"
 width="512.000000pt" height="512.000000pt" viewBox="0 0 512.000000 512.000000"
 preserveAspectRatio="xMidYMid meet">

<g transform="translate(0.000000,512.000000) scale(0.100000,-0.100000)"
fill="#000000" stroke="none">
<path d="M585 4935 l-25 -24 0 -2351 0 -2351 25 -24 24 -25 1951 0 1951 0 24
25 25 24 0 2351 0 2351 -25 24 -24 25 -1951 0 -1951 0 -24 -25z m3815 -2375
l0 -2240 -1840 0 -1840 0 0 2240 0 2240 1840 0 1840 0 0 -2240z"/>
<path d="M2345 4615 c-22 -21 -25 -33 -25 -100 l0 -76 -36 -15 -36 -15 -58 55
c-86 82 -87 82 -247 -76 -74 -73 -136 -143 -140 -156 -8 -32 9 -64 61 -120 43
-46 44 -48 31 -80 l-14 -32 -76 0 c-67 0 -79 -3 -100 -25 -25 -24 -25 -26 -25
-215 0 -189 0 -191 25 -215 21 -22 33 -25 100 -25 l76 0 15 -36 15 -36 -55
-58 c-82 -86 -82 -87 76 -247 73 -74 143 -136 156 -140 32 -8 64 9 120 61 46
43 48 44 80 31 l32 -14 0 -76 c0 -67 3 -79 25 -100 20 -21 34 -25 80 -25 l55
0 0 -160 0 -160 -495 0 -496 0 -24 -25 c-25 -24 -25 -27 -25 -200 l0 -175 -95
0 c-88 0 -98 -2 -120 -25 l-25 -24 0 -271 0 -271 25 -24 c22 -23 32 -25 120
-25 l95 0 0 -120 0 -120 -175 0 c-173 0 -176 0 -200 -25 -24 -23 -25 -29 -25
-160 l0 -135 -55 0 c-46 0 -60 -4 -80 -25 -25 -24 -25 -26 -25 -215 0 -257
-17 -240 240 -240 257 0 240 -17 240 240 0 189 0 191 -25 215 -20 21 -34 25
-80 25 l-55 0 0 80 0 80 320 0 320 0 0 -80 0 -80 -55 0 c-46 0 -60 -4 -80 -25
-25 -24 -25 -26 -25 -215 0 -257 -17 -240 240 -240 257 0 240 -17 240 240 0
189 0 191 -25 215 -20 21 -34 25 -80 25 l-55 0 0 135 c0 131 -1 137 -25 160
-24 25 -27 25 -200 25 l-175 0 0 120 0 120 95 0 c88 0 98 2 120 25 l25 24 0
271 0 271 -25 24 c-22 23 -32 25 -120 25 l-95 0 0 120 0 120 960 0 960 0 0
-120 0 -120 -95 0 c-88 0 -98 -2 -120 -25 l-25 -24 0 -271 0 -271 25 -24 c22
-23 32 -25 120 -25 l95 0 0 -120 0 -120 -175 0 c-173 0 -176 0 -200 -25 -24
-23 -25 -29 -25 -160 l0 -135 -55 0 c-46 0 -60 -4 -80 -25 -25 -24 -25 -26
-25 -215 0 -257 -17 -240 240 -240 257 0 240 -17 240 240 0 189 0 191 -25 215
-20 21 -34 25 -80 25 l-55 0 0 80 0 80 320 0 320 0 0 -80 0 -80 -55 0 c-46 0
-60 -4 -80 -25 -25 -24 -25 -26 -25 -215 0 -257 -17 -240 240 -240 257 0 240
-17 240 240 0 189 0 191 -25 215 -20 21 -34 25 -80 25 l-55 0 0 135 c0 131 -1
137 -25 160 -24 25 -27 25 -200 25 l-175 0 0 120 0 120 95 0 c88 0 98 2 120
25 l25 24 0 271 0 271 -25 24 c-22 23 -32 25 -120 25 l-95 0 0 175 c0 173 0
176 -25 200 l-24 25 -496 0 -495 0 0 160 0 160 55 0 c46 0 60 4 80 25 22 21
25 33 25 100 l0 76 36 15 36 15 58 -55 c86 -82 87 -82 247 76 74 73 136 143
140 156 8 32 -9 64 -61 120 -43 46 -44 48 -31 80 l14 32 76 0 c67 0 79 3 100
25 25 24 25 26 25 215 0 189 0 191 -25 215 -21 22 -33 25 -100 25 l-76 0 -15
36 -15 36 55 58 c82 86 82 87 -76 247 -73 74 -143 136 -156 140 -31 8 -57 -6
-117 -60 -50 -44 -51 -45 -83 -31 l-32 13 0 76 c0 67 -3 79 -25 100 -24 25
-26 25 -215 25 -189 0 -191 0 -215 -25z m295 -170 c0 -80 41 -131 138 -170 92
-37 148 -31 205 23 l28 26 56 -57 57 -56 -26 -28 c-54 -57 -60 -113 -23 -205
39 -97 90 -138 170 -138 l35 0 0 -80 0 -80 -35 0 c-80 0 -131 -41 -170 -138
-37 -92 -31 -148 23 -205 l26 -28 -57 -56 -56 -57 -28 26 c-57 54 -113 60
-205 23 -97 -39 -138 -90 -138 -170 l0 -35 -80 0 -80 0 0 35 c0 80 -41 131
-138 170 -92 37 -148 31 -205 -23 l-28 -26 -56 57 -57 56 26 28 c54 57 60 113
23 205 -39 97 -90 138 -170 138 l-35 0 0 80 0 80 35 0 c80 0 131 41 170 138
37 92 31 148 -23 205 l-26 28 57 56 56 57 28 -26 c57 -54 113 -60 205 -23 97
39 138 90 138 170 l0 35 80 0 80 0 0 -35z m-960 -2605 l0 -160 -160 0 -160 0
0 160 0 160 160 0 160 0 0 -160z m2080 0 l0 -160 -160 0 -160 0 0 160 0 160
160 0 160 0 0 -160z m-2560 -1120 l0 -80 -80 0 -80 0 0 80 0 80 80 0 80 0 0
-80z m800 0 l0 -80 -80 0 -80 0 0 80 0 80 80 0 80 0 0 -80z m1280 0 l0 -80
-80 0 -80 0 0 80 0 80 80 0 80 0 0 -80z m800 0 l0 -80 -80 0 -80 0 0 80 0 80
80 0 80 0 0 -80z"/>
<path d="M2466 4150 c-63 -16 -153 -70 -197 -117 -22 -24 -55 -74 -72 -111
-29 -61 -32 -76 -32 -163 0 -90 2 -99 37 -171 45 -91 103 -147 196 -191 61
-29 76 -32 162 -32 86 0 101 3 162 32 93 44 151 100 196 191 35 72 37 81 37
172 0 91 -2 100 -37 172 -68 136 -188 217 -336 224 -42 2 -94 -1 -116 -6z
m168 -162 c86 -26 166 -136 166 -228 0 -124 -116 -240 -240 -240 -124 0 -240
116 -240 240 0 63 23 114 75 165 70 71 145 90 239 63z"/>
</g>
</svg>
