<svg version="1.1" id="Layer_1" xmlns="http://www.w3.org/2000/svg" xmlns:xlink="http://www.w3.org/1999/xlink" x="0px" y="0px"
	 width="100%" viewBox="0 0 512 512" enable-background="new 0 0 512 512" xml:space="preserve">
<path fill="#000000" opacity="1.000000" stroke="none" 
	d="
M513.000000,282.000000 
	C513.000000,358.966034 513.000000,435.932037 513.000000,512.949036 
	C342.442657,512.949036 171.885300,512.949036 1.000000,512.949036 
	C1.000000,431.978851 1.000000,350.957275 1.287016,269.161713 
	C2.243348,269.300354 3.084632,270.132324 3.556074,271.137726 
	C10.128259,285.153778 21.711607,290.852936 36.573967,290.980255 
	C48.236450,291.080139 59.934910,291.532196 71.549637,290.780670 
	C77.569038,290.391174 84.173027,288.932343 89.235130,285.854797 
	C101.591949,278.342407 107.045563,267.010956 105.108017,252.100235 
	C102.947380,235.472687 88.503639,224.468567 74.304443,224.080994 
	C60.651840,223.708344 46.981098,223.998917 33.318325,224.000839 
	C19.803427,224.002747 8.311083,231.751022 2.974990,244.347931 
	C2.677052,245.051285 1.674561,245.456192 1.000000,246.000000 
	C1.000000,164.369675 1.000000,82.739349 1.000000,1.054513 
	C171.554367,1.054513 342.108765,1.054513 513.000000,1.054513 
	C513.000000,75.021095 513.000000,149.042694 512.551575,223.682312 
	C497.150146,224.200104 482.196747,224.009125 467.244385,224.068604 
	C463.848907,224.082108 460.334961,224.552643 457.084167,225.516449 
	C442.052460,229.973053 431.582123,246.192337 434.093414,261.437347 
	C437.160248,280.054749 449.869446,290.164825 467.876587,290.910950 
	C479.328918,291.385468 490.820251,291.136353 502.285522,290.858917 
	C504.105743,290.814880 506.081757,289.138550 507.626678,287.801880 
	C509.607941,286.087708 511.225677,283.953339 513.000000,282.000000 
M140.498566,265.998871 
	C147.978165,272.478424 156.154510,278.325958 162.755127,285.602814 
	C170.433395,294.067719 179.240463,289.968353 187.986328,289.751465 
	C180.163055,283.140808 172.339783,276.530151 163.723740,269.249634 
	C168.071732,269.055695 171.488678,269.513489 174.534851,268.655304 
	C184.483948,265.852356 192.616364,253.900940 190.904770,244.517059 
	C188.713242,232.501816 180.920151,223.897018 167.741943,223.975143 
	C150.910950,224.074921 134.078934,223.992355 117.247368,224.010132 
	C115.635857,224.011841 114.024506,224.167496 112.402985,224.252197 
	C112.402985,246.669144 112.402985,268.710083 112.402985,290.683258 
	C117.068550,290.683258 121.327904,290.683258 126.195633,290.683258 
	C126.195633,272.326813 126.195633,254.278732 126.195633,236.005310 
	C139.303543,236.005310 151.805969,235.642471 164.275543,236.126236 
	C173.377609,236.479370 177.257874,240.960281 177.026993,246.798233 
	C176.778687,253.076660 171.842667,256.987152 163.835358,256.997559 
	C158.335938,257.004700 152.836502,256.998962 147.337082,256.998962 
	C142.131088,256.998962 136.925095,256.998962 131.719116,256.998962 
	C131.625641,257.378906 131.532166,257.758820 131.438705,258.138763 
	C134.290421,260.589905 137.142151,263.041077 140.498566,265.998871 
M256.362732,278.999573 
	C262.787994,277.564484 265.794312,281.278534 268.259705,286.432129 
	C269.138489,288.269104 271.168182,290.519653 272.934998,290.776581 
	C277.258850,291.405304 281.735718,290.981873 286.403534,290.981873 
	C286.124054,289.773865 286.138397,289.039917 285.808990,288.526520 
	C273.066467,268.666260 260.172546,248.901871 247.580490,228.946945 
	C242.370041,220.689804 233.280823,221.916931 228.919373,229.061691 
	C221.410980,241.361664 213.513672,253.424469 205.762589,265.575958 
	C200.518860,273.796631 195.245987,281.998688 189.479568,290.999847 
	C194.337677,290.999847 198.313446,291.325653 202.194473,290.860657 
	C204.098557,290.632507 206.427979,289.366669 207.526978,287.828735 
	C211.526917,282.231171 215.120041,276.340393 218.808945,270.523651 
	C225.344742,260.217896 231.838379,249.885361 238.453461,239.399475 
	C244.128815,248.568954 249.602524,257.412659 255.518341,266.970642 
	C244.007462,266.970642 233.434250,266.970642 221.958771,266.970642 
	C223.929001,270.113342 225.650238,272.469879 226.954529,275.038208 
	C228.568344,278.216034 230.825165,279.256439 234.406631,279.092987 
	C241.391159,278.774292 248.400528,278.999573 256.362732,278.999573 
M353.923401,287.605713 
	C355.762634,284.682220 357.601868,281.758728 359.967102,277.999176 
	C356.760284,277.999176 354.941345,277.999176 353.122375,277.999176 
	C339.459747,277.999207 325.796722,278.062378 312.134552,277.981873 
	C297.867676,277.897827 288.282684,262.716766 293.742737,249.571213 
	C298.008087,239.302017 306.433350,236.420807 316.231476,236.082123 
	C326.715881,235.719727 337.222687,236.031769 347.719116,235.961060 
	C349.101257,235.951767 351.110138,235.893753 351.747986,235.045578 
	C354.156189,231.843124 356.118378,228.305344 358.804382,224.000641 
	C356.011383,224.000641 354.406891,224.000656 352.802399,224.000641 
	C338.639923,224.000473 324.475647,223.857620 310.315369,224.034195 
	C290.010376,224.287384 277.552765,241.345840 278.187256,258.164185 
	C278.918121,277.537506 292.126740,289.475250 310.867249,290.824188 
	C323.464966,291.730927 336.182343,291.093292 348.841461,290.873657 
	C350.368744,290.847137 351.866425,289.113190 353.923401,287.605713 
M427.420471,278.000977 
	C411.032623,278.000977 394.644745,278.000977 377.852722,278.000977 
	C377.852722,259.634888 377.852722,242.063141 377.852722,224.362274 
	C373.064789,224.362274 368.696564,224.362274 364.006653,224.362274 
	C364.006653,244.333847 363.934174,263.944275 364.059021,283.553436 
	C364.089172,288.291077 367.412964,290.969147 372.706604,290.982330 
	C390.508881,291.026672 408.312164,291.074738 426.112396,290.879425 
	C427.829041,290.860565 430.037506,289.558319 431.127411,288.158630 
	C433.379913,285.265900 435.032104,281.905701 437.372864,278.000977 
	C433.904541,278.000977 431.147247,278.000977 427.420471,278.000977 
z"/>
<path fill="#C74634" opacity="1.000000" stroke="none" 
	d="
M1.000000,246.468628 
	C1.674561,245.456192 2.677052,245.051285 2.974990,244.347931 
	C8.311083,231.751022 19.803427,224.002747 33.318325,224.000839 
	C46.981098,223.998917 60.651840,223.708344 74.304443,224.080994 
	C88.503639,224.468567 102.947380,235.472687 105.108017,252.100235 
	C107.045563,267.010956 101.591949,278.342407 89.235130,285.854797 
	C84.173027,288.932343 77.569038,290.391174 71.549637,290.780670 
	C59.934910,291.532196 48.236450,291.080139 36.573967,290.980255 
	C21.711607,290.852936 10.128259,285.153778 3.556074,271.137726 
	C3.084632,270.132324 2.243348,269.300354 1.287016,268.693848 
	C1.000000,261.645752 1.000000,254.291504 1.000000,246.468628 
M69.415627,277.999207 
	C71.248047,277.998627 73.083458,278.066376 74.912392,277.986206 
	C85.387779,277.527161 95.603569,265.645935 93.248962,254.072220 
	C90.902763,242.539841 81.899155,236.398422 70.081772,236.135910 
	C58.002151,235.867569 45.875111,236.301041 33.812859,237.095642 
	C22.246597,237.857559 15.385630,247.133331 16.000473,260.002960 
	C16.467838,269.785645 25.538668,277.980164 35.953388,277.995758 
	C46.781399,278.011963 57.609451,277.999268 69.415627,277.999207 
z"/>
<path fill="#C74634" opacity="1.000000" stroke="none" 
	d="
M513.000000,281.600037 
	C511.225677,283.953339 509.607941,286.087708 507.626678,287.801880 
	C506.081757,289.138550 504.105743,290.814880 502.285522,290.858917 
	C490.820251,291.136353 479.328918,291.385468 467.876587,290.910950 
	C449.869446,290.164825 437.160248,280.054749 434.093414,261.437347 
	C431.582123,246.192337 442.052460,229.973053 457.084167,225.516449 
	C460.334961,224.552643 463.848907,224.082108 467.244385,224.068604 
	C482.196747,224.009125 497.150146,224.200104 512.551575,224.150177 
	C513.000000,224.444443 513.000000,224.888901 512.737305,225.338531 
	C511.162750,227.207031 509.562103,228.933823 508.602112,230.963593 
	C506.887512,234.588867 504.642334,236.165268 500.299988,236.140015 
	C488.206940,236.069672 476.101990,236.495499 464.017609,237.063171 
	C456.746094,237.404755 450.431244,243.193756 448.237701,251.241791 
	C468.543549,251.241791 488.673859,251.241791 509.399963,251.241791 
	C507.426544,254.326401 505.763458,256.563019 504.487793,259.002258 
	C502.404388,262.985840 499.406433,264.222534 494.876984,264.118958 
	C480.891083,263.799072 466.893250,263.992950 452.900055,264.015442 
	C451.345032,264.017944 449.790253,264.201294 448.150574,264.306213 
	C450.506897,272.998718 460.217407,278.084747 467.522278,278.032318 
	C482.680817,277.923523 497.840668,277.999817 513.000000,278.000000 
	C513.000000,279.066681 513.000000,280.133331 513.000000,281.600037 
z"/>
<path fill="#000000" opacity="1.000000" stroke="none" 
	d="
M513.000000,277.531342 
	C497.840668,277.999817 482.680817,277.923523 467.522278,278.032318 
	C460.217407,278.084747 450.506897,272.998718 448.150574,264.306213 
	C449.790253,264.201294 451.345032,264.017944 452.900055,264.015442 
	C466.893250,263.992950 480.891083,263.799072 494.876984,264.118958 
	C499.406433,264.222534 502.404388,262.985840 504.487793,259.002258 
	C505.763458,256.563019 507.426544,254.326401 509.399963,251.241791 
	C488.673859,251.241791 468.543549,251.241791 448.237701,251.241791 
	C450.431244,243.193756 456.746094,237.404755 464.017609,237.063171 
	C476.101990,236.495499 488.206940,236.069672 500.299988,236.140015 
	C504.642334,236.165268 506.887512,234.588867 508.602112,230.963593 
	C509.562103,228.933823 511.162750,227.207031 512.737305,225.671860 
	C513.000000,243.020889 513.000000,260.041779 513.000000,277.531342 
z"/>
<path fill="#C74634" opacity="1.000000" stroke="none" 
	d="
M140.246216,265.745544 
	C137.142151,263.041077 134.290421,260.589905 131.438705,258.138763 
	C131.532166,257.758820 131.625641,257.378906 131.719116,256.998962 
	C136.925095,256.998962 142.131088,256.998962 147.337082,256.998962 
	C152.836502,256.998962 158.335938,257.004700 163.835358,256.997559 
	C171.842667,256.987152 176.778687,253.076660 177.026993,246.798233 
	C177.257874,240.960281 173.377609,236.479370 164.275543,236.126236 
	C151.805969,235.642471 139.303543,236.005310 126.195633,236.005310 
	C126.195633,254.278732 126.195633,272.326813 126.195633,290.683258 
	C121.327904,290.683258 117.068550,290.683258 112.402985,290.683258 
	C112.402985,268.710083 112.402985,246.669144 112.402985,224.252197 
	C114.024506,224.167496 115.635857,224.011841 117.247368,224.010132 
	C134.078934,223.992355 150.910950,224.074921 167.741943,223.975143 
	C180.920151,223.897018 188.713242,232.501816 190.904770,244.517059 
	C192.616364,253.900940 184.483948,265.852356 174.534851,268.655304 
	C171.488678,269.513489 168.071732,269.055695 163.723740,269.249634 
	C172.339783,276.530151 180.163055,283.140808 187.986328,289.751465 
	C179.240463,289.968353 170.433395,294.067719 162.755127,285.602814 
	C156.154510,278.325958 147.978165,272.478424 140.246216,265.745544 
z"/>
<path fill="#C74634" opacity="1.000000" stroke="none" 
	d="
M255.881165,278.999573 
	C248.400528,278.999573 241.391159,278.774292 234.406631,279.092987 
	C230.825165,279.256439 228.568344,278.216034 226.954529,275.038208 
	C225.650238,272.469879 223.929001,270.113342 221.958771,266.970642 
	C233.434250,266.970642 244.007462,266.970642 255.518341,266.970642 
	C249.602524,257.412659 244.128815,248.568954 238.453461,239.399475 
	C231.838379,249.885361 225.344742,260.217896 218.808945,270.523651 
	C215.120041,276.340393 211.526917,282.231171 207.526978,287.828735 
	C206.427979,289.366669 204.098557,290.632507 202.194473,290.860657 
	C198.313446,291.325653 194.337677,290.999847 189.479568,290.999847 
	C195.245987,281.998688 200.518860,273.796631 205.762589,265.575958 
	C213.513672,253.424469 221.410980,241.361664 228.919373,229.061691 
	C233.280823,221.916931 242.370041,220.689804 247.580490,228.946945 
	C260.172546,248.901871 273.066467,268.666260 285.808990,288.526520 
	C286.138397,289.039917 286.124054,289.773865 286.403534,290.981873 
	C281.735718,290.981873 277.258850,291.405304 272.934998,290.776581 
	C271.168182,290.519653 269.138489,288.269104 268.259705,286.432129 
	C265.794312,281.278534 262.787994,277.564484 255.881165,278.999573 
z"/>
<path fill="#C74634" opacity="1.000000" stroke="none" 
	d="
M353.650635,287.888153 
	C351.866425,289.113190 350.368744,290.847137 348.841461,290.873657 
	C336.182343,291.093292 323.464966,291.730927 310.867249,290.824188 
	C292.126740,289.475250 278.918121,277.537506 278.187256,258.164185 
	C277.552765,241.345840 290.010376,224.287384 310.315369,224.034195 
	C324.475647,223.857620 338.639923,224.000473 352.802399,224.000641 
	C354.406891,224.000656 356.011383,224.000641 358.804382,224.000641 
	C356.118378,228.305344 354.156189,231.843124 351.747986,235.045578 
	C351.110138,235.893753 349.101257,235.951767 347.719116,235.961060 
	C337.222687,236.031769 326.715881,235.719727 316.231476,236.082123 
	C306.433350,236.420807 298.008087,239.302017 293.742737,249.571213 
	C288.282684,262.716766 297.867676,277.897827 312.134552,277.981873 
	C325.796722,278.062378 339.459747,277.999207 353.122375,277.999176 
	C354.941345,277.999176 356.760284,277.999176 359.967102,277.999176 
	C357.601868,281.758728 355.762634,284.682220 353.650635,287.888153 
z"/>
<path fill="#C74634" opacity="1.000000" stroke="none" 
	d="
M427.905212,278.000977 
	C431.147247,278.000977 433.904541,278.000977 437.372864,278.000977 
	C435.032104,281.905701 433.379913,285.265900 431.127411,288.158630 
	C430.037506,289.558319 427.829041,290.860565 426.112396,290.879425 
	C408.312164,291.074738 390.508881,291.026672 372.706604,290.982330 
	C367.412964,290.969147 364.089172,288.291077 364.059021,283.553436 
	C363.934174,263.944275 364.006653,244.333847 364.006653,224.362274 
	C368.696564,224.362274 373.064789,224.362274 377.852722,224.362274 
	C377.852722,242.063141 377.852722,259.634888 377.852722,278.000977 
	C394.644745,278.000977 411.032623,278.000977 427.905212,278.000977 
z"/>
<path fill="#000000" opacity="1.000000" stroke="none" 
	d="
M68.926559,277.999207 
	C57.609451,277.999268 46.781399,278.011963 35.953388,277.995758 
	C25.538668,277.980164 16.467838,269.785645 16.000473,260.002960 
	C15.385630,247.133331 22.246597,237.857559 33.812859,237.095642 
	C45.875111,236.301041 58.002151,235.867569 70.081772,236.135910 
	C81.899155,236.398422 90.902763,242.539841 93.248962,254.072220 
	C95.603569,265.645935 85.387779,277.527161 74.912392,277.986206 
	C73.083458,278.066376 71.248047,277.998627 68.926559,277.999207 
z"/>
</svg>