<svg version="1.1" id="Layer_1" xmlns="http://www.w3.org/2000/svg" xmlns:xlink="http://www.w3.org/1999/xlink" x="0px" y="0px"
	 width="100%" viewBox="0 0 184 120" enable-background="new 0 0 184 120" xml:space="preserve">
<path fill="#F6F6F6" opacity="1.000000" stroke="none" 
	d="
M130.000000,121.000000 
	C86.666679,121.000000 43.833359,121.000000 1.000029,121.000000 
	C1.000019,81.000023 1.000019,41.000050 1.000010,1.000056 
	C62.333294,1.000037 123.666588,1.000037 184.999908,1.000018 
	C184.999939,40.999943 184.999939,80.999886 184.999969,120.999916 
	C166.833328,121.000000 148.666672,121.000000 130.000000,121.000000 
M123.033638,26.062334 
	C117.351891,25.081909 111.670143,24.101486 105.376617,22.566084 
	C80.598381,20.725182 56.486332,23.254801 34.569031,35.799408 
	C28.527014,39.257626 24.057709,45.463608 18.439211,50.881432 
	C18.223574,51.473789 18.007936,52.066147 17.218328,53.148769 
	C12.884408,62.175747 14.132391,70.723656 20.314146,78.243942 
	C23.641232,82.291451 28.045025,85.453896 31.437214,89.415962 
	C31.570120,90.733177 31.220013,92.731529 31.929972,93.234978 
	C33.775841,94.543900 35.750721,94.447960 36.731644,91.896080 
	C38.153008,92.254242 39.574375,92.612404 41.432693,93.026009 
	C41.432693,93.026009 41.872589,93.048248 42.158710,93.730774 
	C50.770340,96.441826 59.381969,99.152878 68.790939,102.031624 
	C70.871895,102.302208 72.952850,102.572800 75.698555,102.961029 
	C76.141434,103.033249 76.584312,103.105469 77.492279,103.675041 
	C81.878410,107.683113 87.298225,107.229164 92.557823,106.860481 
	C93.766808,106.775734 94.858490,105.017418 96.845222,103.850731 
	C100.321396,103.569763 103.809029,103.388542 107.271812,102.990959 
	C124.289078,101.037064 140.638748,96.980537 154.811722,86.787651 
	C160.945114,82.376656 166.230835,77.090904 168.183838,69.387878 
	C171.373947,56.805573 164.900330,48.166416 155.885757,39.925461 
	C146.986420,33.187023 136.818893,29.405050 125.331429,26.969177 
	C124.638802,26.917393 123.946167,26.865608 123.033638,26.062334 
z"/>
<path fill="#7377AC" opacity="1.000000" stroke="none" 
	d="
M41.872589,93.048248 
	C41.872589,93.048248 41.432693,93.026009 41.160393,92.664902 
	C40.011032,90.819939 39.133976,89.336067 38.445816,87.863068 
	C38.634712,87.873940 39.002647,87.971809 39.276535,88.259247 
	C42.371208,88.356766 45.191986,88.166840 48.195221,87.935570 
	C48.377670,87.894226 48.751816,87.893204 49.147160,87.883163 
	C50.364815,86.489716 51.758327,85.162453 51.900879,83.712234 
	C52.306419,79.586586 53.814377,77.345512 58.375401,77.948059 
	C60.633831,78.246422 62.993847,78.195175 65.250679,77.885315 
	C66.188179,77.756599 66.976204,76.539215 67.863281,75.834641 
	C67.894371,75.852402 67.915894,75.920700 68.246826,75.913307 
	C69.024879,75.485527 69.472000,75.065147 69.937019,74.321396 
	C69.956093,73.566521 69.957275,73.135010 69.886490,72.527588 
	C69.814514,72.351685 69.986496,72.012680 70.404755,72.052162 
	C75.156319,69.839882 74.209381,75.944740 77.323318,76.212036 
	C79.286240,76.198090 80.988968,76.006653 82.917328,76.125008 
	C84.711449,75.655754 86.736664,75.238197 87.719963,73.995934 
	C88.702606,72.754494 88.642731,70.687866 89.321129,68.753586 
	C91.728249,63.759075 93.854103,58.993942 96.375046,54.180031 
	C98.253685,54.548996 99.737244,54.966743 101.234268,55.794361 
	C100.704041,58.714100 100.306160,61.266323 99.591530,63.726540 
	C96.431740,74.604721 97.193329,76.292152 105.822983,77.164627 
	C106.369270,79.007744 106.818375,80.467857 107.138565,82.288551 
	C107.573898,84.383041 107.816658,87.368546 108.763802,87.611839 
	C111.408707,88.291237 114.417938,88.222229 117.144699,87.710228 
	C119.509796,87.266136 119.724861,85.861938 117.068665,84.775970 
	C117.066002,84.258949 117.231628,84.065331 117.841240,83.930649 
	C118.492264,83.283394 118.841438,82.698776 119.122742,81.672302 
	C118.102165,77.793846 119.258797,76.107819 122.974014,76.020630 
	C126.004974,75.949486 129.026108,75.459633 132.107025,75.462563 
	C137.497543,76.584190 142.182541,73.633774 146.271088,66.754456 
	C147.306717,63.849239 148.523148,61.266384 148.812393,58.583565 
	C149.244308,54.577713 149.447510,50.342030 144.699005,48.066391 
	C144.462753,48.121078 144.012833,47.939903 144.012695,47.567017 
	C140.998047,45.832573 137.983521,44.471024 134.935699,42.726257 
	C132.810989,39.284267 121.120758,37.379013 118.610184,39.818607 
	C118.024559,40.387669 118.093605,41.630447 117.543190,42.543552 
	C116.165840,42.733910 115.106750,42.943958 114.156204,42.823780 
	C114.244110,41.468895 114.406319,39.593288 114.176140,39.543831 
	C108.150902,38.249165 102.084984,37.143753 95.968216,35.680237 
	C95.242851,34.897671 94.575333,34.440701 93.845398,33.825836 
	C93.782982,33.667942 93.827568,33.331322 93.901909,32.952843 
	C94.984695,30.089056 95.993149,27.603743 97.416229,25.082569 
	C99.217209,25.051867 100.603554,25.057022 102.028000,25.347458 
	C102.717155,25.741758 103.368217,25.850779 104.327744,25.942823 
	C105.047989,25.929363 105.459770,25.932880 106.279633,25.959099 
	C111.834366,26.345060 116.981026,26.708323 122.293762,27.336363 
	C123.630630,28.080048 124.801430,28.558952 126.210480,29.299484 
	C127.616631,29.720411 128.784531,29.879717 130.002197,30.355717 
	C131.034042,31.123249 132.016098,31.574089 133.343353,32.166927 
	C137.469910,34.185947 141.251282,36.062969 144.890137,38.259605 
	C142.852386,41.391861 142.782333,43.411697 146.426682,45.135590 
	C148.955002,46.331570 150.957016,48.640152 152.585342,49.958641 
	C153.755981,48.315159 154.963257,46.620243 156.506653,44.980156 
	C168.053162,55.138294 169.207184,68.193642 159.838959,78.180946 
	C151.281799,87.303604 140.342331,92.450867 128.672882,95.735649 
	C111.160400,100.665154 93.090324,101.357773 74.756470,100.672714 
	C72.355080,99.929138 70.179832,99.466873 67.597061,98.988846 
	C63.214680,97.994034 59.248703,96.976929 55.262585,96.046059 
	C50.808784,95.005974 46.336712,94.044136 41.872589,93.048248 
z"/>
<path fill="#7377AD" opacity="1.000000" stroke="none" 
	d="
M97.001595,25.118429 
	C95.993149,27.603743 94.984695,30.089056 93.592422,32.832916 
	C89.542831,33.587532 85.017586,31.855852 82.830399,37.014122 
	C82.373314,37.712936 82.222244,38.375076 81.985596,39.418583 
	C81.497597,41.862446 81.095184,43.924942 80.343689,45.982323 
	C77.815826,44.652523 75.590080,43.398369 73.469345,41.986473 
	C70.360092,39.916470 67.401077,38.477345 64.527725,42.897087 
	C59.042355,42.901642 54.021858,42.866787 48.923347,42.505371 
	C47.135986,40.419476 45.790531,40.390099 44.748402,42.990631 
	C44.499058,42.993126 44.000401,43.000332 43.759346,43.171402 
	C43.347252,43.894920 43.176212,44.447365 43.002895,45.425465 
	C42.329430,50.898865 41.658245,55.946613 40.608444,61.084450 
	C39.363010,65.606941 38.488174,70.037910 37.686817,74.482117 
	C37.670776,74.571068 38.513241,74.814819 38.962540,75.322433 
	C38.909935,76.102180 38.849968,76.545845 38.478462,77.037369 
	C36.377804,77.953903 34.927017,78.843124 37.994774,80.342682 
	C37.928654,81.120277 37.857136,81.561829 37.490036,82.058777 
	C36.792522,82.738602 36.390594,83.363022 35.631184,84.033569 
	C32.615887,85.641884 31.315836,85.979477 28.229481,83.043152 
	C24.274605,79.280525 23.162506,74.299469 19.999105,70.747337 
	C15.794813,66.026413 17.329603,61.875732 18.476696,57.110504 
	C18.801865,55.759693 18.050144,54.149658 17.792299,52.658504 
	C18.007936,52.066147 18.223574,51.473789 18.671381,50.845474 
	C18.903551,50.809517 19.014404,51.190758 19.131962,51.363686 
	C19.440163,51.749939 19.669937,51.905502 20.248732,51.862053 
	C26.885218,44.275394 34.550865,38.595764 43.478321,34.685371 
	C60.541012,27.211592 78.642937,25.414576 97.001595,25.118429 
z"/>
<path fill="#525382" opacity="1.000000" stroke="none" 
	d="
M74.982605,100.954010 
	C93.090324,101.357773 111.160400,100.665154 128.672882,95.735649 
	C140.342331,92.450867 151.281799,87.303604 159.838959,78.180946 
	C169.207184,68.193642 168.053162,55.138294 156.427994,44.676956 
	C155.587631,43.603985 155.162079,42.889038 155.062958,41.950462 
	C155.684464,41.293457 155.979523,40.860081 156.274582,40.426704 
	C164.900330,48.166416 171.373947,56.805573 168.183838,69.387878 
	C166.230835,77.090904 160.945114,82.376656 154.811722,86.787651 
	C140.638748,96.980537 124.289078,101.037064 107.271812,102.990959 
	C103.809029,103.388542 100.321396,103.569763 95.973358,103.846725 
	C91.763092,103.678375 88.424675,103.514038 84.938690,103.064117 
	C83.195122,102.839851 81.599129,102.901184 79.631981,103.011787 
	C78.516289,103.099937 77.771736,103.138809 77.027191,103.177689 
	C76.584312,103.105469 76.141434,103.033249 75.354019,102.587708 
	C75.000526,101.794258 74.991570,101.374138 74.982605,100.954010 
z"/>
<path fill="#A0A3C4" opacity="1.000000" stroke="none" 
	d="
M97.416229,25.082569 
	C78.642937,25.414576 60.541012,27.211592 43.478321,34.685371 
	C34.550865,38.595764 26.885218,44.275394 20.169552,51.651054 
	C19.603645,51.297100 19.348286,51.166920 19.014404,51.190758 
	C19.014404,51.190758 18.903551,50.809517 18.885162,50.609154 
	C24.057709,45.463608 28.527014,39.257626 34.569031,35.799408 
	C56.486332,23.254801 80.598381,20.725182 105.691406,23.196144 
	C105.961319,24.529602 105.916435,25.233000 105.871559,25.936398 
	C105.459770,25.932880 105.047989,25.929363 104.151611,25.704935 
	C103.107979,25.343409 102.548943,25.202793 101.989906,25.062180 
	C100.603554,25.057022 99.217209,25.051867 97.416229,25.082569 
z"/>
<path fill="#7B7DA1" opacity="1.000000" stroke="none" 
	d="
M17.505314,52.903637 
	C18.050144,54.149658 18.801865,55.759693 18.476696,57.110504 
	C17.329603,61.875732 15.794813,66.026413 19.999105,70.747337 
	C23.162506,74.299469 24.274605,79.280525 28.229481,83.043152 
	C31.315836,85.979477 32.615887,85.641884 35.935940,84.049515 
	C36.801102,84.032585 37.004028,84.045845 37.206184,84.396713 
	C37.555916,85.773613 37.906414,86.812904 38.256912,87.852203 
	C39.133976,89.336067 40.011032,90.819939 40.941917,92.637177 
	C39.574375,92.612404 38.153008,92.254242 36.220978,91.457611 
	C34.461212,90.351318 33.212109,89.683502 31.963009,89.015686 
	C28.045025,85.453896 23.641232,82.291451 20.314146,78.243942 
	C14.132391,70.723656 12.884408,62.175747 17.505314,52.903637 
z"/>
<path fill="#535483" opacity="1.000000" stroke="none" 
	d="
M156.080170,40.176083 
	C155.979523,40.860081 155.684464,41.293457 154.724960,41.890026 
	C151.051239,40.682144 148.041946,39.311066 145.032669,37.939991 
	C141.251282,36.062969 137.469910,34.185947 133.286194,31.819920 
	C131.906723,30.900284 130.929565,30.469652 129.952423,30.039021 
	C128.784531,29.879717 127.616631,29.720411 126.222260,28.978043 
	C126.001511,27.967077 126.007248,27.539175 126.012985,27.111273 
	C136.818893,29.405050 146.986420,33.187023 156.080170,40.176083 
z"/>
<path fill="#686B91" opacity="1.000000" stroke="none" 
	d="
M42.015648,93.389511 
	C46.336712,94.044136 50.808784,95.005974 55.262585,96.046059 
	C59.248703,96.976929 63.214680,97.994034 67.596619,99.346184 
	C68.000336,100.434166 67.996971,101.149055 67.993599,101.863937 
	C59.381969,99.152878 50.770340,96.441826 42.015648,93.389511 
z"/>
<path fill="#EBF0EF" opacity="1.000000" stroke="none" 
	d="
M77.259735,103.426361 
	C77.771736,103.138809 78.516289,103.099937 79.968185,103.173996 
	C82.145782,103.307846 83.616020,103.328766 85.086266,103.349701 
	C88.424675,103.514038 91.763092,103.678375 95.552826,103.936005 
	C94.858490,105.017418 93.766808,106.775734 92.557823,106.860481 
	C87.298225,107.229164 81.878410,107.683113 77.259735,103.426361 
z"/>
<path fill="#797DA7" opacity="1.000000" stroke="none" 
	d="
M106.279633,25.959099 
	C105.916435,25.233000 105.961319,24.529602 105.997299,23.473633 
	C111.670143,24.101486 117.351891,25.081909 122.866402,26.522125 
	C122.508667,27.011805 122.318176,27.041693 122.127678,27.071583 
	C116.981026,26.708323 111.834366,26.345060 106.279633,25.959099 
z"/>
<path fill="#EBEDED" opacity="1.000000" stroke="none" 
	d="
M31.700111,89.215820 
	C33.212109,89.683502 34.461212,90.351318 35.911983,91.231277 
	C35.750721,94.447960 33.775841,94.543900 31.929972,93.234978 
	C31.220013,92.731529 31.570120,90.733177 31.700111,89.215820 
z"/>
<path fill="#6D7094" opacity="1.000000" stroke="none" 
	d="
M68.392273,101.947784 
	C67.996971,101.149055 68.000336,100.434166 68.004135,99.361946 
	C70.179832,99.466873 72.355080,99.929138 74.756470,100.672714 
	C74.991570,101.374138 75.000526,101.794258 75.021652,102.528885 
	C72.952850,102.572800 70.871895,102.302208 68.392273,101.947784 
z"/>
<path fill="#5E628D" opacity="1.000000" stroke="none" 
	d="
M122.293762,27.336363 
	C122.318176,27.041693 122.508667,27.011805 122.976349,26.897869 
	C123.946167,26.865608 124.638802,26.917393 125.672203,27.040226 
	C126.007248,27.539175 126.001511,27.967077 125.983994,28.716419 
	C124.801430,28.558952 123.630630,28.080048 122.293762,27.336363 
z"/>
<path fill="#0D0E0F" opacity="1.000000" stroke="none" 
	d="
M69.986496,72.012680 
	C69.986496,72.012680 69.814514,72.351685 69.477127,72.575378 
	C64.650764,73.850334 60.161785,74.901588 55.276962,75.809128 
	C53.280079,76.321060 50.735390,76.588020 50.272224,77.712402 
	C49.273525,80.136864 49.344330,83.001884 48.520287,85.697464 
	C45.298088,85.708298 42.533104,85.708298 39.421490,85.708298 
	C39.968761,82.097137 40.431351,79.044762 41.006054,75.611900 
	C43.127892,65.240211 45.137611,55.249004 47.604637,45.215485 
	C56.401737,45.483360 64.741524,45.793556 73.240189,46.378567 
	C74.641914,47.809170 75.884743,48.964958 77.183945,50.354042 
	C77.456451,50.845543 77.730827,51.000950 78.036728,51.009804 
	C78.010002,50.966061 77.911713,50.995178 77.816833,51.353542 
	C78.421440,59.727879 76.232262,66.643143 69.986496,72.012680 
M52.876553,66.809776 
	C55.929974,67.175919 59.422630,68.622383 61.915169,67.608986 
	C64.486061,66.563721 66.852852,63.405525 67.862228,60.643127 
	C68.661636,58.455353 69.867653,54.761314 65.495270,52.568306 
	C62.135910,52.280457 58.776550,51.992603 54.883945,51.659058 
	C54.247143,56.908775 53.692577,61.480518 52.876553,66.809776 
z"/>
<path fill="#0B0B0C" opacity="1.000000" stroke="none" 
	d="
M132.051605,75.155426 
	C129.026108,75.459633 126.004974,75.949486 122.974014,76.020630 
	C119.258797,76.107819 118.102165,77.793846 118.955376,81.942444 
	C118.417038,83.100716 117.978210,83.547005 117.539383,83.993294 
	C117.231628,84.065331 117.066002,84.258949 116.785484,85.071175 
	C113.898735,84.621567 108.858154,88.767174 109.133263,81.636078 
	C111.572197,69.285332 113.863327,57.295582 116.610428,45.255112 
	C126.104790,45.562180 135.387543,43.512844 144.012833,47.939903 
	C144.012833,47.939903 144.462753,48.121078 144.836517,48.437572 
	C147.918457,54.480194 147.325195,60.142822 144.604599,65.968826 
	C140.234680,69.163651 136.143143,72.159538 132.051605,75.155426 
M123.226547,56.146526 
	C122.304253,60.152096 121.381950,64.157669 120.079155,69.815735 
	C124.696770,68.581848 127.659851,67.790077 131.383942,67.005295 
	C136.498169,63.839603 138.442596,59.692627 136.803146,55.447517 
	C135.509857,52.098736 130.621765,51.047874 123.536568,52.625584 
	C123.681076,53.714817 123.827293,54.816891 123.226547,56.146526 
z"/>
<path fill="#101112" opacity="1.000000" stroke="none" 
	d="
M83.136414,36.977444 
	C85.017586,31.855852 89.542831,33.587532 93.518082,33.211395 
	C93.827568,33.331322 93.782982,33.667942 93.837463,34.259571 
	C93.572205,37.795238 93.252472,40.739273 92.895081,44.030125 
	C95.928276,44.030125 98.342484,44.030125 100.899490,44.402779 
	C104.324326,46.248734 107.606354,47.722034 110.946724,49.637417 
	C109.245308,58.980209 107.485550,67.880920 105.725792,76.781631 
	C97.193329,76.292152 96.431740,74.604721 99.591530,63.726540 
	C100.306160,61.266323 100.704041,58.714100 101.605225,55.620193 
	C100.859100,53.801369 99.922615,51.773586 98.616730,51.498344 
	C95.970161,50.940525 93.123543,51.331810 90.286705,51.331810 
	C89.905777,53.145775 89.603111,54.587048 89.178299,56.423618 
	C88.230606,61.149719 87.687546,65.562561 86.463417,69.777611 
	C85.826614,71.970329 83.987640,73.813919 82.691704,75.815216 
	C80.988968,76.006653 79.286240,76.198090 77.406067,75.804733 
	C77.658447,72.453728 78.086823,69.687286 78.518349,66.921349 
	C79.966202,57.640980 81.415176,48.360783 82.918655,38.731369 
	C83.027863,37.913963 83.082138,37.445705 83.136414,36.977444 
z"/>
<path fill="#DFDFE3" opacity="1.000000" stroke="none" 
	d="
M105.822983,77.164627 
	C107.485550,67.880920 109.245308,58.980209 111.114456,49.351257 
	C111.821617,47.750000 112.419373,46.876980 113.305092,45.977413 
	C114.446854,45.735855 115.300652,45.520844 116.154449,45.305832 
	C113.863327,57.295582 111.572197,69.285332 108.845901,81.651031 
	C108.029648,81.993973 107.648567,81.960968 107.267479,81.927971 
	C106.818375,80.467857 106.369270,79.007744 105.822983,77.164627 
z"/>
<path fill="#DCDDE4" opacity="1.000000" stroke="none" 
	d="
M82.863716,39.080517 
	C81.415176,48.360783 79.966202,57.640980 78.518349,66.921349 
	C78.086823,69.687286 77.658447,72.453728 77.145874,75.627243 
	C74.209381,75.944740 75.156319,69.839882 70.404755,72.052162 
	C76.232262,66.643143 78.421440,59.727879 78.178337,51.349869 
	C79.320740,49.321033 80.006752,47.654236 80.692764,45.987438 
	C81.095184,43.924942 81.497597,41.862446 82.184723,39.410683 
	C82.469437,39.021420 82.863716,39.080517 82.863716,39.080517 
z"/>
<path fill="#7577AE" opacity="1.000000" stroke="none" 
	d="
M96.026062,36.005836 
	C102.084984,37.143753 108.150902,38.249165 114.176140,39.543831 
	C114.406319,39.593288 114.244110,41.468895 114.066216,43.022614 
	C113.695335,43.804688 113.461716,43.972366 112.740509,44.036366 
	C111.183289,44.038670 110.052399,44.059326 108.908684,44.112381 
	C108.895866,44.144779 108.835175,44.179016 108.718353,43.818199 
	C105.852180,42.642464 103.099121,41.155273 100.354332,41.170383 
	C96.248871,41.192986 95.604500,39.285862 96.026062,36.005836 
z"/>
<path fill="#7376B3" opacity="1.000000" stroke="none" 
	d="
M144.890137,38.259605 
	C148.041946,39.311066 151.051239,40.682144 154.398529,42.113655 
	C155.162079,42.889038 155.587631,43.603985 156.091858,44.622131 
	C154.963257,46.620243 153.755981,48.315159 152.585342,49.958641 
	C150.957016,48.640152 148.955002,46.331570 146.426682,45.135590 
	C142.782333,43.411697 142.852386,41.391861 144.890137,38.259605 
z"/>
<path fill="#7577AE" opacity="1.000000" stroke="none" 
	d="
M117.861443,42.563248 
	C118.093605,41.630447 118.024559,40.387669 118.610184,39.818607 
	C121.120758,37.379013 132.810989,39.284267 134.473297,42.675587 
	C128.649933,42.859837 123.255684,42.711544 117.861443,42.563248 
z"/>
<path fill="#C7C9D9" opacity="1.000000" stroke="none" 
	d="
M117.543190,42.543552 
	C123.255684,42.711544 128.649933,42.859837 134.506592,43.058800 
	C137.983521,44.471024 140.998047,45.832573 144.012695,47.567017 
	C135.387543,43.512844 126.104790,45.562180 116.610428,45.255112 
	C115.300652,45.520844 114.446854,45.735855 113.003815,45.960609 
	C112.214050,45.955845 112.013542,45.941341 111.982254,45.691040 
	C112.489914,44.988400 112.828377,44.521561 113.166832,44.054722 
	C113.461716,43.972366 113.695335,43.804688 113.957672,43.352844 
	C115.106750,42.943958 116.165840,42.733910 117.543190,42.543552 
z"/>
<path fill="#777A9C" opacity="1.000000" stroke="none" 
	d="
M95.968216,35.680237 
	C95.604500,39.285862 96.248871,41.192986 100.354332,41.170383 
	C103.099121,41.155273 105.852180,42.642464 108.279846,43.772163 
	C105.557655,44.068005 103.157173,44.049065 100.756683,44.030125 
	C98.342484,44.030125 95.928276,44.030125 92.895081,44.030125 
	C93.252472,40.739273 93.572205,37.795238 93.899872,34.417465 
	C94.575333,34.440701 95.242851,34.897671 95.968216,35.680237 
z"/>
<path fill="#76799E" opacity="1.000000" stroke="none" 
	d="
M48.977497,85.686630 
	C49.344330,83.001884 49.273525,80.136864 50.272224,77.712402 
	C50.735390,76.588020 53.280079,76.321060 55.682663,75.931221 
	C60.266869,76.070328 64.049538,75.943611 67.832199,75.816887 
	C66.976204,76.539215 66.188179,77.756599 65.250679,77.885315 
	C62.993847,78.195175 60.633831,78.246422 58.375401,77.948059 
	C53.814377,77.345512 52.306419,79.586586 51.900879,83.712234 
	C51.758327,85.162453 50.364815,86.489716 49.243423,87.523239 
	C48.955391,86.677788 48.966442,86.182213 48.977497,85.686630 
z"/>
<path fill="#D0D3E1" opacity="1.000000" stroke="none" 
	d="
M82.917328,76.125008 
	C83.987640,73.813919 85.826614,71.970329 86.463417,69.777611 
	C87.687546,65.562561 88.230606,61.149719 89.416763,56.433716 
	C90.095901,56.045456 90.413498,56.026821 90.841949,56.393326 
	C90.315765,60.857018 89.677811,64.919991 89.039864,68.982971 
	C88.642731,70.687866 88.702606,72.754494 87.719963,73.995934 
	C86.736664,75.238197 84.711449,75.655754 82.917328,76.125008 
z"/>
<path fill="#CED2E0" opacity="1.000000" stroke="none" 
	d="
M48.520287,85.697464 
	C48.966442,86.182213 48.955391,86.677788 48.848076,87.533287 
	C48.751816,87.893204 48.377670,87.894226 47.745430,87.892845 
	C44.409672,87.918243 41.706161,87.945023 39.002647,87.971809 
	C39.002647,87.971809 38.634712,87.873940 38.445812,87.863068 
	C37.906414,86.812904 37.555916,85.773613 37.383743,84.184021 
	C37.636585,83.090271 37.711098,82.546829 37.785614,82.003380 
	C37.857136,81.561829 37.928654,81.120277 38.150436,80.063301 
	C38.463802,78.628418 38.626900,77.808960 38.789997,76.989502 
	C38.849968,76.545845 38.909935,76.102180 39.139771,75.198349 
	C39.309635,74.738174 39.670544,74.499619 39.825264,74.791245 
	C40.284634,75.386040 40.589287,75.689209 40.893936,75.992386 
	C40.431351,79.044762 39.968761,82.097137 39.421490,85.708298 
	C42.533104,85.708298 45.298088,85.708298 48.520287,85.697464 
z"/>
<path fill="#C1C2D3" opacity="1.000000" stroke="none" 
	d="
M90.730186,55.992611 
	C90.413498,56.026821 90.095901,56.045456 89.538910,56.038422 
	C89.603111,54.587048 89.905777,53.145775 90.286705,51.331810 
	C93.123543,51.331810 95.970161,50.940525 98.616730,51.498344 
	C99.922615,51.773586 100.859100,53.801369 101.591766,55.210320 
	C99.737244,54.966743 98.253685,54.548996 96.002762,54.130646 
	C93.733658,54.750896 92.231918,55.371754 90.730186,55.992611 
z"/>
<path fill="#D4DAE7" opacity="1.000000" stroke="none" 
	d="
M144.882980,65.769882 
	C147.325195,60.142822 147.918457,54.480194 145.072784,48.382881 
	C149.447510,50.342030 149.244308,54.577713 148.812393,58.583565 
	C148.523148,61.266384 147.306717,63.849239 146.014206,66.611908 
	C145.309814,66.421288 145.096405,66.095581 144.882980,65.769882 
z"/>
<path fill="#C0C2D8" opacity="1.000000" stroke="none" 
	d="
M144.604599,65.968826 
	C145.096405,66.095581 145.309814,66.421288 145.780106,66.889534 
	C142.182541,73.633774 137.497543,76.584190 132.107025,75.462555 
	C136.143143,72.159538 140.234680,69.163651 144.604599,65.968826 
z"/>
<path fill="#C4C7DB" opacity="1.000000" stroke="none" 
	d="
M107.138565,82.288551 
	C107.648567,81.960968 108.029648,81.993973 108.698090,82.012024 
	C108.858154,88.767174 113.898735,84.621567 116.811646,85.273003 
	C119.724861,85.861938 119.509796,87.266136 117.144699,87.710228 
	C114.417938,88.222229 111.408707,88.291237 108.763802,87.611839 
	C107.816658,87.368546 107.573898,84.383041 107.138565,82.288551 
z"/>
<path fill="#C4C5DC" opacity="1.000000" stroke="none" 
	d="
M67.863281,75.834641 
	C64.049538,75.943611 60.266869,76.070328 56.078503,76.074951 
	C60.161785,74.901588 64.650764,73.850334 69.549103,72.751289 
	C69.957275,73.135010 69.956093,73.566521 69.636497,74.411018 
	C68.850685,75.189568 68.383286,75.555130 67.915894,75.920700 
	C67.915894,75.920700 67.894371,75.852402 67.863281,75.834641 
z"/>
<path fill="#75779C" opacity="1.000000" stroke="none" 
	d="
M90.841949,56.393326 
	C92.231918,55.371754 93.733658,54.750896 95.607681,54.179428 
	C93.854103,58.993942 91.728249,63.759075 89.321129,68.753586 
	C89.677811,64.919991 90.315765,60.857018 90.841949,56.393326 
z"/>
<path fill="#76799E" opacity="1.000000" stroke="none" 
	d="
M39.276535,88.259247 
	C41.706161,87.945023 44.409672,87.918243 47.562977,87.934189 
	C45.191986,88.166840 42.371208,88.356766 39.276535,88.259247 
z"/>
<path fill="#5E628D" opacity="1.000000" stroke="none" 
	d="
M130.002197,30.355717 
	C130.929565,30.469652 131.906723,30.900284 132.941010,31.677921 
	C132.016098,31.574089 131.034042,31.123249 130.002197,30.355717 
z"/>
<path fill="#797DA7" opacity="1.000000" stroke="none" 
	d="
M102.028000,25.347458 
	C102.548943,25.202793 103.107979,25.343409 103.843147,25.721912 
	C103.368217,25.850779 102.717155,25.741758 102.028000,25.347458 
z"/>
<path fill="#C4C7DB" opacity="1.000000" stroke="none" 
	d="
M117.841240,83.930649 
	C117.978210,83.547005 118.417038,83.100716 119.023239,82.384293 
	C118.841438,82.698776 118.492264,83.283394 117.841240,83.930649 
z"/>
<path fill="#76799E" opacity="1.000000" stroke="none" 
	d="
M68.246826,75.913307 
	C68.383286,75.555130 68.850685,75.189568 69.618607,74.734383 
	C69.472000,75.065147 69.024879,75.485527 68.246826,75.913307 
z"/>
<path fill="#797CA6" opacity="1.000000" stroke="none" 
	d="
M80.343689,45.982323 
	C80.006752,47.654236 79.320740,49.321033 78.273224,50.991508 
	C77.911713,50.995178 78.010002,50.966061 77.823395,50.920727 
	C77.479759,50.615265 77.310028,50.363716 77.127579,50.120747 
	C75.884743,48.964958 74.641914,47.809170 73.135361,46.016594 
	C70.245300,44.539097 67.618942,43.698383 64.992592,42.857674 
	C67.401077,38.477345 70.360092,39.916470 73.469345,41.986473 
	C75.590080,43.398369 77.815826,44.652523 80.343689,45.982323 
z"/>
<path fill="#BEC2D3" opacity="1.000000" stroke="none" 
	d="
M64.527725,42.897087 
	C67.618942,43.698383 70.245300,44.539097 72.976479,45.741783 
	C64.741524,45.793556 56.401737,45.483360 47.451324,44.924248 
	C46.501808,44.403015 46.162918,44.130703 46.065956,43.612892 
	C47.205711,43.188904 48.103535,43.010418 49.001362,42.831928 
	C54.021858,42.866787 59.042355,42.901642 64.527725,42.897087 
z"/>
<path fill="#777BA2" opacity="1.000000" stroke="none" 
	d="
M39.670544,74.499619 
	C39.670544,74.499619 39.309635,74.738174 39.132408,74.862259 
	C38.513241,74.814819 37.670776,74.571068 37.686817,74.482117 
	C38.488174,70.037910 39.363010,65.606941 40.818939,61.085815 
	C41.408047,60.997093 41.828705,60.993065 41.842831,61.406677 
	C41.128151,66.046730 40.399345,70.273178 39.670544,74.499619 
z"/>
<path fill="#757A9D" opacity="1.000000" stroke="none" 
	d="
M41.828705,60.993065 
	C41.828705,60.993065 41.408047,60.997093 41.197552,60.995728 
	C41.658245,55.946613 42.329430,50.898865 43.243187,45.254059 
	C43.657303,44.104774 43.828854,43.552555 44.000401,43.000332 
	C44.000401,43.000332 44.499058,42.993126 44.764313,43.285480 
	C45.044804,43.773998 45.060040,43.970158 45.041885,44.565598 
	C43.948570,50.307602 42.888638,55.650333 41.828705,60.993065 
z"/>
<path fill="#797CA6" opacity="1.000000" stroke="none" 
	d="
M45.075272,44.166321 
	C45.060040,43.970158 45.044804,43.773998 45.013657,43.282986 
	C45.790531,40.390099 47.135986,40.419476 48.923347,42.505371 
	C48.103535,43.010418 47.205711,43.188904 45.879066,43.690254 
	C45.450249,44.013119 45.075272,44.166321 45.075272,44.166321 
z"/>
<path fill="#777BA2" opacity="1.000000" stroke="none" 
	d="
M38.478462,77.037369 
	C38.626900,77.808960 38.463802,78.628418 38.145042,79.727264 
	C34.927017,78.843124 36.377804,77.953903 38.478462,77.037369 
z"/>
<path fill="#777BA2" opacity="1.000000" stroke="none" 
	d="
M37.490032,82.058777 
	C37.711098,82.546829 37.636585,83.090271 37.384510,83.846413 
	C37.004028,84.045845 36.801102,84.032585 36.293423,84.003380 
	C36.390594,83.363022 36.792522,82.738602 37.490032,82.058777 
z"/>
<path fill="#797CA6" opacity="1.000000" stroke="none" 
	d="
M82.918655,38.731369 
	C82.863716,39.080517 82.469437,39.021420 82.270309,39.029320 
	C82.222244,38.375076 82.373314,37.712936 82.830399,37.014122 
	C83.082138,37.445705 83.027863,37.913963 82.918655,38.731369 
z"/>
<path fill="#797CA6" opacity="1.000000" stroke="none" 
	d="
M43.759346,43.171402 
	C43.828854,43.552555 43.657303,44.104774 43.245461,44.828403 
	C43.176212,44.447365 43.347252,43.894920 43.759346,43.171402 
z"/>
<path fill="#7B7DA1" opacity="1.000000" stroke="none" 
	d="
M19.131962,51.363686 
	C19.348286,51.166920 19.603645,51.297100 19.859665,51.792305 
	C19.669937,51.905502 19.440163,51.749939 19.131962,51.363686 
z"/>
<path fill="#6D7094" opacity="1.000000" stroke="none" 
	d="
M84.938690,103.064110 
	C83.616020,103.328766 82.145782,103.307846 80.339333,103.124718 
	C81.599129,102.901184 83.195122,102.839851 84.938690,103.064110 
z"/>
<path fill="#7C7FA8" opacity="1.000000" stroke="none" 
	d="
M53.138012,66.052261 
	C53.692577,61.480518 54.247143,56.908775 54.883945,51.659058 
	C58.776550,51.992603 62.135910,52.280457 65.733978,53.197502 
	C67.957832,62.025620 64.851913,66.113861 56.565807,66.181160 
	C55.423634,66.190445 54.280632,66.097748 53.138012,66.052261 
z"/>
<path fill="#CFD2DD" opacity="1.000000" stroke="none" 
	d="
M45.041885,44.565598 
	C45.075272,44.166321 45.450249,44.013119 45.637138,43.935753 
	C46.162918,44.130703 46.501808,44.403015 46.994011,44.966564 
	C45.137611,55.249004 43.127892,65.240211 41.006058,75.611900 
	C40.589287,75.689209 40.284634,75.386040 39.825264,74.791245 
	C40.399345,70.273178 41.128151,66.046730 41.842834,61.406677 
	C42.888638,55.650333 43.948570,50.307602 45.041885,44.565598 
z"/>
<path fill="#C5C6D6" opacity="1.000000" stroke="none" 
	d="
M53.007282,66.431015 
	C54.280632,66.097748 55.423634,66.190445 56.565807,66.181160 
	C64.851913,66.113861 67.957832,62.025620 65.994926,53.445908 
	C69.867653,54.761314 68.661636,58.455353 67.862228,60.643127 
	C66.852852,63.405525 64.486061,66.563721 61.915169,67.608986 
	C59.422630,68.622383 55.929974,67.175919 53.007282,66.431015 
z"/>
<path fill="#DCDDE4" opacity="1.000000" stroke="none" 
	d="
M77.183945,50.354042 
	C77.310028,50.363716 77.479759,50.615265 77.850113,50.964470 
	C77.730827,51.000950 77.456451,50.845543 77.183945,50.354042 
z"/>
<path fill="#7D7FA3" opacity="1.000000" stroke="none" 
	d="
M123.973495,55.918961 
	C123.827293,54.816891 123.681076,53.714817 123.536568,52.625584 
	C130.621765,51.047874 135.509857,52.098736 136.803146,55.447517 
	C138.442596,59.692627 136.498169,63.839603 130.629929,67.175728 
	C122.868706,67.229393 122.389671,66.518394 124.161598,59.626011 
	C124.455696,58.482056 124.053780,57.159164 123.973495,55.918961 
M127.678772,64.718010 
	C132.999069,64.396461 132.844330,60.229229 133.884201,55.652679 
	C131.783798,55.652679 128.892380,55.226048 128.723511,55.723560 
	C127.792488,58.466358 127.526245,61.434803 127.678772,64.718010 
z"/>
<path fill="#B9BEC3" opacity="1.000000" stroke="none" 
	d="
M123.600021,56.032745 
	C124.053780,57.159164 124.455696,58.482056 124.161598,59.626011 
	C122.389671,66.518394 122.868706,67.229393 130.249420,67.172234 
	C127.659851,67.790077 124.696770,68.581848 120.079155,69.815735 
	C121.381950,64.157669 122.304253,60.152096 123.600021,56.032745 
z"/>
<path fill="#C0C6D2" opacity="1.000000" stroke="none" 
	d="
M100.899490,44.402779 
	C103.157173,44.049065 105.557655,44.068005 108.396660,44.132980 
	C108.835175,44.179016 108.895866,44.144779 109.055145,44.380005 
	C110.080627,45.052433 110.946838,45.489635 111.813042,45.926838 
	C112.013542,45.941341 112.214050,45.955845 112.715851,45.987156 
	C112.419373,46.876980 111.821617,47.750000 111.056122,48.909180 
	C107.606354,47.722034 104.324326,46.248734 100.899490,44.402779 
z"/>
<path fill="#777A9C" opacity="1.000000" stroke="none" 
	d="
M111.982254,45.691040 
	C110.946838,45.489635 110.080627,45.052433 109.067963,44.347607 
	C110.052399,44.059326 111.183289,44.038670 112.740509,44.036366 
	C112.828377,44.521561 112.489914,44.988400 111.982254,45.691040 
z"/>
<path fill="#7477B0" opacity="1.000000" stroke="none" 
	d="
M127.355392,64.521942 
	C127.526245,61.434803 127.792488,58.466358 128.723511,55.723560 
	C128.892380,55.226048 131.783798,55.652679 133.884201,55.652679 
	C132.844330,60.229229 132.999069,64.396461 127.355392,64.521942 
z"/>
</svg>