<?xml version="1.0" standalone="no"?>
<!DOCTYPE svg PUBLIC "-//W3C//DTD SVG 20010904//EN"
 "http://www.w3.org/TR/2001/REC-SVG-20010904/DTD/svg10.dtd">
<svg version="1.0" xmlns="http://www.w3.org/2000/svg"
 width="512.000000pt" height="512.000000pt" viewBox="0 0 512.000000 512.000000"
 preserveAspectRatio="xMidYMid meet">

<g transform="translate(0.000000,512.000000) scale(0.100000,-0.100000)"
fill="#000000" stroke="none">
<path d="M524 4939 c-71 -27 -137 -88 -171 -157 -24 -48 -28 -70 -28 -137 0
-66 5 -90 26 -135 15 -30 39 -67 53 -82 l27 -28 -32 0 c-91 0 -202 -81 -227
-166 -8 -29 -12 -146 -12 -393 l0 -352 25 -24 c23 -24 28 -25 179 -25 l155 0
-21 -35 c-31 -53 -20 -98 50 -212 64 -105 99 -133 162 -133 19 1 46 7 58 14
21 11 30 10 73 -13 41 -22 49 -31 54 -63 8 -44 36 -83 75 -103 41 -21 259 -21
300 0 39 20 67 59 75 103 5 32 13 41 54 63 43 23 52 24 73 13 32 -18 83 -17
124 2 25 12 49 41 91 108 31 50 61 106 66 123 15 47 -6 106 -47 138 -30 23
-34 31 -34 74 0 42 4 52 29 70 41 31 62 77 56 123 -8 58 -119 232 -161 252
-41 19 -92 20 -124 2 -21 -11 -30 -10 -73 13 -41 22 -49 31 -54 63 -13 77 -70
118 -165 118 -49 0 -60 3 -60 16 0 77 -81 183 -158 208 -26 8 -60 16 -76 18
l-29 3 27 32 c50 59 71 120 71 208 0 99 -23 154 -92 223 -88 88 -223 116 -339
71z m186 -161 c48 -25 90 -89 90 -138 0 -14 -10 -46 -22 -70 -25 -48 -89 -90
-138 -90 -14 0 -46 10 -70 23 -48 24 -90 88 -90 137 0 49 42 113 90 138 24 12
56 22 70 22 14 0 46 -10 70 -22z m221 -567 c34 -35 37 -61 8 -87 -26 -24 -49
-67 -49 -93 0 -12 -16 -29 -46 -46 -39 -23 -49 -25 -76 -16 -47 17 -99 13
-135 -9 -21 -12 -53 -55 -93 -122 -57 -95 -61 -107 -57 -151 2 -26 12 -56 22
-67 18 -20 17 -20 -83 -20 l-102 0 0 285 c0 297 3 324 44 343 13 7 123 11 279
11 l259 1 29 -29z m253 -245 c10 -52 38 -80 133 -131 83 -45 90 -47 150 -42
l62 5 25 -42 24 -41 -34 -37 -34 -38 0 -120 0 -120 34 -38 34 -37 -25 -43
c-24 -40 -28 -43 -57 -35 -56 14 -92 5 -180 -42 -94 -51 -122 -79 -132 -131
l-6 -34 -58 0 -58 0 -6 34 c-10 52 -38 80 -131 130 -86 47 -125 56 -181 42
-29 -7 -33 -4 -57 36 l-25 43 34 37 34 38 0 120 0 120 -34 38 -34 37 25 43
c24 40 28 43 57 35 56 -14 92 -5 180 42 94 51 122 79 132 131 l6 34 58 0 58 0
6 -34z"/>
<path d="M1024 3746 c-48 -21 -105 -77 -125 -121 -25 -54 -25 -157 0 -210 40
-87 120 -135 223 -135 80 0 133 24 181 80 47 56 60 97 55 180 -4 81 -35 135
-107 185 -37 26 -52 30 -119 33 -50 1 -88 -3 -108 -12z m147 -165 c18 -14 24
-29 24 -60 0 -49 -18 -70 -67 -78 -30 -4 -41 -1 -62 20 -72 72 27 182 105 118z"/>
<path d="M2297 4625 c-255 -32 -498 -104 -722 -215 -196 -97 -185 -83 -136
-161 l41 -66 153 76 c227 114 435 176 687 207 535 64 1107 -99 1520 -433 91
-74 252 -236 316 -318 261 -334 405 -750 404 -1167 l-1 -103 -48 54 -48 54
-61 -49 c-36 -28 -58 -53 -53 -59 85 -113 219 -269 238 -278 37 -17 64 -2 211
117 l132 107 -46 57 c-25 31 -50 58 -54 60 -4 1 -29 -16 -56 -38 l-49 -40 -2
92 c-9 353 -71 631 -202 903 -212 441 -546 773 -996 991 -218 105 -404 164
-635 199 -146 22 -457 28 -593 10z"/>
<path d="M2415 3346 c-218 -43 -405 -168 -525 -353 -89 -136 -125 -259 -125
-433 0 -174 36 -297 124 -432 243 -371 737 -478 1104 -238 427 278 490 875
131 1234 -103 104 -222 171 -374 212 -78 22 -250 26 -335 10z m272 -162 c252
-52 446 -246 497 -496 20 -97 20 -159 0 -255 -52 -252 -246 -446 -496 -497
-97 -20 -159 -20 -256 0 -250 51 -444 245 -496 497 -20 96 -20 158 0 254 41
199 166 359 349 448 127 61 263 78 402 49z"/>
<path d="M2402 2940 c-40 -11 -104 -36 -142 -55 -69 -37 -181 -130 -201 -168
-12 -22 -10 -25 74 -83 l37 -27 60 57 c187 178 473 178 660 0 l60 -57 57 40
c31 22 59 46 61 53 7 21 -129 143 -205 183 -143 75 -312 96 -461 57z"/>
<path d="M2459 2623 c-59 -19 -144 -83 -144 -107 0 -11 23 -35 57 -59 l56 -40
27 22 c61 48 149 48 210 0 l27 -22 56 40 c34 24 57 48 57 59 0 25 -90 91 -149
109 -63 19 -138 18 -197 -2z"/>
<path d="M2505 2295 c-50 -49 -15 -135 55 -135 41 0 80 39 80 80 0 41 -39 80
-80 80 -19 0 -40 -9 -55 -25z"/>
<path d="M464 2947 c-12 -7 -79 -58 -148 -115 l-127 -103 47 -59 c26 -33 50
-60 53 -60 3 0 29 18 56 40 l50 40 7 -188 c7 -210 28 -346 82 -524 117 -384
345 -723 671 -996 617 -517 1520 -646 2273 -326 82 35 269 131 290 149 4 3
-69 124 -78 130 -4 3 -43 -15 -86 -40 -175 -100 -424 -187 -644 -225 -820
-141 -1663 234 -2081 927 -172 284 -257 574 -266 903 l-4 175 49 -54 49 -55
54 45 c30 24 56 48 58 52 4 12 -206 275 -229 287 -24 13 -50 12 -76 -3z"/>
<path d="M3843 2220 c-39 -23 -59 -54 -68 -100 -5 -29 -15 -40 -55 -61 -42
-23 -51 -24 -72 -13 -32 18 -83 17 -124 -2 -25 -12 -49 -41 -91 -108 -31 -50
-61 -106 -66 -123 -15 -47 6 -106 47 -138 30 -23 34 -31 34 -74 0 -42 -4 -52
-29 -70 -41 -31 -62 -77 -56 -122 6 -45 107 -215 144 -243 34 -25 102 -32 138
-14 25 14 31 13 76 -11 41 -22 49 -31 54 -63 13 -77 70 -118 165 -118 49 0 60
-3 60 -16 0 -107 125 -224 238 -224 l31 0 -26 -28 c-82 -86 -104 -244 -50
-354 95 -194 357 -239 510 -86 69 69 92 124 92 223 0 88 -21 149 -71 208 l-27
32 29 3 c16 2 50 10 76 18 57 19 128 92 146 152 8 27 12 148 12 391 l0 352
-25 24 c-23 24 -28 25 -179 25 l-155 0 21 35 c31 53 20 98 -50 212 -64 105
-99 133 -162 133 -19 -1 -46 -7 -58 -14 -21 -11 -30 -10 -73 13 -41 22 -49 31
-54 63 -4 21 -16 49 -27 63 -36 47 -67 55 -200 55 -104 0 -128 -3 -155 -20z
m221 -174 c10 -52 38 -80 133 -131 83 -45 90 -47 150 -42 l62 5 25 -42 24 -41
-35 -38 -35 -39 4 -123 c3 -124 3 -124 35 -157 l32 -33 -26 -43 c-24 -40 -28
-43 -57 -35 -56 14 -92 5 -180 -42 -94 -51 -122 -79 -132 -131 l-6 -34 -58 0
-58 0 -6 34 c-10 52 -38 80 -131 130 -86 47 -125 56 -181 42 -29 -7 -33 -4
-57 36 l-25 43 34 37 34 38 0 120 0 120 -34 38 -34 37 25 43 c24 40 28 43 57
35 56 -14 92 -5 180 42 94 51 122 79 132 131 l6 34 58 0 58 0 6 -34z m734
-821 c-3 -291 -3 -295 -26 -317 -22 -23 -25 -23 -293 -23 l-271 0 -24 28 c-31
37 -30 52 6 89 19 18 32 44 36 69 6 33 13 42 53 64 37 21 50 24 69 16 40 -19
106 -13 142 12 19 12 57 60 88 112 66 109 78 168 43 216 l-22 29 101 0 101 0
-3 -295z m-276 -595 c113 -32 150 -176 67 -259 -110 -111 -300 -2 -259 148 13
48 59 97 103 110 43 12 46 12 89 1z"/>
<path d="M3894 1821 c-47 -21 -109 -89 -125 -138 -6 -19 -9 -66 -7 -103 3 -57
9 -77 34 -112 49 -71 103 -102 184 -106 83 -5 124 8 180 55 57 49 80 101 80
183 0 104 -53 187 -142 224 -51 22 -153 20 -204 -3z m161 -166 c52 -51 11
-135 -66 -135 -31 0 -69 44 -69 80 0 41 39 80 80 80 19 0 40 -9 55 -25z"/>
</g>
</svg>
