<svg version="1.1" id="Layer_1" xmlns="http://www.w3.org/2000/svg" xmlns:xlink="http://www.w3.org/1999/xlink" x="0px" y="0px"
	 width="100%" viewBox="0 0 300 168" enable-background="new 0 0 300 168" xml:space="preserve">
<path fill="#FFFFFE" opacity="1.000000" stroke="none" 
	d="
M229.000000,169.000000 
	C152.666672,169.000000 76.833351,169.000000 1.000020,169.000000 
	C1.000014,113.000015 1.000014,57.000031 1.000007,1.000035 
	C100.999969,1.000024 200.999939,1.000024 300.999939,1.000012 
	C300.999939,56.999966 300.999939,112.999931 300.999969,168.999939 
	C277.166656,169.000000 253.333328,169.000000 229.000000,169.000000 
M117.495239,45.062660 
	C117.495239,45.062660 117.978722,44.959133 118.895653,45.158691 
	C123.597229,45.109093 128.298798,45.059498 133.925217,45.162876 
	C139.288422,45.095032 144.651627,45.027187 150.485733,45.096741 
	C150.485733,45.096741 150.976059,45.082886 150.904190,45.026367 
	C150.904190,45.026367 150.850830,45.100624 151.101624,45.902100 
	C151.183945,47.298393 151.266266,48.694687 150.662292,50.214241 
	C150.445618,50.298393 150.228958,50.382542 149.108841,50.260029 
	C145.409286,50.326283 141.709747,50.392540 137.126404,50.256165 
	C131.753342,50.343853 126.380272,50.431541 120.224678,50.277061 
	C114.922989,50.244274 109.621338,50.199696 104.319603,50.181068 
	C91.862694,50.137306 83.890282,55.314087 81.104149,67.493500 
	C79.223099,75.716393 79.716621,84.482483 79.031319,93.815559 
	C79.946411,97.564400 80.861504,101.313240 81.837143,105.798058 
	C83.825562,108.895844 85.813988,111.993629 88.086456,115.715218 
	C90.412285,117.051483 92.738106,118.387749 95.495575,119.932388 
	C95.495575,119.932388 95.972343,119.883278 96.874931,120.143280 
	C101.238358,120.132393 105.601776,120.121498 110.624207,120.094749 
	C110.780899,119.719391 110.937592,119.344032 111.295494,118.064682 
	C111.223289,114.053833 111.151085,110.042976 111.238991,105.275955 
	C111.195625,104.251167 111.152260,103.226379 111.486633,101.520149 
	C112.731277,97.701141 113.975929,93.882133 115.766144,89.775429 
	C116.854347,88.550301 117.942551,87.325172 119.597466,85.997528 
	C120.185844,85.558647 120.774223,85.119774 121.361282,84.636337 
	C121.361282,84.636337 121.398903,84.670944 122.203186,84.531631 
	C125.566856,83.970314 128.915115,83.073288 132.297424,82.918045 
	C139.188461,82.601768 146.097885,82.685410 153.919327,82.785774 
	C158.071121,82.799431 162.226318,82.927994 166.374023,82.804420 
	C177.224533,82.481133 183.661133,77.526398 185.992538,67.501465 
	C185.992538,67.501465 185.902985,67.021179 186.114853,66.112366 
	C186.089478,62.074268 186.064102,58.036167 186.210037,53.074001 
	C186.116119,45.043674 186.022202,37.013344 185.988968,28.501223 
	C185.988968,28.501223 185.819260,28.046246 185.816452,27.370398 
	C184.589813,25.557861 183.363174,23.745327 181.841965,21.305088 
	C176.221069,18.910437 170.600159,16.515785 164.173538,13.905550 
	C159.781601,13.933255 155.389389,14.004039 150.997818,13.975418 
	C147.297287,13.951303 143.597504,13.811694 139.039444,13.672634 
	C116.814095,16.587234 114.574333,23.886070 116.074150,37.870918 
	C116.121223,39.912834 116.168304,41.954754 116.146362,44.532494 
	C116.439468,44.657597 116.732567,44.782700 117.495239,45.062660 
M190.330200,72.968956 
	C190.181000,73.661301 190.031799,74.353645 189.745789,75.251617 
	C189.745789,75.251617 189.882034,75.457611 189.363220,75.821732 
	C189.235535,76.216576 189.107849,76.611420 188.824844,77.223167 
	C188.824844,77.223167 188.885590,77.482933 188.381653,77.849045 
	C188.221619,78.225128 188.061584,78.601212 187.396408,79.296288 
	C187.091675,79.810371 186.786942,80.324455 186.001724,81.183769 
	C184.998718,82.116455 183.995712,83.049133 182.291260,84.193375 
	C177.862259,85.184425 173.433243,86.175476 168.074661,87.036179 
	C160.053360,87.078262 152.032059,87.120338 143.090485,87.029968 
	C140.281006,87.030426 137.463287,86.891129 134.663483,87.055862 
	C123.394897,87.718918 116.449394,94.648720 116.094536,105.622131 
	C115.982651,109.081879 116.207626,112.552505 116.132263,116.941879 
	C116.330154,124.992317 116.528046,133.042755 116.780243,141.830490 
	C118.129333,146.353775 120.595306,149.843582 125.798264,151.835800 
	C131.186874,153.248993 136.575470,154.662186 142.686279,156.467545 
	C154.182678,157.670227 165.545349,157.272491 176.463806,153.057129 
	C181.076157,151.276428 185.449112,148.491425 186.001190,143.190063 
	C186.628586,137.165329 186.146149,131.025024 186.146149,124.075706 
	C174.112717,124.075706 162.546173,124.075706 151.024582,123.249832 
	C150.230225,118.893936 153.323227,119.289230 156.916214,119.298302 
	C160.606674,119.253662 164.297150,119.209023 168.919205,119.290726 
	C174.943665,119.242172 180.968109,119.193626 187.923157,119.280922 
	C191.899582,119.294212 195.876129,119.332687 199.852432,119.315918 
	C210.305191,119.271843 218.010757,114.570221 220.752335,104.474861 
	C222.701263,97.298210 222.393982,89.508850 223.230911,81.099731 
	C223.128311,78.394920 223.025696,75.690102 222.985046,72.501381 
	C222.985046,72.501381 222.868973,72.027534 222.892700,71.280449 
	C221.682327,68.151329 220.471970,65.022202 219.163269,61.173458 
	C217.456238,58.748936 215.749207,56.324417 213.736771,53.335247 
	C212.247452,52.525127 210.758118,51.715008 208.680618,50.359577 
	C203.002701,49.827656 197.324783,49.295734 191.172424,48.719368 
	C191.172424,54.833061 191.172424,59.916878 191.044128,65.832039 
	C190.982437,68.047714 190.920731,70.263390 190.330200,72.968956 
z"/>
<path fill="#38709F" opacity="1.000000" stroke="none" 
	d="
M152.999725,82.604286 
	C146.097885,82.685410 139.188461,82.601768 132.297424,82.918045 
	C128.915115,83.073288 125.566856,83.970314 121.719185,84.220749 
	C122.160324,82.436440 122.857216,80.738991 124.047714,79.526016 
	C131.680176,71.749413 139.500366,64.155586 147.056534,56.306904 
	C148.503143,54.804310 149.050232,52.435734 150.012299,50.466682 
	C150.228958,50.382542 150.445618,50.298393 151.260834,50.099541 
	C152.237747,49.654564 152.616135,49.324291 153.340088,48.961998 
	C163.169266,39.930912 172.652908,30.931849 182.136551,21.932787 
	C183.363174,23.745327 184.589813,25.557861 185.677292,27.807095 
	C185.668182,28.490200 185.798233,28.736610 185.928284,28.983017 
	C186.022202,37.013344 186.116119,45.043674 185.754547,53.539116 
	C182.352356,56.016453 179.256378,57.843582 176.487488,60.076332 
	C168.813751,66.264183 163.825119,75.510757 154.246674,79.602119 
	C153.533661,79.906677 153.401779,81.571716 152.999725,82.604286 
z"/>
<path fill="#FFD849" opacity="1.000000" stroke="none" 
	d="
M116.725952,141.093185 
	C116.528046,133.042755 116.330154,124.992317 116.549522,116.469177 
	C117.975380,115.497597 119.217377,115.225525 119.956566,114.464851 
	C127.586975,106.612671 135.170456,98.713707 142.658203,90.725792 
	C143.461731,89.868599 143.576492,88.365753 144.010757,87.162422 
	C152.032059,87.120338 160.053360,87.078262 168.532791,87.454391 
	C168.283707,89.124992 167.799438,90.591187 166.835007,91.596916 
	C156.517548,102.356010 146.096603,113.015816 135.765991,123.762398 
	C131.987335,127.693192 128.553848,131.971573 124.615288,135.726791 
	C122.344376,137.891983 119.378838,139.328629 116.725952,141.093185 
z"/>
<path fill="#FFD040" opacity="1.000000" stroke="none" 
	d="
M219.261597,61.893082 
	C220.471970,65.022202 221.682327,68.151329 222.732864,71.747238 
	C222.689713,72.471115 222.806396,72.728203 222.923096,72.985291 
	C223.025696,75.690102 223.128311,78.394920 222.801849,81.578079 
	C220.824631,82.962807 219.013245,83.600731 217.770767,84.818893 
	C209.372635,93.052559 200.951950,101.273521 192.863846,109.806915 
	C190.383575,112.423744 188.921112,116.005287 186.992569,119.145081 
	C180.968109,119.193626 174.943665,119.242172 168.459595,118.847618 
	C171.165359,114.270950 173.995132,109.819176 177.557495,106.061996 
	C189.429901,93.540321 201.593201,81.294930 213.572754,68.873940 
	C215.649307,66.720863 217.374252,64.228653 219.261597,61.893082 
z"/>
<path fill="#3B7AAE" opacity="1.000000" stroke="none" 
	d="
M79.147964,93.005592 
	C79.716621,84.482483 79.223099,75.716393 81.104149,67.493500 
	C83.890282,55.314087 91.862694,50.137306 104.319603,50.181068 
	C109.621338,50.199696 114.922989,50.244274 120.611267,50.824875 
	C120.171844,53.241074 119.788139,55.542309 118.450104,56.909634 
	C107.337448,68.265450 96.103676,79.505196 84.740150,90.609787 
	C83.387444,91.931671 81.036308,92.231842 79.147964,93.005592 
z"/>
<path fill="#FFD545" opacity="1.000000" stroke="none" 
	d="
M116.753098,141.461838 
	C119.378838,139.328629 122.344376,137.891983 124.615288,135.726791 
	C128.553848,131.971573 131.987335,127.693192 135.765991,123.762398 
	C146.096603,113.015816 156.517548,102.356010 166.835007,91.596916 
	C167.799438,90.591187 168.283707,89.124992 168.997589,87.519562 
	C173.433243,86.175476 177.862259,85.184425 182.769073,84.390732 
	C182.753860,85.969276 182.628571,87.694008 181.709808,88.677490 
	C174.153534,96.766014 166.352310,104.627411 158.873001,112.784737 
	C157.374359,114.419243 156.931335,117.021629 156.001572,119.177742 
	C153.323227,119.289230 150.230225,118.893936 151.015930,123.982872 
	C151.005249,125.143639 151.003235,125.571358 150.856506,126.298584 
	C143.993591,133.379791 137.304962,140.191193 130.535080,146.920898 
	C128.969803,148.476868 127.126823,149.753464 125.411629,151.158600 
	C120.595306,149.843582 118.129333,146.353775 116.753098,141.461838 
z"/>
<path fill="#3773A5" opacity="1.000000" stroke="none" 
	d="
M149.560577,50.363358 
	C149.050232,52.435734 148.503143,54.804310 147.056534,56.306904 
	C139.500366,64.155586 131.680176,71.749413 124.047714,79.526016 
	C122.857216,80.738991 122.160324,82.436440 121.317047,84.290405 
	C121.398903,84.670944 121.361282,84.636337 121.064438,84.516983 
	C120.188652,84.965096 119.609703,85.532570 119.030746,86.100037 
	C117.942551,87.325172 116.854347,88.550301 115.156708,90.014755 
	C112.727112,91.640495 110.757477,92.870316 109.112610,94.440376 
	C101.957619,101.270004 94.897194,108.198715 87.802399,115.091415 
	C85.813988,111.993629 83.825562,108.895844 82.204376,105.412628 
	C84.304375,104.261047 86.448723,103.910988 87.707596,102.665764 
	C104.163940,86.387871 120.507706,69.995934 136.815079,53.568462 
	C137.531067,52.847198 137.625977,51.509403 138.010193,50.458794 
	C141.709747,50.392540 145.409286,50.326283 149.560577,50.363358 
z"/>
<path fill="#3774A6" opacity="1.000000" stroke="none" 
	d="
M181.989258,21.618935 
	C172.652908,30.931849 163.169266,39.930912 153.338440,48.580338 
	C152.277786,47.187336 151.564316,46.143978 150.850830,45.100624 
	C150.850830,45.100624 150.904190,45.026367 150.865082,44.881626 
	C150.555588,44.811039 150.285217,44.885193 150.014832,44.959343 
	C144.651627,45.027187 139.288422,45.095032 133.465790,44.717690 
	C133.684891,43.004639 134.102386,41.469318 135.083649,40.511612 
	C142.321732,33.447197 149.586746,26.404797 157.037750,19.567377 
	C159.379166,17.418777 162.315323,15.918272 164.979263,14.121130 
	C170.600159,16.515785 176.221069,18.910437 181.989258,21.618935 
z"/>
<path fill="#FFD445" opacity="1.000000" stroke="none" 
	d="
M156.458893,119.238022 
	C156.931335,117.021629 157.374359,114.419243 158.873001,112.784737 
	C166.352310,104.627411 174.153534,96.766014 181.709808,88.677490 
	C182.628571,87.694008 182.753860,85.969276 183.119781,84.284950 
	C183.995712,83.049133 184.998718,82.116455 186.649460,81.051376 
	C189.311462,79.664330 191.646454,78.730171 193.280228,77.095276 
	C198.299606,72.072456 203.108994,66.834328 207.879517,61.570686 
	C210.078217,59.144699 211.996658,56.464703 214.042160,53.899887 
	C215.749207,56.324417 217.456238,58.748936 219.212433,61.533272 
	C217.374252,64.228653 215.649307,66.720863 213.572754,68.873940 
	C201.593201,81.294930 189.429901,93.540321 177.557495,106.061996 
	C173.995132,109.819176 171.165359,114.270950 167.993790,118.784447 
	C164.297150,119.209023 160.606674,119.253662 156.458893,119.238022 
z"/>
<path fill="#3774A7" opacity="1.000000" stroke="none" 
	d="
M137.568298,50.357475 
	C137.625977,51.509403 137.531067,52.847198 136.815079,53.568462 
	C120.507706,69.995934 104.163940,86.387871 87.707596,102.665764 
	C86.448723,103.910988 84.304375,104.261047 82.174103,105.044632 
	C80.861504,101.313240 79.946411,97.564400 79.089645,93.410576 
	C81.036308,92.231842 83.387444,91.931671 84.740150,90.609787 
	C96.103676,79.505196 107.337448,68.265450 118.450104,56.909634 
	C119.788139,55.542309 120.171844,53.241074 121.002533,50.945961 
	C126.380272,50.431541 131.753342,50.343853 137.568298,50.357475 
z"/>
<path fill="#FFD040" opacity="1.000000" stroke="none" 
	d="
M125.604950,151.497192 
	C127.126823,149.753464 128.969803,148.476868 130.535080,146.920898 
	C137.304962,140.191193 143.993591,133.379791 151.324951,126.298767 
	C158.569763,125.999451 165.201416,125.999451 172.440414,125.999451 
	C170.933701,129.255035 170.002670,131.266724 168.858536,133.511780 
	C167.396515,135.164215 166.147598,136.583298 164.560669,138.040009 
	C162.365448,139.668137 160.472305,141.218826 158.657837,142.856659 
	C153.376953,147.623413 149.375641,153.999725 141.964081,156.075363 
	C136.575470,154.662186 131.186874,153.248993 125.604950,151.497192 
z"/>
<path fill="#FFCC3B" opacity="1.000000" stroke="none" 
	d="
M142.325180,156.271454 
	C149.375641,153.999725 153.376953,147.623413 158.657837,142.856659 
	C160.472305,141.218826 162.365448,139.668137 164.603012,138.432220 
	C164.897186,142.920792 166.991852,145.964798 170.968338,145.600281 
	C173.263443,145.389893 176.260498,142.892273 177.260330,140.668274 
	C179.067917,136.647507 175.099930,133.343353 169.071655,133.278412 
	C170.002670,131.266724 170.933701,129.255035 172.440414,125.999451 
	C165.201416,125.999451 158.569763,125.999451 151.469666,125.999268 
	C151.003235,125.571358 151.005249,125.143639 150.993439,124.395813 
	C162.546173,124.075706 174.112717,124.075706 186.146149,124.075706 
	C186.146149,131.025024 186.628586,137.165329 186.001190,143.190063 
	C185.449112,148.491425 181.076157,151.276428 176.463806,153.057129 
	C165.545349,157.272491 154.182678,157.670227 142.325180,156.271454 
z"/>
<path fill="#FFCC3B" opacity="1.000000" stroke="none" 
	d="
M187.457855,119.212997 
	C188.921112,116.005287 190.383575,112.423744 192.863846,109.806915 
	C200.951950,101.273521 209.372635,93.052559 217.770767,84.818893 
	C219.013245,83.600731 220.824631,82.962807 222.733246,82.024689 
	C222.393982,89.508850 222.701263,97.298210 220.752335,104.474861 
	C218.010757,114.570221 210.305191,119.271843 199.852432,119.315918 
	C195.876129,119.332687 191.899582,119.294212 187.457855,119.212997 
z"/>
<path fill="#3878AC" opacity="1.000000" stroke="none" 
	d="
M164.576401,14.013339 
	C162.315323,15.918272 159.379166,17.418777 157.037750,19.567377 
	C149.586746,26.404797 142.321732,33.447197 135.083649,40.511612 
	C134.102386,41.469318 133.684891,43.004639 133.003357,44.641205 
	C128.298798,45.059498 123.597229,45.109093 118.342209,44.857933 
	C117.612267,44.304680 117.376305,44.134731 116.864716,44.031380 
	C116.648521,44.015427 116.215378,43.996670 116.215378,43.996670 
	C116.168304,41.954754 116.121223,39.912834 116.496376,37.431469 
	C119.580338,35.328838 122.242073,33.665653 125.092972,32.293869 
	C128.889969,37.166805 132.416565,37.998066 135.551895,35.006004 
	C138.985550,31.729229 138.467316,28.269693 133.976837,23.844479 
	C135.105316,22.064495 136.331024,20.727467 137.238998,19.201384 
	C138.273071,17.463345 139.023621,15.556618 139.897400,13.723208 
	C143.597504,13.811694 147.297287,13.951303 150.997818,13.975418 
	C155.389389,14.004039 159.781601,13.933255 164.576401,14.013339 
z"/>
<path fill="#366C98" opacity="1.000000" stroke="none" 
	d="
M153.459534,82.695030 
	C153.401779,81.571716 153.533661,79.906677 154.246674,79.602119 
	C163.825119,75.510757 168.813751,66.264183 176.487488,60.076332 
	C179.256378,57.843582 182.352356,56.016453 185.668884,54.001148 
	C186.064102,58.036167 186.089478,62.074268 185.855408,66.647934 
	C185.534653,67.280487 185.398651,67.425056 185.424911,67.466293 
	C185.541992,67.650146 185.705475,67.804451 185.852173,67.969437 
	C183.661133,77.526398 177.224533,82.481133 166.374023,82.804420 
	C162.226318,82.927994 158.071121,82.799431 153.459534,82.695030 
z"/>
<path fill="#FFDD52" opacity="1.000000" stroke="none" 
	d="
M143.550629,87.096191 
	C143.576492,88.365753 143.461731,89.868599 142.658203,90.725792 
	C135.170456,98.713707 127.586975,106.612671 119.956566,114.464851 
	C119.217377,115.225525 117.975380,115.497597 116.622604,116.007317 
	C116.207626,112.552505 115.982651,109.081879 116.094536,105.622131 
	C116.449394,94.648720 123.394897,87.718918 134.663483,87.055862 
	C137.463287,86.891129 140.281006,87.030426 143.550629,87.096191 
z"/>
<path fill="#38709F" opacity="1.000000" stroke="none" 
	d="
M87.944427,115.403313 
	C94.897194,108.198715 101.957619,101.270004 109.112610,94.440376 
	C110.757477,92.870316 112.727112,91.640495 114.883926,90.158607 
	C113.975929,93.882133 112.731277,97.701141 111.220535,101.576569 
	C110.763489,101.431725 110.577698,101.224709 110.371620,101.040375 
	C110.355507,101.025955 110.108788,101.187149 110.118576,101.237923 
	C110.427261,102.838188 110.754494,104.434883 111.078888,106.032127 
	C111.151085,110.042976 111.223289,114.053833 110.945808,118.639664 
	C110.385818,119.513306 110.175514,119.811958 109.965210,120.110611 
	C105.601776,120.121498 101.238358,120.132393 96.355011,119.866753 
	C95.553795,119.342331 95.296745,119.386925 95.063934,119.724014 
	C92.738106,118.387749 90.412285,117.051483 87.944427,115.403313 
z"/>
<path fill="#397BB1" opacity="1.000000" stroke="none" 
	d="
M124.903809,32.002468 
	C122.242073,33.665653 119.580338,35.328838 116.568703,36.999084 
	C114.574333,23.886070 116.814095,16.587234 139.468414,13.697922 
	C139.023621,15.556618 138.273071,17.463345 137.238998,19.201384 
	C136.331024,20.727467 135.105316,22.064495 133.575653,23.810005 
	C127.039406,24.068756 125.298164,25.733789 124.903809,32.002468 
z"/>
<path fill="#FFD545" opacity="1.000000" stroke="none" 
	d="
M213.889465,53.617561 
	C211.996658,56.464703 210.078217,59.144699 207.879517,61.570686 
	C203.108994,66.834328 198.299606,72.072456 193.280228,77.095276 
	C191.646454,78.730171 189.311462,79.664330 186.889709,80.878769 
	C186.786942,80.324455 187.091675,79.810371 187.919296,78.972557 
	C188.589981,78.260193 188.737793,77.871567 188.885590,77.482933 
	C188.885590,77.482933 188.824844,77.223167 189.156418,76.929665 
	C189.619339,76.243317 189.750687,75.850464 189.882034,75.457611 
	C189.882034,75.457611 189.745789,75.251617 190.107788,74.927544 
	C190.599548,73.895332 190.729294,73.187202 190.859039,72.479065 
	C190.920731,70.263390 190.982437,68.047714 191.466293,65.409882 
	C198.234009,63.713596 200.601669,57.961941 204.509888,53.911041 
	C205.775314,52.599419 207.664780,51.889851 209.268799,50.904892 
	C210.758118,51.715008 212.247452,52.525127 213.889465,53.617561 
z"/>
<path fill="#FFD445" opacity="1.000000" stroke="none" 
	d="
M208.974701,50.632233 
	C207.664780,51.889851 205.775314,52.599419 204.509888,53.911041 
	C200.601669,57.961941 198.234009,63.713596 191.530441,64.994217 
	C191.172424,59.916878 191.172424,54.833061 191.172424,48.719368 
	C197.324783,49.295734 203.002701,49.827656 208.974701,50.632233 
z"/>
<path fill="#3B7AAE" opacity="1.000000" stroke="none" 
	d="
M150.976227,45.501358 
	C151.564316,46.143978 152.277786,47.187336 152.992889,48.612358 
	C152.616135,49.324291 152.237747,49.654564 151.603973,50.037910 
	C151.266266,48.694687 151.183945,47.298393 150.976227,45.501358 
z"/>
<path fill="#236596" opacity="1.000000" stroke="none" 
	d="
M111.158943,105.654037 
	C110.754494,104.434883 110.427261,102.838188 110.118576,101.237923 
	C110.108788,101.187149 110.355507,101.025955 110.371620,101.040375 
	C110.577698,101.224709 110.763489,101.431725 111.031662,101.917282 
	C111.152260,103.226379 111.195625,104.251167 111.158943,105.654037 
z"/>
<path fill="#38709F" opacity="1.000000" stroke="none" 
	d="
M119.314102,86.048782 
	C119.609703,85.532570 120.188652,84.965096 121.065102,84.539261 
	C120.774223,85.119774 120.185844,85.558647 119.314102,86.048782 
z"/>
<path fill="#FFD445" opacity="1.000000" stroke="none" 
	d="
M190.594620,72.724014 
	C190.729294,73.187202 190.599548,73.895332 190.176193,74.824730 
	C190.031799,74.353645 190.181000,73.661301 190.594620,72.724014 
z"/>
<path fill="#FFD445" opacity="1.000000" stroke="none" 
	d="
M188.633621,77.665985 
	C188.737793,77.871567 188.589981,78.260193 188.171860,78.813065 
	C188.061584,78.601212 188.221619,78.225128 188.633621,77.665985 
z"/>
<path fill="#FFD445" opacity="1.000000" stroke="none" 
	d="
M189.622620,75.639671 
	C189.750687,75.850464 189.619339,76.243317 189.234070,76.821213 
	C189.107849,76.611420 189.235535,76.216576 189.622620,75.639671 
z"/>
<path fill="#FFCC3B" opacity="1.000000" stroke="none" 
	d="
M222.954071,72.743332 
	C222.806396,72.728203 222.689713,72.471115 222.721008,72.120781 
	C222.868973,72.027534 222.985046,72.501381 222.954071,72.743332 
z"/>
<path fill="#236596" opacity="1.000000" stroke="none" 
	d="
M185.922363,67.735451 
	C185.705475,67.804451 185.541992,67.650146 185.424911,67.466293 
	C185.398651,67.425056 185.534653,67.280487 185.749481,67.102341 
	C185.902985,67.021179 185.992538,67.501465 185.922363,67.735451 
z"/>
<path fill="#236596" opacity="1.000000" stroke="none" 
	d="
M185.958618,28.742123 
	C185.798233,28.736610 185.668182,28.490200 185.678696,28.145018 
	C185.819260,28.046246 185.988968,28.501223 185.958618,28.742123 
z"/>
<path fill="#236596" opacity="1.000000" stroke="none" 
	d="
M95.279755,119.828201 
	C95.296745,119.386925 95.553795,119.342331 95.903717,119.736755 
	C95.972343,119.883278 95.495575,119.932388 95.279755,119.828201 
z"/>
<path fill="#236596" opacity="1.000000" stroke="none" 
	d="
M110.294708,120.102676 
	C110.175514,119.811958 110.385818,119.513306 110.845200,119.091660 
	C110.937592,119.344032 110.780899,119.719391 110.294708,120.102676 
z"/>
<path fill="#397BB1" opacity="1.000000" stroke="none" 
	d="
M116.180870,44.264580 
	C116.215378,43.996670 116.648521,44.015427 116.846626,44.245953 
	C117.044731,44.476479 117.025673,44.907803 117.025673,44.907803 
	C116.732567,44.782700 116.439468,44.657597 116.180870,44.264580 
z"/>
<path fill="#236596" opacity="1.000000" stroke="none" 
	d="
M117.260452,44.985229 
	C117.025673,44.907803 117.044731,44.476479 117.062820,44.261902 
	C117.376305,44.134731 117.612267,44.304680 117.883743,44.758156 
	C117.978722,44.959133 117.495239,45.062660 117.260452,44.985229 
z"/>
<path fill="#236596" opacity="1.000000" stroke="none" 
	d="
M150.250275,45.028046 
	C150.285217,44.885193 150.555588,44.811039 150.901016,44.909885 
	C150.976059,45.082886 150.485733,45.096741 150.250275,45.028046 
z"/>
<path fill="#FFFFFE" opacity="1.000000" stroke="none" 
	d="
M168.858521,133.511780 
	C175.099930,133.343353 179.067917,136.647507 177.260330,140.668274 
	C176.260498,142.892273 173.263443,145.389893 170.968338,145.600281 
	C166.991852,145.964798 164.897186,142.920792 164.941040,138.394577 
	C166.147598,136.583298 167.396515,135.164215 168.858521,133.511780 
z"/>
<path fill="#F8F9FB" opacity="1.000000" stroke="none" 
	d="
M125.092972,32.293869 
	C125.298164,25.733789 127.039406,24.068756 133.532562,24.169460 
	C138.467316,28.269693 138.985550,31.729229 135.551895,35.006004 
	C132.416565,37.998066 128.889969,37.166805 125.092972,32.293869 
z"/>
</svg>