<svg version="1.1" id="Layer_1" xmlns="http://www.w3.org/2000/svg" xmlns:xlink="http://www.w3.org/1999/xlink" x="0px" y="0px"
	 width="100%" viewBox="0 0 225 225" enable-background="new 0 0 225 225" xml:space="preserve">
<path fill="#030202" opacity="1.000000" stroke="none" 
	d="
M226.000000,24.000000 
	C226.000000,35.687561 226.000000,47.375122 225.695572,59.700935 
	C223.668243,65.852234 219.746017,68.338295 214.146500,68.344795 
	C192.163773,68.370316 170.180756,68.417068 148.198395,68.323822 
	C140.248444,68.290092 136.102768,63.852383 136.009109,55.763271 
	C135.971573,52.521534 136.002945,49.279003 136.002945,45.970936 
	C132.576797,45.970936 129.896912,46.159241 127.253227,45.929958 
	C122.423912,45.511127 120.855171,47.593945 120.916054,52.336929 
	C121.123383,68.488266 120.995323,84.643898 120.995293,100.797890 
	C120.995285,103.737358 120.995285,106.676826 120.995285,109.586014 
	C126.306381,109.586014 131.033432,109.586014 136.003082,109.586014 
	C136.003082,103.640244 135.954865,97.995934 136.014618,92.352760 
	C136.099670,84.321259 140.399353,79.960266 148.291595,79.901215 
	C155.119186,79.850128 161.947769,79.851776 168.775375,79.901466 
	C175.738205,79.952133 179.846436,83.133713 180.806549,89.937233 
	C181.353149,93.810600 183.157379,94.974678 186.735977,94.925323 
	C194.894684,94.812775 203.074509,95.229225 211.210632,94.786057 
	C218.131577,94.409081 223.048676,96.693588 226.000000,103.000000 
	C226.000000,114.687561 226.000000,126.375122 225.681946,138.671417 
	C223.416885,144.930359 219.329025,147.162476 213.502090,147.141251 
	C192.022797,147.063034 170.543060,147.123688 149.063507,147.104019 
	C140.135742,147.095840 136.045197,142.945618 136.006836,133.922913 
	C135.983124,128.345016 136.002441,122.766945 136.002441,117.335251 
	C130.619080,117.335251 126.010666,117.335251 120.998993,117.335251 
	C120.998993,137.329300 120.919006,157.102661 121.169579,176.871857 
	C121.187263,178.267395 123.483452,180.567017 124.994881,180.822800 
	C128.493851,181.414948 132.161362,181.011063 136.002518,181.011063 
	C136.002518,177.308273 135.963165,174.167526 136.010254,171.028091 
	C136.127350,163.221344 140.265900,158.824280 147.903717,158.674484 
	C155.060745,158.534088 162.225189,158.532852 169.381836,158.684647 
	C175.842911,158.821716 179.962601,162.057388 180.719589,168.347855 
	C181.264313,172.874557 183.556686,173.733444 187.391373,173.676559 
	C195.382019,173.558029 203.391495,173.952515 211.363235,173.546738 
	C218.315506,173.192871 223.227310,175.529648 226.000000,182.000000 
	C226.000000,193.354233 226.000000,204.708450 225.761520,216.781830 
	C224.437805,222.094742 220.947830,224.276947 217.000000,226.000000 
	C193.312439,226.000000 169.624878,226.000000 145.190933,225.794189 
	C138.392014,223.578461 135.925308,219.205200 135.979874,213.027924 
	C136.051407,204.930542 135.997421,196.832077 135.997421,188.367859 
	C132.499939,188.367859 129.534592,188.393021 126.569801,188.363129 
	C117.651169,188.273163 113.753632,184.451218 113.736549,175.643890 
	C113.702339,157.998520 113.726349,140.353027 113.726311,122.707596 
	C113.726303,120.939445 113.726303,119.171288 113.726303,117.365265 
	C108.318367,117.365265 103.562790,117.365265 98.323418,117.365265 
	C98.323418,130.051544 97.965698,142.509949 98.457306,154.934738 
	C98.753159,162.412003 95.447296,166.879745 89.216606,169.852707 
	C86.680588,171.062759 84.069359,172.221542 81.372055,172.970261 
	C61.237915,178.559097 40.963673,178.602753 20.736330,173.707275 
	C12.837043,171.795456 5.153214,168.992584 1.000000,161.000000 
	C1.000000,128.979111 1.000000,96.958214 1.285212,64.276077 
	C4.413875,56.065628 11.062147,53.196053 17.878424,50.979008 
	C38.214844,44.364429 58.778301,44.376091 79.275497,50.140614 
	C95.082504,54.586090 98.323120,59.209560 98.323112,75.595459 
	C98.323105,86.879745 98.323105,98.164032 98.323105,109.515732 
	C103.727135,109.515732 108.594040,109.515732 113.726593,109.515732 
	C113.726593,107.335709 113.726578,105.521576 113.726593,103.707443 
	C113.726692,86.046860 113.687195,68.386147 113.744926,50.725754 
	C113.770775,42.817303 117.802254,38.816246 125.719345,38.644871 
	C129.013153,38.573574 132.309769,38.633030 135.997543,38.633030 
	C135.997543,30.545225 136.222137,22.911100 135.931732,15.296617 
	C135.663620,8.266695 138.291992,3.429906 145.000000,1.000000 
	C154.020889,1.000000 163.041794,1.000000 172.634491,1.333516 
	C177.991913,3.271033 180.467438,6.799591 180.924072,11.625805 
	C181.252182,15.093414 183.048920,16.061150 186.195374,16.026806 
	C194.327271,15.938045 202.477631,16.321150 210.588486,15.898692 
	C217.569946,15.535058 222.725540,17.749746 226.000000,24.000000 
M210.843216,61.020306 
	C218.230118,61.058929 218.754272,60.546070 218.760971,53.187298 
	C218.767929,45.565216 218.790833,37.942986 218.753510,30.321079 
	C218.723175,24.121876 217.351593,22.973089 210.012314,23.369181 
	C202.023529,23.354504 194.033981,23.404137 186.046204,23.306562 
	C178.478165,23.214113 175.074509,20.419258 173.783691,13.066825 
	C173.228668,9.905359 171.689407,8.299575 168.511215,8.293919 
	C161.853745,8.282068 155.196167,8.272140 148.538788,8.297583 
	C145.096451,8.310738 143.325241,10.028848 143.328674,13.537212 
	C143.342560,27.684364 143.320602,41.831566 143.348907,55.978676 
	C143.355743,59.399895 144.960907,61.075165 148.594940,61.051529 
	C169.062164,60.918407 189.530136,60.901592 210.843216,61.020306 
M209.069366,181.036591 
	C201.413788,181.029968 193.757523,181.083633 186.102814,180.999283 
	C178.837509,180.919235 174.998413,177.773163 173.789734,170.673584 
	C173.203827,167.232086 171.570709,165.853729 168.094696,165.939133 
	C161.607956,166.098541 155.112503,166.083618 148.624710,165.947769 
	C145.003006,165.871918 143.359451,167.557999 143.352097,170.993149 
	C143.321793,185.139328 143.347809,199.285614 143.327118,213.431824 
	C143.321976,216.946411 145.102051,218.702759 148.520859,218.693375 
	C169.315857,218.636292 190.110703,218.534012 211.682877,218.717148 
	C217.740219,218.561523 218.740112,217.638351 218.774002,211.864731 
	C218.817856,204.391800 218.786163,196.918396 218.784439,189.445206 
	C218.782532,181.116119 218.279266,180.643646 209.069366,181.036591 
M210.024109,102.156067 
	C202.033615,102.140823 194.042892,102.156952 186.052673,102.101135 
	C178.675598,102.049614 175.018677,99.082161 173.762268,91.840218 
	C173.218140,88.704002 171.833847,87.067215 168.546082,87.095840 
	C161.887604,87.153824 155.227722,87.163414 148.569489,87.092537 
	C144.989197,87.054420 143.348846,88.831261 143.343750,92.256264 
	C143.322708,106.406563 143.324341,120.556931 143.342117,134.707230 
	C143.346390,138.115356 144.928970,139.923874 148.529358,139.905380 
	C169.333282,139.798569 190.137466,139.748062 211.755768,139.878433 
	C217.786697,139.804291 218.725906,138.929321 218.756470,133.039001 
	C218.797821,125.065536 218.793869,117.091583 218.758102,109.118073 
	C218.729797,102.806244 217.601700,101.856522 210.024109,102.156067 
M16.867510,104.803604 
	C33.592365,110.563629 50.751080,111.142639 68.001610,108.363823 
	C74.300339,107.349182 80.444405,105.047409 86.460449,102.801018 
	C88.303429,102.112862 90.623978,99.748688 90.766853,97.992630 
	C91.284874,91.625717 90.971016,85.191124 90.971016,78.752800 
	C63.176777,90.151726 35.862801,90.135551 8.227640,78.570824 
	C8.227640,83.227501 8.656922,87.741394 8.127169,92.139786 
	C7.329735,98.760658 10.173480,102.531029 16.867510,104.803604 
M27.431046,145.140839 
	C21.110279,143.388596 14.789512,141.636353 8.227424,139.817200 
	C8.227424,144.173279 8.610001,148.684555 8.132901,153.102997 
	C7.502649,158.939758 10.106674,162.014526 15.236616,164.044098 
	C29.648767,169.746033 44.662594,171.006454 59.799690,169.306747 
	C68.435219,168.337067 76.949951,165.832413 85.333313,163.383087 
	C87.568970,162.729889 90.467506,159.901230 90.729164,157.783188 
	C91.464996,151.826920 90.985962,145.720596 90.985962,139.340607 
	C70.257210,148.035919 49.453407,148.697327 27.431046,145.140839 
M40.762432,116.987984 
	C29.941626,114.890450 19.120819,112.792908 8.245677,110.684837 
	C8.245677,113.700691 8.245641,117.688408 8.245683,121.676117 
	C8.245775,130.681351 9.025077,131.986526 17.652971,134.998886 
	C31.239756,139.742584 45.338261,140.974380 59.503231,139.293289 
	C68.002182,138.284653 76.422882,136.094131 84.654716,133.673065 
	C87.150620,132.938995 90.342873,129.878143 90.701843,127.503021 
	C91.579292,121.697380 90.988159,115.669785 90.988159,109.198006 
	C74.952110,116.662476 58.437798,117.537445 40.762432,116.987984 
M84.330139,60.004215 
	C61.912262,50.978706 39.371300,51.296680 16.763815,59.202606 
	C15.066704,59.796093 13.451392,60.786873 11.987329,61.852905 
	C7.501376,65.119278 7.366804,68.167053 11.946231,71.185867 
	C14.953092,73.168030 18.336161,74.802567 21.775379,75.866982 
	C36.311447,80.365753 51.251324,81.237663 66.119545,78.499382 
	C73.485115,77.142860 80.744675,74.325653 87.548645,71.105385 
	C92.357857,68.829216 92.077049,65.551064 87.933716,62.219936 
	C87.032295,61.495216 85.991768,60.943520 84.330139,60.004215 
z"/>
<path fill="#FDFDFD" opacity="1.000000" stroke="none" 
	d="
M1.000000,161.468658 
	C5.153214,168.992584 12.837043,171.795456 20.736330,173.707275 
	C40.963673,178.602753 61.237915,178.559097 81.372055,172.970261 
	C84.069359,172.221542 86.680588,171.062759 89.216606,169.852707 
	C95.447296,166.879745 98.753159,162.412003 98.457306,154.934738 
	C97.965698,142.509949 98.323418,130.051544 98.323418,117.365265 
	C103.562790,117.365265 108.318367,117.365265 113.726303,117.365265 
	C113.726303,119.171288 113.726303,120.939445 113.726311,122.707596 
	C113.726349,140.353027 113.702339,157.998520 113.736549,175.643890 
	C113.753632,184.451218 117.651169,188.273163 126.569801,188.363129 
	C129.534592,188.393021 132.499939,188.367859 135.997421,188.367859 
	C135.997421,196.832077 136.051407,204.930542 135.979874,213.027924 
	C135.925308,219.205200 138.392014,223.578461 144.722275,225.794189 
	C97.100677,226.000000 49.201359,226.000000 1.000000,226.000000 
	C1.000000,204.646729 1.000000,183.292023 1.000000,161.468658 
z"/>
<path fill="#FDFDFD" opacity="1.000000" stroke="none" 
	d="
M144.531342,1.000000 
	C138.291992,3.429906 135.663620,8.266695 135.931732,15.296617 
	C136.222137,22.911100 135.997543,30.545225 135.997543,38.633030 
	C132.309769,38.633030 129.013153,38.573574 125.719345,38.644871 
	C117.802254,38.816246 113.770775,42.817303 113.744926,50.725754 
	C113.687195,68.386147 113.726692,86.046860 113.726593,103.707443 
	C113.726578,105.521576 113.726593,107.335709 113.726593,109.515732 
	C108.594040,109.515732 103.727135,109.515732 98.323105,109.515732 
	C98.323105,98.164032 98.323105,86.879745 98.323112,75.595459 
	C98.323120,59.209560 95.082504,54.586090 79.275497,50.140614 
	C58.778301,44.376091 38.214844,44.364429 17.878424,50.979008 
	C11.062147,53.196053 4.413875,56.065628 1.285212,63.807415 
	C1.000000,43.044472 1.000000,22.088943 1.000000,1.000000 
	C48.687481,1.000000 96.375084,1.000000 144.531342,1.000000 
z"/>
<path fill="#FAFAFA" opacity="1.000000" stroke="none" 
	d="
M226.000000,102.531342 
	C223.048676,96.693588 218.131577,94.409081 211.210632,94.786057 
	C203.074509,95.229225 194.894684,94.812775 186.735977,94.925323 
	C183.157379,94.974678 181.353149,93.810600 180.806549,89.937233 
	C179.846436,83.133713 175.738205,79.952133 168.775375,79.901466 
	C161.947769,79.851776 155.119186,79.850128 148.291595,79.901215 
	C140.399353,79.960266 136.099670,84.321259 136.014618,92.352760 
	C135.954865,97.995934 136.003082,103.640244 136.003082,109.586014 
	C131.033432,109.586014 126.306381,109.586014 120.995285,109.586014 
	C120.995285,106.676826 120.995285,103.737358 120.995293,100.797890 
	C120.995323,84.643898 121.123383,68.488266 120.916054,52.336929 
	C120.855171,47.593945 122.423912,45.511127 127.253227,45.929958 
	C129.896912,46.159241 132.576797,45.970936 136.002945,45.970936 
	C136.002945,49.279003 135.971573,52.521534 136.009109,55.763271 
	C136.102768,63.852383 140.248444,68.290092 148.198395,68.323822 
	C170.180756,68.417068 192.163773,68.370316 214.146500,68.344795 
	C219.746017,68.338295 223.668243,65.852234 225.695572,60.169594 
	C226.000000,74.020897 226.000000,88.041786 226.000000,102.531342 
z"/>
<path fill="#FAFAFA" opacity="1.000000" stroke="none" 
	d="
M226.000000,181.531342 
	C223.227310,175.529648 218.315506,173.192871 211.363235,173.546738 
	C203.391495,173.952515 195.382019,173.558029 187.391373,173.676559 
	C183.556686,173.733444 181.264313,172.874557 180.719589,168.347855 
	C179.962601,162.057388 175.842911,158.821716 169.381836,158.684647 
	C162.225189,158.532852 155.060745,158.534088 147.903717,158.674484 
	C140.265900,158.824280 136.127350,163.221344 136.010254,171.028091 
	C135.963165,174.167526 136.002518,177.308273 136.002518,181.011063 
	C132.161362,181.011063 128.493851,181.414948 124.994881,180.822800 
	C123.483452,180.567017 121.187263,178.267395 121.169579,176.871857 
	C120.919006,157.102661 120.998993,137.329300 120.998993,117.335251 
	C126.010666,117.335251 130.619080,117.335251 136.002441,117.335251 
	C136.002441,122.766945 135.983124,128.345016 136.006836,133.922913 
	C136.045197,142.945618 140.135742,147.095840 149.063507,147.104019 
	C170.543060,147.123688 192.022797,147.063034 213.502090,147.141251 
	C219.329025,147.162476 223.416885,144.930359 225.681946,139.140076 
	C226.000000,153.020889 226.000000,167.041794 226.000000,181.531342 
z"/>
<path fill="#FEFEFE" opacity="1.000000" stroke="none" 
	d="
M226.000000,23.531263 
	C222.725540,17.749746 217.569946,15.535058 210.588486,15.898692 
	C202.477631,16.321150 194.327271,15.938045 186.195374,16.026806 
	C183.048920,16.061150 181.252182,15.093414 180.924072,11.625805 
	C180.467438,6.799591 177.991913,3.271033 173.103149,1.333516 
	C190.564301,1.000000 208.128616,1.000000 226.000000,1.000000 
	C226.000000,8.351326 226.000000,15.706926 226.000000,23.531263 
z"/>
<path fill="#ECECEC" opacity="1.000000" stroke="none" 
	d="
M217.491058,226.000000 
	C220.947830,224.276947 224.437805,222.094742 225.761520,217.250488 
	C226.000000,219.917358 226.000000,222.834702 226.000000,226.000000 
	C223.330002,226.000000 220.656052,226.000000 217.491058,226.000000 
z"/>
<path fill="#FCDA00" opacity="1.000000" stroke="none" 
	d="
M210.941574,139.678467 
	C190.137466,139.748062 169.333282,139.798569 148.529358,139.905380 
	C144.928970,139.923874 143.346390,138.115356 143.342117,134.707230 
	C143.324341,120.556931 143.322708,106.406563 143.343750,92.256264 
	C143.348846,88.831261 144.989197,87.054420 148.569489,87.092537 
	C155.227722,87.163414 161.887604,87.153824 168.546082,87.095840 
	C171.833847,87.067215 173.218140,88.704002 173.762268,91.840218 
	C175.018677,99.082161 178.675598,102.049614 186.052673,102.101135 
	C194.042892,102.156952 202.033615,102.140823 210.497055,102.686287 
	C210.960526,115.370491 210.951050,127.524483 210.941574,139.678467 
M157.971191,115.117012 
	C157.488754,113.511246 157.315247,111.678848 156.380676,110.404755 
	C155.973602,109.849792 153.320145,109.975510 152.889801,110.609108 
	C152.033386,111.869987 151.237061,114.079147 151.798157,115.211754 
	C153.077560,117.794304 155.397003,117.751495 157.971191,115.117012 
M158.182144,127.679642 
	C156.662643,126.802719 155.182220,125.396133 153.606598,125.279823 
	C152.856598,125.224464 151.157196,127.714058 151.292679,128.888809 
	C151.427429,130.057526 153.640137,132.078842 154.379715,131.856567 
	C155.884613,131.404266 157.011124,129.693008 158.182144,127.679642 
z"/>
<path fill="#FCDA00" opacity="1.000000" stroke="none" 
	d="
M210.905609,218.446808 
	C190.110703,218.534012 169.315857,218.636292 148.520859,218.693375 
	C145.102051,218.702759 143.321976,216.946411 143.327118,213.431824 
	C143.347809,199.285614 143.321793,185.139328 143.352097,170.993149 
	C143.359451,167.557999 145.003006,165.871918 148.624710,165.947769 
	C155.112503,166.083618 161.607956,166.098541 168.094696,165.939133 
	C171.570709,165.853729 173.203827,167.232086 173.789734,170.673584 
	C174.998413,177.773163 178.837509,180.919235 186.102814,180.999283 
	C193.757523,181.083633 201.413788,181.029968 209.724411,181.467377 
	C210.554840,194.081039 210.730225,206.263931 210.905609,218.446808 
M152.357513,189.502792 
	C152.421249,191.377701 152.233032,193.324936 152.735199,195.073959 
	C152.852997,195.484238 155.836517,195.797714 156.554428,195.132889 
	C157.535324,194.224548 158.398361,191.481857 157.916870,191.037659 
	C156.714188,189.928085 154.724426,189.671631 152.357513,189.502792 
M155.474533,203.789062 
	C154.006241,204.805664 152.162155,205.578217 151.262329,206.963943 
	C150.922195,207.487717 152.500870,209.934921 153.697159,210.553757 
	C154.574463,211.007614 157.377441,209.923309 157.382446,209.501526 
	C157.404266,207.660706 156.717300,205.811462 155.474533,203.789062 
z"/>
<path fill="#FCDA00" opacity="1.000000" stroke="none" 
	d="
M209.997864,60.845112 
	C189.530136,60.901592 169.062164,60.918407 148.594940,61.051529 
	C144.960907,61.075165 143.355743,59.399895 143.348907,55.978676 
	C143.320602,41.831566 143.342560,27.684364 143.328674,13.537212 
	C143.325241,10.028848 145.096451,8.310738 148.538788,8.297583 
	C155.196167,8.272140 161.853745,8.282068 168.511215,8.293919 
	C171.689407,8.299575 173.228668,9.905359 173.783691,13.066825 
	C175.074509,20.419258 178.478165,23.214113 186.046204,23.306562 
	C194.033981,23.404137 202.023529,23.354504 210.489639,23.901882 
	C210.984467,34.991539 211.044510,45.548782 210.973541,56.105141 
	C210.962906,57.687248 210.338394,59.265224 209.997864,60.845112 
M153.839294,53.169823 
	C155.303452,52.224293 157.224854,51.554985 158.034775,50.214233 
	C158.427292,49.564484 157.012375,46.952145 155.908691,46.518284 
	C154.840607,46.098419 152.044434,47.141594 151.912186,47.882301 
	C151.633408,49.443424 152.600372,51.226997 153.839294,53.169823 
M154.655533,38.264053 
	C155.861511,37.011475 157.601898,35.921455 158.052780,34.439190 
	C158.285675,33.673618 156.326950,31.425886 155.178650,31.281921 
	C153.998367,31.133945 151.495926,32.778122 151.528183,33.557018 
	C151.592911,35.119652 152.989899,36.627102 154.655533,38.264053 
z"/>
<path fill="#6539B4" opacity="1.000000" stroke="none" 
	d="
M16.513500,104.652084 
	C10.173480,102.531029 7.329735,98.760658 8.127169,92.139786 
	C8.656922,87.741394 8.227640,83.227501 8.227640,78.570824 
	C35.862801,90.135551 63.176777,90.151726 90.971016,78.752800 
	C90.971016,85.191124 91.284874,91.625717 90.766853,97.992630 
	C90.623978,99.748688 88.303429,102.112862 86.460449,102.801018 
	C80.444405,105.047409 74.300339,107.349182 68.001610,108.363823 
	C50.751080,111.142639 33.592365,110.563629 16.513500,104.652084 
M22.889091,93.007401 
	C21.220324,92.565163 19.441370,91.588997 17.928299,91.901245 
	C17.147293,92.062408 16.108009,94.797897 16.518446,95.850418 
	C16.944542,96.943108 19.535093,98.342613 20.194832,97.950775 
	C21.517406,97.165253 22.169317,95.250542 22.889091,93.007401 
z"/>
<path fill="#6539B4" opacity="1.000000" stroke="none" 
	d="
M27.856842,145.214325 
	C49.453407,148.697327 70.257210,148.035919 90.985962,139.340607 
	C90.985962,145.720596 91.464996,151.826920 90.729164,157.783188 
	C90.467506,159.901230 87.568970,162.729889 85.333313,163.383087 
	C76.949951,165.832413 68.435219,168.337067 59.799690,169.306747 
	C44.662594,171.006454 29.648767,169.746033 15.236616,164.044098 
	C10.106674,162.014526 7.502649,158.939758 8.132901,153.102997 
	C8.610001,148.684555 8.227424,144.173279 8.227424,139.817200 
	C14.789512,141.636353 21.110279,143.388596 27.856842,145.214325 
M16.781214,156.834274 
	C19.277254,158.836182 21.650005,159.252472 22.967787,155.729385 
	C23.330080,154.760788 22.815069,152.970734 22.051746,152.215149 
	C21.309721,151.480652 19.031963,150.995300 18.654722,151.440201 
	C17.548237,152.745178 17.051811,154.567413 16.781214,156.834274 
z"/>
<path fill="#9A26AD" opacity="1.000000" stroke="none" 
	d="
M41.237793,116.992416 
	C58.437798,117.537445 74.952110,116.662476 90.988159,109.198006 
	C90.988159,115.669785 91.579292,121.697380 90.701843,127.503021 
	C90.342873,129.878143 87.150620,132.938995 84.654716,133.673065 
	C76.422882,136.094131 68.002182,138.284653 59.503231,139.293289 
	C45.338261,140.974380 31.239756,139.742584 17.652971,134.998886 
	C9.025077,131.986526 8.245775,130.681351 8.245683,121.676117 
	C8.245641,117.688408 8.245677,113.700691 8.245677,110.684837 
	C19.120819,112.792908 29.941626,114.890450 41.237793,116.992416 
M23.151138,125.440903 
	C22.154184,123.983002 21.399567,122.157585 20.034723,121.257614 
	C19.526289,120.922371 17.085041,122.490135 16.473631,123.678230 
	C16.018927,124.561821 17.093143,127.359329 17.485167,127.359077 
	C19.314280,127.357925 21.142967,126.680954 23.151138,125.440903 
z"/>
<path fill="#9B27AE" opacity="1.000000" stroke="none" 
	d="
M84.672729,60.158176 
	C85.991768,60.943520 87.032295,61.495216 87.933716,62.219936 
	C92.077049,65.551064 92.357857,68.829216 87.548645,71.105385 
	C80.744675,74.325653 73.485115,77.142860 66.119545,78.499382 
	C51.251324,81.237663 36.311447,80.365753 21.775379,75.866982 
	C18.336161,74.802567 14.953092,73.168030 11.946231,71.185867 
	C7.366804,68.167053 7.501376,65.119278 11.987329,61.852905 
	C13.451392,60.786873 15.066704,59.796093 16.763815,59.202606 
	C39.371300,51.296680 61.912262,50.978706 84.672729,60.158176 
z"/>
<path fill="#E4B206" opacity="1.000000" stroke="none" 
	d="
M211.294250,218.581970 
	C210.730225,206.263931 210.554840,194.081039 210.188324,181.536469 
	C218.279266,180.643646 218.782532,181.116119 218.784439,189.445206 
	C218.786163,196.918396 218.817856,204.391800 218.774002,211.864731 
	C218.740112,217.638351 217.740219,218.561523 211.294250,218.581970 
z"/>
<path fill="#E9B706" opacity="1.000000" stroke="none" 
	d="
M211.348663,139.778442 
	C210.951050,127.524483 210.960526,115.370491 210.955170,102.769028 
	C217.601700,101.856522 218.729797,102.806244 218.758102,109.118073 
	C218.793869,117.091583 218.797821,125.065536 218.756470,133.039001 
	C218.725906,138.929321 217.786697,139.804291 211.348663,139.778442 
z"/>
<path fill="#EBB806" opacity="1.000000" stroke="none" 
	d="
M210.420532,60.932709 
	C210.338394,59.265224 210.962906,57.687248 210.973541,56.105141 
	C211.044510,45.548782 210.984467,34.991539 210.941132,24.005318 
	C217.351593,22.973089 218.723175,24.121876 218.753510,30.321079 
	C218.790833,37.942986 218.767929,45.565216 218.760971,53.187298 
	C218.754272,60.546070 218.230118,61.058929 210.420532,60.932709 
z"/>
<path fill="#080700" opacity="1.000000" stroke="none" 
	d="
M157.769226,115.479141 
	C155.397003,117.751495 153.077560,117.794304 151.798157,115.211754 
	C151.237061,114.079147 152.033386,111.869987 152.889801,110.609108 
	C153.320145,109.975510 155.973602,109.849792 156.380676,110.404755 
	C157.315247,111.678848 157.488754,113.511246 157.769226,115.479141 
z"/>
<path fill="#080700" opacity="1.000000" stroke="none" 
	d="
M158.237854,128.090088 
	C157.011124,129.693008 155.884613,131.404266 154.379715,131.856567 
	C153.640137,132.078842 151.427429,130.057526 151.292679,128.888809 
	C151.157196,127.714058 152.856598,125.224464 153.606598,125.279823 
	C155.182220,125.396133 156.662643,126.802719 158.237854,128.090088 
z"/>
<path fill="#0B0A00" opacity="1.000000" stroke="none" 
	d="
M152.704010,189.287811 
	C154.724426,189.671631 156.714188,189.928085 157.916870,191.037659 
	C158.398361,191.481857 157.535324,194.224548 156.554428,195.132889 
	C155.836517,195.797714 152.852997,195.484238 152.735199,195.073959 
	C152.233032,193.324936 152.421249,191.377701 152.704010,189.287811 
z"/>
<path fill="#0A0900" opacity="1.000000" stroke="none" 
	d="
M155.881104,203.877167 
	C156.717300,205.811462 157.404266,207.660706 157.382446,209.501526 
	C157.377441,209.923309 154.574463,211.007614 153.697159,210.553757 
	C152.500870,209.934921 150.922195,207.487717 151.262329,206.963943 
	C152.162155,205.578217 154.006241,204.805664 155.881104,203.877167 
z"/>
<path fill="#0B0A00" opacity="1.000000" stroke="none" 
	d="
M153.447723,53.044556 
	C152.600372,51.226997 151.633408,49.443424 151.912186,47.882301 
	C152.044434,47.141594 154.840607,46.098419 155.908691,46.518284 
	C157.012375,46.952145 158.427292,49.564484 158.034775,50.214233 
	C157.224854,51.554985 155.303452,52.224293 153.447723,53.044556 
z"/>
<path fill="#0B0900" opacity="1.000000" stroke="none" 
	d="
M154.246246,38.210693 
	C152.989899,36.627102 151.592911,35.119652 151.528183,33.557018 
	C151.495926,32.778122 153.998367,31.133945 155.178650,31.281921 
	C156.326950,31.425886 158.285675,33.673618 158.052780,34.439190 
	C157.601898,35.921455 155.861511,37.011475 154.246246,38.210693 
z"/>
<path fill="#030206" opacity="1.000000" stroke="none" 
	d="
M22.993584,93.404678 
	C22.169317,95.250542 21.517406,97.165253 20.194832,97.950775 
	C19.535093,98.342613 16.944542,96.943108 16.518446,95.850418 
	C16.108009,94.797897 17.147293,92.062408 17.928299,91.901245 
	C19.441370,91.588997 21.220324,92.565163 22.993584,93.404678 
z"/>
<path fill="#050309" opacity="1.000000" stroke="none" 
	d="
M16.548828,156.510666 
	C17.051811,154.567413 17.548237,152.745178 18.654722,151.440201 
	C19.031963,150.995300 21.309721,151.480652 22.051746,152.215149 
	C22.815069,152.970734 23.330080,154.760788 22.967787,155.729385 
	C21.650005,159.252472 19.277254,158.836182 16.548828,156.510666 
z"/>
<path fill="#050105" opacity="1.000000" stroke="none" 
	d="
M23.061474,125.843262 
	C21.142967,126.680954 19.314280,127.357925 17.485167,127.359077 
	C17.093143,127.359329 16.018927,124.561821 16.473631,123.678230 
	C17.085041,122.490135 19.526289,120.922371 20.034723,121.257614 
	C21.399567,122.157585 22.154184,123.983002 23.061474,125.843262 
z"/>
</svg>