<svg version="1.1" id="Layer_1" xmlns="http://www.w3.org/2000/svg" xmlns:xlink="http://www.w3.org/1999/xlink" x="0px" y="0px"
	 width="100%" viewBox="0 0 225 225" enable-background="new 0 0 225 225" xml:space="preserve">
<path fill="#FFFEFE" opacity="1.000000" stroke="none" 
	d="
M135.000000,226.000000 
	C90.000000,226.000000 45.500004,226.000000 1.000006,226.000000 
	C1.000004,151.000000 1.000004,76.000015 1.000002,1.000016 
	C75.999992,1.000011 150.999985,1.000011 225.999969,1.000005 
	C225.999985,75.999985 225.999985,150.999969 226.000000,225.999969 
	C195.833328,226.000000 165.666672,226.000000 135.000000,226.000000 
M3.270934,142.855286 
	C3.260372,146.352844 3.686510,149.918869 3.151220,153.334183 
	C1.916154,161.214294 5.700524,165.517532 12.583664,168.009308 
	C13.516966,168.347153 14.414269,168.783905 15.330581,169.169296 
	C43.181141,180.882599 71.129745,192.370743 98.828674,204.432251 
	C108.253815,208.536438 116.842972,208.497147 126.090698,204.241135 
	C144.934998,195.568604 164.003220,187.383453 182.958023,178.949875 
	C194.331360,173.889511 205.699692,168.814789 216.995697,163.585403 
	C220.611328,161.911575 223.772049,159.523941 223.749985,154.898743 
	C223.723007,149.241272 223.621277,143.584152 223.771866,137.215179 
	C223.391647,131.914490 219.393799,130.321289 215.474365,128.283325 
	C219.210464,126.001686 223.546570,124.077843 223.703918,118.864250 
	C223.874100,113.224876 223.620163,107.572708 223.776535,101.181999 
	C222.752594,99.312294 222.111725,97.007706 220.607788,95.682938 
	C218.726807,94.026077 216.136307,93.174713 214.033020,91.293602 
	C218.022171,88.735970 223.325760,87.295197 223.399857,81.224419 
	C223.469849,75.490417 223.251221,69.752884 223.487656,63.419014 
	C224.310196,58.658207 220.913895,57.109558 217.486343,55.761559 
	C202.989838,50.060329 188.467148,44.425526 173.947174,38.784122 
	C159.395752,33.130505 144.855118,27.448395 130.272385,21.876541 
	C122.751274,19.002832 115.132729,17.975100 107.293427,20.962046 
	C99.079803,24.091614 90.721497,26.843349 82.522583,30.009237 
	C58.541504,39.269161 34.598743,48.628677 10.665006,58.010494 
	C6.237880,59.745892 1.744043,61.634457 3.131445,68.858925 
	C3.124057,70.336006 3.251661,71.828285 3.087277,73.287682 
	C2.054179,82.459557 2.600251,90.879402 12.172971,94.965111 
	C8.082548,97.250572 1.739879,97.563805 3.272151,105.857574 
	C3.261624,108.519806 3.508118,111.212959 3.192301,113.838470 
	C2.251039,121.663544 3.507401,128.326675 10.964313,131.885925 
	C6.490041,133.758713 1.738154,135.423676 3.270934,142.855286 
z"/>
<path fill="#D82D21" opacity="1.000000" stroke="none" 
	d="
M3.272683,67.910965 
	C1.744043,61.634457 6.237880,59.745892 10.665006,58.010494 
	C34.598743,48.628677 58.541504,39.269161 82.522583,30.009237 
	C90.721497,26.843349 99.079803,24.091614 107.293427,20.962046 
	C115.132729,17.975100 122.751274,19.002832 130.272385,21.876541 
	C144.855118,27.448395 159.395752,33.130505 173.947174,38.784122 
	C188.467148,44.425526 202.989838,50.060329 217.486343,55.761559 
	C220.913895,57.109558 224.310196,58.658207 222.963226,63.752716 
	C217.795990,66.615036 213.300827,69.475517 208.485962,71.617355 
	C181.208939,83.751236 153.840927,95.680397 126.536835,107.753792 
	C118.576111,111.273872 110.616653,113.130341 102.138969,109.549171 
	C74.490128,97.869637 46.817982,86.245277 19.154911,74.599426 
	C13.860573,72.370567 8.566746,70.140488 3.272683,67.910965 
M164.314423,50.099396 
	C153.942657,54.158520 143.570877,58.217648 133.199112,62.276772 
	C133.128235,62.702179 133.057373,63.127586 132.986496,63.552990 
	C133.448502,63.736816 133.911438,63.918373 134.372406,64.104782 
	C142.955154,67.575722 151.493332,71.166603 160.168808,74.387787 
	C161.445633,74.861870 163.373352,73.582939 165.765198,73.055611 
	C175.313644,69.381256 184.862106,65.706909 195.540085,61.597908 
	C184.564423,57.445293 174.816086,53.757034 164.314423,50.099396 
M94.704742,66.114922 
	C96.397079,61.693703 95.192146,59.141350 89.777969,56.681198 
	C79.223770,51.885460 68.105202,51.902843 57.010555,53.788357 
	C52.701256,54.520714 48.332981,56.202835 44.551285,58.410912 
	C39.940613,61.103012 39.874794,64.926575 44.273117,67.903786 
	C51.905685,73.070251 60.792149,74.431778 69.788124,74.739212 
	C72.164169,74.820404 74.570885,73.313461 76.979683,73.259666 
	C83.572685,73.112457 89.168861,70.684410 94.704742,66.114922 
M127.476250,75.070038 
	C112.862885,77.326332 98.249519,79.582626 83.636147,81.838921 
	C83.641129,82.139328 83.646103,82.439728 83.651077,82.740135 
	C94.988457,87.409462 106.325836,92.078789 117.910179,96.849831 
	C122.865654,89.626518 127.594681,82.733276 132.878235,75.031746 
	C130.558197,75.031746 129.443222,75.031746 127.476250,75.070038 
M104.821724,31.954618 
	C103.977837,31.733122 103.133949,31.511627 101.810005,31.164133 
	C103.448761,34.311523 104.799759,36.906269 106.287056,39.762779 
	C101.187897,41.701164 96.455269,43.500217 90.757912,45.666000 
	C101.873619,47.777840 114.476845,44.113586 118.559921,59.702118 
	C119.814392,57.088810 120.673691,55.976883 120.877235,54.755661 
	C121.698654,49.827335 125.462395,48.904640 129.406952,48.366947 
	C133.150650,47.856632 136.934860,47.643345 140.701248,47.299442 
	C140.721527,46.989738 140.741806,46.680038 140.762085,46.370335 
	C136.517960,44.716911 132.273819,43.063484 127.772171,41.309731 
	C128.949432,38.234562 130.027557,35.418388 131.638062,31.211569 
	C122.124481,36.466389 113.801834,37.221943 104.821724,31.954618 
z"/>
<path fill="#A41E11" opacity="1.000000" stroke="none" 
	d="
M223.551224,101.926117 
	C223.620163,107.572708 223.874100,113.224876 223.703918,118.864250 
	C223.546570,124.077843 219.210464,126.001686 214.978912,128.641174 
	C185.013809,141.988800 155.543289,154.976562 126.075134,167.969711 
	C118.113487,171.480179 110.262550,173.165024 101.652451,169.410583 
	C80.050697,159.991180 58.282925,150.951126 36.548660,141.837799 
	C28.302353,138.380066 19.965393,135.138504 11.669755,131.798416 
	C3.507401,128.326675 2.251039,121.663544 3.192301,113.838470 
	C3.508118,111.212959 3.261624,108.519806 3.700433,105.446533 
	C8.571824,107.243835 12.913060,109.693375 17.475067,111.620209 
	C41.780090,121.885796 66.135429,132.032379 90.485374,142.191376 
	C95.842949,144.426605 101.095161,147.147583 106.669960,148.573059 
	C114.596634,150.599945 121.932220,147.719986 129.199387,144.441833 
	C153.411331,133.519989 177.766068,122.915199 202.024323,112.095284 
	C209.270325,108.863342 216.379410,105.324402 223.551224,101.926117 
z"/>
<path fill="#A41E11" opacity="1.000000" stroke="none" 
	d="
M3.202064,68.384949 
	C8.566746,70.140488 13.860573,72.370567 19.154911,74.599426 
	C46.817982,86.245277 74.490128,97.869637 102.138969,109.549171 
	C110.616653,113.130341 118.576111,111.273872 126.536835,107.753792 
	C153.840927,95.680397 181.208939,83.751236 208.485962,71.617355 
	C213.300827,69.475517 217.795990,66.615036 222.799179,64.051666 
	C223.251221,69.752884 223.469849,75.490417 223.399857,81.224419 
	C223.325760,87.295197 218.022171,88.735970 213.576111,91.633469 
	C212.628616,92.061226 212.096420,92.054848 211.653397,92.250458 
	C182.647507,105.057899 153.645523,117.874222 124.651993,130.709625 
	C117.942162,133.680054 111.124092,135.413620 103.963486,132.428619 
	C83.284744,123.808395 62.648735,115.085403 41.952988,106.506401 
	C32.318359,102.512573 22.584408,98.758331 12.895479,94.895485 
	C2.600251,90.879402 2.054179,82.459557 3.087277,73.287682 
	C3.251661,71.828285 3.124057,70.336006 3.202064,68.384949 
z"/>
<path fill="#A41E12" opacity="1.000000" stroke="none" 
	d="
M223.551849,137.926880 
	C223.621277,143.584152 223.723007,149.241272 223.749985,154.898743 
	C223.772049,159.523941 220.611328,161.911575 216.995697,163.585403 
	C205.699692,168.814789 194.331360,173.889511 182.958023,178.949875 
	C164.003220,187.383453 144.934998,195.568604 126.090698,204.241135 
	C116.842972,208.497147 108.253815,208.536438 98.828674,204.432251 
	C71.129745,192.370743 43.181141,180.882599 15.330581,169.169296 
	C14.414269,168.783905 13.516966,168.347153 12.583664,168.009308 
	C5.700524,165.517532 1.916154,161.214294 3.151220,153.334183 
	C3.686510,149.918869 3.260372,146.352844 3.718563,142.422897 
	C8.079284,143.697449 11.978937,145.435989 15.907620,147.106247 
	C43.267132,158.737991 70.710258,170.177811 97.955566,182.070923 
	C107.936317,186.427719 117.344810,186.998428 126.975975,181.585495 
	C130.154770,179.798935 133.546112,178.374100 136.895508,176.910248 
	C158.510513,167.463547 180.178192,158.136261 201.745468,148.582123 
	C209.137100,145.307693 216.289917,141.494125 223.551849,137.926880 
z"/>
<path fill="#D72D21" opacity="1.000000" stroke="none" 
	d="
M12.534225,94.930298 
	C22.584408,98.758331 32.318359,102.512573 41.952988,106.506401 
	C62.648735,115.085403 83.284744,123.808395 103.963486,132.428619 
	C111.124092,135.413620 117.942162,133.680054 124.651993,130.709625 
	C153.645523,117.874222 182.647507,105.057899 211.653397,92.250458 
	C212.096420,92.054848 212.628616,92.061226 213.485657,91.974472 
	C216.136307,93.174713 218.726807,94.026077 220.607788,95.682938 
	C222.111725,97.007706 222.752594,99.312294 223.663879,101.554062 
	C216.379410,105.324402 209.270325,108.863342 202.024323,112.095284 
	C177.766068,122.915199 153.411331,133.519989 129.199387,144.441833 
	C121.932220,147.719986 114.596634,150.599945 106.669960,148.573059 
	C101.095161,147.147583 95.842949,144.426605 90.485374,142.191376 
	C66.135429,132.032379 41.780090,121.885796 17.475067,111.620209 
	C12.913060,109.693375 8.571824,107.243835 3.788849,104.981613 
	C1.739879,97.563805 8.082548,97.250572 12.534225,94.930298 
z"/>
<path fill="#D72D21" opacity="1.000000" stroke="none" 
	d="
M223.661865,137.571030 
	C216.289917,141.494125 209.137100,145.307693 201.745468,148.582123 
	C180.178192,158.136261 158.510513,167.463547 136.895508,176.910248 
	C133.546112,178.374100 130.154770,179.798935 126.975975,181.585495 
	C117.344810,186.998428 107.936317,186.427719 97.955566,182.070923 
	C70.710258,170.177811 43.267132,158.737991 15.907620,147.106247 
	C11.978937,145.435989 8.079284,143.697449 3.807195,141.958282 
	C1.738154,135.423676 6.490041,133.758713 11.317034,131.842163 
	C19.965393,135.138504 28.302353,138.380066 36.548660,141.837799 
	C58.282925,150.951126 80.050697,159.991180 101.652451,169.410583 
	C110.262550,173.165024 118.113487,171.480179 126.075134,167.969711 
	C155.543289,154.976562 185.013809,141.988800 214.861176,128.944031 
	C219.393799,130.321289 223.391647,131.914490 223.661865,137.571030 
z"/>
<path fill="#FEFBFB" opacity="1.000000" stroke="none" 
	d="
M94.464058,66.395630 
	C89.168861,70.684410 83.572685,73.112457 76.979683,73.259666 
	C74.570885,73.313461 72.164169,74.820404 69.788124,74.739212 
	C60.792149,74.431778 51.905685,73.070251 44.273117,67.903786 
	C39.874794,64.926575 39.940613,61.103012 44.551285,58.410912 
	C48.332981,56.202835 52.701256,54.520714 57.010555,53.788357 
	C68.105202,51.902843 79.223770,51.885460 89.777969,56.681198 
	C95.192146,59.141350 96.397079,61.693703 94.464058,66.395630 
z"/>
<path fill="#FEF9F9" opacity="1.000000" stroke="none" 
	d="
M127.902237,75.050888 
	C129.443222,75.031746 130.558197,75.031746 132.878235,75.031746 
	C127.594681,82.733276 122.865654,89.626518 117.910179,96.849831 
	C106.325836,92.078789 94.988457,87.409462 83.651077,82.740135 
	C83.646103,82.439728 83.641129,82.139328 83.636147,81.838921 
	C98.249519,79.582626 112.862885,77.326332 127.902237,75.050888 
z"/>
<path fill="#FDF7F7" opacity="1.000000" stroke="none" 
	d="
M105.179077,32.058147 
	C113.801834,37.221943 122.124481,36.466389 131.638062,31.211569 
	C130.027557,35.418388 128.949432,38.234562 127.772171,41.309731 
	C132.273819,43.063484 136.517960,44.716911 140.762085,46.370335 
	C140.741806,46.680038 140.721527,46.989738 140.701248,47.299442 
	C136.934860,47.643345 133.150650,47.856632 129.406952,48.366947 
	C125.462395,48.904640 121.698654,49.827335 120.877235,54.755661 
	C120.673691,55.976883 119.814392,57.088810 118.559921,59.702118 
	C114.476845,44.113586 101.873619,47.777840 90.757912,45.666000 
	C96.455269,43.500217 101.187897,41.701164 106.287056,39.762779 
	C104.799759,36.906269 103.448761,34.311523 101.810005,31.164133 
	C103.133949,31.511627 103.977837,31.733122 105.179077,32.058147 
z"/>
<path fill="#AE2115" opacity="1.000000" stroke="none" 
	d="
M164.999908,73.115097 
	C163.373352,73.582939 161.445633,74.861870 160.168808,74.387787 
	C151.493332,71.166603 142.955154,67.575722 134.372406,64.104782 
	C133.911438,63.918373 133.448502,63.736816 132.986496,63.552990 
	C133.057373,63.127586 133.128235,62.702179 133.199112,62.276772 
	C143.570877,58.217648 153.942657,54.158520 164.668549,50.545277 
	C165.015091,58.365803 165.007492,65.740448 164.999908,73.115097 
z"/>
<path fill="#7C0D01" opacity="1.000000" stroke="none" 
	d="
M165.382553,73.085358 
	C165.007492,65.740448 165.015091,58.365803 165.045227,50.529968 
	C174.816086,53.757034 184.564423,57.445293 195.540085,61.597908 
	C184.862106,65.706909 175.313644,69.381256 165.382553,73.085358 
z"/>
</svg>