<svg version="1.1" id="Layer_1" xmlns="http://www.w3.org/2000/svg" xmlns:xlink="http://www.w3.org/1999/xlink" x="0px" y="0px"
	 width="100%" viewBox="0 0 225 225" enable-background="new 0 0 225 225" xml:space="preserve">
<path fill="#020202" opacity="1.000000" stroke="none" 
	d="
M112.000000,1.000002 
	C112.750000,1.000000 113.500000,1.000000 114.827972,1.270394 
	C117.234398,4.301909 119.167847,7.000427 120.861771,9.841744 
	C122.559258,12.689030 124.260895,13.257833 126.583733,10.530309 
	C128.309509,8.503865 130.123734,6.545187 131.996765,4.653563 
	C134.512558,2.112792 136.670258,2.365783 138.087692,5.778666 
	C139.167053,8.377577 140.108093,11.034370 141.092041,13.672359 
	C142.175095,16.576126 143.771561,17.194080 146.327347,15.124469 
	C148.257553,13.561432 150.372910,12.221547 152.443161,10.838142 
	C156.451096,8.159914 158.254761,9.001642 159.023041,13.873072 
	C159.385254,16.169853 159.829086,18.459700 160.056625,20.770344 
	C160.368179,23.934519 161.820999,24.892950 164.736618,23.534006 
	C167.140640,22.413511 169.516235,21.219913 171.971680,20.224590 
	C176.089417,18.555458 177.828598,19.865541 177.657013,24.419437 
	C177.569290,26.747707 177.414185,29.074213 177.248413,31.398582 
	C177.022842,34.561028 177.872253,36.260754 181.521790,35.080463 
	C184.035263,34.267586 186.657455,33.770142 189.252151,33.233936 
	C193.147858,32.428875 194.641922,33.818172 193.961502,37.789928 
	C193.486801,40.560959 192.700195,43.279865 192.021988,46.014378 
	C191.322678,48.833855 192.348969,50.114017 195.293121,49.937862 
	C197.951630,49.778790 200.618713,49.671783 203.281082,49.688705 
	C207.782593,49.717312 208.727219,51.131248 206.983002,55.179443 
	C206.067917,57.303265 205.086380,59.407497 203.987885,61.441185 
	C202.234207,64.687859 202.398956,66.816124 206.740875,67.130165 
	C208.719925,67.273300 210.678375,67.721092 212.641846,68.056000 
	C217.725525,68.923126 218.610229,70.893021 215.773468,75.083595 
	C214.470032,77.009079 213.047531,78.855118 211.774048,80.799416 
	C210.204315,83.195961 210.332367,85.110687 213.423508,86.178871 
	C215.612595,86.935349 217.748535,87.848984 219.894806,88.725258 
	C224.727264,90.698265 225.030914,92.447495 221.150528,96.105064 
	C219.576370,97.588821 217.898010,98.962502 216.333038,100.455429 
	C214.171249,102.517715 214.227890,104.409576 216.864655,106.081741 
	C219.928604,108.024803 222.956482,110.024742 226.000000,112.000000 
	C226.000000,112.750000 226.000000,113.500000 225.655579,114.675385 
	C222.438553,117.025223 219.303726,118.671631 216.822662,121.011307 
	C215.833450,121.944130 215.515793,124.893814 216.254257,126.071251 
	C217.619553,128.248138 220.009750,129.773376 221.934753,131.610153 
	C224.750275,134.296600 224.405365,136.487274 220.785904,138.004242 
	C218.654312,138.897629 216.513168,139.805649 214.305267,140.471497 
	C210.114319,141.735413 210.018738,143.936554 212.480240,147.031418 
	C213.923462,148.846008 215.208527,150.787827 216.538284,152.690918 
	C218.840256,155.985382 217.726517,157.913757 214.036255,158.672806 
	C211.762543,159.140488 209.471909,159.679596 207.167358,159.811935 
	C202.282852,160.092377 202.136963,162.505920 203.977371,166.116089 
	C205.027771,168.176620 206.120117,170.247116 206.861679,172.426086 
	C207.869720,175.388077 206.963348,177.379227 203.462906,177.343643 
	C200.969086,177.318283 198.474701,177.220703 195.983490,177.096680 
	C192.394531,176.917984 190.536911,177.995651 191.866211,182.034149 
	C192.586853,184.223557 192.874268,186.555771 193.353958,188.824219 
	C194.267258,193.143204 192.742355,194.624176 188.356949,193.623367 
	C186.419281,193.181152 184.481949,192.713318 182.582489,192.132736 
	C178.627136,190.923798 176.480804,191.824753 176.965454,196.460022 
	C177.206711,198.767395 177.087051,201.113190 177.117325,203.441757 
	C177.164932,207.102875 175.434311,208.317963 172.058319,206.953476 
	C169.915268,206.087296 167.801239,205.117828 165.765549,204.024582 
	C162.377777,202.205261 160.122574,202.193146 159.824371,206.900192 
	C159.668091,209.366821 159.099121,211.821396 158.558350,214.246140 
	C157.824036,217.538773 155.730011,218.186356 153.005615,216.560745 
	C150.733612,215.205048 148.591873,213.612396 146.484283,212.004318 
	C143.519623,209.742294 141.757751,210.406067 140.702332,213.948288 
	C139.996460,216.317429 138.981903,218.597763 138.052170,220.896301 
	C136.629532,224.413406 134.529404,225.145370 131.720383,222.281326 
	C130.090927,220.619965 128.415237,218.978928 126.984802,217.152893 
	C124.424286,213.884201 122.378830,213.871063 120.289886,217.630493 
	C118.689415,220.510803 116.774857,223.216583 115.000000,226.000000 
	C114.250000,226.000000 113.500000,226.000000 112.172058,225.729614 
	C110.726028,224.249985 109.786133,223.085419 109.001335,221.824326 
	C103.335793,212.720413 104.315697,212.139435 96.701225,220.508194 
	C92.026703,225.645752 90.390923,225.313980 87.986267,218.926605 
	C83.944954,208.191833 85.110435,208.718216 75.834915,215.266327 
	C70.171341,219.264511 68.943672,218.582657 67.826286,211.717056 
	C66.210289,201.787766 67.832054,200.599640 57.083935,205.740448 
	C50.933403,208.682251 49.508354,207.632904 49.773190,200.747513 
	C50.158279,190.735718 50.159142,190.739456 40.609200,192.946274 
	C39.801308,193.132965 38.965439,193.195770 38.152828,193.365311 
	C33.834740,194.266373 32.384270,192.748978 33.380497,188.332047 
	C33.927685,185.905991 34.370636,183.445236 35.101967,181.074600 
	C36.109863,177.807480 34.755917,176.824432 31.702005,176.979630 
	C29.042738,177.114746 26.374262,177.058060 23.710722,177.122162 
	C19.620390,177.220581 18.717596,175.184723 20.134823,171.712570 
	C20.946507,169.724030 21.834719,167.752426 22.867531,165.871506 
	C24.845087,162.270020 24.601744,159.932693 19.844004,159.489014 
	C17.371969,159.258484 14.929304,158.692154 12.480394,158.239548 
	C9.015680,157.599167 8.496729,155.583206 10.207577,152.847427 
	C11.525903,150.739319 13.009587,148.717621 14.580360,146.788254 
	C17.138515,143.646133 16.810940,141.532700 12.730864,140.265152 
	C10.208046,139.481400 7.693597,138.590210 5.308458,137.465149 
	C2.621769,136.197845 2.045915,134.223251 4.313486,131.966187 
	C6.317891,129.971069 8.346127,127.989601 10.485214,126.142670 
	C13.157408,123.835457 12.774886,122.118195 9.833105,120.440674 
	C6.830832,118.728661 3.939757,116.821640 1.000000,115.000000 
	C1.000000,113.933151 1.000000,112.866295 1.355457,111.446556 
	C4.646658,109.228210 7.580764,107.360176 10.518682,105.498154 
	C12.708583,104.110222 12.991077,102.545654 11.012581,100.717049 
	C8.813283,98.684380 6.572184,96.691170 4.465459,94.565643 
	C2.116620,92.195831 2.422122,90.127861 5.575571,88.806564 
	C8.323163,87.655334 11.141838,86.674637 13.920517,85.596451 
	C16.521252,84.587311 17.196440,83.105171 15.301598,80.714149 
	C13.549927,78.503792 11.908230,76.191818 10.388517,73.815598 
	C8.281777,70.521492 9.141823,68.713051 13.079279,67.951393 
	C15.197737,67.541603 17.336060,67.224396 19.474073,66.927803 
	C24.726273,66.199211 25.049978,65.608009 22.766569,60.597916 
	C21.872068,58.635269 20.827343,56.734352 20.040310,54.730965 
	C18.715828,51.359505 19.924799,49.595123 23.596054,49.664883 
	C25.094242,49.693352 26.590721,49.803253 28.088842,49.845184 
	C36.089886,50.069134 36.090553,50.065613 34.179245,42.025551 
	C33.834400,40.574932 33.400269,39.139996 33.150475,37.673443 
	C32.555344,34.179420 34.050495,32.510406 37.584515,33.142151 
	C40.353966,33.637215 43.113445,34.283764 45.802834,35.106586 
	C49.099495,36.115200 50.061546,34.680157 49.917934,31.684185 
	C49.814297,29.522255 49.794838,27.356394 49.727081,25.192621 
	C49.541279,19.259052 50.830238,18.421112 56.460789,20.843710 
	C58.438187,21.694506 60.416180,22.546221 62.369129,23.450987 
	C65.222641,24.772970 66.733063,24.058538 67.059441,20.770599 
	C67.337738,17.966932 67.828369,15.168312 68.452980,12.419241 
	C69.180923,9.215371 71.129547,8.358968 73.935524,10.218425 
	C76.287346,11.776926 78.543022,13.480434 80.842766,15.117642 
	C83.223442,16.812475 85.055061,16.926994 86.080292,13.599863 
	C86.760536,11.392335 87.765114,9.284816 88.623184,7.132005 
	C90.685753,1.957188 92.350433,1.648366 96.271225,5.742018 
	C97.537849,7.064490 98.868805,8.346862 99.976715,9.795644 
	C102.854698,13.559088 104.905342,12.696079 106.925674,8.932094 
	C108.405754,6.174614 110.293793,3.636107 112.000000,1.000002 
M57.477631,52.039665 
	C55.861443,53.696400 54.245255,55.353138 51.858944,57.799324 
	C54.938591,57.799324 56.575031,57.799313 58.211472,57.799324 
	C84.863991,57.799545 111.516991,57.705807 138.168793,57.844318 
	C149.483994,57.903122 158.851852,62.464741 165.527313,71.713600 
	C172.174057,80.922699 171.411835,91.681526 163.613922,99.926865 
	C160.597076,103.116791 157.052322,105.807465 153.378632,109.051842 
	C160.400146,113.544373 164.153351,120.165787 165.903198,128.081650 
	C167.220459,134.040573 170.095703,136.236069 175.922379,135.931610 
	C181.524399,135.638885 185.315155,132.229996 185.878464,126.697433 
	C186.123550,124.290405 185.919617,121.837646 185.919617,118.989586 
	C189.582672,118.989586 192.505692,118.989586 195.358078,118.989586 
	C197.269608,105.613632 197.193237,105.471985 185.736115,100.455086 
	C184.220474,99.791397 182.680527,99.175224 181.201462,98.437508 
	C176.894394,96.289284 175.797729,93.573639 177.655472,89.095520 
	C179.558472,84.508293 181.490021,79.914490 183.763519,75.506386 
	C185.098923,72.917152 184.655853,71.046707 183.168060,68.749001 
	C171.457169,50.662884 155.191635,38.926464 134.529633,32.942726 
	C130.300705,31.718027 127.278168,32.175926 124.441269,35.527199 
	C122.732811,37.545425 120.576767,39.185169 118.618843,40.991726 
	C113.916580,45.330475 111.635857,45.325958 107.224640,40.917622 
	C104.987740,38.682186 102.540245,36.594124 100.654732,34.088226 
	C98.765778,31.577763 96.589226,31.620546 94.075409,32.301651 
	C80.583931,35.957096 68.297211,41.878422 57.477631,52.039665 
M129.046432,131.645859 
	C127.301102,125.631248 123.427391,121.621025 117.152275,121.206329 
	C109.899368,120.727020 102.590469,121.094818 94.957092,121.094818 
	C94.957092,126.196388 94.957092,130.940582 94.957092,136.387634 
	C101.758087,136.387634 108.625389,136.387634 115.457458,136.387634 
	C115.457458,145.016785 115.457458,152.950302 115.457458,161.567963 
	C92.752930,161.567963 70.292267,161.567963 47.414177,161.567963 
	C53.010448,170.436752 53.080143,170.464066 61.938084,168.367020 
	C63.713650,167.946671 65.487114,167.505615 67.279678,167.171310 
	C71.351334,166.411987 74.122765,167.901611 75.146568,172.035202 
	C76.143616,176.060791 76.742699,180.212357 78.084656,184.113159 
	C78.724602,185.973358 80.360435,188.152817 82.092155,188.873672 
	C100.423134,196.504425 119.112549,196.931900 138.191498,191.611176 
	C144.968887,189.721100 149.310547,186.563965 149.446365,179.075180 
	C149.472946,177.610519 149.994568,176.147751 150.342468,174.697220 
	C151.940872,168.033005 154.238907,166.609116 160.988464,168.091858 
	C162.284302,168.376526 163.563309,168.737396 164.857956,169.028000 
	C173.093124,170.876511 174.727493,170.059174 178.846741,161.833817 
	C169.077316,161.833817 159.456192,161.833939 149.835068,161.833771 
	C140.884262,161.833618 135.241592,157.622345 132.975494,148.896088 
	C131.559967,143.445236 130.513428,137.898575 129.046432,131.645859 
M34.926392,135.371933 
	C42.498379,135.371933 50.070366,135.371933 57.589603,135.371933 
	C57.589603,117.587639 57.589603,100.265945 57.589603,83.006851 
	C53.765491,83.006851 50.308079,83.006851 46.474773,83.006851 
	C47.057034,84.653709 47.499832,86.047867 48.038048,87.404152 
	C50.515522,93.647354 49.820080,95.485458 43.811104,98.293938 
	C40.522648,99.830910 37.125366,101.166069 33.963238,102.926483 
	C32.756409,103.598358 31.341694,105.156387 31.260954,106.391579 
	C30.631182,116.026154 30.816696,125.626129 34.926392,135.371933 
M115.430275,83.104240 
	C108.677223,83.104240 101.924171,83.104240 94.952209,83.104240 
	C94.952209,88.705124 94.952209,93.745071 94.952209,98.891350 
	C103.967888,98.891350 112.601181,98.965767 121.231483,98.838219 
	C123.347839,98.806946 125.827934,98.678764 127.472855,97.587921 
	C129.625320,96.160500 132.378845,93.824692 132.533005,91.709061 
	C132.687180,89.593651 130.428741,86.133247 128.386642,85.283058 
	C124.724335,83.758339 120.431679,83.747658 115.430275,83.104240 
M35.602219,94.235229 
	C39.529251,92.407448 41.066273,89.356110 39.426571,85.338852 
	C38.109314,82.111565 35.397842,80.388329 31.819805,81.417274 
	C28.266098,82.439209 26.056841,84.922188 26.692108,88.801399 
	C27.429941,93.306946 30.382130,95.180603 35.602219,94.235229 
M194.731323,81.982597 
	C188.316925,81.687004 184.149841,85.890121 186.685837,90.577293 
	C187.783737,92.606476 190.891724,94.745987 193.021027,94.681122 
	C195.135651,94.616707 197.994080,92.262787 199.049561,90.168610 
	C200.790482,86.714417 198.700806,83.888931 194.731323,81.982597 
M106.612015,26.038221 
	C105.845985,29.904924 107.589668,32.958229 111.051216,33.668892 
	C113.307877,34.132191 116.625069,32.985546 118.409073,31.382532 
	C121.262306,28.818760 120.213783,24.102425 117.034554,21.933899 
	C113.567734,19.569214 109.782684,20.827923 106.612015,26.038221 
M65.666397,175.922791 
	C61.500332,174.870483 58.367699,176.318359 57.102970,180.353043 
	C55.994820,183.888214 57.285976,186.966064 60.907009,188.447800 
	C64.498611,189.917496 67.539085,188.722198 69.263809,185.383255 
	C71.230049,181.576752 70.004501,178.377228 65.666397,175.922791 
M156.019852,181.726105 
	C157.445175,184.094543 158.364334,187.397675 160.458191,188.531555 
	C162.091888,189.416245 165.848679,188.297867 167.430496,186.783356 
	C168.816437,185.456421 169.391556,181.987061 168.660263,180.113907 
	C167.949020,178.292130 165.285385,176.564774 163.190033,176.100586 
	C159.647202,175.315720 157.315018,177.608490 156.019852,181.726105 
z"/>
<path fill="#FDFDFD" opacity="1.000000" stroke="none" 
	d="
M115.468658,226.000000 
	C116.774857,223.216583 118.689415,220.510803 120.289886,217.630493 
	C122.378830,213.871063 124.424286,213.884201 126.984802,217.152893 
	C128.415237,218.978928 130.090927,220.619965 131.720383,222.281326 
	C134.529404,225.145370 136.629532,224.413406 138.052170,220.896301 
	C138.981903,218.597763 139.996460,216.317429 140.702332,213.948288 
	C141.757751,210.406067 143.519623,209.742294 146.484283,212.004318 
	C148.591873,213.612396 150.733612,215.205048 153.005615,216.560745 
	C155.730011,218.186356 157.824036,217.538773 158.558350,214.246140 
	C159.099121,211.821396 159.668091,209.366821 159.824371,206.900192 
	C160.122574,202.193146 162.377777,202.205261 165.765549,204.024582 
	C167.801239,205.117828 169.915268,206.087296 172.058319,206.953476 
	C175.434311,208.317963 177.164932,207.102875 177.117325,203.441757 
	C177.087051,201.113190 177.206711,198.767395 176.965454,196.460022 
	C176.480804,191.824753 178.627136,190.923798 182.582489,192.132736 
	C184.481949,192.713318 186.419281,193.181152 188.356949,193.623367 
	C192.742355,194.624176 194.267258,193.143204 193.353958,188.824219 
	C192.874268,186.555771 192.586853,184.223557 191.866211,182.034149 
	C190.536911,177.995651 192.394531,176.917984 195.983490,177.096680 
	C198.474701,177.220703 200.969086,177.318283 203.462906,177.343643 
	C206.963348,177.379227 207.869720,175.388077 206.861679,172.426086 
	C206.120117,170.247116 205.027771,168.176620 203.977371,166.116089 
	C202.136963,162.505920 202.282852,160.092377 207.167358,159.811935 
	C209.471909,159.679596 211.762543,159.140488 214.036255,158.672806 
	C217.726517,157.913757 218.840256,155.985382 216.538284,152.690918 
	C215.208527,150.787827 213.923462,148.846008 212.480240,147.031418 
	C210.018738,143.936554 210.114319,141.735413 214.305267,140.471497 
	C216.513168,139.805649 218.654312,138.897629 220.785904,138.004242 
	C224.405365,136.487274 224.750275,134.296600 221.934753,131.610153 
	C220.009750,129.773376 217.619553,128.248138 216.254257,126.071251 
	C215.515793,124.893814 215.833450,121.944130 216.822662,121.011307 
	C219.303726,118.671631 222.438553,117.025223 225.655579,115.050385 
	C226.000000,151.926956 226.000000,188.853897 226.000000,226.000000 
	C189.312729,226.000000 152.625031,226.000000 115.468658,226.000000 
z"/>
<path fill="#FDFDFD" opacity="1.000000" stroke="none" 
	d="
M1.000000,115.468658 
	C3.939757,116.821640 6.830832,118.728661 9.833105,120.440674 
	C12.774886,122.118195 13.157408,123.835457 10.485214,126.142670 
	C8.346127,127.989601 6.317891,129.971069 4.313486,131.966187 
	C2.045915,134.223251 2.621769,136.197845 5.308458,137.465149 
	C7.693597,138.590210 10.208046,139.481400 12.730864,140.265152 
	C16.810940,141.532700 17.138515,143.646133 14.580360,146.788254 
	C13.009587,148.717621 11.525903,150.739319 10.207577,152.847427 
	C8.496729,155.583206 9.015680,157.599167 12.480394,158.239548 
	C14.929304,158.692154 17.371969,159.258484 19.844004,159.489014 
	C24.601744,159.932693 24.845087,162.270020 22.867531,165.871506 
	C21.834719,167.752426 20.946507,169.724030 20.134823,171.712570 
	C18.717596,175.184723 19.620390,177.220581 23.710722,177.122162 
	C26.374262,177.058060 29.042738,177.114746 31.702005,176.979630 
	C34.755917,176.824432 36.109863,177.807480 35.101967,181.074600 
	C34.370636,183.445236 33.927685,185.905991 33.380497,188.332047 
	C32.384270,192.748978 33.834740,194.266373 38.152828,193.365311 
	C38.965439,193.195770 39.801308,193.132965 40.609200,192.946274 
	C50.159142,190.739456 50.158279,190.735718 49.773190,200.747513 
	C49.508354,207.632904 50.933403,208.682251 57.083935,205.740448 
	C67.832054,200.599640 66.210289,201.787766 67.826286,211.717056 
	C68.943672,218.582657 70.171341,219.264511 75.834915,215.266327 
	C85.110435,208.718216 83.944954,208.191833 87.986267,218.926605 
	C90.390923,225.313980 92.026703,225.645752 96.701225,220.508194 
	C104.315697,212.139435 103.335793,212.720413 109.001335,221.824326 
	C109.786133,223.085419 110.726028,224.249985 111.797058,225.729614 
	C75.073051,226.000000 38.146103,226.000000 1.000000,226.000000 
	C1.000000,189.312729 1.000000,152.625031 1.000000,115.468658 
z"/>
<path fill="#FDFDFD" opacity="1.000000" stroke="none" 
	d="
M226.000000,111.531342 
	C222.956482,110.024742 219.928604,108.024803 216.864655,106.081741 
	C214.227890,104.409576 214.171249,102.517715 216.333038,100.455429 
	C217.898010,98.962502 219.576370,97.588821 221.150528,96.105064 
	C225.030914,92.447495 224.727264,90.698265 219.894806,88.725258 
	C217.748535,87.848984 215.612595,86.935349 213.423508,86.178871 
	C210.332367,85.110687 210.204315,83.195961 211.774048,80.799416 
	C213.047531,78.855118 214.470032,77.009079 215.773468,75.083595 
	C218.610229,70.893021 217.725525,68.923126 212.641846,68.056000 
	C210.678375,67.721092 208.719925,67.273300 206.740875,67.130165 
	C202.398956,66.816124 202.234207,64.687859 203.987885,61.441185 
	C205.086380,59.407497 206.067917,57.303265 206.983002,55.179443 
	C208.727219,51.131248 207.782593,49.717312 203.281082,49.688705 
	C200.618713,49.671783 197.951630,49.778790 195.293121,49.937862 
	C192.348969,50.114017 191.322678,48.833855 192.021988,46.014378 
	C192.700195,43.279865 193.486801,40.560959 193.961502,37.789928 
	C194.641922,33.818172 193.147858,32.428875 189.252151,33.233936 
	C186.657455,33.770142 184.035263,34.267586 181.521790,35.080463 
	C177.872253,36.260754 177.022842,34.561028 177.248413,31.398582 
	C177.414185,29.074213 177.569290,26.747707 177.657013,24.419437 
	C177.828598,19.865541 176.089417,18.555458 171.971680,20.224590 
	C169.516235,21.219913 167.140640,22.413511 164.736618,23.534006 
	C161.820999,24.892950 160.368179,23.934519 160.056625,20.770344 
	C159.829086,18.459700 159.385254,16.169853 159.023041,13.873072 
	C158.254761,9.001642 156.451096,8.159914 152.443161,10.838142 
	C150.372910,12.221547 148.257553,13.561432 146.327347,15.124469 
	C143.771561,17.194080 142.175095,16.576126 141.092041,13.672359 
	C140.108093,11.034370 139.167053,8.377577 138.087692,5.778666 
	C136.670258,2.365783 134.512558,2.112792 131.996765,4.653563 
	C130.123734,6.545187 128.309509,8.503865 126.583733,10.530309 
	C124.260895,13.257833 122.559258,12.689030 120.861771,9.841744 
	C119.167847,7.000427 117.234398,4.301909 115.202972,1.270394 
	C151.926956,1.000000 188.853897,1.000000 226.000000,1.000000 
	C226.000000,37.687271 226.000000,74.374977 226.000000,111.531342 
z"/>
<path fill="#FDFDFD" opacity="1.000000" stroke="none" 
	d="
M111.531342,1.000002 
	C110.293793,3.636107 108.405754,6.174614 106.925674,8.932094 
	C104.905342,12.696079 102.854698,13.559088 99.976715,9.795644 
	C98.868805,8.346862 97.537849,7.064490 96.271225,5.742018 
	C92.350433,1.648366 90.685753,1.957188 88.623184,7.132005 
	C87.765114,9.284816 86.760536,11.392335 86.080292,13.599863 
	C85.055061,16.926994 83.223442,16.812475 80.842766,15.117642 
	C78.543022,13.480434 76.287346,11.776926 73.935524,10.218425 
	C71.129547,8.358968 69.180923,9.215371 68.452980,12.419241 
	C67.828369,15.168312 67.337738,17.966932 67.059441,20.770599 
	C66.733063,24.058538 65.222641,24.772970 62.369129,23.450987 
	C60.416180,22.546221 58.438187,21.694506 56.460789,20.843710 
	C50.830238,18.421112 49.541279,19.259052 49.727081,25.192621 
	C49.794838,27.356394 49.814297,29.522255 49.917934,31.684185 
	C50.061546,34.680157 49.099495,36.115200 45.802834,35.106586 
	C43.113445,34.283764 40.353966,33.637215 37.584515,33.142151 
	C34.050495,32.510406 32.555344,34.179420 33.150475,37.673443 
	C33.400269,39.139996 33.834400,40.574932 34.179245,42.025551 
	C36.090553,50.065613 36.089886,50.069134 28.088842,49.845184 
	C26.590721,49.803253 25.094242,49.693352 23.596054,49.664883 
	C19.924799,49.595123 18.715828,51.359505 20.040310,54.730965 
	C20.827343,56.734352 21.872068,58.635269 22.766569,60.597916 
	C25.049978,65.608009 24.726273,66.199211 19.474073,66.927803 
	C17.336060,67.224396 15.197737,67.541603 13.079279,67.951393 
	C9.141823,68.713051 8.281777,70.521492 10.388517,73.815598 
	C11.908230,76.191818 13.549927,78.503792 15.301598,80.714149 
	C17.196440,83.105171 16.521252,84.587311 13.920517,85.596451 
	C11.141838,86.674637 8.323163,87.655334 5.575571,88.806564 
	C2.422122,90.127861 2.116620,92.195831 4.465459,94.565643 
	C6.572184,96.691170 8.813283,98.684380 11.012581,100.717049 
	C12.991077,102.545654 12.708583,104.110222 10.518682,105.498154 
	C7.580764,107.360176 4.646658,109.228210 1.355457,111.046829 
	C1.000000,74.406052 1.000000,37.812107 1.000000,1.000000 
	C37.687271,1.000000 74.374977,1.000000 111.531342,1.000002 
z"/>
<path fill="#FAFAFA" opacity="1.000000" stroke="none" 
	d="
M57.746483,51.795208 
	C68.297211,41.878422 80.583931,35.957096 94.075409,32.301651 
	C96.589226,31.620546 98.765778,31.577763 100.654732,34.088226 
	C102.540245,36.594124 104.987740,38.682186 107.224640,40.917622 
	C111.635857,45.325958 113.916580,45.330475 118.618843,40.991726 
	C120.576767,39.185169 122.732811,37.545425 124.441269,35.527199 
	C127.278168,32.175926 130.300705,31.718027 134.529633,32.942726 
	C155.191635,38.926464 171.457169,50.662884 183.168060,68.749001 
	C184.655853,71.046707 185.098923,72.917152 183.763519,75.506386 
	C181.490021,79.914490 179.558472,84.508293 177.655472,89.095520 
	C175.797729,93.573639 176.894394,96.289284 181.201462,98.437508 
	C182.680527,99.175224 184.220474,99.791397 185.736115,100.455086 
	C197.193237,105.471985 197.269608,105.613632 195.358078,118.989586 
	C192.505692,118.989586 189.582672,118.989586 185.919617,118.989586 
	C185.919617,121.837646 186.123550,124.290405 185.878464,126.697433 
	C185.315155,132.229996 181.524399,135.638885 175.922379,135.931610 
	C170.095703,136.236069 167.220459,134.040573 165.903198,128.081650 
	C164.153351,120.165787 160.400146,113.544373 153.378632,109.051842 
	C157.052322,105.807465 160.597076,103.116791 163.613922,99.926865 
	C171.411835,91.681526 172.174057,80.922699 165.527313,71.713600 
	C158.851852,62.464741 149.483994,57.903122 138.168793,57.844318 
	C111.516991,57.705807 84.863991,57.799545 58.211472,57.799324 
	C56.575031,57.799313 54.938591,57.799324 51.858944,57.799324 
	C54.245255,55.353138 55.861443,53.696400 57.746483,51.795208 
z"/>
<path fill="#FBFBFB" opacity="1.000000" stroke="none" 
	d="
M129.173874,132.020386 
	C130.513428,137.898575 131.559967,143.445236 132.975494,148.896088 
	C135.241592,157.622345 140.884262,161.833618 149.835068,161.833771 
	C159.456192,161.833939 169.077316,161.833817 178.846741,161.833817 
	C174.727493,170.059174 173.093124,170.876511 164.857956,169.028000 
	C163.563309,168.737396 162.284302,168.376526 160.988464,168.091858 
	C154.238907,166.609116 151.940872,168.033005 150.342468,174.697220 
	C149.994568,176.147751 149.472946,177.610519 149.446365,179.075180 
	C149.310547,186.563965 144.968887,189.721100 138.191498,191.611176 
	C119.112549,196.931900 100.423134,196.504425 82.092155,188.873672 
	C80.360435,188.152817 78.724602,185.973358 78.084656,184.113159 
	C76.742699,180.212357 76.143616,176.060791 75.146568,172.035202 
	C74.122765,167.901611 71.351334,166.411987 67.279678,167.171310 
	C65.487114,167.505615 63.713650,167.946671 61.938084,168.367020 
	C53.080143,170.464066 53.010448,170.436752 47.414177,161.567963 
	C70.292267,161.567963 92.752930,161.567963 115.457458,161.567963 
	C115.457458,152.950302 115.457458,145.016785 115.457458,136.387634 
	C108.625389,136.387634 101.758087,136.387634 94.957092,136.387634 
	C94.957092,130.940582 94.957092,126.196388 94.957092,121.094818 
	C102.590469,121.094818 109.899368,120.727020 117.152275,121.206329 
	C123.427391,121.621025 127.301102,125.631248 129.173874,132.020386 
z"/>
<path fill="#FCFCFC" opacity="1.000000" stroke="none" 
	d="
M34.543869,135.123840 
	C30.816696,125.626129 30.631182,116.026154 31.260954,106.391579 
	C31.341694,105.156387 32.756409,103.598358 33.963238,102.926483 
	C37.125366,101.166069 40.522648,99.830910 43.811104,98.293938 
	C49.820080,95.485458 50.515522,93.647354 48.038048,87.404152 
	C47.499832,86.047867 47.057034,84.653709 46.474773,83.006851 
	C50.308079,83.006851 53.765491,83.006851 57.589603,83.006851 
	C57.589603,100.265945 57.589603,117.587639 57.589603,135.371933 
	C50.070366,135.371933 42.498379,135.371933 34.543869,135.123840 
z"/>
<path fill="#F8F8F8" opacity="1.000000" stroke="none" 
	d="
M115.916367,83.104240 
	C120.431679,83.747658 124.724335,83.758339 128.386642,85.283058 
	C130.428741,86.133247 132.687180,89.593651 132.533005,91.709061 
	C132.378845,93.824692 129.625320,96.160500 127.472855,97.587921 
	C125.827934,98.678764 123.347839,98.806946 121.231483,98.838219 
	C112.601181,98.965767 103.967888,98.891350 94.952209,98.891350 
	C94.952209,93.745071 94.952209,88.705124 94.952209,83.104240 
	C101.924171,83.104240 108.677223,83.104240 115.916367,83.104240 
z"/>
<path fill="#F5F5F5" opacity="1.000000" stroke="none" 
	d="
M35.253929,94.387909 
	C30.382130,95.180603 27.429941,93.306946 26.692108,88.801399 
	C26.056841,84.922188 28.266098,82.439209 31.819805,81.417274 
	C35.397842,80.388329 38.109314,82.111565 39.426571,85.338852 
	C41.066273,89.356110 39.529251,92.407448 35.253929,94.387909 
z"/>
<path fill="#F5F5F5" opacity="1.000000" stroke="none" 
	d="
M195.085632,82.037750 
	C198.700806,83.888931 200.790482,86.714417 199.049561,90.168610 
	C197.994080,92.262787 195.135651,94.616707 193.021027,94.681122 
	C190.891724,94.745987 187.783737,92.606476 186.685837,90.577293 
	C184.149841,85.890121 188.316925,81.687004 195.085632,82.037750 
z"/>
<path fill="#F6F6F6" opacity="1.000000" stroke="none" 
	d="
M106.732094,25.679115 
	C109.782684,20.827923 113.567734,19.569214 117.034554,21.933899 
	C120.213783,24.102425 121.262306,28.818760 118.409073,31.382532 
	C116.625069,32.985546 113.307877,34.132191 111.051216,33.668892 
	C107.589668,32.958229 105.845985,29.904924 106.732094,25.679115 
z"/>
<path fill="#F7F7F7" opacity="1.000000" stroke="none" 
	d="
M66.028641,176.013458 
	C70.004501,178.377228 71.230049,181.576752 69.263809,185.383255 
	C67.539085,188.722198 64.498611,189.917496 60.907009,188.447800 
	C57.285976,186.966064 55.994820,183.888214 57.102970,180.353043 
	C58.367699,176.318359 61.500332,174.870483 66.028641,176.013458 
z"/>
<path fill="#F9F9F9" opacity="1.000000" stroke="none" 
	d="
M156.063416,181.330078 
	C157.315018,177.608490 159.647202,175.315720 163.190033,176.100586 
	C165.285385,176.564774 167.949020,178.292130 168.660263,180.113907 
	C169.391556,181.987061 168.816437,185.456421 167.430496,186.783356 
	C165.848679,188.297867 162.091888,189.416245 160.458191,188.531555 
	C158.364334,187.397675 157.445175,184.094543 156.063416,181.330078 
z"/>
</svg>