<svg version="1.1" id="Layer_1" xmlns="http://www.w3.org/2000/svg" xmlns:xlink="http://www.w3.org/1999/xlink" x="0px" y="0px"
	 width="100%" viewBox="0 0 512 512" enable-background="new 0 0 512 512" xml:space="preserve">
<path fill="#000000" opacity="1.000000" stroke="none" 
	d="
M286.000000,513.000000 
	C190.689804,513.000000 95.879608,513.000000 1.034703,513.000000 
	C1.034703,342.398102 1.034703,171.796219 1.034703,1.097158 
	C171.560211,1.097158 342.120514,1.097158 512.840393,1.097158 
	C512.840393,171.666550 512.840393,342.333252 512.840393,513.000000 
	C437.462860,513.000000 361.981415,513.000000 286.000000,513.000000 
M460.143860,383.657288 
	C466.124146,372.022980 472.721069,360.658508 477.954437,348.697449 
	C488.375305,324.880280 494.359192,299.712555 495.708435,273.833344 
	C496.551147,257.669617 495.287689,241.314209 493.903137,225.136063 
	C491.984985,202.723328 485.366425,181.315903 476.285614,160.875473 
	C461.842102,128.363876 441.430511,100.119926 414.359406,76.668343 
	C394.493378,59.458496 372.537476,45.914803 348.405212,35.771446 
	C324.743896,25.826044 300.001282,19.898109 274.462555,18.228025 
	C261.253540,17.364227 247.889023,18.365139 234.620941,19.039145 
	C215.674698,20.001602 197.436798,24.506466 179.520264,30.671057 
	C139.137161,44.565784 104.916107,67.408333 76.755203,99.596039 
	C59.551250,119.260056 46.152050,141.135452 35.976749,165.091278 
	C25.798922,189.053040 19.749834,214.127594 18.216311,240.012787 
	C16.971415,261.026062 17.693254,282.110138 21.985138,302.922394 
	C27.859634,331.409058 38.053925,358.177429 53.396252,382.890656 
	C65.972900,403.148956 81.086288,421.256165 99.235268,436.889252 
	C112.211098,448.066254 125.934319,458.077637 140.865158,466.381256 
	C171.545639,483.443817 204.578583,493.436371 239.481857,495.640045 
	C257.268738,496.763062 275.374725,495.498932 293.141235,493.541504 
	C311.545776,491.513824 329.330261,485.929321 346.556519,478.968292 
	C374.817596,467.548096 400.023468,451.357910 422.153442,430.367493 
	C436.668152,416.600159 448.990417,401.057587 460.143860,383.657288 
z"/>
<path fill="#382B73" opacity="1.000000" stroke="none" 
	d="
M460.018738,383.998840 
	C448.990417,401.057587 436.668152,416.600159 422.153442,430.367493 
	C400.023468,451.357910 374.817596,467.548096 346.556519,478.968292 
	C329.330261,485.929321 311.545776,491.513824 293.141235,493.541504 
	C275.374725,495.498932 257.268738,496.763062 239.481857,495.640045 
	C204.578583,493.436371 171.545639,483.443817 140.865158,466.381256 
	C125.934319,458.077637 112.211098,448.066254 99.235268,436.889252 
	C81.086288,421.256165 65.972900,403.148956 53.396252,382.890656 
	C38.053925,358.177429 27.859634,331.409058 21.985138,302.922394 
	C17.693254,282.110138 16.971415,261.026062 18.216311,240.012787 
	C19.749834,214.127594 25.798922,189.053040 35.976749,165.091278 
	C46.152050,141.135452 59.551250,119.260056 76.755203,99.596039 
	C104.916107,67.408333 139.137161,44.565784 179.520264,30.671057 
	C197.436798,24.506466 215.674698,20.001602 234.620941,19.039145 
	C247.889023,18.365139 261.253540,17.364227 274.462555,18.228025 
	C300.001282,19.898109 324.743896,25.826044 348.405212,35.771446 
	C372.537476,45.914803 394.493378,59.458496 414.359406,76.668343 
	C441.430511,100.119926 461.842102,128.363876 476.285614,160.875473 
	C485.366425,181.315903 491.984985,202.723328 493.903137,225.136063 
	C495.287689,241.314209 496.551147,257.669617 495.708435,273.833344 
	C494.359192,299.712555 488.375305,324.880280 477.954437,348.697449 
	C472.721069,360.658508 466.124146,372.022980 460.018738,383.998840 
M229.102264,430.586670 
	C228.484161,442.011414 233.555008,450.631073 243.011459,456.353943 
	C252.460678,462.072357 262.574097,461.871796 271.802856,455.893829 
	C281.073578,449.888763 285.771576,441.008179 284.826569,428.774475 
	C287.872314,405.598511 264.694550,389.319061 244.853317,399.123199 
	C232.317581,405.317444 227.985123,416.195618 229.102264,430.586670 
M137.662674,180.517563 
	C138.839386,167.885345 134.285355,157.945572 123.132156,151.746490 
	C112.696335,145.946136 102.273956,147.025009 92.778336,154.094177 
	C83.275909,161.168411 80.942596,171.238281 82.078590,183.419327 
	C81.535446,194.719376 86.782143,203.122849 96.185127,208.455734 
	C116.081085,219.739731 138.359528,205.059555 137.662674,180.517563 
M431.860443,181.567932 
	C431.919403,179.737228 432.036591,177.906250 432.027802,176.075867 
	C431.973938,164.859222 426.735168,156.572754 417.019318,151.452347 
	C407.040436,146.193344 397.041077,147.048538 387.846191,153.599106 
	C378.593109,160.191116 375.456757,169.656235 376.131348,181.576630 
	C375.718201,199.041138 387.531586,211.955292 403.971985,212.011459 
	C420.463989,212.067810 432.223816,199.622803 431.860443,181.567932 
M251.959457,103.896484 
	C251.917587,114.159798 251.875702,124.423103 251.169022,134.942764 
	C218.295013,153.893707 185.441544,172.880493 152.517563,191.744217 
	C148.934647,193.797073 148.027115,196.605057 148.035156,200.410095 
	C148.115021,238.214005 148.102859,276.018127 147.561722,314.270691 
	C135.008408,321.465424 122.455101,328.660156 109.946960,335.037537 
	C110.586967,330.167816 111.226974,325.298065 111.818794,319.741211 
	C112.200249,316.158173 113.458488,312.004150 108.260468,310.932648 
	C103.220963,309.893829 102.305954,313.889526 101.342873,317.482666 
	C98.907913,326.567230 96.384033,335.630981 94.167480,344.768951 
	C93.616692,347.039642 94.097549,349.560577 94.055099,352.836395 
	C94.185738,356.000366 92.710266,360.077454 97.077400,361.338928 
	C107.728264,364.415405 118.461609,367.230713 129.246933,369.792511 
	C130.970139,370.201782 134.065826,369.318939 134.849396,368.020813 
	C135.754486,366.521393 134.801407,363.900330 134.995209,361.163879 
	C137.607361,356.043427 136.610855,353.609772 131.242889,351.979980 
	C128.094376,351.024048 124.949043,350.057587 122.438492,348.768341 
	C131.673721,343.464539 140.979874,338.278473 150.100281,332.784088 
	C152.781982,331.168549 154.860901,331.230072 157.438339,332.724579 
	C187.958527,350.421082 218.605972,367.901093 248.979050,385.845764 
	C254.711395,389.232483 259.088318,389.551941 264.878845,386.140900 
	C295.417145,368.151428 326.140259,350.474274 356.914062,332.889740 
	C358.624390,331.912445 361.798523,331.915222 363.548218,332.851074 
	C373.229156,338.029083 382.679565,343.638031 391.610779,349.578949 
	C388.746246,350.367157 385.872925,351.124817 383.019043,351.949890 
	C377.078613,353.667389 376.141327,356.203583 378.818237,362.368164 
	C377.216339,368.417053 379.724274,371.180023 386.015656,369.680542 
	C395.007507,367.537384 403.916443,365.034546 412.824249,362.554016 
	C420.812317,360.329590 420.792328,360.248657 420.047394,351.230591 
	C420.282257,350.272644 420.910095,349.213043 420.692627,348.372070 
	C417.716156,336.860168 414.801453,325.324066 411.339752,313.955872 
	C410.890625,312.480865 407.340576,310.967316 405.469147,311.225739 
	C404.027435,311.424896 402.693634,314.255127 401.842834,316.153412 
	C401.372681,317.202515 401.995270,318.741364 402.075531,320.926117 
	C402.750946,325.890778 403.426361,330.855469 403.430603,335.682129 
	C390.920227,328.390961 378.409821,321.099792 365.899353,312.898132 
	C365.906494,276.257874 365.745270,239.616119 366.074890,202.978760 
	C366.134766,196.326019 363.685486,192.786392 358.128357,189.628571 
	C326.296844,171.540298 294.648987,153.128784 262.767914,133.924088 
	C262.813751,123.597809 262.859589,113.271538 263.486877,103.301788 
	C267.756378,107.477180 272.047852,111.630417 276.286316,115.837105 
	C278.482513,118.016838 280.770477,120.351051 283.997925,118.085701 
	C287.060272,115.936211 286.234741,112.902779 285.256561,109.398369 
	C287.698792,106.168999 286.405640,103.566193 283.926758,101.099419 
	C276.756012,93.963768 269.651947,86.760605 262.440704,79.666328 
	C258.402405,75.693565 256.044769,75.765152 251.905350,79.861946 
	C244.950958,86.744720 238.129440,93.763199 231.107071,100.575142 
	C228.253510,103.343178 227.117661,106.159622 229.006348,110.544930 
	C227.759537,113.451065 227.590286,116.747139 230.782242,117.787964 
	C232.874268,118.470139 236.328339,117.550316 238.123184,116.073128 
	C242.992188,112.065819 247.302063,107.379150 251.959457,103.896484 
z"/>
<path fill="#2A1D4C" opacity="1.000000" stroke="none" 
	d="
M392.208984,349.099335 
	C382.679565,343.638031 373.229156,338.029083 363.548218,332.851074 
	C361.798523,331.915222 358.624390,331.912445 356.914062,332.889740 
	C326.140259,350.474274 295.417145,368.151428 264.878845,386.140900 
	C259.088318,389.551941 254.711395,389.232483 248.979050,385.845764 
	C218.605972,367.901093 187.958527,350.421082 157.438339,332.724579 
	C154.860901,331.230072 152.781982,331.168549 150.100281,332.784088 
	C140.979874,338.278473 131.673721,343.464539 121.739784,348.923279 
	C118.477448,348.424286 115.913818,347.770416 112.021149,346.777527 
	C126.945930,338.327209 140.513596,330.645294 154.362671,323.149963 
	C187.344376,342.253143 220.057663,361.147369 252.722656,380.124756 
	C255.624359,381.810547 258.088593,381.986481 261.060852,380.258942 
	C294.003540,361.111908 326.996887,342.051971 360.321716,323.040253 
	C374.036041,330.808563 387.405090,338.505066 402.087891,346.957886 
	C397.875916,347.870911 395.042450,348.485107 392.208984,349.099335 
z"/>
<path fill="#DF4D92" opacity="1.000000" stroke="none" 
	d="
M154.081268,322.963379 
	C140.513596,330.645294 126.945930,338.327209 112.021149,346.777527 
	C115.913818,347.770416 118.477448,348.424286 121.421677,349.087006 
	C124.949043,350.057587 128.094376,351.024048 131.242889,351.979980 
	C136.610855,353.609772 137.607361,356.043427 134.478973,361.534546 
	C131.867538,361.897522 129.682175,362.275543 127.693886,361.810699 
	C121.437515,360.347961 115.221863,358.682251 109.054581,356.876129 
	C104.023369,355.402679 99.084206,353.614868 94.104233,351.966492 
	C94.097549,349.560577 93.616692,347.039642 94.167480,344.768951 
	C96.384033,335.630981 98.907913,326.567230 101.342873,317.482666 
	C102.305954,313.889526 103.220963,309.893829 108.260468,310.932648 
	C113.458488,312.004150 112.200249,316.158173 111.563217,320.373657 
	C109.860863,326.297638 108.414085,331.589172 106.724609,337.768311 
	C108.334587,336.798706 109.118179,336.326813 109.901779,335.854889 
	C122.455101,328.660156 135.008408,321.465424 148.130814,313.987244 
	C150.005066,312.866211 151.310226,312.028656 152.953308,311.109161 
	C154.244690,310.434174 155.198151,309.841156 156.441696,309.164734 
	C157.539017,308.522003 158.346222,307.962677 159.495819,307.296661 
	C174.310440,298.860657 188.792221,290.547821 203.246490,282.187439 
	C205.982376,280.604980 208.711945,279.407898 211.373917,282.039215 
	C214.101410,284.735321 213.020920,287.423279 210.617889,290.072998 
	C195.115295,299.079468 179.940720,307.976288 164.463638,316.919037 
	C163.167816,317.571808 162.174484,318.178711 160.840088,318.889282 
	C159.509705,319.663757 158.520416,320.334534 157.237640,321.033875 
	C155.989853,321.696045 155.035553,322.329712 154.081268,322.963379 
M174.245651,302.768494 
	C152.870087,315.055054 131.511185,327.370941 110.081062,339.561615 
	C108.667557,340.365662 106.710686,340.214539 105.006561,340.507690 
	C104.718521,338.794342 103.897118,336.965393 104.238846,335.388519 
	C105.436958,329.859924 107.149292,324.443878 108.402519,318.925201 
	C108.715958,317.545013 108.041374,315.940430 107.820877,314.438995 
	C106.733170,315.615326 105.047501,316.620850 104.654739,317.995728 
	C102.093430,326.961395 99.893044,336.029449 97.400932,345.015869 
	C96.378296,348.703430 97.455063,350.623077 101.198738,351.547394 
	C110.090729,353.742859 118.915695,356.209320 127.803780,358.421478 
	C129.340500,358.803955 131.054123,358.475586 132.686035,358.475586 
	C132.819656,357.966980 132.953293,357.458344 133.086914,356.949738 
	C131.668396,356.204681 130.325089,355.204132 128.817841,354.760468 
	C123.387329,353.161926 117.860313,351.881531 112.466080,350.176208 
	C111.143646,349.758148 109.599472,348.340973 109.262253,347.086151 
	C109.025040,346.203491 110.527100,344.689758 111.497597,343.697418 
	C112.288689,342.888519 113.428368,342.409363 114.438416,341.827271 
	C139.119080,327.603271 163.805008,313.388367 188.485168,299.163513 
	C194.691330,295.586456 200.924164,292.051483 207.035553,288.318451 
	C208.045914,287.701263 208.491806,286.160004 209.198563,285.045776 
	C207.853348,284.994263 206.500702,284.840302 205.166290,284.937347 
	C204.559464,284.981506 203.979446,285.506256 203.403046,285.840210 
	C193.889664,291.351990 184.378784,296.868103 174.245651,302.768494 
z"/>
<path fill="#DF4D92" opacity="1.000000" stroke="none" 
	d="
M391.909882,349.339142 
	C395.042450,348.485107 397.875916,347.870911 402.087891,346.957886 
	C387.405090,338.505066 374.036041,330.808563 360.173279,322.783386 
	C358.618256,321.963257 357.556915,321.471771 356.268219,320.694214 
	C354.986481,319.867096 353.932129,319.326019 352.710876,318.547302 
	C351.457245,317.832062 350.370514,317.354462 349.080383,316.591492 
	C333.600098,307.525269 318.323181,298.744476 302.858582,289.655731 
	C302.584198,286.968262 301.524384,283.648376 302.671600,282.461121 
	C303.938812,281.149689 307.234741,281.600739 309.634949,281.674988 
	C310.657043,281.706604 311.648315,282.730743 312.653809,283.303406 
	C326.720459,291.314728 340.787170,299.326019 355.057007,307.556091 
	C356.133270,308.251129 357.006409,308.727417 358.093781,309.465637 
	C359.335327,310.211792 360.362610,310.695953 361.588562,311.389648 
	C363.157928,312.335632 364.528687,313.072113 365.899445,313.808594 
	C378.409821,321.099792 390.920227,328.390961 403.990479,335.937866 
	C405.204926,336.527954 405.859497,336.862335 407.422180,337.660583 
	C405.475677,331.192535 403.800476,325.625977 402.125244,320.059418 
	C401.995270,318.741364 401.372681,317.202515 401.842834,316.153412 
	C402.693634,314.255127 404.027435,311.424896 405.469147,311.225739 
	C407.340576,310.967316 410.890625,312.480865 411.339752,313.955872 
	C414.801453,325.324066 417.716156,336.860168 420.692627,348.372070 
	C420.910095,349.213043 420.282257,350.272644 419.656006,351.757751 
	C418.408844,352.779724 417.610626,353.490479 416.688446,353.736389 
	C406.016724,356.582581 395.343536,359.428223 384.622406,362.078522 
	C382.990875,362.481812 381.114075,361.892914 379.350708,361.762939 
	C376.141327,356.203583 377.078613,353.667389 383.019043,351.949890 
	C385.872925,351.124817 388.746246,350.367157 391.909882,349.339142 
M365.757904,317.761993 
	C347.158295,306.999573 328.583710,296.193115 309.906952,285.566315 
	C308.553833,284.796387 306.457458,285.332764 304.706635,285.261810 
	C305.806488,286.502472 306.681000,288.128143 308.041077,288.924194 
	C321.554749,296.833832 335.157959,304.590240 348.717590,312.421600 
	C366.316406,322.585876 383.924347,332.735199 401.441772,343.038147 
	C402.937256,343.917694 403.782379,345.903015 404.929626,347.374664 
	C403.414337,348.466217 402.047333,350.023041 400.355957,350.562012 
	C395.283966,352.178284 390.060181,353.312195 384.952087,354.825012 
	C383.504486,355.253693 382.250275,356.335297 379.642944,357.854004 
	C382.211121,358.495911 383.198730,359.086670 383.986877,358.887604 
	C394.156555,356.318817 404.339752,353.778778 414.390289,350.795868 
	C415.572723,350.444916 416.941101,347.283966 416.600433,345.797546 
	C414.443604,336.387329 411.903931,327.060883 409.281494,317.765808 
	C408.912354,316.457520 407.400909,315.471466 406.418213,314.336273 
	C406.093323,315.788727 405.240967,317.359375 405.535400,318.673004 
	C406.772919,324.194305 408.493286,329.607635 409.721222,335.130707 
	C410.081818,336.752594 409.401459,338.605927 409.198151,340.353180 
	C407.357849,340.069519 405.243103,340.276459 403.720520,339.424805 
	C391.218109,332.431763 378.825867,325.241821 365.757904,317.761993 
z"/>
<path fill="#DB4D91" opacity="1.000000" stroke="none" 
	d="
M251.833832,134.686417 
	C251.875702,124.423103 251.917587,114.159798 251.960190,103.020096 
	C251.960922,100.009628 251.960922,97.875557 251.960922,95.741486 
	C251.519531,95.615181 251.078125,95.488876 250.636734,95.362572 
	C246.545959,99.633347 242.349319,103.809067 238.400604,108.207382 
	C235.641846,111.280212 232.712387,111.779198 229.215668,109.795792 
	C227.117661,106.159622 228.253510,103.343178 231.107071,100.575142 
	C238.129440,93.763199 244.950958,86.744720 251.905350,79.861946 
	C256.044769,75.765152 258.402405,75.693565 262.440704,79.666328 
	C269.651947,86.760605 276.756012,93.963768 283.926758,101.099419 
	C286.405640,103.566193 287.698792,106.168999 284.752014,109.829712 
	C281.013092,112.006371 278.550476,110.686424 276.388336,108.258316 
	C272.477783,103.866661 268.581451,99.462326 264.679199,95.063278 
	C264.087952,95.475578 263.496674,95.887886 262.905426,96.300186 
	C262.905426,98.515213 262.905426,100.730232 262.905396,102.945259 
	C262.859589,113.271538 262.813751,123.597809 262.713776,134.623459 
	C262.722839,136.433380 262.786041,137.543915 262.750671,139.081604 
	C262.688538,140.922989 262.724945,142.337234 262.688538,144.169006 
	C262.715881,145.415817 262.815979,146.245117 262.828979,147.505630 
	C262.801147,150.275574 262.860413,152.614304 262.835480,155.418625 
	C262.727173,160.997314 262.768219,166.111710 262.665100,171.223206 
	C262.465912,181.097412 262.185394,190.969971 261.624695,201.029327 
	C257.687744,204.605957 254.789322,203.010101 252.096146,199.418182 
	C251.990250,184.269241 251.902206,169.581131 251.881180,154.458130 
	C251.900574,151.635559 251.852951,149.247910 251.878784,146.488861 
	C251.932465,145.114563 251.912674,144.111664 251.954254,142.662079 
	C251.969315,140.999390 251.923019,139.783371 251.941833,138.183868 
	C251.949234,136.762390 251.891541,135.724396 251.833832,134.686417 
M259.108398,101.603157 
	C259.109802,100.104607 258.826569,98.534370 259.181610,97.124901 
	C259.672241,95.177208 260.643768,93.350655 261.409332,91.472221 
	C263.085205,92.283218 265.067169,92.761093 266.379944,93.967278 
	C270.422485,97.681557 274.132141,101.756920 278.148193,105.502098 
	C279.184845,106.468826 280.871704,106.738319 282.259888,107.328094 
	C281.847443,105.763763 281.922607,103.732544 280.943909,102.710411 
	C274.266510,95.736694 267.321838,89.019951 260.566162,82.119629 
	C258.349030,79.855019 256.578308,79.738594 254.300766,82.069038 
	C247.434967,89.094330 240.382431,95.937538 233.546310,102.990929 
	C232.612625,103.954300 232.495789,105.709358 232.000748,107.097870 
	C233.535324,106.633034 235.463104,106.600670 236.534607,105.626488 
	C240.595688,101.934273 244.287750,97.837875 248.318848,94.110016 
	C249.647720,92.881096 251.584656,92.309685 253.243546,91.437630 
	C253.855774,93.202202 254.970810,94.959076 254.997971,96.732605 
	C255.163666,107.552948 255.082794,118.377060 255.083115,129.199921 
	C255.083740,150.679123 255.045563,172.158508 255.145050,193.637238 
	C255.154633,195.703506 256.018280,197.765839 256.485474,199.829987 
	C257.359924,199.716415 258.234344,199.602844 259.108795,199.489258 
	C259.108795,167.185104 259.108795,134.880951 259.108398,101.603157 
z"/>
<path fill="#219BB3" opacity="1.000000" stroke="none" 
	d="
M251.501434,134.814590 
	C251.891541,135.724396 251.949234,136.762390 251.606293,138.337494 
	C250.018692,139.473755 248.799759,140.017395 247.649445,140.680145 
	C216.969452,158.356186 186.312958,176.073196 155.595169,193.683289 
	C152.739258,195.320557 151.807648,197.411499 151.813599,200.560211 
	C151.880478,235.983261 151.846756,271.406494 151.887802,306.829620 
	C151.889481,308.283722 152.362167,309.737274 152.615387,311.191101 
	C151.310226,312.028656 150.005066,312.866211 148.408310,313.763000 
	C148.102859,276.018127 148.115021,238.214005 148.035156,200.410095 
	C148.027115,196.605057 148.934647,193.797073 152.517563,191.744217 
	C185.441544,172.880493 218.295013,153.893707 251.501434,134.814590 
z"/>
<path fill="#219BB3" opacity="1.000000" stroke="none" 
	d="
M262.849243,138.654465 
	C262.786041,137.543915 262.722839,136.433380 262.799225,135.074921 
	C294.648987,153.128784 326.296844,171.540298 358.128357,189.628571 
	C363.685486,192.786392 366.134766,196.326019 366.074890,202.978760 
	C365.745270,239.616119 365.906494,276.257874 365.899414,313.353363 
	C364.528687,313.072113 363.157928,312.335632 361.778198,311.009766 
	C361.870270,309.932770 362.059326,309.445221 362.059784,308.957520 
	C362.094238,272.508209 362.180847,236.058502 361.956787,199.610718 
	C361.944214,197.568176 359.824585,194.746613 357.904541,193.625900 
	C326.293762,175.174774 294.557404,156.938766 262.849243,138.654465 
z"/>
<path fill="#E3DFEB" opacity="1.000000" stroke="none" 
	d="
M376.093384,180.654617 
	C375.456757,169.656235 378.593109,160.191116 387.846191,153.599106 
	C397.041077,147.048538 407.040436,146.193344 417.019318,151.452347 
	C426.735168,156.572754 431.973938,164.859222 432.027802,176.075867 
	C432.036591,177.906250 431.919403,179.737228 431.609650,182.262787 
	C425.913086,201.448441 406.523010,209.836807 390.368134,200.635666 
	C382.562592,196.190002 378.258392,189.167999 376.093384,180.654617 
M404.494141,151.983536 
	C393.263733,152.100861 385.351318,157.187759 381.449799,167.021027 
	C378.246155,175.095551 379.658478,187.338318 387.357605,194.087692 
	C395.652527,201.359375 406.812195,203.183517 416.444366,197.694763 
	C425.869629,192.323898 430.738464,181.190460 428.187683,170.841614 
	C425.452454,159.744400 416.456451,152.300430 404.494141,151.983536 
z"/>
<path fill="#E3DFEB" opacity="1.000000" stroke="none" 
	d="
M82.082191,182.474533 
	C80.942596,171.238281 83.275909,161.168411 92.778336,154.094177 
	C102.273956,147.025009 112.696335,145.946136 123.132156,151.746490 
	C134.285355,157.945572 138.839386,167.885345 137.469666,181.185669 
	C131.983582,201.253876 112.376549,210.066116 95.818947,200.539139 
	C88.676010,196.429214 84.766098,189.936478 82.082191,182.474533 
M133.590927,182.639191 
	C135.585251,167.348343 130.463028,157.319397 117.819191,153.202240 
	C109.745270,150.573151 101.687576,151.055069 94.749077,156.797607 
	C87.414162,162.868210 83.868454,170.801315 85.428558,180.175827 
	C87.383423,191.922394 96.669830,200.090744 107.835144,200.953644 
	C119.123123,201.826035 129.198914,194.906860 133.590927,182.639191 
z"/>
<path fill="#E3DFEB" opacity="1.000000" stroke="none" 
	d="
M229.088593,429.659454 
	C227.985123,416.195618 232.317581,405.317444 244.853317,399.123199 
	C264.694550,389.319061 287.872314,405.598511 284.607178,429.488831 
	C279.312286,449.406830 259.295349,458.110504 242.715714,448.377258 
	C235.426331,444.097992 231.598801,437.377563 229.088593,429.659454 
M261.833923,400.215057 
	C242.076218,398.813477 229.161301,412.189789 233.061966,430.014893 
	C235.187317,439.727234 243.233582,447.145325 253.456009,448.816681 
	C262.735229,450.333893 272.637970,445.494781 277.770782,437.433411 
	C287.696198,421.845001 277.385895,403.143372 261.833923,400.215057 
z"/>
<path fill="#2D1F4E" opacity="1.000000" stroke="none" 
	d="
M229.095428,430.123047 
	C231.598801,437.377563 235.426331,444.097992 242.715714,448.377258 
	C259.295349,458.110504 279.312286,449.406830 284.647736,429.925049 
	C285.771576,441.008179 281.073578,449.888763 271.802856,455.893829 
	C262.574097,461.871796 252.460678,462.072357 243.011459,456.353943 
	C233.555008,450.631073 228.484161,442.011414 229.095428,430.123047 
z"/>
<path fill="#2C1F4E" opacity="1.000000" stroke="none" 
	d="
M82.080391,182.946930 
	C84.766098,189.936478 88.676010,196.429214 95.818947,200.539139 
	C112.376549,210.066116 131.983582,201.253876 137.577759,181.588516 
	C138.359528,205.059555 116.081085,219.739731 96.185127,208.455734 
	C86.782143,203.122849 81.535446,194.719376 82.080391,182.946930 
z"/>
<path fill="#2C1E4D" opacity="1.000000" stroke="none" 
	d="
M376.112366,181.115631 
	C378.258392,189.167999 382.562592,196.190002 390.368134,200.635666 
	C406.523010,209.836807 425.913086,201.448441 431.645691,182.689728 
	C432.223816,199.622803 420.463989,212.067810 403.971985,212.011459 
	C387.531586,211.955292 375.718201,199.041138 376.112366,181.115631 
z"/>
<path fill="#2B1C4B" opacity="1.000000" stroke="none" 
	d="
M379.084473,362.065552 
	C381.114075,361.892914 382.990875,362.481812 384.622406,362.078522 
	C395.343536,359.428223 406.016724,356.582581 416.688446,353.736389 
	C417.610626,353.490479 418.408844,352.779724 419.581451,352.125946 
	C420.792328,360.248657 420.812317,360.329590 412.824249,362.554016 
	C403.916443,365.034546 395.007507,367.537384 386.015656,369.680542 
	C379.724274,371.180023 377.216339,368.417053 379.084473,362.065552 
z"/>
<path fill="#2B1C4B" opacity="1.000000" stroke="none" 
	d="
M94.079666,352.401428 
	C99.084206,353.614868 104.023369,355.402679 109.054581,356.876129 
	C115.221863,358.682251 121.437515,360.347961 127.693886,361.810699 
	C129.682175,362.275543 131.867538,361.897522 134.308929,361.835754 
	C134.801407,363.900330 135.754486,366.521393 134.849396,368.020813 
	C134.065826,369.318939 130.970139,370.201782 129.246933,369.792511 
	C118.461609,367.230713 107.728264,364.415405 97.077400,361.338928 
	C92.710266,360.077454 94.185738,356.000366 94.079666,352.401428 
z"/>
<path fill="#2B1C4B" opacity="1.000000" stroke="none" 
	d="
M229.111008,110.170364 
	C232.712387,111.779198 235.641846,111.280212 238.400604,108.207382 
	C242.349319,103.809067 246.545959,99.633347 250.636734,95.362572 
	C251.078125,95.488876 251.519531,95.615181 251.960922,95.741486 
	C251.960922,97.875557 251.960922,100.009628 251.897278,102.552773 
	C247.302063,107.379150 242.992188,112.065819 238.123184,116.073128 
	C236.328339,117.550316 232.874268,118.470139 230.782242,117.787964 
	C227.590286,116.747139 227.759537,113.451065 229.111008,110.170364 
z"/>
<path fill="#2F1E4D" opacity="1.000000" stroke="none" 
	d="
M263.196167,103.123520 
	C262.905426,100.730232 262.905426,98.515213 262.905426,96.300186 
	C263.496674,95.887886 264.087952,95.475578 264.679199,95.063278 
	C268.581451,99.462326 272.477783,103.866661 276.388336,108.258316 
	C278.550476,110.686424 281.013092,112.006371 284.597656,110.138214 
	C286.234741,112.902779 287.060272,115.936211 283.997925,118.085701 
	C280.770477,120.351051 278.482513,118.016838 276.286316,115.837105 
	C272.047852,111.630417 267.756378,107.477180 263.196167,103.123520 
z"/>
<path fill="#342051" opacity="1.000000" stroke="none" 
	d="
M402.100403,320.492767 
	C403.800476,325.625977 405.475677,331.192535 407.422180,337.660583 
	C405.859497,336.862335 405.204926,336.527954 404.326080,336.006836 
	C403.426361,330.855469 402.750946,325.890778 402.100403,320.492767 
z"/>
<path fill="#342051" opacity="1.000000" stroke="none" 
	d="
M109.924370,335.446228 
	C109.118179,336.326813 108.334587,336.798706 106.724609,337.768311 
	C108.414085,331.589172 109.860863,326.297638 111.587318,320.717224 
	C111.226974,325.298065 110.586967,330.167816 109.924370,335.446228 
z"/>
<path fill="#1B9AB1" opacity="1.000000" stroke="none" 
	d="
M356.495575,320.980286 
	C357.556915,321.471771 358.618256,321.963257 359.828064,322.711609 
	C326.996887,342.051971 294.003540,361.111908 261.060852,380.258942 
	C258.088593,381.986481 255.624359,381.810547 252.722656,380.124756 
	C220.057663,361.147369 187.344376,342.253143 154.362671,323.149963 
	C155.035553,322.329712 155.989853,321.696045 157.521149,321.268860 
	C159.507111,322.363373 160.887848,323.300323 162.329239,324.132263 
	C191.034348,340.699615 219.877060,357.035248 248.358078,373.979004 
	C254.844147,377.837677 259.541595,377.855530 265.948456,373.919067 
	C283.538269,363.111542 301.633087,353.127869 319.486481,342.746674 
	C331.858551,335.552643 344.161652,328.239990 356.495575,320.980286 
z"/>
<path fill="#382B73" opacity="1.000000" stroke="none" 
	d="
M210.945908,289.963348 
	C213.020920,287.423279 214.101410,284.735321 211.373917,282.039215 
	C208.711945,279.407898 205.982376,280.604980 203.246490,282.187439 
	C188.792221,290.547821 174.310440,298.860657 159.414886,306.800568 
	C159.035675,275.905182 159.079803,245.399216 159.465240,214.984299 
	C160.868698,215.550110 161.982727,215.934891 162.985352,216.512939 
	C183.594452,228.394699 204.157074,240.357544 224.805496,252.170456 
	C233.740707,257.282288 242.847778,262.093781 251.922089,267.505737 
	C251.967392,300.823761 251.967392,333.677734 251.967392,367.533783 
	C240.601791,360.971252 230.366501,355.105774 220.174393,349.166199 
	C204.078201,339.785950 188.010986,330.355988 172.131683,320.672485 
	C173.265701,319.732697 174.152496,318.986145 175.140610,318.414734 
	C186.140320,312.053436 197.153748,305.715912 208.167725,299.379303 
	C212.974625,296.613800 213.665497,294.295990 210.945908,289.963348 
z"/>
<path fill="#62BFD5" opacity="1.000000" stroke="none" 
	d="
M356.268219,320.694214 
	C344.161652,328.239990 331.858551,335.552643 319.486481,342.746674 
	C301.633087,353.127869 283.538269,363.111542 265.948456,373.919067 
	C259.541595,377.855530 254.844147,377.837677 248.358078,373.979004 
	C219.877060,357.035248 191.034348,340.699615 162.329239,324.132263 
	C160.887848,323.300323 159.507111,322.363373 157.814636,321.240295 
	C158.520416,320.334534 159.509705,319.663757 161.123291,319.081482 
	C190.301453,335.684662 218.851501,352.205902 247.412216,368.708740 
	C253.532196,372.244934 254.995789,371.433899 254.999603,364.469238 
	C255.018082,330.804199 254.952469,297.138977 255.084885,263.474457 
	C255.099854,259.673004 253.940659,257.331787 250.621872,255.431656 
	C221.707687,238.877029 192.880234,222.171036 163.991104,205.572495 
	C156.768051,201.422424 155.172852,202.449066 155.169724,210.951157 
	C155.158432,241.616318 155.145905,272.281525 155.207611,302.946564 
	C155.211838,305.047729 155.822800,307.147614 156.151596,309.248108 
	C155.198151,309.841156 154.244690,310.434174 152.953308,311.109161 
	C152.362167,309.737274 151.889481,308.283722 151.887802,306.829620 
	C151.846756,271.406494 151.880478,235.983261 151.813599,200.560211 
	C151.807648,197.411499 152.739258,195.320557 155.595169,193.683289 
	C186.312958,176.073196 216.969452,158.356186 247.649445,140.680145 
	C248.799759,140.017395 250.018692,139.473755 251.541183,138.720993 
	C251.923019,139.783371 251.969315,140.999390 251.629761,142.759003 
	C222.665604,159.745560 194.075974,176.168930 165.517715,192.646637 
	C159.206375,196.288193 159.219513,198.164993 165.423294,201.760254 
	C194.239212,218.459793 223.092926,235.094452 251.859512,251.878448 
	C255.429871,253.961578 258.347961,254.108765 261.999146,251.976730 
	C290.903595,235.098633 319.909576,218.394531 348.870483,201.612961 
	C354.518494,198.340164 354.585022,196.174484 349.070282,192.970596 
	C330.207703,182.012054 311.342621,171.057068 292.411133,160.218292 
	C282.600952,154.601715 272.649170,149.232468 262.761353,143.751480 
	C262.724945,142.337234 262.688538,140.922989 262.750671,139.081604 
	C294.557404,156.938766 326.293762,175.174774 357.904541,193.625900 
	C359.824585,194.746613 361.944214,197.568176 361.956787,199.610718 
	C362.180847,236.058502 362.094238,272.508209 362.059784,308.957520 
	C362.059326,309.445221 361.870270,309.932770 361.579590,310.800232 
	C360.362610,310.695953 359.335327,310.211792 358.315857,309.101685 
	C358.494019,306.831787 358.811188,305.187958 358.812775,303.543823 
	C358.842285,272.563324 358.844086,241.582809 358.827942,210.602295 
	C358.823730,202.526169 357.110870,201.476837 350.147491,205.493454 
	C321.302277,222.132004 292.529877,238.897293 263.621704,255.425369 
	C260.063507,257.459778 258.898743,259.796356 258.914734,263.763794 
	C259.049713,297.242188 258.984589,330.721405 258.997406,364.200348 
	C259.000153,371.361877 260.342163,372.265259 266.393005,368.780121 
	C295.247559,352.160736 324.054138,335.458038 352.877747,318.784943 
	C353.932129,319.326019 354.986481,319.867096 356.268219,320.694214 
z"/>
<path fill="#1C9BB2" opacity="1.000000" stroke="none" 
	d="
M156.441696,309.164734 
	C155.822800,307.147614 155.211838,305.047729 155.207611,302.946564 
	C155.145905,272.281525 155.158432,241.616318 155.169724,210.951157 
	C155.172852,202.449066 156.768051,201.422424 163.991104,205.572495 
	C192.880234,222.171036 221.707687,238.877029 250.621872,255.431656 
	C253.940659,257.331787 255.099854,259.673004 255.084885,263.474457 
	C254.952469,297.138977 255.018082,330.804199 254.999603,364.469238 
	C254.995789,371.433899 253.532196,372.244934 247.412216,368.708740 
	C218.851501,352.205902 190.301453,335.684662 161.464386,318.977783 
	C162.174484,318.178711 163.167816,317.571808 164.696228,317.184631 
	C167.464722,318.585266 169.698120,319.766174 171.931503,320.947083 
	C188.010986,330.355988 204.078201,339.785950 220.174393,349.166199 
	C230.366501,355.105774 240.601791,360.971252 251.967392,367.533783 
	C251.967392,333.677734 251.967392,300.823761 251.966400,267.073669 
	C252.910889,261.532532 250.604172,259.162231 246.672379,256.923584 
	C219.125870,241.239426 191.724792,225.299789 164.269470,209.455322 
	C162.751663,208.579407 161.164963,207.822876 159.123932,206.756699 
	C159.123932,209.975708 159.123932,212.434479 159.123932,214.893250 
	C159.079803,245.399216 159.035675,275.905182 159.072495,306.907227 
	C158.346222,307.962677 157.539017,308.522003 156.441696,309.164734 
z"/>
<path fill="#ED96BA" opacity="1.000000" stroke="none" 
	d="
M174.556488,302.575867 
	C184.378784,296.868103 193.889664,291.351990 203.403046,285.840210 
	C203.979446,285.506256 204.559464,284.981506 205.166290,284.937347 
	C206.500702,284.840302 207.853348,284.994263 209.198563,285.045776 
	C208.491806,286.160004 208.045914,287.701263 207.035553,288.318451 
	C200.924164,292.051483 194.691330,295.586456 188.485168,299.163513 
	C163.805008,313.388367 139.119080,327.603271 114.438416,341.827271 
	C113.428368,342.409363 112.288689,342.888519 111.497597,343.697418 
	C110.527100,344.689758 109.025040,346.203491 109.262253,347.086151 
	C109.599472,348.340973 111.143646,349.758148 112.466080,350.176208 
	C117.860313,351.881531 123.387329,353.161926 128.817841,354.760468 
	C130.325089,355.204132 131.668396,356.204681 133.086914,356.949738 
	C132.953293,357.458344 132.819656,357.966980 132.686035,358.475586 
	C131.054123,358.475586 129.340500,358.803955 127.803780,358.421478 
	C118.915695,356.209320 110.090729,353.742859 101.198738,351.547394 
	C97.455063,350.623077 96.378296,348.703430 97.400932,345.015869 
	C99.893044,336.029449 102.093430,326.961395 104.654739,317.995728 
	C105.047501,316.620850 106.733170,315.615326 107.820877,314.438995 
	C108.041374,315.940430 108.715958,317.545013 108.402519,318.925201 
	C107.149292,324.443878 105.436958,329.859924 104.238846,335.388519 
	C103.897118,336.965393 104.718521,338.794342 105.006561,340.507690 
	C106.710686,340.214539 108.667557,340.365662 110.081062,339.561615 
	C131.511185,327.370941 152.870087,315.055054 174.556488,302.575867 
z"/>
<path fill="#2B1C4C" opacity="1.000000" stroke="none" 
	d="
M172.131683,320.672485 
	C169.698120,319.766174 167.464722,318.585266 164.998734,317.138733 
	C179.940720,307.976288 195.115295,299.079468 210.617889,290.072998 
	C213.665497,294.295990 212.974625,296.613800 208.167725,299.379303 
	C197.153748,305.715912 186.140320,312.053436 175.140610,318.414734 
	C174.152496,318.986145 173.265701,319.732697 172.131683,320.672485 
z"/>
<path fill="#382B73" opacity="1.000000" stroke="none" 
	d="
M354.853851,307.337311 
	C340.787170,299.326019 326.720459,291.314728 312.653809,283.303406 
	C311.648315,282.730743 310.657043,281.706604 309.634949,281.674988 
	C307.234741,281.600739 303.938812,281.149689 302.671600,282.461121 
	C301.524384,283.648376 302.584198,286.968262 302.613220,289.899139 
	C300.149323,293.590210 301.250458,296.139465 304.141876,298.032562 
	C307.617096,300.307922 311.297791,302.266998 314.855560,304.419189 
	C323.939178,309.914185 333.003876,315.440430 341.871155,321.232758 
	C315.421051,336.712158 289.175995,351.913025 262.123383,367.581573 
	C262.123383,333.222626 262.123383,300.133575 262.481201,267.012573 
	C263.619019,266.710236 264.466339,266.556976 265.169189,266.152527 
	C285.078217,254.696198 304.950806,243.176392 324.878754,231.753128 
	C334.830383,226.048553 344.878937,220.513000 354.955170,215.371307 
	C355.052948,225.290695 355.121918,234.739883 355.096771,244.188812 
	C355.040771,265.238403 354.937714,286.287811 354.853851,307.337311 
z"/>
<path fill="#1C9BB2" opacity="1.000000" stroke="none" 
	d="
M262.123383,267.044525 
	C262.123383,300.133575 262.123383,333.222626 262.123383,367.581573 
	C289.175995,351.913025 315.421051,336.712158 342.204163,321.170258 
	C344.922791,319.511749 347.103302,318.194305 349.283813,316.876892 
	C350.370514,317.354462 351.457245,317.832062 352.710876,318.547302 
	C324.054138,335.458038 295.247559,352.160736 266.393005,368.780121 
	C260.342163,372.265259 259.000153,371.361877 258.997406,364.200348 
	C258.984589,330.721405 259.049713,297.242188 258.914734,263.763794 
	C258.898743,259.796356 260.063507,257.459778 263.621704,255.425369 
	C292.529877,238.897293 321.302277,222.132004 350.147491,205.493454 
	C357.110870,201.476837 358.823730,202.526169 358.827942,210.602295 
	C358.844086,241.582809 358.842285,272.563324 358.812775,303.543823 
	C358.811188,305.187958 358.494019,306.831787 358.101624,308.839722 
	C357.006409,308.727417 356.133270,308.251129 355.057007,307.556091 
	C354.937714,286.287811 355.040771,265.238403 355.096771,244.188812 
	C355.121918,234.739883 355.052948,225.290695 355.023621,214.952820 
	C355.020538,211.842041 355.020538,209.620102 355.020538,206.723846 
	C352.730072,207.917755 351.261841,208.614944 349.858490,209.424591 
	C322.403595,225.264282 295.039337,241.264542 267.425476,256.821777 
	C262.834351,259.408386 261.273590,262.272552 262.123383,267.044525 
z"/>
<path fill="#ED96BA" opacity="1.000000" stroke="none" 
	d="
M366.079041,317.936829 
	C378.825867,325.241821 391.218109,332.431763 403.720520,339.424805 
	C405.243103,340.276459 407.357849,340.069519 409.198151,340.353180 
	C409.401459,338.605927 410.081818,336.752594 409.721222,335.130707 
	C408.493286,329.607635 406.772919,324.194305 405.535400,318.673004 
	C405.240967,317.359375 406.093323,315.788727 406.418213,314.336273 
	C407.400909,315.471466 408.912354,316.457520 409.281494,317.765808 
	C411.903931,327.060883 414.443604,336.387329 416.600433,345.797546 
	C416.941101,347.283966 415.572723,350.444916 414.390289,350.795868 
	C404.339752,353.778778 394.156555,356.318817 383.986877,358.887604 
	C383.198730,359.086670 382.211121,358.495911 379.642944,357.854004 
	C382.250275,356.335297 383.504486,355.253693 384.952087,354.825012 
	C390.060181,353.312195 395.283966,352.178284 400.355957,350.562012 
	C402.047333,350.023041 403.414337,348.466217 404.929626,347.374664 
	C403.782379,345.903015 402.937256,343.917694 401.441772,343.038147 
	C383.924347,332.735199 366.316406,322.585876 348.717590,312.421600 
	C335.157959,304.590240 321.554749,296.833832 308.041077,288.924194 
	C306.681000,288.128143 305.806488,286.502472 304.706635,285.261810 
	C306.457458,285.332764 308.553833,284.796387 309.906952,285.566315 
	C328.583710,296.193115 347.158295,306.999573 366.079041,317.936829 
z"/>
<path fill="#2B1C4C" opacity="1.000000" stroke="none" 
	d="
M349.080383,316.591492 
	C347.103302,318.194305 344.922791,319.511749 342.409210,320.891693 
	C333.003876,315.440430 323.939178,309.914185 314.855560,304.419189 
	C311.297791,302.266998 307.617096,300.307922 304.141876,298.032562 
	C301.250458,296.139465 300.149323,293.590210 302.800964,290.207092 
	C318.323181,298.744476 333.600098,307.525269 349.080383,316.591492 
z"/>
<path fill="#382B73" opacity="1.000000" stroke="none" 
	d="
M261.938599,200.843216 
	C262.185394,190.969971 262.465912,181.097412 262.665100,171.223206 
	C262.768219,166.111710 262.727173,160.997314 263.156799,155.568390 
	C265.025330,156.041290 266.509460,156.793411 267.948120,157.624237 
	C292.984833,172.082138 318.015900,186.549698 342.813202,201.264038 
	C315.363525,217.242416 288.117828,232.918823 260.977631,248.775772 
	C257.949951,250.544724 255.716980,250.474945 252.886002,248.636551 
	C248.707550,245.923172 244.276337,243.599976 239.962067,241.094635 
	C216.960693,227.737427 193.962234,214.375244 171.270432,200.854126 
	C187.916061,191.226059 204.218582,181.696762 220.604858,172.313675 
	C230.943237,166.393753 241.406769,160.692398 251.814163,154.893021 
	C251.902206,169.581131 251.990250,184.269241 252.076752,199.857880 
	C252.082764,202.409805 251.464493,204.486237 252.234390,205.619888 
	C253.630630,207.675720 255.653610,210.251862 257.778412,210.644623 
	C260.946991,211.230347 262.036194,208.269867 262.017700,205.302612 
	C262.008423,203.816040 261.966003,202.329681 261.938599,200.843216 
z"/>
<path fill="#1B9BB2" opacity="1.000000" stroke="none" 
	d="
M170.962753,201.014771 
	C193.962234,214.375244 216.960693,227.737427 239.962067,241.094635 
	C244.276337,243.599976 248.707550,245.923172 252.886002,248.636551 
	C255.716980,250.474945 257.949951,250.544724 260.977631,248.775772 
	C288.117828,232.918823 315.363525,217.242416 343.138672,201.180542 
	C345.595123,199.747986 347.491089,198.647858 350.110992,197.127655 
	C320.419769,180.083755 291.667938,163.579086 262.916077,147.074402 
	C262.815979,146.245117 262.715881,145.415817 262.688568,144.169006 
	C272.649170,149.232468 282.600952,154.601715 292.411133,160.218292 
	C311.342621,171.057068 330.207703,182.012054 349.070282,192.970596 
	C354.585022,196.174484 354.518494,198.340164 348.870483,201.612961 
	C319.909576,218.394531 290.903595,235.098633 261.999146,251.976730 
	C258.347961,254.108765 255.429871,253.961578 251.859512,251.878448 
	C223.092926,235.094452 194.239212,218.459793 165.423294,201.760254 
	C159.219513,198.164993 159.206375,196.288193 165.517715,192.646637 
	C194.075974,176.168930 222.665604,159.745560 251.568420,143.205688 
	C251.912674,144.111664 251.932465,145.114563 251.538574,146.563278 
	C222.270691,163.617874 193.416473,180.226639 163.758057,197.298325 
	C166.865540,198.901291 168.914154,199.958023 170.962753,201.014771 
z"/>
<path fill="#EC94B9" opacity="1.000000" stroke="none" 
	d="
M259.108582,102.089981 
	C259.108795,134.880951 259.108795,167.185104 259.108795,199.489258 
	C258.234344,199.602844 257.359924,199.716415 256.485474,199.829987 
	C256.018280,197.765839 255.154633,195.703506 255.145050,193.637238 
	C255.045563,172.158508 255.083740,150.679123 255.083115,129.199921 
	C255.082794,118.377060 255.163666,107.552948 254.997971,96.732605 
	C254.970810,94.959076 253.855774,93.202202 253.243546,91.437630 
	C251.584656,92.309685 249.647720,92.881096 248.318848,94.110016 
	C244.287750,97.837875 240.595688,101.934273 236.534607,105.626488 
	C235.463104,106.600670 233.535324,106.633034 232.000748,107.097870 
	C232.495789,105.709358 232.612625,103.954300 233.546310,102.990929 
	C240.382431,95.937538 247.434967,89.094330 254.300766,82.069038 
	C256.578308,79.738594 258.349030,79.855019 260.566162,82.119629 
	C267.321838,89.019951 274.266510,95.736694 280.943909,102.710411 
	C281.922607,103.732544 281.847443,105.763763 282.259888,107.328094 
	C280.871704,106.738319 279.184845,106.468826 278.148193,105.502098 
	C274.132141,101.756920 270.422485,97.681557 266.379944,93.967278 
	C265.067169,92.761093 263.085205,92.283218 261.409332,91.472221 
	C260.643768,93.350655 259.672241,95.177208 259.181610,97.124901 
	C258.826569,98.534370 259.109802,100.104607 259.108582,102.089981 
z"/>
<path fill="#291D4C" opacity="1.000000" stroke="none" 
	d="
M171.270432,200.854126 
	C168.914154,199.958023 166.865540,198.901291 163.758057,197.298325 
	C193.416473,180.226639 222.270691,163.617874 251.465118,146.934662 
	C251.852951,149.247910 251.900574,151.635559 251.881180,154.458130 
	C241.406769,160.692398 230.943237,166.393753 220.604858,172.313675 
	C204.218582,181.696762 187.916061,191.226059 171.270432,200.854126 
z"/>
<path fill="#291D4C" opacity="1.000000" stroke="none" 
	d="
M262.828979,147.505630 
	C291.667938,163.579086 320.419769,180.083755 350.110992,197.127655 
	C347.491089,198.647858 345.595123,199.747986 343.373688,200.931641 
	C318.015900,186.549698 292.984833,172.082138 267.948120,157.624237 
	C266.509460,156.793411 265.025330,156.041290 263.241028,155.102783 
	C262.860413,152.614304 262.801147,150.275574 262.828979,147.505630 
z"/>
<path fill="#2B1C4C" opacity="1.000000" stroke="none" 
	d="
M261.624664,201.029327 
	C261.966003,202.329681 262.008423,203.816040 262.017700,205.302612 
	C262.036194,208.269867 260.946991,211.230347 257.778412,210.644623 
	C255.653610,210.251862 253.630630,207.675720 252.234390,205.619888 
	C251.464493,204.486237 252.082764,202.409805 252.094604,200.318695 
	C254.789322,203.010101 257.687744,204.605957 261.624664,201.029327 
z"/>
<path fill="#D4D4D4" opacity="1.000000" stroke="none" 
	d="
M404.946838,151.984238 
	C416.456451,152.300430 425.452454,159.744400 428.187683,170.841614 
	C430.738464,181.190460 425.869629,192.323898 416.444366,197.694763 
	C406.812195,203.183517 395.652527,201.359375 387.357605,194.087692 
	C379.658478,187.338318 378.246155,175.095551 381.449799,167.021027 
	C385.351318,157.187759 393.263733,152.100861 404.946838,151.984238 
M383.116791,178.139267 
	C383.449585,179.597626 383.673920,181.091141 384.133270,182.508499 
	C386.600891,190.122452 392.003235,195.073486 399.555420,196.667984 
	C407.624054,198.371536 415.204865,196.412399 420.593597,189.513397 
	C426.335785,182.161911 426.606354,171.705841 421.528656,164.327637 
	C416.472290,156.980347 406.770569,153.585892 398.217010,156.171341 
	C389.184937,158.901413 383.238129,167.182632 383.116791,178.139267 
z"/>
<path fill="#D4D4D4" opacity="1.000000" stroke="none" 
	d="
M133.465988,183.038818 
	C129.198914,194.906860 119.123123,201.826035 107.835144,200.953644 
	C96.669830,200.090744 87.383423,191.922394 85.428558,180.175827 
	C83.868454,170.801315 87.414162,162.868210 94.749077,156.797607 
	C101.687576,151.055069 109.745270,150.573151 117.819191,153.202240 
	C130.463028,157.319397 135.585251,167.348343 133.465988,183.038818 
M120.227684,158.114624 
	C116.243881,157.107361 112.221336,155.126297 108.283852,155.282990 
	C98.155571,155.686050 89.597992,164.607086 89.008507,174.292801 
	C88.338531,185.300903 94.336159,194.038879 104.282860,196.546082 
	C114.346062,199.082672 125.226372,193.859650 129.150589,184.608475 
	C133.262436,174.914978 129.891922,164.238571 120.227684,158.114624 
z"/>
<path fill="#D4D4D4" opacity="1.000000" stroke="none" 
	d="
M262.248993,400.314636 
	C277.385895,403.143372 287.696198,421.845001 277.770782,437.433411 
	C272.637970,445.494781 262.735229,450.333893 253.456009,448.816681 
	C243.233582,447.145325 235.187317,439.727234 233.061966,430.014893 
	C229.161301,412.189789 242.076218,398.813477 262.248993,400.314636 
M236.102646,421.002563 
	C236.071793,422.497070 235.956070,423.995483 236.024231,425.485474 
	C236.392654,433.536133 242.778885,441.904999 250.278061,444.231415 
	C259.504547,447.093689 268.051361,444.242767 274.100922,436.284882 
	C279.126556,429.673828 279.323273,420.057709 274.576080,412.898193 
	C269.925690,405.884613 263.122284,402.473572 255.025345,403.423157 
	C245.252777,404.569275 238.702347,410.324463 236.102646,421.002563 
z"/>
<path fill="#291D4C" opacity="1.000000" stroke="none" 
	d="
M159.465240,214.984299 
	C159.123932,212.434479 159.123932,209.975708 159.123932,206.756699 
	C161.164963,207.822876 162.751663,208.579407 164.269470,209.455322 
	C191.724792,225.299789 219.125870,241.239426 246.672379,256.923584 
	C250.604172,259.162231 252.910889,261.532532 251.921082,266.609619 
	C242.847778,262.093781 233.740707,257.282288 224.805496,252.170456 
	C204.157074,240.357544 183.594452,228.394699 162.985352,216.512939 
	C161.982727,215.934891 160.868698,215.550110 159.465240,214.984299 
z"/>
<path fill="#291D4C" opacity="1.000000" stroke="none" 
	d="
M262.481201,267.012573 
	C261.273590,262.272552 262.834351,259.408386 267.425476,256.821777 
	C295.039337,241.264542 322.403595,225.264282 349.858490,209.424591 
	C351.261841,208.614944 352.730072,207.917755 355.020538,206.723846 
	C355.020538,209.620102 355.020538,211.842041 354.952087,214.482498 
	C344.878937,220.513000 334.830383,226.048553 324.878754,231.753128 
	C304.950806,243.176392 285.078217,254.696198 265.169189,266.152527 
	C264.466339,266.556976 263.619019,266.710236 262.481201,267.012573 
z"/>
<path fill="#E4E0EB" opacity="1.000000" stroke="none" 
	d="
M383.083069,177.716125 
	C383.238129,167.182632 389.184937,158.901413 398.217010,156.171341 
	C406.770569,153.585892 416.472290,156.980347 421.528656,164.327637 
	C426.606354,171.705841 426.335785,182.161911 420.593597,189.513397 
	C415.204865,196.412399 407.624054,198.371536 399.555420,196.667984 
	C392.003235,195.073486 386.600891,190.122452 384.133270,182.508499 
	C383.673920,181.091141 383.449585,179.597626 383.083069,177.716125 
M421.653778,178.989105 
	C422.715607,171.275330 419.760651,165.252945 413.335693,161.238815 
	C407.398651,157.529495 400.937042,157.563812 394.987854,161.245636 
	C388.887543,165.020935 385.804901,170.610733 386.842773,178.813797 
	C388.474579,188.097778 395.746521,194.259094 404.749695,193.985886 
	C413.123108,193.731766 419.971344,187.710602 421.653778,178.989105 
z"/>
<path fill="#E4E0EB" opacity="1.000000" stroke="none" 
	d="
M120.561295,158.286255 
	C129.891922,164.238571 133.262436,174.914978 129.150589,184.608475 
	C125.226372,193.859650 114.346062,199.082672 104.282860,196.546082 
	C94.336159,194.038879 88.338531,185.300903 89.008507,174.292801 
	C89.597992,164.607086 98.155571,155.686050 108.283852,155.282990 
	C112.221336,155.126297 116.243881,157.107361 120.561295,158.286255 
M127.308777,177.197998 
	C127.227501,175.713379 127.275002,174.208405 127.044098,172.747437 
	C125.522621,163.120499 115.168060,156.663666 105.237282,159.100708 
	C96.324867,161.287872 90.306046,171.318390 92.793800,180.327606 
	C95.167542,189.256668 102.786858,194.814758 111.479759,193.958481 
	C119.971703,193.122009 126.469086,186.469803 127.308777,177.197998 
z"/>
<path fill="#E4E0EC" opacity="1.000000" stroke="none" 
	d="
M236.169785,420.585693 
	C238.702347,410.324463 245.252777,404.569275 255.025345,403.423157 
	C263.122284,402.473572 269.925690,405.884613 274.576080,412.898193 
	C279.323273,420.057709 279.126556,429.673828 274.100922,436.284882 
	C268.051361,444.242767 259.504547,447.093689 250.278061,444.231415 
	C242.778885,441.904999 236.392654,433.536133 236.024231,425.485474 
	C235.956070,423.995483 236.071793,422.497070 236.169785,420.585693 
M274.683899,425.365417 
	C274.453644,423.400604 274.438538,421.381226 273.956421,419.480286 
	C271.710419,410.624664 262.480499,405.188263 253.033417,407.036896 
	C244.494308,408.707855 238.531967,417.284424 239.611893,427.032654 
	C241.705856,436.624817 248.759125,442.395233 257.899933,441.994415 
	C266.576294,441.614014 273.120209,435.330597 274.683899,425.365417 
z"/>
<path fill="#392C73" opacity="1.000000" stroke="none" 
	d="
M421.079468,179.628326 
	C419.971344,187.710602 413.123108,193.731766 404.749695,193.985886 
	C395.746521,194.259094 388.474579,188.097778 387.143707,178.188721 
	C388.142303,176.445206 388.793243,175.294220 389.545288,174.213623 
	C394.178162,167.556686 400.877960,165.664124 408.297638,167.264908 
	C414.780548,168.663559 419.355896,172.883484 421.079468,179.628326 
z"/>
<path fill="#2C1F4E" opacity="1.000000" stroke="none" 
	d="
M421.366638,179.308716 
	C419.355896,172.883484 414.780548,168.663559 408.297638,167.264908 
	C400.877960,165.664124 394.178162,167.556686 389.545288,174.213623 
	C388.793243,175.294220 388.142303,176.445206 387.204468,177.801544 
	C385.804901,170.610733 388.887543,165.020935 394.987854,161.245636 
	C400.937042,157.563812 407.398651,157.529495 413.335693,161.238815 
	C419.760651,165.252945 422.715607,171.275330 421.366638,179.308716 
z"/>
<path fill="#392C73" opacity="1.000000" stroke="none" 
	d="
M127.030960,178.036743 
	C126.469086,186.469803 119.971703,193.122009 111.479759,193.958481 
	C102.786858,194.814758 95.167542,189.256668 92.890457,179.581177 
	C96.137566,170.854095 101.795471,167.211212 110.114586,166.889359 
	C118.619415,166.560333 123.023643,171.855316 127.030960,178.036743 
z"/>
<path fill="#2C1F4E" opacity="1.000000" stroke="none" 
	d="
M127.169868,177.617371 
	C123.023643,171.855316 118.619415,166.560333 110.114586,166.889359 
	C101.795471,167.211212 96.137566,170.854095 92.952629,179.232788 
	C90.306046,171.318390 96.324867,161.287872 105.237282,159.100708 
	C115.168060,156.663666 125.522621,163.120499 127.044098,172.747437 
	C127.275002,174.208405 127.227501,175.713379 127.169868,177.617371 
z"/>
<path fill="#3A2D74" opacity="1.000000" stroke="none" 
	d="
M274.322998,426.225159 
	C273.120209,435.330597 266.576294,441.614014 257.899933,441.994415 
	C248.759125,442.395233 241.705856,436.624817 239.893387,426.385956 
	C240.814514,424.780670 241.486099,423.841705 242.088852,422.860413 
	C248.692673,412.109283 265.021118,412.057892 271.757111,422.605713 
	C272.552155,423.850677 273.464844,425.020508 274.322998,426.225159 
z"/>
<path fill="#2B1E4D" opacity="1.000000" stroke="none" 
	d="
M274.503448,425.795288 
	C273.464844,425.020508 272.552155,423.850677 271.757111,422.605713 
	C265.021118,412.057892 248.692673,412.109283 242.088852,422.860413 
	C241.486099,423.841705 240.814514,424.780670 239.921326,426.001038 
	C238.531967,417.284424 244.494308,408.707855 253.033417,407.036896 
	C262.480499,405.188263 271.710419,410.624664 273.956421,419.480286 
	C274.438538,421.381226 274.453644,423.400604 274.503448,425.795288 
z"/>
</svg>