<svg version="1.1" id="Layer_1" xmlns="http://www.w3.org/2000/svg" xmlns:xlink="http://www.w3.org/1999/xlink" x="0px" y="0px"
	 width="100%" viewBox="0 0 225 225" enable-background="new 0 0 225 225" xml:space="preserve">
<path fill="#80B3FF" opacity="1.000000" stroke="none" 
	d="
M102.000000,1.000000 
	C109.354256,1.000000 116.708504,1.000000 124.788368,1.297400 
	C175.291306,9.435336 207.954041,37.021675 222.275635,85.639977 
	C223.852905,90.994392 224.774368,96.542000 226.000000,102.000000 
	C226.000000,109.687576 226.000000,117.375153 225.700195,125.776718 
	C223.549545,134.001572 221.698685,141.512421 219.578217,148.841614 
	C196.337311,125.744339 173.382980,102.811592 150.357391,79.950630 
	C148.781006,78.385529 146.670914,77.358009 144.847473,76.047348 
	C144.885910,76.014214 144.965057,76.077751 144.899048,75.745880 
	C144.375946,74.946617 143.918854,74.479225 143.241119,73.790771 
	C141.792389,72.005760 140.731415,70.267273 139.309494,68.905777 
	C128.971909,59.007507 116.810280,55.645149 103.027542,59.694752 
	C88.589874,63.936783 80.958771,74.407211 78.144882,88.702271 
	C77.604546,91.447304 78.079597,94.392204 78.218117,97.394951 
	C78.543259,97.733604 78.764587,97.879662 79.003883,98.253586 
	C78.988861,98.704353 78.983963,98.884697 78.597473,99.136551 
	C71.788597,99.959641 70.224556,101.505028 70.211304,107.526321 
	C70.172218,125.288071 70.037323,143.052933 70.367203,160.808640 
	C70.417625,163.522583 72.732346,166.194458 74.128304,169.103668 
	C74.498215,169.553162 74.739632,169.784760 75.153671,170.300125 
	C92.368950,187.698547 109.386391,204.838547 126.508705,221.873154 
	C127.701164,223.059525 129.671967,223.463562 130.949310,224.410309 
	C128.745193,225.059509 126.872597,225.529755 125.000000,226.000000 
	C117.312424,226.000000 109.624847,226.000000 101.228508,225.701950 
	C98.569954,224.988007 96.634087,224.485825 94.668343,224.168915 
	C50.097355,216.982986 13.203663,181.958969 3.847059,137.963242 
	C2.994613,133.954956 1.953501,129.986801 1.000000,126.000000 
	C1.000000,117.979103 1.000000,109.958199 1.299770,101.223267 
	C1.747451,99.864433 1.923897,99.224693 2.039205,98.574112 
	C10.627491,50.118179 38.327393,18.648014 85.632317,4.711873 
	C90.987900,3.134105 96.539368,2.221204 102.000000,1.000000 
z"/>
<path fill="#FEFFFF" opacity="1.000000" stroke="none" 
	d="
M226.000000,101.531342 
	C224.774368,96.542000 223.852905,90.994392 222.275635,85.639977 
	C207.954041,37.021675 175.291306,9.435336 125.256989,1.297400 
	C158.593597,1.000000 192.187195,1.000000 226.000000,1.000000 
	C226.000000,34.353909 226.000000,67.708298 226.000000,101.531342 
z"/>
<path fill="#FEFFFF" opacity="1.000000" stroke="none" 
	d="
M101.531342,1.000000 
	C96.539368,2.221204 90.987900,3.134105 85.632317,4.711873 
	C38.327393,18.648014 10.627491,50.118179 2.039205,98.574112 
	C1.923897,99.224693 1.747451,99.864433 1.299770,100.754616 
	C1.000000,67.739365 1.000000,34.478733 1.000000,1.000000 
	C34.353912,1.000000 67.708298,1.000000 101.531342,1.000000 
z"/>
<path fill="#FEFFFF" opacity="1.000000" stroke="none" 
	d="
M1.000000,126.468658 
	C1.953501,129.986801 2.994613,133.954956 3.847059,137.963242 
	C13.203663,181.958969 50.097355,216.982986 94.668343,224.168915 
	C96.634087,224.485825 98.569954,224.988007 100.759872,225.701950 
	C67.739731,226.000000 34.479462,226.000000 1.000000,226.000000 
	C1.000000,192.979431 1.000000,159.958374 1.000000,126.468658 
z"/>
<path fill="#FEFFFF" opacity="1.000000" stroke="none" 
	d="
M219.847824,149.023270 
	C221.698685,141.512421 223.549545,134.001572 225.700195,126.245361 
	C226.000000,159.260635 226.000000,192.521255 226.000000,226.000000 
	C192.646088,226.000000 159.291702,226.000000 125.468658,226.000000 
	C126.872597,225.529755 128.745193,225.059509 131.356262,224.397461 
	C151.631744,221.224030 169.010284,213.253403 184.216980,200.806076 
	C201.040039,187.035660 213.453369,170.055893 219.847824,149.023270 
z"/>
<path fill="#729FE3" opacity="1.000000" stroke="none" 
	d="
M219.578217,148.841614 
	C213.453369,170.055893 201.040039,187.035660 184.216980,200.806076 
	C169.010284,213.253403 151.631744,221.224030 131.687775,224.218536 
	C129.671967,223.463562 127.701164,223.059525 126.508705,221.873154 
	C109.386391,204.838547 92.368950,187.698547 75.344101,170.178680 
	C75.604828,169.590500 75.807579,169.370468 76.436478,169.045807 
	C100.726936,168.961349 124.551094,168.954376 148.375198,168.921173 
	C154.928177,168.912033 156.746262,167.169281 156.761673,160.699234 
	C156.803741,143.039291 156.685913,125.378433 156.833771,107.719627 
	C156.875488,102.738449 155.083755,99.741669 150.002579,98.704445 
	C149.991257,97.873749 149.984177,97.399139 149.962830,96.501358 
	C148.235382,89.412285 146.522202,82.746384 144.809021,76.080482 
	C146.670914,77.358009 148.781006,78.385529 150.357391,79.950630 
	C173.382980,102.811592 196.337311,125.744339 219.578217,148.841614 
z"/>
<path fill="#FCFDFF" opacity="1.000000" stroke="none" 
	d="
M150.006821,99.060532 
	C155.083755,99.741669 156.875488,102.738449 156.833771,107.719627 
	C156.685913,125.378433 156.803741,143.039291 156.761673,160.699234 
	C156.746262,167.169281 154.928177,168.912033 148.375198,168.921173 
	C124.551094,168.954376 100.726936,168.961349 76.112000,168.979370 
	C74.880737,168.948944 74.440269,168.917374 73.999802,168.885788 
	C72.732346,166.194458 70.417625,163.522583 70.367203,160.808640 
	C70.037323,143.052933 70.172218,125.288071 70.211304,107.526321 
	C70.224556,101.505028 71.788597,99.959641 79.049622,99.202026 
	C82.924431,99.150955 85.965523,99.105942 89.469345,99.140015 
	C105.952522,99.166374 121.972946,99.113640 138.450638,99.128113 
	C142.607544,99.150398 146.307175,99.105469 150.006821,99.060532 
M110.853996,154.062744 
	C112.908653,154.022675 114.963318,153.982590 117.602097,153.888107 
	C117.780258,153.570587 117.958412,153.253082 118.282623,152.017563 
	C118.298622,150.522903 118.312210,149.028198 118.331047,147.533569 
	C118.402206,141.887268 117.678368,136.505142 122.792953,131.708710 
	C127.107903,127.662170 125.357201,120.495178 120.655746,116.722374 
	C116.172279,113.124489 109.772713,113.385315 105.632011,117.334732 
	C101.284798,121.481094 100.241890,128.566345 104.696327,132.503662 
	C108.775719,136.109482 108.762405,140.013229 108.689972,144.480652 
	C108.644287,147.298538 108.798477,150.119675 108.942673,153.519913 
	C109.288536,153.660797 109.634399,153.801682 110.853996,154.062744 
z"/>
<path fill="#FDFEFF" opacity="1.000000" stroke="none" 
	d="
M144.847473,76.047348 
	C146.522202,82.746384 148.235382,89.412285 149.507599,96.566711 
	C145.375290,97.046761 141.683960,97.038269 137.925430,96.637115 
	C137.568588,94.446152 137.330734,92.637711 136.980957,90.851196 
	C134.508301,78.222534 125.177330,70.063431 113.358681,70.166840 
	C101.471077,70.270836 92.297920,78.496384 89.979912,91.148819 
	C89.621902,93.102936 89.329918,95.069153 88.553505,97.057213 
	C85.073807,97.150795 82.047997,97.216934 78.789993,97.229332 
	C78.557800,97.175598 78.086212,97.244904 78.086212,97.244904 
	C78.079597,94.392204 77.604546,91.447304 78.144882,88.702271 
	C80.958771,74.407211 88.589874,63.936783 103.027542,59.694752 
	C116.810280,55.645149 128.971909,59.007507 139.309494,68.905777 
	C140.731415,70.267273 141.792389,72.005760 143.382019,74.089767 
	C144.150711,75.099144 144.557892,75.588448 144.965057,76.077751 
	C144.965057,76.077751 144.885910,76.014214 144.847473,76.047348 
z"/>
<path fill="#6899E1" opacity="1.000000" stroke="none" 
	d="
M79.022194,97.283066 
	C82.047997,97.216934 85.073807,97.150795 88.550262,97.395676 
	C89.002815,98.158112 89.004707,98.609520 89.006607,99.060928 
	C85.965523,99.105942 82.924431,99.150955 79.431198,99.130501 
	C78.983963,98.884697 78.988861,98.704353 79.008469,98.078674 
	C79.023178,97.633347 79.022194,97.283066 79.022194,97.283066 
z"/>
<path fill="#729FE3" opacity="1.000000" stroke="none" 
	d="
M144.899048,75.745880 
	C144.557892,75.588448 144.150711,75.099144 143.602661,74.310837 
	C143.918854,74.479225 144.375946,74.946617 144.899048,75.745880 
z"/>
<path fill="#6899E1" opacity="1.000000" stroke="none" 
	d="
M74.128304,169.103668 
	C74.440269,168.917374 74.880737,168.948944 75.645676,169.046967 
	C75.807579,169.370468 75.604828,169.590500 75.171463,169.894928 
	C74.739632,169.784760 74.498215,169.553162 74.128304,169.103668 
z"/>
<path fill="#729FE3" opacity="1.000000" stroke="none" 
	d="
M78.789993,97.229332 
	C79.022194,97.283066 79.023178,97.633347 79.018585,97.808258 
	C78.764587,97.879662 78.543259,97.733604 78.218109,97.394951 
	C78.086212,97.244904 78.557800,97.175598 78.789993,97.229332 
z"/>
<path fill="#6899E1" opacity="1.000000" stroke="none" 
	d="
M137.992615,97.029785 
	C141.683960,97.038269 145.375290,97.046761 149.521866,96.989891 
	C149.984177,97.399139 149.991257,97.873749 150.002579,98.704453 
	C146.307175,99.105469 142.607544,99.150398 138.451721,98.789505 
	C137.994568,97.932373 137.993607,97.481079 137.992615,97.029785 
z"/>
<path fill="#729FE3" opacity="1.000000" stroke="none" 
	d="
M137.925446,96.637108 
	C137.993607,97.481079 137.994568,97.932373 137.994461,98.722290 
	C121.972946,99.113640 105.952522,99.166374 89.469345,99.140015 
	C89.004707,98.609520 89.002815,98.158112 89.004158,97.368240 
	C89.329918,95.069153 89.621902,93.102936 89.979912,91.148819 
	C92.297920,78.496384 101.471077,70.270836 113.358681,70.166840 
	C125.177330,70.063431 134.508301,78.222534 136.980957,90.851196 
	C137.330734,92.637711 137.568588,94.446152 137.925446,96.637108 
z"/>
<path fill="#73A0E3" opacity="1.000000" stroke="none" 
	d="
M108.863007,152.939346 
	C108.798477,150.119675 108.644287,147.298538 108.689972,144.480652 
	C108.762405,140.013229 108.775719,136.109482 104.696327,132.503662 
	C100.241890,128.566345 101.284798,121.481094 105.632011,117.334732 
	C109.772713,113.385315 116.172279,113.124489 120.655746,116.722374 
	C125.357201,120.495178 127.107903,127.662170 122.792953,131.708710 
	C117.678368,136.505142 118.402206,141.887268 118.331047,147.533569 
	C118.312210,149.028198 118.298622,150.522903 117.993362,152.610565 
	C117.475395,153.449890 117.246689,153.696213 117.017975,153.942520 
	C114.963318,153.982590 112.908653,154.022675 110.265785,153.799896 
	C109.406052,153.337814 109.134529,153.138580 108.863007,152.939346 
z"/>
<path fill="#6698E1" opacity="1.000000" stroke="none" 
	d="
M108.902840,153.229630 
	C109.134529,153.138580 109.406052,153.337814 109.828918,153.739822 
	C109.634399,153.801682 109.288536,153.660797 108.902840,153.229630 
z"/>
<path fill="#6698E1" opacity="1.000000" stroke="none" 
	d="
M117.310036,153.915314 
	C117.246689,153.696213 117.475395,153.449890 117.920334,153.069565 
	C117.958412,153.253082 117.780258,153.570587 117.310036,153.915314 
z"/>
</svg>