<?xml version="1.0" standalone="no"?>
<!DOCTYPE svg PUBLIC "-//W3C//DTD SVG 20010904//EN"
 "http://www.w3.org/TR/2001/REC-SVG-20010904/DTD/svg10.dtd">
<svg version="1.0" xmlns="http://www.w3.org/2000/svg"
 width="237.000000pt" height="213.000000pt" viewBox="0 0 237.000000 213.000000"
 preserveAspectRatio="xMidYMid meet">

<g transform="translate(0.000000,213.000000) scale(0.100000,-0.100000)"
fill="#000000" stroke="none">
<path d="M116 2120 c-41 -13 -94 -68 -106 -110 -6 -21 -10 -307 -10 -740 0
-666 1 -707 19 -746 10 -23 34 -52 52 -65 l34 -24 458 -3 457 -3 0 -129 0
-130 -221 0 c-275 0 -288 -5 -289 -112 l0 -58 675 0 675 0 0 58 c-1 107 -14
112 -289 112 l-221 0 0 130 0 129 458 3 457 3 34 24 c18 13 42 42 52 65 18 39
19 80 19 746 0 433 -4 719 -10 740 -12 45 -65 97 -111 110 -43 13 -2092 12
-2133 0z m2084 -755 l0 -595 -1015 0 -1015 0 0 595 0 595 1015 0 1015 0 0
-595z m-955 -710 c35 -34 33 -78 -4 -116 -18 -17 -40 -29 -56 -29 -38 0 -85
50 -85 90 0 44 39 80 85 80 25 0 44 -8 60 -25z"/>
</g>
</svg>
