<svg version="1.1" id="Layer_1" xmlns="http://www.w3.org/2000/svg" xmlns:xlink="http://www.w3.org/1999/xlink" x="0px" y="0px"
	 width="100%" viewBox="0 0 240 240" enable-background="new 0 0 240 240" xml:space="preserve">
<path fill="none" opacity="1.000000" stroke="#000000" stroke-linecap="round" stroke-linejoin="round" stroke-width="3.000000"
	d="
M164.500000,162.500000 
	C165.543808,161.646194 164.968491,160.487106 164.969299,159.499969 
	C165.004868,116.166672 165.004623,72.833336 164.970978,29.500023 
	C164.970215,28.510674 165.514343,27.358721 163.959534,26.000000 
	C133.001770,26.000000 101.500885,26.000000 69.770828,26.000000 
	C69.681435,27.155245 69.511742,28.327600 69.511391,29.500004 
	C69.497940,74.500000 69.498665,119.500000 69.512558,164.500000 
	C69.512764,165.183197 69.177994,165.997162 70.000000,166.500000 
"/>
<path fill="none" opacity="1.000000" stroke="#000000" stroke-linecap="round" stroke-linejoin="round" stroke-width="3.000000"
	d="
M159.500000,161.000000 
	C170.438217,164.271515 178.957687,170.576660 183.914001,181.040741 
	C184.814880,182.942734 185.918274,182.977249 187.499710,183.013092 
	C206.187408,183.436569 219.205490,199.935593 218.996796,216.250000 
	C153.833328,216.250000 88.666664,216.250000 23.525331,216.250000 
	C21.628166,197.527191 40.016514,171.224930 68.789772,176.553665 
	C69.359230,173.539017 69.929611,170.519516 70.499992,167.500000 
"/>
<path fill="none" opacity="1.000000" stroke="#000000" stroke-linecap="round" stroke-linejoin="round" stroke-width="3.000000"
	d="
M159.000000,60.000000 
	C159.000000,50.830303 159.000000,41.660606 159.000000,32.250000 
	C130.833328,32.250000 103.166664,32.250000 75.250000,32.250000 
	C75.250000,41.833332 75.250000,51.166668 75.250000,61.000000 
	C90.329590,61.000000 105.164795,61.000000 120.000000,61.000000 
	C130.666672,61.000000 141.333450,61.027206 151.999893,60.977348 
	C154.167297,60.967220 156.333328,60.666668 158.500000,60.500000 
"/>
<path fill="none" opacity="1.000000" stroke="#000000" stroke-linecap="round" stroke-linejoin="round" stroke-width="2.000000"
	d="
M142.500000,154.500000 
	C141.449905,157.711945 145.024551,158.941864 145.326294,161.691132 
	C149.766479,160.297531 154.221375,161.544495 158.750000,160.703506 
	C158.750000,151.339401 158.750000,142.169693 158.750000,132.750000 
	C131.166672,132.750000 103.333336,132.750000 75.000000,132.750000 
	C75.000000,138.823807 74.616585,144.694305 75.106415,150.491013 
	C75.609459,156.443924 74.219635,161.638245 71.000000,166.500000 
"/>
<path fill="none" opacity="1.000000" stroke="#000000" stroke-linecap="round" stroke-linejoin="round" stroke-width="3.000000"
	d="
M75.000000,66.000000 
	C75.000000,75.169701 75.000000,84.339394 75.000000,93.750000 
	C103.166664,93.750000 130.833328,93.750000 158.750000,93.750000 
	C158.750000,84.339394 158.750000,75.169701 158.750000,65.500000 
	C131.335342,65.500000 103.667671,65.500000 76.000000,65.500000 
"/>
<path fill="none" opacity="1.000000" stroke="#000000" stroke-linecap="round" stroke-linejoin="round" stroke-width="5.000000"
	d="
M148.000000,140.000000 
	C134.935165,140.597519 121.950172,139.691971 108.997147,138.022156 
	C105.234413,137.537079 101.571632,138.591446 98.021835,139.578522 
	C94.517296,140.553009 91.366920,142.414108 87.512329,142.679214 
	C85.125015,142.843414 82.857430,144.815735 82.017639,147.505508 
	C80.924347,151.007263 78.699081,153.660141 76.000000,156.000000 
"/>
<path fill="none" opacity="1.000000" stroke="#000000" stroke-linecap="round" stroke-linejoin="round" stroke-width="4.000000"
	d="
M148.500000,113.500000 
	C138.500000,113.500000 128.500000,113.500000 118.500000,113.500000 
"/>
<path fill="none" opacity="1.000000" stroke="#000000" stroke-linecap="round" stroke-linejoin="round" stroke-width="4.000000"
	d="
M148.500000,46.500000 
	C138.500000,46.500000 128.500000,46.500000 118.500000,46.500000 
"/>
<path fill="none" opacity="1.000000" stroke="#000000" stroke-linecap="round" stroke-linejoin="round" stroke-width="5.000000"
	d="
M148.000000,80.000000 
	C138.333328,80.000000 128.666672,80.000000 119.000000,80.000000 
"/>
<path fill="none" opacity="1.000000" stroke="#000000" stroke-linecap="round" stroke-linejoin="round" stroke-width="5.000000"
	d="
M148.000000,121.000000 
	C138.333328,121.000000 128.666672,121.000000 119.000000,121.000000 
"/>
<path fill="none" opacity="1.000000" stroke="#000000" stroke-linecap="round" stroke-linejoin="round" stroke-width="5.000000"
	d="
M148.000000,106.000000 
	C138.333328,106.000000 128.666672,106.000000 119.000000,106.000000 
"/>
<path fill="none" opacity="1.000000" stroke="#000000" stroke-linecap="round" stroke-linejoin="round" stroke-width="5.000000"
	d="
M148.000000,87.000000 
	C138.333328,87.000000 128.666672,87.000000 119.000000,87.000000 
"/>
<path fill="none" opacity="1.000000" stroke="#000000" stroke-linecap="round" stroke-linejoin="round" stroke-width="5.000000"
	d="
M148.000000,73.000000 
	C138.333328,73.000000 128.666672,73.000000 119.000000,73.000000 
"/>
<path fill="none" opacity="1.000000" stroke="#000000" stroke-linecap="round" stroke-linejoin="round" stroke-width="5.000000"
	d="
M148.000000,54.000000 
	C138.333328,54.000000 128.666672,54.000000 119.000000,54.000000 
"/>
<path fill="none" opacity="1.000000" stroke="#000000" stroke-linecap="round" stroke-linejoin="round" stroke-width="5.000000"
	d="
M148.000000,39.000000 
	C138.333328,39.000000 128.666672,39.000000 119.000000,39.000000 
"/>
<path fill="none" opacity="1.000000" stroke="#000000" stroke-linecap="round" stroke-linejoin="round" stroke-width="5.000000"
	d="
M148.000000,147.000000 
	C144.500000,147.000000 140.997726,147.079681 137.500580,146.979919 
	C133.090317,146.854080 129.422073,145.352112 127.500000,141.000000 
"/>
<path fill="none" opacity="1.000000" stroke="#000000" stroke-linecap="round" stroke-linejoin="round" stroke-width="3.000000"
	d="
M150.500000,153.500000 
	C141.606827,154.964478 139.466507,154.123642 136.500000,148.000000 
"/>
<path fill="none" opacity="1.000000" stroke="#000000" stroke-linecap="round" stroke-linejoin="round" stroke-width="5.000000"
	d="
M86.500000,40.500000 
	C86.500000,42.333332 86.500000,44.166668 86.500000,46.500000 
	C88.486252,46.500000 90.493126,46.500000 92.500000,46.500000 
"/>
<path fill="none" opacity="1.000000" stroke="#000000" stroke-linecap="round" stroke-linejoin="round" stroke-width="3.000000"
	d="
M76.500000,99.000000 
	C75.597023,99.097023 75.014824,99.596832 75.012726,100.500031 
	C74.991760,109.503059 75.000000,118.506172 75.000000,127.750000 
	C103.166664,127.750000 130.833328,127.750000 158.750000,127.750000 
	C158.750000,118.166664 158.750000,108.833336 158.750000,99.000000 
	C131.335373,99.000000 104.167686,99.000000 77.000000,99.000000 
"/>
</svg>