<svg version="1.1" id="Layer_1" xmlns="http://www.w3.org/2000/svg" xmlns:xlink="http://www.w3.org/1999/xlink" x="0px" y="0px"
	 width="100%" viewBox="0 0 206 127" enable-background="new 0 0 206 127" xml:space="preserve">
<path fill="#FFFEFD" opacity="1.000000" stroke="none" 
	d="
M157.000000,128.000000 
	C104.666672,128.000000 52.833347,128.000000 1.000014,128.000000 
	C1.000009,85.666679 1.000009,43.333355 1.000005,1.000025 
	C69.666649,1.000017 138.333298,1.000017 206.999954,1.000008 
	C206.999969,43.333309 206.999969,85.666618 206.999985,127.999962 
	C190.500000,128.000000 174.000000,128.000000 157.000000,128.000000 
M81.553116,102.213379 
	C81.553116,102.213379 81.615135,102.440109 81.930931,103.003082 
	C84.301491,105.298981 86.672058,107.594872 89.061798,109.975426 
	C89.061798,109.975426 89.141685,109.941467 89.637520,110.634392 
	C90.924423,110.831108 92.211067,111.197464 93.498260,111.199364 
	C116.806602,111.233650 140.115005,111.225586 163.423401,111.214890 
	C164.009186,111.214622 164.594925,111.082291 165.959320,110.917526 
	C164.598389,109.794418 163.880676,109.202133 162.943008,108.000298 
	C160.258560,105.299393 157.343613,102.786034 154.952148,99.846756 
	C152.373489,96.677444 149.345734,95.880646 145.408508,95.963104 
	C134.145493,96.198990 122.831810,95.439796 111.618988,96.226089 
	C101.523262,96.934052 93.077438,95.259651 87.130905,86.414253 
	C86.965340,86.167961 86.588242,86.063881 86.088364,85.357140 
	C85.777351,85.145134 85.466331,84.933128 85.171715,84.700279 
	C85.171715,84.700279 85.193222,84.680840 84.923599,84.115944 
	C86.203011,81.894783 87.482422,79.673622 89.568680,76.051712 
	C96.605492,90.021637 107.652290,89.264252 120.382919,87.589256 
	C114.522240,79.213264 106.554710,73.729576 101.090820,66.782043 
	C102.814392,64.770790 104.294640,63.043468 106.748581,60.179932 
	C113.630699,67.529930 120.259659,74.609558 127.208145,82.030434 
	C128.297012,69.360077 129.972412,57.244213 116.772980,50.254715 
	C119.063049,47.797001 120.615036,46.131401 122.404755,44.210667 
	C113.832771,35.690437 105.526054,27.290144 96.999855,19.118858 
	C95.764519,17.934950 93.487518,17.375822 91.674690,17.335751 
	C83.348557,17.151712 75.016075,17.254646 66.685875,17.254625 
	C58.621307,17.254604 50.556736,17.254620 42.492168,17.254620 
	C42.252048,17.691511 42.011929,18.128403 41.771809,18.565294 
	C45.986980,22.511044 50.075905,26.606499 54.483795,30.323725 
	C56.090050,31.678299 58.432495,32.808784 60.478886,32.878860 
	C68.799332,33.163795 77.135918,32.942459 85.464821,33.046539 
	C87.030457,33.066109 88.937256,33.271492 90.085472,34.164276 
	C93.851242,37.092304 97.340080,40.376507 100.617332,43.245411 
	C94.262421,49.785942 88.953735,55.249687 83.599342,60.760479 
	C82.392075,59.610153 81.224152,58.652271 80.240555,57.532494 
	C76.560097,53.342510 70.604294,50.488373 71.948830,43.260700 
	C72.059937,42.663414 70.310417,41.093025 69.359604,41.033962 
	C65.294388,40.781445 61.204487,40.926418 56.934902,40.926418 
	C56.934902,44.192543 57.202045,46.717289 56.878605,49.163960 
	C56.229652,54.072964 58.086792,57.540718 61.680046,60.858639 
	C68.401184,67.064789 74.759789,73.672417 81.085510,80.288651 
	C82.059967,81.307854 82.056793,83.261780 81.919792,84.985703 
	C80.224663,86.811287 78.529533,88.636871 76.225876,90.774750 
	C74.886177,91.586372 73.546478,92.397987 71.929688,93.377480 
	C74.139496,95.250954 75.087822,96.054947 76.373703,97.420006 
	C77.639160,98.598259 78.904617,99.776512 80.405754,101.440483 
	C80.820312,101.769493 81.234871,102.098511 81.553116,102.213379 
M137.926636,88.141205 
	C142.189606,88.141205 146.452576,88.141205 151.060837,88.141205 
	C151.060837,76.014008 151.090851,64.418671 151.009827,52.824104 
	C151.002518,51.778946 150.552368,50.475571 149.843674,49.738319 
	C144.577789,44.260231 139.194504,38.894985 133.863251,33.509651 
	C129.906876,37.375225 126.364052,40.836731 123.207512,43.920818 
	C127.453056,48.416504 131.543472,52.747929 135.806946,57.993179 
	C135.832321,66.554047 135.806747,75.115654 135.932983,83.675041 
	C135.954163,85.111374 136.632706,86.538017 137.926636,88.141205 
z"/>
<path fill="#FF6806" opacity="1.000000" stroke="none" 
	d="
M82.505753,84.783417 
	C82.056793,83.261780 82.059967,81.307854 81.085510,80.288651 
	C74.759789,73.672417 68.401184,67.064789 61.680046,60.858639 
	C58.086792,57.540718 56.229652,54.072964 56.878605,49.163960 
	C57.202045,46.717289 56.934902,44.192543 56.934902,40.926418 
	C61.204487,40.926418 65.294388,40.781445 69.359604,41.033962 
	C70.310417,41.093025 72.059937,42.663414 71.948830,43.260700 
	C70.604294,50.488373 76.560097,53.342510 80.240555,57.532494 
	C81.224152,58.652271 82.392075,59.610153 83.599342,60.760479 
	C88.953735,55.249687 94.262421,49.785942 100.617332,43.245411 
	C97.340080,40.376507 93.851242,37.092304 90.085472,34.164276 
	C88.937256,33.271492 87.030457,33.066109 85.464821,33.046539 
	C77.135918,32.942459 68.799332,33.163795 60.478886,32.878860 
	C58.432495,32.808784 56.090050,31.678299 54.483795,30.323725 
	C50.075905,26.606499 45.986980,22.511044 41.771809,18.565294 
	C42.011929,18.128403 42.252048,17.691511 42.492168,17.254620 
	C50.556736,17.254620 58.621307,17.254604 66.685875,17.254625 
	C75.016075,17.254646 83.348557,17.151712 91.674690,17.335751 
	C93.487518,17.375822 95.764519,17.934950 96.999855,19.118858 
	C105.526054,27.290144 113.832771,35.690437 122.404755,44.210667 
	C120.615036,46.131401 119.063049,47.797001 116.772980,50.254715 
	C129.972412,57.244213 128.297012,69.360077 127.208145,82.030434 
	C120.259659,74.609558 113.630699,67.529930 106.748581,60.179932 
	C104.294640,63.043468 102.814392,64.770790 101.090820,66.782043 
	C106.554710,73.729576 114.522240,79.213264 120.382919,87.589256 
	C107.652290,89.264252 96.605492,90.021637 89.568680,76.051712 
	C87.482422,79.673622 86.203011,81.894783 84.614838,84.482040 
	C83.705971,84.826569 83.105865,84.804993 82.505753,84.783417 
z"/>
<path fill="#FF6705" opacity="1.000000" stroke="none" 
	d="
M82.212769,84.884560 
	C83.105865,84.804993 83.705971,84.826569 84.749649,84.764488 
	C85.193222,84.680840 85.171715,84.700279 85.244102,84.999741 
	C85.647583,85.497292 85.978683,85.695389 86.309776,85.893478 
	C86.588242,86.063881 86.965340,86.167961 87.130905,86.414253 
	C93.077438,95.259651 101.523262,96.934052 111.618988,96.226089 
	C122.831810,95.439796 134.145493,96.198990 145.408508,95.963104 
	C149.345734,95.880646 152.373489,96.677444 154.952148,99.846756 
	C157.343613,102.786034 160.258560,105.299393 162.794891,108.665100 
	C161.369690,109.552658 160.092743,109.968414 158.815445,109.969536 
	C135.590897,109.989876 112.366280,109.960365 89.141685,109.941467 
	C89.141685,109.941467 89.061798,109.975426 89.035088,109.574066 
	C86.543968,106.928505 84.079552,104.684303 81.615135,102.440109 
	C81.615135,102.440109 81.553116,102.213379 81.607681,102.013313 
	C81.164848,101.527092 80.667458,101.240936 80.170067,100.954773 
	C78.904617,99.776512 77.639160,98.598259 76.204483,96.737946 
	C76.301651,94.191406 76.568031,92.326935 76.834412,90.462463 
	C78.529533,88.636871 80.224663,86.811287 82.212769,84.884560 
z"/>
<path fill="#FF6705" opacity="1.000000" stroke="none" 
	d="
M135.633911,57.079353 
	C131.543472,52.747929 127.453056,48.416504 123.207512,43.920818 
	C126.364052,40.836731 129.906876,37.375225 133.863251,33.509651 
	C139.194504,38.894985 144.577789,44.260231 149.843674,49.738319 
	C150.552368,50.475571 151.002518,51.778946 151.009827,52.824104 
	C151.090851,64.418671 151.060837,76.014008 151.060837,88.141205 
	C146.452576,88.141205 142.189606,88.141205 137.466049,87.588638 
	C137.004059,78.664467 137.073883,70.291710 136.939438,61.922241 
	C136.913406,60.301373 136.089676,58.693317 135.633911,57.079353 
z"/>
<path fill="#FF5901" opacity="1.000000" stroke="none" 
	d="
M89.389603,110.287933 
	C112.366280,109.960365 135.590897,109.989876 158.815445,109.969536 
	C160.092743,109.968414 161.369690,109.552658 162.904877,108.969879 
	C163.880676,109.202133 164.598389,109.794418 165.959320,110.917526 
	C164.594925,111.082291 164.009186,111.214622 163.423401,111.214890 
	C140.115005,111.225586 116.806602,111.233650 93.498260,111.199364 
	C92.211067,111.197464 90.924423,110.831108 89.389603,110.287933 
z"/>
<path fill="#FF5300" opacity="1.000000" stroke="none" 
	d="
M135.720428,57.536263 
	C136.089676,58.693317 136.913406,60.301373 136.939438,61.922241 
	C137.073883,70.291710 137.004059,78.664467 137.006500,87.502602 
	C136.632706,86.538017 135.954163,85.111374 135.932983,83.675041 
	C135.806747,75.115654 135.832321,66.554047 135.720428,57.536263 
z"/>
<path fill="#FF6806" opacity="1.000000" stroke="none" 
	d="
M81.773033,102.721596 
	C84.079552,104.684303 86.543968,106.928505 89.025497,109.531738 
	C86.672058,107.594872 84.301491,105.298981 81.773033,102.721596 
z"/>
<path fill="#FF6806" opacity="1.000000" stroke="none" 
	d="
M76.530144,90.618607 
	C76.568031,92.326935 76.301651,94.191406 76.035713,96.457413 
	C75.087822,96.054947 74.139496,95.250954 71.929688,93.377480 
	C73.546478,92.397987 74.886177,91.586372 76.530144,90.618607 
z"/>
<path fill="#FF6806" opacity="1.000000" stroke="none" 
	d="
M80.287910,101.197632 
	C80.667458,101.240936 81.164848,101.527092 81.655830,102.120392 
	C81.234871,102.098511 80.820312,101.769493 80.287910,101.197632 
z"/>
<path fill="#FF6806" opacity="1.000000" stroke="none" 
	d="
M86.199066,85.625305 
	C85.978683,85.695389 85.647583,85.497292 85.235901,85.010162 
	C85.466331,84.933128 85.777351,85.145134 86.199066,85.625305 
z"/>
</svg>