<?xml version="1.0" encoding="UTF-8"?>
<!DOCTYPE svg PUBLIC "-//W3C//DTD SVG 1.1//EN" "http://www.w3.org/Graphics/SVG/1.1/DTD/svg11.dtd">
<svg xmlns="http://www.w3.org/2000/svg" version="1.1" width="512px" height="512px" style="shape-rendering:geometricPrecision; text-rendering:geometricPrecision; image-rendering:optimizeQuality; fill-rule:evenodd; clip-rule:evenodd" xmlns:xlink="http://www.w3.org/1999/xlink">
<g><path style="opacity:1" fill="#a5ce3a" d="M 385.5,96.5 C 378.11,98.2967 370.777,100.297 363.5,102.5C 358.484,84.9367 353.318,67.27 348,49.5C 345.551,46.8762 343.051,44.5429 340.5,42.5C 348.23,39.9409 356.063,37.6076 364,35.5C 365.473,35.9031 366.806,36.5697 368,37.5C 373.99,57.1282 379.823,76.7949 385.5,96.5 Z"/></g>
<g><path style="opacity:0.996" fill="#d3e16b" d="M 340.5,42.5 C 343.051,44.5429 345.551,46.8762 348,49.5C 353.318,67.27 358.484,84.9367 363.5,102.5C 363.5,102.833 363.5,103.167 363.5,103.5C 332.572,111.563 301.905,120.229 271.5,129.5C 268.167,118.833 264.833,108.167 261.5,97.5C 261.976,93.6215 260.976,90.2882 258.5,87.5C 257.485,82.1076 256.152,76.7742 254.5,71.5C 254.848,69.3033 255.848,67.47 257.5,66C 285.156,58.0582 312.823,50.2249 340.5,42.5 Z"/></g>
<g><path style="opacity:0.984" fill="#fe6b80" d="M 137.5,46.5 C 138.688,47.3636 139.855,48.3636 141,49.5C 141.5,69.8306 141.667,90.1639 141.5,110.5C 109.167,110.5 76.8333,110.5 44.5,110.5C 44.3334,90.4972 44.5,70.4972 45,50.5C 45.3742,49.5838 45.8742,48.7504 46.5,48C 76.7456,46.5156 107.079,46.0156 137.5,46.5 Z"/></g>
<g><path style="opacity:1" fill="#ed2362" d="M 137.5,46.5 C 144.841,46.3337 152.174,46.5003 159.5,47C 160.931,47.4652 162.097,48.2986 163,49.5C 163.5,61.8288 163.667,74.1622 163.5,86.5C 162.533,94.4144 162.199,102.414 162.5,110.5C 155.5,110.5 148.5,110.5 141.5,110.5C 141.667,90.1639 141.5,69.8306 141,49.5C 139.855,48.3636 138.688,47.3636 137.5,46.5 Z"/></g>
<g><path style="opacity:0.99" fill="#f9d01f" d="M 163.5,86.5 C 187.5,86.5 211.5,86.5 235.5,86.5C 236.315,87.8366 237.482,88.8366 239,89.5C 239.5,109.831 239.667,130.164 239.5,150.5C 213.833,150.5 188.167,150.5 162.5,150.5C 162.5,137.167 162.5,123.833 162.5,110.5C 162.199,102.414 162.533,94.4144 163.5,86.5 Z"/></g>
<g><path style="opacity:1" fill="#fea503" d="M 235.5,86.5 C 243.253,86.201 250.92,86.5343 258.5,87.5C 260.976,90.2882 261.976,93.6215 261.5,97.5C 261.5,115.167 261.5,132.833 261.5,150.5C 254.167,150.5 246.833,150.5 239.5,150.5C 239.667,130.164 239.5,109.831 239,89.5C 237.482,88.8366 236.315,87.8366 235.5,86.5 Z"/></g>
<g><path style="opacity:1" fill="#fadf64" d="M 385.5,96.5 C 389.322,109.455 392.989,122.455 396.5,135.5C 389.11,137.297 381.777,139.297 374.5,141.5C 371.142,128.732 367.475,116.065 363.5,103.5C 363.5,103.167 363.5,102.833 363.5,102.5C 370.777,100.297 378.11,98.2967 385.5,96.5 Z"/></g>
<g><path style="opacity:0.997" fill="#fceca4" d="M 363.5,103.5 C 367.475,116.065 371.142,128.732 374.5,141.5C 343.776,149.964 313.109,158.63 282.5,167.5C 278.464,155.045 274.797,142.379 271.5,129.5C 301.905,120.229 332.572,111.563 363.5,103.5 Z"/></g>
<g><path style="opacity:0.994" fill="#fdeca4" d="M 44.5,110.5 C 76.8333,110.5 109.167,110.5 141.5,110.5C 141.5,123.833 141.5,137.167 141.5,150.5C 109.167,150.5 76.8333,150.5 44.5,150.5C 44.5,137.167 44.5,123.833 44.5,110.5 Z"/></g>
<g><path style="opacity:1" fill="#fbdf64" d="M 141.5,110.5 C 148.5,110.5 155.5,110.5 162.5,110.5C 162.5,123.833 162.5,137.167 162.5,150.5C 155.5,150.5 148.5,150.5 141.5,150.5C 141.5,137.167 141.5,123.833 141.5,110.5 Z"/></g>
<g><path style="opacity:1" fill="#a4ce39" d="M 396.5,135.5 C 417.5,208.167 438.5,280.833 459.5,353.5C 452.817,355.503 446.15,357.503 439.5,359.5C 438.833,359.5 438.167,359.5 437.5,359.5C 416.754,286.776 395.754,214.109 374.5,141.5C 381.777,139.297 389.11,137.297 396.5,135.5 Z"/></g>
<g><path style="opacity:0.998" fill="#d4e16c" d="M 374.5,141.5 C 395.754,214.109 416.754,286.776 437.5,359.5C 407.04,368.787 376.373,377.787 345.5,386.5C 323.928,313.77 302.928,240.77 282.5,167.5C 313.109,158.63 343.776,149.964 374.5,141.5 Z"/></g>
<g><path style="opacity:1" fill="#ecbd61" d="M 162.5,150.5 C 188.167,150.5 213.833,150.5 239.5,150.5C 239.5,150.833 239.5,151.167 239.5,151.5C 214.167,151.5 188.833,151.5 163.5,151.5C 163.5,164.5 163.5,177.5 163.5,190.5C 163.5,255.833 163.5,321.167 163.5,386.5C 188.833,386.5 214.167,386.5 239.5,386.5C 239.833,386.5 240.167,386.5 240.5,386.5C 247.167,386.5 253.833,386.5 260.5,386.5C 260.5,386.833 260.5,387.167 260.5,387.5C 253.5,387.5 246.5,387.5 239.5,387.5C 213.833,387.5 188.167,387.5 162.5,387.5C 162.5,387.167 162.5,386.833 162.5,386.5C 162.5,308.167 162.5,229.833 162.5,151.5C 162.5,151.167 162.5,150.833 162.5,150.5 Z"/></g>
<g><path style="opacity:0.992" fill="#fe6c81" d="M 44.5,150.5 C 76.8333,150.5 109.167,150.5 141.5,150.5C 148.5,150.5 155.5,150.5 162.5,150.5C 162.5,150.833 162.5,151.167 162.5,151.5C 155.5,151.5 148.5,151.5 141.5,151.5C 141.5,229.833 141.5,308.167 141.5,386.5C 148.5,386.5 155.5,386.5 162.5,386.5C 162.5,386.833 162.5,387.167 162.5,387.5C 155.5,387.5 148.5,387.5 141.5,387.5C 109.167,387.5 76.8333,387.5 44.5,387.5C 44.5,308.5 44.5,229.5 44.5,150.5 Z"/></g>
<g><path style="opacity:1" fill="#ed2261" d="M 162.5,151.5 C 162.5,229.833 162.5,308.167 162.5,386.5C 155.5,386.5 148.5,386.5 141.5,386.5C 141.5,308.167 141.5,229.833 141.5,151.5C 148.5,151.5 155.5,151.5 162.5,151.5 Z"/></g>
<g><path style="opacity:1" fill="#fceda4" d="M 239.5,151.5 C 239.5,164.5 239.5,177.5 239.5,190.5C 214.167,190.5 188.833,190.5 163.5,190.5C 163.5,177.5 163.5,164.5 163.5,151.5C 188.833,151.5 214.167,151.5 239.5,151.5 Z"/></g>
<g><path style="opacity:1" fill="#fbde63" d="M 239.5,150.5 C 246.833,150.5 254.167,150.5 261.5,150.5C 261.5,163.833 261.5,177.167 261.5,190.5C 254.167,190.5 246.833,190.5 239.5,190.5C 239.5,177.5 239.5,164.5 239.5,151.5C 239.5,151.167 239.5,150.833 239.5,150.5 Z"/></g>
<g><path style="opacity:1" fill="#fffbfc" d="M 83.5,189.5 C 88.2797,188.641 91.7797,190.308 94,194.5C 94.6667,244.833 94.6667,295.167 94,345.5C 91.7742,349.861 88.2742,351.361 83.5,350C 82,349.167 80.8333,348 80,346.5C 79.3333,295.5 79.3333,244.5 80,193.5C 81.1022,192.051 82.2689,190.718 83.5,189.5 Z"/></g>
<g><path style="opacity:1" fill="#f9d120" d="M 163.5,190.5 C 188.833,190.5 214.167,190.5 239.5,190.5C 239.5,255.833 239.5,321.167 239.5,386.5C 214.167,386.5 188.833,386.5 163.5,386.5C 163.5,321.167 163.5,255.833 163.5,190.5 Z"/></g>
<g><path style="opacity:0.498" fill="#fbb511" d="M 239.5,190.5 C 246.833,190.5 254.167,190.5 261.5,190.5C 261.5,256.167 261.5,321.833 261.5,387.5C 261.167,387.5 260.833,387.5 260.5,387.5C 260.5,387.167 260.5,386.833 260.5,386.5C 260.5,321.5 260.5,256.5 260.5,191.5C 253.833,191.5 247.167,191.5 240.5,191.5C 240.5,256.5 240.5,321.5 240.5,386.5C 240.167,386.5 239.833,386.5 239.5,386.5C 239.5,321.167 239.5,255.833 239.5,190.5 Z"/></g>
<g><path style="opacity:1" fill="#fea401" d="M 260.5,386.5 C 253.833,386.5 247.167,386.5 240.5,386.5C 240.5,321.5 240.5,256.5 240.5,191.5C 247.167,191.5 253.833,191.5 260.5,191.5C 260.5,256.5 260.5,321.5 260.5,386.5 Z"/></g>
<g><path style="opacity:1" fill="#fefefc" d="M 333.5,191.5 C 336.482,191.104 339.149,191.771 341.5,193.5C 343.671,196.505 345.171,199.839 346,203.5C 358.515,247.894 371.181,292.228 384,336.5C 385.326,344.171 382.159,347.671 374.5,347C 372.333,346.167 370.833,344.667 370,342.5C 356.667,295.833 343.333,249.167 330,202.5C 328.662,197.96 329.829,194.293 333.5,191.5 Z"/></g>
<g><path style="opacity:1" fill="#fefefc" d="M 373.5,204.5 C 376.602,204.154 379.435,204.821 382,206.5C 392.266,238.967 401.933,271.633 411,304.5C 412.326,312.171 409.159,315.671 401.5,315C 399.333,314.167 397.833,312.667 397,310.5C 388.401,279.371 379.401,248.371 370,217.5C 369.333,214.167 369.333,210.833 370,207.5C 371.145,206.364 372.312,205.364 373.5,204.5 Z"/></g>
<g><path style="opacity:1" fill="#fffbfb" d="M 118.5,212.5 C 122.594,211.705 125.761,213.038 128,216.5C 128.667,252.167 128.667,287.833 128,323.5C 122.309,329.293 117.643,328.626 114,321.5C 113.333,286.833 113.333,252.167 114,217.5C 115.059,215.341 116.559,213.674 118.5,212.5 Z"/></g>
<g><path style="opacity:1" fill="#fffefb" d="M 209.5,228.5 C 213.594,227.705 216.761,229.038 219,232.5C 219.667,270.167 219.667,307.833 219,345.5C 213.919,350.986 209.252,350.653 205,344.5C 204.333,307.5 204.333,270.5 205,233.5C 206.025,231.313 207.525,229.646 209.5,228.5 Z"/></g>
<g><path style="opacity:1" fill="#415e6f" d="M 459.5,353.5 C 464.892,372.845 470.392,392.178 476,411.5C 477.183,415.274 476.349,418.441 473.5,421C 443.959,429.214 414.625,437.714 385.5,446.5C 377.833,446.5 370.167,446.5 362.5,446.5C 360.433,440.63 358.767,434.63 357.5,428.5C 379.571,422.311 401.571,415.811 423.5,409C 436.626,407.046 443.626,399.546 444.5,386.5C 443.369,378.141 441.369,369.974 438.5,362C 438.743,361.098 439.077,360.265 439.5,359.5C 446.15,357.503 452.817,355.503 459.5,353.5 Z"/></g>
<g><path style="opacity:0.997" fill="#56788a" d="M 437.5,359.5 C 438.167,359.5 438.833,359.5 439.5,359.5C 439.077,360.265 438.743,361.098 438.5,362C 441.369,369.974 443.369,378.141 444.5,386.5C 443.626,399.546 436.626,407.046 423.5,409C 401.571,415.811 379.571,422.311 357.5,428.5C 352.926,414.763 348.926,400.763 345.5,386.5C 376.373,377.787 407.04,368.787 437.5,359.5 Z"/></g>
<g><path style="opacity:0.993" fill="#55778a" d="M 44.5,387.5 C 76.8333,387.5 109.167,387.5 141.5,387.5C 141.92,397.247 141.42,406.914 140,416.5C 137.054,421.445 132.888,424.945 127.5,427C 99.8353,427.5 72.1687,427.667 44.5,427.5C 44.5,414.167 44.5,400.833 44.5,387.5 Z"/></g>
<g><path style="opacity:1" fill="#425e6f" d="M 141.5,387.5 C 148.5,387.5 155.5,387.5 162.5,387.5C 162.5,400.833 162.5,414.167 162.5,427.5C 183.169,427.667 203.836,427.5 224.5,427C 232,424.833 236.833,420 239,412.5C 239.5,404.173 239.666,395.84 239.5,387.5C 246.5,387.5 253.5,387.5 260.5,387.5C 260.833,387.5 261.167,387.5 261.5,387.5C 261.5,407.167 261.5,426.833 261.5,446.5C 189.167,446.5 116.833,446.5 44.5,446.5C 44.5,440.167 44.5,433.833 44.5,427.5C 72.1687,427.667 99.8353,427.5 127.5,427C 132.888,424.945 137.054,421.445 140,416.5C 141.42,406.914 141.92,397.247 141.5,387.5 Z"/></g>
<g><path style="opacity:1" fill="#56788a" d="M 162.5,387.5 C 188.167,387.5 213.833,387.5 239.5,387.5C 239.666,395.84 239.5,404.173 239,412.5C 236.833,420 232,424.833 224.5,427C 203.836,427.5 183.169,427.667 162.5,427.5C 162.5,414.167 162.5,400.833 162.5,387.5 Z"/></g>
<g><path style="opacity:0.968" fill="#d67d41" d="M 44.5,446.5 C 116.833,446.5 189.167,446.5 261.5,446.5C 295.167,446.5 328.833,446.5 362.5,446.5C 370.167,446.5 377.833,446.5 385.5,446.5C 414.833,446.5 444.167,446.5 473.5,446.5C 483.849,450.872 486.682,458.205 482,468.5C 480.062,471.106 477.562,472.939 474.5,474C 482.344,474.171 490.011,474.671 497.5,475.5C 335.833,475.667 174.166,475.5 12.5,475C 6.69467,474.352 2.36134,471.519 -0.5,466.5C -0.5,462.833 -0.5,459.167 -0.5,455.5C 1.31481,451.521 4.31481,448.688 8.5,447C 20.4954,446.5 32.4954,446.333 44.5,446.5 Z"/></g>
<g><path style="opacity:1" fill="#b5612a" d="M 473.5,446.5 C 483.172,446.334 492.839,446.5 502.5,447C 506.685,448.688 509.685,451.521 511.5,455.5C 511.5,459.167 511.5,462.833 511.5,466.5C 508.413,471.915 503.746,474.915 497.5,475.5C 490.011,474.671 482.344,474.171 474.5,474C 477.562,472.939 480.062,471.106 482,468.5C 486.682,458.205 483.849,450.872 473.5,446.5 Z"/></g>
</svg>
