<?xml version="1.0" encoding="UTF-8"?>
<!DOCTYPE svg PUBLIC "-//W3C//DTD SVG 1.1//EN" "http://www.w3.org/Graphics/SVG/1.1/DTD/svg11.dtd">
<svg xmlns="http://www.w3.org/2000/svg" version="1.1" width="512px" height="512px" style="shape-rendering:geometricPrecision; text-rendering:geometricPrecision; image-rendering:optimizeQuality; fill-rule:evenodd; clip-rule:evenodd" xmlns:xlink="http://www.w3.org/1999/xlink">
<g><path style="opacity:0.934" fill="#000000" d="M 248.5,15.5 C 263.367,13.0115 273.534,18.6782 279,32.5C 281.982,47.3761 276.482,57.5428 262.5,63C 247.624,65.9816 237.457,60.4816 232,46.5C 229.146,31.5328 234.646,21.1994 248.5,15.5 Z M 252.5,32.5 C 261.85,32.3654 264.517,36.532 260.5,45C 251.956,48.3224 248.123,45.4891 249,36.5C 249.69,34.6498 250.856,33.3164 252.5,32.5 Z"/></g>
<g><path style="opacity:0.926" fill="#000000" d="M 147.5,31.5 C 167.916,33.2019 188.249,35.7019 208.5,39C 211.494,39.4057 213.661,40.9057 215,43.5C 215.817,46.9643 215.483,50.2976 214,53.5C 200.138,67.696 185.971,81.5293 171.5,95C 167.756,95.9285 164.256,95.4285 161,93.5C 158.273,87.3206 155.94,80.9872 154,74.5C 99.0532,107.385 64.3865,155.051 50,217.5C 44.7015,216.537 39.5349,215.203 34.5,213.5C 49.9133,144.787 87.9133,92.7866 148.5,57.5C 145.003,50.5258 143.503,43.1924 144,35.5C 144.69,33.6498 145.856,32.3164 147.5,31.5 Z M 164.5,50.5 C 172.606,50.9675 180.606,52.1342 188.5,54C 182.985,59.6816 177.319,65.1816 171.5,70.5C 168.768,63.9699 166.434,57.3033 164.5,50.5 Z"/></g>
<g><path style="opacity:0.927" fill="#000000" d="M 296.5,34.5 C 365.852,49.3176 418.185,87.3176 453.5,148.5C 460.474,145.003 467.808,143.503 475.5,144C 476.416,144.374 477.25,144.874 478,145.5C 479.545,150.047 479.879,154.713 479,159.5C 476.667,175.833 474.333,192.167 472,208.5C 471.403,213.548 468.57,215.882 463.5,215.5C 461.366,215.485 459.366,214.985 457.5,214C 444,200.5 430.5,187 417,173.5C 415,169.5 415,165.5 417,161.5C 423.248,158.416 429.748,155.916 436.5,154C 403.677,99.0735 356.01,64.4069 293.5,50C 294.566,44.8375 295.566,39.6708 296.5,34.5 Z M 458.5,164.5 C 459.725,165.152 460.392,166.319 460.5,168C 459.704,174.909 458.537,181.742 457,188.5C 451.318,182.985 445.818,177.319 440.5,171.5C 446.59,169.142 452.59,166.808 458.5,164.5 Z"/></g>
<g><path style="opacity:0.949" fill="#000000" d="M 227.5,111.5 C 246.17,111.333 264.836,111.5 283.5,112C 285.333,112.5 286.5,113.667 287,115.5C 287.168,123.521 287.668,131.521 288.5,139.5C 297.559,141.948 306.059,145.615 314,150.5C 318.833,145.667 323.667,140.833 328.5,136C 332.032,133.476 335.698,133.143 339.5,135C 351.667,147.167 363.833,159.333 376,171.5C 378.12,175.366 377.786,179.033 375,182.5C 370.167,187.333 365.333,192.167 360.5,197C 365.385,204.941 369.052,213.441 371.5,222.5C 379.479,223.332 387.479,223.832 395.5,224C 397.333,224.5 398.5,225.667 399,227.5C 399.667,246.167 399.667,264.833 399,283.5C 398.5,285.333 397.333,286.5 395.5,287C 387.479,287.168 379.479,287.668 371.5,288.5C 369.052,297.559 365.385,306.059 360.5,314C 365.333,318.833 370.167,323.667 375,328.5C 377.786,331.967 378.12,335.634 376,339.5C 363.833,351.667 351.667,363.833 339.5,376C 335.698,377.857 332.032,377.524 328.5,375C 323.667,370.167 318.833,365.333 314,360.5C 306.059,365.385 297.559,369.052 288.5,371.5C 287.668,379.479 287.168,387.479 287,395.5C 286.5,397.333 285.333,398.5 283.5,399C 264.833,399.667 246.167,399.667 227.5,399C 225.667,398.5 224.5,397.333 224,395.5C 223.832,387.479 223.332,379.479 222.5,371.5C 213.441,369.052 204.941,365.385 197,360.5C 192.167,365.333 187.333,370.167 182.5,375C 178.968,377.524 175.302,377.857 171.5,376C 159.333,363.833 147.167,351.667 135,339.5C 132.88,335.634 133.214,331.967 136,328.5C 140.833,323.667 145.667,318.833 150.5,314C 145.615,306.059 141.948,297.559 139.5,288.5C 131.521,287.668 123.521,287.168 115.5,287C 113.667,286.5 112.5,285.333 112,283.5C 111.333,264.833 111.333,246.167 112,227.5C 112.5,225.667 113.667,224.5 115.5,224C 123.521,223.832 131.521,223.332 139.5,222.5C 141.948,213.441 145.615,204.941 150.5,197C 145.667,192.167 140.833,187.333 136,182.5C 133.214,179.033 132.88,175.366 135,171.5C 147.167,159.333 159.333,147.167 171.5,135C 175.302,133.143 178.968,133.476 182.5,136C 187.333,140.833 192.167,145.667 197,150.5C 204.941,145.615 213.441,141.948 222.5,139.5C 223.332,131.521 223.832,123.521 224,115.5C 224.69,113.65 225.856,112.316 227.5,111.5 Z M 239.5,127.5 C 250.167,127.5 260.833,127.5 271.5,127.5C 271.334,135.174 271.5,142.841 272,150.5C 273.167,151.667 274.333,152.833 275.5,154C 288.807,156.656 301.14,161.656 312.5,169C 315.634,169.79 318.634,169.457 321.5,168C 326,163.5 330.5,159 335,154.5C 342.167,161.667 349.333,168.833 356.5,176C 352,180.5 347.5,185 343,189.5C 342.042,191.199 341.542,193.033 341.5,195C 344.829,202.832 348.329,210.665 352,218.5C 354.072,224.048 355.738,229.715 357,235.5C 358.167,236.667 359.333,237.833 360.5,239C 368.159,239.5 375.826,239.666 383.5,239.5C 383.5,250.167 383.5,260.833 383.5,271.5C 375.826,271.334 368.159,271.5 360.5,272C 359.333,273.167 358.167,274.333 357,275.5C 355.738,281.285 354.072,286.952 352,292.5C 348.329,300.335 344.829,308.168 341.5,316C 341.542,317.967 342.042,319.801 343,321.5C 347.5,326 352,330.5 356.5,335C 349.333,342.167 342.167,349.333 335,356.5C 330.5,352 326,347.5 321.5,343C 319.801,342.042 317.967,341.542 316,341.5C 308.168,344.829 300.335,348.329 292.5,352C 286.952,354.072 281.285,355.738 275.5,357C 274.333,358.167 273.167,359.333 272,360.5C 271.5,368.159 271.334,375.826 271.5,383.5C 260.833,383.5 250.167,383.5 239.5,383.5C 239.666,375.826 239.5,368.159 239,360.5C 237.833,359.333 236.667,358.167 235.5,357C 229.715,355.738 224.048,354.072 218.5,352C 210.665,348.329 202.832,344.829 195,341.5C 193.033,341.542 191.199,342.042 189.5,343C 185,347.5 180.5,352 176,356.5C 168.833,349.333 161.667,342.167 154.5,335C 159,330.5 163.5,326 168,321.5C 168.958,319.801 169.458,317.967 169.5,316C 166.171,308.168 162.671,300.335 159,292.5C 156.928,286.952 155.262,281.285 154,275.5C 152.833,274.333 151.667,273.167 150.5,272C 142.841,271.5 135.174,271.334 127.5,271.5C 127.5,260.833 127.5,250.167 127.5,239.5C 135.174,239.666 142.841,239.5 150.5,239C 151.667,237.833 152.833,236.667 154,235.5C 155.262,229.715 156.928,224.048 159,218.5C 162.671,210.665 166.171,202.832 169.5,195C 169.458,193.033 168.958,191.199 168,189.5C 163.5,185 159,180.5 154.5,176C 161.667,168.833 168.833,161.667 176,154.5C 180.5,159 185,163.5 189.5,168C 191.199,168.958 193.033,169.458 195,169.5C 202.832,166.171 210.665,162.671 218.5,159C 224.048,156.928 229.715,155.262 235.5,154C 236.667,152.833 237.833,151.667 239,150.5C 239.5,142.841 239.666,135.174 239.5,127.5 Z M 254.5,191.5 C 285.936,193.777 306.769,209.777 317,239.5C 323.113,272.435 311.613,296.935 282.5,313C 248.081,325.638 220.581,316.805 200,286.5C 185.943,256.456 190.777,229.956 214.5,207C 226.276,197.604 239.609,192.438 254.5,191.5 Z"/></g>
<g><path style="opacity:0.934" fill="#000000" d="M 242.5,175.5 C 282.986,171.985 312.153,188.319 330,224.5C 343.141,263.734 333.641,296.234 301.5,322C 277.156,336.901 251.49,339.568 224.5,330C 186.316,310.801 170.482,279.968 177,237.5C 183.825,211.015 199.658,192.182 224.5,181C 230.531,178.832 236.531,176.999 242.5,175.5 Z M 254.5,191.5 C 239.609,192.438 226.276,197.604 214.5,207C 190.777,229.956 185.943,256.456 200,286.5C 220.581,316.805 248.081,325.638 282.5,313C 311.613,296.935 323.113,272.435 317,239.5C 306.769,209.777 285.936,193.777 254.5,191.5 Z"/></g>
<g><path style="opacity:0.934" fill="#000000" d="M 32.5,231.5 C 47.367,229.012 57.5337,234.678 63,248.5C 65.9816,263.376 60.4816,273.543 46.5,279C 31.6239,281.982 21.4572,276.482 16,262.5C 13.1465,247.533 18.6465,237.199 32.5,231.5 Z M 36.5,248.5 C 45.8504,248.365 48.517,252.532 44.5,261C 35.9562,264.322 32.1229,261.489 33,252.5C 33.6897,250.65 34.8564,249.316 36.5,248.5 Z"/></g>
<g><path style="opacity:0.934" fill="#000000" d="M 464.5,231.5 C 479.367,229.012 489.534,234.678 495,248.5C 497.982,263.376 492.482,273.543 478.5,279C 463.624,281.982 453.457,276.482 448,262.5C 445.146,247.533 450.646,237.199 464.5,231.5 Z M 468.5,248.5 C 477.85,248.365 480.517,252.532 476.5,261C 467.956,264.322 464.123,261.489 465,252.5C 465.69,250.65 466.856,249.316 468.5,248.5 Z"/></g>
<g><path style="opacity:0.926" fill="#000000" d="M 459.5,293.5 C 465.365,294.087 471.031,295.42 476.5,297.5C 461.087,366.213 423.087,418.213 362.5,453.5C 364.099,457.796 365.599,462.129 367,466.5C 367.837,470.295 367.504,473.961 366,477.5C 361.391,479.51 356.558,480.01 351.5,479C 335.167,476.667 318.833,474.333 302.5,472C 295.129,469.218 293.296,464.385 297,457.5C 310.5,444 324,430.5 337.5,417C 341.5,415 345.5,415 349.5,417C 352.584,423.248 355.084,429.748 357,436.5C 412.24,404.048 446.407,356.381 459.5,293.5 Z M 338.5,440.5 C 339.497,440.47 340.164,440.97 340.5,442C 342.401,447.871 344.401,453.704 346.5,459.5C 338.42,460.039 330.42,459.205 322.5,457C 328.036,451.631 333.37,446.131 338.5,440.5 Z"/></g>
<g><path style="opacity:0.927" fill="#000000" d="M 43.5,295.5 C 46.9783,295.184 50.3117,295.684 53.5,297C 67,310.5 80.5,324 94,337.5C 96,341.5 96,345.5 94,349.5C 87.7519,352.584 81.2519,355.084 74.5,357C 107.306,411.921 154.973,446.588 217.5,461C 216.733,466.342 215.4,471.508 213.5,476.5C 144.564,461.394 92.5638,423.394 57.5,362.5C 50.5258,365.997 43.1924,367.497 35.5,367C 34.5838,366.626 33.7504,366.126 33,365.5C 31.4548,360.953 31.1215,356.287 32,351.5C 34.3333,335.167 36.6667,318.833 39,302.5C 39.5303,299.415 41.0303,297.082 43.5,295.5 Z M 53.5,322.5 C 59.479,327.812 65.1457,333.479 70.5,339.5C 64.2531,342.027 57.9198,344.361 51.5,346.5C 51.119,338.475 51.7857,330.475 53.5,322.5 Z"/></g>
<g><path style="opacity:0.934" fill="#000000" d="M 248.5,447.5 C 263.367,445.012 273.534,450.678 279,464.5C 281.982,479.376 276.482,489.543 262.5,495C 247.624,497.982 237.457,492.482 232,478.5C 229.146,463.533 234.646,453.199 248.5,447.5 Z M 252.5,464.5 C 261.85,464.365 264.517,468.532 260.5,477C 251.956,480.322 248.123,477.489 249,468.5C 249.69,466.65 250.856,465.316 252.5,464.5 Z"/></g>
</svg>
