<?xml version="1.0" encoding="UTF-8"?>
<!DOCTYPE svg PUBLIC "-//W3C//DTD SVG 1.1//EN" "http://www.w3.org/Graphics/SVG/1.1/DTD/svg11.dtd">
<svg xmlns="http://www.w3.org/2000/svg" version="1.1" width="512px" height="512px" style="shape-rendering:geometricPrecision; text-rendering:geometricPrecision; image-rendering:optimizeQuality; fill-rule:evenodd; clip-rule:evenodd" xmlns:xlink="http://www.w3.org/1999/xlink">
<g><path style="opacity:0.996" fill="#017da1" d="M 153.5,-0.5 C 157.5,-0.5 161.5,-0.5 165.5,-0.5C 195.166,14.9994 225.166,29.9994 255.5,44.5C 285.834,29.9994 315.834,14.9994 345.5,-0.5C 349.5,-0.5 353.5,-0.5 357.5,-0.5C 395.95,19.2255 434.617,38.7255 473.5,58C 476.106,59.9384 477.939,62.4384 479,65.5C 479.667,117.5 479.667,169.5 479,221.5C 477.939,224.562 476.106,227.062 473.5,229C 456.011,237.578 438.677,246.411 421.5,255.5C 438.677,264.589 456.011,273.422 473.5,282C 476.106,283.938 477.939,286.438 479,289.5C 479.667,341.5 479.667,393.5 479,445.5C 477.939,448.562 476.106,451.062 473.5,453C 434.617,472.274 395.95,491.774 357.5,511.5C 353.5,511.5 349.5,511.5 345.5,511.5C 315.834,496.001 285.834,481.001 255.5,466.5C 225.166,481.001 195.166,496.001 165.5,511.5C 161.5,511.5 157.5,511.5 153.5,511.5C 115.05,491.774 76.383,472.274 37.5,453C 34.8941,451.062 33.0608,448.562 32,445.5C 31.3333,393.5 31.3333,341.5 32,289.5C 33.0608,286.438 34.8941,283.938 37.5,282C 54.9894,273.422 72.3227,264.589 89.5,255.5C 72.3227,246.411 54.9894,237.578 37.5,229C 34.8941,227.062 33.0608,224.562 32,221.5C 31.3333,169.5 31.3333,117.5 32,65.5C 33.0608,62.4384 34.8941,59.9384 37.5,58C 76.383,38.7255 115.05,19.2255 153.5,-0.5 Z M 253.5,242.5 C 263.296,245.73 272.629,250.063 281.5,255.5C 273.657,259.922 265.657,264.088 257.5,268C 256.167,268.667 254.833,268.667 253.5,268C 245.343,264.088 237.343,259.922 229.5,255.5C 237.562,251.138 245.562,246.805 253.5,242.5 Z"/></g>
<g><path style="opacity:1" fill="#41e9f4" d="M 158.5,33.5 C 180.757,43.9617 202.757,54.9617 224.5,66.5C 223.865,70.3669 223.199,74.2002 222.5,78C 201.5,88.5 180.5,99 159.5,109.5C 134.344,97.0889 109.344,84.4223 84.5,71.5C 109.228,58.8036 133.894,46.1369 158.5,33.5 Z"/></g>
<g><path style="opacity:1" fill="#e2fbfc" d="M 350.5,33.5 C 376.09,45.6284 401.423,58.2951 426.5,71.5C 401.656,84.4223 376.656,97.0889 351.5,109.5C 326.344,97.0889 301.344,84.4223 276.5,71.5C 301.228,58.8036 325.894,46.1369 350.5,33.5 Z"/></g>
<g><path style="opacity:1" fill="#e2fbfc" d="M 63.5,97.5 C 90.0511,110.692 116.551,124.026 143,137.5C 143.667,173.5 143.667,209.5 143,245.5C 116.667,232.167 90.3333,218.833 64,205.5C 63.5,169.502 63.3333,133.502 63.5,97.5 Z"/></g>
<g><path style="opacity:1" fill="#e2fbfc" d="M 255.5,97.5 C 282.051,110.692 308.551,124.026 335,137.5C 335.667,173.5 335.667,209.5 335,245.5C 308.667,232.167 282.333,218.833 256,205.5C 255.5,169.502 255.333,133.502 255.5,97.5 Z"/></g>
<g><path style="opacity:1" fill="#e2fbfc" d="M 446.5,97.5 C 447.664,133.331 447.831,169.331 447,205.5C 420.667,218.833 394.333,232.167 368,245.5C 367.333,209.5 367.333,173.5 368,137.5C 394.306,124.264 420.472,110.931 446.5,97.5 Z"/></g>
<g><path style="opacity:1" fill="#e2fbfc" d="M 222.5,113.5 C 223.173,149.039 223.84,184.706 224.5,220.5C 208.412,228.961 192.245,237.294 176,245.5C 175.333,209.5 175.333,173.5 176,137.5C 191.64,129.598 207.14,121.598 222.5,113.5 Z"/></g>
<g><path style="opacity:1" fill="#45eaf5" d="M 402.5,159.5 C 418.677,159.167 425.177,166.833 422,182.5C 416.109,191.573 408.276,193.74 398.5,189C 391.203,182.662 389.703,175.162 394,166.5C 396.441,163.546 399.275,161.213 402.5,159.5 Z"/></g>
<g><path style="opacity:1" fill="#e1fbfc" d="M 126.5,273.5 C 135.933,277.716 145.267,282.216 154.5,287C 158.572,287.658 162.572,287.325 166.5,286C 174.833,281.833 183.167,277.667 191.5,273.5C 202.657,278.911 213.657,284.578 224.5,290.5C 223.738,294.111 223.238,297.778 223,301.5C 201.911,312.295 180.744,322.961 159.5,333.5C 134.344,321.089 109.344,308.422 84.5,295.5C 98.5614,288.137 112.561,280.804 126.5,273.5 Z"/></g>
<g><path style="opacity:1" fill="#41e9f4" d="M 318.5,273.5 C 327.933,277.716 337.267,282.216 346.5,287C 351.363,287.809 356.03,287.142 360.5,285C 368.167,281.167 375.833,277.333 383.5,273.5C 397.99,280.578 412.323,287.911 426.5,295.5C 401.656,308.422 376.656,321.089 351.5,333.5C 326.344,321.089 301.344,308.422 276.5,295.5C 290.561,288.137 304.561,280.804 318.5,273.5 Z"/></g>
<g><path style="opacity:1" fill="#e2fbfc" d="M 63.5,321.5 C 90.0511,334.692 116.551,348.026 143,361.5C 143.667,397.5 143.667,433.5 143,469.5C 116.667,456.167 90.3333,442.833 64,429.5C 63.5,393.502 63.3333,357.502 63.5,321.5 Z"/></g>
<g><path style="opacity:1" fill="#e2fbfc" d="M 255.5,321.5 C 282.051,334.692 308.551,348.026 335,361.5C 335.667,397.5 335.667,433.5 335,469.5C 308.667,456.167 282.333,442.833 256,429.5C 255.5,393.502 255.333,357.502 255.5,321.5 Z"/></g>
<g><path style="opacity:1" fill="#e2fbfc" d="M 446.5,321.5 C 447.664,357.331 447.831,393.331 447,429.5C 420.667,442.833 394.333,456.167 368,469.5C 367.333,433.5 367.333,397.5 368,361.5C 394.306,348.264 420.472,334.931 446.5,321.5 Z"/></g>
<g><path style="opacity:1" fill="#e2fbfc" d="M 222.5,337.5 C 223.173,373.039 223.84,408.706 224.5,444.5C 208.412,452.961 192.245,461.294 176,469.5C 175.333,433.5 175.333,397.5 176,361.5C 191.64,353.598 207.14,345.598 222.5,337.5 Z"/></g>
</svg>
