<?xml version="1.0" encoding="UTF-8"?>
<!DOCTYPE svg PUBLIC "-//W3C//DTD SVG 1.1//EN" "http://www.w3.org/Graphics/SVG/1.1/DTD/svg11.dtd">
<svg xmlns="http://www.w3.org/2000/svg" version="1.1" width="512px" height="512px" style="shape-rendering:geometricPrecision; text-rendering:geometricPrecision; image-rendering:optimizeQuality; fill-rule:evenodd; clip-rule:evenodd" xmlns:xlink="http://www.w3.org/1999/xlink">
<g><path style="opacity:0.944" fill="#000000" d="M 85.5,-0.5 C 172.167,-0.5 258.833,-0.5 345.5,-0.5C 372.496,29.3311 399.33,59.3311 426,89.5C 426.5,150.832 426.667,212.166 426.5,273.5C 420.5,273.5 414.5,273.5 408.5,273.5C 408.5,216.5 408.5,159.5 408.5,102.5C 390.164,102.667 371.83,102.5 353.5,102C 341.212,99.3793 334.046,91.8793 332,79.5C 331.5,58.836 331.333,38.1694 331.5,17.5C 250.833,17.3333 170.166,17.5 89.5,18C 87.9512,19.214 86.7845,20.714 86,22.5C 85.5,54.8316 85.3334,87.1649 85.5,119.5C 79.5,119.5 73.5,119.5 67.5,119.5C 67.3333,85.8317 67.5,52.165 68,18.5C 70.9552,9.38309 76.7885,3.04976 85.5,-0.5 Z M 349.5,32.5 C 365.67,49.1714 381.336,66.3381 396.5,84C 383.167,84.6667 369.833,84.6667 356.5,84C 354.152,83.6541 352.319,82.4875 351,80.5C 349.546,64.5707 349.046,48.5707 349.5,32.5 Z"/></g>
<g><path style="opacity:0.9" fill="#000000" d="M 118.5,50.5 C 124.5,50.5 130.5,50.5 136.5,50.5C 136.5,56.5 136.5,62.5 136.5,68.5C 130.5,68.5 124.5,68.5 118.5,68.5C 118.5,62.5 118.5,56.5 118.5,50.5 Z"/></g>
<g><path style="opacity:0.938" fill="#000000" d="M 152.5,50.5 C 175.5,50.5 198.5,50.5 221.5,50.5C 221.5,56.5 221.5,62.5 221.5,68.5C 198.5,68.5 175.5,68.5 152.5,68.5C 152.5,62.5 152.5,56.5 152.5,50.5 Z"/></g>
<g><path style="opacity:0.943" fill="#000000" d="M 118.5,84.5 C 152.833,84.5 187.167,84.5 221.5,84.5C 221.5,90.5 221.5,96.5 221.5,102.5C 187.167,102.5 152.833,102.5 118.5,102.5C 118.5,96.5 118.5,90.5 118.5,84.5 Z"/></g>
<g><path style="opacity:0.949" fill="#000000" d="M -0.5,169.5 C -0.5,164.5 -0.5,159.5 -0.5,154.5C 2.86383,144.308 9.86383,138.141 20.5,136C 114.167,135.333 207.833,135.333 301.5,136C 316.914,142.138 332.247,148.471 347.5,155C 350.384,159.918 350.051,164.585 346.5,169C 331.833,175 317.167,181 302.5,187C 207.833,187.667 113.167,187.667 18.5,187C 9.38309,184.045 3.04976,178.211 -0.5,169.5 Z M 23.5,153.5 C 26.8333,153.5 30.1667,153.5 33.5,153.5C 33.5,158.833 33.5,164.167 33.5,169.5C 29.8183,169.665 26.1516,169.499 22.5,169C 17.8567,166.928 16.3567,163.428 18,158.5C 19.1065,155.887 20.9399,154.22 23.5,153.5 Z M 51.5,153.5 C 127.833,153.5 204.167,153.5 280.5,153.5C 280.5,158.833 280.5,164.167 280.5,169.5C 204.167,169.5 127.833,169.5 51.5,169.5C 51.5,164.167 51.5,158.833 51.5,153.5 Z M 298.5,154.5 C 304.379,156.515 310.046,159.015 315.5,162C 310.053,163.89 304.72,166.057 299.5,168.5C 298.507,163.88 298.173,159.214 298.5,154.5 Z"/></g>
<g><path style="opacity:0.945" fill="#000000" d="M 511.5,338.5 C 511.5,368.167 511.5,397.833 511.5,427.5C 507.928,440.747 499.928,450.414 487.5,456.5C 486.667,472.823 486.167,489.156 486,505.5C 485.401,508.254 483.901,510.254 481.5,511.5C 438.833,511.5 396.167,511.5 353.5,511.5C 351.404,509.567 349.904,507.233 349,504.5C 348.833,488.49 348.333,472.49 347.5,456.5C 336.163,450.188 328.329,440.855 324,428.5C 302.333,402.833 280.667,377.167 259,351.5C 250.723,338.058 250.39,324.391 258,310.5C 271.216,294.79 287.05,291.623 305.5,301C 312.356,306.223 318.189,312.39 323,319.5C 323.333,284.167 323.667,248.833 324,213.5C 331.883,190.974 347.383,182.808 370.5,189C 382.484,193.979 389.651,202.812 392,215.5C 392.5,240.164 392.667,264.831 392.5,289.5C 415.836,289.333 439.169,289.5 462.5,290C 488.711,296.379 505.044,312.545 511.5,338.5 Z M 355.5,204.5 C 364.75,204.535 370.917,208.868 374,217.5C 374.5,255.832 374.667,294.165 374.5,332.5C 380.5,332.5 386.5,332.5 392.5,332.5C 392.5,324.167 392.5,315.833 392.5,307.5C 400.833,307.5 409.167,307.5 417.5,307.5C 417.5,315.833 417.5,324.167 417.5,332.5C 423.5,332.5 429.5,332.5 435.5,332.5C 435.5,324.167 435.5,315.833 435.5,307.5C 443.5,307.5 451.5,307.5 459.5,307.5C 459.5,318.833 459.5,330.167 459.5,341.5C 465.5,341.5 471.5,341.5 477.5,341.5C 477.334,333.16 477.5,324.827 478,316.5C 485.811,323.118 490.811,331.451 493,341.5C 493.667,368.833 493.667,396.167 493,423.5C 490.193,432.974 484.026,439.14 474.5,442C 436.5,442.667 398.5,442.667 360.5,442C 351,439.167 344.833,433 342,423.5C 341.333,354.833 341.333,286.167 342,217.5C 344.442,210.888 348.942,206.555 355.5,204.5 Z M 282.5,315.5 C 288.311,314.774 293.645,315.941 298.5,319C 307.044,328.542 315.21,338.375 323,348.5C 323.667,365.5 323.667,382.5 323,399.5C 308.043,380.874 292.71,362.541 277,344.5C 268.239,332.73 270.072,323.063 282.5,315.5 Z M 366.5,460.5 C 400.5,460.5 434.5,460.5 468.5,460.5C 468.5,471.5 468.5,482.5 468.5,493.5C 434.5,493.5 400.5,493.5 366.5,493.5C 366.5,482.5 366.5,471.5 366.5,460.5 Z"/></g>
<g><path style="opacity:0.946" fill="#000000" d="M 67.5,203.5 C 73.5,203.5 79.5,203.5 85.5,203.5C 85.0055,287.915 85.5055,372.249 87,456.5C 87.9025,457.701 89.0692,458.535 90.5,459C 171.166,459.5 251.833,459.667 332.5,459.5C 332.5,465.5 332.5,471.5 332.5,477.5C 250.499,477.667 168.499,477.5 86.5,477C 77,474.167 70.8333,468 68,458.5C 67.5,373.501 67.3333,288.501 67.5,203.5 Z"/></g>
<g><path style="opacity:0.941" fill="#000000" d="M 118.5,212.5 C 175.833,212.5 233.167,212.5 290.5,212.5C 290.5,218.5 290.5,224.5 290.5,230.5C 233.167,230.5 175.833,230.5 118.5,230.5C 118.5,224.5 118.5,218.5 118.5,212.5 Z"/></g>
<g><path style="opacity:0.941" fill="#000000" d="M 118.5,263.5 C 175.833,263.5 233.167,263.5 290.5,263.5C 290.5,269.5 290.5,275.5 290.5,281.5C 233.167,281.5 175.833,281.5 118.5,281.5C 118.5,275.5 118.5,269.5 118.5,263.5 Z"/></g>
<g><path style="opacity:0.944" fill="#000000" d="M 118.5,314.5 C 158.5,314.5 198.5,314.5 238.5,314.5C 238.5,320.5 238.5,326.5 238.5,332.5C 198.5,332.5 158.5,332.5 118.5,332.5C 118.5,326.5 118.5,320.5 118.5,314.5 Z"/></g>
<g><path style="opacity:0.938" fill="#000000" d="M 118.5,365.5 C 141.5,365.5 164.5,365.5 187.5,365.5C 187.5,371.5 187.5,377.5 187.5,383.5C 164.5,383.5 141.5,383.5 118.5,383.5C 118.5,377.5 118.5,371.5 118.5,365.5 Z"/></g>
</svg>
