<?xml version="1.0" encoding="UTF-8"?>
<!DOCTYPE svg PUBLIC "-//W3C//DTD SVG 1.1//EN" "http://www.w3.org/Graphics/SVG/1.1/DTD/svg11.dtd">
<svg xmlns="http://www.w3.org/2000/svg" version="1.1" width="512px" height="512px" style="shape-rendering:geometricPrecision; text-rendering:geometricPrecision; image-rendering:optimizeQuality; fill-rule:evenodd; clip-rule:evenodd" xmlns:xlink="http://www.w3.org/1999/xlink">
<g><path style="opacity:0.993" fill="#000000" d="M 48.5,63.5 C 186.5,63.3333 324.5,63.5 462.5,64C 470.667,66.8333 476.167,72.3333 479,80.5C 479.667,175.833 479.667,271.167 479,366.5C 476.167,374.667 470.667,380.167 462.5,383C 410.501,383.5 358.501,383.667 306.5,383.5C 310.172,399.19 314.006,414.856 318,430.5C 330.425,431.323 342.925,431.823 355.5,432C 357.333,432.5 358.5,433.667 359,435.5C 359.817,438.964 359.483,442.298 358,445.5C 357.25,446.126 356.416,446.626 355.5,447C 288.833,447.667 222.167,447.667 155.5,447C 154.584,446.626 153.75,446.126 153,445.5C 151.517,442.298 151.183,438.964 152,435.5C 152.5,433.667 153.667,432.5 155.5,432C 168.075,431.823 180.575,431.323 193,430.5C 196.994,414.856 200.828,399.19 204.5,383.5C 152.499,383.667 100.499,383.5 48.5,383C 41.4808,380.649 36.3141,376.149 33,369.5C 31.3405,273.223 31.0072,176.89 32,80.5C 35.0191,72.3156 40.5191,66.649 48.5,63.5 Z M 55.5,79.5 C 188.834,79.3333 322.167,79.5 455.5,80C 460,80.5 462.5,83 463,87.5C 463.5,167.499 463.667,247.499 463.5,327.5C 324.833,327.5 186.167,327.5 47.5,327.5C 47.3333,247.499 47.5,167.499 48,87.5C 48.6804,82.9895 51.1804,80.3228 55.5,79.5 Z M 191.5,135.5 C 205.171,135.333 218.837,135.5 232.5,136C 219,148.167 205.5,160.333 192,172.5C 191.5,160.171 191.333,147.838 191.5,135.5 Z M 258.5,135.5 C 273.837,135.333 289.17,135.5 304.5,136C 267,169.5 229.5,203 192,236.5C 191.333,222.833 191.333,209.167 192,195.5C 214.66,176.004 236.827,156.004 258.5,135.5 Z M 236.5,219.5 C 259.868,238.357 282.534,258.19 304.5,279C 266.835,279.5 229.168,279.667 191.5,279.5C 191.334,272.825 191.5,266.158 192,259.5C 207,246.267 221.834,232.933 236.5,219.5 Z M 47.5,343.5 C 186.167,343.5 324.833,343.5 463.5,343.5C 463.87,349.925 463.37,356.258 462,362.5C 460.661,365.094 458.494,366.594 455.5,367C 322.167,367.667 188.833,367.667 55.5,367C 52.5056,366.594 50.339,365.094 49,362.5C 47.6304,356.258 47.1304,349.925 47.5,343.5 Z M 222.5,383.5 C 244.503,383.333 266.503,383.5 288.5,384C 292.888,399.718 296.888,415.552 300.5,431.5C 270.5,431.5 240.5,431.5 210.5,431.5C 214.192,415.4 218.192,399.4 222.5,383.5 Z"/></g>
<g><path style="opacity:0.965" fill="#000000" d="M 179.5,119.5 C 230.168,119.333 280.834,119.5 331.5,120C 334.516,121.529 335.849,124.029 335.5,127.5C 335.485,129.634 334.985,131.634 334,133.5C 306.027,157.64 278.527,182.306 251.5,207.5C 278.527,232.694 306.027,257.36 334,281.5C 336.109,285.781 335.942,289.948 333.5,294C 307.585,295.158 281.585,295.658 255.5,295.5C 230.167,295.333 204.833,295.167 179.5,295C 178.584,294.626 177.75,294.126 177,293.5C 175.342,236.916 175.008,180.249 176,123.5C 176.69,121.65 177.856,120.316 179.5,119.5 Z M 191.5,135.5 C 191.333,147.838 191.5,160.171 192,172.5C 205.5,160.333 219,148.167 232.5,136C 218.837,135.5 205.171,135.333 191.5,135.5 Z M 258.5,135.5 C 236.827,156.004 214.66,176.004 192,195.5C 191.333,209.167 191.333,222.833 192,236.5C 229.5,203 267,169.5 304.5,136C 289.17,135.5 273.837,135.333 258.5,135.5 Z M 236.5,219.5 C 221.834,232.933 207,246.267 192,259.5C 191.5,266.158 191.334,272.825 191.5,279.5C 229.168,279.667 266.835,279.5 304.5,279C 282.534,258.19 259.868,238.357 236.5,219.5 Z"/></g>
</svg>
