<?xml version="1.0" encoding="UTF-8"?>
<!DOCTYPE svg PUBLIC "-//W3C//DTD SVG 1.1//EN" "http://www.w3.org/Graphics/SVG/1.1/DTD/svg11.dtd">
<svg xmlns="http://www.w3.org/2000/svg" version="1.1" width="512px" height="512px" style="shape-rendering:geometricPrecision; text-rendering:geometricPrecision; image-rendering:optimizeQuality; fill-rule:evenodd; clip-rule:evenodd" xmlns:xlink="http://www.w3.org/1999/xlink">
<g><path style="opacity:0.937" fill="#000000" d="M 511.5,245.5 C 511.5,251.833 511.5,258.167 511.5,264.5C 505.368,284.97 492.701,299.97 473.5,309.5C 465.49,307.815 462.99,303.148 466,295.5C 473.263,290.24 479.93,284.24 486,277.5C 496.054,264.856 497.054,251.523 489,237.5C 475.691,221.216 459.191,209.05 439.5,201C 426.481,195.325 413.148,190.492 399.5,186.5C 391.618,210.264 382.618,233.597 372.5,256.5C 382.279,278.668 390.779,301.335 398,324.5C 413.746,319.863 429.246,314.529 444.5,308.5C 452.133,309.91 454.633,314.243 452,321.5C 450.833,322.667 449.667,323.833 448.5,325C 433.353,331.27 418.02,336.937 402.5,342C 410.246,369.783 413.08,397.95 411,426.5C 409.652,445.912 401.819,462.079 387.5,475C 371.442,484.632 354.442,486.632 336.5,481C 316.029,473.768 297.362,463.435 280.5,450C 271.686,442.687 263.019,435.187 254.5,427.5C 232.057,450.226 206.057,467.726 176.5,480C 130.446,490.873 104.613,472.706 99,425.5C 96.8874,397.057 99.7207,369.057 107.5,341.5C 79.5796,333.703 53.5796,321.87 29.5,306C 14.916,295.284 4.916,281.45 -0.5,264.5C -0.5,258.167 -0.5,251.833 -0.5,245.5C 4.96495,228.179 15.2983,214.346 30.5,204C 54.1606,188.941 79.494,177.441 106.5,169.5C 102.531,154.491 99.5315,139.324 97.5,124C 98.532,116.308 102.865,113.308 110.5,115C 112.815,116.109 114.315,117.943 115,120.5C 116.638,135.355 119.304,150.022 123,164.5C 123.561,165.022 124.228,165.355 125,165.5C 148.571,160.085 172.404,156.252 196.5,154C 210.155,134.337 225.321,115.837 242,98.5C 222.973,77.1993 200.14,60.6993 173.5,49C 162.021,44.1811 150.355,43.5145 138.5,47C 128.965,51.5368 122.632,58.8702 119.5,69C 117.076,77.7941 114.909,86.6274 113,95.5C 109.13,99.0591 104.963,99.3925 100.5,96.5C 98.5316,94.3953 97.5316,91.8953 97.5,89C 104.308,34.2635 133.641,16.2635 185.5,35C 211.428,47.4288 234.428,63.9288 254.5,84.5C 263.352,76.4801 272.352,68.6468 281.5,61C 297.477,48.1735 315.144,38.1735 334.5,31C 380.214,19.6288 406.047,37.4622 412,84.5C 414.151,113.142 411.318,141.309 403.5,169C 425.259,175.709 446.259,184.376 466.5,195C 483.291,204.46 496.791,217.293 507,233.5C 508.63,237.571 510.13,241.571 511.5,245.5 Z M 349.5,44.5 C 372.025,41.85 386.192,51.5167 392,73.5C 396.939,99.6031 396.273,125.603 390,151.5C 388.842,155.797 387.842,160.131 387,164.5C 386.586,164.957 386.086,165.291 385.5,165.5C 361.792,159.946 337.792,156.113 313.5,154C 299.244,134.341 283.911,115.508 267.5,97.5C 285.803,78.3664 306.803,62.8664 330.5,51C 336.841,48.4983 343.175,46.3317 349.5,44.5 Z M 254.5,110.5 C 267.429,123.263 279.096,137.096 289.5,152C 266.463,151.553 243.463,151.386 220.5,151.5C 231.102,137.231 242.436,123.564 254.5,110.5 Z M 241.5,168.5 C 262.245,168.281 282.912,169.281 303.5,171.5C 322.107,198.363 338.441,226.696 352.5,256.5C 338.648,285.72 322.648,313.554 304.5,340C 288.157,340.896 271.823,341.729 255.5,342.5C 238.843,341.737 222.176,340.904 205.5,340C 187.774,314.063 171.941,286.897 158,258.5C 157.333,257.167 157.333,255.833 158,254.5C 172.232,225.689 188.232,198.022 206,171.5C 217.901,170.115 229.735,169.115 241.5,168.5 Z M 182.5,172.5 C 183.465,173.721 183.298,175.054 182,176.5C 169.403,195.35 158.07,215.017 148,235.5C 140.25,218.829 133.75,201.662 128.5,184C 128.905,183.055 129.572,182.388 130.5,182C 147.845,178.123 165.178,174.956 182.5,172.5 Z M 325.5,173.5 C 344.103,174.566 362.603,177.566 381,182.5C 376.28,200.653 369.947,218.319 362,235.5C 351.067,213.947 338.901,193.28 325.5,173.5 Z M 110.5,186.5 C 118.293,210.199 127.293,233.533 137.5,256.5C 127.607,278.623 119.107,301.29 112,324.5C 86.9217,317.476 63.4217,306.976 41.5,293C 8.21076,267.882 8.21076,242.882 41.5,218C 50.8506,211.321 60.8506,205.654 71.5,201C 84.3795,195.548 97.3795,190.715 110.5,186.5 Z M 250.5,231.5 C 269.492,231.326 278.992,240.659 279,259.5C 275.343,273.747 266.176,280.247 251.5,279C 236.935,275.04 230.435,265.54 232,250.5C 235.017,240.984 241.184,234.651 250.5,231.5 Z M 147.5,277.5 C 158.107,297.944 169.774,317.778 182.5,337C 165.323,335.736 148.323,333.069 131.5,329C 130.572,328.612 129.905,327.945 129.5,327C 134.621,310.132 140.621,293.632 147.5,277.5 Z M 361.5,277.5 C 369.351,293.873 375.518,310.873 380,328.5C 362.782,333.102 345.282,335.936 327.5,337C 339.995,317.845 351.328,298.011 361.5,277.5 Z M 124.5,345.5 C 147.948,350.588 171.614,354.421 195.5,357C 210.03,377.202 225.696,396.536 242.5,415C 223.789,433.19 202.789,448.19 179.5,460C 141.426,475.209 120.26,462.376 116,421.5C 114.564,395.657 117.397,370.324 124.5,345.5 Z M 383.5,345.5 C 384.496,345.414 385.329,345.748 386,346.5C 392.548,371.096 395.214,396.096 394,421.5C 388.933,464.223 366.767,476.723 327.5,459C 305.422,447.592 285.589,433.092 268,415.5C 267.333,414.833 267.333,414.167 268,413.5C 284.843,396.117 300.01,377.45 313.5,357.5C 337.163,354.694 360.497,350.694 383.5,345.5 Z M 219.5,358.5 C 243.17,359.651 266.836,359.818 290.5,359C 279.784,374.219 267.784,388.385 254.5,401.5C 241.651,387.999 229.984,373.665 219.5,358.5 Z"/></g>
<g><path style="opacity:0.934" fill="#000000" d="M 246.5,214.5 C 271.675,211.992 288.175,222.659 296,246.5C 299.038,272.77 287.871,289.27 262.5,296C 238.12,298.274 222.287,287.774 215,264.5C 212.127,239.219 222.627,222.552 246.5,214.5 Z M 250.5,231.5 C 241.184,234.651 235.017,240.984 232,250.5C 230.435,265.54 236.935,275.04 251.5,279C 266.176,280.247 275.343,273.747 279,259.5C 278.992,240.659 269.492,231.326 250.5,231.5 Z"/></g>
</svg>
