<?xml version="1.0" encoding="UTF-8"?>
<!DOCTYPE svg PUBLIC "-//W3C//DTD SVG 1.1//EN" "http://www.w3.org/Graphics/SVG/1.1/DTD/svg11.dtd">
<svg xmlns="http://www.w3.org/2000/svg" version="1.1" width="512px" height="512px" style="shape-rendering:geometricPrecision; text-rendering:geometricPrecision; image-rendering:optimizeQuality; fill-rule:evenodd; clip-rule:evenodd" xmlns:xlink="http://www.w3.org/1999/xlink">
<g><path style="opacity:0.979" fill="#000000" d="M 179.5,-0.5 C 230.167,-0.5 280.833,-0.5 331.5,-0.5C 333.144,0.316435 334.31,1.64977 335,3.5C 335.5,10.1583 335.666,16.825 335.5,23.5C 377.585,23.0112 419.585,23.5112 461.5,25C 462.126,25.7504 462.626,26.5838 463,27.5C 463.333,44.8333 463.667,62.1667 464,79.5C 487.712,87.2393 498.046,103.573 495,128.5C 490.667,144.833 480.333,155.167 464,159.5C 463.982,185.587 463.316,211.587 462,237.5C 461.25,238.126 460.416,238.626 459.5,239C 442.17,239.5 424.837,239.667 407.5,239.5C 407.994,313.582 407.494,387.582 406,461.5C 405.25,462.126 404.416,462.626 403.5,463C 372.828,463.167 342.161,463.667 311.5,464.5C 305.608,489.056 290.608,504.723 266.5,511.5C 259.167,511.5 251.833,511.5 244.5,511.5C 209.686,500.573 195.186,476.907 201,440.5C 208.375,418.297 223.541,404.63 246.5,399.5C 247.498,391.528 247.831,383.528 247.5,375.5C 224.831,375.667 202.164,375.5 179.5,375C 177.667,374.5 176.5,373.333 176,371.5C 175.5,364.842 175.334,358.175 175.5,351.5C 133.415,351.989 91.4148,351.489 49.5,350C 48.8742,349.25 48.3742,348.416 48,347.5C 47.6667,322.167 47.3333,296.833 47,271.5C 23.2877,263.761 12.9544,247.427 16,222.5C 20.3333,206.167 30.6667,195.833 47,191.5C 47.0178,165.413 47.6845,139.413 49,113.5C 49.7504,112.874 50.5838,112.374 51.5,112C 71.4972,111.5 91.4972,111.333 111.5,111.5C 111.017,82.7451 111.517,54.0784 113,25.5C 113.75,24.8742 114.584,24.3742 115.5,24C 135.497,23.5 155.497,23.3334 175.5,23.5C 175.334,16.825 175.5,10.1583 176,3.5C 176.69,1.64977 177.856,0.316435 179.5,-0.5 Z M 191.5,15.5 C 234.167,15.5 276.833,15.5 319.5,15.5C 319.5,26.1667 319.5,36.8333 319.5,47.5C 276.833,47.5 234.167,47.5 191.5,47.5C 191.5,36.8333 191.5,26.1667 191.5,15.5 Z M 127.5,39.5 C 143.5,39.5 159.5,39.5 175.5,39.5C 175.334,46.175 175.5,52.8417 176,59.5C 176.5,61.3333 177.667,62.5 179.5,63C 202.164,63.5 224.831,63.6666 247.5,63.5C 247.5,71.5 247.5,79.5 247.5,87.5C 224.831,87.3334 202.164,87.5 179.5,88C 177.667,88.5 176.5,89.6667 176,91.5C 175.5,98.1583 175.334,104.825 175.5,111.5C 159.5,111.5 143.5,111.5 127.5,111.5C 127.5,87.5 127.5,63.5 127.5,39.5 Z M 335.5,39.5 C 372.833,39.5 410.167,39.5 447.5,39.5C 447.667,52.8375 447.5,66.1708 447,79.5C 421.387,88.154 411.387,105.821 417,132.5C 422.27,146.771 432.27,155.771 447,159.5C 447.5,180.831 447.667,202.164 447.5,223.5C 403.499,223.667 359.499,223.5 315.5,223C 298.333,205.833 281.167,188.667 264,171.5C 263.5,164.842 263.334,158.175 263.5,151.5C 286.169,151.667 308.836,151.5 331.5,151C 333.333,150.5 334.5,149.333 335,147.5C 335.667,128.833 335.667,110.167 335,91.5C 334.5,89.6667 333.333,88.5 331.5,88C 308.836,87.5 286.169,87.3334 263.5,87.5C 263.5,79.5 263.5,71.5 263.5,63.5C 286.169,63.6666 308.836,63.5 331.5,63C 333.333,62.5 334.5,61.3333 335,59.5C 335.5,52.8417 335.666,46.175 335.5,39.5 Z M 448.5,96.5 C 462.981,94.3182 472.814,99.9849 478,113.5C 480.366,127.606 474.866,137.106 461.5,142C 447.394,144.366 437.894,138.866 433,125.5C 430.831,111.834 435.998,102.167 448.5,96.5 Z M 191.5,103.5 C 234.167,103.5 276.833,103.5 319.5,103.5C 319.5,114.167 319.5,124.833 319.5,135.5C 276.833,135.5 234.167,135.5 191.5,135.5C 191.5,124.833 191.5,114.167 191.5,103.5 Z M 63.5,127.5 C 100.833,127.5 138.167,127.5 175.5,127.5C 175.334,134.175 175.5,140.842 176,147.5C 176.5,149.333 177.667,150.5 179.5,151C 202.164,151.5 224.831,151.667 247.5,151.5C 247.666,158.175 247.5,164.842 247,171.5C 229.833,188.667 212.667,205.833 195.5,223C 188.842,223.5 182.175,223.666 175.5,223.5C 175.5,228.833 175.5,234.167 175.5,239.5C 182.175,239.334 188.842,239.5 195.5,240C 212.667,257.167 229.833,274.333 247,291.5C 247.5,298.158 247.666,304.825 247.5,311.5C 224.831,311.333 202.164,311.5 179.5,312C 177.667,312.5 176.5,313.667 176,315.5C 175.5,322.158 175.334,328.825 175.5,335.5C 138.167,335.5 100.833,335.5 63.5,335.5C 63.3334,314.164 63.5,292.831 64,271.5C 89.6129,262.846 99.6129,245.179 94,218.5C 88.7298,204.229 78.7298,195.229 64,191.5C 63.5,170.169 63.3334,148.836 63.5,127.5 Z M 254.5,187.5 C 270.095,201.426 285.095,216.093 299.5,231.5C 285.167,246.5 270.5,261.167 255.5,275.5C 240.5,261.167 225.833,246.5 211.5,231.5C 225.855,216.813 240.188,202.146 254.5,187.5 Z M 48.5,208.5 C 62.9808,206.318 72.8141,211.985 78,225.5C 80.3661,239.606 74.8661,249.106 61.5,254C 47.3943,256.366 37.8943,250.866 33,237.5C 30.8314,223.834 35.998,214.167 48.5,208.5 Z M 315.5,239.5 C 340.833,239.5 366.167,239.5 391.5,239.5C 391.5,308.833 391.5,378.167 391.5,447.5C 364.825,447.833 338.158,447.5 311.5,446.5C 305.5,421.167 289.833,405.5 264.5,399.5C 263.502,391.528 263.169,383.528 263.5,375.5C 286.169,375.667 308.836,375.5 331.5,375C 333.333,374.5 334.5,373.333 335,371.5C 335.667,352.833 335.667,334.167 335,315.5C 334.5,313.667 333.333,312.5 331.5,312C 308.836,311.5 286.169,311.333 263.5,311.5C 263.334,304.825 263.5,298.158 264,291.5C 281.368,274.299 298.535,256.965 315.5,239.5 Z M 191.5,327.5 C 234.167,327.5 276.833,327.5 319.5,327.5C 319.5,338.167 319.5,348.833 319.5,359.5C 276.833,359.5 234.167,359.5 191.5,359.5C 191.5,348.833 191.5,338.167 191.5,327.5 Z M 247.5,416.5 C 271.48,414.339 286.98,424.673 294,447.5C 296.648,471.501 286.482,487.001 263.5,494C 239.499,496.648 223.999,486.482 217,463.5C 214.559,439.474 224.726,423.807 247.5,416.5 Z"/></g>
<g><path style="opacity:1" fill="#000000" d="M 111.5,223.5 C 116.833,223.5 122.167,223.5 127.5,223.5C 127.5,228.833 127.5,234.167 127.5,239.5C 122.167,239.5 116.833,239.5 111.5,239.5C 111.5,234.167 111.5,228.833 111.5,223.5 Z"/></g>
<g><path style="opacity:1" fill="#000000" d="M 143.5,223.5 C 148.833,223.5 154.167,223.5 159.5,223.5C 159.5,228.833 159.5,234.167 159.5,239.5C 154.167,239.5 148.833,239.5 143.5,239.5C 143.5,234.167 143.5,228.833 143.5,223.5 Z"/></g>
</svg>
