<?xml version="1.0" encoding="UTF-8"?>
<!DOCTYPE svg PUBLIC "-//W3C//DTD SVG 1.1//EN" "http://www.w3.org/Graphics/SVG/1.1/DTD/svg11.dtd">
<svg xmlns="http://www.w3.org/2000/svg" version="1.1" width="512px" height="512px" style="shape-rendering:geometricPrecision; text-rendering:geometricPrecision; image-rendering:optimizeQuality; fill-rule:evenodd; clip-rule:evenodd" xmlns:xlink="http://www.w3.org/1999/xlink">
<g><path style="opacity:0.977" fill="#a5d863" d="M 155.5,-0.5 C 158.5,-0.5 161.5,-0.5 164.5,-0.5C 176.116,9.9458 187.616,20.6125 199,31.5C 236.667,15.5 274.333,15.5 312,31.5C 323.384,20.6125 334.884,9.9458 346.5,-0.5C 349.5,-0.5 352.5,-0.5 355.5,-0.5C 361.569,3.79298 363.069,9.45964 360,16.5C 350.5,26 341,35.5 331.5,45C 365.683,70.8629 383.35,105.363 384.5,148.5C 298.5,148.5 212.5,148.5 126.5,148.5C 127.65,105.363 145.317,70.8629 179.5,45C 170,35.5 160.5,26 151,16.5C 147.931,9.45964 149.431,3.79298 155.5,-0.5 Z M 197.5,79.5 C 211.109,78.6098 217.609,84.9432 217,98.5C 211.804,109.842 203.637,112.675 192.5,107C 183.456,95.7922 185.123,86.6256 197.5,79.5 Z M 304.5,79.5 C 318.109,78.6098 324.609,84.9432 324,98.5C 318.762,109.85 310.595,112.683 299.5,107C 290.451,95.8357 292.118,86.669 304.5,79.5 Z"/></g>
<g><path style="opacity:0.98" fill="#a5d863" d="M 72.5,168.5 C 91.1139,170.285 102.281,180.285 106,198.5C 106.667,250.5 106.667,302.5 106,354.5C 99.8679,378.654 84.7012,387.487 60.5,381C 51.3916,375.967 45.2249,368.467 42,358.5C 41.3333,303.833 41.3333,249.167 42,194.5C 46.5639,179.092 56.7306,170.426 72.5,168.5 Z"/></g>
<g><path style="opacity:0.988" fill="#a5d863" d="M 316.5,511.5 C 311.5,511.5 306.5,511.5 301.5,511.5C 288.408,507.572 280.241,498.905 277,485.5C 276.5,458.835 276.333,432.169 276.5,405.5C 262.5,405.5 248.5,405.5 234.5,405.5C 234.667,432.169 234.5,458.835 234,485.5C 230.759,498.905 222.592,507.572 209.5,511.5C 204.5,511.5 199.5,511.5 194.5,511.5C 181.328,507.227 173.161,498.227 170,484.5C 169.5,458.169 169.333,431.835 169.5,405.5C 159.028,406.055 148.695,405.222 138.5,403C 131.596,399.706 127.762,394.206 127,386.5C 126.5,313.834 126.333,241.167 126.5,168.5C 212.5,168.5 298.5,168.5 384.5,168.5C 384.667,241.167 384.5,313.834 384,386.5C 382.248,398.25 375.415,404.416 363.5,405C 356.174,405.5 348.841,405.666 341.5,405.5C 341.667,431.835 341.5,458.169 341,484.5C 337.839,498.227 329.672,507.227 316.5,511.5 Z"/></g>
<g><path style="opacity:0.98" fill="#a5d863" d="M 436.5,168.5 C 453.361,169.675 464.194,178.342 469,194.5C 469.667,249.167 469.667,303.833 469,358.5C 463.902,373.928 453.236,382.262 437,383.5C 421.133,382.632 410.8,374.632 406,359.5C 404.855,331.872 404.355,304.205 404.5,276.5C 404.359,248.467 404.859,220.467 406,192.5C 411.386,178.266 421.553,170.266 436.5,168.5 Z"/></g>
</svg>
