<?xml version="1.0" encoding="UTF-8"?>
<!DOCTYPE svg PUBLIC "-//W3C//DTD SVG 1.1//EN" "http://www.w3.org/Graphics/SVG/1.1/DTD/svg11.dtd">
<svg xmlns="http://www.w3.org/2000/svg" version="1.1" width="512px" height="512px" style="shape-rendering:geometricPrecision; text-rendering:geometricPrecision; image-rendering:optimizeQuality; fill-rule:evenodd; clip-rule:evenodd" xmlns:xlink="http://www.w3.org/1999/xlink">
<g><path style="opacity:0.928" fill="#263238" d="M 177.5,45.5 C 229.501,45.3333 281.501,45.5 333.5,46C 339.151,46.986 342.985,50.1527 345,55.5C 345.667,75.1667 345.667,94.8333 345,114.5C 343.5,118.667 340.667,121.5 336.5,123C 311.169,123.5 285.836,123.667 260.5,123.5C 260.5,137.5 260.5,151.5 260.5,165.5C 302.168,165.333 343.835,165.5 385.5,166C 386.667,166.5 387.5,167.333 388,168.5C 388.5,184.497 388.667,200.497 388.5,216.5C 408.901,216.035 429.234,216.535 449.5,218C 452.745,219.981 454.911,222.814 456,226.5C 456.667,245.833 456.667,265.167 456,284.5C 454.911,288.186 452.745,291.019 449.5,293C 429.234,294.465 408.901,294.965 388.5,294.5C 388.5,308.5 388.5,322.5 388.5,336.5C 410.503,336.333 432.503,336.5 454.5,337C 455,337.5 455.5,338 456,338.5C 456.5,354.83 456.667,371.163 456.5,387.5C 467.838,387.333 479.172,387.5 490.5,388C 493.735,389.36 496.235,391.527 498,394.5C 499.617,414.115 499.951,433.782 499,453.5C 498.097,458.14 495.597,461.64 491.5,464C 478.211,465.119 464.878,465.619 451.5,465.5C 439.833,465.333 428.167,465.167 416.5,465C 410.763,464.059 406.929,460.892 405,455.5C 404.333,435.833 404.333,416.167 405,396.5C 406.5,392.333 409.333,389.5 413.5,388C 424.828,387.5 436.162,387.333 447.5,387.5C 447.5,373.5 447.5,359.5 447.5,345.5C 404.833,345.5 362.167,345.5 319.5,345.5C 319.5,359.5 319.5,373.5 319.5,387.5C 330.838,387.333 342.172,387.5 353.5,388C 357.667,389.5 360.5,392.333 362,396.5C 362.667,416.167 362.667,435.833 362,455.5C 360.071,460.892 356.237,464.059 350.5,465C 338.833,465.167 327.167,465.333 315.5,465.5C 302.122,465.619 288.789,465.119 275.5,464C 271.403,461.64 268.903,458.14 268,453.5C 267.049,433.782 267.383,414.115 269,394.5C 270.765,391.527 273.265,389.36 276.5,388C 287.828,387.5 299.162,387.333 310.5,387.5C 310.333,371.163 310.5,354.83 311,338.5C 311.5,338 312,337.5 312.5,337C 334.497,336.5 356.497,336.333 378.5,336.5C 378.5,322.5 378.5,308.5 378.5,294.5C 358.099,294.965 337.766,294.465 317.5,293C 314.255,291.019 312.089,288.186 311,284.5C 310.333,265.167 310.333,245.833 311,226.5C 312.089,222.814 314.255,219.981 317.5,218C 337.766,216.535 358.099,216.035 378.5,216.5C 378.5,202.5 378.5,188.5 378.5,174.5C 296.5,174.5 214.5,174.5 132.5,174.5C 132.5,188.5 132.5,202.5 132.5,216.5C 152.901,216.035 173.234,216.535 193.5,218C 196.745,219.981 198.911,222.814 200,226.5C 200.667,245.833 200.667,265.167 200,284.5C 198.911,288.186 196.745,291.019 193.5,293C 173.234,294.465 152.901,294.965 132.5,294.5C 132.5,308.5 132.5,322.5 132.5,336.5C 154.503,336.333 176.503,336.5 198.5,337C 199,337.5 199.5,338 200,338.5C 200.5,354.83 200.667,371.163 200.5,387.5C 211.838,387.333 223.172,387.5 234.5,388C 237.735,389.36 240.235,391.527 242,394.5C 243.617,414.115 243.951,433.782 243,453.5C 242.097,458.14 239.597,461.64 235.5,464C 222.211,465.119 208.878,465.619 195.5,465.5C 183.833,465.333 172.167,465.167 160.5,465C 154.763,464.059 150.929,460.892 149,455.5C 148.333,435.833 148.333,416.167 149,396.5C 150.5,392.333 153.333,389.5 157.5,388C 168.828,387.5 180.162,387.333 191.5,387.5C 191.5,373.5 191.5,359.5 191.5,345.5C 148.833,345.5 106.167,345.5 63.5,345.5C 63.5,359.5 63.5,373.5 63.5,387.5C 74.8382,387.333 86.1716,387.5 97.5,388C 101.667,389.5 104.5,392.333 106,396.5C 106.667,416.167 106.667,435.833 106,455.5C 104.071,460.892 100.237,464.059 94.5,465C 82.8333,465.167 71.1667,465.333 59.5,465.5C 46.1222,465.619 32.7889,465.119 19.5,464C 15.4034,461.64 12.9034,458.14 12,453.5C 11.0495,433.782 11.3828,414.115 13,394.5C 14.7648,391.527 17.2648,389.36 20.5,388C 31.8284,387.5 43.1618,387.333 54.5,387.5C 54.3334,371.163 54.5001,354.83 55,338.5C 55.5,338 56,337.5 56.5,337C 78.4975,336.5 100.497,336.333 122.5,336.5C 122.5,322.5 122.5,308.5 122.5,294.5C 102.099,294.965 81.7661,294.465 61.5,293C 58.2553,291.019 56.0886,288.186 55,284.5C 54.3333,265.167 54.3333,245.833 55,226.5C 56.0886,222.814 58.2553,219.981 61.5,218C 81.7661,216.535 102.099,216.035 122.5,216.5C 122.333,200.497 122.5,184.497 123,168.5C 123.5,167.333 124.333,166.5 125.5,166C 167.165,165.5 208.832,165.333 250.5,165.5C 250.5,151.5 250.5,137.5 250.5,123.5C 225.164,123.667 199.831,123.5 174.5,123C 170.333,121.5 167.5,118.667 166,114.5C 165.333,94.8333 165.333,75.1667 166,55.5C 168.185,50.1403 172.019,46.807 177.5,45.5 Z"/></g>
<g><path style="opacity:1" fill="#fd5151" d="M 177.5,54.5 C 229.501,54.3333 281.501,54.5 333.5,55C 334.333,55.8333 335.167,56.6667 336,57.5C 336.667,75.8333 336.667,94.1667 336,112.5C 335.5,113 335,113.5 334.5,114C 281.833,114.667 229.167,114.667 176.5,114C 176,113.5 175.5,113 175,112.5C 174.333,94.1667 174.333,75.8333 175,57.5C 175.698,56.3094 176.531,55.3094 177.5,54.5 Z"/></g>
<g><path style="opacity:0.948" fill="#263137" d="M -0.5,87.5 C -0.5,85.5 -0.5,83.5 -0.5,81.5C 33.0952,80.341 66.7618,80.1744 100.5,81C 103.034,83.5867 103.034,86.2533 100.5,89C 67.5,89.6667 34.5,89.6667 1.5,89C 0.955796,88.2828 0.28913,87.7828 -0.5,87.5 Z"/></g>
<g><path style="opacity:0.938" fill="#263238" d="M 111.5,80.5 C 116.511,80.3341 121.511,80.5007 126.5,81C 128.013,83.9156 127.68,86.5823 125.5,89C 121.167,89.6667 116.833,89.6667 112.5,89C 111.257,87.8455 110.257,86.5122 109.5,85C 110.267,83.5295 110.933,82.0295 111.5,80.5 Z"/></g>
<g><path style="opacity:0.938" fill="#263238" d="M 384.5,80.5 C 389.511,80.3341 394.511,80.5007 399.5,81C 402.263,83.955 401.93,86.6217 398.5,89C 394.167,89.6667 389.833,89.6667 385.5,89C 383.265,86.4149 382.931,83.5815 384.5,80.5 Z"/></g>
<g><path style="opacity:0.948" fill="#263137" d="M 511.5,81.5 C 511.5,83.5 511.5,85.5 511.5,87.5C 510.711,87.7828 510.044,88.2828 509.5,89C 476.5,89.6667 443.5,89.6667 410.5,89C 407.966,86.2533 407.966,83.5867 410.5,81C 444.238,80.1744 477.905,80.341 511.5,81.5 Z"/></g>
<g><path style="opacity:1" fill="#fdd63f" d="M 65.5,225.5 C 106.835,225.333 148.168,225.5 189.5,226C 190,226.5 190.5,227 191,227.5C 191.667,246.167 191.667,264.833 191,283.5C 190.5,284 190,284.5 189.5,285C 148.167,285.667 106.833,285.667 65.5,285C 65,284.5 64.5,284 64,283.5C 63.3333,264.833 63.3333,246.167 64,227.5C 64.7172,226.956 65.2172,226.289 65.5,225.5 Z"/></g>
<g><path style="opacity:1" fill="#fdd63f" d="M 321.5,225.5 C 362.835,225.333 404.168,225.5 445.5,226C 446,226.5 446.5,227 447,227.5C 447.667,246.167 447.667,264.833 447,283.5C 446.5,284 446,284.5 445.5,285C 404.167,285.667 362.833,285.667 321.5,285C 321,284.5 320.5,284 320,283.5C 319.333,264.833 319.333,246.167 320,227.5C 320.717,226.956 321.217,226.289 321.5,225.5 Z"/></g>
<g><path style="opacity:1" fill="#4cb4aa" d="M 22.5,396.5 C 46.8356,396.333 71.1689,396.5 95.5,397C 96,397.5 96.5,398 97,398.5C 97.8201,417.21 97.6534,435.877 96.5,454.5C 95.9747,455.192 95.3081,455.692 94.5,456C 70.8333,456.667 47.1667,456.667 23.5,456C 22.6667,455.167 21.8333,454.333 21,453.5C 20.3333,435.167 20.3333,416.833 21,398.5C 21.7172,397.956 22.2172,397.289 22.5,396.5 Z"/></g>
<g><path style="opacity:1" fill="#4cb4aa" d="M 159.5,396.5 C 183.836,396.333 208.169,396.5 232.5,397C 233,397.5 233.5,398 234,398.5C 234.667,416.833 234.667,435.167 234,453.5C 233.167,454.333 232.333,455.167 231.5,456C 207.457,456.823 183.457,456.656 159.5,455.5C 158.808,454.975 158.308,454.308 158,453.5C 157.333,435.167 157.333,416.833 158,398.5C 158.717,397.956 159.217,397.289 159.5,396.5 Z"/></g>
<g><path style="opacity:1" fill="#4cb4aa" d="M 278.5,396.5 C 302.836,396.333 327.169,396.5 351.5,397C 352,397.5 352.5,398 353,398.5C 353.82,417.21 353.653,435.877 352.5,454.5C 351.975,455.192 351.308,455.692 350.5,456C 326.833,456.667 303.167,456.667 279.5,456C 278.667,455.167 277.833,454.333 277,453.5C 276.333,435.167 276.333,416.833 277,398.5C 277.717,397.956 278.217,397.289 278.5,396.5 Z"/></g>
<g><path style="opacity:1" fill="#4cb4aa" d="M 415.5,396.5 C 439.836,396.333 464.169,396.5 488.5,397C 489,397.5 489.5,398 490,398.5C 490.667,416.833 490.667,435.167 490,453.5C 489.167,454.333 488.333,455.167 487.5,456C 463.457,456.823 439.457,456.656 415.5,455.5C 414.808,454.975 414.308,454.308 414,453.5C 413.333,435.167 413.333,416.833 414,398.5C 414.717,397.956 415.217,397.289 415.5,396.5 Z"/></g>
</svg>
