<?xml version="1.0" encoding="UTF-8"?>
<!DOCTYPE svg PUBLIC "-//W3C//DTD SVG 1.1//EN" "http://www.w3.org/Graphics/SVG/1.1/DTD/svg11.dtd">
<svg xmlns="http://www.w3.org/2000/svg" version="1.1" width="512px" height="512px" style="shape-rendering:geometricPrecision; text-rendering:geometricPrecision; image-rendering:optimizeQuality; fill-rule:evenodd; clip-rule:evenodd" xmlns:xlink="http://www.w3.org/1999/xlink">
<g><path style="opacity:0.988" fill="#000000" d="M 511.5,212.5 C 511.5,225.833 511.5,239.167 511.5,252.5C 509.452,268.576 506.285,284.576 502,300.5C 496.595,317.716 490.595,334.716 484,351.5C 478.966,368.692 478.299,386.025 482,403.5C 484.592,411.014 488.925,417.348 495,422.5C 498.499,436.832 493.166,446.165 479,450.5C 462.675,441.174 450.008,428.174 441,411.5C 429.592,388.264 426.259,363.931 431,338.5C 436.099,320.673 439.265,302.506 440.5,284C 440.356,277.634 439.189,271.467 437,265.5C 434.655,261.816 431.322,259.816 427,259.5C 421.803,260.347 416.97,262.181 412.5,265C 365.459,296.211 338.626,340.045 332,396.5C 331.96,414.566 331.294,432.566 330,450.5C 328.127,452.709 325.96,454.542 323.5,456C 306.858,461.579 289.858,462.913 272.5,460C 266.095,459.198 260.095,457.198 254.5,454C 252.951,452.786 251.785,451.286 251,449.5C 250.667,434.833 250.333,420.167 250,405.5C 246.376,386.876 235.209,376.043 216.5,373C 203.73,371.942 191.063,372.609 178.5,375C 165.487,380.682 157.654,390.516 155,404.5C 154.667,419.5 154.333,434.5 154,449.5C 149.855,454.829 144.355,457.995 137.5,459C 118.538,463.06 99.8714,462.06 81.5,456C 78.3333,454.167 75.8333,451.667 74,448.5C 73.6667,422.833 73.3333,397.167 73,371.5C 70.9679,351.704 65.9679,332.704 58,314.5C 51.1239,302.081 44.7905,289.414 39,276.5C 36.5926,268.629 34.7593,260.629 33.5,252.5C 30.8494,254.65 28.3494,256.983 26,259.5C 21.2175,266.617 16.0508,273.45 10.5,280C 6.25856,281.188 2.59189,280.355 -0.5,277.5C -0.5,272.833 -0.5,268.167 -0.5,263.5C 5.78179,228.776 22.1151,199.609 48.5,176C 88.8222,142.763 135.156,123.096 187.5,117C 199.808,115.746 212.141,114.913 224.5,114.5C 226.273,137.711 234.44,158.377 249,176.5C 266.511,198.016 288.011,214.183 313.5,225C 328.47,231.237 343.803,232.57 359.5,229C 375.333,221.54 384.5,209.04 387,191.5C 390.361,165.728 388.361,140.395 381,115.5C 373.38,109.219 368.213,110.885 365.5,120.5C 371.418,142.185 373.252,164.185 371,186.5C 369.033,207.724 357.533,216.891 336.5,214C 300.543,205.043 272.71,184.877 253,153.5C 242.798,137.488 239.132,120.155 242,101.5C 247.159,89.3326 254.992,79.1659 265.5,71C 291.443,53.472 320.11,46.472 351.5,50C 404.884,53.4301 446.717,76.9301 477,120.5C 496.116,148.353 507.616,179.02 511.5,212.5 Z"/></g>
</svg>
