<?xml version="1.0" encoding="UTF-8"?>
<!DOCTYPE svg PUBLIC "-//W3C//DTD SVG 1.1//EN" "http://www.w3.org/Graphics/SVG/1.1/DTD/svg11.dtd">
<svg xmlns="http://www.w3.org/2000/svg" version="1.1" width="512px" height="512px" style="shape-rendering:geometricPrecision; text-rendering:geometricPrecision; image-rendering:optimizeQuality; fill-rule:evenodd; clip-rule:evenodd" xmlns:xlink="http://www.w3.org/1999/xlink">
<g><path style="opacity:0.993" fill="#fadfc6" d="M 85.5,-0.5 C 89.5,-0.5 93.5,-0.5 97.5,-0.5C 97.5,40.5 97.5,81.5 97.5,122.5C 100.713,122.19 103.713,122.523 106.5,123.5C 69.9182,125.723 46.4182,109.389 36,74.5C 31.5041,35.5177 48.0041,10.5177 85.5,-0.5 Z"/></g>
<g><path style="opacity:1" fill="#f7ceb0" d="M 97.5,-0.5 C 101.167,-0.5 104.833,-0.5 108.5,-0.5C 139.995,8.01449 156.995,28.6812 159.5,61.5C 156.937,95.0635 139.271,115.73 106.5,123.5C 103.713,122.523 100.713,122.19 97.5,122.5C 97.5,81.5 97.5,40.5 97.5,-0.5 Z"/></g>
<g><path style="opacity:0.991" fill="#e5f1f2" d="M 303.5,-0.5 C 307.167,-0.5 310.833,-0.5 314.5,-0.5C 314.5,16.1667 314.5,32.8333 314.5,49.5C 258.794,55.0561 218.96,83.0561 195,133.5C 192.66,139.019 190.827,144.686 189.5,150.5C 183.471,141.007 174.804,135.173 163.5,133C 156.508,132.5 149.508,132.334 142.5,132.5C 163.812,68.3563 206.812,26.1896 271.5,6C 282.213,3.35785 292.879,1.19119 303.5,-0.5 Z"/></g>
<g><path style="opacity:1" fill="#a3c6cc" d="M 314.5,-0.5 C 320.167,-0.5 325.833,-0.5 331.5,-0.5C 331.5,16.1667 331.5,32.8333 331.5,49.5C 325.833,49.5 320.167,49.5 314.5,49.5C 314.5,32.8333 314.5,16.1667 314.5,-0.5 Z"/></g>
<g><path style="opacity:0.999" fill="#cfe6e6" d="M 331.5,-0.5 C 335.167,-0.5 338.833,-0.5 342.5,-0.5C 424.537,12.0325 478.704,57.6992 505,136.5C 507.722,147.195 509.889,157.861 511.5,168.5C 511.5,172.167 511.5,175.833 511.5,179.5C 494.833,179.5 478.167,179.5 461.5,179.5C 456.289,124.546 428.956,85.0461 379.5,61C 364.077,54.644 348.077,50.8107 331.5,49.5C 331.5,32.8333 331.5,16.1667 331.5,-0.5 Z"/></g>
<g><path style="opacity:1" fill="#fefefe" d="M 314.5,49.5 C 320.167,49.5 325.833,49.5 331.5,49.5C 348.077,50.8107 364.077,54.644 379.5,61C 428.956,85.0461 456.289,124.546 461.5,179.5C 461.5,185.167 461.5,190.833 461.5,196.5C 458.111,239.457 439.444,273.957 405.5,300C 400.276,303.441 394.943,306.608 389.5,309.5C 369.575,256.896 349.742,204.229 330,151.5C 328.871,149.859 327.371,148.859 325.5,148.5C 323.228,147.236 320.895,147.402 318.5,149C 316.623,151.251 315.123,153.751 314,156.5C 294.82,207.521 275.653,258.521 256.5,309.5C 228.962,294.792 208.795,273.125 196,244.5C 195.832,219.33 195.332,194.33 194.5,169.5C 194.666,162.668 193,156.335 189.5,150.5C 190.827,144.686 192.66,139.019 195,133.5C 218.96,83.0561 258.794,55.0561 314.5,49.5 Z"/></g>
<g><path style="opacity:0.997" fill="#99ccff" d="M 96.5,144.5 C 96.5,213.167 96.5,281.833 96.5,350.5C 71.5,350.5 46.5,350.5 21.5,350.5C 16.4889,350.666 11.4889,350.499 6.5,350C 3.64238,348.306 1.30904,346.139 -0.5,343.5C -0.5,282.833 -0.5,222.167 -0.5,161.5C 3.98451,146.85 13.6512,137.35 28.5,133C 36.8333,132.333 45.1667,132.333 53.5,133C 66.8785,140.428 81.2119,144.261 96.5,144.5 Z"/></g>
<g><path style="opacity:1" fill="#8095fe" d="M 142.5,132.5 C 149.508,132.334 156.508,132.5 163.5,133C 174.804,135.173 183.471,141.007 189.5,150.5C 193,156.335 194.666,162.668 194.5,169.5C 194.175,222.542 194.509,275.542 195.5,328.5C 197.579,346.089 189.912,353.422 172.5,350.5C 147.5,350.5 122.5,350.5 97.5,350.5C 97.5,282.167 97.5,213.833 97.5,145.5C 100.385,145.806 103.052,145.473 105.5,144.5C 118.633,142.804 130.966,138.804 142.5,132.5 Z"/></g>
<g><path style="opacity:1" fill="#8cb2ff" d="M 96.5,144.5 C 99.5,144.5 102.5,144.5 105.5,144.5C 103.052,145.473 100.385,145.806 97.5,145.5C 97.5,213.833 97.5,282.167 97.5,350.5C 97.1667,350.5 96.8333,350.5 96.5,350.5C 96.5,281.833 96.5,213.167 96.5,144.5 Z"/></g>
<g><path style="opacity:0.996" fill="#ffd74a" d="M 325.5,148.5 C 324.5,148.5 323.5,148.5 322.5,148.5C 322.5,241.167 322.5,333.833 322.5,426.5C 279.994,454.585 237.661,482.919 195.5,511.5C 192.833,511.5 190.167,511.5 187.5,511.5C 183.76,508.401 182.593,504.401 184,499.5C 202.335,451.991 220.168,404.325 237.5,356.5C 238.79,355.942 239.623,354.942 240,353.5C 245.238,338.698 250.738,324.032 256.5,309.5C 275.653,258.521 294.82,207.521 314,156.5C 315.123,153.751 316.623,151.251 318.5,149C 320.895,147.402 323.228,147.236 325.5,148.5 Z"/></g>
<g><path style="opacity:1" fill="#fdbf01" d="M 325.5,148.5 C 327.371,148.859 328.871,149.859 330,151.5C 349.742,204.229 369.575,256.896 389.5,309.5C 395.461,325.729 401.794,341.729 408.5,357.5C 426.228,405.182 444.061,452.848 462,500.5C 463.338,505.04 462.171,508.707 458.5,511.5C 455.833,511.5 453.167,511.5 450.5,511.5C 408.214,482.683 365.547,454.35 322.5,426.5C 322.5,333.833 322.5,241.167 322.5,148.5C 323.5,148.5 324.5,148.5 325.5,148.5 Z"/></g>
<g><path style="opacity:1" fill="#a3c6cc" d="M 461.5,179.5 C 478.167,179.5 494.833,179.5 511.5,179.5C 511.5,185.167 511.5,190.833 511.5,196.5C 494.833,196.5 478.167,196.5 461.5,196.5C 461.5,190.833 461.5,185.167 461.5,179.5 Z"/></g>
<g><path style="opacity:1" fill="#cfe6e6" d="M 461.5,196.5 C 478.167,196.5 494.833,196.5 511.5,196.5C 511.5,200.167 511.5,203.833 511.5,207.5C 501.931,274.676 467.598,324.676 408.5,357.5C 401.794,341.729 395.461,325.729 389.5,309.5C 394.943,306.608 400.276,303.441 405.5,300C 439.444,273.957 458.111,239.457 461.5,196.5 Z"/></g>
<g><path style="opacity:0.994" fill="#e5f1f2" d="M 194.5,169.5 C 195.332,194.33 195.832,219.33 196,244.5C 208.795,273.125 228.962,294.792 256.5,309.5C 250.738,324.032 245.238,338.698 240,353.5C 239.623,354.942 238.79,355.942 237.5,356.5C 222.158,349.154 208.158,339.82 195.5,328.5C 194.509,275.542 194.175,222.542 194.5,169.5 Z"/></g>
<g><path style="opacity:0.997" fill="#6a9ba5" d="M 21.5,350.5 C 46.5,350.5 71.5,350.5 96.5,350.5C 96.8333,350.5 97.1667,350.5 97.5,350.5C 97.5,404.167 97.5,457.833 97.5,511.5C 80.5,511.5 63.5,511.5 46.5,511.5C 43.1416,509.3 40.6416,506.3 39,502.5C 33.2709,451.77 27.4376,401.103 21.5,350.5 Z"/></g>
<g><path style="opacity:1" fill="#406a80" d="M 97.5,350.5 C 122.5,350.5 147.5,350.5 172.5,350.5C 166.706,401.147 160.872,451.814 155,502.5C 153.358,506.3 150.858,509.3 147.5,511.5C 130.833,511.5 114.167,511.5 97.5,511.5C 97.5,457.833 97.5,404.167 97.5,350.5 Z"/></g>
</svg>
