<?xml version="1.0" encoding="UTF-8"?>
<!DOCTYPE svg PUBLIC "-//W3C//DTD SVG 1.1//EN" "http://www.w3.org/Graphics/SVG/1.1/DTD/svg11.dtd">
<svg xmlns="http://www.w3.org/2000/svg" version="1.1" width="512px" height="512px" style="shape-rendering:geometricPrecision; text-rendering:geometricPrecision; image-rendering:optimizeQuality; fill-rule:evenodd; clip-rule:evenodd" xmlns:xlink="http://www.w3.org/1999/xlink">
<g><path style="opacity:0.973" fill="#373737" d="M 243.5,-0.5 C 251.5,-0.5 259.5,-0.5 267.5,-0.5C 272.957,1.6707 276.624,5.6707 278.5,11.5C 280.915,12.3052 283.249,13.3052 285.5,14.5C 292.149,11.4836 298.482,11.9836 304.5,16C 310.492,20.9815 315.326,26.8149 319,33.5C 319.852,37.9963 319.352,42.3296 317.5,46.5C 318.601,52.1013 321.934,55.6013 327.5,57C 329.43,59.2583 330.93,61.7583 332,64.5C 332.667,72.1667 332.667,79.8333 332,87.5C 330.059,93.2751 326.226,97.2751 320.5,99.5C 317.917,103.014 317.417,106.681 319,110.5C 320.405,116.535 319.072,121.868 315,126.5C 310.286,132.56 304.452,137.06 297.5,140C 292.743,140.291 288.076,139.958 283.5,139C 281.913,139.862 280.246,140.529 278.5,141C 274.4,151.388 266.733,155.555 255.5,153.5C 244.544,155.588 237.044,151.588 233,141.5C 231.184,140.671 229.351,139.837 227.5,139C 222.924,139.958 218.257,140.291 213.5,140C 204.08,135.581 196.913,128.747 192,119.5C 191.148,115.004 191.648,110.67 193.5,106.5C 192.695,104.085 191.695,101.751 190.5,99.5C 184.774,97.2751 180.941,93.2751 179,87.5C 178.333,79.8333 178.333,72.1667 179,64.5C 179.561,62.2746 180.561,60.2746 182,58.5C 185,56.5 188,54.5 191,52.5C 193.325,49.2577 193.658,45.9243 192,42.5C 190.827,37.0232 191.827,32.0232 195,27.5C 199.907,21.922 205.407,17.0887 211.5,13C 216.36,12.0321 221.026,12.5321 225.5,14.5C 227.751,13.3052 230.085,12.3052 232.5,11.5C 234.17,5.50272 237.837,1.50272 243.5,-0.5 Z M 252.5,59.5 C 264.089,59.425 270.756,65.0917 272.5,76.5C 268.858,90.8202 260.192,95.3202 246.5,90C 238.526,83.2895 237.026,75.4562 242,66.5C 244.998,63.2623 248.498,60.9289 252.5,59.5 Z"/></g>
<g><path style="opacity:1" fill="#cad9e7" d="M 249.5,16.5 C 253.555,16.1758 257.555,16.5091 261.5,17.5C 262.271,20.8772 263.938,23.7106 266.5,26C 271.58,27.8043 276.58,29.8043 281.5,32C 285.949,32.4082 290.283,32.0749 294.5,31C 297.017,33.3494 299.35,35.8494 301.5,38.5C 299.307,41.8996 298.474,45.5663 299,49.5C 301.911,54.562 304.245,59.8954 306,65.5C 308.414,67.812 311.247,69.4787 314.5,70.5C 315.491,74.4454 315.824,78.4454 315.5,82.5C 310.924,82.5675 307.424,84.5675 305,88.5C 303.223,94.5013 301.056,100.335 298.5,106C 299.829,109.121 300.662,112.287 301,115.5C 298.651,118.017 296.151,120.35 293.5,122.5C 290.708,121.353 287.875,120.353 285,119.5C 279.335,122.056 273.501,124.223 267.5,126C 264.066,128.703 262.066,132.203 261.5,136.5C 257.5,136.5 253.5,136.5 249.5,136.5C 249.037,131.738 246.704,128.238 242.5,126C 236.813,123.821 231.146,121.654 225.5,119.5C 222.412,120.399 219.412,121.233 216.5,122C 214.333,119.833 212.167,117.667 210,115.5C 211.276,110.99 211.609,106.323 211,101.5C 208.61,96.9975 206.61,92.3308 205,87.5C 202.448,84.6407 199.281,82.974 195.5,82.5C 195.176,78.4454 195.509,74.4454 196.5,70.5C 199.58,69.2115 202.414,67.5448 205,65.5C 206.413,60.2609 208.413,55.2609 211,50.5C 211.56,46.0123 211.227,41.6789 210,37.5C 212.167,35.3333 214.333,33.1667 216.5,31C 220.679,32.2268 225.012,32.5601 229.5,32C 234.261,29.4128 239.261,27.4128 244.5,26C 246.829,23.1745 248.496,20.0078 249.5,16.5 Z M 252.5,59.5 C 248.498,60.9289 244.998,63.2623 242,66.5C 237.026,75.4562 238.526,83.2895 246.5,90C 260.192,95.3202 268.858,90.8202 272.5,76.5C 270.756,65.0917 264.089,59.425 252.5,59.5 Z"/></g>
<g><path style="opacity:0.976" fill="#373737" d="M -0.5,270.5 C -0.5,260.5 -0.5,250.5 -0.5,240.5C 1.59151,236.572 4.59151,233.406 8.5,231C 14.7528,229.796 21.0862,229.129 27.5,229C 30.4281,227.74 32.2614,225.573 33,222.5C 33.3333,184.167 33.6667,145.833 34,107.5C 42.3188,71.6796 64.8188,52.6796 101.5,50.5C 103.856,36.9971 111.856,31.4971 125.5,34C 127.5,35 129.5,36 131.5,37C 141.03,46.1963 150.197,55.6963 159,65.5C 163.779,73.3854 163.446,81.0521 158,88.5C 148.5,98 139,107.5 129.5,117C 120.224,121.321 112.057,119.821 105,112.5C 103.132,109.395 101.965,106.062 101.5,102.5C 93.6426,103.013 88.4759,107.013 86,114.5C 85.3333,151.167 85.3333,187.833 86,224.5C 87.2273,226.726 89.0607,228.226 91.5,229C 94.8168,229.498 98.1501,229.665 101.5,229.5C 104.386,214.884 113.053,209.717 127.5,214C 138.251,223.748 148.751,233.915 159,244.5C 163.667,251.833 163.667,259.167 159,266.5C 148.751,277.085 138.251,287.252 127.5,297C 118.682,300.276 111.182,298.443 105,291.5C 102.965,288.439 101.799,285.105 101.5,281.5C 98.1501,281.335 94.8168,281.502 91.5,282C 89.0607,282.774 87.2273,284.274 86,286.5C 85.3333,323.167 85.3333,359.833 86,396.5C 88.4759,403.987 93.6426,407.987 101.5,408.5C 102.956,398.044 108.956,392.378 119.5,391.5C 122.956,391.818 126.289,392.652 129.5,394C 139,403.5 148.5,413 158,422.5C 163.446,429.948 163.779,437.615 159,445.5C 150.197,455.304 141.03,464.804 131.5,474C 121.082,479.783 111.916,478.283 104,469.5C 102.451,466.688 101.618,463.688 101.5,460.5C 64.8188,458.32 42.3188,439.32 34,403.5C 33.6667,365.167 33.3333,326.833 33,288.5C 32.2614,285.427 30.4281,283.26 27.5,282C 21.0862,281.871 14.7528,281.204 8.5,280C 4.59151,277.594 1.59151,274.428 -0.5,270.5 Z"/></g>
<g><path style="opacity:0.97" fill="#373737" d="M 511.5,70.5 C 511.5,74.5 511.5,78.5 511.5,82.5C 502.136,94.3718 491.803,105.538 480.5,116C 469.352,122.059 460.185,119.893 453,109.5C 452.023,107.26 451.523,104.927 451.5,102.5C 421.831,102.667 392.165,102.5 362.5,102C 354.886,100.053 350.386,95.2196 349,87.5C 343.606,56.2283 356.44,44.0616 387.5,51C 390.789,52.4103 392.456,54.9103 392.5,58.5C 392.28,62.5587 390.28,65.392 386.5,67C 379.842,67.4996 373.175,67.6663 366.5,67.5C 366.5,73.1667 366.5,78.8333 366.5,84.5C 398.168,84.3334 429.835,84.5 461.5,85C 464.276,85.0657 466.442,86.2324 468,88.5C 468.172,92.8711 468.672,97.2044 469.5,101.5C 478.167,93.5 486.5,85.1667 494.5,76.5C 486.139,67.8068 477.806,59.1401 469.5,50.5C 468.673,54.4592 468.173,58.4592 468,62.5C 467.167,64.6667 465.667,66.1667 463.5,67C 447.167,67.6667 430.833,67.6667 414.5,67C 411.152,65.144 409.152,62.3107 408.5,58.5C 409.043,55.2461 410.71,52.7461 413.5,51C 426.162,50.5001 438.829,50.3334 451.5,50.5C 453.845,37.0115 461.845,31.5115 475.5,34C 481.197,36.6912 486.03,40.5246 490,45.5C 495.968,52.4692 502.301,59.1359 509,65.5C 509.757,67.3146 510.59,68.9812 511.5,70.5 Z"/></g>
<g><path style="opacity:0.985" fill="#383838" d="M 247.5,42.5 C 275.678,41.1806 289.511,54.5139 289,82.5C 283.05,102.728 269.55,111.895 248.5,110C 224.666,101.163 216.832,84.6627 225,60.5C 230.387,51.7395 237.887,45.7395 247.5,42.5 Z M 252.5,59.5 C 248.498,60.9289 244.998,63.2623 242,66.5C 237.026,75.4562 238.526,83.2895 246.5,90C 260.192,95.3202 268.858,90.8202 272.5,76.5C 270.756,65.0917 264.089,59.425 252.5,59.5 Z"/></g>
<g><path style="opacity:1" fill="#68c1c3" d="M 28.5,264.5 C 25.0381,263.518 21.3714,263.185 17.5,263.5C 17.5,258.167 17.5,252.833 17.5,247.5C 21.3714,247.815 25.0381,247.482 28.5,246.5C 39.5481,244.622 46.7148,238.288 50,227.5C 50.3333,188.833 50.6667,150.167 51,111.5C 55.4334,89.7329 68.2667,75.5662 89.5,69C 98.22,68.105 106.887,67.105 115.5,66C 116.701,65.0975 117.535,63.9308 118,62.5C 118.499,58.8484 118.665,55.1817 118.5,51.5C 119.552,51.3505 120.552,51.5172 121.5,52C 129.514,59.8805 137.181,68.0471 144.5,76.5C 136.5,85.1667 128.167,93.5 119.5,101.5C 118.673,97.5408 118.173,93.5408 118,89.5C 116.773,87.2739 114.939,85.7739 112.5,85C 88.7717,81.7672 73.9383,91.6005 68,114.5C 67.3333,151.167 67.3333,187.833 68,224.5C 69.6975,235.075 75.5309,242.242 85.5,246C 95.1667,246.667 104.833,246.667 114.5,246C 115.667,244.833 116.833,243.667 118,242.5C 118.499,238.514 118.666,234.514 118.5,230.5C 119.552,230.351 120.552,230.517 121.5,231C 128.983,239.318 136.65,247.484 144.5,255.5C 136.5,264.167 128.167,272.5 119.5,280.5C 118.673,276.541 118.173,272.541 118,268.5C 116.833,267.333 115.667,266.167 114.5,265C 104.833,264.333 95.1667,264.333 85.5,265C 76.1659,268.335 70.3326,274.835 68,284.5C 67.3333,321.833 67.3333,359.167 68,396.5C 73.9383,419.399 88.7717,429.233 112.5,426C 114.939,425.226 116.773,423.726 118,421.5C 118.173,417.459 118.673,413.459 119.5,409.5C 128.167,417.5 136.5,425.833 144.5,434.5C 136.5,443.167 128.167,451.5 119.5,459.5C 118.673,455.541 118.173,451.541 118,447.5C 117.167,446.667 116.333,445.833 115.5,445C 94.4214,446.422 76.5881,439.588 62,424.5C 56.2004,416.777 52.5338,408.11 51,398.5C 50.6667,359.833 50.3333,321.167 50,282.5C 46.2894,272.283 39.1227,266.283 28.5,264.5 Z"/></g>
<g><path style="opacity:0.995" fill="#68c1c3" d="M 392.5,58.5 C 397.833,58.5 403.167,58.5 408.5,58.5C 409.152,62.3107 411.152,65.144 414.5,67C 430.833,67.6667 447.167,67.6667 463.5,67C 465.667,66.1667 467.167,64.6667 468,62.5C 468.173,58.4592 468.673,54.4592 469.5,50.5C 477.806,59.1401 486.139,67.8068 494.5,76.5C 486.5,85.1667 478.167,93.5 469.5,101.5C 468.672,97.2044 468.172,92.8711 468,88.5C 466.442,86.2324 464.276,85.0657 461.5,85C 429.835,84.5 398.168,84.3334 366.5,84.5C 366.5,78.8333 366.5,73.1667 366.5,67.5C 373.175,67.6663 379.842,67.4996 386.5,67C 390.28,65.392 392.28,62.5587 392.5,58.5 Z"/></g>
<g><path style="opacity:0.972" fill="#373737" d="M 243.5,178.5 C 251.507,178.334 259.507,178.5 267.5,179C 272.868,181.702 276.868,185.702 279.5,191C 282.742,193.325 286.076,193.658 289.5,192C 294.977,190.827 299.977,191.827 304.5,195C 309.367,199.532 313.867,204.366 318,209.5C 320.084,214.906 319.918,220.239 317.5,225.5C 318.695,227.751 319.695,230.085 320.5,232.5C 325.796,234.629 329.629,238.296 332,243.5C 332.667,251.5 332.667,259.5 332,267.5C 329.298,272.868 325.298,276.868 320,279.5C 317.675,282.742 317.342,286.076 319,289.5C 320.173,294.977 319.173,299.977 316,304.5C 311.468,309.367 306.634,313.867 301.5,318C 296.094,320.084 290.761,319.918 285.5,317.5C 283.249,318.695 280.915,319.695 278.5,320.5C 276.371,325.796 272.704,329.629 267.5,332C 259.5,332.667 251.5,332.667 243.5,332C 238.132,329.298 234.132,325.298 231.5,320C 228.258,317.675 224.924,317.342 221.5,319C 216.023,320.173 211.023,319.173 206.5,316C 201.633,311.468 197.133,306.634 193,301.5C 190.916,296.094 191.082,290.761 193.5,285.5C 192.305,283.249 191.305,280.915 190.5,278.5C 185.204,276.371 181.371,272.704 179,267.5C 178.333,259.5 178.333,251.5 179,243.5C 181.702,238.132 185.702,234.132 191,231.5C 193.325,228.258 193.658,224.924 192,221.5C 190.827,216.023 191.827,211.023 195,206.5C 199.532,201.633 204.366,197.133 209.5,193C 214.906,190.916 220.239,191.082 225.5,193.5C 227.751,192.305 230.085,191.305 232.5,190.5C 234.821,185.182 238.488,181.182 243.5,178.5 Z M 254.5,238.5 C 265.031,239.364 271.031,245.031 272.5,255.5C 271.167,265.5 265.5,271.167 255.5,272.5C 245.5,271.167 239.833,265.5 238.5,255.5C 239.805,245.865 245.139,240.199 254.5,238.5 Z"/></g>
<g><path style="opacity:1" fill="#cad9e7" d="M 249.5,195.5 C 253.555,195.176 257.555,195.509 261.5,196.5C 262.271,199.877 263.938,202.711 266.5,205C 272.067,206.783 277.401,209.117 282.5,212C 286.639,211.917 290.639,211.251 294.5,210C 297.219,212.382 299.553,215.049 301.5,218C 300.214,220.569 299.214,223.236 298.5,226C 300.804,231.442 302.971,236.942 305,242.5C 306.967,246.406 310.134,248.739 314.5,249.5C 315.833,253.5 315.833,257.5 314.5,261.5C 311.123,262.271 308.289,263.938 306,266.5C 304.222,272.057 301.889,277.391 299,282.5C 299.083,286.639 299.749,290.639 301,294.5C 298.833,296.667 296.667,298.833 294.5,301C 291.287,300.662 288.121,299.829 285,298.5C 278.902,301.131 272.735,303.631 266.5,306C 263.641,308.552 261.974,311.719 261.5,315.5C 257.445,315.824 253.445,315.491 249.5,314.5C 248.729,311.123 247.062,308.289 244.5,306C 238.884,304.242 233.551,301.908 228.5,299C 224.361,299.083 220.361,299.749 216.5,301C 213.781,298.618 211.447,295.951 209.5,293C 211.387,289.015 211.887,284.848 211,280.5C 208.799,276.76 207.132,272.76 206,268.5C 204.033,264.594 200.866,262.261 196.5,261.5C 195.167,257.5 195.167,253.5 196.5,249.5C 199.877,248.729 202.711,247.062 205,244.5C 206.413,239.261 208.413,234.261 211,229.5C 211.56,225.012 211.227,220.679 210,216.5C 212.167,214.333 214.333,212.167 216.5,210C 219.713,210.338 222.879,211.171 226,212.5C 231.959,209.621 238.126,207.121 244.5,205C 247.014,202.3 248.681,199.133 249.5,195.5 Z M 254.5,238.5 C 245.139,240.199 239.805,245.865 238.5,255.5C 239.833,265.5 245.5,271.167 255.5,272.5C 265.5,271.167 271.167,265.5 272.5,255.5C 271.031,245.031 265.031,239.364 254.5,238.5 Z"/></g>
<g><path style="opacity:0.971" fill="#373737" d="M 511.5,249.5 C 511.5,253.5 511.5,257.5 511.5,261.5C 501.462,274.376 490.128,286.209 477.5,297C 463.053,301.283 454.386,296.116 451.5,281.5C 421.498,281.667 391.498,281.5 361.5,281C 354.483,278.648 350.316,273.815 349,266.5C 348.333,259.167 348.333,251.833 349,244.5C 350.316,237.185 354.483,232.352 361.5,230C 391.498,229.5 421.498,229.333 451.5,229.5C 455.069,213.88 464.402,209.047 479.5,215C 489,224.5 498.5,234 508,243.5C 509.459,245.432 510.625,247.432 511.5,249.5 Z"/></g>
<g><path style="opacity:0.986" fill="#383838" d="M 247.5,221.5 C 275.688,220.191 289.521,233.524 289,261.5C 283.189,282.504 269.355,291.671 247.5,289C 227.95,282.084 219.45,268.25 222,247.5C 226.017,234.318 234.517,225.651 247.5,221.5 Z M 254.5,238.5 C 245.139,240.199 239.805,245.865 238.5,255.5C 239.833,265.5 245.5,271.167 255.5,272.5C 265.5,271.167 271.167,265.5 272.5,255.5C 271.031,245.031 265.031,239.364 254.5,238.5 Z"/></g>
<g><path style="opacity:1" fill="#67bec0" d="M 468.5,230.5 C 477.759,238.09 486.426,246.423 494.5,255.5C 486.5,264.167 478.167,272.5 469.5,280.5C 468.672,276.204 468.172,271.871 468,267.5C 467.097,266.299 465.931,265.465 464.5,265C 431.835,264.5 399.168,264.333 366.5,264.5C 366.5,258.5 366.5,252.5 366.5,246.5C 399.168,246.667 431.835,246.5 464.5,246C 466.049,244.786 467.215,243.286 468,241.5C 468.499,237.848 468.665,234.182 468.5,230.5 Z"/></g>
<g><path style="opacity:1" fill="#5da1a3" d="M 28.5,246.5 C 25.0381,247.482 21.3714,247.815 17.5,247.5C 17.5,252.833 17.5,258.167 17.5,263.5C 21.3714,263.185 25.0381,263.518 28.5,264.5C 24.5,264.5 20.5,264.5 16.5,264.5C 16.5,258.5 16.5,252.5 16.5,246.5C 20.5,246.5 24.5,246.5 28.5,246.5 Z"/></g>
<g><path style="opacity:0.973" fill="#373737" d="M 267.5,511.5 C 259.5,511.5 251.5,511.5 243.5,511.5C 238.043,509.329 234.376,505.329 232.5,499.5C 230.085,498.695 227.751,497.695 225.5,496.5C 218.851,499.516 212.518,499.016 206.5,495C 200.508,490.018 195.674,484.185 192,477.5C 191.148,473.004 191.648,468.67 193.5,464.5C 192.399,458.899 189.066,455.399 183.5,454C 181.623,451.749 180.123,449.249 179,446.5C 178.333,438.833 178.333,431.167 179,423.5C 180.941,417.725 184.774,413.725 190.5,411.5C 193.083,407.986 193.583,404.319 192,400.5C 190.475,393.886 192.142,388.22 197,383.5C 201.387,377.768 206.887,373.602 213.5,371C 218.257,370.709 222.924,371.042 227.5,372C 229.087,371.138 230.754,370.471 232.5,370C 236.6,359.612 244.267,355.445 255.5,357.5C 266.456,355.412 273.956,359.412 278,369.5C 279.816,370.329 281.649,371.163 283.5,372C 288.076,371.042 292.743,370.709 297.5,371C 306.92,375.419 314.087,382.253 319,391.5C 319.852,395.996 319.352,400.33 317.5,404.5C 318.294,409.936 321.294,413.436 326.5,415C 329.106,416.938 330.939,419.438 332,422.5C 332.667,430.5 332.667,438.5 332,446.5C 331.439,448.725 330.439,450.725 329,452.5C 326,454.5 323,456.5 320,458.5C 317.675,461.742 317.342,465.076 319,468.5C 320.173,473.977 319.173,478.977 316,483.5C 311.093,489.078 305.593,493.911 299.5,498C 294.64,498.968 289.974,498.468 285.5,496.5C 279.899,497.601 276.399,500.934 275,506.5C 272.574,508.452 270.074,510.119 267.5,511.5 Z M 250.5,418.5 C 262.839,417.341 270.173,422.841 272.5,435C 270.559,446.277 263.892,451.611 252.5,451C 240.408,446.651 236.575,438.484 241,426.5C 243.772,423.217 246.939,420.55 250.5,418.5 Z"/></g>
<g><path style="opacity:1" fill="#cad9e7" d="M 249.5,374.5 C 253.555,374.176 257.555,374.509 261.5,375.5C 262.363,379.393 264.363,382.56 267.5,385C 272.739,386.413 277.739,388.413 282.5,391C 286.639,390.917 290.639,390.251 294.5,389C 296.667,391.167 298.833,393.333 301,395.5C 300.662,398.713 299.829,401.879 298.5,405C 301.131,411.098 303.631,417.265 306,423.5C 308.319,426.773 311.486,428.44 315.5,428.5C 315.824,432.555 315.491,436.555 314.5,440.5C 311.247,441.521 308.414,443.188 306,445.5C 304.217,451.067 301.883,456.401 299,461.5C 299.083,465.639 299.749,469.639 301,473.5C 298.618,476.219 295.951,478.553 293,480.5C 290.433,479.422 287.767,478.755 285,478.5C 279.532,480.323 274.032,482.156 268.5,484C 264.594,485.967 262.261,489.134 261.5,493.5C 257.5,494.833 253.5,494.833 249.5,493.5C 248.729,490.123 247.062,487.289 244.5,485C 239.261,483.587 234.261,481.587 229.5,479C 225.482,478.148 221.649,478.648 218,480.5C 215.049,478.553 212.382,476.219 210,473.5C 211.227,469.321 211.56,464.988 211,460.5C 208.804,455.58 206.804,450.58 205,445.5C 202.414,443.455 199.58,441.789 196.5,440.5C 195.509,436.555 195.176,432.555 195.5,428.5C 200.262,428.037 203.762,425.704 206,421.5C 207.109,417.281 208.775,413.281 211,409.5C 211.609,404.677 211.276,400.01 210,395.5C 212.349,392.983 214.849,390.65 217.5,388.5C 219.968,390.069 222.634,391.069 225.5,391.5C 231.813,389.012 238.146,386.512 244.5,384C 247.354,381.459 249.021,378.292 249.5,374.5 Z M 250.5,418.5 C 246.939,420.55 243.772,423.217 241,426.5C 236.575,438.484 240.408,446.651 252.5,451C 263.892,451.611 270.559,446.277 272.5,435C 270.173,422.841 262.839,417.341 250.5,418.5 Z"/></g>
<g><path style="opacity:0.971" fill="#373737" d="M 511.5,428.5 C 511.5,432.5 511.5,436.5 511.5,440.5C 510.59,442.019 509.757,443.685 509,445.5C 499.803,454.363 490.969,463.53 482.5,473C 471.914,479.94 462.414,478.773 454,469.5C 452.451,466.688 451.618,463.688 451.5,460.5C 421.165,460.667 390.832,460.5 360.5,460C 350.5,454.493 346.5,445.993 348.5,434.5C 347.218,425.776 349.551,418.276 355.5,412C 357.717,410.725 360.051,409.725 362.5,409C 392.165,408.5 421.831,408.333 451.5,408.5C 453.489,396.023 460.822,390.523 473.5,392C 475.949,392.725 478.283,393.725 480.5,395C 491.803,405.462 502.136,416.628 511.5,428.5 Z"/></g>
<g><path style="opacity:0.985" fill="#373838" d="M 248.5,400.5 C 269.047,399.175 282.547,408.175 289,427.5C 289.982,456.185 276.149,469.685 247.5,468C 226.719,460.281 218.552,445.448 223,423.5C 228.228,412.101 236.728,404.434 248.5,400.5 Z M 250.5,418.5 C 246.939,420.55 243.772,423.217 241,426.5C 236.575,438.484 240.408,446.651 252.5,451C 263.892,451.611 270.559,446.277 272.5,435C 270.173,422.841 262.839,417.341 250.5,418.5 Z"/></g>
<g><path style="opacity:1" fill="#68c1c3" d="M 468.5,409.5 C 477.759,417.09 486.426,425.423 494.5,434.5C 486.5,443.167 478.167,451.5 469.5,459.5C 468.672,455.204 468.172,450.871 468,446.5C 466.509,444.996 464.676,444.163 462.5,444C 430.502,443.5 398.502,443.333 366.5,443.5C 366.5,437.833 366.5,432.167 366.5,426.5C 398.502,426.667 430.502,426.5 462.5,426C 464.624,424.878 466.457,423.378 468,421.5C 468.499,417.514 468.666,413.514 468.5,409.5 Z"/></g>
</svg>
