<?xml version="1.0" encoding="UTF-8"?>
<!DOCTYPE svg PUBLIC "-//W3C//DTD SVG 1.1//EN" "http://www.w3.org/Graphics/SVG/1.1/DTD/svg11.dtd">
<svg xmlns="http://www.w3.org/2000/svg" version="1.1" width="512px" height="512px" style="shape-rendering:geometricPrecision; text-rendering:geometricPrecision; image-rendering:optimizeQuality; fill-rule:evenodd; clip-rule:evenodd" xmlns:xlink="http://www.w3.org/1999/xlink">
<g><path style="opacity:0.88" fill="#6864cc" d="M 508.5,90.5 C 339.833,91.8333 171.167,91.8333 2.5,90.5C 3.74894,88.8639 5.4156,87.6972 7.5,87C 172.833,86.3333 338.167,86.3333 503.5,87C 505.584,87.6972 507.251,88.8639 508.5,90.5 Z"/></g>
<g><path style="opacity:0.999" fill="#6b61cd" d="M 2.5,90.5 C 171.167,91.8333 339.833,91.8333 508.5,90.5C 509.5,91.8333 510.5,93.1667 511.5,94.5C 511.5,94.8333 511.5,95.1667 511.5,95.5C 340.833,95.5 170.167,95.5 -0.5,95.5C -0.5,94.8333 -0.5,94.1667 -0.5,93.5C 0.271873,92.3065 1.27187,91.3065 2.5,90.5 Z"/></g>
<g><path style="opacity:0.999" fill="#6f60cf" d="M -0.5,95.5 C 170.167,95.5 340.833,95.5 511.5,95.5C 511.5,96.5 511.5,97.5 511.5,98.5C 340.833,98.5 170.167,98.5 -0.5,98.5C -0.5,97.5 -0.5,96.5 -0.5,95.5 Z"/></g>
<g><path style="opacity:0.999" fill="#725ed0" d="M -0.5,98.5 C 170.167,98.5 340.833,98.5 511.5,98.5C 511.5,99.5 511.5,100.5 511.5,101.5C 340.833,101.5 170.167,101.5 -0.5,101.5C -0.5,100.5 -0.5,99.5 -0.5,98.5 Z"/></g>
<g><path style="opacity:0.998" fill="#745bd0" d="M -0.5,101.5 C 170.167,101.5 340.833,101.5 511.5,101.5C 511.5,102.167 511.5,102.833 511.5,103.5C 510.833,104.5 510.167,105.5 509.5,106.5C 340.069,105.168 170.736,105.168 1.5,106.5C 0.833333,105.833 0.166667,105.167 -0.5,104.5C -0.5,103.5 -0.5,102.5 -0.5,101.5 Z"/></g>
<g><path style="opacity:0.932" fill="#7959d2" d="M 509.5,106.5 C 508.106,108.708 506.106,110.208 503.5,111C 338.167,111.667 172.833,111.667 7.5,111C 4.77128,110.434 2.77128,108.934 1.5,106.5C 170.736,105.168 340.069,105.168 509.5,106.5 Z"/></g>
<g><path style="opacity:0.866" fill="#c426eb" d="M 509.5,195.5 C 340.167,195.5 170.833,195.5 1.5,195.5C 3.11975,193.016 5.45308,191.516 8.5,191C 173.167,190.333 337.833,190.333 502.5,191C 505.547,191.516 507.88,193.016 509.5,195.5 Z"/></g>
<g><path style="opacity:0.999" fill="#c824ec" d="M 1.5,195.5 C 170.833,195.5 340.167,195.5 509.5,195.5C 510.11,196.391 510.443,197.391 510.5,198.5C 425.667,199.167 340.667,199.5 255.5,199.5C 170.164,199.5 85.164,198.833 0.5,197.5C 0.32842,196.508 0.661754,195.842 1.5,195.5 Z"/></g>
<g><path style="opacity:1" fill="#cc21ee" d="M -0.5,197.5 C -0.166667,197.5 0.166667,197.5 0.5,197.5C 85.164,198.833 170.164,199.5 255.5,199.5C 340.667,199.5 425.667,199.167 510.5,198.5C 510.833,198.5 511.167,198.5 511.5,198.5C 511.5,200.5 511.5,202.5 511.5,204.5C 340.903,205.499 170.237,205.832 -0.5,205.5C -0.5,202.833 -0.5,200.167 -0.5,197.5 Z"/></g>
<g><path style="opacity:0.998" fill="#d21df0" d="M 511.5,204.5 C 511.5,205.5 511.5,206.5 511.5,207.5C 510.857,209.076 509.857,210.41 508.5,211.5C 339.528,211.497 170.862,211.497 2.5,211.5C 1.27187,210.694 0.271873,209.694 -0.5,208.5C -0.5,207.5 -0.5,206.5 -0.5,205.5C 170.237,205.832 340.903,205.499 511.5,204.5 Z"/></g>
<g><path style="opacity:0.915" fill="#d61bf1" d="M 508.5,211.5 C 507.547,213.61 505.881,214.777 503.5,215C 338.167,215.667 172.833,215.667 7.5,215C 5.11917,214.777 3.4525,213.61 2.5,211.5C 170.862,211.497 339.528,211.497 508.5,211.5 Z"/></g>
<g><path style="opacity:0.976" fill="#ff17c4" d="M 507.5,298.5 C 338.793,298.169 170.127,298.503 1.5,299.5C 2.74894,297.864 4.4156,296.697 6.5,296C 172.5,295.333 338.5,295.333 504.5,296C 505.942,296.377 506.942,297.21 507.5,298.5 Z"/></g>
<g><path style="opacity:0.999" fill="#ff19be" d="M 507.5,298.5 C 509.262,299.262 510.262,300.596 510.5,302.5C 340.5,302.5 170.5,302.5 0.5,302.5C 0.556884,301.391 0.890217,300.391 1.5,299.5C 170.127,298.503 338.793,298.169 507.5,298.5 Z"/></g>
<g><path style="opacity:0.999" fill="#ff1cb8" d="M -0.5,302.5 C -0.166667,302.5 0.166667,302.5 0.5,302.5C 170.5,302.5 340.5,302.5 510.5,302.5C 510.833,302.5 511.167,302.5 511.5,302.5C 511.5,303.5 511.5,304.5 511.5,305.5C 340.903,306.499 170.237,306.832 -0.5,306.5C -0.5,305.167 -0.5,303.833 -0.5,302.5 Z"/></g>
<g><path style="opacity:0.998" fill="#ff1eb2" d="M 511.5,305.5 C 511.5,307.5 511.5,309.5 511.5,311.5C 340.903,310.501 170.237,310.168 -0.5,310.5C -0.5,309.167 -0.5,307.833 -0.5,306.5C 170.237,306.832 340.903,306.499 511.5,305.5 Z"/></g>
<g><path style="opacity:0.998" fill="#ff20ab" d="M -0.5,310.5 C 170.237,310.168 340.903,310.501 511.5,311.5C 511.5,311.833 511.5,312.167 511.5,312.5C 510.728,313.694 509.728,314.694 508.5,315.5C 339.667,314.5 170.667,314.167 1.5,314.5C 0.833333,313.833 0.166667,313.167 -0.5,312.5C -0.5,311.833 -0.5,311.167 -0.5,310.5 Z"/></g>
<g><path style="opacity:0.998" fill="#ff23a6" d="M 1.5,314.5 C 170.667,314.167 339.667,314.5 508.5,315.5C 507.5,317.167 506.167,318.5 504.5,319.5C 338.334,318.5 172.001,318.167 5.5,318.5C 3.22729,318.043 1.89395,316.71 1.5,314.5 Z"/></g>
<g><path style="opacity:0.067" fill="#ff2aa4" d="M 5.5,318.5 C 172.001,318.167 338.334,318.5 504.5,319.5C 339.854,320.661 175.188,320.828 10.5,320C 8.61828,319.802 6.95161,319.302 5.5,318.5 Z"/></g>
<g><path style="opacity:0.996" fill="#ff5822" d="M 508.5,403.5 C 339.999,403.833 171.666,403.5 3.5,402.5C 4.347,401.034 5.68034,400.2 7.5,400C 172.833,399.333 338.167,399.333 503.5,400C 505.584,400.697 507.251,401.864 508.5,403.5 Z"/></g>
<g><path style="opacity:0.998" fill="#ff5a1b" d="M 3.5,402.5 C 171.666,403.5 339.999,403.833 508.5,403.5C 510.104,404.287 510.771,405.62 510.5,407.5C 340.334,408.5 170.001,408.833 -0.5,408.5C -0.5,407.833 -0.5,407.167 -0.5,406.5C 0.472504,404.861 1.80584,403.527 3.5,402.5 Z"/></g>
<g><path style="opacity:0.997" fill="#ff5d15" d="M 510.5,407.5 C 510.833,407.5 511.167,407.5 511.5,407.5C 511.5,408.833 511.5,410.167 511.5,411.5C 340.833,411.5 170.167,411.5 -0.5,411.5C -0.5,410.5 -0.5,409.5 -0.5,408.5C 170.001,408.833 340.334,408.5 510.5,407.5 Z"/></g>
<g><path style="opacity:0.999" fill="#ff5f10" d="M -0.5,411.5 C 170.167,411.5 340.833,411.5 511.5,411.5C 511.5,412.833 511.5,414.167 511.5,415.5C 340.833,415.5 170.167,415.5 -0.5,415.5C -0.5,414.167 -0.5,412.833 -0.5,411.5 Z"/></g>
<g><path style="opacity:0.998" fill="#ff620a" d="M -0.5,415.5 C 170.167,415.5 340.833,415.5 511.5,415.5C 511.5,415.833 511.5,416.167 511.5,416.5C 510.5,417.833 509.5,419.167 508.5,420.5C 339.667,419.5 170.667,419.167 1.5,419.5C 0.833333,418.833 0.166667,418.167 -0.5,417.5C -0.5,416.833 -0.5,416.167 -0.5,415.5 Z"/></g>
<g><path style="opacity:0.88" fill="#ff6403" d="M 1.5,419.5 C 170.667,419.167 339.667,419.5 508.5,420.5C 507.251,422.136 505.584,423.303 503.5,424C 338.167,424.667 172.833,424.667 7.5,424C 4.89361,423.208 2.89361,421.708 1.5,419.5 Z"/></g>
</svg>
