<?xml version="1.0" encoding="UTF-8"?>
<!DOCTYPE svg PUBLIC "-//W3C//DTD SVG 1.1//EN" "http://www.w3.org/Graphics/SVG/1.1/DTD/svg11.dtd">
<svg xmlns="http://www.w3.org/2000/svg" version="1.1" width="512px" height="512px" style="shape-rendering:geometricPrecision; text-rendering:geometricPrecision; image-rendering:optimizeQuality; fill-rule:evenodd; clip-rule:evenodd" xmlns:xlink="http://www.w3.org/1999/xlink">
<g><path style="opacity:0.985" fill="#d7dbe4" d="M 510.5,-0.5 C 510.833,-0.5 511.167,-0.5 511.5,-0.5C 511.5,0.833333 511.5,2.16667 511.5,3.5C 501.741,28.6849 489.574,52.6849 475,75.5C 432.918,138.933 386.252,198.933 335,255.5C 308.328,284.338 281.495,313.004 254.5,341.5C 232.767,337.471 214.433,327.471 199.5,311.5C 302.167,208.5 404.833,105.5 507.5,2.5C 508.833,1.83333 509.833,0.833333 510.5,-0.5 Z"/></g>
<g><path style="opacity:1" fill="#b4b9c1" d="M 507.5,-0.5 C 508.5,-0.5 509.5,-0.5 510.5,-0.5C 509.833,0.833333 508.833,1.83333 507.5,2.5C 496.802,8.35368 486.469,14.8537 476.5,22C 415.834,67.316 357.5,115.649 301.5,167C 260.329,205.339 219.329,243.839 178.5,282.5C 174.327,274.318 171.327,265.651 169.5,256.5C 197.996,229.505 226.662,202.672 255.5,176C 312.067,124.748 372.067,78.0817 435.5,36C 458.315,21.426 482.315,9.25931 507.5,-0.5 Z"/></g>
<g><path style="opacity:1" fill="#c2c7d0" d="M 507.5,2.5 C 404.833,105.5 302.167,208.5 199.5,311.5C 190.572,303.237 183.572,293.57 178.5,282.5C 219.329,243.839 260.329,205.339 301.5,167C 357.5,115.649 415.834,67.316 476.5,22C 486.469,14.8537 496.802,8.35368 507.5,2.5 Z"/></g>
<g><path style="opacity:1" fill="#f9b428" d="M 148.5,208.5 C 142.339,214.342 140.006,221.509 141.5,230C 144.523,289.304 172.189,332.637 224.5,360C 246.337,370.434 269.337,375.101 293.5,374C 296.978,372.76 300.311,371.26 303.5,369.5C 301.898,387.1 292.231,396.1 274.5,396.5C 242.516,395.842 213.183,386.842 186.5,369.5C 177.899,362.906 169.565,355.906 161.5,348.5C 154.427,340.767 147.76,332.767 141.5,324.5C 121.053,293.38 112.886,259.38 117,222.5C 124.056,210.2 134.556,205.533 148.5,208.5 Z"/></g>
<g><path style="opacity:0.988" fill="#fec750" d="M 148.5,208.5 C 158.723,211.892 164.89,218.892 167,229.5C 167.295,238.562 168.129,247.562 169.5,256.5C 171.327,265.651 174.327,274.318 178.5,282.5C 183.572,293.57 190.572,303.237 199.5,311.5C 214.433,327.471 232.767,337.471 254.5,341.5C 263.438,342.871 272.438,343.705 281.5,344C 295.095,347.095 302.428,355.595 303.5,369.5C 300.311,371.26 296.978,372.76 293.5,374C 269.337,375.101 246.337,370.434 224.5,360C 172.189,332.637 144.523,289.304 141.5,230C 140.006,221.509 142.339,214.342 148.5,208.5 Z"/></g>
<g><path style="opacity:0.97" fill="#ee801d" d="M 141.5,324.5 C 147.76,332.767 154.427,340.767 161.5,348.5C 133.5,376.833 105.5,405.167 77.5,433.5C 70.8313,427.665 63.1646,423.665 54.5,421.5C 51.9039,420.735 49.2372,420.401 46.5,420.5C 78.1667,388.5 109.833,356.5 141.5,324.5 Z"/></g>
<g><path style="opacity:0.97" fill="#fb922b" d="M 161.5,348.5 C 169.565,355.906 177.899,362.906 186.5,369.5C 154.5,401.167 122.5,432.833 90.5,464.5C 89.7247,452.623 85.3914,442.289 77.5,433.5C 105.5,405.167 133.5,376.833 161.5,348.5 Z"/></g>
<g><path style="opacity:0.999" fill="#5e6377" d="M 46.5,420.5 C 49.2372,420.401 51.9039,420.735 54.5,421.5C 25.0958,432.978 14.9291,453.978 24,484.5C 30.3916,497.734 40.5583,506.401 54.5,510.5C 54.5,510.833 54.5,511.167 54.5,511.5C 48.1667,511.5 41.8333,511.5 35.5,511.5C 23.7819,508.553 14.2819,502.22 7,492.5C 3.89416,486.968 1.39416,481.301 -0.5,475.5C -0.5,469.167 -0.5,462.833 -0.5,456.5C 6.28708,434.395 21.2871,422.062 44.5,419.5C 45.1835,419.863 45.8501,420.196 46.5,420.5 Z"/></g>
<g><path style="opacity:0.992" fill="#707386" d="M 54.5,421.5 C 63.1646,423.665 70.8313,427.665 77.5,433.5C 85.3914,442.289 89.7247,452.623 90.5,464.5C 90.8273,485.644 81.1606,500.477 61.5,509C 59.26,509.977 56.9267,510.477 54.5,510.5C 40.5583,506.401 30.3916,497.734 24,484.5C 14.9291,453.978 25.0958,432.978 54.5,421.5 Z"/></g>
</svg>
