<?xml version="1.0" encoding="UTF-8"?>
<!DOCTYPE svg PUBLIC "-//W3C//DTD SVG 1.1//EN" "http://www.w3.org/Graphics/SVG/1.1/DTD/svg11.dtd">
<svg xmlns="http://www.w3.org/2000/svg" version="1.1" width="512px" height="512px" style="shape-rendering:geometricPrecision; text-rendering:geometricPrecision; image-rendering:optimizeQuality; fill-rule:evenodd; clip-rule:evenodd" xmlns:xlink="http://www.w3.org/1999/xlink">
<g><path style="opacity:0.934" fill="#050505" d="M 213.5,-0.5 C 216.167,-0.5 218.833,-0.5 221.5,-0.5C 225.823,3.68396 226.657,8.68396 224,14.5C 223,16.1667 222,17.8333 221,19.5C 216.447,23.007 212.28,26.8403 208.5,31C 210.2,34.539 212.867,37.2057 216.5,39C 225.229,47.3403 226.729,56.8403 221,67.5C 217.278,71.725 213.112,75.3916 208.5,78.5C 207.188,86.8267 202.521,89.4934 194.5,86.5C 190.582,79.9487 191.082,73.6154 196,67.5C 198.743,65.2121 201.577,63.0455 204.5,61C 207.58,59.2894 208.746,56.7894 208,53.5C 203.648,50.1453 199.648,46.4786 196,42.5C 191.155,34.2824 191.489,26.2824 197,18.5C 200.086,14.7435 203.752,11.7435 208,9.5C 208.665,5.37802 210.499,2.04469 213.5,-0.5 Z"/></g>
<g><path style="opacity:0.93" fill="#050505" d="M 267.5,-0.5 C 270.5,-0.5 273.5,-0.5 276.5,-0.5C 280.771,3.78772 281.604,8.78772 279,14.5C 276.403,19.5525 272.57,23.3858 267.5,26C 264.42,27.7106 263.254,30.2106 264,33.5C 271.116,37.2834 276.116,42.9501 279,50.5C 280.085,62.7774 275.085,71.7774 264,77.5C 262.3,87.3499 256.967,90.0166 248,85.5C 245.568,78.9636 246.568,72.9636 251,67.5C 255.553,63.993 259.72,60.1597 263.5,56C 261.8,52.461 259.133,49.7943 255.5,48C 246.771,39.6597 245.271,30.1597 251,19.5C 254.722,15.275 258.888,11.6084 263.5,8.5C 264.087,5.12038 265.421,2.12038 267.5,-0.5 Z"/></g>
<g><path style="opacity:0.98" fill="#070706" d="M 396.5,511.5 C 291.833,511.5 187.167,511.5 82.5,511.5C 58.3907,504.897 42.0573,489.73 33.5,466C 33.9031,463.113 35.2365,460.779 37.5,459C 68.1721,458.833 98.8388,458.333 129.5,457.5C 125.853,452.061 123.686,446.061 123,439.5C 120.24,414.991 117.406,390.491 114.5,366C 114.457,361.21 116.79,358.377 121.5,357.5C 125.224,358.122 128.057,360.122 130,363.5C 132.94,389.507 135.94,415.507 139,441.5C 141.833,449.667 147.333,455.167 155.5,458C 203.499,458.5 251.499,458.667 299.5,458.5C 307.507,458.666 315.507,458.5 323.5,458C 332.667,455.5 338.5,449.667 341,440.5C 346.523,389.732 352.523,339.065 359,288.5C 361.653,285.806 364.82,284.973 368.5,286C 381.91,295.081 396.577,297.747 412.5,294C 437.667,287.5 453.5,271.667 460,246.5C 465.288,213.24 452.788,189.406 422.5,175C 408.486,169.738 394.32,169.238 380,173.5C 374.809,172.805 372.309,169.805 372.5,164.5C 374.127,152.191 375.46,139.858 376.5,127.5C 377.404,126.791 377.737,125.791 377.5,124.5C 285.833,124.5 194.167,124.5 102.5,124.5C 102.216,126.415 102.549,128.081 103.5,129.5C 110.321,193.555 117.654,257.555 125.5,321.5C 125.277,326.054 122.944,328.721 118.5,329.5C 114.192,330.265 111.358,328.598 110,324.5C 101.524,254.553 93.8577,184.553 87,114.5C 87.4652,113.069 88.2986,111.903 89.5,111C 188.752,109.338 288.086,109.005 387.5,110C 391.846,111.299 393.846,114.299 393.5,119C 391.837,131.137 390.503,143.304 389.5,155.5C 431.143,153.39 459.309,171.724 474,210.5C 482.944,248.349 471.444,278.182 439.5,300C 417.754,311.429 395.087,313.596 371.5,306.5C 366.81,352.545 361.643,398.545 356,444.5C 354.768,449.463 352.602,453.963 349.5,458C 380.5,458.333 411.5,458.667 442.5,459C 445.318,462.338 446.151,466.171 445,470.5C 439.319,481.682 431.819,491.515 422.5,500C 414.396,505.305 405.73,509.138 396.5,511.5 Z M 398.5,198.5 C 419.613,200.446 431.28,211.946 433.5,233C 431.422,253.578 420.088,265.078 399.5,267.5C 391.703,266.792 384.703,264.125 378.5,259.5C 378.167,258.5 377.833,257.5 377.5,256.5C 379.542,238.449 381.876,220.449 384.5,202.5C 389.123,200.524 393.79,199.191 398.5,198.5 Z"/></g>
<g><path style="opacity:1" fill="#767366" d="M 376.5,127.5 C 366.219,125.524 355.552,124.857 344.5,125.5C 264.167,125.5 183.833,125.5 103.5,125.5C 103.5,126.833 103.5,128.167 103.5,129.5C 102.549,128.081 102.216,126.415 102.5,124.5C 194.167,124.5 285.833,124.5 377.5,124.5C 377.737,125.791 377.404,126.791 376.5,127.5 Z"/></g>
<g><path style="opacity:1" fill="#f7f0d6" d="M 344.5,125.5 C 342.24,147.175 339.906,168.842 337.5,190.5C 331.491,190.334 325.491,190.501 319.5,191C 317.077,192.571 315.744,194.737 315.5,197.5C 305.652,199.149 295.985,198.816 286.5,196.5C 285.746,193.909 284.079,192.076 281.5,191C 230.5,190.333 179.5,190.333 128.5,191C 124.278,192.56 122.611,195.56 123.5,200C 132.301,280.628 141.801,361.128 152,441.5C 153.558,443.359 155.391,444.859 157.5,446C 207.166,446.5 256.832,446.667 306.5,446.5C 304.992,451.002 302.659,455.002 299.5,458.5C 251.499,458.667 203.499,458.5 155.5,458C 147.333,455.167 141.833,449.667 139,441.5C 135.94,415.507 132.94,389.507 130,363.5C 128.057,360.122 125.224,358.122 121.5,357.5C 119.916,348.247 118.916,338.913 118.5,329.5C 122.944,328.721 125.277,326.054 125.5,321.5C 117.654,257.555 110.321,193.555 103.5,129.5C 103.5,128.167 103.5,126.833 103.5,125.5C 183.833,125.5 264.167,125.5 344.5,125.5 Z"/></g>
<g><path style="opacity:1" fill="#ede5c7" d="M 344.5,125.5 C 355.552,124.857 366.219,125.524 376.5,127.5C 375.46,139.858 374.127,152.191 372.5,164.5C 372.309,169.805 374.809,172.805 380,173.5C 394.32,169.238 408.486,169.738 422.5,175C 452.788,189.406 465.288,213.24 460,246.5C 453.5,271.667 437.667,287.5 412.5,294C 396.577,297.747 381.91,295.081 368.5,286C 364.82,284.973 361.653,285.806 359,288.5C 352.523,339.065 346.523,389.732 341,440.5C 338.5,449.667 332.667,455.5 323.5,458C 315.507,458.5 307.507,458.666 299.5,458.5C 302.659,455.002 304.992,451.002 306.5,446.5C 313.061,447.081 319.395,446.248 325.5,444C 328.722,440.489 330.222,436.322 330,431.5C 338.248,353.934 347.081,276.434 356.5,199C 356.592,196.186 355.592,193.853 353.5,192C 348.264,190.661 342.93,190.161 337.5,190.5C 339.906,168.842 342.24,147.175 344.5,125.5 Z M 398.5,198.5 C 393.79,199.191 389.123,200.524 384.5,202.5C 381.876,220.449 379.542,238.449 377.5,256.5C 377.833,257.5 378.167,258.5 378.5,259.5C 384.703,264.125 391.703,266.792 399.5,267.5C 420.088,265.078 431.422,253.578 433.5,233C 431.28,211.946 419.613,200.446 398.5,198.5 Z"/></g>
<g><path style="opacity:0.979" fill="#090908" d="M 390.5,183.5 C 420.032,181.498 439.198,194.498 448,222.5C 450.909,258.917 434.242,278.917 398,282.5C 383.254,281.817 371.254,275.817 362,264.5C 363.889,241.493 366.223,218.493 369,195.5C 370.167,193 372,191.167 374.5,190C 379.819,187.497 385.152,185.331 390.5,183.5 Z M 398.5,198.5 C 393.79,199.191 389.123,200.524 384.5,202.5C 381.876,220.449 379.542,238.449 377.5,256.5C 377.833,257.5 378.167,258.5 378.5,259.5C 384.703,264.125 391.703,266.792 399.5,267.5C 420.088,265.078 431.422,253.578 433.5,233C 431.28,211.946 419.613,200.446 398.5,198.5 Z"/></g>
<g><path style="opacity:1" fill="#0b0a09" d="M 286.5,196.5 C 287.155,200.355 285.821,203.188 282.5,205C 234.834,205.5 187.168,205.667 139.5,205.5C 141.047,221.515 142.713,237.515 144.5,253.5C 208.167,253.5 271.833,253.5 335.5,253.5C 337.021,237.481 338.687,221.481 340.5,205.5C 333.492,205.666 326.492,205.5 319.5,205C 316.479,203.461 315.146,200.961 315.5,197.5C 315.744,194.737 317.077,192.571 319.5,191C 325.491,190.501 331.491,190.334 337.5,190.5C 342.93,190.161 348.264,190.661 353.5,192C 355.592,193.853 356.592,196.186 356.5,199C 347.081,276.434 338.248,353.934 330,431.5C 330.222,436.322 328.722,440.489 325.5,444C 319.395,446.248 313.061,447.081 306.5,446.5C 256.832,446.667 207.166,446.5 157.5,446C 155.391,444.859 153.558,443.359 152,441.5C 141.801,361.128 132.301,280.628 123.5,200C 122.611,195.56 124.278,192.56 128.5,191C 179.5,190.333 230.5,190.333 281.5,191C 284.079,192.076 285.746,193.909 286.5,196.5 Z"/></g>
<g><path style="opacity:1" fill="#efa97c" d="M 286.5,196.5 C 295.985,198.816 305.652,199.149 315.5,197.5C 315.146,200.961 316.479,203.461 319.5,205C 326.492,205.5 333.492,205.666 340.5,205.5C 338.687,221.481 337.021,237.481 335.5,253.5C 271.833,253.5 208.167,253.5 144.5,253.5C 142.713,237.515 141.047,221.515 139.5,205.5C 187.168,205.667 234.834,205.5 282.5,205C 285.821,203.188 287.155,200.355 286.5,196.5 Z"/></g>
<g><path style="opacity:1" fill="#5e3012" d="M 146.5,269.5 C 208.664,268.501 270.998,268.168 333.5,268.5C 333.784,270.415 333.451,272.081 332.5,273.5C 332.5,272.167 332.5,270.833 332.5,269.5C 270.5,269.5 208.5,269.5 146.5,269.5 Z"/></g>
<g><path style="opacity:1" fill="#9a4e1c" d="M 146.5,269.5 C 208.5,269.5 270.5,269.5 332.5,269.5C 332.5,270.833 332.5,272.167 332.5,273.5C 326.907,325.174 321.24,376.841 315.5,428.5C 290.548,429.824 265.381,430.491 240,430.5C 214.619,430.491 189.452,429.824 164.5,428.5C 158.5,375.5 152.5,322.5 146.5,269.5 Z"/></g>
<g><path style="opacity:1" fill="#7b3f17" d="M 164.5,428.5 C 189.452,429.824 214.619,430.491 240,430.5C 265.381,430.491 290.548,429.824 315.5,428.5C 315.5,429.5 315.5,430.5 315.5,431.5C 265.167,431.5 214.833,431.5 164.5,431.5C 164.5,430.5 164.5,429.5 164.5,428.5 Z"/></g>
<g><path style="opacity:1" fill="#f1e9ca" d="M 393.5,473.5 C 388.445,482.638 381.779,490.305 373.5,496.5C 277.499,496.667 181.499,496.5 85.5,496C 72.5042,493.003 62.5042,485.836 55.5,474.5C 168.165,473.5 280.831,473.167 393.5,473.5 Z"/></g>
<g><path style="opacity:1" fill="#e8ddb7" d="M 393.5,473.5 C 403.839,473.334 414.172,473.5 424.5,474C 412.435,492.204 395.435,499.704 373.5,496.5C 381.779,490.305 388.445,482.638 393.5,473.5 Z"/></g>
</svg>
