<?xml version="1.0" encoding="UTF-8"?>
<!DOCTYPE svg PUBLIC "-//W3C//DTD SVG 1.1//EN" "http://www.w3.org/Graphics/SVG/1.1/DTD/svg11.dtd">
<svg xmlns="http://www.w3.org/2000/svg" version="1.1" width="512px" height="512px" style="shape-rendering:geometricPrecision; text-rendering:geometricPrecision; image-rendering:optimizeQuality; fill-rule:evenodd; clip-rule:evenodd" xmlns:xlink="http://www.w3.org/1999/xlink">
<g><path style="opacity:0.992" fill="#008a45" d="M 349.5,157.5 C 341.112,166.361 330.779,171.527 318.5,173C 311.508,173.5 304.508,173.666 297.5,173.5C 288.624,146.065 293.291,121.399 311.5,99.5C 332.327,82.5577 356.327,74.5577 383.5,75.5C 393.281,75.5114 402.948,76.5114 412.5,78.5C 395.623,87.5427 382.123,100.209 372,116.5C 366.333,127.833 360.667,139.167 355,150.5C 353.303,153.02 351.47,155.353 349.5,157.5 Z"/></g>
<g><path style="opacity:0.982" fill="#5fbb55" d="M 311.5,99.5 C 293.291,121.399 288.624,146.065 297.5,173.5C 304.508,173.666 311.508,173.5 318.5,173C 330.779,171.527 341.112,166.361 349.5,157.5C 349.5,196.167 349.5,234.833 349.5,273.5C 342.355,242.049 325.022,217.883 297.5,201C 287.354,195.26 277.02,190.093 266.5,185.5C 266.5,156.833 266.5,128.167 266.5,99.5C 281.5,99.5 296.5,99.5 311.5,99.5 Z"/></g>
<g><path style="opacity:1" fill="#006737" d="M 206.5,171.5 C 226.948,173.275 246.948,177.942 266.5,185.5C 277.02,190.093 287.354,195.26 297.5,201C 325.022,217.883 342.355,242.049 349.5,273.5C 352.532,296.116 351.198,318.449 345.5,340.5C 345.167,340.5 344.833,340.5 344.5,340.5C 330.654,307.794 312.487,277.794 290,250.5C 265.457,220.451 237.624,194.117 206.5,171.5 Z"/></g>
<g><path style="opacity:0.995" fill="#008a44" d="M 206.5,171.5 C 237.624,194.117 265.457,220.451 290,250.5C 312.487,277.794 330.654,307.794 344.5,340.5C 320.971,342.378 297.971,339.878 275.5,333C 270.834,331.334 266.501,329.167 262.5,326.5C 250.97,316.454 243.803,303.788 241,288.5C 237.222,265.387 232.889,242.387 228,219.5C 223.26,202.358 216.094,186.358 206.5,171.5 Z"/></g>
<g><path style="opacity:0.991" fill="#5fbb55" d="M 262.5,326.5 C 266.501,329.167 270.834,331.334 275.5,333C 297.971,339.878 320.971,342.378 344.5,340.5C 344.833,340.5 345.167,340.5 345.5,340.5C 330.494,392.338 296.494,423.504 243.5,434C 193.421,439.763 152.921,422.929 122,383.5C 103.217,355.036 95.3839,323.703 98.5,289.5C 126.167,289.5 153.833,289.5 181.5,289.5C 181.334,297.84 181.5,306.173 182,314.5C 186.499,337.666 200.499,350.333 224,352.5C 242.136,351.509 254.969,342.842 262.5,326.5 Z"/></g>
</svg>
