<?xml version="1.0" encoding="UTF-8"?>
<!DOCTYPE svg PUBLIC "-//W3C//DTD SVG 1.1//EN" "http://www.w3.org/Graphics/SVG/1.1/DTD/svg11.dtd">
<svg xmlns="http://www.w3.org/2000/svg" version="1.1" width="512px" height="512px" style="shape-rendering:geometricPrecision; text-rendering:geometricPrecision; image-rendering:optimizeQuality; fill-rule:evenodd; clip-rule:evenodd" xmlns:xlink="http://www.w3.org/1999/xlink">
<g><path style="opacity:0.988" fill="#000000" d="M 19.5,-0.5 C 54.5,-0.5 89.5,-0.5 124.5,-0.5C 134.149,2.98314 140.649,9.64981 144,19.5C 144.667,54.5 144.667,89.5 144,124.5C 140.833,134.333 134.333,140.833 124.5,144C 89.5,144.667 54.5,144.667 19.5,144C 9.64981,140.649 2.98314,134.149 -0.5,124.5C -0.5,89.5 -0.5,54.5 -0.5,19.5C 3.16667,9.83333 9.83333,3.16667 19.5,-0.5 Z M 44.5,44.5 C 62.8333,44.5 81.1667,44.5 99.5,44.5C 99.5,62.8333 99.5,81.1667 99.5,99.5C 81.1667,99.5 62.8333,99.5 44.5,99.5C 44.5,81.1667 44.5,62.8333 44.5,44.5 Z"/></g>
<g><path style="opacity:0.992" fill="#000000" d="M 199.5,-0.5 C 296.833,-0.5 394.167,-0.5 491.5,-0.5C 501.167,3.16667 507.833,9.83333 511.5,19.5C 511.5,54.5 511.5,89.5 511.5,124.5C 508.017,134.149 501.35,140.649 491.5,144C 464.5,144.667 437.5,144.667 410.5,144C 408.334,142.322 407.001,140.155 406.5,137.5C 407.053,134.413 408.72,131.913 411.5,130C 436.833,129.667 462.167,129.333 487.5,129C 492.099,127.402 494.932,124.235 496,119.5C 496.667,87.5 496.667,55.5 496,23.5C 494.402,18.9014 491.235,16.0681 486.5,15C 401.501,14.5 316.501,14.3333 231.5,14.5C 222.161,14.3335 212.827,14.5002 203.5,15C 199.333,16.5 196.5,19.3333 195,23.5C 194.333,55.5 194.333,87.5 195,119.5C 196.068,124.235 198.901,127.402 203.5,129C 212.827,129.5 222.161,129.666 231.5,129.5C 284.168,129.333 336.834,129.5 389.5,130C 392.789,131.41 394.456,133.91 394.5,137.5C 394.556,140.561 393.222,142.728 390.5,144C 326.833,144.667 263.167,144.667 199.5,144C 189.667,140.833 183.167,134.333 180,124.5C 179.333,89.5 179.333,54.5 180,19.5C 183.351,9.64981 189.851,2.98314 199.5,-0.5 Z"/></g>
<g><path style="opacity:1" fill="#b4eefe" d="M 23.5,14.5 C 55.5017,14.3334 87.5017,14.5 119.5,15C 124.235,16.0681 127.402,18.9014 129,23.5C 129.667,55.5 129.667,87.5 129,119.5C 127.932,124.235 125.099,127.402 120.5,129C 88.1667,129.667 55.8333,129.667 23.5,129C 18.9014,127.402 16.0681,124.235 15,119.5C 14.3333,87.1667 14.3333,54.8333 15,22.5C 17.0738,18.9231 19.9072,16.2565 23.5,14.5 Z M 44.5,44.5 C 44.5,62.8333 44.5,81.1667 44.5,99.5C 62.8333,99.5 81.1667,99.5 99.5,99.5C 99.5,81.1667 99.5,62.8333 99.5,44.5C 81.1667,44.5 62.8333,44.5 44.5,44.5 Z"/></g>
<g><path style="opacity:1" fill="#a2d4fe" d="M 231.5,14.5 C 230.093,16.3083 228.926,18.3083 228,20.5C 227.5,27.1583 227.334,33.825 227.5,40.5C 223.5,44.8333 223.5,49.1667 227.5,53.5C 227.5,65.8333 227.5,78.1667 227.5,90.5C 223.5,94.8333 223.5,99.1667 227.5,103.5C 227.334,110.175 227.5,116.842 228,123.5C 228.926,125.692 230.093,127.692 231.5,129.5C 222.161,129.666 212.827,129.5 203.5,129C 198.901,127.402 196.068,124.235 195,119.5C 194.333,87.5 194.333,55.5 195,23.5C 196.5,19.3333 199.333,16.5 203.5,15C 212.827,14.5002 222.161,14.3335 231.5,14.5 Z"/></g>
<g><path style="opacity:1" fill="#b4eefe" d="M 231.5,14.5 C 316.501,14.3333 401.501,14.5 486.5,15C 491.235,16.0681 494.402,18.9014 496,23.5C 496.667,55.5 496.667,87.5 496,119.5C 494.932,124.235 492.099,127.402 487.5,129C 462.167,129.333 436.833,129.667 411.5,130C 408.72,131.913 407.053,134.413 406.5,137.5C 402.5,137.5 398.5,137.5 394.5,137.5C 394.456,133.91 392.789,131.41 389.5,130C 336.834,129.5 284.168,129.333 231.5,129.5C 230.093,127.692 228.926,125.692 228,123.5C 227.5,116.842 227.334,110.175 227.5,103.5C 267.459,104.655 307.459,104.822 347.5,104C 352.415,101.558 353.749,97.7244 351.5,92.5C 350.335,91.4164 349.002,90.5831 347.5,90C 307.459,89.1785 267.459,89.3451 227.5,90.5C 227.5,78.1667 227.5,65.8333 227.5,53.5C 305.126,54.6606 382.793,54.8273 460.5,54C 466.292,51.9096 467.792,48.0763 465,42.5C 463.829,41.1068 462.329,40.2735 460.5,40C 382.793,39.1727 305.126,39.3394 227.5,40.5C 227.334,33.825 227.5,27.1583 228,20.5C 228.926,18.3083 230.093,16.3083 231.5,14.5 Z"/></g>
<g><path style="opacity:1" fill="#000000" d="M 34.5,29.5 C 59.5022,29.3334 84.5022,29.5 109.5,30C 110.931,30.4652 112.097,31.2986 113,32.5C 114.648,58.0795 114.981,83.7461 114,109.5C 113.535,110.931 112.701,112.097 111.5,113C 85.9205,114.648 60.2539,114.981 34.5,114C 33.0692,113.535 31.9025,112.701 31,111.5C 29.3523,85.9205 29.019,60.2539 30,34.5C 31.025,32.313 32.525,30.6464 34.5,29.5 Z M 44.5,44.5 C 44.5,62.8333 44.5,81.1667 44.5,99.5C 62.8333,99.5 81.1667,99.5 99.5,99.5C 99.5,81.1667 99.5,62.8333 99.5,44.5C 81.1667,44.5 62.8333,44.5 44.5,44.5 Z"/></g>
<g><path style="opacity:1" fill="#000000" d="M 227.5,53.5 C 223.5,49.1667 223.5,44.8333 227.5,40.5C 305.126,39.3394 382.793,39.1727 460.5,40C 462.329,40.2735 463.829,41.1068 465,42.5C 467.792,48.0763 466.292,51.9096 460.5,54C 382.793,54.8273 305.126,54.6606 227.5,53.5 Z"/></g>
<g><path style="opacity:1" fill="#000101" d="M 227.5,103.5 C 223.5,99.1667 223.5,94.8333 227.5,90.5C 267.459,89.3451 307.459,89.1785 347.5,90C 349.002,90.5831 350.335,91.4164 351.5,92.5C 353.749,97.7244 352.415,101.558 347.5,104C 307.459,104.822 267.459,104.655 227.5,103.5 Z"/></g>
<g><path style="opacity:0.973" fill="#020101" d="M -0.5,308.5 C -0.5,273.167 -0.5,237.833 -0.5,202.5C 3.16655,192.007 10.4999,185.507 21.5,183C 56.5472,182.027 91.5472,182.36 126.5,184C 135.427,187.26 141.261,193.427 144,202.5C 144.667,237.833 144.667,273.167 144,308.5C 141.261,317.573 135.427,323.74 126.5,327C 91.5472,328.64 56.5472,328.973 21.5,328C 10.4999,325.493 3.16655,318.993 -0.5,308.5 Z M 44.5,228.5 C 62.8333,228.5 81.1667,228.5 99.5,228.5C 99.5,246.5 99.5,264.5 99.5,282.5C 81.1667,282.5 62.8333,282.5 44.5,282.5C 44.5,264.5 44.5,246.5 44.5,228.5 Z"/></g>
<g><path style="opacity:0.97" fill="#040202" d="M 511.5,202.5 C 511.5,237.833 511.5,273.167 511.5,308.5C 507.833,318.993 500.5,325.493 489.5,328C 393.5,328.667 297.5,328.667 201.5,328C 190.517,325.683 183.351,319.183 180,308.5C 179.333,273.167 179.333,237.833 180,202.5C 183.351,191.817 190.517,185.317 201.5,183C 297.5,182.333 393.5,182.333 489.5,183C 500.5,185.507 507.833,192.007 511.5,202.5 Z"/></g>
<g><path style="opacity:1" fill="#f99292" d="M 21.5,198.5 C 54.835,198.333 88.1683,198.5 121.5,199C 125.219,200.263 127.719,202.763 129,206.5C 129.667,239.167 129.667,271.833 129,304.5C 127.412,309.052 124.245,311.885 119.5,313C 87.8333,313.667 56.1667,313.667 24.5,313C 19.7938,311.895 16.6271,309.062 15,304.5C 14.3333,271.833 14.3333,239.167 15,206.5C 16.4785,203.172 18.6452,200.506 21.5,198.5 Z M 44.5,228.5 C 44.5,246.5 44.5,264.5 44.5,282.5C 62.8333,282.5 81.1667,282.5 99.5,282.5C 99.5,264.5 99.5,246.5 99.5,228.5C 81.1667,228.5 62.8333,228.5 44.5,228.5 Z"/></g>
<g><path style="opacity:1" fill="#fe73a4" d="M 230.5,198.5 C 229.68,200.14 228.847,201.807 228,203.5C 227.5,210.492 227.334,217.492 227.5,224.5C 223.607,228.423 223.607,232.423 227.5,236.5C 227.5,249.167 227.5,261.833 227.5,274.5C 223.607,278.423 223.607,282.423 227.5,286.5C 227.334,293.508 227.5,300.508 228,307.5C 228.635,308.966 229.469,310.3 230.5,311.5C 221.859,312.498 213.192,312.831 204.5,312.5C 199.713,311.844 196.546,309.178 195,304.5C 194.333,271.833 194.333,239.167 195,206.5C 196.36,203.265 198.527,200.765 201.5,199C 211.161,198.5 220.828,198.334 230.5,198.5 Z"/></g>
<g><path style="opacity:1" fill="#f99393" d="M 230.5,198.5 C 316.501,198.333 402.501,198.5 488.5,199C 492.219,200.263 494.719,202.763 496,206.5C 496.667,239.167 496.667,271.833 496,304.5C 494.412,309.052 491.245,311.885 486.5,313C 392.332,313.832 298.332,313.666 204.5,312.5C 213.192,312.831 221.859,312.498 230.5,311.5C 229.469,310.3 228.635,308.966 228,307.5C 227.5,300.508 227.334,293.508 227.5,286.5C 268.096,287.66 308.762,287.827 349.5,287C 353.5,282.667 353.5,278.333 349.5,274C 308.762,273.173 268.096,273.34 227.5,274.5C 227.5,261.833 227.5,249.167 227.5,236.5C 305.763,237.663 384.097,237.83 462.5,237C 467.726,232.585 467.726,228.251 462.5,224C 384.097,223.17 305.763,223.337 227.5,224.5C 227.334,217.492 227.5,210.492 228,203.5C 228.847,201.807 229.68,200.14 230.5,198.5 Z"/></g>
<g><path style="opacity:0.987" fill="#000000" d="M 33.5,213.5 C 59.1688,213.333 84.8355,213.5 110.5,214C 112,214.833 113.167,216 114,217.5C 114.667,242.5 114.667,267.5 114,292.5C 113.417,294.002 112.584,295.335 111.5,296.5C 85.5425,297.657 59.5425,297.824 33.5,297C 31.741,295.992 30.5743,294.492 30,292.5C 29.3333,267.5 29.3333,242.5 30,217.5C 31.0319,215.973 32.1986,214.64 33.5,213.5 Z M 44.5,228.5 C 44.5,246.5 44.5,264.5 44.5,282.5C 62.8333,282.5 81.1667,282.5 99.5,282.5C 99.5,264.5 99.5,246.5 99.5,228.5C 81.1667,228.5 62.8333,228.5 44.5,228.5 Z"/></g>
<g><path style="opacity:1" fill="#000000" d="M 227.5,236.5 C 223.607,232.423 223.607,228.423 227.5,224.5C 305.763,223.337 384.097,223.17 462.5,224C 467.726,228.251 467.726,232.585 462.5,237C 384.097,237.83 305.763,237.663 227.5,236.5 Z"/></g>
<g><path style="opacity:1" fill="#010000" d="M 227.5,286.5 C 223.607,282.423 223.607,278.423 227.5,274.5C 268.096,273.34 308.762,273.173 349.5,274C 353.5,278.333 353.5,282.667 349.5,287C 308.762,287.827 268.096,287.66 227.5,286.5 Z"/></g>
<g><path style="opacity:0.986" fill="#000000" d="M 86.5,373.5 C 86.3748,377.063 84.7081,379.563 81.5,381C 61.8333,381.333 42.1667,381.667 22.5,382C 19.3333,383.833 16.8333,386.333 15,389.5C 14.3333,421.833 14.3333,454.167 15,486.5C 16.0095,490.843 18.5095,494.01 22.5,496C 54.8333,496.667 87.1667,496.667 119.5,496C 124.667,494.833 127.833,491.667 129,486.5C 129.667,454.167 129.667,421.833 129,389.5C 127.108,385.942 124.275,383.442 120.5,382C 114.39,381.912 108.39,381.245 102.5,380C 100.549,378.266 99.5494,376.099 99.5,373.5C 99.0807,370.675 100.081,368.509 102.5,367C 109.833,366.333 117.167,366.333 124.5,367C 134.333,370.167 140.833,376.667 144,386.5C 144.667,421.5 144.667,456.5 144,491.5C 140.649,501.35 134.149,508.017 124.5,511.5C 89.5,511.5 54.5,511.5 19.5,511.5C 9.83333,507.833 3.16667,501.167 -0.5,491.5C -0.5,456.5 -0.5,421.5 -0.5,386.5C 2.98314,376.851 9.64981,370.351 19.5,367C 40.8333,366.333 62.1667,366.333 83.5,367C 85.9193,368.509 86.9193,370.675 86.5,373.5 Z M 44.5,411.5 C 62.8333,411.5 81.1667,411.5 99.5,411.5C 99.5,429.833 99.5,448.167 99.5,466.5C 81.1667,466.5 62.8333,466.5 44.5,466.5C 44.5,448.167 44.5,429.833 44.5,411.5 Z"/></g>
<g><path style="opacity:0.993" fill="#000000" d="M 511.5,386.5 C 511.5,421.5 511.5,456.5 511.5,491.5C 507.833,501.167 501.167,507.833 491.5,511.5C 394.167,511.5 296.833,511.5 199.5,511.5C 189.851,508.017 183.351,501.35 180,491.5C 179.333,456.5 179.333,421.5 180,386.5C 182.678,377.822 188.178,371.655 196.5,368C 294.777,366.34 393.11,366.007 491.5,367C 501.35,370.351 508.017,376.851 511.5,386.5 Z"/></g>
<g><path style="opacity:0.999" fill="#c1f992" d="M 86.5,373.5 C 90.8333,373.5 95.1667,373.5 99.5,373.5C 99.5494,376.099 100.549,378.266 102.5,380C 108.39,381.245 114.39,381.912 120.5,382C 124.275,383.442 127.108,385.942 129,389.5C 129.667,421.833 129.667,454.167 129,486.5C 127.833,491.667 124.667,494.833 119.5,496C 87.1667,496.667 54.8333,496.667 22.5,496C 18.5095,494.01 16.0095,490.843 15,486.5C 14.3333,454.167 14.3333,421.833 15,389.5C 16.8333,386.333 19.3333,383.833 22.5,382C 42.1667,381.667 61.8333,381.333 81.5,381C 84.7081,379.563 86.3748,377.063 86.5,373.5 Z M 44.5,411.5 C 44.5,429.833 44.5,448.167 44.5,466.5C 62.8333,466.5 81.1667,466.5 99.5,466.5C 99.5,448.167 99.5,429.833 99.5,411.5C 81.1667,411.5 62.8333,411.5 44.5,411.5 Z"/></g>
<g><path style="opacity:1" fill="#95e7c7" d="M 231.5,381.5 C 230.093,383.308 228.926,385.308 228,387.5C 227.5,394.158 227.334,400.825 227.5,407.5C 224.018,411.24 223.685,415.24 226.5,419.5C 226.5,432.5 226.5,445.5 226.5,458.5C 223.685,462.76 224.018,466.76 227.5,470.5C 227.334,476.842 227.5,483.175 228,489.5C 228.653,492.139 229.82,494.473 231.5,496.5C 222.161,496.666 212.827,496.5 203.5,496C 198.901,494.402 196.068,491.235 195,486.5C 194.333,454.167 194.333,421.833 195,389.5C 196.892,385.942 199.725,383.442 203.5,382C 212.827,381.5 222.161,381.334 231.5,381.5 Z"/></g>
<g><path style="opacity:1" fill="#c1f992" d="M 231.5,381.5 C 316.834,381.333 402.167,381.5 487.5,382C 491.275,383.442 494.108,385.942 496,389.5C 496.667,421.833 496.667,454.167 496,486.5C 494.833,491.667 491.667,494.833 486.5,496C 401.501,496.5 316.501,496.667 231.5,496.5C 229.82,494.473 228.653,492.139 228,489.5C 227.5,483.175 227.334,476.842 227.5,470.5C 267.459,471.655 307.459,471.822 347.5,471C 352.416,468.511 353.749,464.677 351.5,459.5C 350.335,458.416 349.002,457.583 347.5,457C 308.167,456.333 268.833,456.333 229.5,457C 228.473,457.513 227.473,458.013 226.5,458.5C 226.5,445.5 226.5,432.5 226.5,419.5C 227.473,419.987 228.473,420.487 229.5,421C 306.5,421.667 383.5,421.667 460.5,421C 466.292,418.91 467.792,415.076 465,409.5C 463.829,408.107 462.329,407.273 460.5,407C 382.793,406.173 305.126,406.339 227.5,407.5C 227.334,400.825 227.5,394.158 228,387.5C 228.926,385.308 230.093,383.308 231.5,381.5 Z"/></g>
<g><path style="opacity:1" fill="#000000" d="M 34.5,396.5 C 59.5022,396.333 84.5022,396.5 109.5,397C 110.931,397.465 112.097,398.299 113,399.5C 114.647,424.746 114.981,450.079 114,475.5C 113.727,477.329 112.893,478.829 111.5,480C 85.9205,481.648 60.2539,481.981 34.5,481C 33.0692,480.535 31.9025,479.701 31,478.5C 29.3523,452.921 29.019,427.254 30,401.5C 31.025,399.313 32.525,397.646 34.5,396.5 Z M 44.5,411.5 C 44.5,429.833 44.5,448.167 44.5,466.5C 62.8333,466.5 81.1667,466.5 99.5,466.5C 99.5,448.167 99.5,429.833 99.5,411.5C 81.1667,411.5 62.8333,411.5 44.5,411.5 Z"/></g>
<g><path style="opacity:1" fill="#000000" d="M 226.5,419.5 C 223.685,415.24 224.018,411.24 227.5,407.5C 305.126,406.339 382.793,406.173 460.5,407C 462.329,407.273 463.829,408.107 465,409.5C 467.792,415.076 466.292,418.91 460.5,421C 383.5,421.667 306.5,421.667 229.5,421C 228.473,420.487 227.473,419.987 226.5,419.5 Z"/></g>
<g><path style="opacity:1" fill="#000100" d="M 227.5,470.5 C 224.018,466.76 223.685,462.76 226.5,458.5C 227.473,458.013 228.473,457.513 229.5,457C 268.833,456.333 308.167,456.333 347.5,457C 349.002,457.583 350.335,458.416 351.5,459.5C 353.749,464.677 352.416,468.511 347.5,471C 307.459,471.822 267.459,471.655 227.5,470.5 Z"/></g>
</svg>
