<?xml version="1.0" encoding="UTF-8"?>
<!DOCTYPE svg PUBLIC "-//W3C//DTD SVG 1.1//EN" "http://www.w3.org/Graphics/SVG/1.1/DTD/svg11.dtd">
<svg xmlns="http://www.w3.org/2000/svg" version="1.1" width="321px" height="321px" style="shape-rendering:geometricPrecision; text-rendering:geometricPrecision; image-rendering:optimizeQuality; fill-rule:evenodd; clip-rule:evenodd" xmlns:xlink="http://www.w3.org/1999/xlink">
<g><path style="opacity:0.004" fill="#f1fb42" d="M 130.5,4.5 C 132.128,3.14719 133.462,3.48052 134.5,5.5C 133.833,5.5 133.167,5.5 132.5,5.5C 132.158,4.66175 131.492,4.32842 130.5,4.5 Z"/></g>
<g><path style="opacity:1" fill="#ec168f" d="M 130.5,4.5 C 130.842,5.33825 131.508,5.67158 132.5,5.5C 132.842,6.33825 133.508,6.67158 134.5,6.5C 134.842,7.33825 135.508,7.67158 136.5,7.5C 137.899,8.88972 139.566,9.88972 141.5,10.5C 141.5,11.1667 141.833,11.5 142.5,11.5C 144.473,12.806 146.139,14.4727 147.5,16.5C 143.167,17.1667 138.833,17.8333 134.5,18.5C 123.531,19.1786 113.197,21.8453 103.5,26.5C 96.9031,28.4651 90.9031,31.4651 85.5,35.5C 76.6888,39.7454 68.6888,45.2454 61.5,52C 55.2589,57.7368 49.5922,63.9035 44.5,70.5C 14.7453,109.871 6.07866,153.538 18.5,201.5C 18.1667,201.5 17.8333,201.5 17.5,201.5C 17.5,200.833 17.1667,200.5 16.5,200.5C 11.4204,194.762 6.75377,188.762 2.5,182.5C 2.67158,181.508 2.33825,180.842 1.5,180.5C 0.70509,176.215 0.371756,171.881 0.5,167.5C 1.73685,166.035 2.73685,164.368 3.5,162.5C 4.16667,162.5 4.5,162.167 4.5,161.5C 6.00751,159.819 7.00751,157.819 7.5,155.5C 8.83333,150.833 8.83333,146.167 7.5,141.5C 7.74061,139.102 7.07394,137.102 5.5,135.5C 3.7613,129.276 2.42797,122.942 1.5,116.5C 1.99712,114.182 2.33045,111.848 2.5,109.5C 3.73685,108.035 4.73685,106.368 5.5,104.5C 6.16667,104.5 6.5,104.167 6.5,103.5C 9.5,99.8333 12.8333,96.5 16.5,93.5C 17.1667,93.5 17.5,93.1667 17.5,92.5C 18.1667,92.5 18.5,92.1667 18.5,91.5C 22.4904,89.2081 25.3237,85.8747 27,81.5C 28.0179,71.5058 28.8513,61.5058 29.5,51.5C 32.7028,45.8026 37.3695,41.6359 43.5,39C 51.4172,36.903 59.4172,35.2363 67.5,34C 71.4109,32.5558 74.7442,30.3891 77.5,27.5C 78.1667,27.5 78.5,27.1667 78.5,26.5C 79.5,26.1667 80.1667,25.5 80.5,24.5C 81.1667,24.5 81.5,24.1667 81.5,23.5C 82.1667,23.5 82.5,23.1667 82.5,22.5C 83.1667,22.5 83.5,22.1667 83.5,21.5C 85.137,19.5248 86.8036,17.5248 88.5,15.5C 89.1667,15.5 89.5,15.1667 89.5,14.5C 91.5,13.1667 93.1667,11.5 94.5,9.5C 95.1667,9.5 95.5,9.16667 95.5,8.5C 99.3319,5.60761 103.665,3.77428 108.5,3C 115.93,2.22123 123.263,2.72123 130.5,4.5 Z"/></g>
<g><path style="opacity:0.008" fill="#e60c64" d="M 134.5,6.5 C 134.5,6.16667 134.5,5.83333 134.5,5.5C 136.103,5.31181 137.437,5.81181 138.5,7C 137.906,7.46434 137.239,7.63101 136.5,7.5C 136.158,6.66175 135.492,6.32842 134.5,6.5 Z"/></g>
<g><path style="opacity:0.004" fill="#fffc3e" d="M 95.5,8.5 C 94.8333,8.5 94.5,8.83333 94.5,9.5C 92.0248,9.2533 92.0248,8.58664 94.5,7.5C 95.1067,7.62358 95.44,7.95691 95.5,8.5 Z"/></g>
<g><path style="opacity:0.008" fill="#fff487" d="M 141.5,10.5 C 142.497,9.28749 143.497,9.45415 144.5,11C 143.906,11.4643 143.239,11.631 142.5,11.5C 141.833,11.5 141.5,11.1667 141.5,10.5 Z"/></g>
<g><path style="opacity:0.012" fill="#fff1a3" d="M 89.5,14.5 C 88.8333,14.5 88.5,14.8333 88.5,15.5C 87.2875,14.5029 87.4542,13.5029 89,12.5C 89.4643,13.0944 89.631,13.7611 89.5,14.5 Z"/></g>
<g><path style="opacity:0.012" fill="#c3f98d" d="M 162.5,16.5 C 165.833,15.1667 169.167,15.1667 172.5,16.5C 169.167,16.5 165.833,16.5 162.5,16.5 Z"/></g>
<g><path style="opacity:0.987" fill="#a9208d" d="M 147.5,16.5 C 152.5,16.5 157.5,16.5 162.5,16.5C 164.265,17.4614 166.265,17.7947 168.5,17.5C 158.321,24.316 149.821,34.316 143,47.5C 141.89,49.0368 140.39,49.7035 138.5,49.5C 134.838,49.2766 131.505,48.2766 128.5,46.5C 131.67,36.8243 137.337,27.6576 145.5,19C 141.848,18.5014 138.182,18.3347 134.5,18.5C 138.833,17.8333 143.167,17.1667 147.5,16.5 Z"/></g>
<g><path style="opacity:0.012" fill="#ddf590" d="M 172.5,16.5 C 174.199,16.3398 175.866,16.5065 177.5,17C 175.613,17.7796 173.946,17.6129 172.5,16.5 Z"/></g>
<g><path style="opacity:0.012" fill="#c9ff9f" d="M 178.5,18.5 C 179.251,17.4265 180.251,17.2599 181.5,18C 180.552,18.4828 179.552,18.6495 178.5,18.5 Z"/></g>
<g><path style="opacity:0.997" fill="#bd1a8d" d="M 168.5,17.5 C 175.53,18.6743 182.53,20.0076 189.5,21.5C 192.5,22.8333 195.5,24.1667 198.5,25.5C 191.463,26.6836 185.13,29.5169 179.5,34C 158.179,52.6277 149.513,75.961 153.5,104C 155.544,104.498 156.878,105.665 157.5,107.5C 155.287,106.227 152.954,105.227 150.5,104.5C 142.594,99.7144 134.26,95.7144 125.5,92.5C 125.437,87.6971 125.77,83.1971 126.5,79C 122.514,78.5012 118.514,78.3345 114.5,78.5C 120.31,77.5104 126.31,77.1771 132.5,77.5C 133.713,68.3621 136.047,59.5288 139.5,51C 138.944,50.6174 138.611,50.1174 138.5,49.5C 140.39,49.7035 141.89,49.0368 143,47.5C 149.821,34.316 158.321,24.316 168.5,17.5 Z"/></g>
<g><path style="opacity:0.012" fill="#c5fb59" d="M 189.5,21.5 C 190.833,20.1667 192.167,20.1667 193.5,21.5C 192.167,21.5 190.833,21.5 189.5,21.5 Z"/></g>
<g><path style="opacity:0.008" fill="#f00487" d="M 83.5,21.5 C 82.8333,21.5 82.5,21.8333 82.5,22.5C 81.8333,22.5 81.5,22.8333 81.5,23.5C 80.8333,23.5 80.5,23.8333 80.5,24.5C 79.475,24.1034 79.3083,23.4368 80,22.5C 81,21.5 82,20.5 83,19.5C 83.4643,20.0944 83.631,20.7611 83.5,21.5 Z"/></g>
<g><path style="opacity:1" fill="#95268c" d="M 134.5,18.5 C 138.182,18.3347 141.848,18.5014 145.5,19C 137.337,27.6576 131.67,36.8243 128.5,46.5C 122.642,44.9921 116.809,43.3254 111,41.5C 107.356,42.1183 103.856,43.1183 100.5,44.5C 100.389,43.8826 100.056,43.3826 99.5,43C 102.167,38 104.833,33 107.5,28C 106.437,26.8118 105.103,26.3118 103.5,26.5C 113.197,21.8453 123.531,19.1786 134.5,18.5 Z"/></g>
<g><path style="opacity:0.004" fill="#eafed2" d="M 193.5,21.5 C 194.239,21.369 194.906,21.5357 195.5,22C 194.563,22.6917 193.897,22.525 193.5,21.5 Z"/></g>
<g><path style="opacity:0.008" fill="#e4fc8d" d="M 196.5,23.5 C 196.897,22.475 197.563,22.3083 198.5,23C 197.906,23.4643 197.239,23.631 196.5,23.5 Z"/></g>
<g><path style="opacity:0.008" fill="#f6f682" d="M 78.5,26.5 C 77.8333,26.5 77.5,26.8333 77.5,27.5C 75.0248,27.2533 75.0248,26.5866 77.5,25.5C 78.1067,25.6236 78.44,25.9569 78.5,26.5 Z"/></g>
<g><path style="opacity:0.008" fill="#c41375" d="M 214.5,31.5 C 215.849,30.2035 217.182,30.3702 218.5,32C 217.906,32.4643 217.239,32.631 216.5,32.5C 216.158,31.6618 215.492,31.3284 214.5,31.5 Z"/></g>
<g><path style="opacity:1" fill="#eb148e" d="M 128.5,46.5 C 131.505,48.2766 134.838,49.2766 138.5,49.5C 138.611,50.1174 138.944,50.6174 139.5,51C 136.047,59.5288 133.713,68.3621 132.5,77.5C 126.31,77.1771 120.31,77.5104 114.5,78.5C 110.629,78.185 106.962,78.5184 103.5,79.5C 100.03,80.1252 97.1962,79.1252 95,76.5C 90.7505,71.4186 88.2505,65.5853 87.5,59C 87.4944,56.7002 87.9944,54.5336 89,52.5C 92.4261,49.2073 96.2594,46.5406 100.5,44.5C 103.856,43.1183 107.356,42.1183 111,41.5C 116.809,43.3254 122.642,44.9921 128.5,46.5 Z"/></g>
<g><path style="opacity:0.997" fill="#dc118d" d="M 228.5,40.5 C 234.082,43.4109 239.415,46.7442 244.5,50.5C 244.5,51.1667 244.833,51.5 245.5,51.5C 247.142,52.803 248.809,54.1363 250.5,55.5C 250.5,56.1667 250.833,56.5 251.5,56.5C 252.306,57.7281 253.306,58.7281 254.5,59.5C 263.192,75.8165 263.692,92.4831 256,109.5C 251.5,116.667 245.667,122.5 238.5,127C 242.833,127.333 247.167,127.667 251.5,128C 243.841,128.5 236.174,128.666 228.5,128.5C 224.5,128.167 220.5,127.833 216.5,127.5C 207.944,125.181 199.277,122.848 190.5,120.5C 189.791,119.596 188.791,119.263 187.5,119.5C 185.064,118.129 182.397,117.129 179.5,116.5C 180.141,115.518 180.807,114.518 181.5,113.5C 171.033,96.3379 170.866,79.0046 181,61.5C 192.161,46.5015 206.994,40.1681 225.5,42.5C 226.265,41.3881 227.265,40.7214 228.5,40.5 Z M 196.5,68.5 C 196.5,68.8333 196.5,69.1667 196.5,69.5C 195.508,69.3284 194.842,69.6618 194.5,70.5C 194.167,70.5 193.833,70.5 193.5,70.5C 193.821,68.9519 194.821,68.2852 196.5,68.5 Z M 196.5,69.5 C 198.216,69.6287 199.883,69.962 201.5,70.5C 201.5,72.8333 201.5,75.1667 201.5,77.5C 198.315,77.9804 195.481,77.3137 193,75.5C 192.601,75.7284 192.435,76.0618 192.5,76.5C 191.833,76.5 191.5,76.1667 191.5,75.5C 191.263,74.209 191.596,73.209 192.5,72.5C 192.435,72.9382 192.601,73.2716 193,73.5C 194.039,72.7562 194.539,71.7562 194.5,70.5C 195.492,70.6716 196.158,70.3382 196.5,69.5 Z M 201.5,70.5 C 201.5,70.1667 201.5,69.8333 201.5,69.5C 201.833,69.5 202.167,69.5 202.5,69.5C 203.833,72.1667 203.833,74.8333 202.5,77.5C 202.802,74.9407 202.468,72.6074 201.5,70.5 Z"/></g>
<g><path style="opacity:0.004" fill="#f4fb3e" d="M 244.5,50.5 C 245.497,49.2875 246.497,49.4542 247.5,51C 246.906,51.4643 246.239,51.631 245.5,51.5C 244.833,51.5 244.5,51.1667 244.5,50.5 Z"/></g>
<g><path style="opacity:0.012" fill="#ff009b" d="M 29.5,51.5 C 29.1667,51.5 28.8333,51.5 28.5,51.5C 28.8333,48.8333 29.1667,48.8333 29.5,51.5 Z"/></g>
<g><path style="opacity:0.012" fill="#fffcb3" d="M 28.5,51.5 C 28.6495,52.552 28.4828,53.552 28,54.5C 27.2599,53.2506 27.4265,52.2506 28.5,51.5 Z"/></g>
<g><path style="opacity:1" fill="#cd138c" d="M 198.5,25.5 C 204.042,26.9374 209.375,28.9374 214.5,31.5C 214.842,32.3382 215.508,32.6716 216.5,32.5C 220.772,34.7744 224.772,37.4411 228.5,40.5C 227.265,40.7214 226.265,41.3881 225.5,42.5C 206.994,40.1681 192.161,46.5015 181,61.5C 170.866,79.0046 171.033,96.3379 181.5,113.5C 180.807,114.518 180.141,115.518 179.5,116.5C 175.979,114.771 172.313,113.438 168.5,112.5C 165.017,110.594 161.35,108.928 157.5,107.5C 156.878,105.665 155.544,104.498 153.5,104C 149.513,75.961 158.179,52.6277 179.5,34C 185.13,29.5169 191.463,26.6836 198.5,25.5 Z"/></g>
<g><path style="opacity:0.008" fill="#8a127b" d="M 250.5,55.5 C 251.497,54.2875 252.497,54.4542 253.5,56C 252.906,56.4643 252.239,56.631 251.5,56.5C 250.833,56.5 250.5,56.1667 250.5,55.5 Z"/></g>
<g><path style="opacity:1" fill="#6d2b89" d="M 85.5,35.5 C 85.9175,36.2216 86.5842,36.7216 87.5,37C 80.3316,54.3659 77.3316,72.3659 78.5,91C 75.6409,92.2601 72.9742,93.7601 70.5,95.5C 63.0219,98.9734 56.3552,103.64 50.5,109.5C 49.8153,107.586 49.3153,105.586 49,103.5C 48.5016,91.8111 48.5016,80.1445 49,68.5C 47.8904,70.0368 46.3904,70.7035 44.5,70.5C 49.5922,63.9035 55.2589,57.7368 61.5,52C 68.6888,45.2454 76.6888,39.7454 85.5,35.5 Z"/></g>
<g><path style="opacity:0.016" fill="#f9ff86" d="M 26.5,70.5 C 26.3341,65.4889 26.5007,60.4889 27,55.5C 27.8163,60.6842 27.6497,65.6842 26.5,70.5 Z"/></g>
<g><path style="opacity:1" fill="#e90c8d" d="M 191.5,75.5 C 191.5,76.1667 191.833,76.5 192.5,76.5C 193.512,78.876 195.345,79.876 198,79.5C 200.008,79.6932 201.508,79.0265 202.5,77.5C 203.833,74.8333 203.833,72.1667 202.5,69.5C 203.171,68.1529 203.171,66.9862 202.5,66C 194.126,67.1544 193.793,65.1544 201.5,60C 214.407,53.2935 227.074,54.1268 239.5,62.5C 254.521,85.7387 250.187,104.405 226.5,118.5C 217.861,121.174 209.527,120.341 201.5,116C 198.703,112.201 195.536,108.701 192,105.5C 187.657,98.4985 185.824,90.9985 186.5,83C 187.616,79.0841 188.783,75.2508 190,71.5C 190.21,73.0581 190.71,74.3915 191.5,75.5 Z"/></g>
<g><path style="opacity:0.997" fill="#83288b" d="M 103.5,26.5 C 105.103,26.3118 106.437,26.8118 107.5,28C 104.833,33 102.167,38 99.5,43C 100.056,43.3826 100.389,43.8826 100.5,44.5C 96.2594,46.5406 92.4261,49.2073 89,52.5C 87.9944,54.5336 87.4944,56.7002 87.5,59C 88.2505,65.5853 90.7505,71.4186 95,76.5C 97.1962,79.1252 100.03,80.1252 103.5,79.5C 104.552,79.3505 105.552,79.5172 106.5,80C 104.527,80.4955 102.527,80.6621 100.5,80.5C 100.042,83.3938 100.709,85.8938 102.5,88C 110.291,89.0584 117.958,90.5584 125.5,92.5C 134.26,95.7144 142.594,99.7144 150.5,104.5C 148.214,104.595 146.214,105.262 144.5,106.5C 143.209,106.263 142.209,106.596 141.5,107.5C 137.703,107.872 134.37,109.206 131.5,111.5C 130.508,111.328 129.842,111.662 129.5,112.5C 128.508,112.328 127.842,112.662 127.5,113.5C 126.508,113.328 125.842,113.662 125.5,114.5C 124.508,114.328 123.842,114.662 123.5,115.5C 122.833,115.5 122.5,115.833 122.5,116.5C 121.508,116.328 120.842,116.662 120.5,117.5C 119.833,117.5 119.5,117.833 119.5,118.5C 118.508,118.328 117.842,118.662 117.5,119.5C 116.833,119.5 116.5,119.833 116.5,120.5C 115.833,120.5 115.5,120.833 115.5,121.5C 114.508,121.328 113.842,121.662 113.5,122.5C 113.167,122.5 112.833,122.5 112.5,122.5C 111.883,122.389 111.383,122.056 111,121.5C 110.163,123.007 108.996,123.507 107.5,123C 95.4641,113.328 83.1308,104.161 70.5,95.5C 72.9742,93.7601 75.6409,92.2601 78.5,91C 77.3316,72.3659 80.3316,54.3659 87.5,37C 86.5842,36.7216 85.9175,36.2216 85.5,35.5C 90.9031,31.4651 96.9031,28.4651 103.5,26.5 Z"/></g>
<g><path style="opacity:0.008" fill="#f6f482" d="M 267.5,72.5 C 267.5,71.8333 267.167,71.5 266.5,71.5C 266.747,69.0248 267.413,69.0248 268.5,71.5C 268.376,72.1067 268.043,72.44 267.5,72.5 Z"/></g>
<g><path style="opacity:0.008" fill="#fff67f" d="M 26.5,70.5 C 26.665,73.8499 26.4983,77.1832 26,80.5C 25.1925,76.9733 25.3592,73.6399 26.5,70.5 Z"/></g>
<g><path style="opacity:0.016" fill="#98147b" d="M 271.5,77.5 C 271.5,76.8333 271.167,76.5 270.5,76.5C 270.747,74.0248 271.413,74.0248 272.5,76.5C 272.376,77.1067 272.043,77.44 271.5,77.5 Z"/></g>
<g><path style="opacity:0.999" fill="#cc138c" d="M 254.5,59.5 C 258.86,63.1938 262.86,67.1938 266.5,71.5C 267.167,71.5 267.5,71.8333 267.5,72.5C 268.512,73.8717 269.512,75.205 270.5,76.5C 271.167,76.5 271.5,76.8333 271.5,77.5C 276.621,85.085 280.121,93.4183 282,102.5C 282.416,108.17 281.249,113.503 278.5,118.5C 277.833,118.5 277.5,118.833 277.5,119.5C 276.833,119.5 276.5,119.833 276.5,120.5C 275.833,120.5 275.5,120.833 275.5,121.5C 273.205,122.475 271.205,123.808 269.5,125.5C 268.508,125.328 267.842,125.662 267.5,126.5C 266.508,126.328 265.842,126.662 265.5,127.5C 253.084,129.653 240.751,129.987 228.5,128.5C 236.174,128.666 243.841,128.5 251.5,128C 247.167,127.667 242.833,127.333 238.5,127C 245.667,122.5 251.5,116.667 256,109.5C 263.692,92.4831 263.192,75.8165 254.5,59.5 Z"/></g>
<g><path style="opacity:1" fill="#9f238d" d="M 103.5,79.5 C 106.962,78.5184 110.629,78.185 114.5,78.5C 118.514,78.3345 122.514,78.5012 126.5,79C 125.77,83.1971 125.437,87.6971 125.5,92.5C 117.958,90.5584 110.291,89.0584 102.5,88C 100.709,85.8938 100.042,83.3938 100.5,80.5C 102.527,80.6621 104.527,80.4955 106.5,80C 105.552,79.5172 104.552,79.3505 103.5,79.5 Z"/></g>
<g><path style="opacity:0.004" fill="#0000ff" d="M 285.5,83.5 C 284.833,82.1667 284.833,82.1667 285.5,83.5 Z"/></g>
<g><path style="opacity:0.004" fill="#000000" d="M 285.5,83.5 C 286.833,84.1667 286.833,84.1667 285.5,83.5 Z"/></g>
<g><path style="opacity:0.008" fill="#74f9a8" d="M 283.5,85.5 C 283.5,86.1667 283.5,86.8333 283.5,87.5C 282.167,86.8333 282.167,86.1667 283.5,85.5 Z"/></g>
<g><path style="opacity:0.012" fill="#620062" d="M 283.5,87.5 C 283.833,87.5 284.167,87.5 284.5,87.5C 284.167,90.1667 283.833,90.1667 283.5,87.5 Z"/></g>
<g><path style="opacity:0.012" fill="#400940" d="M 285.5,93.5 C 284.427,92.7494 284.26,91.7494 285,90.5C 285.483,91.448 285.649,92.448 285.5,93.5 Z"/></g>
<g><path style="opacity:0.004" fill="#2e1b3a" d="M 292.5,92.5 C 292.5,91.8333 292.167,91.5 291.5,91.5C 291.747,89.0248 292.413,89.0248 293.5,91.5C 293.376,92.1067 293.043,92.44 292.5,92.5 Z"/></g>
<g><path style="opacity:0.008" fill="#d9f480" d="M 18.5,91.5 C 17.8333,91.5 17.5,91.8333 17.5,92.5C 16.8333,92.5 16.5,92.8333 16.5,93.5C 14.4076,92.7145 14.7409,91.7145 17.5,90.5C 18.1067,90.6236 18.44,90.9569 18.5,91.5 Z"/></g>
<g><path style="opacity:0.008" fill="#531c7c" d="M 285.5,93.5 C 286.434,94.5676 286.768,95.901 286.5,97.5C 285.566,96.4324 285.232,95.099 285.5,93.5 Z"/></g>
<g><path style="opacity:0.004" fill="#2e1b3a" d="M 297.5,98.5 C 297.167,98.5 296.833,98.5 296.5,98.5C 296.5,97.8333 296.167,97.5 295.5,97.5C 296.301,95.2071 296.968,95.5404 297.5,98.5 Z"/></g>
<g><path style="opacity:0.012" fill="#3a396e" d="M 297.5,98.5 C 298.338,98.8417 298.672,99.5084 298.5,100.5C 298.167,100.5 297.833,100.5 297.5,100.5C 297.5,99.8333 297.5,99.1667 297.5,98.5 Z"/></g>
<g><path style="opacity:0.012" fill="#57fc8a" d="M 298.5,100.5 C 299.525,100.897 299.692,101.563 299,102.5C 298.536,101.906 298.369,101.239 298.5,100.5 Z"/></g>
<g><path style="opacity:0.012" fill="#f6f495" d="M 6.5,103.5 C 5.83333,103.5 5.5,103.833 5.5,104.5C 4.28749,103.503 4.45415,102.503 6,101.5C 6.46434,102.094 6.63101,102.761 6.5,103.5 Z"/></g>
<g><path style="opacity:0.012" fill="#8d41b3" d="M 144.5,107.5 C 144.5,107.167 144.5,106.833 144.5,106.5C 148.5,106.833 148.5,107.167 144.5,107.5 Z"/></g>
<g><path style="opacity:0.012" fill="#49336e" d="M 299.5,105.5 C 299.393,103.621 299.893,103.288 301,104.5C 301.632,107.875 301.132,108.209 299.5,105.5 Z"/></g>
<g><path style="opacity:0.997" fill="#9f238d" d="M 70.5,95.5 C 83.1308,104.161 95.4641,113.328 107.5,123C 108.996,123.507 110.163,123.007 111,121.5C 111.383,122.056 111.883,122.389 112.5,122.5C 112.5,122.833 112.5,123.167 112.5,123.5C 111.833,123.5 111.5,123.833 111.5,124.5C 110.833,124.5 110.5,124.833 110.5,125.5C 109.833,125.5 109.5,125.833 109.5,126.5C 108.833,126.5 108.5,126.833 108.5,127.5C 107.833,127.5 107.5,127.833 107.5,128.5C 106.833,128.5 106.5,128.833 106.5,129.5C 105.833,129.5 105.5,129.833 105.5,130.5C 104.833,130.5 104.5,130.833 104.5,131.5C 103.833,131.5 103.5,131.833 103.5,132.5C 102.833,132.5 102.5,132.833 102.5,133.5C 101.662,133.842 101.328,134.508 101.5,135.5C 99.1782,136.802 97.8449,138.802 97.5,141.5C 96.8333,141.5 96.5,141.833 96.5,142.5C 96.1667,142.5 95.8333,142.5 95.5,142.5C 92.1796,143.543 89.1796,142.71 86.5,140C 74.2906,130.285 61.9573,120.785 49.5,111.5C 49.8333,110.833 50.1667,110.167 50.5,109.5C 56.3552,103.64 63.0219,98.9734 70.5,95.5 Z"/></g>
<g><path style="opacity:0.008" fill="#572468" d="M 141.5,107.5 C 142.5,107.5 143.5,107.5 144.5,107.5C 143.5,108.833 142.5,108.833 141.5,107.5 Z"/></g>
<g><path style="opacity:0.012" fill="#d3ff9b" d="M 2.5,109.5 C 2.16667,109.5 1.83333,109.5 1.5,109.5C 1.83333,106.833 2.16667,106.833 2.5,109.5 Z"/></g>
<g><path style="opacity:0.012" fill="#defe94" d="M 1.5,109.5 C 1.64945,110.552 1.48278,111.552 1,112.5C 0.259877,111.251 0.426544,110.251 1.5,109.5 Z"/></g>
<g><path style="opacity:1" fill="#552c87" d="M 50.5,109.5 C 50.1667,110.167 49.8333,110.833 49.5,111.5C 46.1518,114.851 43.1518,118.518 40.5,122.5C 37.3401,126.148 34.6735,130.148 32.5,134.5C 27.5453,141.689 24.5453,149.689 23.5,158.5C 20.5294,170.828 19.8627,183.162 21.5,195.5C 21.7509,200.507 22.0843,205.507 22.5,210.5C 22.1667,210.5 21.8333,210.5 21.5,210.5C 20.6976,207.426 19.6976,204.426 18.5,201.5C 6.07866,153.538 14.7453,109.871 44.5,70.5C 46.3904,70.7035 47.8904,70.0368 49,68.5C 48.5016,80.1445 48.5016,91.8111 49,103.5C 49.3153,105.586 49.8153,107.586 50.5,109.5 Z"/></g>
<g><path style="opacity:0.008" fill="#74ff8d" d="M 131.5,112.5 C 131.5,112.167 131.5,111.833 131.5,111.5C 134.167,111.833 134.167,112.167 131.5,112.5 Z"/></g>
<g><path style="opacity:0.004" fill="#e238e2" d="M 129.5,113.5 C 129.5,113.167 129.5,112.833 129.5,112.5C 130.167,112.5 130.833,112.5 131.5,112.5C 131.158,113.338 130.492,113.672 129.5,113.5 Z"/></g>
<g><path style="opacity:0.012" fill="#911449" d="M 168.5,112.5 C 168.5,112.833 168.5,113.167 168.5,113.5C 164.5,113.167 164.5,112.833 168.5,112.5 Z"/></g>
<g><path style="opacity:0.016" fill="#462165" d="M 286.5,97.5 C 287.167,98.5 287.833,99.5 288.5,100.5C 288.19,103.713 288.523,106.713 289.5,109.5C 289.5,113.833 289.5,118.167 289.5,122.5C 288.521,125.625 288.187,128.958 288.5,132.5C 289.041,120.946 288.374,109.28 286.5,97.5 Z"/></g>
<g><path style="opacity:0.008" fill="#8d278d" d="M 127.5,114.5 C 127.5,114.167 127.5,113.833 127.5,113.5C 128.167,113.5 128.833,113.5 129.5,113.5C 129.158,114.338 128.492,114.672 127.5,114.5 Z"/></g>
<g><path style="opacity:0.012" fill="#c8fc9b" d="M 168.5,113.5 C 169.239,113.369 169.906,113.536 170.5,114C 169.563,114.692 168.897,114.525 168.5,113.5 Z"/></g>
<g><path style="opacity:0.008" fill="#7e007f" d="M 125.5,115.5 C 125.5,115.167 125.5,114.833 125.5,114.5C 126.167,114.5 126.833,114.5 127.5,114.5C 127.158,115.338 126.492,115.672 125.5,115.5 Z"/></g>
<g><path style="opacity:0.008" fill="#c90f86" d="M -0.5,113.5 C 0.468218,115.607 0.801552,117.941 0.5,120.5C 0.166667,120.5 -0.166667,120.5 -0.5,120.5C -0.5,118.167 -0.5,115.833 -0.5,113.5 Z"/></g>
<g><path style="opacity:0.004" fill="#351a42" d="M 123.5,115.5 C 124.167,115.5 124.833,115.5 125.5,115.5C 125.027,116.906 124.027,117.573 122.5,117.5C 122.5,117.167 122.5,116.833 122.5,116.5C 123.167,116.5 123.5,116.167 123.5,115.5 Z"/></g>
<g><path style="opacity:0.992" fill="#af1f8d" d="M 49.5,111.5 C 61.9573,120.785 74.2906,130.285 86.5,140C 89.1796,142.71 92.1796,143.543 95.5,142.5C 95.5,143.167 95.5,143.833 95.5,144.5C 94.6618,144.842 94.3284,145.508 94.5,146.5C 93.6618,146.842 93.3284,147.508 93.5,148.5C 92.596,149.209 92.2627,150.209 92.5,151.5C 91.596,152.209 91.2627,153.209 91.5,154.5C 90.5655,155.568 90.2322,156.901 90.5,158.5C 90.1667,158.5 89.8333,158.5 89.5,158.5C 89.6602,156.801 89.4935,155.134 89,153.5C 88.5172,154.448 88.3505,155.448 88.5,156.5C 87.448,156.649 86.448,156.483 85.5,156C 70.9049,144.231 55.9049,133.064 40.5,122.5C 43.1518,118.518 46.1518,114.851 49.5,111.5 Z"/></g>
<g><path style="opacity:0.008" fill="#7e007f" d="M 120.5,118.5 C 120.5,118.167 120.5,117.833 120.5,117.5C 121.167,117.5 121.833,117.5 122.5,117.5C 122.158,118.338 121.492,118.672 120.5,118.5 Z"/></g>
<g><path style="opacity:0.016" fill="#7e3f7f" d="M 119.5,118.5 C 119.833,118.5 120.167,118.5 120.5,118.5C 120.315,119.17 119.981,119.17 119.5,118.5 Z"/></g>
<g><path style="opacity:0.012" fill="#a900aa" d="M 278.5,118.5 C 279.833,119.167 279.833,119.167 278.5,118.5 Z"/></g>
<g><path style="opacity:0.012" fill="#a900aa" d="M 277.5,119.5 C 277.833,119.5 278.167,119.5 278.5,119.5C 278.315,120.17 277.981,120.17 277.5,119.5 Z"/></g>
<g><path style="opacity:0.004" fill="#521e51" d="M 117.5,119.5 C 118.167,119.5 118.833,119.5 119.5,119.5C 119.027,120.906 118.027,121.573 116.5,121.5C 116.5,121.167 116.5,120.833 116.5,120.5C 117.167,120.5 117.5,120.167 117.5,119.5 Z"/></g>
<g><path style="opacity:0.008" fill="#cd117e" d="M 187.5,119.5 C 188.209,120.404 189.209,120.737 190.5,120.5C 188.565,121.709 186.565,121.542 184.5,120C 185.448,119.517 186.448,119.351 187.5,119.5 Z"/></g>
<g><path style="opacity:0.012" fill="#a900aa" d="M 276.5,120.5 C 276.833,120.5 277.167,120.5 277.5,120.5C 277.315,121.17 276.981,121.17 276.5,120.5 Z"/></g>
<g><path style="opacity:0.012" fill="#a900aa" d="M 115.5,121.5 C 115.833,121.5 116.167,121.5 116.5,121.5C 116.315,122.17 115.981,122.17 115.5,121.5 Z"/></g>
<g><path style="opacity:0.012" fill="#fe00a9" d="M 275.5,121.5 C 275.833,121.5 276.167,121.5 276.5,121.5C 276.315,122.17 275.981,122.17 275.5,121.5 Z"/></g>
<g><path style="opacity:0.012" fill="#fff9a1" d="M 0.5,120.5 C 1.61295,121.946 1.77961,123.613 1,125.5C 0.506489,123.866 0.339822,122.199 0.5,120.5 Z"/></g>
<g><path style="opacity:0.97" fill="#552c88" d="M 283.5,85.5 C 283.842,84.6618 284.508,84.3284 285.5,84.5C 287.529,86.8585 289.529,89.1918 291.5,91.5C 292.167,91.5 292.5,91.8333 292.5,92.5C 293.11,94.4341 294.11,96.1007 295.5,97.5C 296.167,97.5 296.5,97.8333 296.5,98.5C 296.328,99.4916 296.662,100.158 297.5,100.5C 297.402,102.553 298.069,104.22 299.5,105.5C 303.632,118.555 304.965,131.889 303.5,145.5C 302.539,147.265 302.205,149.265 302.5,151.5C 301.566,152.568 301.232,153.901 301.5,155.5C 300.596,156.209 300.263,157.209 300.5,158.5C 299.662,158.842 299.328,159.508 299.5,160.5C 295.545,156.694 292.045,152.36 289,147.5C 288.845,145.144 288.845,142.811 289,140.5C 288.414,143.019 287.247,145.019 285.5,146.5C 287.126,141.992 288.126,137.325 288.5,132.5C 289.479,129.375 289.813,126.042 289.5,122.5C 290.833,118.167 290.833,113.833 289.5,109.5C 289.81,106.287 289.477,103.287 288.5,100.5C 288.231,95.7363 286.898,91.403 284.5,87.5C 284.672,86.5084 284.338,85.8417 283.5,85.5 Z"/></g>
<g><path style="opacity:0.004" fill="#4f1e4e" d="M 113.5,122.5 C 114.167,122.5 114.833,122.5 115.5,122.5C 115.027,123.906 114.027,124.573 112.5,124.5C 112.5,124.167 112.5,123.833 112.5,123.5C 113.167,123.5 113.5,123.167 113.5,122.5 Z"/></g>
<g><path style="opacity:0.012" fill="#a900aa" d="M 111.5,124.5 C 111.833,124.5 112.167,124.5 112.5,124.5C 112.315,125.17 111.981,125.17 111.5,124.5 Z"/></g>
<g><path style="opacity:0.016" fill="#7e3f7f" d="M 110.5,125.5 C 110.833,125.5 111.167,125.5 111.5,125.5C 111.315,126.17 110.981,126.17 110.5,125.5 Z"/></g>
<g><path style="opacity:0.008" fill="#fe007e" d="M 269.5,126.5 C 269.5,126.167 269.5,125.833 269.5,125.5C 272.167,125.833 272.167,126.167 269.5,126.5 Z"/></g>
<g><path style="opacity:0.016" fill="#7e3f7f" d="M 109.5,126.5 C 109.833,126.5 110.167,126.5 110.5,126.5C 110.315,127.17 109.981,127.17 109.5,126.5 Z"/></g>
<g><path style="opacity:0.012" fill="#c8fc8a" d="M 267.5,127.5 C 267.5,127.167 267.5,126.833 267.5,126.5C 268.167,126.5 268.833,126.5 269.5,126.5C 269.158,127.338 268.492,127.672 267.5,127.5 Z"/></g>
<g><path style="opacity:0.016" fill="#7e3f7f" d="M 108.5,127.5 C 108.833,127.5 109.167,127.5 109.5,127.5C 109.315,128.17 108.981,128.17 108.5,127.5 Z"/></g>
<g><path style="opacity:0.012" fill="#f0f8a7" d="M 216.5,127.5 C 216.5,127.833 216.5,128.167 216.5,128.5C 209.833,128.167 209.833,127.833 216.5,127.5 Z"/></g>
<g><path style="opacity:0.008" fill="#a8ff8d" d="M 265.5,128.5 C 265.5,128.167 265.5,127.833 265.5,127.5C 266.167,127.5 266.833,127.5 267.5,127.5C 267.158,128.338 266.492,128.672 265.5,128.5 Z"/></g>
<g><path style="opacity:1" fill="#bc1a8d" d="M 40.5,122.5 C 55.9049,133.064 70.9049,144.231 85.5,156C 86.448,156.483 87.448,156.649 88.5,156.5C 88.3505,155.448 88.5172,154.448 89,153.5C 89.4935,155.134 89.6602,156.801 89.5,158.5C 89.5,160.167 89.5,161.833 89.5,163.5C 88.5489,164.919 88.2155,166.585 88.5,168.5C 87.5489,169.919 87.2155,171.585 87.5,173.5C 86.6862,171.369 86.1862,169.036 86,166.5C 85.8142,168.9 85.3142,171.234 84.5,173.5C 67.1182,160.436 49.7849,147.436 32.5,134.5C 34.6735,130.148 37.3401,126.148 40.5,122.5 Z"/></g>
<g><path style="opacity:0.016" fill="#7e3f7f" d="M 107.5,128.5 C 107.833,128.5 108.167,128.5 108.5,128.5C 108.315,129.17 107.981,129.17 107.5,128.5 Z"/></g>
<g><path style="opacity:0.012" fill="#fffcb8" d="M 216.5,128.5 C 218.199,128.34 219.866,128.506 221.5,129C 219.613,129.78 217.946,129.613 216.5,128.5 Z"/></g>
<g><path style="opacity:0.012" fill="#d6fcb3" d="M 265.5,128.5 C 264.749,129.573 263.749,129.74 262.5,129C 263.448,128.517 264.448,128.351 265.5,128.5 Z"/></g>
<g><path style="opacity:0.016" fill="#7e3f7f" d="M 106.5,129.5 C 106.833,129.5 107.167,129.5 107.5,129.5C 107.315,130.17 106.981,130.17 106.5,129.5 Z"/></g>
<g><path style="opacity:0.016" fill="#c5fc79" d="M 227.5,130.5 C 225.801,130.66 224.134,130.494 222.5,130C 224.387,129.22 226.054,129.387 227.5,130.5 Z"/></g>
<g><path style="opacity:0.012" fill="#c6fd87" d="M 258.5,130.5 C 259.251,129.427 260.251,129.26 261.5,130C 260.552,130.483 259.552,130.649 258.5,130.5 Z"/></g>
<g><path style="opacity:0.016" fill="#7e3f7f" d="M 105.5,130.5 C 105.833,130.5 106.167,130.5 106.5,130.5C 106.315,131.17 105.981,131.17 105.5,130.5 Z"/></g>
<g><path style="opacity:0.008" fill="#d0fb7b" d="M 227.5,130.5 C 237.833,130.5 248.167,130.5 258.5,130.5C 248.167,131.833 237.833,131.833 227.5,130.5 Z"/></g>
<g><path style="opacity:0.012" fill="#a900aa" d="M 104.5,131.5 C 104.833,131.5 105.167,131.5 105.5,131.5C 105.315,132.17 104.981,132.17 104.5,131.5 Z"/></g>
<g><path style="opacity:0.004" fill="#461a45" d="M 103.5,132.5 C 103.833,132.5 104.167,132.5 104.5,132.5C 104.573,134.027 103.906,135.027 102.5,135.5C 102.5,134.833 102.5,134.167 102.5,133.5C 103.167,133.5 103.5,133.167 103.5,132.5 Z"/></g>
<g><path style="opacity:0.012" fill="#a900aa" d="M 101.5,135.5 C 101.833,135.5 102.167,135.5 102.5,135.5C 102.315,136.17 101.981,136.17 101.5,135.5 Z"/></g>
<g><path style="opacity:0.008" fill="#ff008d" d="M 5.5,135.5 C 5.63101,136.239 5.46434,136.906 5,137.5C 4.30831,136.563 4.47498,135.897 5.5,135.5 Z"/></g>
<g><path style="opacity:0.004" fill="#f7f36e" d="M 7.5,141.5 C 7.5,146.167 7.5,150.833 7.5,155.5C 6.47208,149.986 5.97208,144.32 6,138.5C 6.23209,139.737 6.73209,140.737 7.5,141.5 Z"/></g>
<g><path style="opacity:0.012" fill="#a900aa" d="M 97.5,141.5 C 98.8333,142.167 98.8333,142.167 97.5,141.5 Z"/></g>
<g><path style="opacity:0.012" fill="#9dfe62" d="M 96.5,142.5 C 96.8333,142.5 97.1667,142.5 97.5,142.5C 97.6716,143.492 97.3382,144.158 96.5,144.5C 96.5,143.833 96.5,143.167 96.5,142.5 Z"/></g>
<g><path style="opacity:0.012" fill="#5c3e9f" d="M 320.5,140.5 C 320.5,141.833 320.5,143.167 320.5,144.5C 319.167,143.167 319.167,141.833 320.5,140.5 Z"/></g>
<g><path style="opacity:1" fill="#cc138c" d="M 32.5,134.5 C 49.7849,147.436 67.1182,160.436 84.5,173.5C 85.3142,171.234 85.8142,168.9 86,166.5C 86.1862,169.036 86.6862,171.369 87.5,173.5C 86.5629,182.148 86.5629,190.814 87.5,199.5C 87.631,200.239 87.4643,200.906 87,201.5C 66.0627,185.807 45.3961,170.473 25,155.5C 24.7679,156.737 24.2679,157.737 23.5,158.5C 24.5453,149.689 27.5453,141.689 32.5,134.5 Z"/></g>
<g><path style="opacity:0.004" fill="#46133d" d="M 95.5,144.5 C 95.8333,144.5 96.1667,144.5 96.5,144.5C 96.7709,146.38 96.1042,147.713 94.5,148.5C 94.5,147.833 94.5,147.167 94.5,146.5C 95.3382,146.158 95.6716,145.492 95.5,144.5 Z"/></g>
<g><path style="opacity:0.012" fill="#bbf57a" d="M 93.5,148.5 C 93.8333,148.5 94.1667,148.5 94.5,148.5C 94.7373,149.791 94.404,150.791 93.5,151.5C 93.5,150.5 93.5,149.5 93.5,148.5 Z"/></g>
<g><path style="opacity:0.012" fill="#b300b3" d="M 92.5,151.5 C 92.8333,151.5 93.1667,151.5 93.5,151.5C 93.7373,152.791 93.404,153.791 92.5,154.5C 92.5,153.5 92.5,152.5 92.5,151.5 Z"/></g>
<g><path style="opacity:0.012" fill="#951395" d="M 91.5,154.5 C 91.8333,154.5 92.1667,154.5 92.5,154.5C 92.7678,156.099 92.4345,157.432 91.5,158.5C 91.5,157.167 91.5,155.833 91.5,154.5 Z"/></g>
<g><path style="opacity:0.004" fill="#f5f847" d="M 4.5,161.5 C 3.83333,161.5 3.5,161.833 3.5,162.5C 2.28749,161.503 2.45415,160.503 4,159.5C 4.46434,160.094 4.63101,160.761 4.5,161.5 Z"/></g>
<g><path style="opacity:0.004" fill="#da00da" d="M 90.5,158.5 C 90.8333,158.5 91.1667,158.5 91.5,158.5C 91.7845,160.415 91.4511,162.081 90.5,163.5C 90.5,161.833 90.5,160.167 90.5,158.5 Z"/></g>
<g><path style="opacity:0.994" fill="#e10d8d" d="M 87.5,199.5 C 88.7909,204.615 90.4576,209.615 92.5,214.5C 93.7105,219.251 95.7105,223.584 98.5,227.5C 98.427,229.027 99.0937,230.027 100.5,230.5C 101.11,232.434 102.11,234.101 103.5,235.5C 103.5,236.167 103.833,236.5 104.5,236.5C 104.5,237.167 104.833,237.5 105.5,237.5C 105.5,238.167 105.5,238.833 105.5,239.5C 104.542,239.047 103.708,238.381 103,237.5C 102.667,238.167 102.333,238.833 102,239.5C 76.5,220 51,200.5 25.5,181C 24.5509,180.383 23.7175,180.549 23,181.5C 22.6667,179.5 22.3333,177.5 22,175.5C 21.5034,177.81 21.3367,180.143 21.5,182.5C 21.5,186.833 21.5,191.167 21.5,195.5C 19.8627,183.162 20.5294,170.828 23.5,158.5C 24.2679,157.737 24.7679,156.737 25,155.5C 45.3961,170.473 66.0627,185.807 87,201.5C 87.4643,200.906 87.631,200.239 87.5,199.5 Z"/></g>
<g><path style="opacity:0.004" fill="#fffd36" d="M -0.5,165.5 C 0.338246,165.842 0.67158,166.508 0.5,167.5C 0.166667,167.5 -0.166667,167.5 -0.5,167.5C -0.5,166.833 -0.5,166.167 -0.5,165.5 Z"/></g>
<g><path style="opacity:0.008" fill="#aef974" d="M 89.5,163.5 C 89.8333,163.5 90.1667,163.5 90.5,163.5C 90.7845,165.415 90.4511,167.081 89.5,168.5C 89.5,166.833 89.5,165.167 89.5,163.5 Z"/></g>
<g><path style="opacity:0.016" fill="#5331af" d="M 319.5,170.5 C 319.833,170.5 320.167,170.5 320.5,170.5C 320.5,172.167 320.5,173.833 320.5,175.5C 320.167,175.5 319.833,175.5 319.5,175.5C 319.5,173.833 319.5,172.167 319.5,170.5 Z"/></g>
<g><path style="opacity:0.012" fill="#57399e" d="M 318.5,175.5 C 318.833,175.5 319.167,175.5 319.5,175.5C 319.784,177.415 319.451,179.081 318.5,180.5C 318.5,178.833 318.5,177.167 318.5,175.5 Z"/></g>
<g><path style="opacity:0.004" fill="#fff845" d="M -0.5,178.5 C 0.338246,178.842 0.67158,179.508 0.5,180.5C 0.166667,180.5 -0.166667,180.5 -0.5,180.5C -0.5,179.833 -0.5,179.167 -0.5,178.5 Z"/></g>
<g><path style="opacity:0.998" fill="#e90b8d" d="M 105.5,239.5 C 106.5,240.167 107.5,240.833 108.5,241.5C 110.5,244.167 112.833,246.5 115.5,248.5C 115.5,249.167 115.833,249.5 116.5,249.5C 116.973,250.906 117.973,251.573 119.5,251.5C 121.77,253.975 124.437,255.975 127.5,257.5C 127.842,258.338 128.508,258.672 129.5,258.5C 129.973,259.906 130.973,260.573 132.5,260.5C 133.514,261.674 134.847,262.34 136.5,262.5C 135.833,261.167 134.833,260.167 133.5,259.5C 133.167,258.5 132.5,257.833 131.5,257.5C 131.5,256.833 131.167,256.5 130.5,256.5C 130.573,254.973 129.906,253.973 128.5,253.5C 128.5,252.833 128.167,252.5 127.5,252.5C 127.573,250.973 126.906,249.973 125.5,249.5C 125.573,247.973 124.906,246.973 123.5,246.5C 123.672,245.508 123.338,244.842 122.5,244.5C 122.672,243.508 122.338,242.842 121.5,242.5C 120.736,239.982 119.736,237.649 118.5,235.5C 118.435,232.572 117.768,229.905 116.5,227.5C 116.192,225.076 116.526,222.743 117.5,220.5C 118.182,221.243 118.849,221.909 119.5,222.5C 119.5,223.167 119.833,223.5 120.5,223.5C 127.575,231.911 135.575,239.244 144.5,245.5C 144.5,246.167 144.833,246.5 145.5,246.5C 158.693,257.098 173.359,265.098 189.5,270.5C 189.918,271.222 190.584,271.722 191.5,272C 190.483,273.049 190.316,274.216 191,275.5C 196.261,283.029 201.261,290.696 206,298.5C 209.5,301.333 213,304.167 216.5,307C 219.044,308.092 221.711,308.759 224.5,309C 223.244,309.417 222.577,310.25 222.5,311.5C 218.884,311.899 215.55,312.899 212.5,314.5C 210.265,314.205 208.265,314.539 206.5,315.5C 204.585,315.216 202.919,315.549 201.5,316.5C 198.287,316.19 195.287,316.523 192.5,317.5C 190.833,317.5 189.167,317.5 187.5,317.5C 187.082,316.778 186.416,316.278 185.5,316C 182.5,315.667 179.5,315.333 176.5,315C 177.833,314.667 179.167,314.333 180.5,314C 127.731,274.531 75.2307,234.698 23,194.5C 22.8238,190.312 22.3238,186.312 21.5,182.5C 21.3367,180.143 21.5034,177.81 22,175.5C 22.3333,177.5 22.6667,179.5 23,181.5C 23.7175,180.549 24.5509,180.383 25.5,181C 51,200.5 76.5,220 102,239.5C 102.333,238.833 102.667,238.167 103,237.5C 103.708,238.381 104.542,239.047 105.5,239.5 Z M 98.5,227.5 C 99.9063,227.973 100.573,228.973 100.5,230.5C 99.0937,230.027 98.427,229.027 98.5,227.5 Z M 105.5,237.5 C 107.262,238.262 108.262,239.596 108.5,241.5C 107.5,240.833 106.5,240.167 105.5,239.5C 105.5,238.833 105.5,238.167 105.5,237.5 Z M 123.5,246.5 C 124.906,246.973 125.573,247.973 125.5,249.5C 124.094,249.027 123.427,248.027 123.5,246.5 Z M 116.5,249.5 C 117.167,249.5 117.833,249.5 118.5,249.5C 118.833,250.167 119.167,250.833 119.5,251.5C 117.973,251.573 116.973,250.906 116.5,249.5 Z M 125.5,249.5 C 126.906,249.973 127.573,250.973 127.5,252.5C 126.094,252.027 125.427,251.027 125.5,249.5 Z M 128.5,253.5 C 129.906,253.973 130.573,254.973 130.5,256.5C 129.833,256.167 129.167,255.833 128.5,255.5C 128.5,254.833 128.5,254.167 128.5,253.5 Z M 129.5,258.5 C 130.167,258.5 130.833,258.5 131.5,258.5C 131.833,259.167 132.167,259.833 132.5,260.5C 130.973,260.573 129.973,259.906 129.5,258.5 Z M 133.5,259.5 C 134.833,260.167 135.833,261.167 136.5,262.5C 134.847,262.34 133.514,261.674 132.5,260.5C 133.167,260.5 133.5,260.167 133.5,259.5 Z"/></g>
<g><path style="opacity:0.981" fill="#782a8a" d="M 275.5,172.5 C 279.943,177.207 284.276,182.041 288.5,187C 288.167,187.333 287.833,187.667 287.5,188C 292.167,195 296.833,202 301.5,209C 300.588,210.625 301.255,211.459 303.5,211.5C 300.833,215.5 298.167,219.5 295.5,223.5C 294.833,223.5 294.5,223.833 294.5,224.5C 293.833,224.5 293.5,224.833 293.5,225.5C 292.833,225.5 292.5,225.833 292.5,226.5C 291.833,226.5 291.5,226.833 291.5,227.5C 290.5,228.167 289.5,228.833 288.5,229.5C 288.565,229.062 288.399,228.728 288,228.5C 287.163,230.007 285.996,230.507 284.5,230C 282.388,226.222 279.888,222.722 277,219.5C 276.91,216.538 278.243,214.204 281,212.5C 281.667,210.833 281.667,209.167 281,207.5C 276.133,201.599 271.633,195.433 267.5,189C 268.791,187.708 268.791,186.542 267.5,185.5C 270.201,181.144 272.868,176.811 275.5,172.5 Z"/></g>
<g><path style="opacity:0.012" fill="#50397d" d="M 317.5,180.5 C 317.833,180.5 318.167,180.5 318.5,180.5C 318.768,182.099 318.434,183.432 317.5,184.5C 317.5,183.167 317.5,181.833 317.5,180.5 Z"/></g>
<g><path style="opacity:0.008" fill="#e10070" d="M 0.5,180.5 C 0.833333,180.5 1.16667,180.5 1.5,180.5C 1.5,181.167 1.5,181.833 1.5,182.5C 0.661754,182.158 0.32842,181.492 0.5,180.5 Z"/></g>
<g><path style="opacity:0.004" fill="#fffde2" d="M 1.5,182.5 C 1.83333,182.5 2.16667,182.5 2.5,182.5C 2.16667,185.167 1.83333,185.167 1.5,182.5 Z"/></g>
<g><path style="opacity:0.999" fill="#672b89" d="M 299.5,160.5 C 299.5,161.167 299.5,161.833 299.5,162.5C 298.069,163.78 297.402,165.447 297.5,167.5C 296.662,167.842 296.328,168.508 296.5,169.5C 295.662,169.842 295.328,170.508 295.5,171.5C 294.662,171.842 294.328,172.508 294.5,173.5C 293.662,173.842 293.328,174.508 293.5,175.5C 292.662,175.842 292.328,176.508 292.5,177.5C 291.326,178.514 290.66,179.847 290.5,181.5C 291.833,180.833 292.833,179.833 293.5,178.5C 294.906,178.027 295.573,177.027 295.5,175.5C 296.167,175.5 296.5,175.167 296.5,174.5C 297.167,174.5 297.5,174.167 297.5,173.5C 298.338,173.158 298.672,172.492 298.5,171.5C 299.167,171.5 299.5,171.167 299.5,170.5C 300.167,170.5 300.5,170.167 300.5,169.5C 301.338,169.158 301.672,168.492 301.5,167.5C 302.167,167.5 302.5,167.167 302.5,166.5C 304.56,163.76 306.226,160.76 307.5,157.5C 309.25,156.341 310.25,154.674 310.5,152.5C 311.674,151.486 312.34,150.153 312.5,148.5C 314.293,146.574 315.293,144.241 315.5,141.5C 316.15,141.196 316.817,140.863 317.5,140.5C 318.298,142.078 318.798,143.744 319,145.5C 319.5,153.827 319.666,162.16 319.5,170.5C 318.549,171.919 318.216,173.585 318.5,175.5C 317.549,176.919 317.216,178.585 317.5,180.5C 316.566,181.568 316.232,182.901 316.5,184.5C 315.596,185.209 315.263,186.209 315.5,187.5C 314.596,188.209 314.263,189.209 314.5,190.5C 313.662,190.842 313.328,191.508 313.5,192.5C 312.596,193.209 312.263,194.209 312.5,195.5C 311.662,195.842 311.328,196.508 311.5,197.5C 310.662,197.842 310.328,198.508 310.5,199.5C 309.596,200.209 309.263,201.209 309.5,202.5C 308.833,202.5 308.5,202.833 308.5,203.5C 307.662,203.842 307.328,204.508 307.5,205.5C 306.662,205.842 306.328,206.508 306.5,207.5C 305.512,208.795 304.512,210.128 303.5,211.5C 301.255,211.459 300.588,210.625 301.5,209C 296.833,202 292.167,195 287.5,188C 287.833,187.667 288.167,187.333 288.5,187C 284.276,182.041 279.943,177.207 275.5,172.5C 279.818,164.214 283.151,155.547 285.5,146.5C 287.247,145.019 288.414,143.019 289,140.5C 288.845,142.811 288.845,145.144 289,147.5C 292.045,152.36 295.545,156.694 299.5,160.5 Z M 292.5,177.5 C 292.5,178.167 292.833,178.5 293.5,178.5C 292.833,179.833 291.833,180.833 290.5,181.5C 290.66,179.847 291.326,178.514 292.5,177.5 Z M 293.5,175.5 C 293.833,176.833 294.167,176.833 294.5,175.5C 294.833,175.5 295.167,175.5 295.5,175.5C 295.573,177.027 294.906,178.027 293.5,178.5C 292.833,178.5 292.5,178.167 292.5,177.5C 292.328,176.508 292.662,175.842 293.5,175.5 Z M 310.5,152.5 C 310.25,154.674 309.25,156.341 307.5,157.5C 307.75,155.326 308.75,153.659 310.5,152.5 Z M 315.5,141.5 C 315.293,144.241 314.293,146.574 312.5,148.5C 312.707,145.759 313.707,143.426 315.5,141.5 Z"/></g>
<g><path style="opacity:0.008" fill="#6d1f85" d="M 296.5,169.5 C 296.833,169.5 297.167,169.5 297.5,169.5C 297.5,170.167 297.833,170.5 298.5,170.5C 298.5,170.833 298.5,171.167 298.5,171.5C 297.662,171.842 297.328,172.508 297.5,173.5C 296.833,173.5 296.5,173.833 296.5,174.5C 295.833,174.5 295.5,174.833 295.5,175.5C 295.167,175.5 294.833,175.5 294.5,175.5C 294.5,174.833 294.5,174.167 294.5,173.5C 295.338,173.158 295.672,172.492 295.5,171.5C 296.338,171.158 296.672,170.492 296.5,169.5 Z"/></g>
<g><path style="opacity:0.004" fill="#492257" d="M 297.5,167.5 C 298.5,168.833 299.5,168.833 300.5,167.5C 300.5,168.167 300.5,168.833 300.5,169.5C 299.833,169.5 299.5,169.833 299.5,170.5C 299.167,170.5 298.833,170.5 298.5,170.5C 297.833,170.5 297.5,170.167 297.5,169.5C 297.5,168.833 297.5,168.167 297.5,167.5 Z"/></g>
<g><path style="opacity:0.004" fill="#270d33" d="M 302.5,166.5 C 301.833,166.5 301.5,166.833 301.5,167.5C 301.167,167.5 300.833,167.5 300.5,167.5C 301.032,164.54 301.699,164.207 302.5,166.5 Z"/></g>
<g><path style="opacity:0.008" fill="#6c247e" d="M 299.5,162.5 C 299.833,162.5 300.167,162.5 300.5,162.5C 300.167,165.167 299.833,165.167 299.5,162.5 Z"/></g>
<g><path style="opacity:0.012" fill="#5c31c2" d="M 300.5,158.5 C 300.833,158.5 301.167,158.5 301.5,158.5C 301.768,160.099 301.434,161.432 300.5,162.5C 300.5,161.167 300.5,159.833 300.5,158.5 Z"/></g>
<g><path style="opacity:0.012" fill="#442f67" d="M 301.5,155.5 C 301.833,155.5 302.167,155.5 302.5,155.5C 302.737,156.791 302.404,157.791 301.5,158.5C 301.5,157.5 301.5,156.5 301.5,155.5 Z"/></g>
<g><path style="opacity:0.012" fill="#582e74" d="M 302.5,151.5 C 302.833,151.5 303.167,151.5 303.5,151.5C 303.768,153.099 303.434,154.432 302.5,155.5C 302.5,154.167 302.5,152.833 302.5,151.5 Z"/></g>
<g><path style="opacity:0.012" fill="#631895" d="M 303.5,145.5 C 304.833,147.5 304.833,149.5 303.5,151.5C 303.5,149.5 303.5,147.5 303.5,145.5 Z"/></g>
<g><path style="opacity:0.012" fill="#6238b3" d="M 316.5,184.5 C 316.833,184.5 317.167,184.5 317.5,184.5C 317.737,185.791 317.404,186.791 316.5,187.5C 316.5,186.5 316.5,185.5 316.5,184.5 Z"/></g>
<g><path style="opacity:0.008" fill="#920092" d="M 315.5,187.5 C 315.833,187.5 316.167,187.5 316.5,187.5C 316.737,188.791 316.404,189.791 315.5,190.5C 315.5,189.5 315.5,188.5 315.5,187.5 Z"/></g>
<g><path style="opacity:0.984" fill="#88288c" d="M 267.5,185.5 C 268.791,186.542 268.791,187.708 267.5,189C 271.633,195.433 276.133,201.599 281,207.5C 281.667,209.167 281.667,210.833 281,212.5C 278.243,214.204 276.91,216.538 277,219.5C 279.888,222.722 282.388,226.222 284.5,230C 285.996,230.507 287.163,230.007 288,228.5C 288.399,228.728 288.565,229.062 288.5,229.5C 286.833,231.5 285.167,233.5 283.5,235.5C 282.833,235.5 282.5,235.833 282.5,236.5C 281.833,236.5 281.5,236.833 281.5,237.5C 280.833,237.5 280.5,237.833 280.5,238.5C 278.596,238.738 277.262,239.738 276.5,241.5C 275.508,241.328 274.842,241.662 274.5,242.5C 273.833,242.5 273.5,242.833 273.5,243.5C 271.973,243.427 270.973,244.094 270.5,245.5C 268.973,245.427 267.973,246.094 267.5,247.5C 266.508,247.328 265.842,247.662 265.5,248.5C 265.167,248.5 264.833,248.5 264.5,248.5C 264.577,247.25 265.244,246.417 266.5,246C 264.203,244.84 264.536,243.84 267.5,243C 265.333,240.167 263.167,237.333 261,234.5C 259.705,232.435 259.205,230.435 259.5,228.5C 262.167,226.167 264.833,223.833 267.5,221.5C 268.167,221.5 268.5,221.167 268.5,220.5C 269.167,220.5 269.5,220.167 269.5,219.5C 271.027,219.573 272.027,218.906 272.5,217.5C 273.833,216.833 274.833,215.833 275.5,214.5C 273.847,214.66 272.514,215.326 271.5,216.5C 270.508,216.328 269.842,216.662 269.5,217.5C 268.209,217.263 267.209,217.596 266.5,218.5C 265.209,218.263 264.209,218.596 263.5,219.5C 262.508,219.328 261.842,219.662 261.5,220.5C 251.893,222.479 242.227,222.813 232.5,221.5C 237.481,217.852 242.147,213.852 246.5,209.5C 247.167,209.5 247.5,209.167 247.5,208.5C 248.167,208.5 248.5,208.167 248.5,207.5C 249.167,207.5 249.5,207.167 249.5,206.5C 250.167,206.5 250.5,206.167 250.5,205.5C 251.167,205.5 251.5,205.167 251.5,204.5C 252.167,204.5 252.5,204.167 252.5,203.5C 253.167,203.5 253.5,203.167 253.5,202.5C 254.167,202.5 254.5,202.167 254.5,201.5C 256.156,199.54 257.823,197.54 259.5,195.5C 260.167,195.5 260.5,195.167 260.5,194.5C 263.075,191.681 265.408,188.681 267.5,185.5 Z M 275.5,214.5 C 274.833,215.833 273.833,216.833 272.5,217.5C 272.5,216.833 272.167,216.5 271.5,216.5C 272.514,215.326 273.847,214.66 275.5,214.5 Z M 269.5,217.5 C 269.842,216.662 270.508,216.328 271.5,216.5C 272.167,216.5 272.5,216.833 272.5,217.5C 272.027,218.906 271.027,219.573 269.5,219.5C 269.5,219.167 269.5,218.833 269.5,218.5C 270.833,218.167 270.833,217.833 269.5,217.5 Z"/></g>
<g><path style="opacity:0.008" fill="#f1f971" d="M 88.5,168.5 C 88.8333,168.5 89.1667,168.5 89.5,168.5C 89.1667,208.5 88.8333,208.5 88.5,168.5 Z"/></g>
<g><path style="opacity:0.008" fill="#74ff8d" d="M 314.5,190.5 C 314.833,190.5 315.167,190.5 315.5,190.5C 315.672,191.492 315.338,192.158 314.5,192.5C 314.5,191.833 314.5,191.167 314.5,190.5 Z"/></g>
<g><path style="opacity:0.004" fill="#2e0f3a" d="M 260.5,194.5 C 259.833,194.5 259.5,194.833 259.5,195.5C 258.287,194.503 258.454,193.503 260,192.5C 260.464,193.094 260.631,193.761 260.5,194.5 Z"/></g>
<g><path style="opacity:0.012" fill="#4e0c72" d="M 313.5,192.5 C 313.833,192.5 314.167,192.5 314.5,192.5C 314.737,193.791 314.404,194.791 313.5,195.5C 313.5,194.5 313.5,193.5 313.5,192.5 Z"/></g>
<g><path style="opacity:0.008" fill="#752c8d" d="M 312.5,195.5 C 312.833,195.5 313.167,195.5 313.5,195.5C 313.672,196.492 313.338,197.158 312.5,197.5C 312.5,196.833 312.5,196.167 312.5,195.5 Z"/></g>
<g><path style="opacity:0.012" fill="#4bffc5" d="M 311.5,197.5 C 311.833,197.5 312.167,197.5 312.5,197.5C 312.672,198.492 312.338,199.158 311.5,199.5C 311.5,198.833 311.5,198.167 311.5,197.5 Z"/></g>
<g><path style="opacity:0.012" fill="#53fba6" d="M 310.5,199.5 C 310.833,199.5 311.167,199.5 311.5,199.5C 311.737,200.791 311.404,201.791 310.5,202.5C 310.5,201.5 310.5,200.5 310.5,199.5 Z"/></g>
<g><path style="opacity:0.008" fill="#860d50" d="M 16.5,200.5 C 17.1667,200.5 17.5,200.833 17.5,201.5C 17.2533,203.975 16.5866,203.975 15.5,201.5C 15.6236,200.893 15.9569,200.56 16.5,200.5 Z"/></g>
<g><path style="opacity:0.012" fill="#741273" d="M 254.5,201.5 C 253.833,201.5 253.5,201.833 253.5,202.5C 252.833,202.5 252.5,202.833 252.5,203.5C 251.833,203.5 251.5,203.833 251.5,204.5C 250.833,204.5 250.5,204.833 250.5,205.5C 249.833,205.5 249.5,205.833 249.5,206.5C 248.833,206.5 248.5,206.833 248.5,207.5C 247.833,207.5 247.5,207.833 247.5,208.5C 246.833,208.5 246.5,208.833 246.5,209.5C 245.761,209.631 245.094,209.464 244.5,209C 247.667,205.833 250.833,202.667 254,199.5C 254.464,200.094 254.631,200.761 254.5,201.5 Z"/></g>
<g><path style="opacity:0.012" fill="#5500aa" d="M 309.5,202.5 C 309.833,202.5 310.167,202.5 310.5,202.5C 310.315,203.17 309.981,203.17 309.5,202.5 Z"/></g>
<g><path style="opacity:0.012" fill="#8ffdc5" d="M 308.5,203.5 C 308.833,203.5 309.167,203.5 309.5,203.5C 309.672,204.492 309.338,205.158 308.5,205.5C 308.5,204.833 308.5,204.167 308.5,203.5 Z"/></g>
<g><path style="opacity:1" fill="#ed148f" d="M 21.5,182.5 C 22.3238,186.312 22.8238,190.312 23,194.5C 75.2307,234.698 127.731,274.531 180.5,314C 179.167,314.333 177.833,314.667 176.5,315C 179.5,315.333 182.5,315.667 185.5,316C 186.416,316.278 187.082,316.778 187.5,317.5C 165.929,318.293 144.929,315.293 124.5,308.5C 123.791,307.596 122.791,307.263 121.5,307.5C 101.777,299.785 83.7771,289.118 67.5,275.5C 67.5,274.833 67.1667,274.5 66.5,274.5C 61.1667,269.833 56.1667,264.833 51.5,259.5C 51.5,258.833 51.1667,258.5 50.5,258.5C 48.1829,254.854 45.5162,251.52 42.5,248.5C 41.4884,247.128 40.4884,245.795 39.5,244.5C 39.0679,243.29 38.4013,242.29 37.5,241.5C 35.0699,236.963 32.4032,232.63 29.5,228.5C 29.6716,227.508 29.3382,226.842 28.5,226.5C 28.6716,225.508 28.3382,224.842 27.5,224.5C 27.6716,223.508 27.3382,222.842 26.5,222.5C 26.6716,221.508 26.3382,220.842 25.5,220.5C 25.6716,219.508 25.3382,218.842 24.5,218.5C 24.7373,217.209 24.404,216.209 23.5,215.5C 23.6716,214.508 23.3382,213.842 22.5,213.5C 22.5,212.5 22.5,211.5 22.5,210.5C 22.0843,205.507 21.7509,200.507 21.5,195.5C 21.5,191.167 21.5,186.833 21.5,182.5 Z"/></g>
<g><path style="opacity:0.008" fill="#74f9a8" d="M 307.5,205.5 C 307.833,205.5 308.167,205.5 308.5,205.5C 308.672,206.492 308.338,207.158 307.5,207.5C 307.5,206.833 307.5,206.167 307.5,205.5 Z"/></g>
<g><path style="opacity:0.008" fill="#74ff8d" d="M 306.5,207.5 C 306.833,207.5 307.167,207.5 307.5,207.5C 307.167,210.167 306.833,210.167 306.5,207.5 Z"/></g>
<g><path style="opacity:0.012" fill="#d30069" d="M 21.5,210.5 C 21.5,211.5 21.5,212.5 21.5,213.5C 20.1667,212.5 20.1667,211.5 21.5,210.5 Z"/></g>
<g><path style="opacity:0.012" fill="#fffdd3" d="M 93.5,214.5 C 93.1667,214.5 92.8333,214.5 92.5,214.5C 92.8333,210.5 93.1667,210.5 93.5,214.5 Z"/></g>
<g><path style="opacity:0.008" fill="#ff008d" d="M 21.5,213.5 C 21.8333,213.5 22.1667,213.5 22.5,213.5C 22.5,214.167 22.5,214.833 22.5,215.5C 21.6618,215.158 21.3284,214.492 21.5,213.5 Z"/></g>
<g><path style="opacity:0.012" fill="#c8fc9b" d="M 93.5,214.5 C 94.525,214.897 94.6917,215.563 94,216.5C 93.5357,215.906 93.369,215.239 93.5,214.5 Z"/></g>
<g><path style="opacity:0.012" fill="#fffdd3" d="M 22.5,215.5 C 22.8333,215.5 23.1667,215.5 23.5,215.5C 23.5,216.5 23.5,217.5 23.5,218.5C 22.596,217.791 22.2627,216.791 22.5,215.5 Z"/></g>
<g><path style="opacity:0.004" fill="#fe0000" d="M 117.5,218.5 C 118.833,219.167 118.833,219.167 117.5,218.5 Z"/></g>
<g><path style="opacity:0.004" fill="#fffde2" d="M 23.5,218.5 C 23.8333,218.5 24.1667,218.5 24.5,218.5C 24.5,219.167 24.5,219.833 24.5,220.5C 23.6618,220.158 23.3284,219.492 23.5,218.5 Z"/></g>
<g><path style="opacity:0.016" fill="#7f2386" d="M 266.5,218.5 C 267.5,218.5 268.5,218.5 269.5,218.5C 269.5,218.833 269.5,219.167 269.5,219.5C 268.833,219.5 268.5,219.833 268.5,220.5C 267.833,220.5 267.5,220.833 267.5,221.5C 266.167,221.167 264.833,220.833 263.5,220.5C 263.5,220.167 263.5,219.833 263.5,219.5C 264.791,219.737 265.791,219.404 266.5,218.5 Z"/></g>
<g><path style="opacity:0.004" fill="#a31ea2" d="M 313.5,220.5 C 313.897,219.475 314.563,219.308 315.5,220C 314.906,220.464 314.239,220.631 313.5,220.5 Z"/></g>
<g><path style="opacity:0.008" fill="#7e007f" d="M 230.5,220.5 C 231.833,221.167 231.833,221.167 230.5,220.5 Z"/></g>
<g><path style="opacity:0.008" fill="#8d008d" d="M 261.5,221.5 C 261.5,221.167 261.5,220.833 261.5,220.5C 262.167,220.5 262.833,220.5 263.5,220.5C 263.158,221.338 262.492,221.672 261.5,221.5 Z"/></g>
<g><path style="opacity:0.008" fill="#7e007f" d="M 313.5,220.5 C 312.833,221.167 312.833,221.167 313.5,220.5 Z"/></g>
<g><path style="opacity:0.008" fill="#ff008d" d="M 24.5,220.5 C 24.8333,220.5 25.1667,220.5 25.5,220.5C 25.5,221.167 25.5,221.833 25.5,222.5C 24.6618,222.158 24.3284,221.492 24.5,220.5 Z"/></g>
<g><path style="opacity:0.004" fill="#ffef5f" d="M 120.5,223.5 C 119.833,223.5 119.5,223.167 119.5,222.5C 119.747,220.025 120.413,220.025 121.5,222.5C 121.376,223.107 121.043,223.44 120.5,223.5 Z"/></g>
<g><path style="opacity:0.008" fill="#6d0e6c" d="M 257.5,222.5 C 258.568,221.566 259.901,221.232 261.5,221.5C 260.432,222.434 259.099,222.768 257.5,222.5 Z"/></g>
<g><path style="opacity:0.008" fill="#822081" d="M 252.5,223.5 C 253.919,222.549 255.585,222.216 257.5,222.5C 256.081,223.451 254.415,223.784 252.5,223.5 Z"/></g>
<g><path style="opacity:0.008" fill="#ff008d" d="M 25.5,222.5 C 25.8333,222.5 26.1667,222.5 26.5,222.5C 26.5,223.167 26.5,223.833 26.5,224.5C 25.6618,224.158 25.3284,223.492 25.5,222.5 Z"/></g>
<g><path style="opacity:0.008" fill="#d30b88" d="M 116.5,227.5 C 116.543,231.893 116.043,232.226 115,228.5C 114.333,226.167 114.333,223.833 115,221.5C 115.191,223.708 115.691,225.708 116.5,227.5 Z"/></g>
<g><path style="opacity:0.008" fill="#901c7f" d="M 252.5,223.5 C 246.347,224.653 240.014,224.82 233.5,224C 239.825,223.5 246.158,223.334 252.5,223.5 Z"/></g>
<g><path style="opacity:0.012" fill="#a955aa" d="M 295.5,223.5 C 296.833,224.167 296.833,224.167 295.5,223.5 Z"/></g>
<g><path style="opacity:0.012" fill="#a955aa" d="M 294.5,224.5 C 294.833,224.5 295.167,224.5 295.5,224.5C 295.315,225.17 294.981,225.17 294.5,224.5 Z"/></g>
<g><path style="opacity:0.004" fill="#fffde2" d="M 26.5,224.5 C 26.8333,224.5 27.1667,224.5 27.5,224.5C 27.5,225.167 27.5,225.833 27.5,226.5C 26.6618,226.158 26.3284,225.492 26.5,224.5 Z"/></g>
<g><path style="opacity:0.004" fill="#a625a6" d="M 307.5,226.5 C 306.833,226.5 306.5,226.833 306.5,227.5C 304.025,227.253 304.025,226.587 306.5,225.5C 307.107,225.624 307.44,225.957 307.5,226.5 Z"/></g>
<g><path style="opacity:0.008" fill="#ff008d" d="M 27.5,226.5 C 27.8333,226.5 28.1667,226.5 28.5,226.5C 28.5,227.167 28.5,227.833 28.5,228.5C 27.6618,228.158 27.3284,227.492 27.5,226.5 Z"/></g>
<g><path style="opacity:0.004" fill="#331b45" d="M 314.5,227.5 C 316.132,224.791 316.632,225.125 316,228.5C 314.893,229.712 314.393,229.379 314.5,227.5 Z"/></g>
<g><path style="opacity:0.008" fill="#641369" d="M 293.5,225.5 C 293.833,225.5 294.167,225.5 294.5,225.5C 294.315,227.196 293.481,228.529 292,229.5C 291.536,228.906 291.369,228.239 291.5,227.5C 292.167,227.5 292.5,227.167 292.5,226.5C 293.167,226.5 293.5,226.167 293.5,225.5 Z"/></g>
<g><path style="opacity:0.004" fill="#eafed2" d="M 28.5,228.5 C 28.8333,228.5 29.1667,228.5 29.5,228.5C 29.1667,231.167 28.8333,231.167 28.5,228.5 Z"/></g>
<g><path style="opacity:0.008" fill="#74ff8d" d="M 313.5,232.5 C 313.369,231.761 313.536,231.094 314,230.5C 314.692,231.437 314.525,232.103 313.5,232.5 Z"/></g>
<g><path style="opacity:0.012" fill="#defe94" d="M 117.5,235.5 C 116.427,234.749 116.26,233.749 117,232.5C 117.483,233.448 117.649,234.448 117.5,235.5 Z"/></g>
<g><path style="opacity:0.985" fill="#9b248d" d="M 259.5,228.5 C 259.205,230.435 259.705,232.435 261,234.5C 263.167,237.333 265.333,240.167 267.5,243C 264.536,243.84 264.203,244.84 266.5,246C 265.244,246.417 264.577,247.25 264.5,248.5C 264.833,248.5 265.167,248.5 265.5,248.5C 266.492,248.672 267.158,248.338 267.5,247.5C 269.099,247.768 270.432,247.434 271.5,246.5C 273.553,246.598 275.22,245.931 276.5,244.5C 276.833,244.5 277.167,244.5 277.5,244.5C 277.918,245.222 278.584,245.722 279.5,246C 278.692,246.308 278.025,246.808 277.5,247.5C 281.333,253.167 285.167,258.833 289,264.5C 289.838,263.001 290.671,262.668 291.5,263.5C 291.443,264.609 291.11,265.609 290.5,266.5C 289.833,266.5 289.5,266.833 289.5,267.5C 288.833,267.5 288.5,267.833 288.5,268.5C 287.833,268.5 287.5,268.833 287.5,269.5C 286.833,269.5 286.5,269.833 286.5,270.5C 285.833,270.5 285.5,270.833 285.5,271.5C 284.5,271.833 283.833,272.5 283.5,273.5C 282.167,274.167 281.167,275.167 280.5,276.5C 280.167,276.5 279.833,276.5 279.5,276.5C 277.742,276.877 276.075,277.544 274.5,278.5C 264.836,264.508 255.17,250.508 245.5,236.5C 249.833,233.331 254.5,230.664 259.5,228.5 Z M 273.5,244.5 C 274.5,244.5 275.5,244.5 276.5,244.5C 275.22,245.931 273.553,246.598 271.5,246.5C 272.167,245.833 272.833,245.167 273.5,244.5 Z M 270.5,245.5 C 270.5,246.167 270.833,246.5 271.5,246.5C 270.432,247.434 269.099,247.768 267.5,247.5C 267.973,246.094 268.973,245.427 270.5,245.5 Z"/></g>
<g><path style="opacity:0.008" fill="#752c8d" d="M 312.5,232.5 C 312.833,232.5 313.167,232.5 313.5,232.5C 313.672,233.492 313.338,234.158 312.5,234.5C 312.5,233.833 312.5,233.167 312.5,232.5 Z"/></g>
<g><path style="opacity:0.004" fill="#f0fa3e" d="M 104.5,236.5 C 103.833,236.5 103.5,236.167 103.5,235.5C 103.747,233.025 104.413,233.025 105.5,235.5C 105.376,236.107 105.043,236.44 104.5,236.5 Z"/></g>
<g><path style="opacity:0.008" fill="#7e007f" d="M 283.5,235.5 C 284.833,236.167 284.833,236.167 283.5,235.5 Z"/></g>
<g><path style="opacity:0.012" fill="#620062" d="M 311.5,234.5 C 311.833,234.5 312.167,234.5 312.5,234.5C 312.672,235.492 312.338,236.158 311.5,236.5C 311.5,235.833 311.5,235.167 311.5,234.5 Z"/></g>
<g><path style="opacity:0.012" fill="#fffcb3" d="M 117.5,235.5 C 117.833,235.5 118.167,235.5 118.5,235.5C 118.167,239.5 117.833,239.5 117.5,235.5 Z"/></g>
<g><path style="opacity:0.012" fill="#a900aa" d="M 282.5,236.5 C 282.833,236.5 283.167,236.5 283.5,236.5C 283.315,237.17 282.981,237.17 282.5,236.5 Z"/></g>
<g><path style="opacity:0.008" fill="#7e007f" d="M 310.5,236.5 C 310.833,236.5 311.167,236.5 311.5,236.5C 311.672,237.492 311.338,238.158 310.5,238.5C 310.5,237.833 310.5,237.167 310.5,236.5 Z"/></g>
<g><path style="opacity:0.008" fill="#790f55" d="M 239.5,238.5 C 238.508,238.328 237.842,238.662 237.5,239.5C 235.653,239.766 234.986,239.432 235.5,238.5C 236.995,237.295 238.328,237.295 239.5,238.5 Z"/></g>
<g><path style="opacity:0.012" fill="#a955aa" d="M 281.5,237.5 C 281.833,237.5 282.167,237.5 282.5,237.5C 282.315,238.17 281.981,238.17 281.5,237.5 Z"/></g>
<g><path style="opacity:0.012" fill="#540055" d="M 280.5,238.5 C 280.833,238.5 281.167,238.5 281.5,238.5C 281.315,239.17 280.981,239.17 280.5,238.5 Z"/></g>
<g><path style="opacity:0.008" fill="#74f9a8" d="M 309.5,238.5 C 309.833,238.5 310.167,238.5 310.5,238.5C 310.672,239.492 310.338,240.158 309.5,240.5C 309.5,239.833 309.5,239.167 309.5,238.5 Z"/></g>
<g><path style="opacity:0.999" fill="#a9208d" d="M 245.5,236.5 C 255.17,250.508 264.836,264.508 274.5,278.5C 276.075,277.544 277.742,276.877 279.5,276.5C 279.167,277.167 278.833,277.833 278.5,278.5C 277.833,278.5 277.5,278.833 277.5,279.5C 276.833,279.5 276.5,279.833 276.5,280.5C 275.833,280.5 275.5,280.833 275.5,281.5C 274.833,281.5 274.5,281.833 274.5,282.5C 273.833,282.5 273.5,282.833 273.5,283.5C 271.668,284.248 270.001,285.248 268.5,286.5C 267.849,285.909 267.182,285.243 266.5,284.5C 263.869,286.908 261.369,286.908 259,284.5C 249.628,270.316 240.128,256.316 230.5,242.5C 233.018,241.736 235.351,240.736 237.5,239.5C 238.492,239.672 239.158,239.338 239.5,238.5C 241.5,237.833 243.5,237.167 245.5,236.5 Z"/></g>
<g><path style="opacity:0.012" fill="#671166" d="M 283.5,241.5 C 282.508,241.328 281.842,241.662 281.5,242.5C 280.833,242.5 280.167,242.5 279.5,242.5C 280.538,240.481 281.872,240.147 283.5,241.5 Z"/></g>
<g><path style="opacity:0.008" fill="#8d278d" d="M 308.5,240.5 C 308.833,240.5 309.167,240.5 309.5,240.5C 309.672,241.492 309.338,242.158 308.5,242.5C 308.5,241.833 308.5,241.167 308.5,240.5 Z"/></g>
<g><path style="opacity:0.004" fill="#fff9d3" d="M 37.5,241.5 C 37.631,242.239 37.4643,242.906 37,243.5C 36.3083,242.563 36.475,241.897 37.5,241.5 Z"/></g>
<g><path style="opacity:0.012" fill="#d6fcb3" d="M 223.5,243.5 C 224.251,242.427 225.251,242.26 226.5,243C 225.552,243.483 224.552,243.649 223.5,243.5 Z"/></g>
<g><path style="opacity:0.004" fill="#c50fc5" d="M 276.5,241.5 C 277.391,242.11 278.391,242.443 279.5,242.5C 279.5,242.833 279.5,243.167 279.5,243.5C 278.209,243.263 277.209,243.596 276.5,244.5C 275.5,244.5 274.5,244.5 273.5,244.5C 273.5,244.167 273.5,243.833 273.5,243.5C 274.167,243.5 274.5,243.167 274.5,242.5C 275.492,242.672 276.158,242.338 276.5,241.5 Z"/></g>
<g><path style="opacity:0.981" fill="#86288c" d="M 314.5,227.5 C 313.069,228.78 312.402,230.447 312.5,232.5C 311.662,232.842 311.328,233.508 311.5,234.5C 310.662,234.842 310.328,235.508 310.5,236.5C 309.662,236.842 309.328,237.508 309.5,238.5C 308.662,238.842 308.328,239.508 308.5,240.5C 307.662,240.842 307.328,241.508 307.5,242.5C 306.662,242.842 306.328,243.508 306.5,244.5C 305.833,244.5 305.5,244.833 305.5,245.5C 304.662,245.842 304.328,246.508 304.5,247.5C 303.662,247.842 303.328,248.508 303.5,249.5C 302.833,249.5 302.5,249.833 302.5,250.5C 301.662,250.842 301.328,251.508 301.5,252.5C 300.833,252.5 300.5,252.833 300.5,253.5C 299.833,253.5 299.5,253.833 299.5,254.5C 298.662,254.842 298.328,255.508 298.5,256.5C 297.833,256.5 297.5,256.833 297.5,257.5C 296.833,257.5 296.5,257.833 296.5,258.5C 295.662,258.842 295.328,259.508 295.5,260.5C 294.833,260.5 294.5,260.833 294.5,261.5C 293.5,262.167 292.5,262.833 291.5,263.5C 290.671,262.668 289.838,263.001 289,264.5C 285.167,258.833 281.333,253.167 277.5,247.5C 278.025,246.808 278.692,246.308 279.5,246C 278.584,245.722 277.918,245.222 277.5,244.5C 278.492,244.672 279.158,244.338 279.5,243.5C 280.492,243.672 281.158,243.338 281.5,242.5C 282.492,242.672 283.158,242.338 283.5,241.5C 291.699,237.62 299.365,232.953 306.5,227.5C 307.167,227.5 307.5,227.167 307.5,226.5C 310.149,224.86 312.816,223.193 315.5,221.5C 315.833,221.667 316.167,221.833 316.5,222C 315.139,223.584 314.472,225.418 314.5,227.5 Z"/></g>
<g><path style="opacity:0.008" fill="#fff9a8" d="M 121.5,242.5 C 121.5,243.167 121.5,243.833 121.5,244.5C 120.167,243.833 120.167,243.167 121.5,242.5 Z"/></g>
<g><path style="opacity:0.004" fill="#c7fce2" d="M 307.5,242.5 C 307.833,242.5 308.167,242.5 308.5,242.5C 308.672,243.492 308.338,244.158 307.5,244.5C 307.5,243.833 307.5,243.167 307.5,242.5 Z"/></g>
<g><path style="opacity:0.004" fill="#f4fb3e" d="M 144.5,245.5 C 145.497,244.287 146.497,244.454 147.5,246C 146.906,246.464 146.239,246.631 145.5,246.5C 144.833,246.5 144.5,246.167 144.5,245.5 Z"/></g>
<g><path style="opacity:0.981" fill="#bb1a8d" d="M 230.5,242.5 C 240.128,256.316 249.628,270.316 259,284.5C 261.369,286.908 263.869,286.908 266.5,284.5C 267.182,285.243 267.849,285.909 268.5,286.5C 268.5,286.833 268.5,287.167 268.5,287.5C 266.246,288.124 264.579,289.457 263.5,291.5C 262.508,291.328 261.842,291.662 261.5,292.5C 260.833,292.5 260.5,292.833 260.5,293.5C 259.508,293.328 258.842,293.662 258.5,294.5C 257.833,294.5 257.5,294.833 257.5,295.5C 256.508,295.328 255.842,295.662 255.5,296.5C 254.833,296.5 254.5,296.833 254.5,297.5C 253.508,297.328 252.842,297.662 252.5,298.5C 249.669,299.079 247.336,300.412 245.5,302.5C 245.167,302.5 244.833,302.5 244.5,302.5C 241.781,298.991 238.115,296.825 233.5,296C 228.546,289.93 224.213,283.43 220.5,276.5C 218.236,275.131 215.903,274.131 213.5,273.5C 220.507,273.166 227.507,272.666 234.5,272C 231.986,270.748 229.32,270.248 226.5,270.5C 225.432,269.566 224.099,269.232 222.5,269.5C 216.751,267.127 211.084,264.46 205.5,261.5C 205.5,260.833 205.167,260.5 204.5,260.5C 200.792,257.873 197.292,254.873 194,251.5C 193.761,249.275 194.595,248.942 196.5,250.5C 208.216,249.327 219.55,246.66 230.5,242.5 Z"/></g>
<g><path style="opacity:0.012" fill="#5500aa" d="M 306.5,244.5 C 306.833,244.5 307.167,244.5 307.5,244.5C 307.315,245.17 306.981,245.17 306.5,244.5 Z"/></g>
<g><path style="opacity:0.004" fill="#fffde2" d="M 39.5,244.5 C 39.631,245.239 39.4643,245.906 39,246.5C 38.3083,245.563 38.475,244.897 39.5,244.5 Z"/></g>
<g><path style="opacity:0.008" fill="#e4fc8d" d="M 121.5,244.5 C 121.833,244.5 122.167,244.5 122.5,244.5C 122.167,247.167 121.833,247.167 121.5,244.5 Z"/></g>
<g><path style="opacity:0.008" fill="#a700a7" d="M 305.5,245.5 C 305.833,245.5 306.167,245.5 306.5,245.5C 306.672,246.492 306.338,247.158 305.5,247.5C 305.5,246.833 305.5,246.167 305.5,245.5 Z"/></g>
<g><path style="opacity:0.008" fill="#c2f587" d="M 115.5,248.5 C 116.779,247.285 117.779,247.618 118.5,249.5C 117.833,249.5 117.167,249.5 116.5,249.5C 115.833,249.5 115.5,249.167 115.5,248.5 Z"/></g>
<g><path style="opacity:0.004" fill="#e238e2" d="M 304.5,247.5 C 304.833,247.5 305.167,247.5 305.5,247.5C 305.672,248.492 305.338,249.158 304.5,249.5C 304.5,248.833 304.5,248.167 304.5,247.5 Z"/></g>
<g><path style="opacity:0.004" fill="#d200d2" d="M 42.5,248.5 C 42.631,249.239 42.4643,249.906 42,250.5C 41.3083,249.563 41.475,248.897 42.5,248.5 Z"/></g>
<g><path style="opacity:0.012" fill="#a900aa" d="M 303.5,249.5 C 303.833,249.5 304.167,249.5 304.5,249.5C 304.315,250.17 303.981,250.17 303.5,249.5 Z"/></g>
<g><path style="opacity:0.004" fill="#fe00ff" d="M 191.5,250.5 C 192.833,251.167 192.833,251.167 191.5,250.5 Z"/></g>
<g><path style="opacity:0.004" fill="#c200c2" d="M 302.5,250.5 C 302.833,250.5 303.167,250.5 303.5,250.5C 303.672,251.492 303.338,252.158 302.5,252.5C 302.5,251.833 302.5,251.167 302.5,250.5 Z"/></g>
<g><path style="opacity:0.012" fill="#540055" d="M 301.5,252.5 C 301.833,252.5 302.167,252.5 302.5,252.5C 302.315,253.17 301.981,253.17 301.5,252.5 Z"/></g>
<g><path style="opacity:0.004" fill="#341733" d="M 300.5,253.5 C 300.833,253.5 301.167,253.5 301.5,253.5C 301.573,255.027 300.906,256.027 299.5,256.5C 299.5,255.833 299.5,255.167 299.5,254.5C 300.167,254.5 300.5,254.167 300.5,253.5 Z"/></g>
<g><path style="opacity:0.012" fill="#fffda9" d="M 128.5,255.5 C 129.167,255.833 129.833,256.167 130.5,256.5C 131.167,256.5 131.5,256.833 131.5,257.5C 131.5,257.833 131.5,258.167 131.5,258.5C 130.833,258.5 130.167,258.5 129.5,258.5C 129.158,257.662 128.492,257.328 127.5,257.5C 127.833,256.833 128.167,256.167 128.5,255.5 Z"/></g>
<g><path style="opacity:0.012" fill="#a955aa" d="M 298.5,256.5 C 298.833,256.5 299.167,256.5 299.5,256.5C 299.315,257.17 298.981,257.17 298.5,256.5 Z"/></g>
<g><path style="opacity:0.004" fill="#fffa46" d="M 50.5,258.5 C 51.1667,258.5 51.5,258.833 51.5,259.5C 51.2533,261.975 50.5866,261.975 49.5,259.5C 49.6236,258.893 49.9569,258.56 50.5,258.5 Z"/></g>
<g><path style="opacity:0.008" fill="#771076" d="M 297.5,257.5 C 297.833,257.5 298.167,257.5 298.5,257.5C 298.573,259.027 297.906,260.027 296.5,260.5C 296.5,259.833 296.5,259.167 296.5,258.5C 297.167,258.5 297.5,258.167 297.5,257.5 Z"/></g>
<g><path style="opacity:0.012" fill="#a900aa" d="M 295.5,260.5 C 295.833,260.5 296.167,260.5 296.5,260.5C 296.315,261.17 295.981,261.17 295.5,260.5 Z"/></g>
<g><path style="opacity:0.016" fill="#a8134b" d="M 204.5,260.5 C 205.167,260.5 205.5,260.833 205.5,261.5C 204.503,262.713 203.503,262.546 202.5,261C 203.094,260.536 203.761,260.369 204.5,260.5 Z"/></g>
<g><path style="opacity:0.012" fill="#a955aa" d="M 294.5,261.5 C 294.833,261.5 295.167,261.5 295.5,261.5C 295.315,262.17 294.981,262.17 294.5,261.5 Z"/></g>
<g><path style="opacity:0.016" fill="#7e3f7f" d="M 290.5,266.5 C 291.833,267.167 291.833,267.167 290.5,266.5 Z"/></g>
<g><path style="opacity:0.016" fill="#7e3f7f" d="M 289.5,267.5 C 289.833,267.5 290.167,267.5 290.5,267.5C 290.315,268.17 289.981,268.17 289.5,267.5 Z"/></g>
<g><path style="opacity:0.016" fill="#7e3f7f" d="M 288.5,268.5 C 288.833,268.5 289.167,268.5 289.5,268.5C 289.315,269.17 288.981,269.17 288.5,268.5 Z"/></g>
<g><path style="opacity:0.012" fill="#c4fca2" d="M 222.5,269.5 C 223.568,270.434 224.901,270.768 226.5,270.5C 224.153,271.895 221.819,271.728 219.5,270C 220.448,269.517 221.448,269.351 222.5,269.5 Z"/></g>
<g><path style="opacity:0.004" fill="#a513a5" d="M 287.5,269.5 C 287.833,269.5 288.167,269.5 288.5,269.5C 288.262,271.404 287.262,272.738 285.5,273.5C 285.5,272.833 285.5,272.167 285.5,271.5C 286.167,271.5 286.5,271.167 286.5,270.5C 287.167,270.5 287.5,270.167 287.5,269.5 Z"/></g>
<g><path style="opacity:0.004" fill="#b91cb8" d="M 283.5,273.5 C 284.167,273.5 284.833,273.5 285.5,273.5C 284.452,275.933 283.786,275.933 283.5,273.5 Z"/></g>
<g><path style="opacity:0.008" fill="#f6f482" d="M 66.5,274.5 C 67.1667,274.5 67.5,274.833 67.5,275.5C 66.5029,276.713 65.5029,276.546 64.5,275C 65.0944,274.536 65.7611,274.369 66.5,274.5 Z"/></g>
<g><path style="opacity:0.008" fill="#7b137b" d="M 280.5,276.5 C 282.933,276.786 282.933,277.452 280.5,278.5C 280.5,277.833 280.5,277.167 280.5,276.5 Z"/></g>
<g><path style="opacity:0.004" fill="#e400e4" d="M 278.5,278.5 C 279.167,278.5 279.833,278.5 280.5,278.5C 280.167,279.5 279.5,280.167 278.5,280.5C 278.167,280.5 277.833,280.5 277.5,280.5C 277.5,280.167 277.5,279.833 277.5,279.5C 278.167,279.5 278.5,279.167 278.5,278.5 Z"/></g>
<g><path style="opacity:0.004" fill="#711634" d="M 276.5,280.5 C 276.833,280.5 277.167,280.5 277.5,280.5C 277.833,280.5 278.167,280.5 278.5,280.5C 278.027,281.906 277.027,282.573 275.5,282.5C 275.5,282.167 275.5,281.833 275.5,281.5C 276.167,281.5 276.5,281.167 276.5,280.5 Z"/></g>
<g><path style="opacity:0.012" fill="#a90054" d="M 274.5,282.5 C 274.833,282.5 275.167,282.5 275.5,282.5C 275.315,283.17 274.981,283.17 274.5,282.5 Z"/></g>
<g><path style="opacity:0.016" fill="#7e007f" d="M 273.5,283.5 C 273.833,283.5 274.167,283.5 274.5,283.5C 274.315,284.17 273.981,284.17 273.5,283.5 Z"/></g>
<g><path style="opacity:0.012" fill="#a900aa" d="M 268.5,287.5 C 269.833,288.167 269.833,288.167 268.5,287.5 Z"/></g>
<g><path style="opacity:0.012" fill="#a900aa" d="M 263.5,291.5 C 264.833,292.167 264.833,292.167 263.5,291.5 Z"/></g>
<g><path style="opacity:0.008" fill="#7e007f" d="M 261.5,293.5 C 261.5,293.167 261.5,292.833 261.5,292.5C 262.167,292.5 262.833,292.5 263.5,292.5C 263.158,293.338 262.492,293.672 261.5,293.5 Z"/></g>
<g><path style="opacity:0.016" fill="#be007e" d="M 260.5,293.5 C 260.833,293.5 261.167,293.5 261.5,293.5C 261.315,294.17 260.981,294.17 260.5,293.5 Z"/></g>
<g><path style="opacity:0.004" fill="#3b123a" d="M 258.5,294.5 C 259.167,294.5 259.833,294.5 260.5,294.5C 260.027,295.906 259.027,296.573 257.5,296.5C 257.5,296.167 257.5,295.833 257.5,295.5C 258.167,295.5 258.5,295.167 258.5,294.5 Z"/></g>
<g><path style="opacity:0.985" fill="#d1128d" d="M 189.5,270.5 C 197.731,271.916 205.731,272.916 213.5,273.5C 215.903,274.131 218.236,275.131 220.5,276.5C 224.213,283.43 228.546,289.93 233.5,296C 238.115,296.825 241.781,298.991 244.5,302.5C 243.833,302.5 243.5,302.833 243.5,303.5C 240.088,304.075 237.088,305.408 234.5,307.5C 233.209,307.263 232.209,307.596 231.5,308.5C 230.508,308.328 229.842,308.662 229.5,309.5C 228.209,309.263 227.209,309.596 226.5,310.5C 225.209,310.263 224.209,310.596 223.5,311.5C 223.167,311.5 222.833,311.5 222.5,311.5C 222.577,310.25 223.244,309.417 224.5,309C 221.711,308.759 219.044,308.092 216.5,307C 213,304.167 209.5,301.333 206,298.5C 201.261,290.696 196.261,283.029 191,275.5C 190.316,274.216 190.483,273.049 191.5,272C 190.584,271.722 189.918,271.222 189.5,270.5 Z"/></g>
<g><path style="opacity:0.008" fill="#aafd7f" d="M 255.5,297.5 C 255.5,297.167 255.5,296.833 255.5,296.5C 256.167,296.5 256.833,296.5 257.5,296.5C 257.158,297.338 256.492,297.672 255.5,297.5 Z"/></g>
<g><path style="opacity:0.012" fill="#a900aa" d="M 254.5,297.5 C 254.833,297.5 255.167,297.5 255.5,297.5C 255.315,298.17 254.981,298.17 254.5,297.5 Z"/></g>
<g><path style="opacity:0.004" fill="#e100e1" d="M 252.5,298.5 C 253.167,298.5 253.833,298.5 254.5,298.5C 253.833,299.833 253.167,299.833 252.5,298.5 Z"/></g>
<g><path style="opacity:0.004" fill="#fff845" d="M 245.5,303.5 C 245.5,303.167 245.5,302.833 245.5,302.5C 248.167,302.833 248.167,303.167 245.5,303.5 Z"/></g>
<g><path style="opacity:0.004" fill="#e100e1" d="M 243.5,303.5 C 244.167,303.5 244.833,303.5 245.5,303.5C 244.833,304.833 244.167,304.833 243.5,303.5 Z"/></g>
<g><path style="opacity:0.008" fill="#a8ff8d" d="M 234.5,308.5 C 234.5,308.167 234.5,307.833 234.5,307.5C 237.167,307.833 237.167,308.167 234.5,308.5 Z"/></g>
<g><path style="opacity:0.012" fill="#ebf78d" d="M 121.5,307.5 C 122.209,308.404 123.209,308.737 124.5,308.5C 122.565,309.709 120.565,309.542 118.5,308C 119.448,307.517 120.448,307.351 121.5,307.5 Z"/></g>
<g><path style="opacity:0.012" fill="#b300b3" d="M 231.5,309.5 C 231.5,309.167 231.5,308.833 231.5,308.5C 232.5,308.5 233.5,308.5 234.5,308.5C 233.791,309.404 232.791,309.737 231.5,309.5 Z"/></g>
<g><path style="opacity:0.008" fill="#ff008d" d="M 229.5,310.5 C 229.5,310.167 229.5,309.833 229.5,309.5C 230.167,309.5 230.833,309.5 231.5,309.5C 231.158,310.338 230.492,310.672 229.5,310.5 Z"/></g>
<g><path style="opacity:0.008" fill="#ecfaa8" d="M 226.5,311.5 C 226.5,311.167 226.5,310.833 226.5,310.5C 227.5,310.5 228.5,310.5 229.5,310.5C 228.791,311.404 227.791,311.737 226.5,311.5 Z"/></g>
<g><path style="opacity:0.012" fill="#fff979" d="M 223.5,312.5 C 223.5,312.167 223.5,311.833 223.5,311.5C 224.5,311.5 225.5,311.5 226.5,311.5C 225.791,312.404 224.791,312.737 223.5,312.5 Z"/></g>
<g><path style="opacity:0.008" fill="#b3f865" d="M 220.5,313.5 C 221.209,312.596 222.209,312.263 223.5,312.5C 222.791,313.404 221.791,313.737 220.5,313.5 Z"/></g>
<g><path style="opacity:0.012" fill="#fffb7a" d="M 220.5,313.5 C 219.399,314.598 218.066,314.765 216.5,314C 217.793,313.51 219.127,313.343 220.5,313.5 Z"/></g>
<g><path style="opacity:0.012" fill="#deff9f" d="M 212.5,315.5 C 212.5,315.167 212.5,314.833 212.5,314.5C 216.5,314.833 216.5,315.167 212.5,315.5 Z"/></g>
<g><path style="opacity:0.008" fill="#f2fb94" d="M 206.5,316.5 C 206.5,316.167 206.5,315.833 206.5,315.5C 208.5,315.5 210.5,315.5 212.5,315.5C 210.735,316.461 208.735,316.795 206.5,316.5 Z"/></g>
<g><path style="opacity:0.012" fill="#b81383" d="M 201.5,317.5 C 201.5,317.167 201.5,316.833 201.5,316.5C 203.167,316.5 204.833,316.5 206.5,316.5C 205.081,317.451 203.415,317.784 201.5,317.5 Z"/></g>
<g><path style="opacity:0.016" fill="#da008b" d="M 192.5,317.5 C 195.5,317.5 198.5,317.5 201.5,317.5C 194.223,318.983 186.723,319.65 179,319.5C 174.167,319.333 169.333,319.167 164.5,319C 174.009,318.83 183.342,318.33 192.5,317.5 Z"/></g>
</svg>
