<?xml version="1.0" encoding="UTF-8"?>
<!DOCTYPE svg PUBLIC "-//W3C//DTD SVG 1.1//EN" "http://www.w3.org/Graphics/SVG/1.1/DTD/svg11.dtd">
<svg xmlns="http://www.w3.org/2000/svg" version="1.1" width="512px" height="512px" style="shape-rendering:geometricPrecision; text-rendering:geometricPrecision; image-rendering:optimizeQuality; fill-rule:evenodd; clip-rule:evenodd" xmlns:xlink="http://www.w3.org/1999/xlink">
<g><path style="opacity:0.992" fill="#01358f" d="M 136.5,-0.5 C 176.167,-0.5 215.833,-0.5 255.5,-0.5C 255.5,14.5 255.5,29.5 255.5,44.5C 221.165,44.3333 186.832,44.5 152.5,45C 126.5,63 100.5,81 74.5,99C 73.3362,149.429 73.1696,199.929 74,250.5C 78.2318,279.528 88.5651,306.195 105,330.5C 131.458,368.625 163.625,401.125 201.5,428C 218.526,439.848 236.193,450.681 254.5,460.5C 255.485,477.423 255.818,494.423 255.5,511.5C 254.833,511.5 254.167,511.5 253.5,511.5C 197.799,484.554 148.299,448.888 105,404.5C 78.5179,376.231 57.5179,344.231 42,308.5C 34.3441,289.543 29.6775,269.877 28,249.5C 27.3333,191.833 27.3333,134.167 28,76.5C 64.347,50.9702 100.514,25.3036 136.5,-0.5 Z"/></g>
<g><path style="opacity:1" fill="#012453" d="M 255.5,-0.5 C 295.167,-0.5 334.833,-0.5 374.5,-0.5C 410.486,25.3036 446.653,50.9702 483,76.5C 483.667,134.167 483.667,191.833 483,249.5C 479.96,281.62 470.293,311.62 454,339.5C 425.951,386.891 389.451,426.724 344.5,459C 317.097,479.04 288.097,496.54 257.5,511.5C 256.833,511.5 256.167,511.5 255.5,511.5C 255.818,494.423 255.485,477.423 254.5,460.5C 254.833,460.5 255.167,460.5 255.5,460.5C 315.769,430.102 365.602,387.435 405,332.5C 422.98,306.196 433.98,277.196 438,245.5C 438.667,197.167 438.667,148.833 438,100.5C 411.921,81.8771 385.754,63.3771 359.5,45C 324.835,44.5 290.168,44.3333 255.5,44.5C 255.5,29.5 255.5,14.5 255.5,-0.5 Z"/></g>
<g><path style="opacity:1" fill="#edf4f9" d="M 255.5,44.5 C 255.5,54.5 255.5,64.5 255.5,74.5C 224.165,74.3334 192.832,74.5 161.5,75C 142.07,88.131 122.904,101.631 104,115.5C 103.833,138 103.667,160.5 103.5,183C 103.373,208.194 103.873,233.36 105,258.5C 114.114,290.074 129.447,318.074 151,342.5C 181.036,376.727 215.869,404.727 255.5,426.5C 255.5,437.833 255.5,449.167 255.5,460.5C 255.167,460.5 254.833,460.5 254.5,460.5C 236.193,450.681 218.526,439.848 201.5,428C 163.625,401.125 131.458,368.625 105,330.5C 88.5651,306.195 78.2318,279.528 74,250.5C 73.1696,199.929 73.3362,149.429 74.5,99C 100.5,81 126.5,63 152.5,45C 186.832,44.5 221.165,44.3333 255.5,44.5 Z"/></g>
<g><path style="opacity:1" fill="#c4dfeb" d="M 255.5,44.5 C 290.168,44.3333 324.835,44.5 359.5,45C 385.754,63.3771 411.921,81.8771 438,100.5C 438.667,148.833 438.667,197.167 438,245.5C 433.98,277.196 422.98,306.196 405,332.5C 365.602,387.435 315.769,430.102 255.5,460.5C 255.5,449.167 255.5,437.833 255.5,426.5C 256.167,426.5 256.5,426.167 256.5,425.5C 307.989,397.515 350.156,359.182 383,310.5C 393.973,293.217 401.64,274.55 406,254.5C 407.131,230.197 407.631,205.863 407.5,181.5C 407.333,159.5 407.167,137.5 407,115.5C 387.587,101.877 368.087,88.3767 348.5,75C 317.502,74.5 286.502,74.3334 255.5,74.5C 255.5,64.5 255.5,54.5 255.5,44.5 Z"/></g>
<g><path style="opacity:1" fill="#09b3fd" d="M 255.5,74.5 C 255.5,88.1667 255.5,101.833 255.5,115.5C 226.221,117.616 207.054,132.616 198,160.5C 196.63,168.764 196.13,177.097 196.5,185.5C 188.833,185.5 181.167,185.5 173.5,185.5C 173.5,228.5 173.5,271.5 173.5,314.5C 200.833,314.5 228.167,314.5 255.5,314.5C 282.833,314.5 310.167,314.5 337.5,314.5C 310.338,315.498 283.005,315.831 255.5,315.5C 255.168,352.337 255.502,389.004 256.5,425.5C 256.5,426.167 256.167,426.5 255.5,426.5C 215.869,404.727 181.036,376.727 151,342.5C 129.447,318.074 114.114,290.074 105,258.5C 103.873,233.36 103.373,208.194 103.5,183C 103.667,160.5 103.833,138 104,115.5C 122.904,101.631 142.07,88.131 161.5,75C 192.832,74.5 224.165,74.3334 255.5,74.5 Z"/></g>
<g><path style="opacity:1" fill="#0874f8" d="M 255.5,74.5 C 286.502,74.3334 317.502,74.5 348.5,75C 368.087,88.3767 387.587,101.877 407,115.5C 407.167,137.5 407.333,159.5 407.5,181.5C 407.631,205.863 407.131,230.197 406,254.5C 401.64,274.55 393.973,293.217 383,310.5C 350.156,359.182 307.989,397.515 256.5,425.5C 255.502,389.004 255.168,352.337 255.5,315.5C 283.005,315.831 310.338,315.498 337.5,314.5C 337.5,271.5 337.5,228.5 337.5,185.5C 329.833,185.5 322.167,185.5 314.5,185.5C 316.37,143.864 296.703,120.53 255.5,115.5C 255.5,101.833 255.5,88.1667 255.5,74.5 Z"/></g>
<g><path style="opacity:1" fill="#fdb52a" d="M 255.5,115.5 C 255.5,125.5 255.5,135.5 255.5,145.5C 238.587,147.414 228.92,156.747 226.5,173.5C 225.517,177.298 225.183,181.298 225.5,185.5C 215.833,185.5 206.167,185.5 196.5,185.5C 196.13,177.097 196.63,168.764 198,160.5C 207.054,132.616 226.221,117.616 255.5,115.5 Z"/></g>
<g><path style="opacity:1" fill="#fc8c04" d="M 255.5,115.5 C 296.703,120.53 316.37,143.864 314.5,185.5C 304.5,185.5 294.5,185.5 284.5,185.5C 287.136,170.628 282.469,158.795 270.5,150C 266.769,147.901 262.769,146.734 258.5,146.5C 257.791,145.596 256.791,145.263 255.5,145.5C 255.5,135.5 255.5,125.5 255.5,115.5 Z"/></g>
<g><path style="opacity:1" fill="#12b2fb" d="M 255.5,145.5 C 256.791,145.263 257.791,145.596 258.5,146.5C 257.5,146.5 256.5,146.5 255.5,146.5C 255.5,159.5 255.5,172.5 255.5,185.5C 245.833,185.5 236.167,185.5 226.5,185.5C 226.5,181.5 226.5,177.5 226.5,173.5C 228.92,156.747 238.587,147.414 255.5,145.5 Z"/></g>
<g><path style="opacity:1" fill="#0674f8" d="M 258.5,146.5 C 262.769,146.734 266.769,147.901 270.5,150C 282.469,158.795 287.136,170.628 284.5,185.5C 274.833,185.5 265.167,185.5 255.5,185.5C 255.5,172.5 255.5,159.5 255.5,146.5C 256.5,146.5 257.5,146.5 258.5,146.5 Z"/></g>
<g><path style="opacity:1" fill="#fde057" d="M 226.5,173.5 C 226.5,177.5 226.5,181.5 226.5,185.5C 236.167,185.5 245.833,185.5 255.5,185.5C 255.5,201.833 255.5,218.167 255.5,234.5C 250.5,234.5 245.5,234.5 240.5,234.5C 240.5,244.833 240.5,255.167 240.5,265.5C 245.5,265.5 250.5,265.5 255.5,265.5C 255.5,281.833 255.5,298.167 255.5,314.5C 228.167,314.5 200.833,314.5 173.5,314.5C 173.5,271.5 173.5,228.5 173.5,185.5C 181.167,185.5 188.833,185.5 196.5,185.5C 206.167,185.5 215.833,185.5 225.5,185.5C 225.183,181.298 225.517,177.298 226.5,173.5 Z"/></g>
<g><path style="opacity:1" fill="#ffb427" d="M 255.5,185.5 C 265.167,185.5 274.833,185.5 284.5,185.5C 294.5,185.5 304.5,185.5 314.5,185.5C 322.167,185.5 329.833,185.5 337.5,185.5C 337.5,228.5 337.5,271.5 337.5,314.5C 310.167,314.5 282.833,314.5 255.5,314.5C 255.5,298.167 255.5,281.833 255.5,265.5C 260.5,265.5 265.5,265.5 270.5,265.5C 270.5,255.167 270.5,244.833 270.5,234.5C 265.5,234.5 260.5,234.5 255.5,234.5C 255.5,218.167 255.5,201.833 255.5,185.5 Z"/></g>
<g><path style="opacity:1" fill="#ffb528" d="M 255.5,234.5 C 255.5,244.833 255.5,255.167 255.5,265.5C 250.5,265.5 245.5,265.5 240.5,265.5C 240.5,255.167 240.5,244.833 240.5,234.5C 245.5,234.5 250.5,234.5 255.5,234.5 Z"/></g>
<g><path style="opacity:1" fill="#fe8c01" d="M 255.5,234.5 C 260.5,234.5 265.5,234.5 270.5,234.5C 270.5,244.833 270.5,255.167 270.5,265.5C 265.5,265.5 260.5,265.5 255.5,265.5C 255.5,255.167 255.5,244.833 255.5,234.5 Z"/></g>
</svg>
