<?xml version="1.0" encoding="UTF-8"?>
<!DOCTYPE svg PUBLIC "-//W3C//DTD SVG 1.1//EN" "http://www.w3.org/Graphics/SVG/1.1/DTD/svg11.dtd">
<svg xmlns="http://www.w3.org/2000/svg" version="1.1" width="512px" height="512px" style="shape-rendering:geometricPrecision; text-rendering:geometricPrecision; image-rendering:optimizeQuality; fill-rule:evenodd; clip-rule:evenodd" xmlns:xlink="http://www.w3.org/1999/xlink">
<g><path style="opacity:0.999" fill="#ca02f1" d="M 240.5,-0.5 C 248.167,-0.5 255.833,-0.5 263.5,-0.5C 175.833,87.8333 87.8333,175.833 -0.5,263.5C -0.5,255.833 -0.5,248.167 -0.5,240.5C 80.1667,160.5 160.5,80.1667 240.5,-0.5 Z"/></g>
<g><path style="opacity:0.998" fill="#c402ee" d="M 263.5,-0.5 C 268.5,-0.5 273.5,-0.5 278.5,-0.5C 279.568,0.434475 280.901,0.767809 282.5,0.5C 188.833,94.8333 94.8333,188.833 0.5,282.5C 0.767809,280.901 0.434475,279.568 -0.5,278.5C -0.5,273.5 -0.5,268.5 -0.5,263.5C 87.8333,175.833 175.833,87.8333 263.5,-0.5 Z"/></g>
<g><path style="opacity:0.998" fill="#d101f4" d="M 232.5,-0.5 C 235.167,-0.5 237.833,-0.5 240.5,-0.5C 160.5,80.1667 80.1667,160.5 -0.5,240.5C -0.5,237.833 -0.5,235.167 -0.5,232.5C 0.421887,228.005 1.08855,223.338 1.5,218.5C 73.6321,146.868 145.632,75.0347 217.5,3C 218.737,2.76791 219.737,2.26791 220.5,1.5C 224.642,0.960323 228.642,0.293656 232.5,-0.5 Z"/></g>
<g><path style="opacity:0.997" fill="#bc05ea" d="M 282.5,0.5 C 294.344,1.52948 306.011,3.52948 317.5,6.5C 288.194,35.1396 259.194,64.1396 230.5,93.5C 221.983,93.1739 213.65,93.5073 205.5,94.5C 193.167,107.5 180.5,120.167 167.5,132.5C 166.507,140.65 166.174,148.983 166.5,157.5C 113.167,210.5 59.8333,263.5 6.5,316.5C 3.42574,305.39 1.42574,294.056 0.5,282.5C 94.8333,188.833 188.833,94.8333 282.5,0.5 Z"/></g>
<g><path style="opacity:0.995" fill="#d701f6" d="M 220.5,1.5 C 219.737,2.26791 218.737,2.76791 217.5,3C 145.632,75.0347 73.6321,146.868 1.5,218.5C 2.75403,209.217 4.75403,200.217 7.5,191.5C 69.8333,130.835 131.833,69.1685 193.5,6.5C 202.373,4.19228 211.373,2.52562 220.5,1.5 Z"/></g>
<g><path style="opacity:0.997" fill="#dd00f9" d="M 193.5,6.5 C 131.833,69.1685 69.8333,130.835 7.5,191.5C 9.36025,182.253 12.0269,173.253 15.5,164.5C 65.5493,115.451 114.883,65.7843 163.5,15.5C 173.38,12.0954 183.38,9.09537 193.5,6.5 Z"/></g>
<g><path style="opacity:0.997" fill="#ad04e4" d="M 317.5,6.5 C 328.365,9.23306 339.032,12.5664 349.5,16.5C 324.167,42.1667 298.833,67.8333 273.5,93.5C 259.167,93.5 244.833,93.5 230.5,93.5C 259.194,64.1396 288.194,35.1396 317.5,6.5 Z"/></g>
<g><path style="opacity:0.983" fill="#e400fc" d="M 163.5,15.5 C 114.883,65.7843 65.5493,115.451 15.5,164.5C 43.4155,93.5845 92.7488,43.9178 163.5,15.5 Z"/></g>
<g><path style="opacity:0.997" fill="#a504e0" d="M 349.5,16.5 C 354.167,18.5 358.833,20.5 363.5,22.5C 340.368,46.132 317.035,69.632 293.5,93C 286.842,93.4996 280.175,93.6663 273.5,93.5C 298.833,67.8333 324.167,42.1667 349.5,16.5 Z"/></g>
<g><path style="opacity:0.997" fill="#9f15dd" d="M 363.5,22.5 C 371.854,26.3409 379.854,30.6743 387.5,35.5C 363.217,58.1159 339.55,81.4493 316.5,105.5C 312.702,102.204 309.036,98.7039 305.5,95C 272.168,94.5 238.835,94.3333 205.5,94.5C 213.65,93.5073 221.983,93.1739 230.5,93.5C 244.833,93.5 259.167,93.5 273.5,93.5C 280.175,93.6663 286.842,93.4996 293.5,93C 317.035,69.632 340.368,46.132 363.5,22.5 Z"/></g>
<g><path style="opacity:0.997" fill="#8f09d6" d="M 387.5,35.5 C 397.74,41.419 407.407,48.0856 416.5,55.5C 415.448,55.3505 414.448,55.5172 413.5,56C 388.965,80.368 364.632,104.868 340.5,129.5C 332.167,121.833 324.167,113.833 316.5,105.5C 339.55,81.4493 363.217,58.1159 387.5,35.5 Z"/></g>
<g><path style="opacity:0.998" fill="#8207d0" d="M 416.5,55.5 C 424.158,61.8258 431.492,68.4925 438.5,75.5C 437.448,75.3505 436.448,75.5172 435.5,76C 410.965,100.702 386.299,125.202 361.5,149.5C 355.5,143.833 349.5,138.167 343.5,132.5C 342.167,131.833 341.167,130.833 340.5,129.5C 364.632,104.868 388.965,80.368 413.5,56C 414.448,55.5172 415.448,55.3505 416.5,55.5 Z"/></g>
<g><path style="opacity:0.997" fill="#7308ca" d="M 438.5,75.5 C 448.628,85.6229 457.628,96.6229 465.5,108.5C 440.55,131.783 416.217,155.783 392.5,180.5C 388.167,176.5 383.833,172.5 379.5,168.5C 373.5,162.167 367.5,155.833 361.5,149.5C 386.299,125.202 410.965,100.702 435.5,76C 436.448,75.5172 437.448,75.3505 438.5,75.5 Z"/></g>
<g><path style="opacity:1" fill="#fefefe" d="M 205.5,94.5 C 238.835,94.3333 272.168,94.5 305.5,95C 309.036,98.7039 312.702,102.204 316.5,105.5C 324.167,113.833 332.167,121.833 340.5,129.5C 341.167,130.833 342.167,131.833 343.5,132.5C 343.5,150.833 343.5,169.167 343.5,187.5C 335.167,187.5 326.833,187.5 318.5,187.5C 307.5,187.5 296.5,187.5 285.5,187.5C 285.5,183.167 285.5,178.833 285.5,174.5C 285.5,167.167 285.5,159.833 285.5,152.5C 265.34,151.503 245.007,151.17 224.5,151.5C 224.167,220.669 224.501,289.669 225.5,358.5C 245.5,358.5 265.5,358.5 285.5,358.5C 285.5,335.833 285.5,313.167 285.5,290.5C 285.5,288.167 285.5,285.833 285.5,283.5C 275.167,283.5 264.833,283.5 254.5,283.5C 254.5,264.167 254.5,244.833 254.5,225.5C 263.5,225.5 272.5,225.5 281.5,225.5C 295.833,225.5 310.167,225.5 324.5,225.5C 330.833,225.5 337.167,225.5 343.5,225.5C 343.5,276.167 343.5,326.833 343.5,377.5C 330.702,390.798 317.702,403.965 304.5,417C 271.835,417.5 239.168,417.667 206.5,417.5C 205.527,415.861 204.194,414.527 202.5,413.5C 195.833,406.167 188.833,399.167 181.5,392.5C 176.833,387.5 172.167,382.5 167.5,377.5C 167.5,295.833 167.5,214.167 167.5,132.5C 180.5,120.167 193.167,107.5 205.5,94.5 Z"/></g>
<g><path style="opacity:0.996" fill="#6509c3" d="M 465.5,108.5 C 471.833,116.489 477.167,125.156 481.5,134.5C 458.833,156.833 436.167,179.167 413.5,201.5C 408.833,197.167 404.167,192.833 399.5,188.5C 397.167,185.833 394.833,183.167 392.5,180.5C 416.217,155.783 440.55,131.783 465.5,108.5 Z"/></g>
<g><path style="opacity:0.997" fill="#560abd" d="M 481.5,134.5 C 486.89,143.284 491.224,152.617 494.5,162.5C 493.761,162.369 493.094,162.536 492.5,163C 472.965,182.702 453.299,202.202 433.5,221.5C 426.5,215.167 419.833,208.5 413.5,201.5C 436.167,179.167 458.833,156.833 481.5,134.5 Z"/></g>
<g><path style="opacity:1" fill="#5c089a" d="M 343.5,132.5 C 349.5,138.167 355.5,143.833 361.5,149.5C 367.5,155.833 373.5,162.167 379.5,168.5C 379.631,169.239 379.464,169.906 379,170.5C 360.632,188.701 342.465,207.035 324.5,225.5C 310.167,225.5 295.833,225.5 281.5,225.5C 293.833,212.833 306.167,200.167 318.5,187.5C 326.833,187.5 335.167,187.5 343.5,187.5C 343.5,169.167 343.5,150.833 343.5,132.5 Z"/></g>
<g><path style="opacity:1" fill="#660495" d="M 285.5,152.5 C 285.5,159.833 285.5,167.167 285.5,174.5C 265.5,194.167 245.5,213.833 225.5,233.5C 225.5,206.5 225.5,179.5 225.5,152.5C 245.5,152.5 265.5,152.5 285.5,152.5 Z"/></g>
<g><path style="opacity:0.999" fill="#b103e6" d="M 166.5,157.5 C 166.5,165.167 166.5,172.833 166.5,180.5C 115.368,231.132 64.3679,281.965 13.5,333C 12.9056,333.464 12.2389,333.631 11.5,333.5C 9.07734,328.16 7.41067,322.493 6.5,316.5C 59.8333,263.5 113.167,210.5 166.5,157.5 Z"/></g>
<g><path style="opacity:1" fill="#560e9e" d="M 379.5,168.5 C 383.833,172.5 388.167,176.5 392.5,180.5C 394.833,183.167 397.167,185.833 399.5,188.5C 381.92,207.582 363.754,226.248 345,244.5C 344.5,267.498 344.333,290.498 344.5,313.5C 344.5,332.5 344.5,351.5 344.5,370.5C 344.802,373.059 344.468,375.393 343.5,377.5C 343.5,326.833 343.5,276.167 343.5,225.5C 337.167,225.5 330.833,225.5 324.5,225.5C 342.465,207.035 360.632,188.701 379,170.5C 379.464,169.906 379.631,169.239 379.5,168.5 Z"/></g>
<g><path style="opacity:1" fill="#600698" d="M 285.5,174.5 C 285.5,178.833 285.5,183.167 285.5,187.5C 296.5,187.5 307.5,187.5 318.5,187.5C 306.167,200.167 293.833,212.833 281.5,225.5C 272.5,225.5 263.5,225.5 254.5,225.5C 254.5,244.833 254.5,264.167 254.5,283.5C 253.67,273.675 253.17,263.675 253,253.5C 243.965,262.702 234.798,271.702 225.5,280.5C 225.5,264.833 225.5,249.167 225.5,233.5C 245.5,213.833 265.5,194.167 285.5,174.5 Z"/></g>
<g><path style="opacity:0.996" fill="#480bb7" d="M 494.5,162.5 C 501.172,178.845 505.839,195.845 508.5,213.5C 507.778,213.082 507.278,212.416 507,211.5C 492.965,225.368 479.131,239.368 465.5,253.5C 464.5,252.833 463.5,252.167 462.5,251.5C 453.5,241.833 444.167,232.5 434.5,223.5C 434.167,222.833 433.833,222.167 433.5,221.5C 453.299,202.202 472.965,182.702 492.5,163C 493.094,162.536 493.761,162.369 494.5,162.5 Z"/></g>
<g><path style="opacity:0.998" fill="#ab04e3" d="M 166.5,180.5 C 166.5,187.167 166.5,193.833 166.5,200.5C 117.035,249.465 67.7013,298.632 18.5,348C 17.9056,348.464 17.2389,348.631 16.5,348.5C 14.2613,343.784 12.5946,338.784 11.5,333.5C 12.2389,333.631 12.9056,333.464 13.5,333C 64.3679,281.965 115.368,231.132 166.5,180.5 Z"/></g>
<g><path style="opacity:0.999" fill="#a604e0" d="M 166.5,200.5 C 166.666,207.175 166.5,213.842 166,220.5C 118.583,268.418 70.7499,315.751 22.5,362.5C 19.9884,358.134 17.9884,353.467 16.5,348.5C 17.2389,348.631 17.9056,348.464 18.5,348C 67.7013,298.632 117.035,249.465 166.5,200.5 Z"/></g>
<g><path style="opacity:1" fill="#49089d" d="M 399.5,188.5 C 404.167,192.833 408.833,197.167 413.5,201.5C 419.833,208.5 426.5,215.167 433.5,221.5C 433.833,222.167 434.167,222.833 434.5,223.5C 404.833,253.833 374.833,283.833 344.5,313.5C 344.333,290.498 344.5,267.498 345,244.5C 363.754,226.248 381.92,207.582 399.5,188.5 Z"/></g>
<g><path style="opacity:0.995" fill="#360daf" d="M 508.5,213.5 C 509.571,219.947 510.571,226.281 511.5,232.5C 511.5,247.833 511.5,263.167 511.5,278.5C 510.505,284.404 509.505,290.404 508.5,296.5C 506.5,295.167 504.5,293.833 502.5,292.5C 494.834,283.167 486.5,274.501 477.5,266.5C 473.556,262.219 469.556,257.885 465.5,253.5C 479.131,239.368 492.965,225.368 507,211.5C 507.278,212.416 507.778,213.082 508.5,213.5 Z"/></g>
<g><path style="opacity:1" fill="#3d0a9f" d="M 434.5,223.5 C 444.167,232.5 453.5,241.833 462.5,251.5C 423.883,291.784 384.55,331.451 344.5,370.5C 344.5,351.5 344.5,332.5 344.5,313.5C 374.833,283.833 404.833,253.833 434.5,223.5 Z"/></g>
<g><path style="opacity:0.999" fill="#9c0bdc" d="M 167.5,132.5 C 167.5,214.167 167.5,295.833 167.5,377.5C 166.506,367.013 166.172,356.346 166.5,345.5C 166.5,331.5 166.5,317.5 166.5,303.5C 166.667,290.163 166.5,276.829 166,263.5C 122.915,306.084 80.4155,349.084 38.5,392.5C 32.1521,383.143 26.8188,373.143 22.5,362.5C 70.7499,315.751 118.583,268.418 166,220.5C 166.5,213.842 166.666,207.175 166.5,200.5C 166.5,193.833 166.5,187.167 166.5,180.5C 166.5,172.833 166.5,165.167 166.5,157.5C 166.174,148.983 166.507,140.65 167.5,132.5 Z"/></g>
<g><path style="opacity:1" fill="#370b9f" d="M 462.5,251.5 C 463.5,252.167 464.5,252.833 465.5,253.5C 469.556,257.885 473.556,262.219 477.5,266.5C 408.417,337.084 338.75,407.25 268.5,477C 267.906,477.464 267.239,477.631 266.5,477.5C 261.806,472.14 256.806,467.14 251.5,462.5C 241.5,452.833 231.5,443.167 221.5,433.5C 216.482,428.083 211.482,422.75 206.5,417.5C 239.168,417.667 271.835,417.5 304.5,417C 317.702,403.965 330.702,390.798 343.5,377.5C 344.468,375.393 344.802,373.059 344.5,370.5C 384.55,331.451 423.883,291.784 462.5,251.5 Z"/></g>
<g><path style="opacity:1" fill="#e1c4f0" d="M 285.5,152.5 C 265.5,152.5 245.5,152.5 225.5,152.5C 225.5,179.5 225.5,206.5 225.5,233.5C 225.5,249.167 225.5,264.833 225.5,280.5C 225.5,303.5 225.5,326.5 225.5,349.5C 225.5,352.5 225.5,355.5 225.5,358.5C 224.501,289.669 224.167,220.669 224.5,151.5C 245.007,151.17 265.34,151.503 285.5,152.5 Z"/></g>
<g><path style="opacity:1" fill="#2a0c9f" d="M 477.5,266.5 C 486.5,274.501 494.834,283.167 502.5,292.5C 432.887,362.779 362.887,432.779 292.5,502.5C 283.167,494.834 274.501,486.5 266.5,477.5C 267.239,477.631 267.906,477.464 268.5,477C 338.75,407.25 408.417,337.084 477.5,266.5 Z"/></g>
<g><path style="opacity:0.999" fill="#8e06d6" d="M 166.5,303.5 C 129.167,340.5 91.8333,377.5 54.5,414.5C 48.2002,407.913 42.8668,400.58 38.5,392.5C 80.4155,349.084 122.915,306.084 166,263.5C 166.5,276.829 166.667,290.163 166.5,303.5 Z"/></g>
<g><path style="opacity:1" fill="#57089b" d="M 254.5,283.5 C 264.833,283.5 275.167,283.5 285.5,283.5C 285.5,285.833 285.5,288.167 285.5,290.5C 265.5,310.167 245.5,329.833 225.5,349.5C 225.5,326.5 225.5,303.5 225.5,280.5C 234.798,271.702 243.965,262.702 253,253.5C 253.17,263.675 253.67,273.675 254.5,283.5 Z"/></g>
<g><path style="opacity:1" fill="#4f089d" d="M 285.5,290.5 C 285.5,313.167 285.5,335.833 285.5,358.5C 265.5,358.5 245.5,358.5 225.5,358.5C 225.5,355.5 225.5,352.5 225.5,349.5C 245.5,329.833 265.5,310.167 285.5,290.5 Z"/></g>
<g><path style="opacity:0.995" fill="#1c0e9e" d="M 502.5,292.5 C 504.5,293.833 506.5,295.167 508.5,296.5C 490.66,391.382 437.326,457.548 348.5,495C 331.941,501.223 314.941,505.723 297.5,508.5C 295.486,506.817 293.82,504.817 292.5,502.5C 362.887,432.779 432.887,362.779 502.5,292.5 Z"/></g>
<g><path style="opacity:0.998" fill="#8207d0" d="M 166.5,303.5 C 166.5,317.5 166.5,331.5 166.5,345.5C 135.473,375.86 104.806,406.527 74.5,437.5C 67.1161,430.45 60.4494,422.783 54.5,414.5C 91.8333,377.5 129.167,340.5 166.5,303.5 Z"/></g>
<g><path style="opacity:0.997" fill="#7308ca" d="M 166.5,345.5 C 166.172,356.346 166.506,367.013 167.5,377.5C 172.167,382.5 176.833,387.5 181.5,392.5C 156.217,416.116 131.55,440.449 107.5,465.5C 95.8877,456.888 84.8877,447.554 74.5,437.5C 104.806,406.527 135.473,375.86 166.5,345.5 Z"/></g>
<g><path style="opacity:0.996" fill="#650bc4" d="M 181.5,392.5 C 188.833,399.167 195.833,406.167 202.5,413.5C 179.5,435.833 156.833,458.5 134.5,481.5C 125.033,476.934 116.033,471.601 107.5,465.5C 131.55,440.449 156.217,416.116 181.5,392.5 Z"/></g>
<g><path style="opacity:0.995" fill="#560bbd" d="M 202.5,413.5 C 204.194,414.527 205.527,415.861 206.5,417.5C 211.482,422.75 216.482,428.083 221.5,433.5C 202.202,453.299 182.702,472.965 163,492.5C 162.536,493.094 162.369,493.761 162.5,494.5C 152.617,491.224 143.284,486.89 134.5,481.5C 156.833,458.5 179.5,435.833 202.5,413.5 Z"/></g>
<g><path style="opacity:0.997" fill="#480bb7" d="M 221.5,433.5 C 231.5,443.167 241.5,452.833 251.5,462.5C 237.535,476.965 223.369,491.299 209,505.5C 208.536,506.094 208.369,506.761 208.5,507.5C 192.544,505.014 177.211,500.681 162.5,494.5C 162.369,493.761 162.536,493.094 163,492.5C 182.702,472.965 202.202,453.299 221.5,433.5 Z"/></g>
<g><path style="opacity:0.995" fill="#370daf" d="M 251.5,462.5 C 256.806,467.14 261.806,472.14 266.5,477.5C 274.501,486.5 283.167,494.834 292.5,502.5C 293.82,504.817 295.486,506.817 297.5,508.5C 291.033,509.429 284.7,510.429 278.5,511.5C 263.167,511.5 247.833,511.5 232.5,511.5C 224.57,510.338 216.57,509.005 208.5,507.5C 208.369,506.761 208.536,506.094 209,505.5C 223.369,491.299 237.535,476.965 251.5,462.5 Z"/></g>
</svg>
