<?xml version="1.0" encoding="UTF-8"?>
<!DOCTYPE svg PUBLIC "-//W3C//DTD SVG 1.1//EN" "http://www.w3.org/Graphics/SVG/1.1/DTD/svg11.dtd">
<svg xmlns="http://www.w3.org/2000/svg" version="1.1" width="512px" height="512px" style="shape-rendering:geometricPrecision; text-rendering:geometricPrecision; image-rendering:optimizeQuality; fill-rule:evenodd; clip-rule:evenodd" xmlns:xlink="http://www.w3.org/1999/xlink">
<g><path style="opacity:0.994" fill="#414141" d="M 232.5,-0.5 C 247.833,-0.5 263.167,-0.5 278.5,-0.5C 368.144,10.3879 435.644,54.7213 481,132.5C 497.695,163.971 507.861,197.304 511.5,232.5C 511.5,235.833 511.5,239.167 511.5,242.5C 469.5,200.833 427.5,159.167 385.5,117.5C 366.341,116.503 347.007,116.17 327.5,116.5C 326.502,151.329 326.168,186.329 326.5,221.5C 293.036,189.871 259.702,158.037 226.5,126C 224.04,124.542 221.873,122.709 220,120.5C 219.601,120.728 219.435,121.062 219.5,121.5C 218.5,120.167 217.5,118.833 216.5,117.5C 188.005,116.502 159.338,116.169 130.5,116.5C 130.167,208.668 130.501,300.668 131.5,392.5C 170.833,432.167 210.167,471.833 249.5,511.5C 243.833,511.5 238.167,511.5 232.5,511.5C 142.856,500.612 75.3562,456.279 30,378.5C 13.3053,347.029 3.1386,313.696 -0.5,278.5C -0.5,263.167 -0.5,247.833 -0.5,232.5C 10.3875,142.857 54.7208,75.3573 132.5,30C 163.971,13.3053 197.304,3.1386 232.5,-0.5 Z"/></g>
<g><path style="opacity:1" fill="#babfbc" d="M 216.5,117.5 C 188.167,117.5 159.833,117.5 131.5,117.5C 131.5,208.833 131.5,300.167 131.5,391.5C 150.5,391.5 169.5,391.5 188.5,391.5C 188.5,391.833 188.5,392.167 188.5,392.5C 169.5,392.5 150.5,392.5 131.5,392.5C 130.501,300.668 130.167,208.668 130.5,116.5C 159.338,116.169 188.005,116.502 216.5,117.5 Z"/></g>
<g><path style="opacity:1" fill="#f7fefa" d="M 216.5,117.5 C 217.5,118.833 218.5,120.167 219.5,121.5C 231.512,142.194 243.512,162.861 255.5,183.5C 255.832,220.67 255.498,257.67 254.5,294.5C 233.167,258.5 211.833,222.5 190.5,186.5C 190.217,185.711 189.717,185.044 189,184.5C 188.5,253.499 188.333,322.499 188.5,391.5C 169.5,391.5 150.5,391.5 131.5,391.5C 131.5,300.167 131.5,208.833 131.5,117.5C 159.833,117.5 188.167,117.5 216.5,117.5 Z"/></g>
<g><path style="opacity:1" fill="#d7d7d7" d="M 327.5,116.5 C 347.007,116.17 366.341,116.503 385.5,117.5C 385.5,208.5 385.5,299.5 385.5,390.5C 360.491,390.833 335.491,390.5 310.5,389.5C 291.806,357.816 273.139,326.149 254.5,294.5C 255.498,257.67 255.832,220.67 255.5,183.5C 279.574,221.968 302.907,260.968 325.5,300.5C 325.783,301.289 326.283,301.956 327,302.5C 327.5,240.501 327.667,178.501 327.5,116.5 Z"/></g>
<g><path style="opacity:1" fill="#232323" d="M 385.5,117.5 C 427.5,159.167 469.5,200.833 511.5,242.5C 511.5,254.5 511.5,266.5 511.5,278.5C 500.612,368.144 456.279,435.644 378.5,481C 347.029,497.695 313.696,507.861 278.5,511.5C 268.833,511.5 259.167,511.5 249.5,511.5C 210.167,471.833 170.833,432.167 131.5,392.5C 150.5,392.5 169.5,392.5 188.5,392.5C 189.167,323.833 189.833,255.167 190.5,186.5C 211.833,222.5 233.167,258.5 254.5,294.5C 273.139,326.149 291.806,357.816 310.5,389.5C 335.491,390.5 360.491,390.833 385.5,390.5C 385.5,299.5 385.5,208.5 385.5,117.5 Z"/></g>
<g><path style="opacity:1" fill="#232323" d="M 326.5,221.5 C 326.831,248.005 326.498,274.339 325.5,300.5C 302.907,260.968 279.574,221.968 255.5,183.5C 243.512,162.861 231.512,142.194 219.5,121.5C 219.435,121.062 219.601,120.728 220,120.5C 221.873,122.709 224.04,124.542 226.5,126C 259.702,158.037 293.036,189.871 326.5,221.5 Z"/></g>
<g><path style="opacity:1" fill="#696b6a" d="M 190.5,186.5 C 189.833,255.167 189.167,323.833 188.5,392.5C 188.5,392.167 188.5,391.833 188.5,391.5C 188.333,322.499 188.5,253.499 189,184.5C 189.717,185.044 190.217,185.711 190.5,186.5 Z"/></g>
<g><path style="opacity:1" fill="#abadab" d="M 327.5,116.5 C 327.667,178.501 327.5,240.501 327,302.5C 326.283,301.956 325.783,301.289 325.5,300.5C 326.498,274.339 326.831,248.005 326.5,221.5C 326.168,186.329 326.502,151.329 327.5,116.5 Z"/></g>
</svg>
