<?xml version="1.0" encoding="UTF-8"?>
<!DOCTYPE svg PUBLIC "-//W3C//DTD SVG 1.1//EN" "http://www.w3.org/Graphics/SVG/1.1/DTD/svg11.dtd">
<svg xmlns="http://www.w3.org/2000/svg" version="1.1" width="512px" height="512px" style="shape-rendering:geometricPrecision; text-rendering:geometricPrecision; image-rendering:optimizeQuality; fill-rule:evenodd; clip-rule:evenodd" xmlns:xlink="http://www.w3.org/1999/xlink">
<g><path style="opacity:0.993" fill="#3d2f62" d="M 431.5,145.5 C 431.709,146.922 432.209,148.255 433,149.5C 433.667,192.5 433.667,235.5 433,278.5C 431.644,279.38 430.144,279.714 428.5,279.5C 427.542,279.047 426.708,278.381 426,277.5C 425.989,234.416 425.323,191.416 424,148.5C 422.167,146 420,143.833 417.5,142C 363.33,110.414 308.997,79.0807 254.5,48C 251.5,47.3333 248.5,47.3333 245.5,48C 204.974,70.4241 164.974,93.5908 125.5,117.5C 129.144,122.312 132.978,126.979 137,131.5C 188.783,85.4291 247.283,74.5958 312.5,99C 364.195,122.536 396.362,162.036 409,217.5C 417.36,271.744 403.527,319.411 367.5,360.5C 371.863,365.858 376.197,371.191 380.5,376.5C 394.748,368.795 408.582,360.462 422,351.5C 423,349.5 424,347.5 425,345.5C 425.333,339.5 425.667,333.5 426,327.5C 426.708,326.619 427.542,325.953 428.5,325.5C 430.39,325.297 431.89,325.963 433,327.5C 434.545,337.286 433.212,346.619 429,355.5C 426.463,358.372 423.63,360.872 420.5,363C 408.085,369.605 396.085,376.771 384.5,384.5C 389.361,392.888 393.694,401.554 397.5,410.5C 399.973,411.797 402.307,411.797 404.5,410.5C 414.556,411.35 421.556,416.35 425.5,425.5C 430.09,441.819 424.424,452.985 408.5,459C 403.349,459.818 398.349,459.318 393.5,457.5C 384.064,453.323 379.064,445.989 378.5,435.5C 379.413,426.839 383.08,419.672 389.5,414C 388.467,410.105 386.801,406.605 384.5,403.5C 383.177,397.659 380.677,392.325 377,387.5C 339.167,409.333 301.333,431.167 263.5,453C 252.96,459.246 242.627,458.913 232.5,452C 181.772,421.971 130.772,392.471 79.5,363.5C 71.5915,360.036 66.7582,354.036 65,345.5C 64.3333,282.5 64.3333,219.5 65,156.5C 64.8891,147.555 68.3891,140.389 75.5,135C 87.9628,128.033 100.296,120.866 112.5,113.5C 109.962,109.757 107.962,105.757 106.5,101.5C 104.879,97.2572 103.546,92.9239 102.5,88.5C 97.1203,88.6757 91.787,88.3424 86.5,87.5C 75.0419,81.2433 70.5419,71.5766 73,58.5C 77.932,44.6109 87.7653,38.7776 102.5,41C 110.177,42.8519 115.51,47.3519 118.5,54.5C 122.735,67.0577 119.735,77.5577 109.5,86C 112.171,94.5066 116.004,102.34 121,109.5C 122.981,109.101 124.481,108.101 125.5,106.5C 164.352,83.5715 203.685,61.4048 243.5,40C 247.833,39.3333 252.167,39.3333 256.5,40C 263.414,42.7905 270.081,46.1238 276.5,50C 324.907,78.7324 373.574,107.066 422.5,135C 426.798,137.459 429.798,140.959 431.5,145.5 Z"/></g>
<g><path style="opacity:1" fill="#fcfcfd" d="M 428.5,279.5 C 429.414,282.728 429.747,286.061 429.5,289.5C 427.983,289.511 426.816,290.177 426,291.5C 425.333,298.833 425.333,306.167 426,313.5C 426.708,314.381 427.542,315.047 428.5,315.5C 429.833,318.833 429.833,322.167 428.5,325.5C 427.542,325.953 426.708,326.619 426,327.5C 425.667,333.5 425.333,339.5 425,345.5C 424,347.5 423,349.5 422,351.5C 408.582,360.462 394.748,368.795 380.5,376.5C 376.197,371.191 371.863,365.858 367.5,360.5C 403.527,319.411 417.36,271.744 409,217.5C 396.362,162.036 364.195,122.536 312.5,99C 247.283,74.5958 188.783,85.4291 137,131.5C 132.978,126.979 129.144,122.312 125.5,117.5C 164.974,93.5908 204.974,70.4241 245.5,48C 248.5,47.3333 251.5,47.3333 254.5,48C 308.997,79.0807 363.33,110.414 417.5,142C 420,143.833 422.167,146 424,148.5C 425.323,191.416 425.989,234.416 426,277.5C 426.708,278.381 427.542,279.047 428.5,279.5 Z"/></g>
<g><path style="opacity:1" fill="#0e89ed" d="M 93.5,49.5 C 109.088,49.2897 114.921,56.9564 111,72.5C 107.289,78.6898 101.789,81.3565 94.5,80.5C 86.5946,70.3028 86.5946,60.1362 94.5,50C 94.2716,49.6012 93.9382,49.4346 93.5,49.5 Z"/></g>
<g><path style="opacity:1" fill="#f5f5f8" d="M 93.5,49.5 C 93.9382,49.4346 94.2716,49.6012 94.5,50C 86.5946,60.1362 86.5946,70.3028 94.5,80.5C 81.8288,76.8226 77.9955,68.8226 83,56.5C 85.6141,52.6994 89.1141,50.366 93.5,49.5 Z"/></g>
<g><path style="opacity:0.987" fill="#e3e4e6" d="M 118.5,54.5 C 132.892,62.5754 136.725,74.2421 130,89.5C 127.833,93 125,95.8333 121.5,98C 122.737,100.969 124.07,103.803 125.5,106.5C 124.481,108.101 122.981,109.101 121,109.5C 116.004,102.34 112.171,94.5066 109.5,86C 119.735,77.5577 122.735,67.0577 118.5,54.5 Z"/></g>
<g><path style="opacity:0.985" fill="#e0e0e3" d="M 86.5,87.5 C 91.787,88.3424 97.1203,88.6757 102.5,88.5C 103.546,92.9239 104.879,97.2572 106.5,101.5C 97.3369,100.263 90.6702,95.5965 86.5,87.5 Z"/></g>
<g><path style="opacity:1" fill="#6cc7f5" d="M 240.5,94.5 C 242.167,94.5 243.833,94.5 245.5,94.5C 245.5,122.833 245.5,151.167 245.5,179.5C 226.091,179.318 207.424,175.485 189.5,168C 186.79,166.985 184.457,165.485 182.5,163.5C 188.415,146.33 196.915,130.664 208,116.5C 217.024,106.257 227.858,98.9233 240.5,94.5 Z"/></g>
<g><path style="opacity:1" fill="#6cc8f6" d="M 253.5,94.5 C 268.758,97.0487 281.258,104.382 291,116.5C 302.085,130.664 310.585,146.33 316.5,163.5C 306.244,169.312 295.244,173.479 283.5,176C 273.572,177.824 263.572,178.991 253.5,179.5C 253.5,151.167 253.5,122.833 253.5,94.5 Z"/></g>
<g><path style="opacity:1" fill="#6cc6f4" d="M 210.5,98.5 C 212.199,98.3398 213.866,98.5065 215.5,99C 196.637,115.713 183.637,136.213 176.5,160.5C 164.036,154.892 153.036,147.059 143.5,137C 162.795,118.87 185.129,106.036 210.5,98.5 Z"/></g>
<g><path style="opacity:1" fill="#6cc6f5" d="M 283.5,99.5 C 311.126,104.531 335.126,117.031 355.5,137C 346.106,146.771 335.439,154.438 323.5,160C 316.954,141.398 307.454,124.565 295,109.5C 291.59,105.584 287.757,102.251 283.5,99.5 Z"/></g>
<g><path style="opacity:1" fill="#fcfbfc" d="M 115.5,121.5 C 116.552,121.351 117.552,121.517 118.5,122C 122.361,127.374 126.694,132.374 131.5,137C 86.2983,188.701 75.7983,246.868 100,311.5C 125.788,367.659 169.288,400.492 230.5,410C 280.527,414.158 324.194,399.658 361.5,366.5C 365.539,370.375 369.039,374.708 372,379.5C 372.617,380.449 372.451,381.282 371.5,382C 332.167,404.333 292.833,426.667 253.5,449C 249.406,449.767 245.406,449.434 241.5,448C 186.669,416.085 132.002,383.919 77.5,351.5C 75.4728,348.779 73.9728,345.779 73,342.5C 72.7007,278.832 73.034,215.165 74,151.5C 75.3019,147.726 77.4686,144.559 80.5,142C 92.5583,135.645 104.225,128.811 115.5,121.5 Z"/></g>
<g><path style="opacity:1" fill="#d2f9fd" d="M 136.5,143.5 C 142.938,148.093 149.272,152.927 155.5,158C 160.334,161.252 165.334,164.252 170.5,167C 171.574,167.739 172.241,168.739 172.5,170C 165.008,194.28 161.674,219.113 162.5,244.5C 140.167,244.5 117.833,244.5 95.5,244.5C 96.7671,205.654 110.434,171.988 136.5,143.5 Z"/></g>
<g><path style="opacity:1" fill="#d3f9fd" d="M 360.5,143.5 C 363.394,144.882 365.894,146.882 368,149.5C 390.579,177.062 402.412,208.728 403.5,244.5C 381.5,244.5 359.5,244.5 337.5,244.5C 337.033,219.198 333.366,194.365 326.5,170C 326.759,168.739 327.426,167.739 328.5,167C 340.192,160.462 350.859,152.628 360.5,143.5 Z"/></g>
<g><path style="opacity:0.987" fill="#e3e3e5" d="M 431.5,145.5 C 438.929,149.33 443.762,155.33 446,163.5C 446.667,226.833 446.667,290.167 446,353.5C 445.814,362.04 442.314,368.873 435.5,374C 423,381.167 410.5,388.333 398,395.5C 400.098,400.38 402.265,405.38 404.5,410.5C 402.307,411.797 399.973,411.797 397.5,410.5C 393.694,401.554 389.361,392.888 384.5,384.5C 396.085,376.771 408.085,369.605 420.5,363C 423.63,360.872 426.463,358.372 429,355.5C 433.212,346.619 434.545,337.286 433,327.5C 431.89,325.963 430.39,325.297 428.5,325.5C 429.833,322.167 429.833,318.833 428.5,315.5C 430.451,315.773 431.951,315.107 433,313.5C 433.667,306.167 433.667,298.833 433,291.5C 432.184,290.177 431.017,289.511 429.5,289.5C 429.747,286.061 429.414,282.728 428.5,279.5C 430.144,279.714 431.644,279.38 433,278.5C 433.667,235.5 433.667,192.5 433,149.5C 432.209,148.255 431.709,146.922 431.5,145.5 Z"/></g>
<g><path style="opacity:1" fill="#d2f9fd" d="M 179.5,172.5 C 200.415,181.99 222.415,186.99 245.5,187.5C 245.5,199.5 245.5,211.5 245.5,223.5C 233.5,225.5 226.5,232.5 224.5,244.5C 206.167,244.5 187.833,244.5 169.5,244.5C 169.755,220.051 173.088,196.051 179.5,172.5 Z"/></g>
<g><path style="opacity:1" fill="#d2f9fd" d="M 317.5,172.5 C 318.931,172.881 319.764,173.881 320,175.5C 326.033,198.095 329.2,221.095 329.5,244.5C 311.167,244.5 292.833,244.5 274.5,244.5C 272.542,232.542 265.542,225.542 253.5,223.5C 253.5,211.5 253.5,199.5 253.5,187.5C 276.001,186.989 297.334,181.989 317.5,172.5 Z"/></g>
<g><path style="opacity:1" fill="#0286eb" d="M 245.5,230.5 C 260.171,230.005 267.337,237.005 267,251.5C 263.745,262.733 256.245,267.566 244.5,266C 234.488,261.814 230.321,254.314 232,243.5C 234.442,236.888 238.942,232.555 245.5,230.5 Z"/></g>
<g><path style="opacity:1" fill="#d3f9fe" d="M 95.5,252.5 C 117.5,252.5 139.5,252.5 161.5,252.5C 162.134,263.843 162.967,275.176 164,286.5C 166.682,300.571 169.348,314.571 172,328.5C 159.801,335.866 148.301,344.199 137.5,353.5C 110.663,325.361 96.6634,291.694 95.5,252.5 Z"/></g>
<g><path style="opacity:1" fill="#d3f9fe" d="M 169.5,252.5 C 187.833,252.5 206.167,252.5 224.5,252.5C 226.542,264.542 233.542,271.542 245.5,273.5C 245.5,285.5 245.5,297.5 245.5,309.5C 222.569,310.419 200.569,315.419 179.5,324.5C 173.594,300.871 170.261,276.871 169.5,252.5 Z"/></g>
<g><path style="opacity:1" fill="#d2f9fd" d="M 274.5,252.5 C 292.833,252.5 311.167,252.5 329.5,252.5C 328.743,276.861 325.409,300.861 319.5,324.5C 298.458,315.377 276.458,310.377 253.5,309.5C 253.5,297.5 253.5,285.5 253.5,273.5C 265.5,271.5 272.5,264.5 274.5,252.5 Z"/></g>
<g><path style="opacity:1" fill="#d3f9fe" d="M 337.5,252.5 C 359.5,252.5 381.5,252.5 403.5,252.5C 402.337,291.694 388.337,325.361 361.5,353.5C 350.699,344.199 339.199,335.866 327,328.5C 329.318,316.241 331.651,303.907 334,291.5C 335.696,278.541 336.863,265.541 337.5,252.5 Z"/></g>
<g><path style="opacity:1" fill="#3d2f62" d="M 429.5,289.5 C 431.017,289.511 432.184,290.177 433,291.5C 433.667,298.833 433.667,306.167 433,313.5C 431.951,315.107 430.451,315.773 428.5,315.5C 427.542,315.047 426.708,314.381 426,313.5C 425.333,306.167 425.333,298.833 426,291.5C 426.816,290.177 427.983,289.511 429.5,289.5 Z"/></g>
<g><path style="opacity:1" fill="#f8749d" d="M 231.5,317.5 C 236.167,317.5 240.833,317.5 245.5,317.5C 245.5,345.833 245.5,374.167 245.5,402.5C 230.257,399.958 217.757,392.624 208,380.5C 196.77,366.211 188.27,350.378 182.5,333C 189.138,329.229 196.138,326.229 203.5,324C 212.931,321.677 222.265,319.51 231.5,317.5 Z"/></g>
<g><path style="opacity:1" fill="#f9749d" d="M 253.5,317.5 C 275.674,318.061 296.674,323.228 316.5,333C 310.73,350.378 302.23,366.211 291,380.5C 281.292,392.604 268.792,399.937 253.5,402.5C 253.5,374.167 253.5,345.833 253.5,317.5 Z"/></g>
<g><path style="opacity:1" fill="#f6739d" d="M 173.5,336.5 C 174.5,336.5 175.5,336.5 176.5,336.5C 183.922,361.192 197.255,382.025 216.5,399C 188.362,393.098 164.029,380.098 143.5,360C 152.826,351.158 162.826,343.325 173.5,336.5 Z"/></g>
<g><path style="opacity:1" fill="#f7749d" d="M 323.5,336.5 C 335.412,342.571 346.079,350.404 355.5,360C 335.176,379.663 311.176,392.33 283.5,398C 297.597,385.989 308.43,371.489 316,354.5C 318.41,348.43 320.91,342.43 323.5,336.5 Z"/></g>
<g><path style="opacity:0.982" fill="#e3e4e6" d="M 79.5,363.5 C 130.772,392.471 181.772,421.971 232.5,452C 242.627,458.913 252.96,459.246 263.5,453C 301.333,431.167 339.167,409.333 377,387.5C 380.677,392.325 383.177,397.659 384.5,403.5C 349.698,423.069 315.031,442.902 280.5,463C 276.286,465.274 271.953,467.274 267.5,469C 262.833,469.667 258.167,469.667 253.5,469C 198.369,437.6 143.369,405.933 88.5,374C 84.2017,371.541 81.2017,368.041 79.5,363.5 Z"/></g>
<g><path style="opacity:1" fill="#0187ec" d="M 398.5,419.5 C 412.356,418.529 419.19,424.862 419,438.5C 415.141,449.346 407.641,453.18 396.5,450C 387.717,444.039 385.551,436.206 390,426.5C 392.441,423.546 395.275,421.213 398.5,419.5 Z"/></g>
<g><path style="opacity:0.979" fill="#e5e6e7" d="M 425.5,425.5 C 437.483,431.475 441.983,441.142 439,454.5C 433.543,468.482 423.376,473.982 408.5,471C 401.413,468.743 396.413,464.243 393.5,457.5C 398.349,459.318 403.349,459.818 408.5,459C 424.424,452.985 430.09,441.819 425.5,425.5 Z"/></g>
</svg>
