<?xml version="1.0" encoding="UTF-8"?>
<!DOCTYPE svg PUBLIC "-//W3C//DTD SVG 1.1//EN" "http://www.w3.org/Graphics/SVG/1.1/DTD/svg11.dtd">
<svg xmlns="http://www.w3.org/2000/svg" version="1.1" width="512px" height="512px" style="shape-rendering:geometricPrecision; text-rendering:geometricPrecision; image-rendering:optimizeQuality; fill-rule:evenodd; clip-rule:evenodd" xmlns:xlink="http://www.w3.org/1999/xlink">
<g><path style="opacity:0.962" fill="#010101" d="M 99.5,7.5 C 136.533,4.2581 163.033,19.2581 179,52.5C 190.523,88.9285 181.023,118.429 150.5,141C 114.717,159.526 82.8838,154.359 55,125.5C 38.6033,103.169 34.9366,78.8357 44,52.5C 54.8134,27.8641 73.3134,12.8641 99.5,7.5 Z"/></g>
<g><path style="opacity:1" fill="#c5e0fa" d="M 102.5,23.5 C 136.898,21.7592 158.398,37.4258 167,70.5C 168.998,105.817 152.832,127.317 118.5,135C 91.4122,136.878 71.9122,125.711 60,101.5C 50.0801,72.9321 57.2468,49.7654 81.5,32C 88.1874,28.0569 95.1874,25.2235 102.5,23.5 Z"/></g>
<g><path style="opacity:1" fill="#030304" d="M 111.5,39.5 C 135.865,41.8654 149.199,55.1987 151.5,79.5C 146.167,79.5 140.833,79.5 135.5,79.5C 134.649,67.8052 128.649,59.9719 117.5,56C 115.527,55.5045 113.527,55.3379 111.5,55.5C 111.5,50.1667 111.5,44.8333 111.5,39.5 Z"/></g>
<g><path style="opacity:0.953" fill="#000000" d="M 248.5,39.5 C 263.367,37.0115 273.534,42.6782 279,56.5C 281.982,71.3761 276.482,81.5428 262.5,87C 247.624,89.9816 237.457,84.4816 232,70.5C 229.146,55.5328 234.646,45.1994 248.5,39.5 Z"/></g>
<g><path style="opacity:0.966" fill="#010102" d="M 369.5,39.5 C 415.95,35.8498 448.45,55.1832 467,97.5C 479.59,142.438 466.757,177.938 428.5,204C 417.576,209.472 406.243,213.639 394.5,216.5C 408.913,277.384 392.58,328.217 345.5,369C 304.596,399.319 259.596,407.319 210.5,393C 154.227,372.055 121.394,331.888 112,272.5C 107.585,211.5 130.751,164.334 181.5,131C 217.196,110.877 254.863,106.044 294.5,116.5C 303.022,74.6464 328.022,48.9798 369.5,39.5 Z"/></g>
<g><path style="opacity:1" fill="#e9f5fc" d="M 372.5,55.5 C 408.28,52.9656 434.113,67.6323 450,99.5C 462.384,137.347 452.218,167.514 419.5,190C 409.395,195.091 398.728,198.258 387.5,199.5C 372.613,164.279 347.613,138.946 312.5,123.5C 313.987,98.0439 325.653,78.5439 347.5,65C 355.515,60.6452 363.848,57.4785 372.5,55.5 Z"/></g>
<g><path style="opacity:1" fill="#e0ecf2" d="M 252.5,55.5 C 260.658,54.8229 264.158,58.4895 263,66.5C 260.774,70.8608 257.274,72.3608 252.5,71C 248.139,68.7742 246.639,65.2742 248,60.5C 249.025,58.313 250.525,56.6464 252.5,55.5 Z"/></g>
<g><path style="opacity:1" fill="#040405" d="M 383.5,71.5 C 417.865,74.5313 436.531,93.198 439.5,127.5C 434.167,127.5 428.833,127.5 423.5,127.5C 421.167,103.167 407.833,89.8333 383.5,87.5C 383.5,82.1667 383.5,76.8333 383.5,71.5 Z"/></g>
<g><path style="opacity:1" fill="#c6e1fb" d="M 240.5,127.5 C 304.866,124.916 350.033,152.916 376,211.5C 390.266,254.901 384.266,295.235 358,332.5C 323.019,374.718 278.519,390.551 224.5,380C 169.54,363.042 137.374,326.209 128,269.5C 125.23,205.518 153.064,160.685 211.5,135C 221.094,131.686 230.761,129.186 240.5,127.5 Z"/></g>
<g><path style="opacity:1" fill="#030304" d="M 255.5,143.5 C 304.096,145.632 338.596,168.632 359,212.5C 364.462,226.311 367.296,240.645 367.5,255.5C 362.167,255.5 356.833,255.5 351.5,255.5C 349.66,215.506 330.993,186.339 295.5,168C 282.695,162.632 269.362,159.798 255.5,159.5C 255.5,154.167 255.5,148.833 255.5,143.5 Z"/></g>
<g><path style="opacity:0.956" fill="#010101" d="M 62.5,183.5 C 85.3294,180.547 101.163,189.547 110,210.5C 115.718,234.897 107.218,252.064 84.5,262C 60.1027,267.718 42.936,259.218 33,236.5C 27.4241,209.977 37.2574,192.31 62.5,183.5 Z"/></g>
<g><path style="opacity:1" fill="#e8f4fb" d="M 65.5,199.5 C 80.1279,197.727 89.9613,203.727 95,217.5C 96.7609,231.808 90.9276,241.642 77.5,247C 63.1917,248.761 53.3584,242.928 48,229.5C 45.8358,218.991 49.0024,210.491 57.5,204C 60.0993,202.205 62.7659,200.705 65.5,199.5 Z"/></g>
<g><path style="opacity:0.955" fill="#000000" d="M 439.5,247.5 C 467.978,245.811 481.145,259.144 479,287.5C 472.645,306.438 459.478,314.272 439.5,311C 420.562,304.645 412.728,291.478 416,271.5C 419.349,258.985 427.182,250.985 439.5,247.5 Z"/></g>
<g><path style="opacity:1" fill="#e6f2f9" d="M 442.5,263.5 C 458.644,263.137 465.144,270.804 462,286.5C 456.039,295.283 448.206,297.449 438.5,293C 428.083,281.501 429.416,271.667 442.5,263.5 Z"/></g>
<g><path style="opacity:0.956" fill="#010101" d="M 38.5,279.5 C 61.3294,276.547 77.1628,285.547 86,306.5C 91.7177,330.897 83.2177,348.064 60.5,358C 36.1027,363.718 18.936,355.218 9,332.5C 3.42409,305.977 13.2574,288.31 38.5,279.5 Z"/></g>
<g><path style="opacity:1" fill="#c4dff9" d="M 41.5,295.5 C 56.1279,293.727 65.9613,299.727 71,313.5C 72.7609,327.808 66.9276,337.642 53.5,343C 39.1917,344.761 29.3584,338.928 24,325.5C 21.8358,314.991 25.0024,306.491 33.5,300C 36.0993,298.205 38.7659,296.705 41.5,295.5 Z"/></g>
<g><path style="opacity:0.962" fill="#010101" d="M 419.5,359.5 C 456.533,356.258 483.033,371.258 499,404.5C 510.523,440.929 501.023,470.429 470.5,493C 434.717,511.526 402.884,506.359 375,477.5C 358.603,455.169 354.937,430.836 364,404.5C 374.813,379.864 393.313,364.864 419.5,359.5 Z"/></g>
<g><path style="opacity:0.953" fill="#000000" d="M 104.5,367.5 C 119.367,365.012 129.534,370.678 135,384.5C 137.982,399.376 132.482,409.543 118.5,415C 103.624,417.982 93.4572,412.482 88,398.5C 85.1465,383.533 90.6465,373.199 104.5,367.5 Z"/></g>
<g><path style="opacity:1" fill="#e9f5fc" d="M 422.5,375.5 C 456.901,373.764 478.401,389.43 487,422.5C 489.002,457.813 472.836,479.313 438.5,487C 411.412,488.878 391.912,477.711 380,453.5C 370.08,424.932 377.247,401.765 401.5,384C 408.187,380.057 415.187,377.224 422.5,375.5 Z"/></g>
<g><path style="opacity:1" fill="#e0ecf2" d="M 108.5,383.5 C 116.658,382.823 120.158,386.49 119,394.5C 116.774,398.861 113.274,400.361 108.5,399C 104.139,396.774 102.639,393.274 104,388.5C 105.025,386.313 106.525,384.646 108.5,383.5 Z"/></g>
<g><path style="opacity:1" fill="#030404" d="M 431.5,391.5 C 455.875,393.875 469.208,407.208 471.5,431.5C 466.167,431.5 460.833,431.5 455.5,431.5C 455.146,422.958 451.48,416.124 444.5,411C 440.401,408.91 436.067,407.744 431.5,407.5C 431.5,402.167 431.5,396.833 431.5,391.5 Z"/></g>
<g><path style="opacity:0.955" fill="#000000" d="M 271.5,407.5 C 299.978,405.811 313.145,419.144 311,447.5C 304.645,466.438 291.478,474.272 271.5,471C 252.562,464.645 244.728,451.478 248,431.5C 251.349,418.985 259.182,410.985 271.5,407.5 Z"/></g>
<g><path style="opacity:0.956" fill="#010101" d="M 110.5,423.5 C 133.329,420.547 149.163,429.547 158,450.5C 163.718,474.897 155.218,492.064 132.5,502C 108.103,507.718 90.936,499.218 81,476.5C 75.4241,449.977 85.2574,432.31 110.5,423.5 Z"/></g>
<g><path style="opacity:1" fill="#e6f2f9" d="M 274.5,423.5 C 290.644,423.137 297.144,430.804 294,446.5C 288.039,455.283 280.206,457.449 270.5,453C 260.083,441.501 261.416,431.667 274.5,423.5 Z"/></g>
<g><path style="opacity:1" fill="#c4dff9" d="M 113.5,439.5 C 128.128,437.727 137.961,443.727 143,457.5C 144.761,471.808 138.928,481.642 125.5,487C 111.192,488.761 101.358,482.928 96,469.5C 93.8358,458.991 97.0024,450.491 105.5,444C 108.099,442.205 110.766,440.705 113.5,439.5 Z"/></g>
</svg>
