<?xml version="1.0" encoding="UTF-8"?>
<!DOCTYPE svg PUBLIC "-//W3C//DTD SVG 1.1//EN" "http://www.w3.org/Graphics/SVG/1.1/DTD/svg11.dtd">
<svg xmlns="http://www.w3.org/2000/svg" version="1.1" width="512px" height="512px" style="shape-rendering:geometricPrecision; text-rendering:geometricPrecision; image-rendering:optimizeQuality; fill-rule:evenodd; clip-rule:evenodd" xmlns:xlink="http://www.w3.org/1999/xlink">
<g><path style="opacity:0.921" fill="#000000" d="M 181.5,-0.5 C 228.5,-0.5 275.5,-0.5 322.5,-0.5C 324.807,0.977392 326.64,2.97739 328,5.5C 328.667,22.8333 328.667,40.1667 328,57.5C 311.833,72.3333 295.667,87.1667 279.5,102C 271.73,101.885 264.23,102.718 257,104.5C 256.124,111.086 256.958,117.42 259.5,123.5C 293.299,129.412 307.799,149.412 303,183.5C 298.61,198.723 289.11,209.39 274.5,215.5C 328.032,250.197 381.699,284.697 435.5,319C 454.877,319.179 474.21,319.679 493.5,320.5C 494.192,321.025 494.692,321.692 495,322.5C 495.667,336.167 495.667,349.833 495,363.5C 494.167,364.333 493.333,365.167 492.5,366C 486.175,366.5 479.842,366.666 473.5,366.5C 473.5,399.167 473.5,431.833 473.5,464.5C 479.509,464.334 485.509,464.501 491.5,465C 492.931,465.465 494.097,466.299 495,467.5C 495.667,481.5 495.667,495.5 495,509.5C 494.283,510.044 493.783,510.711 493.5,511.5C 334.833,511.5 176.167,511.5 17.5,511.5C 17.2172,510.711 16.7172,510.044 16,509.5C 15.3333,495.5 15.3333,481.5 16,467.5C 17.1711,466.107 18.6711,465.273 20.5,465C 25.1548,464.501 29.8215,464.334 34.5,464.5C 34.5,431.833 34.5,399.167 34.5,366.5C 29.4889,366.666 24.4889,366.499 19.5,366C 18.0692,365.535 16.9025,364.701 16,363.5C 15.3333,349.833 15.3333,336.167 16,322.5C 16.3076,321.692 16.8076,321.025 17.5,320.5C 36.7899,319.679 56.1232,319.179 75.5,319C 129.664,284.084 183.997,249.417 238.5,215C 218.2,204.697 209.034,188.197 211,165.5C 214.667,161.5 218.333,161.5 222,165.5C 222.737,188.735 234.57,202.068 257.5,205.5C 283.169,201.677 294.003,187.01 290,161.5C 284.173,144.821 272.34,136.321 254.5,136C 251.898,135.117 249.731,133.617 248,131.5C 243.835,122.328 242.668,112.828 244.5,103C 237.089,102.892 229.755,102.225 222.5,101C 206.365,86.5332 190.532,71.6999 175,56.5C 174.333,40.1667 174.333,23.8333 175,7.5C 176.305,4.03864 178.471,1.37197 181.5,-0.5 Z M 187.5,12.5 C 230.167,12.5 272.833,12.5 315.5,12.5C 315.667,25.5043 315.5,38.5043 315,51.5C 301.215,63.6512 287.715,76.1512 274.5,89C 259.5,89.6667 244.5,89.6667 229.5,89C 215.366,76.5341 201.533,63.7008 188,50.5C 187.5,37.8377 187.333,25.1711 187.5,12.5 Z M 250.5,35.5 C 261.975,37.4466 265.308,43.78 260.5,54.5C 255.598,59.175 250.265,59.675 244.5,56C 238.137,46.5963 240.137,39.7629 250.5,35.5 Z M 254.5,219.5 C 306.613,252.396 358.613,285.562 410.5,319C 307.167,319.667 203.833,319.667 100.5,319C 152.068,286.058 203.402,252.892 254.5,219.5 Z M 28.5,332.5 C 179.833,332.5 331.167,332.5 482.5,332.5C 482.5,339.5 482.5,346.5 482.5,353.5C 331.167,353.5 179.833,353.5 28.5,353.5C 28.5,346.5 28.5,339.5 28.5,332.5 Z M 47.5,366.5 C 185.167,366.5 322.833,366.5 460.5,366.5C 460.5,399.167 460.5,431.833 460.5,464.5C 322.833,464.5 185.167,464.5 47.5,464.5C 47.5,431.833 47.5,399.167 47.5,366.5 Z M 28.5,477.5 C 179.833,477.5 331.167,477.5 482.5,477.5C 482.5,484.5 482.5,491.5 482.5,498.5C 331.167,498.5 179.833,498.5 28.5,498.5C 28.5,491.5 28.5,484.5 28.5,477.5 Z"/></g>
<g><path style="opacity:0.906" fill="#000000" d="M 249.5,22.5 C 265.908,22.9101 274.908,31.2435 276.5,47.5C 273.958,64.8774 263.958,72.7107 246.5,71C 231.89,66.6375 225.724,56.8042 228,41.5C 231.341,30.6501 238.507,24.3168 249.5,22.5 Z M 250.5,35.5 C 240.137,39.7629 238.137,46.5963 244.5,56C 250.265,59.675 255.598,59.175 260.5,54.5C 265.308,43.78 261.975,37.4466 250.5,35.5 Z"/></g>
<g><path style="opacity:0.909" fill="#000000" d="M 79.5,383.5 C 83.287,382.814 86.4537,383.814 89,386.5C 89.6667,405.833 89.6667,425.167 89,444.5C 85,449.833 81,449.833 77,444.5C 76.3333,425.167 76.3333,405.833 77,386.5C 78.045,385.627 78.8783,384.627 79.5,383.5 Z"/></g>
<g><path style="opacity:0.909" fill="#000000" d="M 122.5,383.5 C 124.857,383.337 127.19,383.503 129.5,384C 130.701,384.903 131.535,386.069 132,387.5C 132.667,406.167 132.667,424.833 132,443.5C 128.273,449.404 124.273,449.738 120,444.5C 119.333,425.167 119.333,405.833 120,386.5C 120.698,385.309 121.531,384.309 122.5,383.5 Z"/></g>
<g><path style="opacity:0.909" fill="#000000" d="M 164.5,383.5 C 167.187,383.336 169.854,383.503 172.5,384C 174.004,385.491 174.837,387.324 175,389.5C 175.667,406.833 175.667,424.167 175,441.5C 174.749,445.585 172.582,447.918 168.5,448.5C 166.386,447.966 164.552,446.966 163,445.5C 162.333,425.5 162.333,405.5 163,385.5C 163.717,384.956 164.217,384.289 164.5,383.5 Z"/></g>
<g><path style="opacity:0.909" fill="#000000" d="M 207.5,383.5 C 209.857,383.337 212.19,383.503 214.5,384C 215.667,384.5 216.5,385.333 217,386.5C 217.667,405.833 217.667,425.167 217,444.5C 212.727,449.738 208.727,449.404 205,443.5C 204.333,424.833 204.333,406.167 205,387.5C 205.662,386.016 206.496,384.683 207.5,383.5 Z"/></g>
<g><path style="opacity:0.909" fill="#000000" d="M 250.5,383.5 C 254.287,382.814 257.454,383.814 260,386.5C 260.667,405.833 260.667,425.167 260,444.5C 256,449.833 252,449.833 248,444.5C 247.333,425.167 247.333,405.833 248,386.5C 249.045,385.627 249.878,384.627 250.5,383.5 Z"/></g>
<g><path style="opacity:0.909" fill="#000000" d="M 293.5,383.5 C 295.857,383.337 298.19,383.503 300.5,384C 301.701,384.903 302.535,386.069 303,387.5C 303.667,406.167 303.667,424.833 303,443.5C 299.273,449.404 295.273,449.738 291,444.5C 290.333,425.167 290.333,405.833 291,386.5C 291.698,385.309 292.531,384.309 293.5,383.5 Z"/></g>
<g><path style="opacity:0.907" fill="#000000" d="M 335.5,383.5 C 338.187,383.336 340.854,383.503 343.5,384C 344.893,385.171 345.727,386.671 346,388.5C 346.667,406.5 346.667,424.5 346,442.5C 343.263,448.635 339.263,449.635 334,445.5C 333.333,425.5 333.333,405.5 334,385.5C 334.717,384.956 335.217,384.289 335.5,383.5 Z"/></g>
<g><path style="opacity:0.909" fill="#000000" d="M 378.5,383.5 C 380.857,383.337 383.19,383.503 385.5,384C 386.667,384.5 387.5,385.333 388,386.5C 388.667,405.833 388.667,425.167 388,444.5C 383.727,449.738 379.727,449.404 376,443.5C 375.333,424.833 375.333,406.167 376,387.5C 376.662,386.016 377.496,384.683 378.5,383.5 Z"/></g>
<g><path style="opacity:0.908" fill="#000000" d="M 421.5,383.5 C 425.287,382.814 428.454,383.814 431,386.5C 431.667,405.833 431.667,425.167 431,444.5C 427.047,449.809 423.047,449.809 419,444.5C 418.333,425.167 418.333,405.833 419,386.5C 420.045,385.627 420.878,384.627 421.5,383.5 Z"/></g>
</svg>
