<?xml version="1.0" encoding="UTF-8"?>
<!DOCTYPE svg PUBLIC "-//W3C//DTD SVG 1.1//EN" "http://www.w3.org/Graphics/SVG/1.1/DTD/svg11.dtd">
<svg xmlns="http://www.w3.org/2000/svg" version="1.1" width="512px" height="512px" style="shape-rendering:geometricPrecision; text-rendering:geometricPrecision; image-rendering:optimizeQuality; fill-rule:evenodd; clip-rule:evenodd" xmlns:xlink="http://www.w3.org/1999/xlink">
<g><path style="opacity:0.899" fill="#87d147" d="M 195.5,-0.5 C 198.167,-0.5 200.833,-0.5 203.5,-0.5C 208.436,6.35411 206.936,11.0208 199,13.5C 193.668,12.8346 191.335,9.83459 192,4.5C 192.697,2.4156 193.864,0.748938 195.5,-0.5 Z"/></g>
<g><path style="opacity:0.951" fill="#030101" d="M 252.5,-0.5 C 254.5,-0.5 256.5,-0.5 258.5,-0.5C 258.783,0.28913 259.283,0.955796 260,1.5C 260.5,15.8295 260.667,30.1628 260.5,44.5C 331.997,47.4902 388.497,77.8235 430,135.5C 453.638,170.129 465.804,208.462 466.5,250.5C 480.837,250.333 495.171,250.5 509.5,251C 510.044,251.717 510.711,252.217 511.5,252.5C 511.5,254.5 511.5,256.5 511.5,258.5C 510.711,258.783 510.044,259.283 509.5,260C 495.171,260.5 480.837,260.667 466.5,260.5C 463.511,331.995 433.177,388.495 375.5,430C 340.764,453.3 302.431,465.467 260.5,466.5C 260.667,480.837 260.5,495.171 260,509.5C 259.283,510.044 258.783,510.711 258.5,511.5C 256.5,511.5 254.5,511.5 252.5,511.5C 252.217,510.711 251.717,510.044 251,509.5C 250.5,495.171 250.333,480.837 250.5,466.5C 179.003,463.51 122.503,433.177 81,375.5C 57.3624,340.871 45.1958,302.538 44.5,260.5C 30.1628,260.667 15.8295,260.5 1.5,260C 0.955796,259.283 0.28913,258.783 -0.5,258.5C -0.5,256.5 -0.5,254.5 -0.5,252.5C 0.28913,252.217 0.955796,251.717 1.5,251C 15.8295,250.5 30.1628,250.333 44.5,250.5C 47.4893,179.005 77.8226,122.505 135.5,81C 170.127,57.3636 208.46,45.1969 250.5,44.5C 250.333,30.1628 250.5,15.8295 251,1.5C 251.717,0.955796 252.217,0.28913 252.5,-0.5 Z M 238.5,107.5 C 242.5,107.5 246.5,107.5 250.5,107.5C 250.334,114.175 250.5,120.842 251,127.5C 254,130.167 257,130.167 260,127.5C 260.5,120.842 260.666,114.175 260.5,107.5C 319.712,111.571 362.879,139.904 390,192.5C 398.595,210.879 403.095,230.213 403.5,250.5C 396.825,250.334 390.158,250.5 383.5,251C 380.833,254 380.833,257 383.5,260C 390.158,260.5 396.825,260.666 403.5,260.5C 399.427,319.714 371.094,362.881 318.5,390C 300.118,398.596 280.785,403.096 260.5,403.5C 260.666,396.825 260.5,390.158 260,383.5C 257,380.833 254,380.833 251,383.5C 250.5,390.158 250.334,396.825 250.5,403.5C 191.343,399.349 148.176,371.016 121,318.5C 112.405,300.121 107.905,280.787 107.5,260.5C 114.175,260.666 120.842,260.5 127.5,260C 130.167,257 130.167,254 127.5,251C 120.842,250.5 114.175,250.334 107.5,250.5C 111.151,195.009 136.818,153.176 184.5,125C 201.62,116.062 219.62,110.228 238.5,107.5 Z"/></g>
<g><path style="opacity:0.946" fill="#f5c84b" d="M 137.5,16.5 C 138.496,16.4142 139.329,16.7476 140,17.5C 143.015,26.0147 148.849,31.6814 157.5,34.5C 148.106,37.7267 141.94,44.06 139,53.5C 137.055,48.4428 134.221,43.9428 130.5,40C 126.877,38.0707 123.21,36.2374 119.5,34.5C 129.244,32.0895 135.244,26.0895 137.5,16.5 Z"/></g>
<g><path style="opacity:1" fill="#fa647d" d="M 238.5,54.5 C 242.5,54.5 246.5,54.5 250.5,54.5C 250.5,68.5 250.5,82.5 250.5,96.5C 184.399,101.45 137.232,133.783 109,193.5C 101.224,211.672 97.0575,230.672 96.5,250.5C 82.5,250.5 68.5,250.5 54.5,250.5C 57.8858,185.889 84.8858,133.723 135.5,94C 166.356,71.6607 200.69,58.494 238.5,54.5 Z"/></g>
<g><path style="opacity:1" fill="#fa647d" d="M 260.5,54.5 C 345.007,60.23 405.173,101.23 441,177.5C 450.756,200.858 455.923,225.191 456.5,250.5C 442.5,250.5 428.5,250.5 414.5,250.5C 409.565,185.43 377.899,138.596 319.5,110C 300.683,101.863 281.017,97.3628 260.5,96.5C 260.5,82.5 260.5,68.5 260.5,54.5 Z"/></g>
<g><path style="opacity:0.88" fill="#fc647c" d="M 453.5,109.5 C 456.314,115.813 460.981,120.313 467.5,123C 464.623,123.956 461.956,125.289 459.5,127C 457.611,129.959 455.611,132.792 453.5,135.5C 451.138,129.16 446.805,124.827 440.5,122.5C 447.185,120.482 451.518,116.149 453.5,109.5 Z"/></g>
<g><path style="opacity:0.947" fill="#050301" d="M 203.5,157.5 C 227.836,157.333 252.169,157.5 276.5,158C 292,173.5 307.5,189 323,204.5C 324.656,248.75 324.989,293.083 324,337.5C 322.735,343.062 319.235,346.228 313.5,347C 277.833,347.667 242.167,347.667 206.5,347C 202.383,346.194 199.216,344.027 197,340.5C 195.345,282.558 195.012,224.558 196,166.5C 197.614,162.723 200.114,159.723 203.5,157.5 Z"/></g>
<g><path style="opacity:1" fill="#f0c44a" d="M 207.5,167.5 C 227.833,167.5 248.167,167.5 268.5,167.5C 268.056,180.907 268.556,194.24 270,207.5C 271.873,209.709 274.04,211.542 276.5,213C 288.829,213.5 301.162,213.667 313.5,213.5C 313.5,254.5 313.5,295.5 313.5,336.5C 277.594,336.83 241.76,336.496 206,335.5C 205.333,280.167 205.333,224.833 206,169.5C 206.717,168.956 207.217,168.289 207.5,167.5 Z"/></g>
<g><path style="opacity:1" fill="#f8d983" d="M 278.5,175.5 C 287.965,184.464 297.298,193.631 306.5,203C 297.5,203.667 288.5,203.667 279.5,203C 278.515,193.917 278.182,184.751 278.5,175.5 Z"/></g>
<g><path style="opacity:1" fill="#080601" d="M 224.5,225.5 C 248.502,225.333 272.502,225.5 296.5,226C 300.482,228.952 300.482,231.952 296.5,235C 272.5,235.667 248.5,235.667 224.5,235C 220.599,231.792 220.599,228.626 224.5,225.5 Z"/></g>
<g><path style="opacity:1" fill="#0f0b04" d="M 224.5,245.5 C 248.502,245.333 272.502,245.5 296.5,246C 300.072,248.626 300.405,251.626 297.5,255C 272.833,255.667 248.167,255.667 223.5,255C 220.675,251.476 221.008,248.31 224.5,245.5 Z"/></g>
<g><path style="opacity:1" fill="#fa647d" d="M 54.5,260.5 C 68.5,260.5 82.5,260.5 96.5,260.5C 101.46,326.629 133.793,373.795 193.5,402C 211.689,409.797 230.689,413.964 250.5,414.5C 250.5,428.5 250.5,442.5 250.5,456.5C 166.896,451.135 107.062,410.802 71,335.5C 60.6385,311.579 55.1385,286.579 54.5,260.5 Z"/></g>
<g><path style="opacity:1" fill="#fa647d" d="M 414.5,260.5 C 428.5,260.5 442.5,260.5 456.5,260.5C 451.101,344.196 410.767,404.029 335.5,440C 311.573,450.364 286.573,455.864 260.5,456.5C 260.5,442.5 260.5,428.5 260.5,414.5C 336.158,407.938 385.658,368.605 409,296.5C 411.72,284.628 413.553,272.628 414.5,260.5 Z"/></g>
<g><path style="opacity:1" fill="#010000" d="M 224.5,266.5 C 248.502,266.333 272.502,266.5 296.5,267C 300.5,270 300.5,273 296.5,276C 272.5,276.667 248.5,276.667 224.5,276C 220.581,272.84 220.581,269.673 224.5,266.5 Z"/></g>
<g><path style="opacity:1" fill="#0f0b04" d="M 223.5,287.5 C 248.169,287.333 272.836,287.5 297.5,288C 300.129,291.199 299.796,294.199 296.5,297C 272.5,297.667 248.5,297.667 224.5,297C 221.122,294.036 220.789,290.869 223.5,287.5 Z"/></g>
<g><path style="opacity:1" fill="#080602" d="M 224.5,307.5 C 243.836,307.333 263.17,307.5 282.5,308C 286.482,311.048 286.482,314.048 282.5,317C 263.167,317.667 243.833,317.667 224.5,317C 220.562,313.887 220.562,310.72 224.5,307.5 Z"/></g>
<g><path style="opacity:0.974" fill="#6fd6f9" d="M 398.5,445.5 C 406.664,444.667 409.998,448.334 408.5,456.5C 418.523,455.504 421.523,459.504 417.5,468.5C 414.667,469.933 411.667,470.6 408.5,470.5C 409.251,479.689 405.417,482.689 397,479.5C 395.711,476.649 395.211,473.649 395.5,470.5C 384.182,470.884 381.515,466.384 387.5,457C 390.146,456.503 392.813,456.336 395.5,456.5C 394.807,452.247 395.807,448.581 398.5,445.5 Z"/></g>
<g><path style="opacity:0.92" fill="#f5c84c" d="M 348.5,511.5 C 346.167,511.5 343.833,511.5 341.5,511.5C 336.266,507.04 336.266,502.54 341.5,498C 349.122,496.622 352.622,499.789 352,507.5C 351.31,509.35 350.144,510.684 348.5,511.5 Z"/></g>
</svg>
